ply
format ascii 1.0
comment None
element vertex 388
property float x
property float y
property float z
element face 772
property list uchar int vertex_indices
end_header
42.609 52.168 35.312
43.071 52.145 34.598
42.952 51.656 35.024
42.900 51.458 35.634
42.493 52.060 36.171
42.887 51.345 36.642
42.575 52.046 37.121
43.023 51.401 37.661
42.792 52.098 37.902
43.200 51.726 38.377
42.558 53.080 35.099
42.964 53.268 34.419
42.349 52.946 35.948
42.360 52.733 36.739
42.583 52.949 37.670
43.063 52.588 38.487
42.583 54.093 35.023
42.969 54.358 34.471
42.378 53.959 35.810
42.403 53.775 36.881
42.671 53.946 37.871
42.936 53.508 38.409
42.669 54.987 35.099
42.967 55.218 34.699
42.471 54.760 35.627
42.500 54.943 36.509
42.699 54.790 37.544
42.807 55.627 35.200
42.634 55.546 35.833
42.884 56.069 35.615
42.709 55.776 36.587
42.766 55.559 37.178
42.855 56.148 36.224
42.935 59.353 33.962
43.004 59.449 33.538
43.176 58.874 33.624
43.105 58.961 34.128
42.726 60.168 34.213
42.811 60.068 33.637
42.889 59.618 34.549
42.692 60.490 33.906
42.661 61.236 34.304
42.590 61.160 35.142
42.691 60.335 34.927
42.683 60.791 35.497
42.678 62.155 35.214
42.816 62.415 34.502
42.641 61.385 35.868
42.682 62.109 36.024
42.774 61.798 36.408
42.923 62.915 35.259
43.135 63.232 34.792
42.953 62.886 35.956
42.866 62.321 36.713
43.023 62.809 36.686
43.174 62.647 37.145
43.468 63.539 35.662
43.502 63.361 36.626
43.557 63.104 37.288
44.271 50.418 39.113
44.192 50.245 38.751
44.443 50.094 39.060
44.553 50.226 39.263
43.604 51.190 35.031
44.305 51.150 34.444
44.554 50.850 35.121
44.197 50.642 35.995
43.455 50.861 36.211
44.045 50.443 37.067
43.474 50.769 37.345
44.056 50.331 38.074
43.728 50.887 38.500
44.131 51.010 39.182
44.513 50.681 39.354
43.821 51.635 34.167
44.110 51.976 33.765
44.504 51.484 33.971
43.738 51.934 39.019
44.398 51.511 39.386
43.550 52.487 33.972
44.119 52.729 33.651
43.566 53.409 39.044
44.269 52.664 39.395
43.506 53.569 33.940
44.204 53.843 33.607
43.168 54.539 38.507
43.783 54.542 39.166
44.249 53.903 39.420
43.504 54.902 34.079
44.296 55.101 33.442
43.143 55.615 37.935
43.771 55.549 38.789
44.280 54.958 39.323
43.696 56.184 33.965
44.183 56.057 33.285
43.169 55.997 34.890
43.103 56.280 37.034
43.672 56.492 37.992
44.159 56.351 38.598
44.404 55.729 39.057
43.941 56.958 33.350
44.459 57.067 32.729
44.440 56.395 32.966
43.573 57.250 34.148
43.437 56.996 34.941
43.221 56.682 35.957
43.716 57.141 36.981
43.999 57.082 37.734
44.090 56.843 38.186
43.936 57.730 32.977
44.370 57.921 32.368
43.471 58.160 33.822
43.499 58.001 34.903
43.708 57.749 35.941
44.193 57.844 36.633
44.386 57.460 37.230
43.546 58.748 32.938
44.057 58.734 32.165
43.275 59.074 34.932
43.777 58.853 35.806
44.363 58.591 36.332
43.799 60.217 31.487
44.091 60.511 30.871
44.353 59.858 31.093
44.307 59.226 31.618
43.536 59.734 32.301
43.074 59.850 33.117
42.947 60.122 35.365
43.580 60.064 36.161
44.448 59.725 36.581
43.601 61.347 31.113
44.145 61.150 30.316
43.285 60.996 32.079
43.025 60.777 32.908
42.793 60.649 33.567
43.001 61.052 36.230
44.192 60.547 36.990
43.773 61.235 37.133
44.492 61.158 37.552
43.861 62.159 30.173
44.340 61.942 29.441
44.184 61.596 29.836
43.445 62.411 31.110
43.215 62.120 31.908
43.028 61.920 32.810
42.838 61.677 33.635
43.226 62.009 37.057
44.328 61.695 37.790
43.934 62.110 37.723
44.522 62.180 38.080
44.224 62.578 29.401
44.636 62.754 28.977
44.584 62.301 29.014
43.967 62.955 29.890
43.714 63.165 30.698
43.384 63.073 31.747
43.176 62.823 32.582
43.164 63.012 33.695
43.675 62.674 37.616
44.337 62.664 38.066
44.360 63.132 29.465
44.113 63.412 30.054
44.124 63.799 30.641
43.806 63.789 31.506
44.236 64.141 31.228
43.593 63.680 32.674
43.691 63.918 33.711
43.701 63.867 34.653
44.288 64.051 35.519
44.240 63.764 36.431
44.188 63.486 37.275
44.198 63.129 37.820
44.305 64.201 32.096
44.201 64.226 33.247
44.453 50.094 38.668
44.628 50.097 39.072
44.744 50.398 39.206
45.079 51.221 34.556
45.155 50.937 35.324
44.917 50.742 36.024
44.678 50.524 37.007
44.518 50.277 37.964
44.796 51.041 39.288
44.645 52.041 33.677
45.030 51.615 33.946
44.806 52.009 39.315
44.801 52.906 33.566
44.797 53.178 39.338
45.083 54.103 33.438
44.771 54.326 39.314
44.856 55.040 33.144
45.034 55.477 32.969
45.203 54.958 33.150
44.713 55.164 39.233
44.636 55.706 33.032
45.034 56.277 32.781
44.860 55.575 38.912
44.689 56.170 38.596
45.077 57.300 32.363
44.310 57.116 37.871
44.479 56.754 38.215
44.935 57.851 32.011
45.213 58.164 31.803
45.331 57.758 32.034
44.997 57.469 36.906
44.915 58.133 36.541
44.746 57.078 37.560
44.650 58.376 31.859
45.055 58.773 31.562
45.227 59.223 36.401
44.861 60.318 30.514
44.900 59.447 31.158
45.277 60.271 36.905
44.669 61.238 29.683
45.302 61.379 29.341
45.195 60.841 29.817
44.779 60.639 37.269
44.910 61.144 37.666
44.859 61.828 29.072
45.033 62.345 28.757
45.285 61.915 28.877
44.991 61.728 37.958
45.026 62.527 38.242
45.009 62.797 28.815
44.754 63.001 38.145
44.779 63.113 29.136
44.769 63.547 29.891
44.526 64.055 30.700
44.977 63.962 30.651
44.130 64.249 34.104
44.441 64.303 34.758
44.848 64.256 35.274
45.191 63.865 35.933
44.966 63.609 37.051
44.835 63.328 37.786
44.708 64.217 31.284
44.989 64.224 31.904
44.925 64.258 32.784
44.821 64.322 33.931
44.994 64.333 34.733
44.756 50.267 38.727
45.521 51.299 35.295
45.454 51.205 36.071
45.236 51.019 37.045
44.993 50.729 38.121
44.933 50.674 38.925
45.233 52.193 33.798
45.510 51.770 34.244
45.724 51.706 34.922
46.044 52.469 35.271
45.839 52.001 35.971
45.631 51.846 37.069
45.360 51.625 38.056
45.081 51.362 38.852
45.421 53.034 33.724
45.728 52.477 34.128
46.063 53.140 36.226
46.184 53.425 35.433
45.848 52.889 37.145
45.561 52.682 38.085
45.207 52.401 38.858
45.552 53.603 33.693
45.861 53.465 34.086
46.092 54.295 36.286
46.224 54.215 35.429
45.893 53.981 37.229
45.617 53.791 38.105
45.245 53.563 38.868
45.389 55.521 33.052
45.559 54.820 33.435
45.660 54.106 33.720
46.194 55.203 34.956
46.151 55.050 35.678
46.210 54.601 34.988
45.935 55.286 36.559
45.763 54.998 37.309
45.589 54.676 38.013
45.185 54.745 38.789
45.565 56.110 32.956
45.793 55.636 33.378
46.148 55.727 35.348
46.094 56.450 35.323
45.903 56.044 36.152
45.564 55.918 37.214
45.257 55.583 38.200
45.590 56.812 32.739
45.869 56.401 33.156
45.828 56.876 35.962
46.050 57.293 35.309
45.384 56.829 36.867
45.017 56.462 37.860
45.594 58.040 31.977
45.730 57.661 32.414
45.578 57.641 36.142
46.062 58.162 35.369
45.625 58.558 31.813
45.922 58.306 32.205
45.664 58.561 35.992
46.115 58.887 35.522
45.271 59.722 30.977
45.605 59.346 31.473
45.884 59.267 35.971
45.875 60.030 36.341
45.501 60.981 29.713
45.577 60.719 30.230
45.678 60.169 30.967
45.284 61.078 37.514
45.833 60.980 37.012
45.429 62.210 28.729
45.644 61.954 29.135
45.775 61.332 29.812
45.652 61.719 37.734
45.471 62.203 38.152
45.802 62.267 37.935
45.360 62.562 28.766
45.584 62.323 28.820
45.446 63.152 29.591
45.541 63.483 30.370
45.837 62.881 29.864
45.949 63.493 31.212
46.117 62.909 30.585
46.349 63.005 31.304
45.552 62.585 38.190
45.299 62.964 38.092
45.195 63.009 29.113
45.334 63.975 31.233
46.224 63.373 31.834
45.652 63.903 32.126
45.580 64.000 33.278
46.193 63.440 32.639
45.502 64.067 34.323
46.133 63.488 33.703
45.323 64.123 35.098
45.962 63.546 34.915
46.015 63.342 35.845
45.729 63.369 36.686
45.508 63.205 37.524
45.892 52.153 34.593
46.056 52.888 34.678
46.161 53.850 34.775
46.022 54.834 34.170
46.111 56.278 33.823
46.179 55.877 34.673
46.079 57.249 33.196
46.268 57.227 33.952
46.214 56.812 34.577
46.263 58.386 32.915
46.374 58.082 33.825
46.283 57.734 34.595
46.187 59.110 32.269
46.573 59.348 33.097
46.588 59.133 33.839
46.400 58.798 34.764
46.328 60.229 31.953
46.634 59.958 32.843
46.873 60.294 33.865
46.647 59.951 34.822
46.286 59.627 35.571
46.216 61.217 30.981
46.656 61.243 32.222
46.883 60.994 33.245
47.102 61.015 33.967
47.105 61.008 34.353
47.137 61.355 34.675
46.901 61.025 34.960
46.400 60.807 35.998
46.039 62.152 30.011
46.415 62.341 31.095
46.627 62.034 32.012
46.800 61.950 33.072
47.133 61.471 34.109
46.956 61.964 34.100
47.022 61.650 35.072
47.132 61.811 34.391
46.958 62.039 35.112
46.625 62.005 35.876
46.112 61.925 37.142
45.653 62.587 29.208
46.503 62.833 31.949
46.567 62.765 32.899
46.584 62.756 33.994
47.030 62.053 34.693
46.622 62.623 35.134
46.286 62.888 36.182
46.087 62.748 36.970
45.805 62.681 37.778
47.187 61.317 34.342
47.149 61.691 34.636
3 2 1 0
3 4 3 0
3 0 3 2
3 6 5 4
3 4 5 3
3 8 7 6
3 6 7 5
3 8 9 7
3 0 1 10
3 10 1 11
3 0 12 4
3 0 10 12
3 4 13 6
3 4 12 13
3 6 14 8
3 6 13 14
3 9 8 15
3 15 8 14
3 10 11 16
3 16 11 17
3 10 18 12
3 10 16 18
3 12 19 13
3 12 18 19
3 21 14 20
3 14 19 20
3 14 13 19
3 14 21 15
3 16 17 22
3 22 17 23
3 16 24 18
3 16 22 24
3 18 25 19
3 18 24 25
3 20 19 26
3 26 19 25
3 23 27 22
3 29 28 27
3 28 22 27
3 28 24 22
3 31 25 30
3 25 28 30
3 25 24 28
3 25 31 26
3 29 32 28
3 28 32 30
3 35 34 33
3 33 36 35
3 33 34 37
3 37 34 38
3 36 33 39
3 39 33 37
3 38 40 37
3 40 41 37
3 41 42 37
3 43 39 37
3 43 37 42
3 42 44 43
3 42 41 45
3 45 41 46
3 44 42 47
3 42 48 47
3 42 45 48
3 48 49 47
3 45 46 50
3 50 46 51
3 45 52 48
3 45 50 52
3 49 48 53
3 48 54 53
3 48 52 54
3 54 55 53
3 51 56 50
3 50 56 52
3 52 56 57
3 52 57 54
3 54 57 58
3 54 58 55
3 61 60 59
3 59 62 61
3 65 64 63
3 67 66 63
3 63 66 65
3 69 68 67
3 67 68 66
3 71 70 69
3 69 70 68
3 70 71 60
3 71 59 60
3 71 72 59
3 62 59 73
3 73 59 72
3 76 75 74
3 76 74 64
3 64 74 63
3 74 1 63
3 1 2 63
3 63 2 3
3 63 3 67
3 67 3 5
3 67 5 69
3 69 5 7
3 69 7 71
3 71 7 9
3 77 71 9
3 72 71 77
3 73 72 78
3 78 72 77
3 74 75 79
3 79 75 80
3 79 11 1
3 79 1 74
3 15 81 77
3 15 77 9
3 78 77 82
3 82 77 81
3 79 80 83
3 83 80 84
3 83 17 11
3 83 11 79
3 20 85 21
3 81 15 21
3 85 81 21
3 86 81 85
3 82 81 87
3 87 81 86
3 83 84 88
3 88 84 89
3 88 23 17
3 88 17 83
3 26 90 85
3 26 85 20
3 85 91 86
3 85 90 91
3 87 86 92
3 92 86 91
3 88 89 93
3 93 89 94
3 95 27 23
3 88 95 23
3 93 95 88
3 95 29 27
3 30 96 31
3 90 26 31
3 96 90 31
3 97 90 96
3 99 91 98
3 91 97 98
3 91 90 97
3 91 99 92
3 102 101 100
3 102 100 94
3 100 93 94
3 100 103 93
3 93 104 95
3 93 103 104
3 105 32 29
3 95 105 29
3 104 105 95
3 96 30 32
3 105 96 32
3 106 96 105
3 108 97 107
3 97 106 107
3 97 96 106
3 97 108 98
3 100 101 109
3 109 101 110
3 100 111 103
3 100 109 111
3 103 112 104
3 103 111 112
3 104 113 105
3 104 112 113
3 115 106 114
3 106 113 114
3 106 105 113
3 106 115 107
3 109 110 116
3 116 110 117
3 116 34 35
3 111 116 35
3 109 116 111
3 111 35 36
3 118 111 36
3 112 111 118
3 112 119 113
3 112 118 119
3 114 113 120
3 120 113 119
3 123 122 121
3 125 124 121
3 121 124 123
3 124 125 117
3 125 116 117
3 125 126 116
3 126 38 34
3 126 34 116
3 39 127 118
3 39 118 36
3 118 128 119
3 118 127 128
3 120 119 129
3 129 119 128
3 121 122 130
3 130 122 131
3 121 132 125
3 121 130 132
3 125 133 126
3 125 132 133
3 134 40 38
3 126 134 38
3 133 134 126
3 43 127 39
3 41 40 134
3 127 43 44
3 135 127 44
3 128 127 135
3 129 128 136
3 128 137 136
3 128 135 137
3 137 138 136
3 141 140 139
3 141 139 131
3 139 130 131
3 139 142 130
3 130 143 132
3 130 142 143
3 132 144 133
3 132 143 144
3 133 145 134
3 133 144 145
3 145 46 41
3 145 41 134
3 47 135 44
3 135 47 49
3 146 135 49
3 137 135 146
3 138 137 147
3 137 148 147
3 137 146 148
3 148 149 147
3 152 151 150
3 152 150 140
3 150 139 140
3 150 153 139
3 139 154 142
3 139 153 154
3 142 155 143
3 142 154 155
3 143 156 144
3 143 155 156
3 144 157 145
3 144 156 157
3 157 51 46
3 157 46 145
3 53 146 49
3 146 53 55
3 158 146 55
3 148 146 158
3 149 148 159
3 159 148 158
3 151 160 150
3 150 160 153
3 153 160 161
3 153 161 154
3 154 161 162
3 164 163 162
3 163 154 162
3 163 155 154
3 155 165 156
3 155 163 165
3 167 157 166
3 157 165 166
3 157 156 165
3 157 167 51
3 167 56 51
3 167 168 56
3 56 169 57
3 168 169 56
3 57 170 58
3 169 170 57
3 55 58 158
3 58 171 158
3 58 170 171
3 158 171 159
3 164 172 163
3 163 172 165
3 165 172 173
3 165 173 166
3 175 174 61
3 61 174 60
3 61 62 175
3 175 62 176
3 178 177 65
3 65 177 64
3 179 65 66
3 179 178 65
3 180 66 68
3 180 179 66
3 181 68 70
3 181 180 68
3 70 60 174
3 70 174 181
3 73 176 62
3 73 182 176
3 184 183 76
3 76 183 75
3 76 64 177
3 76 177 184
3 78 182 73
3 78 185 182
3 183 80 75
3 186 80 183
3 82 185 78
3 82 187 185
3 186 84 80
3 188 84 186
3 87 187 82
3 87 189 187
3 192 191 190
3 188 192 190
3 89 188 190
3 84 188 89
3 92 189 87
3 92 193 189
3 190 191 194
3 194 191 195
3 194 94 89
3 194 89 190
3 197 196 99
3 197 99 98
3 92 99 193
3 193 99 196
3 194 195 102
3 195 101 102
3 195 198 101
3 194 102 94
3 107 199 108
3 199 200 108
3 200 98 108
3 200 197 98
3 203 202 201
3 198 203 201
3 110 198 201
3 101 198 110
3 205 204 115
3 205 115 114
3 107 115 199
3 115 206 199
3 115 204 206
3 199 206 200
3 201 202 207
3 207 202 208
3 207 117 110
3 207 110 201
3 120 205 114
3 120 209 205
3 211 210 123
3 123 210 122
3 124 207 208
3 211 124 208
3 123 124 211
3 207 124 117
3 129 209 120
3 129 212 209
3 215 214 213
3 210 215 213
3 131 210 213
3 122 210 131
3 216 212 129
3 216 129 136
3 136 138 216
3 216 138 217
3 220 219 218
3 220 218 214
3 214 218 213
3 218 140 213
3 140 141 213
3 213 141 131
3 221 217 138
3 221 138 147
3 147 149 221
3 221 149 222
3 218 219 152
3 219 151 152
3 219 223 151
3 218 152 140
3 159 222 149
3 159 224 222
3 223 225 151
3 151 225 160
3 160 226 161
3 225 226 160
3 226 228 227
3 162 226 227
3 161 226 162
3 227 164 162
3 166 229 167
3 230 168 167
3 230 167 229
3 168 230 231
3 232 168 231
3 169 168 232
3 169 233 170
3 232 233 169
3 170 234 171
3 233 234 170
3 159 171 224
3 224 171 234
3 228 235 227
3 227 235 164
3 235 172 164
3 235 236 172
3 172 237 173
3 236 237 172
3 166 173 229
3 173 238 229
3 173 237 238
3 229 238 230
3 230 238 239
3 230 239 231
3 240 174 175
3 176 240 175
3 241 177 178
3 179 242 178
3 178 242 241
3 180 243 179
3 179 243 242
3 181 244 180
3 180 244 243
3 174 240 181
3 240 244 181
3 240 245 244
3 182 245 176
3 176 245 240
3 246 183 184
3 247 246 184
3 247 184 177
3 248 247 177
3 241 248 177
3 250 249 248
3 241 250 248
3 242 250 241
3 251 242 243
3 250 242 251
3 252 243 244
3 251 243 252
3 253 244 245
3 252 244 253
3 185 253 182
3 182 253 245
3 254 186 246
3 246 186 183
3 246 247 255
3 246 255 254
3 249 250 256
3 249 256 257
3 258 250 251
3 256 250 258
3 259 251 252
3 258 251 259
3 260 252 253
3 259 252 260
3 187 260 185
3 185 260 253
3 261 188 254
3 254 188 186
3 254 255 262
3 254 262 261
3 257 256 263
3 257 263 264
3 265 256 258
3 263 256 265
3 266 258 259
3 265 258 266
3 267 259 260
3 266 259 267
3 189 267 187
3 187 267 260
3 268 191 192
3 269 268 192
3 269 192 188
3 270 269 188
3 261 270 188
3 273 272 271
3 262 270 261
3 272 273 264
3 263 272 264
3 274 272 263
3 275 263 265
3 274 263 275
3 276 265 266
3 275 265 276
3 277 266 267
3 276 266 277
3 193 277 189
3 189 277 267
3 278 195 268
3 268 195 191
3 268 269 279
3 268 279 278
3 280 271 272
3 282 281 280
3 272 282 280
3 274 282 272
3 283 274 275
3 282 274 283
3 284 275 276
3 283 275 284
3 197 284 196
3 284 277 196
3 284 276 277
3 196 277 193
3 286 285 278
3 285 195 278
3 285 198 195
3 286 278 279
3 281 282 287
3 281 287 288
3 289 282 283
3 287 282 289
3 290 283 284
3 289 283 290
3 200 290 197
3 197 290 284
3 291 202 203
3 292 291 203
3 198 292 203
3 285 292 198
3 288 287 293
3 288 293 294
3 205 293 204
3 293 289 204
3 293 287 289
3 204 289 206
3 206 289 290
3 206 290 200
3 296 295 291
3 295 202 291
3 295 208 202
3 296 291 292
3 294 293 297
3 294 297 298
3 209 297 205
3 205 297 293
3 299 210 211
3 300 299 211
3 208 300 211
3 295 300 208
3 301 298 297
3 297 209 301
3 209 302 301
3 209 212 302
3 303 214 215
3 304 303 215
3 304 215 210
3 305 304 210
3 299 305 210
3 305 299 300
3 212 216 306
3 307 212 306
3 302 212 307
3 217 306 216
3 308 219 220
3 309 308 220
3 309 220 214
3 310 309 214
3 303 310 214
3 310 303 304
3 311 307 306
3 313 311 312
3 312 311 221
3 311 306 221
3 306 217 221
3 222 312 221
3 315 314 308
3 314 219 308
3 314 223 219
3 318 317 316
3 309 315 308
3 320 319 317
3 320 317 318
3 321 319 320
3 322 313 312
3 312 222 322
3 222 323 322
3 222 224 323
3 314 324 223
3 223 324 225
3 317 226 316
3 226 324 316
3 226 225 324
3 226 317 228
3 317 325 228
3 317 319 325
3 319 321 326
3 327 319 326
3 325 319 327
3 329 328 327
3 329 327 326
3 331 330 328
3 331 328 329
3 333 332 330
3 333 330 331
3 232 231 332
3 333 232 332
3 334 232 333
3 232 335 233
3 334 335 232
3 233 336 234
3 335 336 233
3 224 234 323
3 323 234 336
3 325 235 228
3 235 325 236
3 236 325 327
3 236 327 237
3 237 327 328
3 237 328 238
3 238 328 330
3 238 330 239
3 239 330 332
3 239 332 231
3 337 247 248
3 249 337 248
3 338 255 337
3 337 255 247
3 257 338 249
3 249 338 337
3 339 262 338
3 338 262 255
3 264 339 257
3 257 339 338
3 340 269 270
3 270 262 340
3 262 339 340
3 273 271 340
3 273 340 339
3 273 339 264
3 341 279 340
3 340 279 269
3 280 342 271
3 342 340 271
3 342 341 340
3 281 342 280
3 343 285 286
3 279 341 286
3 341 343 286
3 341 344 343
3 345 341 342
3 344 341 345
3 288 345 281
3 281 345 342
3 346 292 343
3 343 292 285
3 347 343 344
3 346 343 347
3 348 344 345
3 347 344 348
3 294 348 288
3 288 348 345
3 349 295 296
3 292 346 296
3 346 349 296
3 346 350 349
3 351 346 347
3 350 346 351
3 352 347 348
3 351 347 352
3 298 352 294
3 294 352 348
3 353 300 349
3 349 300 295
3 354 349 350
3 353 349 354
3 355 350 351
3 354 350 355
3 356 351 352
3 355 351 356
3 301 357 298
3 357 352 298
3 357 356 352
3 302 357 301
3 358 304 305
3 300 353 305
3 353 358 305
3 353 359 358
3 360 353 354
3 359 353 360
3 355 362 361
3 360 355 361
3 354 355 360
3 364 363 362
3 355 364 362
3 356 364 355
3 365 356 357
3 364 356 365
3 307 365 302
3 302 365 357
3 366 309 310
3 304 358 310
3 358 366 310
3 358 367 366
3 368 358 359
3 367 358 368
3 369 359 360
3 368 359 369
3 360 361 370
3 371 360 370
3 369 360 371
3 363 364 372
3 370 373 371
3 375 374 372
3 364 375 372
3 365 375 364
3 311 376 307
3 376 365 307
3 376 375 365
3 313 376 311
3 377 314 315
3 315 309 377
3 309 366 377
3 318 316 377
3 318 377 366
3 318 366 320
3 320 366 367
3 320 367 321
3 367 378 321
3 367 368 378
3 379 368 369
3 378 368 379
3 380 369 371
3 379 369 380
3 371 373 381
3 382 371 381
3 380 371 382
3 382 381 374
3 375 382 374
3 383 382 375
3 384 375 376
3 383 375 384
3 322 385 313
3 385 376 313
3 385 384 376
3 323 385 322
3 377 324 314
3 324 377 316
3 378 326 321
3 326 378 329
3 329 378 379
3 329 379 331
3 331 379 380
3 331 380 333
3 333 380 382
3 333 382 334
3 334 382 383
3 334 383 335
3 335 383 384
3 335 384 336
3 336 384 385
3 336 385 323
3 386 361 362
3 363 386 362
3 386 370 361
3 373 370 387
3 370 386 387
3 363 372 387
3 363 387 386
3 374 387 372
3 387 381 373
3 381 387 374
