ply
format ascii 1.0
comment None
element vertex 441
property float x
property float y
property float z
element face 882
property list uchar int vertex_indices
end_header
40.772 39.297 19.321
41.065 39.293 18.909
40.956 38.945 19.284
40.903 38.965 19.556
40.816 39.687 19.151
41.048 39.958 18.835
40.754 39.326 19.684
40.730 39.725 19.533
40.814 39.685 19.980
40.942 40.206 19.316
40.881 40.153 19.884
41.788 37.432 20.419
42.000 37.492 19.905
42.240 37.042 20.371
42.098 36.901 20.724
41.988 37.104 20.936
42.282 36.871 21.022
41.450 38.408 19.478
42.053 38.426 18.700
42.325 37.828 19.350
41.436 38.223 20.450
41.781 37.739 21.025
42.334 37.307 21.375
41.646 39.093 18.274
41.927 39.299 17.494
42.389 38.803 17.875
41.054 39.060 20.139
41.520 38.887 21.164
42.082 38.125 21.662
41.731 39.774 17.443
41.994 39.814 16.809
41.912 39.552 17.131
41.373 39.879 18.263
41.149 40.158 20.702
42.142 39.094 22.143
41.600 40.083 21.848
42.048 40.134 22.589
42.052 40.391 16.751
41.738 40.477 17.637
42.134 40.883 17.105
41.481 40.735 18.703
41.246 40.876 19.923
41.349 41.217 20.871
41.462 41.088 21.671
41.808 40.971 22.556
42.117 41.148 17.783
42.174 41.561 18.591
41.826 41.580 19.494
42.407 41.983 19.204
41.666 41.753 20.494
41.634 41.856 21.426
41.772 41.826 22.352
42.359 42.245 20.123
42.005 42.287 21.038
42.039 42.436 21.897
42.447 37.298 19.946
42.891 37.107 20.404
42.495 36.829 20.779
42.782 36.972 21.145
42.679 38.229 18.664
42.928 37.884 19.169
42.935 37.526 19.714
43.144 37.349 21.630
42.706 37.828 21.939
43.428 37.771 22.125
42.284 39.377 16.918
42.655 39.361 16.268
43.206 38.857 17.072
43.242 38.458 18.201
42.450 38.344 22.097
43.132 38.550 22.467
42.826 39.888 14.141
43.118 39.934 13.596
43.050 39.601 13.814
42.877 39.512 14.553
42.682 39.993 14.839
42.722 39.494 15.454
42.391 39.993 15.973
42.692 39.668 22.871
42.417 40.701 23.274
43.216 40.149 23.454
43.043 40.282 14.096
42.933 40.635 15.003
42.559 40.758 15.979
42.393 40.945 16.572
42.861 41.193 16.243
42.114 41.630 23.265
42.981 40.764 23.839
42.657 41.318 23.971
43.270 41.018 24.273
42.749 41.347 16.989
42.835 41.726 17.913
42.725 41.970 18.648
43.238 42.078 18.436
42.152 42.482 22.980
42.509 42.126 24.104
43.225 41.501 24.712
43.193 42.326 19.291
43.109 42.627 20.236
42.665 42.727 21.146
42.519 42.936 22.232
43.293 43.161 21.701
42.475 43.062 22.993
42.434 42.885 23.711
43.137 42.117 25.134
42.701 42.753 24.561
43.143 42.769 25.319
43.028 43.326 22.571
42.836 43.361 23.372
42.771 43.241 24.078
43.093 43.295 24.806
42.946 36.932 20.859
43.246 38.125 18.831
43.475 37.854 19.364
43.592 37.523 20.066
43.732 37.275 20.979
44.098 37.485 21.925
44.230 37.978 22.405
44.121 39.203 12.320
44.434 39.398 11.499
44.730 39.080 11.924
44.385 38.773 12.995
43.833 39.012 13.174
44.042 38.658 13.834
43.444 39.081 14.034
44.161 38.432 14.924
43.279 39.018 15.183
43.974 38.662 16.167
43.085 39.072 16.019
44.275 38.598 17.215
44.114 38.475 18.038
43.888 38.187 18.839
44.192 37.894 19.591
44.200 38.693 22.785
44.103 39.554 11.945
44.396 39.662 11.423
43.603 39.565 12.957
43.600 39.337 23.051
44.235 39.830 23.504
44.242 39.915 12.128
43.647 40.197 13.244
43.700 40.768 14.040
43.567 41.111 14.821
44.092 41.195 14.471
43.239 41.166 15.562
43.713 40.519 23.985
44.120 40.962 24.595
44.210 41.401 15.252
43.732 41.525 16.317
43.623 41.774 17.297
43.578 41.994 17.960
44.330 42.034 17.804
44.010 41.401 25.214
43.479 41.656 25.241
43.880 41.787 25.615
44.046 42.246 18.599
44.141 42.515 19.410
43.771 42.669 19.948
43.726 42.939 20.766
44.095 43.235 21.384
43.815 42.416 25.955
43.631 43.346 25.952
44.156 42.935 26.629
44.153 43.587 27.135
44.606 43.182 27.270
44.054 43.480 22.170
43.536 43.597 22.985
43.521 43.718 23.900
43.645 43.824 24.998
44.083 44.098 24.395
43.888 43.987 25.841
44.054 44.036 26.793
44.503 43.795 27.803
44.393 44.377 28.091
44.607 44.280 28.356
44.344 44.258 25.280
44.274 44.304 26.302
44.497 44.511 27.370
44.575 44.612 28.297
44.588 44.796 28.685
44.481 44.852 28.933
44.520 44.765 28.898
44.501 45.043 29.306
44.590 45.063 29.192
44.602 37.575 22.263
44.715 37.442 22.089
44.876 37.505 22.255
45.095 37.726 22.296
44.649 37.999 15.239
44.580 37.998 14.902
44.716 37.854 15.120
44.969 37.984 15.262
44.283 37.638 20.256
44.793 37.862 19.905
45.003 37.589 20.596
44.905 37.418 21.557
45.158 38.400 22.635
44.763 39.359 11.189
44.922 39.492 10.942
45.071 39.304 11.318
45.324 39.060 12.028
45.108 38.733 12.900
44.781 38.350 14.161
45.109 38.306 15.834
45.074 38.476 16.938
45.095 38.400 17.908
44.976 38.120 19.055
44.839 38.889 22.934
44.369 39.203 23.101
45.062 39.373 23.221
44.675 39.569 11.037
44.897 39.651 10.925
45.117 39.913 23.615
44.681 39.783 11.256
44.901 39.971 11.816
44.655 40.448 13.089
44.433 40.998 13.955
45.083 40.904 13.933
44.720 40.389 24.043
45.277 40.863 24.544
44.781 41.250 14.529
45.319 41.408 15.246
45.014 41.606 16.089
44.772 41.832 17.076
45.102 42.037 17.782
44.839 41.219 25.060
44.790 41.596 25.650
44.431 41.934 26.059
44.910 41.883 26.135
45.010 42.203 18.389
44.980 42.448 19.214
44.769 42.798 20.192
44.547 43.097 20.916
45.186 43.077 20.886
44.886 42.430 26.573
45.133 43.025 27.264
44.959 43.314 21.502
45.083 43.564 22.209
44.664 43.806 23.037
44.407 44.075 23.788
45.132 44.097 23.625
44.934 43.681 27.843
44.823 44.402 28.382
44.901 44.270 24.317
45.122 44.378 25.147
44.929 44.487 26.351
44.834 44.703 27.421
45.117 44.663 27.244
44.712 44.743 28.234
44.616 44.642 28.662
44.724 44.824 28.863
44.548 45.083 29.391
44.533 45.180 29.520
44.552 45.211 29.587
44.946 44.804 27.882
44.826 44.910 28.566
44.748 45.065 29.101
44.611 45.184 29.464
45.064 37.476 22.074
44.900 37.983 14.925
45.349 37.844 19.914
45.798 37.618 20.295
45.970 37.397 20.990
45.666 37.519 21.814
46.014 37.980 22.205
45.137 39.557 11.096
45.425 39.382 11.606
45.703 39.207 12.208
45.721 38.934 12.833
45.699 38.654 13.822
45.678 38.372 15.048
46.425 38.552 16.124
46.129 38.456 16.907
45.895 38.380 17.645
46.154 38.082 18.615
45.985 37.782 19.604
45.431 38.938 22.924
46.267 38.900 22.723
45.007 39.760 11.172
45.314 39.715 11.585
45.714 39.549 12.181
45.766 39.302 23.109
45.648 39.713 23.419
45.452 39.994 12.470
45.632 41.073 14.577
45.895 40.380 13.789
46.085 41.242 15.240
46.476 40.842 14.941
46.641 41.146 15.578
45.857 40.365 23.900
45.983 40.922 24.444
46.169 41.434 15.965
45.945 41.686 16.862
45.659 42.107 18.196
45.790 41.923 17.642
46.386 42.023 18.344
45.949 41.537 25.021
45.479 41.953 25.967
46.169 42.254 25.694
45.982 42.269 18.971
45.911 42.580 19.930
45.718 43.162 21.250
45.835 42.905 20.707
46.450 43.016 21.348
45.813 42.503 26.364
45.533 42.798 26.926
45.929 43.019 26.751
45.973 43.341 21.906
45.734 43.615 22.600
45.635 44.149 23.939
46.049 43.755 23.394
46.189 43.942 24.138
45.534 43.393 27.389
45.247 43.943 27.975
45.172 44.388 28.263
45.697 44.227 24.586
45.701 44.241 25.544
45.189 44.691 27.818
45.564 44.311 26.764
45.001 44.800 28.574
45.461 44.325 27.704
44.735 45.061 29.195
44.616 45.134 29.426
47.175 36.915 20.126
47.516 36.846 19.731
47.585 36.535 20.080
47.439 36.677 20.500
46.882 37.044 20.723
47.173 36.913 20.918
46.891 37.447 19.467
47.069 37.853 18.779
47.527 37.378 19.257
46.491 37.356 20.221
46.822 37.401 21.416
46.934 38.261 22.095
46.033 39.305 12.870
46.167 39.034 13.560
46.575 39.005 14.597
46.919 38.848 15.635
47.268 38.851 16.344
47.223 38.712 17.052
46.888 38.326 17.944
47.193 39.066 22.441
45.983 39.758 12.966
46.477 39.578 13.887
47.115 39.566 14.831
47.487 39.395 15.538
47.674 39.198 16.254
46.293 39.744 23.281
47.066 39.817 22.933
47.009 40.175 14.877
46.955 41.196 16.080
47.232 40.778 15.724
47.416 41.039 16.389
46.850 40.519 23.555
46.571 41.055 24.196
47.221 41.272 23.777
46.998 41.378 16.773
46.832 41.701 17.745
47.085 41.889 18.585
46.997 41.824 24.307
46.721 42.536 24.945
47.227 42.526 24.149
46.815 42.109 19.006
46.964 42.279 19.848
46.748 42.646 20.727
47.241 42.698 21.559
46.812 43.301 24.190
47.351 42.796 23.649
47.001 43.225 23.350
46.610 43.319 25.154
46.321 42.989 25.971
46.821 43.091 21.942
46.715 43.282 22.617
46.310 43.864 24.866
46.184 43.765 25.849
45.895 43.671 26.897
45.539 43.935 27.693
47.787 36.392 20.167
47.808 36.437 19.902
47.914 36.296 19.994
47.943 36.485 20.082
47.842 36.871 19.650
47.797 36.813 20.485
47.407 36.920 20.910
47.618 38.007 18.739
47.903 37.503 19.335
47.613 37.356 21.097
47.428 37.889 21.614
47.912 38.131 21.315
47.718 39.057 16.781
47.901 39.087 17.396
47.759 38.674 18.067
47.624 38.678 21.935
48.132 39.160 21.546
47.544 39.825 15.359
47.868 39.841 15.856
47.999 39.697 16.354
48.065 39.460 17.015
47.786 39.854 22.326
48.288 40.301 21.673
47.696 40.231 15.764
47.655 41.061 16.882
47.844 40.631 16.502
47.981 40.842 17.222
48.042 41.085 22.321
48.286 41.305 21.625
47.579 40.923 23.088
47.623 41.267 17.523
47.452 41.935 19.279
47.704 41.507 18.531
47.736 41.987 20.025
48.036 41.578 19.567
48.130 41.711 20.349
47.866 42.106 22.032
48.142 41.835 21.440
47.820 41.800 22.834
47.519 42.005 23.567
47.725 42.156 20.909
47.328 42.829 22.240
47.494 42.641 22.925
47.955 36.508 19.891
48.046 37.174 19.925
48.178 38.391 19.231
48.269 38.075 20.157
48.043 37.588 20.651
48.279 39.503 18.217
48.486 39.441 19.388
48.454 38.996 20.126
48.282 38.545 20.816
48.034 40.124 16.332
48.193 40.212 17.233
48.375 40.405 18.319
48.498 40.261 19.195
48.559 40.022 20.138
48.452 39.615 20.918
48.119 40.905 17.970
48.284 40.990 18.960
48.420 41.014 20.056
48.479 40.668 20.948
48.293 41.510 20.947
3 2 1 0
3 0 3 2
3 0 1 4
3 4 1 5
3 3 0 6
3 0 7 6
3 0 4 7
3 7 8 6
3 5 9 4
3 4 9 7
3 7 9 10
3 7 10 8
3 13 12 11
3 15 14 11
3 11 14 13
3 15 16 14
3 19 18 17
3 19 17 12
3 17 11 12
3 17 20 11
3 11 21 15
3 11 20 21
3 16 15 22
3 22 15 21
3 25 24 23
3 25 23 18
3 18 23 17
3 23 1 17
3 1 2 17
3 17 2 3
3 26 17 3
3 20 17 26
3 20 27 21
3 20 26 27
3 22 21 28
3 28 21 27
3 31 30 29
3 31 29 24
3 29 23 24
3 29 32 23
3 32 5 1
3 32 1 23
3 6 26 3
3 26 6 8
3 33 26 8
3 27 26 33
3 28 27 34
3 27 35 34
3 27 33 35
3 35 36 34
3 30 37 29
3 39 38 37
3 38 29 37
3 38 32 29
3 40 9 5
3 32 40 5
3 38 40 32
3 41 10 9
3 41 9 40
3 33 8 10
3 41 33 10
3 42 33 41
3 33 43 35
3 33 42 43
3 36 35 44
3 44 35 43
3 39 45 38
3 38 45 40
3 40 45 46
3 48 47 46
3 47 40 46
3 47 41 40
3 41 49 42
3 41 47 49
3 42 50 43
3 42 49 50
3 44 43 51
3 51 43 50
3 48 52 47
3 47 52 49
3 49 52 53
3 49 53 50
3 50 53 54
3 50 54 51
3 55 12 13
3 55 13 56
3 13 57 56
3 13 14 57
3 14 16 57
3 57 16 58
3 60 59 19
3 19 59 18
3 19 12 55
3 61 19 55
3 60 19 61
3 61 55 56
3 22 63 62
3 58 22 62
3 16 22 58
3 63 64 62
3 67 66 65
3 24 25 65
3 25 67 65
3 25 68 67
3 25 18 59
3 25 59 68
3 28 69 63
3 28 63 22
3 64 63 70
3 70 63 69
3 73 72 71
3 75 74 71
3 71 74 73
3 77 76 75
3 75 76 74
3 76 77 66
3 66 77 65
3 77 30 65
3 30 31 65
3 65 31 24
3 34 69 28
3 79 78 36
3 36 78 34
3 78 70 34
3 70 69 34
3 79 80 78
3 72 81 71
3 71 81 75
3 75 81 82
3 75 82 77
3 77 82 83
3 83 85 84
3 83 84 37
3 77 83 37
3 30 77 37
3 84 39 37
3 44 86 79
3 44 79 36
3 80 79 87
3 79 88 87
3 79 86 88
3 88 89 87
3 85 90 84
3 84 90 39
3 90 45 39
3 90 91 45
3 91 93 92
3 46 91 92
3 45 91 46
3 92 48 46
3 51 94 86
3 51 86 44
3 86 95 88
3 86 94 95
3 89 88 96
3 96 88 95
3 93 97 92
3 92 97 48
3 97 52 48
3 97 98 52
3 52 99 53
3 98 99 52
3 99 101 100
3 54 99 100
3 53 99 54
3 94 51 54
3 100 94 54
3 102 94 100
3 94 103 95
3 94 102 103
3 96 95 104
3 95 105 104
3 95 103 105
3 105 106 104
3 101 107 100
3 100 107 102
3 102 107 108
3 102 108 103
3 103 108 109
3 103 109 105
3 105 109 110
3 105 110 106
3 111 56 57
3 58 111 57
3 112 59 60
3 61 113 60
3 60 113 112
3 114 113 61
3 114 61 56
3 115 114 56
3 111 115 56
3 115 111 58
3 62 115 58
3 116 115 62
3 62 64 116
3 116 64 117
3 120 119 118
3 122 121 118
3 118 121 120
3 124 123 122
3 122 123 121
3 126 125 124
3 124 125 123
3 128 127 126
3 126 127 125
3 66 67 128
3 67 127 128
3 67 129 127
3 130 67 68
3 130 129 67
3 68 59 112
3 131 68 112
3 130 68 131
3 131 112 113
3 131 113 132
3 132 113 114
3 70 117 64
3 70 133 117
3 118 119 134
3 134 119 135
3 118 136 122
3 118 134 136
3 136 72 73
3 124 136 73
3 122 136 124
3 124 73 74
3 124 74 126
3 126 74 76
3 126 76 128
3 128 76 66
3 137 133 70
3 137 70 78
3 78 80 137
3 137 80 138
3 135 139 134
3 134 139 136
3 136 139 140
3 136 140 72
3 140 81 72
3 140 141 81
3 141 143 142
3 82 141 142
3 81 141 82
3 144 83 82
3 144 82 142
3 144 85 83
3 145 138 80
3 145 80 87
3 87 89 145
3 145 89 146
3 143 147 142
3 142 147 144
3 144 147 148
3 144 148 85
3 148 90 85
3 148 149 90
3 149 151 150
3 91 149 150
3 90 149 91
3 150 93 91
3 96 153 152
3 146 96 152
3 89 96 146
3 153 154 152
3 151 155 150
3 150 155 93
3 155 97 93
3 155 156 97
3 97 157 98
3 156 157 97
3 98 158 99
3 157 158 98
3 101 99 158
3 101 158 159
3 104 153 96
3 161 160 106
3 106 160 104
3 160 154 104
3 154 153 104
3 163 162 161
3 161 162 160
3 163 164 162
3 159 165 101
3 101 165 107
3 107 166 108
3 165 166 107
3 108 167 109
3 166 167 108
3 167 169 168
3 110 167 168
3 109 167 110
3 161 106 110
3 168 161 110
3 170 161 168
3 161 171 163
3 161 170 171
3 164 163 172
3 163 173 172
3 163 171 173
3 173 174 172
3 169 175 168
3 168 175 170
3 170 175 176
3 170 176 171
3 171 176 177
3 171 177 173
3 173 177 178
3 178 179 173
3 179 180 173
3 181 174 173
3 181 173 180
3 180 182 181
3 179 183 180
3 180 183 182
3 186 185 184
3 184 187 186
3 190 189 188
3 188 191 190
3 194 193 192
3 114 115 192
3 115 194 192
3 115 195 194
3 116 184 185
3 195 116 185
3 115 116 195
3 116 117 184
3 117 187 184
3 117 196 187
3 199 198 197
3 119 120 197
3 120 199 197
3 120 200 199
3 201 120 121
3 201 200 120
3 202 121 123
3 202 201 121
3 125 188 189
3 202 125 189
3 123 125 202
3 203 191 188
3 125 203 188
3 127 203 125
3 204 127 129
3 204 203 127
3 205 129 130
3 205 204 129
3 206 130 131
3 206 205 130
3 132 192 193
3 206 132 193
3 131 132 206
3 192 132 114
3 133 208 207
3 196 133 207
3 117 133 196
3 208 209 207
3 197 198 210
3 210 198 211
3 210 135 119
3 210 119 197
3 137 208 133
3 137 138 208
3 138 209 208
3 138 212 209
3 211 213 210
3 210 213 135
3 213 139 135
3 213 214 139
3 139 215 140
3 214 215 139
3 215 217 216
3 141 215 216
3 140 215 141
3 216 143 141
3 218 212 138
3 218 138 145
3 145 146 218
3 218 146 219
3 217 220 216
3 216 220 143
3 220 147 143
3 220 221 147
3 147 222 148
3 221 222 147
3 148 223 149
3 222 223 148
3 151 149 223
3 151 223 224
3 225 219 146
3 225 146 152
3 227 226 154
3 226 152 154
3 226 225 152
3 227 228 226
3 224 229 151
3 151 229 155
3 155 230 156
3 229 230 155
3 156 231 157
3 230 231 156
3 231 233 232
3 158 231 232
3 157 231 158
3 232 159 158
3 160 227 154
3 234 228 227
3 160 234 227
3 162 234 160
3 162 164 234
3 234 164 235
3 233 236 232
3 232 236 159
3 236 165 159
3 236 237 165
3 165 238 166
3 237 238 165
3 238 240 239
3 167 238 239
3 166 238 167
3 239 169 167
3 241 235 164
3 241 164 172
3 172 174 241
3 241 174 242
3 240 243 239
3 239 243 169
3 243 175 169
3 243 244 175
3 175 245 176
3 244 245 175
3 245 247 246
3 177 245 246
3 176 245 177
3 248 178 177
3 248 177 246
3 250 249 181
3 250 179 249
3 179 250 248
3 242 248 250
3 248 242 178
3 249 178 242
3 242 174 249
3 249 174 181
3 179 178 249
3 252 251 182
3 251 181 182
3 251 250 181
3 252 253 251
3 247 254 246
3 246 254 248
3 248 254 255
3 248 255 179
3 255 183 179
3 255 256 183
3 182 183 252
3 183 257 252
3 183 256 257
3 252 257 253
3 258 185 186
3 187 258 186
3 259 189 190
3 191 259 190
3 260 193 194
3 260 194 261
3 194 262 261
3 194 195 262
3 195 185 258
3 263 195 258
3 262 195 263
3 258 187 263
3 187 264 263
3 187 196 264
3 265 198 199
3 200 266 199
3 199 266 265
3 266 200 267
3 200 268 267
3 200 201 268
3 269 201 202
3 269 268 201
3 202 189 259
3 270 202 259
3 269 202 270
3 270 259 191
3 203 270 191
3 271 270 203
3 272 203 204
3 272 271 203
3 273 204 205
3 273 272 204
3 274 205 206
3 274 273 205
3 206 193 260
3 275 206 260
3 274 206 275
3 275 260 261
3 196 207 276
3 277 196 276
3 264 196 277
3 209 276 207
3 278 211 265
3 265 211 198
3 279 265 266
3 278 265 279
3 266 267 280
3 266 280 279
3 281 277 276
3 276 209 281
3 209 282 281
3 209 212 282
3 278 213 211
3 213 278 214
3 214 278 279
3 280 283 279
3 283 214 279
3 283 215 214
3 285 284 217
3 215 285 217
3 283 285 215
3 287 286 284
3 287 284 285
3 288 286 287
3 289 282 212
3 289 212 218
3 218 219 289
3 289 219 290
3 284 220 217
3 220 284 221
3 221 284 286
3 288 291 286
3 291 221 286
3 291 222 221
3 222 292 223
3 291 292 222
3 294 293 224
3 223 294 224
3 292 294 223
3 295 293 294
3 296 290 219
3 296 219 225
3 298 296 297
3 296 226 297
3 296 225 226
3 228 297 226
3 293 229 224
3 295 299 293
3 299 229 293
3 299 230 229
3 230 300 231
3 299 300 230
3 302 301 233
3 231 302 233
3 300 302 231
3 303 301 302
3 304 298 297
3 306 304 305
3 305 304 234
3 304 297 234
3 297 228 234
3 235 305 234
3 301 236 233
3 303 307 301
3 307 236 301
3 307 237 236
3 237 308 238
3 307 308 237
3 310 309 240
3 238 310 240
3 308 310 238
3 311 309 310
3 312 306 305
3 312 305 235
3 241 312 235
3 313 312 241
3 241 242 313
3 313 242 314
3 309 243 240
3 311 315 309
3 315 243 309
3 315 244 243
3 244 316 245
3 315 316 244
3 318 317 247
3 245 318 247
3 316 318 245
3 320 319 317
3 320 317 318
3 321 319 250
3 319 314 250
3 314 242 250
3 314 319 320
3 251 322 250
3 250 322 321
3 253 322 251
3 317 254 247
3 254 317 255
3 255 317 319
3 255 319 256
3 256 319 321
3 256 321 257
3 257 321 322
3 257 322 253
3 325 324 323
3 327 326 323
3 323 326 325
3 327 328 326
3 331 330 329
3 331 329 324
3 329 323 324
3 329 332 323
3 332 261 262
3 327 332 262
3 323 332 327
3 333 328 327
3 262 333 327
3 263 333 262
3 263 264 333
3 333 264 334
3 335 267 268
3 269 336 268
3 268 336 335
3 270 337 269
3 269 337 336
3 271 338 270
3 270 338 337
3 338 271 339
3 271 340 339
3 271 272 340
3 341 272 273
3 341 340 272
3 274 329 330
3 341 274 330
3 273 274 341
3 329 274 275
3 329 275 332
3 332 275 261
3 277 334 264
3 277 342 334
3 343 280 335
3 335 280 267
3 344 335 336
3 343 335 344
3 337 346 345
3 344 337 345
3 336 337 344
3 346 337 338
3 346 338 347
3 347 338 339
3 277 281 348
3 349 277 348
3 342 277 349
3 282 348 281
3 343 283 280
3 283 343 285
3 285 343 344
3 345 350 344
3 350 285 344
3 350 287 285
3 352 351 288
3 287 352 288
3 350 352 287
3 353 351 352
3 354 349 348
3 356 354 355
3 355 354 289
3 354 348 289
3 348 282 289
3 290 355 289
3 351 291 288
3 353 357 351
3 357 291 351
3 357 292 291
3 292 358 294
3 357 358 292
3 295 294 358
3 295 358 359
3 360 356 355
3 362 360 361
3 361 360 296
3 360 355 296
3 355 290 296
3 298 361 296
3 359 363 295
3 295 363 299
3 299 364 300
3 363 364 299
3 300 365 302
3 364 365 300
3 303 302 365
3 303 365 366
3 369 368 367
3 367 368 362
3 361 367 362
3 370 367 361
3 304 371 298
3 371 361 298
3 371 370 361
3 306 371 304
3 366 372 303
3 303 372 307
3 307 373 308
3 372 373 307
3 367 310 369
3 310 373 369
3 310 308 373
3 310 367 311
3 367 374 311
3 367 370 374
3 375 370 371
3 374 370 375
3 312 376 306
3 376 371 306
3 376 375 371
3 313 377 312
3 312 377 376
3 314 377 313
3 374 315 311
3 315 374 316
3 316 374 375
3 316 375 318
3 318 375 376
3 318 376 320
3 320 376 377
3 320 377 314
3 380 379 378
3 378 381 380
3 378 379 325
3 379 324 325
3 379 382 324
3 325 326 378
3 326 383 378
3 383 381 378
3 326 384 383
3 328 384 326
3 386 385 331
3 331 385 330
3 331 324 382
3 331 382 386
3 387 383 384
3 389 387 388
3 388 387 333
3 387 384 333
3 384 328 333
3 334 388 333
3 390 339 340
3 390 340 391
3 340 392 391
3 340 341 392
3 341 330 385
3 341 385 392
3 389 388 393
3 389 393 394
3 342 393 334
3 334 393 388
3 395 345 346
3 395 346 396
3 346 397 396
3 346 347 397
3 347 339 390
3 398 347 390
3 397 347 398
3 398 390 391
3 394 393 399
3 394 399 400
3 349 399 342
3 342 399 393
3 395 350 345
3 396 401 395
3 401 350 395
3 401 352 350
3 403 402 353
3 352 403 353
3 401 403 352
3 404 402 403
3 400 399 405
3 400 405 406
3 354 407 349
3 407 399 349
3 407 405 399
3 356 407 354
3 402 357 353
3 404 408 402
3 408 357 402
3 408 358 357
3 410 409 359
3 358 410 359
3 408 410 358
3 412 411 409
3 412 409 410
3 413 411 412
3 406 405 414
3 406 414 415
3 416 405 407
3 414 405 416
3 360 417 356
3 417 407 356
3 417 416 407
3 362 417 360
3 409 363 359
3 363 409 364
3 364 409 411
3 413 418 411
3 418 364 411
3 418 365 364
3 414 419 366
3 418 414 366
3 365 418 366
3 415 414 418
3 420 414 416
3 419 414 420
3 369 420 368
3 420 417 368
3 420 416 417
3 368 417 362
3 419 372 366
3 372 419 373
3 373 419 420
3 373 420 369
3 421 379 380
3 381 421 380
3 422 382 421
3 421 382 379
3 383 422 381
3 381 422 421
3 423 385 386
3 382 422 386
3 422 423 386
3 422 424 423
3 387 425 383
3 425 422 383
3 425 424 422
3 389 425 387
3 426 391 392
3 385 423 392
3 423 426 392
3 423 427 426
3 428 423 424
3 427 423 428
3 429 424 425
3 428 424 429
3 394 429 389
3 389 429 425
3 430 396 397
3 398 431 397
3 397 431 430
3 391 426 398
3 426 431 398
3 426 432 431
3 433 426 427
3 432 426 433
3 434 427 428
3 433 427 434
3 435 428 429
3 434 428 435
3 400 435 394
3 394 435 429
3 430 401 396
3 401 430 403
3 403 430 431
3 403 431 404
3 431 436 404
3 431 432 436
3 437 432 433
3 436 432 437
3 438 433 434
3 437 433 438
3 439 434 435
3 438 434 439
3 406 439 400
3 400 439 435
3 436 408 404
3 408 436 410
3 410 436 437
3 410 437 412
3 412 437 438
3 412 438 413
3 438 440 413
3 438 439 440
3 415 440 406
3 406 440 439
3 440 418 413
3 418 440 415
