ply
format ascii 1.0
comment None
element vertex 243
property float x
property float y
property float z
element face 486
property list uchar int vertex_indices
end_header
43.881 73.112 35.561
44.261 73.375 35.068
44.450 72.676 35.500
44.155 72.571 35.918
43.740 73.025 36.251
44.238 72.524 36.503
43.904 73.093 37.043
44.548 72.784 37.190
44.062 73.324 42.778
44.200 73.334 42.159
44.356 72.970 42.527
44.236 72.986 43.041
44.082 73.342 43.406
44.324 73.091 43.460
43.661 73.941 35.276
44.092 74.146 34.847
43.370 73.828 36.008
43.372 73.822 36.916
44.240 73.280 37.675
43.761 73.897 37.940
44.514 73.773 38.356
43.886 74.088 42.333
44.287 73.769 41.461
43.909 73.983 43.214
44.204 73.427 43.800
44.073 73.921 43.805
44.286 73.807 44.027
43.615 74.893 35.126
44.248 74.935 34.686
43.172 74.840 35.864
42.984 74.830 36.806
43.103 74.863 37.865
44.288 74.202 38.993
43.482 74.901 39.055
44.090 74.478 39.705
43.622 75.070 40.260
44.287 74.239 40.559
43.747 74.873 41.426
43.672 75.113 42.410
43.774 74.762 42.992
44.000 74.881 43.666
44.291 74.449 44.073
43.763 75.891 35.078
44.442 75.902 34.603
43.200 75.930 35.837
42.856 75.966 36.791
42.782 76.002 37.846
42.939 76.034 38.941
43.171 76.069 40.039
43.373 76.046 41.100
43.562 76.038 42.116
43.815 75.847 43.086
44.177 75.873 43.705
44.403 75.303 43.995
44.032 76.820 35.080
44.621 76.740 34.616
43.452 76.988 35.872
43.003 77.092 36.845
42.799 77.153 37.888
42.830 77.176 38.950
42.995 77.149 39.976
43.238 77.112 40.963
43.458 76.960 41.789
43.837 77.157 42.672
44.216 76.760 43.415
44.341 77.423 35.050
43.920 77.950 35.872
44.603 78.161 35.382
43.391 78.125 36.908
43.086 78.187 37.921
43.054 78.219 38.930
43.183 78.170 39.954
43.299 77.961 40.798
43.732 78.061 41.806
44.164 78.067 42.631
44.375 77.639 43.123
44.208 78.763 36.149
43.940 79.059 36.951
44.333 79.310 36.563
43.590 79.071 37.949
43.405 78.965 38.762
43.720 79.118 39.721
43.816 78.817 40.895
44.187 78.887 41.677
44.395 78.614 42.202
44.467 79.764 37.138
44.209 79.773 37.910
44.802 80.183 37.703
44.059 79.665 38.880
44.441 79.710 39.604
44.573 79.466 40.351
44.443 79.244 41.214
44.703 80.135 38.476
44.726 79.993 39.133
44.700 72.237 36.110
45.034 72.155 36.015
45.083 72.116 36.246
44.991 72.182 36.514
44.694 72.311 36.668
45.113 72.543 36.942
44.771 73.029 35.173
45.020 72.514 35.677
45.164 73.211 37.490
44.549 73.183 41.955
44.653 72.985 42.447
44.508 72.938 42.959
44.598 73.176 43.380
44.843 73.965 34.831
45.198 73.139 35.291
44.795 73.440 37.911
45.094 74.052 38.554
44.581 73.788 40.933
44.822 73.937 40.712
44.841 73.618 41.413
44.869 73.278 42.120
44.452 73.455 43.806
44.565 74.088 43.995
44.878 75.100 34.534
45.142 74.326 39.208
44.935 74.282 40.040
44.607 74.768 44.067
45.213 76.060 34.467
44.794 75.346 43.854
44.668 76.227 43.660
45.039 76.905 34.487
44.740 77.361 34.754
45.152 77.536 34.774
44.656 77.165 43.407
45.087 78.161 35.193
44.846 77.665 43.054
44.677 78.196 42.688
44.555 78.984 36.043
45.059 78.810 35.744
45.017 78.614 41.972
44.728 79.084 41.650
44.767 79.514 36.486
44.990 80.037 37.035
45.216 80.299 37.420
45.430 79.515 39.959
45.260 79.726 39.484
45.011 79.399 40.910
45.283 80.281 38.011
45.216 80.124 38.846
45.244 72.294 36.061
45.344 72.390 36.460
45.546 72.901 35.891
45.673 72.808 36.481
45.518 72.680 36.814
45.533 73.080 37.099
44.859 73.309 42.830
45.570 73.723 35.261
45.899 73.591 35.721
45.916 73.426 36.254
45.424 74.167 38.119
45.652 73.849 37.393
45.255 74.198 41.090
45.195 73.936 42.168
45.085 73.969 43.063
44.785 73.689 43.542
45.533 74.828 34.813
45.952 74.247 35.447
46.057 73.894 35.868
46.114 75.331 36.674
45.870 74.975 37.619
45.958 74.410 36.941
45.769 75.193 38.505
45.647 74.938 39.180
45.735 74.802 39.633
45.646 74.660 39.955
45.658 74.721 40.679
45.947 75.257 40.957
45.605 75.066 41.860
45.295 74.618 42.841
44.954 74.578 43.625
45.781 75.747 34.715
46.095 76.140 37.319
46.208 76.443 36.405
45.958 76.045 38.289
45.887 76.046 39.247
45.943 75.225 39.911
45.931 75.993 40.256
45.882 76.016 41.389
46.043 75.428 40.488
45.585 76.153 42.404
45.218 75.605 43.151
45.384 76.848 34.473
45.717 76.536 34.614
46.186 77.173 37.086
46.208 77.499 36.319
46.072 77.020 38.020
45.966 77.052 39.028
45.878 77.139 40.141
45.763 77.070 41.290
45.612 76.862 42.174
45.170 76.884 43.012
45.583 77.226 34.701
45.511 78.011 35.213
46.214 78.049 36.986
46.188 78.298 36.488
46.105 77.952 37.860
45.996 77.843 38.708
45.862 78.240 39.737
45.601 78.291 41.073
45.281 77.762 42.299
45.565 78.828 35.856
46.195 78.657 36.990
46.114 79.102 37.451
46.122 78.684 37.699
45.844 78.927 38.958
45.763 79.280 39.654
45.741 78.951 40.411
45.614 78.948 40.920
45.328 79.082 41.197
45.326 79.596 36.435
45.366 80.130 36.987
45.611 79.905 36.805
45.978 79.292 38.333
45.751 79.477 39.197
45.610 79.658 39.591
45.568 79.893 39.239
45.649 79.664 39.782
45.498 79.453 40.504
45.541 80.203 37.320
45.692 80.096 37.717
45.627 80.044 38.457
45.753 73.057 36.753
45.865 73.656 36.803
46.016 75.183 35.237
46.084 74.454 36.110
45.964 75.013 40.049
45.963 75.009 40.396
46.039 76.200 35.066
46.177 75.732 35.787
45.896 77.172 35.066
46.153 76.867 35.652
45.977 78.153 35.871
45.777 79.290 36.402
46.060 79.038 36.786
45.725 79.426 40.066
45.623 79.230 40.690
45.824 79.786 37.088
45.928 79.643 37.804
45.799 79.652 39.077
3 2 1 0
3 4 3 0
3 0 3 2
3 6 5 4
3 4 5 3
3 6 7 5
3 10 9 8
3 12 11 8
3 8 11 10
3 12 13 11
3 0 1 14
3 14 1 15
3 0 16 4
3 0 14 16
3 4 17 6
3 4 16 17
3 7 6 18
3 6 19 18
3 6 17 19
3 19 20 18
3 8 9 21
3 21 9 22
3 8 23 12
3 8 21 23
3 13 12 24
3 12 25 24
3 12 23 25
3 25 26 24
3 14 15 27
3 27 15 28
3 14 29 16
3 14 27 29
3 16 30 17
3 16 29 30
3 17 31 19
3 17 30 31
3 20 19 32
3 19 33 32
3 19 31 33
3 35 34 33
3 33 34 32
3 37 36 35
3 35 36 34
3 36 37 22
3 37 21 22
3 37 38 21
3 21 39 23
3 21 38 39
3 23 40 25
3 23 39 40
3 26 25 41
3 41 25 40
3 27 28 42
3 42 28 43
3 27 44 29
3 27 42 44
3 29 45 30
3 29 44 45
3 30 46 31
3 30 45 46
3 31 47 33
3 31 46 47
3 33 48 35
3 33 47 48
3 35 49 37
3 35 48 49
3 37 50 38
3 37 49 50
3 38 51 39
3 38 50 51
3 53 40 52
3 40 51 52
3 40 39 51
3 40 53 41
3 42 43 54
3 54 43 55
3 42 56 44
3 42 54 56
3 44 57 45
3 44 56 57
3 45 58 46
3 45 57 58
3 46 59 47
3 46 58 59
3 47 60 48
3 47 59 60
3 48 61 49
3 48 60 61
3 49 62 50
3 49 61 62
3 50 63 51
3 50 62 63
3 52 51 64
3 64 51 63
3 55 65 54
3 67 66 65
3 66 54 65
3 66 56 54
3 56 68 57
3 56 66 68
3 57 69 58
3 57 68 69
3 58 70 59
3 58 69 70
3 59 71 60
3 59 70 71
3 60 72 61
3 60 71 72
3 61 73 62
3 61 72 73
3 75 63 74
3 63 73 74
3 63 62 73
3 63 75 64
3 67 76 66
3 78 77 76
3 77 66 76
3 77 68 66
3 68 79 69
3 68 77 79
3 69 80 70
3 69 79 80
3 70 81 71
3 70 80 81
3 71 82 72
3 71 81 82
3 84 73 83
3 73 82 83
3 73 72 82
3 73 84 74
3 78 85 77
3 87 86 85
3 86 77 85
3 86 79 77
3 79 88 80
3 79 86 88
3 90 81 89
3 81 88 89
3 81 80 88
3 81 90 82
3 82 90 91
3 82 91 83
3 87 92 86
3 86 92 88
3 88 92 93
3 88 93 89
3 96 95 94
3 98 97 94
3 94 97 96
3 98 99 97
3 100 1 2
3 95 101 94
3 101 2 94
3 2 3 94
3 2 101 100
3 94 3 5
3 94 5 98
3 5 7 98
3 7 99 98
3 7 102 99
3 103 9 10
3 103 10 104
3 10 105 104
3 10 11 105
3 11 13 105
3 105 13 106
3 108 107 100
3 107 1 100
3 107 15 1
3 108 100 101
3 109 102 7
3 109 7 18
3 18 20 109
3 109 20 110
3 113 112 111
3 114 113 103
3 113 22 103
3 22 9 103
3 113 111 22
3 114 103 104
3 115 106 13
3 115 13 24
3 24 26 115
3 115 26 116
3 107 28 15
3 117 28 107
3 118 110 20
3 118 20 32
3 119 32 34
3 119 118 32
3 36 111 112
3 119 36 112
3 34 36 119
3 111 36 22
3 41 116 26
3 41 120 116
3 117 43 28
3 121 43 117
3 123 122 53
3 123 53 52
3 41 53 120
3 120 53 122
3 125 55 124
3 55 121 124
3 55 43 121
3 126 125 124
3 64 123 52
3 64 127 123
3 125 65 55
3 67 65 125
3 126 67 125
3 128 67 126
3 130 129 75
3 130 75 74
3 64 75 127
3 127 75 129
3 76 67 131
3 67 132 131
3 67 128 132
3 131 78 76
3 134 133 84
3 134 84 83
3 74 84 130
3 130 84 133
3 132 135 131
3 131 135 78
3 135 85 78
3 135 136 85
3 87 85 136
3 87 136 137
3 139 138 90
3 139 90 89
3 90 140 91
3 138 140 90
3 83 91 134
3 134 91 140
3 137 141 87
3 87 141 92
3 92 142 93
3 141 142 92
3 89 93 139
3 139 93 142
3 143 95 96
3 97 144 96
3 96 144 143
3 99 144 97
3 145 101 143
3 143 101 95
3 144 147 146
3 145 144 146
3 143 144 145
3 144 99 147
3 99 148 147
3 99 102 148
3 149 104 105
3 106 149 105
3 150 107 108
3 101 145 108
3 145 150 108
3 145 151 150
3 145 146 152
3 145 152 151
3 102 109 153
3 154 102 153
3 148 102 154
3 110 153 109
3 155 112 113
3 114 156 113
3 113 156 155
3 104 149 114
3 149 156 114
3 149 157 156
3 115 158 106
3 158 149 106
3 158 157 149
3 116 158 115
3 160 159 150
3 159 107 150
3 159 117 107
3 160 150 151
3 160 151 161
3 164 163 162
3 152 161 151
3 163 164 154
3 153 163 154
3 165 163 153
3 118 166 110
3 166 153 110
3 166 165 153
3 166 118 167
3 118 168 167
3 118 119 168
3 119 112 155
3 169 119 155
3 168 119 169
3 171 170 169
3 155 171 169
3 156 171 155
3 172 156 157
3 171 156 172
3 173 157 158
3 172 157 173
3 120 173 116
3 116 173 158
3 159 121 117
3 174 121 159
3 162 163 175
3 162 175 176
3 177 163 165
3 175 163 177
3 178 165 166
3 177 165 178
3 166 167 179
3 180 166 179
3 178 166 180
3 182 181 180
3 182 180 179
3 181 182 170
3 171 181 170
3 183 181 171
3 184 171 172
3 183 171 184
3 123 184 122
3 184 173 122
3 184 172 173
3 122 173 120
3 124 121 185
3 121 186 185
3 121 174 186
3 185 126 124
3 176 175 187
3 176 187 188
3 189 175 177
3 187 175 189
3 190 177 178
3 189 177 190
3 191 178 180
3 190 178 191
3 192 180 181
3 191 180 192
3 193 181 183
3 192 181 193
3 194 183 184
3 193 183 194
3 127 194 123
3 123 194 184
3 186 195 185
3 126 185 195
3 196 126 195
3 128 126 196
3 188 187 197
3 188 197 198
3 199 187 189
3 197 187 199
3 200 189 190
3 199 189 200
3 201 190 191
3 200 190 201
3 202 191 192
3 201 191 202
3 203 192 193
3 202 192 203
3 130 203 129
3 203 194 129
3 203 193 194
3 129 194 127
3 196 132 128
3 204 132 196
3 205 198 197
3 207 206 205
3 197 207 205
3 199 207 197
3 208 199 200
3 207 199 208
3 201 210 209
3 208 201 209
3 200 201 208
3 210 201 202
3 210 202 211
3 134 212 133
3 212 202 133
3 202 203 133
3 212 211 202
3 133 203 130
3 204 213 132
3 132 213 135
3 213 215 214
3 136 213 214
3 135 213 136
3 207 216 206
3 137 136 214
3 216 207 208
3 216 208 217
3 219 218 139
3 218 217 139
3 208 139 217
3 139 208 138
3 209 138 208
3 138 209 218
3 218 220 138
3 219 220 218
3 218 209 217
3 138 221 140
3 220 221 138
3 134 140 212
3 212 140 221
3 215 222 214
3 214 222 137
3 222 141 137
3 222 223 141
3 141 224 142
3 223 224 141
3 139 142 219
3 219 142 224
3 225 146 147
3 148 225 147
3 226 152 225
3 225 152 146
3 154 226 148
3 148 226 225
3 227 159 160
3 161 228 160
3 160 228 227
3 161 152 228
3 152 226 228
3 164 162 228
3 164 228 226
3 164 226 154
3 229 167 168
3 169 230 168
3 168 230 229
3 170 230 169
3 231 174 227
3 227 174 159
3 232 227 228
3 231 227 232
3 176 232 162
3 162 232 228
3 229 179 167
3 179 229 182
3 182 229 230
3 182 230 170
3 233 186 231
3 231 186 174
3 234 231 232
3 233 231 234
3 188 234 176
3 176 234 232
3 233 195 186
3 195 233 196
3 233 235 196
3 233 234 235
3 198 235 188
3 188 235 234
3 236 204 235
3 235 204 196
3 205 237 198
3 237 235 198
3 237 236 235
3 206 237 205
3 238 209 210
3 211 239 210
3 210 239 238
3 212 239 211
3 236 213 204
3 213 236 215
3 236 240 215
3 236 237 240
3 216 241 206
3 241 237 206
3 241 240 237
3 217 242 216
3 216 242 241
3 217 209 242
3 209 238 242
3 220 219 242
3 220 242 238
3 220 238 221
3 221 238 239
3 221 239 212
3 240 222 215
3 222 240 223
3 223 240 241
3 223 241 224
3 224 241 242
3 224 242 219
