ply
format ascii 1.0
comment None
element vertex 110
property float x
property float y
property float z
element face 216
property list uchar int vertex_indices
end_header
43.896 59.402 49.921
44.052 59.373 49.232
44.302 59.022 49.646
44.162 59.068 50.252
43.938 59.408 50.628
44.264 59.103 50.734
44.105 59.419 51.040
44.411 59.303 51.050
43.614 60.118 49.417
44.113 59.768 48.595
43.649 60.021 50.406
43.907 59.892 51.019
44.227 59.702 51.204
43.601 60.809 48.479
43.951 61.080 47.721
44.320 60.282 47.910
43.242 61.126 49.420
43.369 60.937 50.230
43.726 60.721 50.943
44.217 60.362 51.222
43.451 61.930 48.126
44.036 61.932 47.525
43.136 61.987 49.084
43.172 62.000 50.089
43.580 61.811 50.886
44.203 61.427 51.254
43.519 63.013 47.970
44.175 63.033 47.504
43.131 63.067 48.843
43.122 63.099 49.892
43.505 62.993 50.821
44.197 62.691 51.337
43.702 64.072 47.959
44.315 64.124 47.618
43.275 64.092 48.688
43.215 64.150 49.665
43.546 64.116 50.678
44.172 63.895 51.395
43.944 64.966 48.039
44.438 65.001 47.822
43.560 64.978 48.654
43.389 64.902 49.387
43.755 65.115 50.364
44.251 64.855 51.303
44.180 65.525 48.152
43.925 65.629 48.634
44.306 65.923 48.545
43.826 65.621 49.510
44.235 65.742 50.336
44.542 65.505 51.054
44.223 66.026 49.165
44.349 65.985 49.851
44.502 59.188 48.974
44.693 58.950 49.520
44.545 58.919 50.210
44.554 59.018 50.752
44.787 59.012 50.495
44.749 59.641 48.370
44.708 59.214 50.854
44.672 59.785 51.020
44.592 60.980 47.539
44.941 60.251 47.902
44.821 60.826 51.072
44.802 62.019 47.472
44.970 62.132 51.213
44.906 63.223 47.553
45.084 63.616 51.549
44.914 64.321 47.744
44.812 64.558 51.725
44.856 65.089 47.967
44.997 65.196 51.668
44.555 65.589 48.152
44.658 65.913 48.550
45.177 65.539 51.367
44.962 65.745 50.471
44.545 66.091 48.932
44.696 66.043 49.529
44.990 59.263 49.101
44.942 59.060 49.908
45.358 60.030 48.663
45.285 59.604 49.680
44.994 59.372 50.461
45.378 61.077 47.978
45.795 60.890 48.824
45.644 60.489 49.610
45.229 60.149 50.456
45.518 62.404 47.944
45.936 61.848 48.698
45.951 61.594 49.645
45.504 61.298 50.524
45.488 63.652 48.096
45.961 63.061 48.823
46.110 62.598 49.578
45.826 62.890 50.734
45.298 64.725 48.279
45.765 64.285 49.021
46.074 63.819 50.090
46.100 64.040 51.102
45.824 64.017 51.500
45.526 64.698 51.797
44.976 65.496 48.419
45.378 65.267 49.041
45.679 65.056 50.115
46.032 64.703 51.057
45.522 65.268 51.699
44.929 65.870 48.991
45.179 65.709 49.647
45.635 65.326 51.184
46.004 64.565 51.568
45.863 65.006 51.621
3 2 1 0
3 4 3 0
3 0 3 2
3 6 5 4
3 4 5 3
3 6 7 5
3 0 1 8
3 8 1 9
3 0 10 4
3 0 8 10
3 4 11 6
3 4 10 11
3 7 6 12
3 12 6 11
3 15 14 13
3 15 13 9
3 13 8 9
3 13 16 8
3 8 17 10
3 8 16 17
3 10 18 11
3 10 17 18
3 12 11 19
3 19 11 18
3 13 14 20
3 20 14 21
3 13 22 16
3 13 20 22
3 16 23 17
3 16 22 23
3 17 24 18
3 17 23 24
3 19 18 25
3 25 18 24
3 20 21 26
3 26 21 27
3 20 28 22
3 20 26 28
3 22 29 23
3 22 28 29
3 23 30 24
3 23 29 30
3 25 24 31
3 31 24 30
3 26 27 32
3 32 27 33
3 26 34 28
3 26 32 34
3 28 35 29
3 28 34 35
3 29 36 30
3 29 35 36
3 31 30 37
3 37 30 36
3 32 33 38
3 38 33 39
3 32 40 34
3 32 38 40
3 34 41 35
3 34 40 41
3 35 42 36
3 35 41 42
3 37 36 43
3 43 36 42
3 39 44 38
3 46 45 44
3 45 38 44
3 45 40 38
3 40 47 41
3 40 45 47
3 49 42 48
3 42 47 48
3 42 41 47
3 42 49 43
3 46 50 45
3 45 50 47
3 47 50 51
3 47 51 48
3 53 52 2
3 2 52 1
3 54 2 3
3 54 53 2
3 56 54 55
3 54 5 55
3 54 3 5
3 7 55 5
3 52 9 1
3 57 9 52
3 58 56 55
3 55 7 58
3 7 59 58
3 7 12 59
3 61 60 15
3 15 60 14
3 15 9 57
3 15 57 61
3 19 59 12
3 19 62 59
3 60 21 14
3 63 21 60
3 25 62 19
3 25 64 62
3 63 27 21
3 65 27 63
3 31 64 25
3 31 66 64
3 65 33 27
3 67 33 65
3 37 66 31
3 37 68 66
3 67 39 33
3 69 39 67
3 43 68 37
3 43 70 68
3 69 71 39
3 39 71 44
3 46 44 71
3 46 71 72
3 74 73 49
3 74 49 48
3 43 49 70
3 70 49 73
3 72 75 46
3 46 75 50
3 50 76 51
3 75 76 50
3 48 51 74
3 74 51 76
3 77 52 53
3 54 78 53
3 53 78 77
3 56 78 54
3 79 57 77
3 77 57 52
3 80 77 78
3 79 77 80
3 58 81 56
3 81 78 56
3 81 80 78
3 59 81 58
3 82 60 61
3 57 79 61
3 79 82 61
3 79 83 82
3 84 79 80
3 83 79 84
3 85 80 81
3 84 80 85
3 62 85 59
3 59 85 81
3 86 63 82
3 82 63 60
3 87 82 83
3 86 82 87
3 88 83 84
3 87 83 88
3 89 84 85
3 88 84 89
3 64 89 62
3 62 89 85
3 90 65 86
3 86 65 63
3 91 86 87
3 90 86 91
3 92 87 88
3 91 87 92
3 93 88 89
3 92 88 93
3 66 93 64
3 64 93 89
3 94 67 90
3 90 67 65
3 95 90 91
3 94 90 95
3 96 91 92
3 95 91 96
3 93 98 97
3 96 93 97
3 92 93 96
3 93 66 98
3 66 99 98
3 66 68 99
3 100 69 94
3 94 69 67
3 101 94 95
3 100 94 101
3 102 95 96
3 101 95 102
3 96 97 103
3 96 103 102
3 70 99 68
3 70 104 99
3 100 71 69
3 71 100 72
3 100 105 72
3 100 101 105
3 106 101 102
3 105 101 106
3 107 73 74
3 102 107 74
3 106 102 74
3 107 102 103
3 70 73 104
3 104 73 107
3 105 75 72
3 75 105 76
3 76 105 106
3 76 106 74
3 108 97 98
3 99 108 98
3 109 103 108
3 108 103 97
3 104 109 99
3 99 109 108
3 109 107 103
3 107 109 104
