ply
format ascii 1.0
comment None
element vertex 128
property float x
property float y
property float z
element face 252
property list uchar int vertex_indices
end_header
43.166 68.254 49.459
43.141 68.344 49.161
43.235 67.970 49.256
43.548 68.048 49.610
43.319 68.491 49.422
44.052 66.511 48.254
44.245 66.263 47.514
44.488 66.056 47.880
44.584 66.156 48.446
43.724 66.988 47.410
44.082 66.886 46.539
44.375 66.400 46.971
43.600 67.085 48.325
44.279 66.564 49.097
43.732 67.243 49.210
44.123 66.874 49.632
44.020 67.116 49.766
44.241 67.008 49.879
43.595 67.743 46.457
43.945 67.995 45.725
44.280 67.269 46.031
43.250 67.975 47.387
43.278 67.887 48.453
44.141 67.487 49.812
44.006 68.085 49.774
43.426 68.980 45.940
44.131 68.726 45.265
43.194 68.814 46.986
43.175 68.705 47.896
43.454 68.940 48.831
43.920 68.603 49.515
43.611 70.099 45.038
44.179 70.207 44.230
44.482 69.420 44.712
43.216 70.182 46.047
43.177 69.765 46.712
43.444 69.888 47.775
43.979 69.834 48.618
44.262 69.337 49.108
43.721 71.225 44.052
44.179 71.438 43.334
44.434 70.703 43.759
43.321 71.330 44.997
43.247 71.156 45.825
43.359 70.947 46.864
43.862 71.076 47.627
44.261 70.585 48.160
43.804 71.971 43.294
43.902 72.082 42.894
44.060 71.899 42.983
43.566 72.177 44.007
43.402 72.113 44.761
43.298 72.007 45.546
43.526 72.182 46.441
43.912 71.938 47.195
43.920 72.319 43.125
43.841 72.685 43.847
44.275 72.609 43.492
43.585 72.731 44.585
43.655 72.910 45.612
43.989 72.980 46.498
43.926 72.570 46.920
44.275 73.215 44.275
43.952 73.339 44.888
44.325 73.613 44.949
44.124 73.555 45.661
44.046 73.360 46.097
44.206 73.713 45.282
44.689 66.079 47.460
44.818 66.007 47.969
44.954 66.166 48.407
44.669 66.720 46.526
44.890 66.362 47.084
44.763 66.408 49.022
44.477 66.725 49.609
44.502 67.046 49.836
44.623 67.857 45.662
44.913 67.245 46.197
44.693 67.348 49.685
44.578 68.062 49.571
44.970 68.673 45.332
44.632 68.833 49.332
44.844 70.029 44.298
45.179 69.446 44.924
44.948 69.325 48.911
44.702 69.975 48.604
44.715 71.158 43.580
45.016 70.645 44.022
45.009 70.612 47.992
44.636 71.518 47.549
44.100 72.168 42.985
44.566 71.935 43.401
44.475 72.601 46.974
45.140 72.088 46.921
45.049 72.756 46.515
44.741 72.604 43.763
44.551 73.329 46.195
45.138 73.005 45.938
44.888 73.384 45.548
44.617 73.026 44.039
44.487 73.663 45.460
44.721 73.362 44.796
45.115 66.317 47.819
45.321 67.037 47.128
45.388 66.913 48.184
45.135 66.581 48.707
44.853 66.856 49.436
45.405 68.019 46.282
45.736 67.947 47.288
45.587 67.670 48.104
45.173 67.386 49.033
45.658 69.264 45.876
45.818 68.815 47.042
45.748 68.498 47.907
45.278 68.508 48.810
45.531 70.363 44.974
45.844 70.247 46.106
45.847 69.766 46.835
45.499 69.597 47.987
45.248 71.371 44.201
45.657 71.367 45.138
45.783 71.003 45.843
45.550 70.921 46.985
45.114 72.310 44.181
45.476 72.021 44.876
45.512 72.073 45.963
44.947 72.906 44.305
45.214 72.818 45.085
3 2 1 0
3 0 3 2
3 1 4 0
3 0 4 3
3 7 6 5
3 5 8 7
3 11 10 9
3 11 9 6
3 9 5 6
3 9 12 5
3 8 5 13
3 5 14 13
3 5 12 14
3 16 15 14
3 14 15 13
3 16 17 15
3 20 19 18
3 20 18 10
3 18 9 10
3 18 21 9
3 9 22 12
3 9 21 22
3 22 1 2
3 14 22 2
3 12 22 14
3 16 14 23
3 14 3 23
3 3 24 23
3 3 14 2
3 16 23 17
3 18 19 25
3 25 19 26
3 18 27 21
3 18 25 27
3 21 28 22
3 21 27 28
3 29 4 1
3 22 29 1
3 28 29 22
3 29 30 4
3 30 3 4
3 30 24 3
3 33 32 31
3 33 31 26
3 31 25 26
3 31 34 25
3 25 35 27
3 25 34 35
3 27 36 28
3 27 35 36
3 38 29 37
3 29 36 37
3 29 28 36
3 29 38 30
3 41 40 39
3 41 39 32
3 39 31 32
3 39 42 31
3 31 43 34
3 31 42 43
3 34 44 35
3 34 43 44
3 46 36 45
3 36 44 45
3 36 35 44
3 36 46 37
3 49 48 47
3 49 47 40
3 47 39 40
3 47 50 39
3 39 51 42
3 39 50 51
3 42 52 43
3 42 51 52
3 43 53 44
3 43 52 53
3 45 44 54
3 54 44 53
3 48 55 47
3 57 56 55
3 56 47 55
3 56 50 47
3 50 58 51
3 50 56 58
3 51 59 52
3 51 58 59
3 61 53 60
3 53 59 60
3 53 52 59
3 53 61 54
3 57 62 56
3 64 63 62
3 63 56 62
3 63 58 56
3 66 59 65
3 59 63 65
3 59 58 63
3 59 66 60
3 64 67 63
3 63 67 65
3 69 68 7
3 7 68 6
3 7 8 69
3 69 8 70
3 72 71 11
3 11 71 10
3 11 6 68
3 11 68 72
3 73 70 8
3 73 8 13
3 74 13 15
3 74 73 13
3 15 17 74
3 74 17 75
3 77 76 20
3 20 76 19
3 20 10 71
3 20 71 77
3 79 78 23
3 79 23 24
3 17 23 75
3 75 23 78
3 76 26 19
3 80 26 76
3 30 79 24
3 30 81 79
3 83 82 33
3 33 82 32
3 33 26 80
3 33 80 83
3 85 84 38
3 85 38 37
3 30 38 81
3 81 38 84
3 87 86 41
3 41 86 40
3 41 32 82
3 41 82 87
3 89 88 46
3 89 46 45
3 37 46 85
3 85 46 88
3 90 48 49
3 91 90 49
3 40 91 49
3 86 91 40
3 94 93 92
3 93 89 92
3 89 54 92
3 89 45 54
3 90 55 48
3 57 55 90
3 91 57 90
3 95 57 91
3 98 97 96
3 96 97 94
3 96 94 92
3 60 96 92
3 61 60 92
3 61 92 54
3 95 99 57
3 57 99 62
3 101 100 64
3 62 101 64
3 99 101 62
3 100 101 98
3 100 98 96
3 65 100 96
3 66 65 96
3 66 96 60
3 100 67 64
3 67 100 65
3 102 68 69
3 70 102 69
3 103 71 72
3 68 102 72
3 102 103 72
3 102 104 103
3 73 105 70
3 105 102 70
3 105 104 102
3 74 106 73
3 73 106 105
3 75 106 74
3 107 76 77
3 71 103 77
3 103 107 77
3 103 108 107
3 109 103 104
3 108 103 109
3 110 104 105
3 109 104 110
3 79 110 78
3 110 106 78
3 110 105 106
3 78 106 75
3 111 80 107
3 107 80 76
3 112 107 108
3 111 107 112
3 113 108 109
3 112 108 113
3 114 109 110
3 113 109 114
3 81 114 79
3 79 114 110
3 115 82 83
3 80 111 83
3 111 115 83
3 111 116 115
3 117 111 112
3 116 111 117
3 118 112 113
3 117 112 118
3 85 118 84
3 118 114 84
3 118 113 114
3 84 114 81
3 119 86 87
3 82 115 87
3 115 119 87
3 115 120 119
3 121 115 116
3 120 115 121
3 122 116 117
3 121 116 122
3 89 122 88
3 122 118 88
3 122 117 118
3 88 118 85
3 123 91 119
3 119 91 86
3 124 119 120
3 123 119 124
3 125 120 121
3 124 120 125
3 94 125 93
3 125 122 93
3 125 121 122
3 93 122 89
3 126 95 123
3 123 95 91
3 127 123 124
3 126 123 127
3 98 127 97
3 127 125 97
3 127 124 125
3 97 125 94
3 126 99 95
3 99 126 101
3 101 126 127
3 101 127 98
