ply
format ascii 1.0
comment None
element vertex 112
property float x
property float y
property float z
element face 216
property list uchar int vertex_indices
end_header
43.927 51.320 47.792
44.017 51.434 47.234
44.320 51.077 47.468
44.275 50.910 48.063
43.972 51.250 48.513
44.273 50.881 48.574
44.185 51.175 48.973
44.466 50.947 48.876
43.668 51.920 47.519
43.953 51.887 46.959
43.611 51.958 48.398
43.908 51.952 49.335
44.496 51.478 49.410
43.605 52.558 47.238
43.932 52.370 46.806
43.357 52.809 48.153
43.414 52.971 49.285
44.311 52.288 50.065
43.861 53.185 50.383
44.578 53.099 50.713
43.783 52.958 47.026
43.424 53.699 47.829
44.085 53.663 47.248
43.156 53.991 49.062
43.350 54.168 50.226
44.187 53.767 51.166
43.817 54.345 51.110
44.273 54.390 51.492
43.607 54.923 47.941
44.307 54.961 47.525
43.175 55.064 48.884
43.150 55.207 50.018
43.517 55.263 50.959
44.181 55.249 51.487
44.000 56.000 46.000
44.000 56.000 46.000
44.000 56.000 46.000
44.000 56.000 46.000
43.857 55.923 48.019
44.279 55.877 47.715
43.418 56.097 48.801
43.234 56.219 49.819
43.425 56.222 50.752
43.849 56.075 51.305
44.000 56.000 46.000
44.156 56.468 48.076
43.884 56.942 48.756
44.503 57.035 48.536
43.558 57.095 49.655
43.590 57.109 50.529
43.944 56.912 51.141
44.281 57.630 49.058
44.710 57.802 49.115
44.012 57.746 49.580
43.912 57.794 50.310
44.091 57.685 50.893
44.486 58.092 49.544
44.341 58.177 50.128
44.291 58.114 50.635
44.358 51.447 47.050
44.662 51.155 47.383
44.656 50.901 47.852
44.581 50.811 48.415
44.807 51.092 48.856
44.328 52.048 46.850
44.760 51.678 47.236
44.974 51.587 49.341
44.159 52.690 46.848
44.708 52.683 47.206
44.831 52.161 49.987
45.116 52.870 50.286
44.819 53.913 47.460
44.579 53.936 51.308
45.073 53.900 50.839
44.918 54.813 47.620
44.726 55.596 47.735
45.160 55.285 48.048
44.704 54.640 51.466
45.116 54.912 51.137
44.000 56.000 46.000
44.529 56.289 47.962
45.016 56.273 48.422
44.781 55.421 51.459
44.512 56.324 51.356
45.024 57.326 49.007
44.521 57.375 51.111
45.027 57.930 49.352
44.514 57.967 50.881
44.846 58.168 49.509
44.776 58.265 49.937
44.678 58.191 50.479
44.964 51.270 47.813
44.898 50.991 48.298
45.154 52.071 47.862
45.165 51.575 48.639
45.269 53.196 47.963
45.430 52.629 48.784
45.259 52.254 49.534
45.295 54.381 48.068
45.520 53.896 48.949
45.430 53.320 49.826
45.428 55.368 48.988
45.428 54.761 50.195
45.327 56.751 49.369
45.392 56.191 50.148
45.140 55.792 50.988
45.211 57.677 49.614
45.259 57.304 50.183
45.038 56.879 50.860
45.049 58.132 49.704
45.054 58.011 50.140
44.908 57.747 50.704
3 2 1 0
3 4 3 0
3 0 3 2
3 6 5 4
3 4 5 3
3 6 7 5
3 0 1 8
3 8 1 9
3 0 10 4
3 0 8 10
3 4 11 6
3 4 10 11
3 7 6 12
3 12 6 11
3 8 9 13
3 13 9 14
3 8 15 10
3 8 13 15
3 10 16 11
3 10 15 16
3 12 11 17
3 11 18 17
3 11 16 18
3 18 19 17
3 14 20 13
3 22 21 20
3 21 13 20
3 21 15 13
3 15 23 16
3 15 21 23
3 16 24 18
3 16 23 24
3 19 18 25
3 18 26 25
3 18 24 26
3 26 27 25
3 21 22 28
3 28 22 29
3 21 30 23
3 21 28 30
3 23 31 24
3 23 30 31
3 24 32 26
3 24 31 32
3 27 26 33
3 33 26 32
3 36 35 34
3 34 37 36
3 28 29 38
3 38 29 39
3 28 40 30
3 28 38 40
3 30 41 31
3 30 40 41
3 31 42 32
3 31 41 42
3 33 32 43
3 43 32 42
3 35 44 34
3 34 44 37
3 39 45 38
3 47 46 45
3 46 38 45
3 46 40 38
3 40 48 41
3 40 46 48
3 41 49 42
3 41 48 49
3 43 42 50
3 50 42 49
3 46 47 51
3 51 47 52
3 46 53 48
3 46 51 53
3 48 54 49
3 48 53 54
3 50 49 55
3 55 49 54
3 52 56 51
3 51 56 53
3 53 56 57
3 53 57 54
3 54 57 58
3 54 58 55
3 59 1 2
3 59 2 60
3 2 61 60
3 2 3 61
3 62 3 5
3 62 61 3
3 5 7 62
3 62 7 63
3 64 9 59
3 59 9 1
3 59 60 65
3 59 65 64
3 12 63 7
3 12 66 63
3 67 14 64
3 64 14 9
3 64 65 68
3 64 68 67
3 69 66 12
3 69 12 17
3 17 19 69
3 69 19 70
3 67 20 14
3 22 20 67
3 68 22 67
3 71 22 68
3 19 25 72
3 73 19 72
3 70 19 73
3 27 72 25
3 75 29 74
3 29 71 74
3 29 22 71
3 76 75 74
3 73 72 77
3 73 77 78
3 33 77 27
3 27 77 72
3 79 35 36
3 37 79 36
3 80 39 75
3 75 39 29
3 75 76 81
3 75 81 80
3 82 78 77
3 77 33 82
3 33 83 82
3 33 43 83
3 79 44 35
3 44 79 37
3 80 45 39
3 47 45 80
3 81 47 80
3 84 47 81
3 50 83 43
3 50 85 83
3 84 52 47
3 86 52 84
3 55 85 50
3 55 87 85
3 86 88 52
3 52 88 56
3 56 89 57
3 88 89 56
3 57 90 58
3 89 90 57
3 55 58 87
3 87 58 90
3 91 60 61
3 62 92 61
3 61 92 91
3 63 92 62
3 93 65 91
3 91 65 60
3 94 91 92
3 93 91 94
3 66 94 63
3 63 94 92
3 95 68 93
3 93 68 65
3 96 93 94
3 95 93 96
3 69 97 66
3 97 94 66
3 97 96 94
3 70 97 69
3 98 71 95
3 95 71 68
3 99 95 96
3 98 95 99
3 100 96 97
3 99 96 100
3 73 100 70
3 70 100 97
3 98 74 71
3 74 98 76
3 98 101 76
3 98 99 101
3 102 99 100
3 101 99 102
3 78 102 73
3 73 102 100
3 103 81 101
3 101 81 76
3 104 101 102
3 103 101 104
3 82 105 78
3 105 102 78
3 105 104 102
3 83 105 82
3 106 84 103
3 103 84 81
3 107 103 104
3 106 103 107
3 108 104 105
3 107 104 108
3 85 108 83
3 83 108 105
3 109 86 106
3 106 86 84
3 110 106 107
3 109 106 110
3 111 107 108
3 110 107 111
3 87 111 85
3 85 111 108
3 109 88 86
3 88 109 89
3 89 109 110
3 89 110 90
3 90 110 111
3 90 111 87
