ply
format ascii 1.0
comment None
element vertex 218
property float x
property float y
property float z
element face 432
property list uchar int vertex_indices
end_header
43.326 41.730 43.390
43.298 41.997 42.963
43.752 41.660 43.045
43.574 41.625 43.747
43.254 41.769 43.781
43.427 41.820 44.189
43.354 42.704 40.475
43.423 42.783 40.348
43.503 42.610 40.484
43.418 42.628 40.943
43.128 42.089 43.561
43.211 42.058 44.133
43.392 43.151 40.641
43.569 42.201 42.026
44.046 41.968 41.693
44.299 41.715 42.423
44.376 41.509 43.223
44.140 41.559 43.771
43.889 41.794 44.397
43.539 42.320 44.948
44.215 42.164 45.221
43.743 43.012 40.332
43.929 42.392 40.974
43.195 43.250 41.732
43.089 42.786 43.016
43.097 42.751 44.289
43.270 43.057 45.353
43.978 42.552 45.841
43.658 43.061 46.184
44.108 42.926 46.594
43.990 43.386 47.097
44.204 43.186 47.099
43.766 44.016 40.342
44.192 44.346 39.940
44.187 43.669 40.041
43.350 44.127 41.166
43.108 44.299 42.035
42.975 43.985 42.880
42.937 43.779 44.024
43.050 43.759 45.173
43.324 43.821 46.215
43.697 43.938 47.138
44.348 43.573 47.541
44.089 44.067 47.797
44.453 44.191 48.114
44.085 44.946 40.239
44.436 44.886 39.919
43.690 45.032 40.943
43.324 45.134 41.867
43.066 45.099 42.860
42.935 44.940 43.929
42.956 44.814 45.068
43.139 44.773 46.189
43.459 44.813 47.220
43.890 44.929 48.124
44.288 44.767 48.435
44.372 45.438 40.203
44.125 45.816 40.823
44.520 45.919 40.505
43.714 46.014 41.754
43.364 46.135 42.800
43.111 46.104 43.892
43.016 45.999 45.020
43.089 45.909 46.165
43.315 45.882 47.261
43.659 45.921 48.204
44.196 45.394 48.768
44.031 45.999 48.859
44.331 45.998 49.106
44.404 46.356 41.023
44.141 46.602 41.644
44.505 46.757 41.498
43.838 47.049 42.728
43.450 47.181 43.859
43.229 47.168 44.975
43.182 47.097 46.120
43.297 47.044 47.258
43.555 47.056 48.296
43.919 47.064 49.049
44.309 46.858 49.331
44.320 47.171 42.239
44.194 47.672 43.010
43.905 48.100 43.868
44.364 48.204 43.529
43.567 48.215 44.912
43.409 48.206 46.017
43.413 48.160 47.163
43.552 48.140 48.255
43.843 48.290 49.253
44.272 48.232 49.672
44.204 48.776 44.169
43.971 49.102 44.867
44.340 49.346 44.587
43.734 49.134 45.849
43.657 49.120 46.951
43.693 49.067 48.073
43.785 48.976 48.954
44.053 48.926 49.925
44.003 49.292 49.690
44.083 49.294 50.100
44.225 49.741 45.074
44.485 49.853 44.945
44.074 49.796 45.665
43.984 49.830 46.620
43.972 49.805 47.732
44.027 49.705 48.886
44.249 49.742 49.588
44.188 49.453 49.997
44.375 50.110 45.447
44.327 50.210 46.205
44.315 50.230 47.207
44.320 50.175 48.272
44.343 50.075 49.058
44.501 42.022 41.677
44.924 41.835 42.431
44.981 41.602 43.214
44.708 41.537 43.746
44.645 41.814 44.494
44.805 42.302 45.374
44.354 43.009 40.458
44.616 42.522 41.092
44.508 42.680 46.157
44.444 43.126 46.985
44.816 43.186 46.798
44.532 44.267 39.907
44.633 43.662 40.187
44.717 43.565 47.419
44.626 43.892 47.873
44.873 44.038 47.795
44.726 44.834 39.977
44.741 44.305 48.136
44.663 44.827 48.468
44.651 45.396 40.115
44.783 45.826 40.487
44.504 45.476 48.872
44.644 46.362 49.163
44.685 46.313 40.929
44.777 46.630 41.417
44.702 47.440 49.392
44.649 47.024 41.929
44.635 47.486 42.690
44.768 48.041 43.425
44.738 48.401 49.495
44.568 48.748 44.042
44.704 49.345 44.583
44.200 49.129 50.051
44.506 49.279 49.661
44.727 49.854 44.992
44.520 49.916 49.302
44.599 50.132 45.249
44.618 50.251 45.757
44.660 50.286 46.594
44.676 50.255 47.628
44.632 50.139 48.614
45.181 42.415 41.954
45.480 42.009 43.139
45.496 41.674 43.623
45.273 41.692 44.012
45.350 42.250 44.817
45.640 41.929 44.162
45.076 43.331 40.970
45.583 43.162 41.990
45.752 42.834 42.949
45.703 41.880 43.809
45.792 42.580 44.165
45.662 43.010 45.308
45.177 42.961 46.019
44.958 44.355 40.331
45.347 44.288 41.012
45.634 43.978 41.753
45.922 43.788 42.789
46.041 43.674 43.961
45.958 43.733 45.167
45.639 43.832 46.226
45.151 43.847 47.139
44.925 45.266 40.353
45.230 45.125 40.924
45.571 44.984 41.712
45.885 44.848 42.682
46.099 44.780 43.821
46.125 44.789 45.041
45.928 44.833 46.217
45.539 44.828 47.235
45.057 44.745 48.028
44.986 46.014 41.035
45.305 45.995 41.787
45.642 45.992 42.711
45.946 45.963 43.770
46.096 45.965 44.948
46.032 45.978 46.157
45.760 45.944 47.264
45.346 45.823 48.143
44.900 45.655 48.694
44.947 46.753 41.914
45.170 47.139 42.880
45.587 47.178 43.843
45.865 47.180 44.914
45.939 47.176 46.088
45.797 47.122 47.241
45.478 46.968 48.216
45.062 46.709 48.881
45.068 48.369 44.082
45.474 48.353 44.956
45.673 48.327 46.024
45.658 48.265 47.169
45.449 48.103 48.219
45.112 47.813 48.994
45.025 49.413 45.081
45.300 49.316 45.967
45.381 49.253 47.044
45.279 49.113 48.128
45.023 48.833 49.023
44.792 50.038 45.350
44.929 49.995 45.909
45.028 49.960 46.860
45.010 49.868 47.928
44.853 49.658 48.893
45.622 41.697 43.918
3 2 1 0
3 4 3 0
3 0 3 2
3 4 5 3
3 8 7 6
3 6 9 8
3 1 10 0
3 0 10 4
3 4 10 11
3 4 11 5
3 7 12 6
3 6 12 9
3 15 14 13
3 1 2 13
3 2 15 13
3 2 16 15
3 17 2 3
3 17 16 2
3 19 18 5
3 18 3 5
3 18 17 3
3 19 20 18
3 22 21 8
3 8 21 7
3 23 13 9
3 13 22 9
3 22 8 9
3 13 14 22
3 24 10 1
3 13 24 1
3 23 24 13
3 25 11 10
3 25 10 24
3 19 5 11
3 25 19 11
3 26 19 25
3 20 19 27
3 19 28 27
3 19 26 28
3 30 29 28
3 28 29 27
3 30 31 29
3 34 33 32
3 32 35 12
3 21 32 12
3 7 21 12
3 32 21 34
3 23 9 12
3 35 23 12
3 36 23 35
3 23 37 24
3 23 36 37
3 24 38 25
3 24 37 38
3 25 39 26
3 25 38 39
3 26 40 28
3 26 39 40
3 28 41 30
3 28 40 41
3 31 30 42
3 30 43 42
3 30 41 43
3 43 44 42
3 32 33 45
3 45 33 46
3 32 47 35
3 32 45 47
3 35 48 36
3 35 47 48
3 36 49 37
3 36 48 49
3 37 50 38
3 37 49 50
3 38 51 39
3 38 50 51
3 39 52 40
3 39 51 52
3 40 53 41
3 40 52 53
3 41 54 43
3 41 53 54
3 44 43 55
3 55 43 54
3 46 56 45
3 58 57 56
3 57 45 56
3 57 47 45
3 47 59 48
3 47 57 59
3 48 60 49
3 48 59 60
3 49 61 50
3 49 60 61
3 50 62 51
3 50 61 62
3 51 63 52
3 51 62 63
3 52 64 53
3 52 63 64
3 53 65 54
3 53 64 65
3 55 54 66
3 54 67 66
3 54 65 67
3 67 68 66
3 58 69 57
3 71 70 69
3 70 57 69
3 70 59 57
3 59 72 60
3 59 70 72
3 60 73 61
3 60 72 73
3 61 74 62
3 61 73 74
3 62 75 63
3 62 74 75
3 63 76 64
3 63 75 76
3 64 77 65
3 64 76 77
3 65 78 67
3 65 77 78
3 68 67 79
3 79 67 78
3 71 80 70
3 70 80 72
3 72 80 81
3 83 82 81
3 82 72 81
3 82 73 72
3 73 84 74
3 73 82 84
3 74 85 75
3 74 84 85
3 75 86 76
3 75 85 86
3 76 87 77
3 76 86 87
3 77 88 78
3 77 87 88
3 79 78 89
3 89 78 88
3 83 90 82
3 92 91 90
3 91 82 90
3 91 84 82
3 84 93 85
3 84 91 93
3 85 94 86
3 85 93 94
3 86 95 87
3 86 94 95
3 87 96 88
3 87 95 96
3 89 88 97
3 88 98 97
3 88 96 98
3 98 99 97
3 91 92 100
3 100 92 101
3 91 102 93
3 91 100 102
3 93 103 94
3 93 102 103
3 94 104 95
3 94 103 104
3 95 105 96
3 95 104 105
3 107 98 106
3 98 105 106
3 98 96 105
3 98 107 99
3 101 108 100
3 100 108 102
3 102 108 109
3 102 109 103
3 103 109 110
3 103 110 104
3 104 110 111
3 104 111 105
3 105 111 112
3 105 112 106
3 114 113 15
3 15 113 14
3 115 15 16
3 115 114 15
3 116 16 17
3 116 115 16
3 117 17 18
3 117 116 17
3 18 20 117
3 117 20 118
3 120 119 22
3 22 119 21
3 22 14 113
3 22 113 120
3 121 118 20
3 121 20 27
3 123 121 122
3 121 29 122
3 121 27 29
3 31 122 29
3 125 124 34
3 34 124 33
3 34 21 119
3 34 119 125
3 126 123 122
3 128 126 127
3 127 126 42
3 126 122 42
3 122 31 42
3 44 127 42
3 124 46 33
3 129 46 124
3 130 128 127
3 127 44 130
3 44 131 130
3 44 55 131
3 129 132 46
3 46 132 56
3 58 56 132
3 58 132 133
3 134 131 55
3 134 55 66
3 66 68 134
3 134 68 135
3 133 136 58
3 58 136 69
3 71 69 136
3 71 136 137
3 79 135 68
3 79 138 135
3 137 139 71
3 71 139 80
3 80 140 81
3 139 140 80
3 83 81 140
3 83 140 141
3 89 138 79
3 89 142 138
3 141 143 83
3 83 143 90
3 92 90 143
3 92 143 144
3 89 97 145
3 146 89 145
3 142 89 146
3 99 145 97
3 144 101 92
3 147 101 144
3 146 145 107
3 106 146 107
3 148 146 106
3 107 145 99
3 147 149 101
3 101 149 108
3 108 150 109
3 149 150 108
3 109 151 110
3 150 151 109
3 110 152 111
3 151 152 110
3 111 153 112
3 152 153 111
3 106 112 148
3 148 112 153
3 154 113 114
3 115 155 114
3 114 155 154
3 155 115 156
3 115 157 156
3 115 116 157
3 159 157 158
3 157 117 158
3 157 116 117
3 118 158 117
3 160 119 120
3 113 154 120
3 154 160 120
3 154 161 160
3 162 154 155
3 161 154 162
3 155 156 163
3 164 155 163
3 162 155 164
3 164 163 159
3 158 164 159
3 165 164 158
3 121 166 118
3 166 158 118
3 166 165 158
3 123 166 121
3 167 124 125
3 119 160 125
3 160 167 125
3 160 168 167
3 169 160 161
3 168 160 169
3 170 161 162
3 169 161 170
3 171 162 164
3 170 162 171
3 172 164 165
3 171 164 172
3 173 165 166
3 172 165 173
3 126 174 123
3 174 166 123
3 174 173 166
3 128 174 126
3 175 129 167
3 167 129 124
3 176 167 168
3 175 167 176
3 177 168 169
3 176 168 177
3 178 169 170
3 177 169 178
3 179 170 171
3 178 170 179
3 180 171 172
3 179 171 180
3 181 172 173
3 180 172 181
3 182 173 174
3 181 173 182
3 130 183 128
3 183 174 128
3 183 182 174
3 131 183 130
3 175 132 129
3 132 175 133
3 175 184 133
3 175 176 184
3 185 176 177
3 184 176 185
3 186 177 178
3 185 177 186
3 187 178 179
3 186 178 187
3 188 179 180
3 187 179 188
3 189 180 181
3 188 180 189
3 190 181 182
3 189 181 190
3 191 182 183
3 190 182 191
3 134 192 131
3 192 183 131
3 192 191 183
3 135 192 134
3 184 136 133
3 136 184 137
3 184 193 137
3 184 185 193
3 194 185 186
3 193 185 194
3 195 186 187
3 194 186 195
3 196 187 188
3 195 187 196
3 197 188 189
3 196 188 197
3 198 189 190
3 197 189 198
3 199 190 191
3 198 190 199
3 200 191 192
3 199 191 200
3 138 200 135
3 135 200 192
3 193 139 137
3 139 193 140
3 140 193 194
3 140 194 141
3 194 201 141
3 194 195 201
3 202 195 196
3 201 195 202
3 203 196 197
3 202 196 203
3 204 197 198
3 203 197 204
3 205 198 199
3 204 198 205
3 206 199 200
3 205 199 206
3 142 206 138
3 138 206 200
3 201 143 141
3 143 201 144
3 201 207 144
3 201 202 207
3 208 202 203
3 207 202 208
3 209 203 204
3 208 203 209
3 210 204 205
3 209 204 210
3 211 205 206
3 210 205 211
3 146 211 142
3 142 211 206
3 212 147 207
3 207 147 144
3 213 207 208
3 212 207 213
3 214 208 209
3 213 208 214
3 215 209 210
3 214 209 215
3 216 210 211
3 215 210 216
3 148 216 146
3 146 216 211
3 212 149 147
3 149 212 150
3 150 212 213
3 150 213 151
3 151 213 214
3 151 214 152
3 152 214 215
3 152 215 153
3 153 215 216
3 153 216 148
3 217 156 157
3 159 217 157
3 217 163 156
3 163 217 159
