ply
format ascii 1.0
comment None
element vertex 404
property float x
property float y
property float z
element face 808
property list uchar int vertex_indices
end_header
41.002 49.760 36.840
41.328 49.893 36.786
41.132 49.586 36.840
41.031 49.650 37.056
41.165 50.000 37.134
41.395 49.327 37.277
41.717 49.478 36.768
42.122 48.979 37.138
41.892 48.983 37.742
41.679 49.331 38.196
42.379 49.052 38.448
42.160 50.094 36.689
41.275 49.766 37.690
42.273 49.370 39.211
41.675 50.006 38.985
42.244 49.595 40.148
41.836 50.176 40.362
42.244 49.736 41.113
41.927 50.278 41.420
42.238 49.858 41.806
41.663 50.439 37.122
41.561 50.514 37.947
41.693 50.811 38.884
41.727 50.791 39.758
41.909 51.326 39.390
41.789 50.892 40.875
42.155 50.245 42.279
41.876 51.010 42.134
42.202 50.690 42.983
41.960 51.166 43.022
42.216 51.083 43.522
41.953 51.510 40.296
41.913 51.624 41.398
41.877 51.724 42.220
41.884 51.592 42.827
41.976 52.093 42.690
42.073 51.559 43.491
42.046 52.040 43.244
43.009 49.186 36.437
42.933 48.657 37.122
42.576 48.766 37.757
43.303 49.106 38.407
42.926 50.032 36.504
43.217 49.433 39.283
43.065 49.355 40.169
42.940 49.389 41.053
42.818 49.539 41.902
42.497 49.817 42.314
42.942 49.679 42.566
42.250 50.750 37.067
42.972 50.600 36.891
42.173 51.100 37.744
42.006 51.302 38.633
42.726 50.108 42.967
42.791 50.752 43.803
42.474 51.410 44.073
43.018 51.241 44.535
42.678 51.059 37.388
42.893 51.339 38.024
42.585 51.672 38.584
43.126 51.676 38.641
42.442 52.008 39.628
42.256 52.252 40.920
42.097 52.277 42.003
42.360 52.175 43.973
42.826 51.863 44.711
42.992 52.060 39.127
43.210 52.652 39.800
42.757 52.831 40.585
43.138 53.281 40.466
42.530 53.071 41.722
42.310 52.810 43.041
42.528 53.012 44.083
42.746 52.654 44.722
42.922 53.525 41.119
42.798 53.821 41.802
42.659 53.855 42.612
42.885 54.493 42.145
42.685 53.918 43.748
42.837 53.527 44.614
42.885 54.941 43.136
42.987 55.418 42.353
42.945 54.851 43.978
42.961 54.334 44.445
43.107 56.102 43.121
43.086 56.404 42.492
43.184 55.745 43.834
43.239 56.883 43.070
43.250 57.200 42.705
43.548 56.890 43.674
43.489 57.458 43.165
43.785 48.459 36.028
44.140 48.467 35.743
44.089 48.241 35.828
44.216 48.175 36.067
43.716 48.812 35.868
44.195 48.872 35.734
43.955 48.349 36.739
43.490 48.552 37.642
44.051 48.821 38.087
43.821 49.258 35.957
43.892 50.027 36.425
43.740 50.136 38.928
44.123 49.700 38.393
44.016 50.029 39.424
44.190 49.599 40.107
43.909 49.317 41.036
43.732 49.347 41.837
43.583 49.528 42.539
43.364 49.791 43.010
44.151 49.805 43.194
43.978 50.616 37.219
43.351 50.943 37.612
43.595 50.965 38.467
44.159 50.468 37.984
43.874 51.135 39.021
44.261 50.804 39.217
43.584 50.219 43.624
43.742 50.860 44.521
43.513 51.567 45.146
44.005 51.217 45.114
43.581 51.918 39.134
44.233 51.742 39.273
43.204 52.360 45.271
44.261 51.636 45.468
43.759 52.171 45.654
44.199 52.173 45.834
43.998 52.843 39.695
43.461 53.342 40.170
43.089 53.118 45.153
43.580 53.008 45.589
43.970 52.572 45.871
43.646 53.923 40.265
44.196 53.861 39.954
43.230 53.962 40.811
42.988 54.113 41.462
43.346 54.121 45.072
43.916 53.804 45.501
44.053 53.072 45.788
43.687 54.811 40.351
44.247 54.818 39.992
43.316 54.809 40.902
43.072 54.748 41.537
43.245 55.135 44.485
43.674 55.274 44.859
43.837 54.626 45.211
43.618 55.864 40.349
44.146 55.910 39.886
43.295 55.817 41.010
43.108 55.687 41.688
43.637 56.185 44.330
44.101 55.978 44.614
44.091 55.225 44.975
43.491 57.162 40.172
44.318 56.915 39.514
43.234 56.939 41.047
43.179 56.877 41.929
43.831 56.891 44.112
44.113 56.762 44.270
43.489 58.242 39.285
43.935 58.240 38.428
44.144 57.691 38.860
43.143 58.412 40.343
43.176 58.102 41.103
43.236 57.819 41.798
43.586 58.042 42.673
44.070 57.821 43.398
44.123 57.282 43.902
43.591 59.164 38.202
44.114 59.130 37.362
44.364 58.573 37.929
43.133 59.392 39.220
43.084 59.299 40.088
43.205 59.213 41.078
43.504 58.901 42.033
44.046 58.989 42.700
44.366 58.593 43.045
43.880 59.776 37.290
44.238 59.850 36.807
44.345 59.452 36.916
43.491 60.152 38.084
43.231 60.142 38.934
43.100 60.066 39.779
43.418 60.266 40.744
43.737 59.920 41.773
44.157 59.639 42.438
44.109 60.256 37.065
43.869 60.704 37.752
44.364 60.801 37.376
43.550 60.918 38.718
43.493 60.929 39.809
43.937 61.103 40.657
44.265 60.670 41.422
44.343 60.201 42.142
44.299 61.316 37.947
44.046 61.501 38.537
44.644 61.849 38.531
43.955 61.641 39.361
44.181 61.656 40.131
44.415 61.997 39.079
44.556 62.094 39.665
44.447 48.226 35.848
44.940 48.570 35.802
45.040 48.129 36.250
45.058 48.160 37.007
44.518 48.400 37.577
44.972 48.922 38.141
44.614 49.350 35.916
45.362 50.056 36.364
45.139 49.768 38.446
44.801 50.391 39.359
45.423 49.735 40.085
45.002 49.440 41.060
44.628 49.352 41.746
44.628 49.535 42.555
44.831 49.832 43.229
44.843 50.559 36.985
44.817 50.492 37.820
44.970 51.390 39.141
44.861 50.401 43.938
44.538 51.048 44.899
45.108 50.962 44.652
44.724 52.219 39.445
45.144 51.565 45.122
44.680 52.096 45.684
45.141 52.164 45.487
44.888 53.001 39.798
44.895 52.657 45.618
45.339 52.537 45.320
45.221 53.186 45.159
44.380 52.636 45.846
44.778 53.963 40.010
44.538 53.445 45.522
45.024 54.247 44.789
44.788 54.569 40.021
44.685 55.197 39.950
45.056 54.886 40.227
44.324 54.502 45.189
44.633 55.418 44.584
44.738 55.964 39.845
45.130 55.538 40.281
44.562 56.454 44.222
44.866 56.458 39.770
45.197 56.312 40.202
44.490 57.098 44.004
44.867 56.871 43.742
44.722 57.526 43.502
44.426 57.962 38.479
44.762 57.568 39.138
45.082 57.015 39.851
44.719 58.193 43.219
44.647 59.092 37.359
44.991 58.832 38.050
44.968 58.269 38.674
44.965 58.613 42.894
44.741 59.246 42.674
44.569 59.796 36.818
44.778 59.547 37.078
44.709 59.902 42.395
44.500 60.251 36.957
44.810 60.782 37.418
45.013 60.723 41.159
44.705 61.365 40.628
44.892 60.281 41.855
44.800 61.390 37.931
45.298 62.009 38.647
44.764 61.958 40.109
45.240 61.750 39.917
45.066 62.183 39.710
45.043 62.228 39.177
45.916 48.062 36.213
45.705 48.196 35.943
46.109 48.101 36.035
46.391 48.252 36.294
45.826 48.551 35.874
46.062 48.195 36.823
45.653 48.412 37.625
46.238 49.022 38.383
45.637 49.161 35.966
46.453 49.603 36.350
46.144 49.630 39.399
45.333 50.276 38.778
46.290 49.623 40.492
45.899 49.554 41.056
45.744 49.600 42.008
45.510 49.906 43.024
46.328 50.000 42.693
45.632 50.676 36.920
46.409 50.420 36.805
45.446 50.813 37.692
45.406 50.953 38.579
46.221 50.507 43.402
45.704 51.047 44.302
46.558 51.300 43.710
46.042 50.896 37.266
46.005 51.093 37.927
45.843 51.379 38.723
45.534 52.037 39.452
45.914 51.784 44.549
45.507 52.116 45.131
45.780 52.627 44.697
45.605 52.674 40.017
45.413 53.482 40.382
45.870 53.506 41.161
45.998 52.793 40.627
46.227 52.946 41.313
45.632 53.553 44.442
45.179 54.334 40.370
45.573 54.258 41.091
46.117 53.430 41.761
45.855 54.133 42.014
46.129 53.621 42.333
45.562 54.310 43.979
45.904 53.737 43.780
45.866 54.134 43.368
45.404 55.140 40.925
45.612 55.042 41.955
45.950 54.079 42.783
45.608 54.858 43.103
45.207 55.024 44.087
45.465 56.161 40.985
45.529 55.998 41.912
45.478 55.779 42.746
45.120 55.965 43.688
45.533 57.193 40.861
45.540 56.989 41.908
45.279 56.784 42.942
45.457 58.137 40.020
45.653 58.160 41.271
45.598 57.803 41.848
45.261 57.873 42.729
45.208 59.580 37.896
45.481 59.106 39.073
45.681 59.207 40.287
45.618 58.980 41.214
45.405 58.671 42.198
44.988 60.205 37.351
45.426 60.499 38.225
45.584 60.197 39.042
45.667 59.871 39.952
45.479 59.979 41.052
45.234 59.590 42.034
45.290 61.214 38.149
45.550 61.299 39.102
45.424 60.812 40.189
45.608 61.988 38.866
45.648 62.292 38.918
45.489 62.145 39.309
45.535 62.335 39.047
46.165 48.297 35.982
46.470 48.778 36.186
47.135 48.649 36.872
47.132 49.184 36.566
46.771 48.555 37.595
47.249 48.935 38.148
47.309 49.777 36.839
47.176 49.566 38.988
46.893 49.781 40.288
46.648 49.762 41.344
46.669 49.916 42.161
47.075 50.158 41.895
47.114 50.380 37.179
46.604 50.835 37.452
46.583 51.056 38.245
47.190 50.529 37.803
46.492 51.379 39.239
47.124 50.678 38.670
46.830 51.424 40.168
47.111 50.807 39.593
47.189 50.896 40.335
46.948 50.396 42.621
46.936 50.830 43.161
47.104 51.191 43.131
46.198 52.074 40.061
47.084 51.303 40.818
46.644 52.102 41.069
46.935 52.015 42.090
47.158 51.394 41.534
47.241 51.451 42.201
46.401 52.153 43.882
46.941 51.700 43.202
46.442 52.876 42.081
47.093 51.788 42.646
46.651 52.447 42.992
46.136 53.021 43.852
46.185 53.451 43.046
45.691 62.323 39.060
47.728 49.162 36.945
47.895 48.891 37.226
47.633 48.790 37.577
47.768 49.215 38.020
47.906 49.488 37.165
47.641 49.948 37.411
47.584 49.931 38.212
47.999 49.431 37.583
47.350 50.230 39.112
47.270 50.282 40.086
47.191 50.206 41.139
47.289 50.780 41.000
47.289 50.791 42.001
47.235 50.880 42.747
47.262 51.294 42.676
48.089 49.157 37.268
48.051 49.031 37.534
3 2 1 0
3 0 3 2
3 1 4 0
3 0 4 3
3 7 6 5
3 9 8 5
3 5 8 7
3 9 10 8
3 5 6 2
3 6 1 2
3 6 11 1
3 5 2 3
3 12 5 3
3 9 5 12
3 10 9 13
3 9 14 13
3 9 12 14
3 16 15 14
3 14 15 13
3 18 17 16
3 16 17 15
3 18 19 17
3 11 20 1
3 1 20 4
3 3 4 12
3 4 21 12
3 4 20 21
3 12 21 14
3 14 21 22
3 24 23 22
3 23 14 22
3 23 16 14
3 16 25 18
3 16 23 25
3 19 18 26
3 18 27 26
3 18 25 27
3 29 28 27
3 27 28 26
3 29 30 28
3 24 31 23
3 23 31 25
3 25 31 32
3 25 32 27
3 27 32 33
3 35 34 33
3 34 27 33
3 34 29 27
3 30 29 36
3 36 29 34
3 35 37 34
3 34 37 36
3 39 38 7
3 7 38 6
3 40 7 8
3 40 39 7
3 8 10 40
3 40 10 41
3 38 11 6
3 42 11 38
3 43 41 10
3 43 10 13
3 44 13 15
3 44 43 13
3 45 15 17
3 45 44 15
3 47 46 19
3 46 17 19
3 46 45 17
3 47 48 46
3 20 11 49
3 11 50 49
3 11 42 50
3 51 21 20
3 51 20 49
3 52 22 21
3 52 21 51
3 52 24 22
3 26 47 19
3 53 48 47
3 26 53 47
3 28 53 26
3 55 54 30
3 54 28 30
3 54 53 28
3 55 56 54
3 50 57 49
3 49 57 51
3 51 57 58
3 60 59 58
3 59 51 58
3 59 52 51
3 61 31 24
3 52 61 24
3 59 61 52
3 62 32 31
3 62 31 61
3 63 33 32
3 63 32 62
3 63 35 33
3 36 64 55
3 36 55 30
3 56 55 65
3 65 55 64
3 60 66 59
3 59 66 61
3 61 66 67
3 69 68 67
3 68 61 67
3 68 62 61
3 62 70 63
3 62 68 70
3 71 37 35
3 63 71 35
3 70 71 63
3 64 36 37
3 71 64 37
3 72 64 71
3 65 64 73
3 73 64 72
3 69 74 68
3 68 74 70
3 70 74 75
3 77 76 75
3 76 70 75
3 76 71 70
3 71 78 72
3 71 76 78
3 73 72 79
3 79 72 78
3 76 77 80
3 80 77 81
3 83 78 82
3 78 80 82
3 78 76 80
3 78 83 79
3 80 81 84
3 84 81 85
3 82 80 86
3 86 80 84
3 84 85 87
3 87 85 88
3 86 84 89
3 89 84 87
3 88 90 87
3 87 90 89
3 93 92 91
3 91 94 93
3 91 92 95
3 95 92 96
3 39 97 38
3 97 91 38
3 91 95 38
3 91 97 94
3 98 39 40
3 98 97 39
3 40 41 98
3 98 41 99
3 96 100 95
3 38 95 100
3 101 38 100
3 42 38 101
3 41 43 102
3 103 41 102
3 99 41 103
3 102 43 104
3 43 105 104
3 43 44 105
3 106 44 45
3 106 105 44
3 107 45 46
3 107 106 45
3 109 108 48
3 108 46 48
3 108 107 46
3 109 110 108
3 112 50 111
3 50 101 111
3 50 42 101
3 114 113 112
3 114 112 111
3 113 114 103
3 102 113 103
3 115 113 102
3 102 104 116
3 102 116 115
3 53 109 48
3 117 110 109
3 53 117 109
3 54 117 53
3 119 118 56
3 118 54 56
3 118 117 54
3 119 120 118
3 112 57 50
3 57 112 58
3 58 112 113
3 58 113 60
3 113 121 60
3 113 115 121
3 115 116 122
3 115 122 121
3 65 123 119
3 65 119 56
3 120 119 124
3 119 125 124
3 119 123 125
3 125 126 124
3 121 66 60
3 67 66 121
3 127 67 121
3 122 127 121
3 128 67 127
3 128 69 67
3 73 129 123
3 73 123 65
3 123 130 125
3 123 129 130
3 126 125 131
3 131 125 130
3 128 127 132
3 132 127 133
3 134 74 69
3 128 134 69
3 132 134 128
3 135 75 74
3 135 74 134
3 135 77 75
3 79 136 129
3 79 129 73
3 138 130 137
3 130 136 137
3 130 129 136
3 130 138 131
3 132 133 139
3 139 133 140
3 132 141 134
3 132 139 141
3 134 142 135
3 134 141 142
3 142 81 77
3 142 77 135
3 82 143 83
3 136 79 83
3 143 136 83
3 144 136 143
3 137 136 145
3 145 136 144
3 139 140 146
3 146 140 147
3 139 148 141
3 139 146 148
3 141 149 142
3 141 148 149
3 149 85 81
3 149 81 142
3 86 150 143
3 86 143 82
3 152 144 151
3 144 150 151
3 144 143 150
3 144 152 145
3 146 147 153
3 153 147 154
3 146 155 148
3 146 153 155
3 148 156 149
3 148 155 156
3 156 88 85
3 156 85 149
3 89 157 150
3 89 150 86
3 151 150 158
3 158 150 157
3 161 160 159
3 161 159 154
3 159 153 154
3 159 162 153
3 153 163 155
3 153 162 163
3 155 164 156
3 155 163 164
3 165 90 88
3 156 165 88
3 164 165 156
3 165 166 90
3 90 166 89
3 166 167 89
3 167 157 89
3 157 167 158
3 170 169 168
3 170 168 160
3 168 159 160
3 168 171 159
3 159 172 162
3 159 171 172
3 162 173 163
3 162 172 173
3 163 174 164
3 163 173 174
3 176 165 175
3 165 174 175
3 165 164 174
3 165 176 166
3 179 178 177
3 179 177 169
3 177 168 169
3 177 180 168
3 168 181 171
3 168 180 181
3 171 182 172
3 171 181 182
3 172 183 173
3 172 182 183
3 173 184 174
3 173 183 184
3 175 174 185
3 185 174 184
3 178 186 177
3 188 187 186
3 187 177 186
3 187 180 177
3 180 189 181
3 180 187 189
3 181 190 182
3 181 189 190
3 192 183 191
3 183 190 191
3 183 182 190
3 183 192 184
3 184 192 193
3 184 193 185
3 188 194 187
3 196 195 194
3 195 187 194
3 195 189 187
3 189 197 190
3 189 195 197
3 191 190 198
3 198 190 197
3 196 199 195
3 195 199 197
3 197 199 200
3 197 200 198
3 201 92 93
3 94 201 93
3 203 202 201
3 202 92 201
3 202 96 92
3 203 201 94
3 97 203 94
3 204 203 97
3 205 97 98
3 205 204 97
3 98 99 205
3 205 99 206
3 202 207 96
3 96 207 100
3 101 100 207
3 101 207 208
3 103 206 99
3 103 209 206
3 211 210 105
3 105 210 104
3 212 105 106
3 212 211 105
3 213 106 107
3 213 212 106
3 214 107 108
3 214 213 107
3 108 110 214
3 214 110 215
3 208 216 101
3 101 216 111
3 111 217 114
3 216 217 111
3 103 114 209
3 209 114 217
3 210 116 104
3 218 116 210
3 219 215 110
3 219 110 117
3 221 219 220
3 219 118 220
3 219 117 118
3 120 220 118
3 218 122 116
3 222 122 218
3 223 221 220
3 225 223 224
3 224 223 124
3 223 220 124
3 220 120 124
3 126 224 124
3 222 127 122
3 226 127 222
3 229 228 227
3 227 228 225
3 224 227 225
3 230 227 224
3 131 230 126
3 126 230 224
3 226 133 127
3 231 133 226
3 229 227 232
3 229 232 233
3 137 232 138
3 232 230 138
3 232 227 230
3 138 230 131
3 235 140 234
3 140 231 234
3 140 133 231
3 236 235 234
3 233 232 237
3 233 237 238
3 145 237 137
3 137 237 232
3 239 147 235
3 235 147 140
3 235 236 240
3 235 240 239
3 238 237 152
3 151 238 152
3 241 238 151
3 152 237 145
3 242 154 239
3 239 154 147
3 239 240 243
3 239 243 242
3 246 245 244
3 245 241 244
3 241 158 244
3 241 151 158
3 247 160 161
3 248 247 161
3 248 161 154
3 249 248 154
3 242 249 154
3 249 242 243
3 246 244 167
3 166 246 167
3 250 246 166
3 167 244 158
3 252 251 170
3 170 251 169
3 170 160 247
3 253 170 247
3 252 170 253
3 253 247 248
3 255 254 176
3 255 176 175
3 166 176 250
3 250 176 254
3 257 256 179
3 179 256 178
3 179 169 251
3 179 251 257
3 185 255 175
3 185 258 255
3 256 259 178
3 178 259 186
3 188 186 259
3 188 259 260
3 262 261 192
3 262 192 191
3 192 263 193
3 261 263 192
3 185 193 258
3 258 193 263
3 260 264 188
3 188 264 194
3 196 194 264
3 196 264 265
3 268 267 266
3 267 262 266
3 262 198 266
3 262 191 198
3 265 269 196
3 196 269 199
3 266 200 268
3 200 269 268
3 200 199 269
3 200 266 198
3 272 271 270
3 270 273 272
3 270 271 203
3 271 202 203
3 271 274 202
3 275 273 270
3 203 275 270
3 204 275 203
3 276 204 205
3 276 275 204
3 205 206 276
3 276 206 277
3 274 278 202
3 202 278 207
3 208 207 278
3 208 278 279
3 209 281 280
3 277 209 280
3 206 209 277
3 210 211 281
3 211 280 281
3 211 282 280
3 283 211 212
3 283 282 211
3 284 212 213
3 284 283 212
3 286 284 285
3 284 214 285
3 284 213 214
3 215 285 214
3 216 208 287
3 208 288 287
3 208 279 288
3 289 217 216
3 289 216 287
3 281 209 217
3 289 281 217
3 290 281 289
3 290 218 210
3 290 210 281
3 291 286 285
3 293 291 292
3 292 291 219
3 291 285 219
3 285 215 219
3 221 292 219
3 288 294 287
3 287 294 289
3 289 294 295
3 289 295 290
3 290 295 296
3 218 290 296
3 297 218 296
3 222 218 297
3 298 293 292
3 300 298 299
3 299 298 223
3 298 292 223
3 292 221 223
3 225 299 223
3 302 226 301
3 226 297 301
3 226 222 297
3 304 303 302
3 304 302 301
3 305 303 304
3 300 299 228
3 229 300 228
3 306 300 229
3 228 299 225
3 307 231 302
3 302 231 226
3 308 302 303
3 307 302 308
3 303 305 309
3 310 303 309
3 308 303 310
3 311 310 309
3 314 313 312
3 313 306 312
3 306 233 312
3 306 229 233
3 307 234 231
3 234 307 236
3 307 315 236
3 307 308 315
3 316 308 310
3 315 308 316
3 310 311 317
3 318 310 317
3 316 310 318
3 318 317 314
3 312 318 314
3 319 318 312
3 238 319 233
3 233 319 312
3 320 240 315
3 315 240 236
3 321 315 316
3 320 315 321
3 322 316 318
3 321 316 322
3 323 318 319
3 322 318 323
3 241 323 238
3 238 323 319
3 324 243 320
3 320 243 240
3 325 320 321
3 324 320 325
3 326 321 322
3 325 321 326
3 246 326 245
3 326 323 245
3 326 322 323
3 245 323 241
3 327 248 249
3 243 324 249
3 324 327 249
3 324 328 327
3 329 324 325
3 328 324 329
3 330 325 326
3 329 325 330
3 250 330 246
3 246 330 326
3 331 251 252
3 253 332 252
3 252 332 331
3 248 327 253
3 327 332 253
3 327 333 332
3 334 327 328
3 333 327 334
3 335 328 329
3 334 328 335
3 255 335 254
3 335 330 254
3 335 329 330
3 254 330 250
3 336 256 257
3 251 331 257
3 331 336 257
3 331 337 336
3 338 331 332
3 337 331 338
3 339 332 333
3 338 332 339
3 340 333 334
3 339 333 340
3 341 334 335
3 340 334 341
3 258 341 255
3 255 341 335
3 336 259 256
3 259 336 260
3 336 342 260
3 336 337 342
3 343 337 338
3 342 337 343
3 344 338 339
3 343 338 344
3 262 344 261
3 344 340 261
3 344 339 340
3 261 340 263
3 263 340 341
3 263 341 258
3 342 264 260
3 342 343 345
3 265 342 345
3 346 265 345
3 342 265 264
3 268 347 267
3 347 343 267
3 343 344 267
3 347 345 343
3 267 344 262
3 346 348 265
3 265 348 269
3 268 269 347
3 347 269 348
3 349 271 272
3 273 349 272
3 350 274 349
3 349 274 271
3 350 349 273
3 351 350 273
3 275 351 273
3 352 350 351
3 353 275 276
3 353 351 275
3 276 277 353
3 353 277 354
3 350 278 274
3 279 278 350
3 352 279 350
3 355 279 352
3 356 354 277
3 356 277 280
3 357 280 282
3 357 356 280
3 358 282 283
3 358 357 282
3 360 358 359
3 358 284 359
3 358 283 284
3 286 359 284
3 362 288 361
3 288 355 361
3 288 279 355
3 364 363 362
3 364 362 361
3 366 365 363
3 366 363 364
3 368 367 365
3 368 365 366
3 369 367 368
3 370 360 359
3 370 359 286
3 291 370 286
3 371 370 291
3 291 293 371
3 371 293 372
3 362 294 288
3 294 362 295
3 295 362 363
3 295 363 296
3 296 363 365
3 296 365 297
3 365 373 297
3 365 367 373
3 367 369 374
3 375 367 374
3 373 367 375
3 377 376 375
3 377 375 374
3 378 376 377
3 293 298 379
3 380 293 379
3 372 293 380
3 300 379 298
3 373 301 297
3 301 373 304
3 304 373 375
3 304 375 305
3 375 381 305
3 375 376 381
3 376 378 382
3 383 376 382
3 381 376 383
3 383 382 380
3 379 383 380
3 384 383 379
3 306 384 300
3 300 384 379
3 381 309 305
3 309 381 311
3 381 385 311
3 381 383 385
3 314 385 313
3 385 384 313
3 385 383 384
3 313 384 306
3 385 317 311
3 317 385 314
3 386 346 345
3 347 386 345
3 386 348 346
3 348 386 347
3 388 387 351
3 351 387 352
3 389 351 353
3 389 388 351
3 353 354 389
3 389 354 390
3 392 355 391
3 355 387 391
3 355 352 387
3 394 393 392
3 394 392 391
3 395 393 356
3 393 390 356
3 390 354 356
3 390 393 394
3 357 396 356
3 356 396 395
3 358 397 357
3 357 397 396
3 360 397 358
3 392 361 355
3 361 392 364
3 364 392 393
3 364 393 366
3 366 393 395
3 366 395 368
3 368 395 396
3 368 396 369
3 396 398 369
3 396 397 398
3 370 399 360
3 399 397 360
3 399 398 397
3 371 400 370
3 370 400 399
3 372 400 371
3 398 374 369
3 374 398 377
3 377 398 399
3 377 399 378
3 399 401 378
3 399 400 401
3 380 401 372
3 372 401 400
3 401 382 378
3 382 401 380
3 402 387 388
3 389 403 388
3 388 403 402
3 390 403 389
3 402 391 387
3 391 402 394
3 394 402 403
3 394 403 390
