ply
format ascii 1.0
comment None
element vertex 488
property float x
property float y
property float z
element face 988
property list uchar int vertex_indices
end_header
46.610 80.390 36.382
46.565 80.080 35.755
46.699 80.113 35.991
46.755 80.259 36.234
46.355 80.013 39.994
46.510 80.021 39.461
46.701 79.723 40.140
46.615 79.660 40.735
46.260 80.060 40.838
46.813 79.474 41.739
46.341 79.992 41.661
46.548 79.910 42.247
46.594 80.474 36.220
46.482 80.773 36.653
46.499 80.629 37.185
46.763 80.480 36.893
46.719 80.463 37.886
46.338 80.673 38.093
46.581 80.265 38.778
46.202 80.519 39.098
46.013 80.560 39.949
45.914 80.715 40.607
46.026 80.582 41.379
46.229 80.373 42.111
46.078 81.135 45.192
46.071 81.218 45.009
46.393 80.986 44.897
46.388 81.169 45.313
46.191 81.161 37.535
46.021 81.250 38.477
45.887 81.243 39.398
45.808 81.177 40.143
46.049 81.270 45.230
47.019 74.538 34.632
47.162 74.604 33.938
47.149 74.376 34.414
47.153 74.409 34.645
46.888 75.087 34.439
46.932 75.256 33.627
47.074 74.589 34.881
46.971 74.987 34.900
47.139 74.951 34.972
47.712 75.614 31.074
47.784 75.596 31.038
47.758 75.406 31.243
47.553 75.708 31.369
46.723 75.979 34.228
46.736 76.134 33.368
46.872 75.788 34.811
47.123 75.600 35.003
47.701 75.895 31.150
46.559 77.129 34.012
46.616 76.938 33.107
46.761 76.844 34.716
47.088 76.597 34.983
46.855 78.437 31.527
47.123 78.636 31.021
47.225 77.893 31.206
46.920 77.679 31.708
46.606 78.234 32.323
46.754 77.280 32.368
46.465 77.971 33.342
46.452 78.242 34.285
46.647 77.960 34.757
47.004 77.724 35.019
46.853 79.225 31.341
47.246 79.298 30.810
46.554 79.137 32.163
46.365 79.050 33.159
46.343 79.054 34.158
46.547 79.111 35.000
46.862 78.672 35.168
47.151 79.082 42.107
47.198 79.196 41.936
47.252 79.000 42.218
47.171 79.172 42.266
46.900 80.009 31.194
47.204 80.051 30.767
46.561 80.022 32.007
46.310 80.014 33.022
46.218 79.998 34.072
46.330 79.990 35.024
46.916 79.717 35.666
46.864 80.396 36.192
46.804 79.932 39.536
46.960 79.707 40.230
46.985 79.498 41.007
46.972 79.667 42.572
46.509 80.491 43.043
47.102 80.054 43.221
47.003 80.725 31.095
47.339 80.542 30.742
46.638 80.903 31.873
46.310 80.985 32.906
46.126 80.998 34.006
46.136 80.948 35.054
46.415 80.769 36.061
46.720 80.488 36.442
46.904 80.621 36.675
47.167 80.654 37.764
47.010 80.306 38.932
45.804 81.477 41.005
45.989 81.234 42.232
46.092 81.420 43.335
47.275 80.571 44.125
46.290 81.172 44.274
46.955 80.862 45.056
47.132 81.048 45.523
47.190 81.180 31.020
46.863 81.775 31.737
47.372 81.847 31.297
46.407 81.973 32.801
46.116 82.048 33.931
45.994 82.030 35.033
46.031 81.930 36.052
46.094 81.780 37.026
45.966 82.014 38.091
45.885 82.090 39.051
45.818 82.080 40.107
45.825 82.434 41.047
45.859 82.261 41.889
46.000 82.195 42.952
46.179 82.042 44.062
46.267 81.623 45.077
46.745 81.462 45.642
46.793 82.023 45.590
47.167 81.702 45.911
47.082 82.782 31.959
47.540 82.716 31.632
46.625 82.952 32.758
46.245 83.091 33.836
46.019 83.131 34.966
45.943 83.073 36.027
45.967 82.964 36.991
45.986 82.906 37.892
46.020 82.974 38.798
46.066 83.051 39.770
46.067 83.119 40.764
46.066 83.122 41.721
46.085 82.945 42.556
46.449 83.067 43.605
46.694 82.593 44.859
47.156 82.504 45.551
47.403 82.114 45.903
47.363 83.365 32.077
47.014 83.815 32.760
47.590 83.937 32.485
46.545 84.020 33.721
46.249 84.166 34.828
46.082 84.157 35.924
46.067 84.067 36.918
46.147 83.932 37.843
46.185 83.723 38.578
46.517 84.005 39.517
46.597 83.913 40.585
46.571 83.865 41.581
46.575 83.741 42.645
46.983 83.866 43.531
47.346 83.499 44.386
47.427 82.959 45.195
47.371 84.479 33.059
46.983 84.700 33.640
47.577 85.045 33.636
46.679 84.966 34.570
46.509 85.214 35.774
46.297 84.935 36.699
46.532 85.053 37.677
46.672 84.666 38.746
47.146 84.789 39.601
47.456 84.650 40.461
47.342 84.454 41.449
47.247 84.351 42.357
47.230 84.249 43.091
47.185 85.334 34.259
47.163 85.788 35.150
46.985 86.019 36.069
46.803 85.793 36.883
47.322 86.347 36.544
47.071 85.885 37.731
47.309 85.584 38.470
47.424 85.215 39.207
47.553 86.354 37.295
47.732 74.552 32.303
47.871 74.667 31.880
47.924 74.461 32.050
47.902 74.472 32.330
47.399 74.546 34.119
47.570 75.109 31.909
47.929 75.106 31.571
47.638 74.545 33.067
47.336 74.812 32.907
47.822 74.957 33.395
47.620 75.144 34.247
47.281 74.716 34.708
47.880 75.617 31.199
48.031 75.615 31.522
47.261 75.812 31.923
47.083 75.499 32.675
47.954 75.807 33.642
47.725 75.993 34.433
47.389 75.375 34.805
47.869 76.349 31.401
47.311 76.694 31.554
46.910 76.345 32.462
47.978 76.767 34.007
47.739 76.793 34.598
47.435 76.279 34.879
47.470 78.490 30.881
47.713 77.600 31.263
47.866 77.454 34.423
47.808 78.335 34.567
47.483 77.438 34.881
47.608 79.083 30.752
47.833 78.613 31.090
48.391 79.430 32.884
48.327 79.113 32.546
48.364 79.583 32.506
48.323 79.121 33.080
47.331 78.732 35.149
47.757 79.247 34.898
47.285 79.082 42.255
47.559 79.831 30.737
47.847 79.343 30.998
48.416 79.737 32.976
48.419 80.036 32.834
48.361 79.622 33.393
47.474 79.756 35.467
47.254 80.192 35.931
47.614 80.361 35.839
47.067 79.966 39.861
47.189 79.800 40.629
47.298 79.592 41.505
47.323 79.467 42.298
47.309 79.784 42.856
47.507 80.148 43.275
47.637 80.547 30.841
47.466 81.060 30.890
47.826 81.254 31.247
48.419 80.071 33.313
47.411 80.662 36.431
47.436 80.865 37.191
47.529 80.958 37.731
47.724 81.193 37.590
47.515 80.972 38.198
47.391 80.798 38.889
47.326 80.391 40.036
47.402 80.069 41.046
47.943 80.509 43.528
47.827 80.366 42.996
48.184 80.736 43.039
48.183 80.632 43.983
48.241 80.663 44.428
47.985 80.796 45.084
47.793 80.998 45.684
47.783 82.112 31.412
47.719 81.231 38.028
47.782 82.194 40.494
47.740 81.945 40.083
47.962 82.368 40.081
47.899 82.211 41.025
47.701 81.693 40.695
48.159 82.290 41.523
48.002 81.617 41.636
48.652 80.921 43.549
48.594 82.162 42.064
48.738 80.796 44.144
47.400 81.300 45.877
47.945 81.646 46.018
47.989 82.697 31.689
48.101 82.590 40.590
48.270 82.653 41.191
48.521 82.602 41.672
47.900 82.117 45.991
47.917 82.564 45.692
47.801 83.318 31.963
48.242 83.776 32.452
48.263 83.861 44.289
47.694 84.160 43.718
48.369 83.241 45.013
47.977 84.506 33.037
48.355 85.065 33.689
48.608 85.030 40.622
47.959 85.149 39.862
48.327 84.799 41.378
48.137 84.646 42.213
47.953 84.478 43.022
47.891 85.659 34.385
47.856 86.176 35.130
48.541 86.050 34.822
47.561 86.353 35.828
47.573 86.134 38.011
48.052 85.992 38.403
48.316 85.576 39.080
48.312 86.444 35.553
48.071 86.578 36.475
48.280 86.562 37.242
48.200 86.325 37.860
48.005 74.671 31.977
48.089 75.215 31.971
47.980 74.787 32.530
48.113 76.064 31.994
48.085 75.529 32.709
48.068 77.185 31.899
48.138 76.760 32.933
48.037 78.156 31.643
48.208 78.301 32.665
48.078 77.807 33.780
48.146 79.157 31.787
48.134 79.120 33.971
47.966 80.170 31.302
48.306 80.116 32.233
48.323 80.257 34.107
47.949 80.124 35.120
47.530 80.042 41.854
47.578 80.013 42.646
48.317 81.126 32.070
48.491 80.766 33.238
48.517 81.105 34.368
48.314 81.012 35.183
47.974 81.002 36.122
47.815 81.213 37.057
47.712 81.347 38.699
47.610 81.288 39.826
47.615 80.804 41.075
47.894 80.678 42.305
48.943 80.873 44.631
49.030 80.935 45.150
48.585 80.999 45.628
48.028 81.181 45.915
48.525 81.266 45.928
48.221 82.017 31.740
48.550 81.899 32.239
48.771 82.293 32.553
48.742 81.837 32.977
48.780 81.773 34.069
48.673 81.809 35.092
48.473 81.814 36.043
48.267 81.828 36.971
48.066 81.790 37.999
48.019 82.088 39.323
48.576 81.387 42.681
49.279 81.481 43.313
49.467 81.207 44.017
49.396 82.030 45.683
48.504 82.092 45.906
48.900 81.588 45.895
48.408 82.746 31.990
48.194 83.182 31.984
48.985 82.563 33.033
48.509 83.267 32.267
49.253 83.215 33.370
49.139 82.681 33.816
49.066 82.625 34.820
48.923 82.644 35.824
48.756 82.645 36.807
48.582 82.545 37.639
48.760 82.936 38.670
48.593 82.881 39.931
48.709 82.995 40.836
48.872 82.946 41.497
49.161 82.728 42.069
49.480 82.180 42.753
48.940 82.603 45.537
49.843 82.487 45.298
49.412 83.023 45.043
48.757 83.626 32.690
49.478 83.510 33.947
49.683 84.291 34.284
49.445 83.485 34.524
49.359 83.515 35.434
49.231 83.535 36.505
49.127 83.524 37.643
49.498 84.012 38.591
49.564 83.643 39.546
49.426 83.376 40.519
49.456 83.283 41.323
49.555 83.147 41.889
49.332 83.617 44.308
48.641 84.223 43.645
48.858 84.359 33.277
49.052 84.957 33.874
49.688 84.414 34.826
49.662 84.438 35.984
49.519 84.419 37.161
49.553 84.484 37.991
49.565 85.086 40.584
48.983 85.300 39.908
49.327 84.894 41.267
49.117 84.704 42.011
48.921 84.497 42.823
48.792 85.468 34.240
49.311 85.702 34.650
49.568 85.441 39.033
49.071 85.872 38.332
49.040 86.260 35.213
48.870 86.519 35.970
48.826 86.556 36.828
48.888 86.364 37.632
49.874 81.287 44.769
49.463 81.141 45.403
49.094 81.231 45.754
49.704 81.530 45.550
48.585 82.363 32.156
50.012 81.834 43.503
50.251 81.632 44.086
50.058 81.997 45.385
48.842 82.959 32.599
50.177 83.116 42.497
50.423 82.513 43.071
50.402 82.312 45.019
50.264 82.927 44.624
49.179 83.734 33.185
49.592 84.013 33.819
49.460 84.278 33.655
49.845 84.598 34.415
50.008 84.306 39.126
50.382 84.125 39.715
50.211 83.763 40.370
50.132 83.554 41.187
50.208 83.479 42.032
50.393 83.458 43.691
49.639 84.045 43.328
49.465 84.974 34.317
49.587 84.720 34.109
49.810 84.663 34.520
49.885 84.844 35.139
49.710 85.069 34.530
49.891 85.101 35.971
49.937 85.359 35.590
49.780 85.107 36.802
49.643 85.248 37.935
49.885 85.053 38.567
49.784 85.233 39.994
50.177 85.048 40.427
50.207 84.813 41.031
49.893 84.655 41.704
49.915 84.308 42.402
49.712 85.621 34.774
49.889 85.560 36.378
49.820 85.592 37.354
49.699 85.580 38.133
49.678 85.626 38.527
49.535 85.960 38.128
50.081 85.464 38.890
50.338 85.135 39.845
49.524 86.013 35.008
49.455 86.234 35.534
49.395 86.334 36.354
49.412 86.246 37.300
49.967 81.362 45.235
50.670 82.150 43.703
50.640 81.923 44.338
50.347 81.786 45.015
50.811 82.449 44.442
50.758 83.163 42.604
50.909 82.669 43.288
50.845 82.980 44.085
49.750 84.565 34.119
50.477 84.612 39.290
50.819 84.353 39.813
50.790 84.060 40.316
50.688 83.784 41.068
50.615 83.539 41.862
50.576 83.449 42.364
50.705 83.464 42.804
50.297 83.710 42.755
50.531 83.812 42.291
50.950 83.177 43.556
49.857 85.198 34.803
50.399 85.104 38.999
50.861 84.663 39.659
50.574 84.885 40.518
50.755 84.634 40.876
50.554 84.348 41.603
49.749 85.853 35.131
49.790 85.860 35.774
49.751 85.964 36.851
49.875 85.689 38.027
50.704 84.967 39.630
50.855 84.762 40.308
51.012 82.497 43.824
51.035 83.078 43.144
51.087 82.833 43.850
51.043 84.335 40.242
50.997 84.044 40.858
50.874 83.737 41.905
51.024 84.608 40.121
50.999 84.347 40.841
3 2 1 0
3 0 3 2
3 6 5 4
3 8 7 4
3 4 7 6
3 10 9 8
3 8 9 7
3 10 11 9
3 1 12 0
3 12 13 0
3 13 14 0
3 15 3 0
3 15 0 14
3 17 16 14
3 14 16 15
3 19 18 17
3 17 18 16
3 18 19 5
3 19 4 5
3 19 20 4
3 22 8 21
3 8 20 21
3 8 4 20
3 8 22 10
3 10 22 23
3 10 23 11
3 26 25 24
3 24 27 26
3 13 28 14
3 14 28 17
3 17 28 29
3 17 29 19
3 19 29 30
3 19 30 20
3 20 30 31
3 20 31 21
3 25 32 24
3 24 32 27
3 35 34 33
3 33 36 35
3 33 34 37
3 37 34 38
3 36 33 39
3 33 40 39
3 33 37 40
3 40 41 39
3 44 43 42
3 42 45 44
3 37 38 46
3 46 38 47
3 37 48 40
3 37 46 48
3 41 40 49
3 49 40 48
3 43 50 42
3 42 50 45
3 46 47 51
3 51 47 52
3 46 53 48
3 46 51 53
3 49 48 54
3 54 48 53
3 57 56 55
3 59 58 55
3 55 58 57
3 61 60 59
3 59 60 58
3 60 61 52
3 61 51 52
3 61 62 51
3 51 63 53
3 51 62 63
3 54 53 64
3 64 53 63
3 55 56 65
3 65 56 66
3 55 67 59
3 55 65 67
3 59 68 61
3 59 67 68
3 61 69 62
3 61 68 69
3 62 70 63
3 62 69 70
3 64 63 71
3 71 63 70
3 74 73 72
3 72 75 74
3 65 66 76
3 76 66 77
3 65 78 67
3 65 76 78
3 67 79 68
3 67 78 79
3 68 80 69
3 68 79 80
3 69 81 70
3 69 80 81
3 2 82 1
3 82 70 1
3 70 81 1
3 70 82 71
3 2 3 82
3 82 3 83
3 85 84 6
3 6 84 5
3 86 6 7
3 86 85 6
3 9 72 73
3 86 9 73
3 7 9 86
3 88 87 11
3 11 87 9
3 87 75 9
3 75 72 9
3 88 89 87
3 76 77 90
3 90 77 91
3 76 92 78
3 76 90 92
3 78 93 79
3 78 92 93
3 79 94 80
3 79 93 94
3 80 95 81
3 80 94 95
3 96 12 1
3 81 96 1
3 95 96 81
3 98 97 15
3 98 13 97
3 13 98 96
3 83 96 98
3 96 83 12
3 97 12 83
3 83 3 97
3 97 3 15
3 13 12 97
3 99 15 16
3 99 98 15
3 100 16 18
3 100 99 16
3 18 5 84
3 18 84 100
3 21 101 22
3 102 23 22
3 102 22 101
3 88 11 23
3 102 88 23
3 103 88 102
3 89 88 104
3 88 105 104
3 88 103 105
3 25 26 105
3 26 104 105
3 26 106 104
3 26 27 106
3 106 27 107
3 91 108 90
3 110 109 108
3 109 90 108
3 109 92 90
3 92 111 93
3 92 109 111
3 93 112 94
3 93 111 112
3 94 113 95
3 94 112 113
3 95 114 96
3 95 113 114
3 115 28 13
3 96 115 13
3 114 115 96
3 116 29 28
3 116 28 115
3 117 30 29
3 117 29 116
3 118 31 30
3 118 30 117
3 101 21 31
3 118 101 31
3 119 101 118
3 101 120 102
3 101 119 120
3 102 121 103
3 102 120 121
3 103 122 105
3 103 121 122
3 123 32 25
3 105 123 25
3 122 123 105
3 107 27 124
3 27 123 124
3 123 125 124
3 27 32 123
3 125 126 124
3 109 110 127
3 127 110 128
3 109 129 111
3 109 127 129
3 111 130 112
3 111 129 130
3 112 131 113
3 112 130 131
3 113 132 114
3 113 131 132
3 114 133 115
3 114 132 133
3 115 134 116
3 115 133 134
3 116 135 117
3 116 134 135
3 117 136 118
3 117 135 136
3 118 137 119
3 118 136 137
3 119 138 120
3 119 137 138
3 120 139 121
3 120 138 139
3 121 140 122
3 121 139 140
3 122 141 123
3 122 140 141
3 143 125 142
3 125 141 142
3 125 123 141
3 125 143 126
3 128 144 127
3 146 145 144
3 145 127 144
3 145 129 127
3 129 147 130
3 129 145 147
3 130 148 131
3 130 147 148
3 131 149 132
3 131 148 149
3 132 150 133
3 132 149 150
3 133 151 134
3 133 150 151
3 134 152 135
3 134 151 152
3 135 153 136
3 135 152 153
3 136 154 137
3 136 153 154
3 137 155 138
3 137 154 155
3 138 156 139
3 138 155 156
3 158 140 157
3 140 156 157
3 140 139 156
3 140 158 141
3 141 158 159
3 141 159 142
3 146 160 145
3 162 161 160
3 161 145 160
3 161 147 145
3 147 163 148
3 147 161 163
3 148 164 149
3 148 163 164
3 149 165 150
3 149 164 165
3 150 166 151
3 150 165 166
3 151 167 152
3 151 166 167
3 169 153 168
3 153 167 168
3 153 152 167
3 153 169 154
3 154 169 170
3 154 170 155
3 155 170 171
3 155 171 156
3 156 171 172
3 156 172 157
3 162 173 161
3 161 173 163
3 163 173 174
3 163 174 164
3 164 174 175
3 177 176 175
3 176 164 175
3 176 165 164
3 179 166 178
3 166 176 178
3 166 165 176
3 166 179 167
3 167 179 180
3 167 180 168
3 177 181 176
3 176 181 178
3 184 183 182
3 182 185 184
3 186 34 35
3 36 186 35
3 182 183 187
3 187 183 188
3 185 182 189
3 182 190 189
3 182 187 190
3 34 190 38
3 190 34 189
3 186 189 34
3 189 186 191
3 192 191 186
3 39 193 36
3 193 186 36
3 193 192 186
3 41 193 39
3 194 43 44
3 195 194 188
3 44 188 194
3 188 44 187
3 45 187 44
3 187 45 196
3 187 197 190
3 187 196 197
3 197 38 190
3 38 197 47
3 191 192 198
3 199 198 192
3 200 192 193
3 199 192 200
3 49 200 41
3 41 200 193
3 194 50 43
3 201 194 195
3 194 201 50
3 202 50 201
3 50 202 45
3 196 45 202
3 196 203 197
3 196 202 203
3 203 47 197
3 47 203 52
3 198 199 204
3 205 204 199
3 206 199 200
3 205 199 206
3 54 206 49
3 49 206 200
3 207 56 57
3 201 208 202
3 208 57 202
3 57 58 202
3 57 208 207
3 202 58 60
3 202 60 203
3 205 209 204
3 52 203 60
3 211 210 209
3 205 211 209
3 206 211 205
3 64 211 54
3 54 211 206
3 212 66 207
3 207 66 56
3 207 208 213
3 207 213 212
3 216 215 214
3 217 214 215
3 210 211 218
3 210 218 219
3 71 218 64
3 64 218 211
3 220 73 74
3 75 220 74
3 222 221 212
3 221 66 212
3 221 77 66
3 222 212 213
3 216 214 223
3 216 223 224
3 214 217 225
3 214 225 223
3 226 219 218
3 228 226 227
3 227 226 82
3 226 218 82
3 218 71 82
3 83 227 82
3 229 84 85
3 86 230 85
3 85 230 229
3 231 230 86
3 231 86 73
3 232 231 73
3 220 232 73
3 232 220 75
3 87 232 75
3 233 232 87
3 87 89 233
3 233 89 234
3 236 91 235
3 91 221 235
3 91 77 221
3 237 236 235
3 238 224 223
3 238 223 225
3 239 228 227
3 239 227 83
3 98 239 83
3 240 239 98
3 242 240 241
3 240 99 241
3 240 98 99
3 241 99 243
3 99 244 243
3 99 100 244
3 100 84 229
3 245 100 229
3 244 100 245
3 245 229 230
3 245 230 246
3 246 230 231
3 249 248 247
3 250 247 104
3 247 234 104
3 234 89 104
3 234 247 248
3 250 104 251
3 104 252 251
3 104 106 252
3 106 107 252
3 252 107 253
3 236 108 91
3 110 108 236
3 237 110 236
3 254 110 237
3 255 242 241
3 255 241 243
3 258 257 256
3 260 259 256
3 260 256 257
3 262 261 259
3 262 259 260
3 249 247 263
3 262 264 261
3 263 247 250
3 263 250 265
3 265 250 251
3 266 253 107
3 266 107 124
3 124 126 266
3 266 126 267
3 254 128 110
3 268 128 254
3 269 258 256
3 269 256 259
3 269 259 270
3 270 259 261
3 270 261 271
3 271 261 264
3 273 272 143
3 273 143 142
3 126 143 267
3 267 143 272
3 268 274 128
3 128 274 144
3 146 144 274
3 146 274 275
3 277 276 158
3 277 158 157
3 158 278 159
3 276 278 158
3 142 159 273
3 273 159 278
3 275 279 146
3 146 279 160
3 162 160 279
3 162 279 280
3 282 281 169
3 282 169 168
3 169 283 170
3 281 283 169
3 170 284 171
3 283 284 170
3 171 285 172
3 284 285 171
3 157 172 277
3 277 172 285
3 280 286 162
3 162 286 173
3 286 288 287
3 174 286 287
3 173 286 174
3 289 175 174
3 289 174 287
3 289 177 175
3 178 290 179
3 179 290 291
3 292 179 291
3 180 179 292
3 168 180 282
3 282 180 292
3 288 293 287
3 287 293 289
3 289 293 294
3 289 294 177
3 294 181 177
3 294 295 181
3 178 181 290
3 181 296 290
3 181 295 296
3 290 296 291
3 297 183 184
3 185 297 184
3 298 188 297
3 297 188 183
3 189 299 185
3 299 297 185
3 299 298 297
3 191 299 189
3 300 195 298
3 298 195 188
3 301 298 299
3 300 298 301
3 198 301 191
3 191 301 299
3 302 201 300
3 300 201 195
3 303 300 301
3 302 300 303
3 204 303 198
3 198 303 301
3 304 208 302
3 302 208 201
3 305 302 303
3 304 302 305
3 209 306 204
3 306 303 204
3 306 305 303
3 210 306 209
3 307 213 304
3 304 213 208
3 216 307 215
3 307 305 215
3 307 304 305
3 215 305 217
3 305 308 217
3 305 306 308
3 219 308 210
3 210 308 306
3 309 221 222
3 213 307 222
3 307 309 222
3 307 310 309
3 224 310 216
3 216 310 307
3 311 225 308
3 308 225 217
3 226 312 219
3 312 308 219
3 312 311 308
3 228 312 226
3 313 231 232
3 233 314 232
3 232 314 313
3 234 314 233
3 309 235 221
3 235 309 237
3 309 315 237
3 309 310 315
3 238 316 224
3 316 310 224
3 316 315 310
3 225 311 238
3 311 316 238
3 311 317 316
3 318 311 312
3 317 311 318
3 239 319 228
3 319 312 228
3 319 318 312
3 240 320 239
3 239 320 319
3 242 320 240
3 321 243 244
3 245 322 244
3 244 322 321
3 246 323 245
3 245 323 322
3 231 313 246
3 313 323 246
3 313 324 323
3 249 324 248
3 324 314 248
3 324 313 314
3 248 314 234
3 326 325 252
3 252 325 251
3 328 327 253
3 327 252 253
3 327 326 252
3 328 329 327
3 331 330 315
3 330 237 315
3 330 254 237
3 333 332 331
3 315 333 331
3 316 333 315
3 334 316 317
3 333 316 334
3 335 317 318
3 334 317 335
3 336 318 319
3 335 318 336
3 337 319 320
3 336 319 337
3 255 338 242
3 338 320 242
3 338 337 320
3 243 321 255
3 321 338 255
3 321 339 338
3 258 339 257
3 339 322 257
3 339 321 322
3 257 322 260
3 260 322 323
3 260 323 262
3 262 323 324
3 264 262 340
3 262 324 340
3 249 263 340
3 249 340 324
3 340 263 341
3 263 342 341
3 263 265 342
3 265 251 325
3 265 325 342
3 328 253 266
3 345 344 343
3 344 345 267
3 345 329 267
3 328 266 267
3 328 267 329
3 347 268 346
3 268 330 346
3 268 254 330
3 332 333 348
3 346 349 347
3 351 350 348
3 333 351 348
3 334 351 333
3 352 334 335
3 351 334 352
3 353 335 336
3 352 335 353
3 354 336 337
3 353 336 354
3 355 337 338
3 354 337 355
3 356 338 339
3 355 338 356
3 269 357 258
3 357 339 258
3 357 356 339
3 270 358 269
3 269 358 357
3 271 359 270
3 270 359 358
3 360 359 271
3 360 271 264
3 361 360 264
3 340 361 264
3 361 340 341
3 364 363 362
3 362 363 343
3 362 343 344
3 273 362 344
3 272 273 344
3 272 344 267
3 347 274 268
3 275 274 347
3 349 275 347
3 365 275 349
3 366 350 351
3 368 367 366
3 351 368 366
3 352 368 351
3 369 352 353
3 368 352 369
3 370 353 354
3 369 353 370
3 371 354 355
3 370 354 371
3 356 373 372
3 371 356 372
3 355 356 371
3 373 356 357
3 373 357 374
3 374 357 358
3 374 358 375
3 375 358 359
3 375 359 376
3 376 359 360
3 378 377 276
3 378 276 277
3 362 278 364
3 278 377 364
3 278 276 377
3 278 362 273
3 365 379 275
3 275 379 279
3 280 279 379
3 280 379 380
3 381 367 368
3 381 368 369
3 381 369 382
3 382 369 370
3 382 370 383
3 383 370 371
3 383 371 384
3 384 371 372
3 386 385 281
3 386 281 282
3 281 387 283
3 385 387 281
3 283 388 284
3 387 388 283
3 284 389 285
3 388 389 284
3 277 285 378
3 378 285 389
3 380 390 280
3 280 390 286
3 288 286 390
3 288 390 391
3 393 392 292
3 393 292 291
3 282 292 386
3 386 292 392
3 391 394 288
3 288 394 293
3 293 395 294
3 394 395 293
3 294 396 295
3 395 396 294
3 295 397 296
3 396 397 295
3 291 296 393
3 393 296 397
3 399 398 326
3 326 398 325
3 401 399 400
3 399 327 400
3 399 326 327
3 329 400 327
3 402 330 331
3 332 402 331
3 404 403 342
3 342 403 341
3 342 325 398
3 342 398 404
3 401 400 345
3 343 401 345
3 405 401 343
3 345 400 329
3 402 346 330
3 349 346 406
3 346 402 406
3 332 348 406
3 332 406 402
3 350 406 348
3 408 407 361
3 361 407 360
3 361 341 403
3 361 403 408
3 410 409 363
3 410 363 364
3 343 363 405
3 405 363 409
3 411 365 406
3 406 365 349
3 411 406 350
3 412 411 350
3 366 412 350
3 413 411 412
3 366 367 412
3 412 367 414
3 416 415 373
3 373 415 372
3 417 373 374
3 417 416 373
3 418 374 375
3 418 417 374
3 419 375 376
3 419 418 375
3 376 360 407
3 376 407 419
3 421 420 377
3 421 377 378
3 364 377 410
3 410 377 420
3 411 379 365
3 423 422 380
3 423 380 379
3 413 423 379
3 411 413 379
3 425 424 381
3 424 426 381
3 422 381 426
3 381 422 367
3 423 367 422
3 367 423 424
3 424 414 367
3 425 414 424
3 424 423 426
3 428 425 427
3 425 382 427
3 425 381 382
3 383 429 382
3 382 429 427
3 384 430 383
3 383 430 429
3 431 430 384
3 372 431 384
3 415 431 372
3 386 432 385
3 385 432 433
3 434 385 433
3 387 385 434
3 387 435 388
3 434 435 387
3 388 436 389
3 435 436 388
3 378 389 421
3 421 389 436
3 422 390 380
3 391 390 422
3 426 391 422
3 437 391 426
3 438 428 427
3 438 427 429
3 438 429 439
3 439 429 430
3 439 430 440
3 442 441 393
3 441 440 393
3 430 393 440
3 393 430 392
3 431 392 430
3 392 431 441
3 441 443 392
3 442 443 441
3 441 431 440
3 386 392 432
3 392 444 432
3 392 443 444
3 432 444 433
3 437 445 391
3 391 445 394
3 394 446 395
3 445 446 394
3 395 447 396
3 446 447 395
3 396 448 397
3 447 448 396
3 393 397 442
3 442 397 448
3 449 398 399
3 401 449 399
3 451 450 404
3 404 450 403
3 451 404 398
3 452 451 398
3 449 452 398
3 451 452 453
3 405 452 401
3 401 452 449
3 455 454 408
3 408 454 407
3 408 403 450
3 408 450 455
3 453 452 409
3 410 453 409
3 456 453 410
3 409 452 405
3 457 413 412
3 414 457 412
3 458 415 416
3 458 416 459
3 416 460 459
3 416 417 460
3 461 417 418
3 461 460 417
3 462 418 419
3 462 461 418
3 454 463 407
3 463 464 407
3 465 407 464
3 407 465 419
3 466 419 465
3 419 466 463
3 463 462 419
3 454 462 463
3 463 466 464
3 420 421 465
3 464 420 465
3 467 420 464
3 410 420 456
3 456 420 467
3 457 423 413
3 426 423 468
3 423 457 468
3 414 425 468
3 414 468 457
3 428 468 425
3 469 431 458
3 458 431 415
3 458 459 470
3 458 470 469
3 433 471 434
3 434 471 472
3 473 434 472
3 435 434 473
3 465 436 466
3 436 473 466
3 436 435 473
3 436 465 421
3 474 437 468
3 468 437 426
3 438 475 428
3 475 468 428
3 475 474 468
3 439 476 438
3 438 476 475
3 440 477 439
3 439 477 476
3 440 431 477
3 431 469 477
3 443 442 477
3 443 477 469
3 470 478 469
3 478 443 469
3 478 444 443
3 433 444 471
3 444 479 471
3 444 478 479
3 471 479 472
3 474 445 437
3 445 474 446
3 446 474 475
3 446 475 447
3 447 475 476
3 447 476 448
3 448 476 477
3 448 477 442
3 480 450 451
3 453 480 451
3 481 454 455
3 450 480 455
3 480 481 455
3 480 482 481
3 456 482 453
3 453 482 480
3 483 459 460
3 461 484 460
3 460 484 483
3 462 485 461
3 461 485 484
3 462 454 485
3 454 481 485
3 464 466 485
3 464 485 481
3 464 481 467
3 467 481 482
3 467 482 456
3 486 470 483
3 483 470 459
3 487 483 484
3 486 483 487
3 472 487 473
3 487 485 473
3 487 484 485
3 473 485 466
3 486 478 470
3 478 486 479
3 479 486 487
3 479 487 472
