ply
format ascii 1.0
comment None
element vertex 513
property float x
property float y
property float z
element face 1066
property list uchar int vertex_indices
end_header
19.678 80.554 30.682
19.935 80.352 29.866
20.076 79.964 30.388
20.063 80.149 30.968
19.784 80.680 31.291
20.174 80.436 31.452
19.502 81.132 30.441
19.735 81.321 29.764
19.559 81.152 31.117
20.093 80.710 31.653
19.883 81.141 31.632
20.405 80.907 31.848
19.473 81.719 30.325
19.699 82.070 29.947
19.503 81.731 30.907
19.787 81.722 31.519
20.306 81.719 31.962
19.630 82.303 30.570
19.835 82.343 31.268
20.249 82.283 31.819
20.617 79.376 29.884
20.979 78.887 29.259
21.513 78.517 29.817
21.287 79.103 30.433
20.564 79.625 29.157
21.089 79.774 28.569
21.114 78.993 28.819
20.747 79.549 30.656
20.658 79.837 31.266
20.391 80.408 31.626
21.104 79.868 31.660
20.352 80.662 29.062
21.211 81.014 28.319
20.382 80.796 31.618
20.595 80.517 31.444
20.842 81.026 31.309
20.350 80.614 31.686
20.717 80.339 31.646
20.472 80.901 31.791
20.292 81.985 29.165
21.247 82.512 28.350
20.788 81.343 31.645
20.679 81.393 31.936
20.732 81.732 32.092
20.544 83.235 29.117
21.123 83.631 28.608
20.023 82.925 30.004
19.973 82.922 30.860
20.448 83.068 31.580
21.219 82.618 32.345
20.760 84.189 29.155
21.429 84.467 28.665
20.379 83.833 29.745
20.394 83.858 30.695
20.773 83.891 31.530
21.112 83.548 32.047
20.951 84.861 29.244
20.636 84.645 29.877
20.947 85.264 29.652
20.707 84.761 30.603
20.816 84.483 31.175
20.874 85.234 30.211
22.075 77.710 29.158
22.006 77.951 28.854
22.342 77.581 29.097
22.600 77.444 29.673
22.001 77.897 29.522
22.418 78.075 30.246
21.579 78.288 29.052
21.801 78.756 28.578
22.158 78.563 30.732
21.361 79.214 30.908
21.992 78.958 31.322
21.396 79.384 31.409
22.132 79.170 31.727
21.980 79.873 28.099
21.986 79.908 30.222
21.328 79.640 30.650
21.776 79.236 30.583
21.355 79.415 30.869
22.071 79.170 31.267
21.205 79.898 31.182
21.414 79.699 31.552
22.197 79.289 31.800
22.020 80.739 27.819
22.555 80.975 27.639
22.456 80.321 27.728
21.379 80.626 30.745
22.236 80.803 30.011
21.944 81.597 27.843
22.672 81.849 27.662
21.872 81.479 30.300
22.514 81.774 29.826
21.443 81.812 31.003
21.330 82.105 31.966
22.058 82.441 27.859
21.983 83.426 28.123
22.040 82.342 30.208
22.668 82.921 29.750
21.888 82.728 30.639
21.876 82.732 31.363
22.211 82.800 32.264
22.007 82.566 32.677
22.028 82.679 32.885
22.544 82.799 33.128
22.080 84.276 28.311
22.197 83.140 30.191
21.318 84.435 31.838
21.939 83.805 32.532
22.285 83.079 32.976
21.364 85.320 29.150
22.149 85.055 28.585
21.150 85.302 31.008
21.639 85.250 31.841
22.000 84.762 32.301
21.807 85.950 29.147
22.587 86.000 28.756
21.286 85.850 29.996
21.356 86.006 30.777
21.640 86.059 31.489
22.255 85.649 32.345
22.051 86.501 29.162
21.732 86.572 29.678
21.998 86.856 29.445
21.609 86.614 30.642
21.808 86.842 31.531
22.052 86.541 32.131
22.063 87.290 30.052
21.895 87.317 31.115
22.890 77.121 29.754
22.857 77.166 29.632
22.977 77.114 29.788
23.020 77.334 30.073
22.395 78.000 28.859
22.686 77.456 29.335
23.063 77.809 30.675
22.804 78.198 30.835
23.282 78.190 31.375
22.720 79.024 28.518
22.446 78.612 30.616
22.795 78.295 30.316
22.673 79.230 29.857
22.731 78.323 30.765
23.136 78.155 30.843
22.934 78.550 31.249
23.662 78.416 31.743
23.036 78.639 31.704
23.137 78.987 32.162
22.671 79.826 27.906
22.936 80.369 27.708
23.080 79.833 27.981
22.703 80.184 29.742
23.362 78.907 32.108
23.129 81.076 27.674
23.145 81.006 29.604
23.258 81.737 27.721
23.351 82.094 29.573
22.513 82.674 27.772
23.043 82.417 27.755
23.262 82.937 29.500
22.185 83.420 30.737
22.459 83.487 31.673
22.966 83.368 32.712
22.682 82.840 32.974
22.945 82.926 33.289
22.751 83.102 27.887
22.871 83.922 28.197
22.526 84.009 30.079
23.168 83.884 29.549
22.508 84.168 30.900
22.729 84.129 31.650
22.923 83.869 32.245
22.729 83.751 33.001
23.131 83.366 33.371
23.127 85.026 28.425
22.791 85.048 29.756
23.268 85.185 29.537
22.658 84.964 30.402
22.819 84.733 31.316
23.254 84.162 33.083
22.918 84.769 32.654
23.437 85.721 28.542
22.866 85.798 29.660
22.877 86.144 29.848
22.790 85.759 30.050
22.958 85.524 30.950
23.103 85.628 32.791
22.628 86.554 32.883
23.218 86.053 33.392
22.415 86.829 29.193
23.309 86.578 28.807
23.144 86.283 30.438
22.210 87.483 32.199
22.679 87.477 33.185
23.138 86.956 33.668
22.795 87.454 29.408
22.490 88.152 30.169
23.201 88.266 29.635
22.210 88.114 31.177
22.390 88.419 32.210
22.627 88.238 33.009
23.067 87.927 33.720
22.717 88.712 30.229
22.524 88.798 30.799
22.749 89.060 30.550
22.589 88.959 31.723
22.780 88.959 32.715
23.077 88.728 33.521
23.058 89.463 31.079
23.188 89.563 32.229
23.306 89.297 33.180
23.007 77.414 29.829
22.825 77.941 29.284
23.050 77.930 30.072
23.375 77.858 30.855
23.696 78.193 31.652
23.903 78.274 31.835
23.571 78.385 31.829
24.009 78.638 32.346
22.910 78.539 29.449
24.188 78.567 32.334
23.925 78.908 32.562
23.911 79.004 32.629
24.389 79.056 32.958
23.386 80.449 27.907
23.365 79.844 28.325
23.182 79.420 28.966
23.482 80.285 29.323
24.218 78.819 32.586
24.313 79.029 32.864
23.579 81.257 27.930
23.748 80.678 28.322
23.849 80.890 29.549
23.917 81.414 29.685
24.338 81.216 29.809
23.550 82.166 27.976
23.921 81.706 28.416
24.097 81.993 29.687
24.735 81.755 30.180
23.255 82.941 27.983
23.852 83.066 28.452
24.509 82.231 29.732
24.019 82.780 29.483
23.257 83.207 33.314
23.688 84.244 28.406
24.050 83.898 29.436
23.073 84.402 32.319
23.402 84.189 32.894
23.708 83.762 33.376
23.842 83.726 33.710
23.849 84.227 33.759
24.250 84.160 34.016
23.968 85.027 28.504
23.876 84.918 29.606
23.237 85.023 32.065
23.313 84.649 32.678
23.684 84.802 32.853
23.489 85.010 33.211
24.080 85.141 34.056
24.540 84.767 34.308
24.130 85.847 28.579
23.118 86.120 29.779
23.582 85.864 29.755
23.440 85.921 31.952
23.439 85.152 32.599
23.805 85.537 32.852
23.765 86.171 34.029
24.529 85.855 34.520
24.244 86.614 28.686
23.562 86.576 30.186
23.808 87.061 31.058
24.243 87.037 30.621
23.991 87.159 31.893
24.141 86.687 32.582
23.617 87.397 34.181
24.169 86.859 34.459
23.653 87.380 29.015
24.049 87.968 29.167
24.328 87.762 31.169
24.695 88.472 31.667
24.256 87.900 31.696
24.337 87.760 32.436
23.521 88.351 34.073
24.078 87.800 34.394
23.160 89.057 30.226
24.085 88.879 29.671
24.458 88.481 32.256
23.495 88.980 33.793
23.929 88.666 34.086
23.765 89.664 30.444
23.743 90.042 31.051
24.469 90.332 30.715
23.598 90.015 31.651
23.738 89.958 32.177
23.822 89.605 32.759
23.809 89.225 33.551
24.300 90.358 31.361
24.076 90.183 31.855
24.156 78.495 32.277
24.484 78.833 32.793
24.557 79.005 33.004
24.762 79.055 33.154
24.675 79.107 33.153
23.644 80.171 28.727
24.671 79.045 33.086
24.109 81.098 29.027
24.286 81.012 29.573
24.465 81.312 29.485
24.857 81.544 30.195
24.279 82.299 29.132
24.621 82.050 29.604
25.174 81.772 30.629
25.210 81.858 30.688
25.583 82.115 31.027
24.445 83.252 29.195
24.512 82.658 29.462
24.991 83.097 29.767
24.636 82.779 29.775
25.166 82.438 30.425
25.408 82.188 30.788
24.444 84.140 28.755
24.819 83.819 29.332
24.448 83.264 29.532
24.576 83.909 29.763
25.263 83.291 30.371
23.991 84.355 33.347
24.498 84.403 33.967
24.751 85.137 28.675
24.218 85.377 29.944
25.072 84.733 30.433
24.405 85.070 33.493
24.925 84.993 34.054
25.094 84.866 34.351
25.048 84.882 34.516
25.029 85.347 34.701
25.283 85.291 34.724
24.880 85.963 28.638
23.966 86.303 30.096
24.612 86.117 30.410
24.531 86.143 33.316
24.956 85.656 33.912
25.014 85.979 34.762
25.251 85.670 34.794
24.895 86.610 28.662
25.018 86.931 30.833
24.589 87.266 33.195
24.935 86.577 33.840
25.156 86.194 34.711
24.711 86.923 34.571
24.506 87.259 28.818
25.018 87.929 29.042
24.815 87.765 31.107
25.288 88.281 31.424
24.489 88.430 33.152
24.805 87.544 33.832
24.426 88.102 34.266
25.266 89.127 29.495
24.497 89.226 32.407
25.315 89.137 31.772
24.170 89.191 33.185
24.595 88.207 33.923
24.252 88.775 33.771
24.649 89.829 30.077
25.157 90.448 30.368
24.764 89.631 32.096
24.334 89.912 32.173
24.866 90.639 31.041
25.365 90.783 30.704
25.122 90.504 31.328
24.728 90.208 31.728
25.390 90.783 31.014
24.802 79.114 33.229
24.705 81.514 29.840
25.199 82.188 30.391
25.539 82.107 30.909
25.658 82.422 30.932
26.146 82.583 31.458
25.499 82.861 30.508
25.541 82.534 30.740
26.052 83.025 30.988
25.707 82.717 30.964
26.096 82.703 31.384
25.268 84.537 29.028
25.800 84.045 29.608
25.865 83.405 30.394
25.574 82.932 30.722
25.796 83.614 30.873
26.482 83.428 31.472
25.489 85.381 28.825
25.972 84.866 29.162
25.781 84.826 30.933
26.410 84.499 31.277
25.228 85.340 34.345
25.293 85.149 34.578
25.496 86.242 28.724
26.207 85.691 28.966
26.201 85.407 31.148
25.494 85.902 30.848
25.193 85.986 34.260
25.308 85.727 34.611
25.206 86.989 28.751
26.046 86.912 28.835
25.672 86.810 31.052
25.066 86.680 34.364
26.137 88.227 29.040
25.502 87.563 31.173
26.147 88.093 31.435
24.782 87.579 34.268
26.401 89.466 29.503
26.352 88.985 31.540
25.607 90.109 29.980
26.021 90.748 30.444
24.971 89.850 31.897
25.797 89.923 31.523
26.110 90.944 30.533
25.898 90.616 31.108
25.922 90.915 30.780
26.203 82.733 31.408
26.531 83.132 31.546
26.739 83.129 31.798
26.708 83.045 31.784
26.750 83.179 31.738
27.203 83.448 31.931
26.573 84.025 30.122
26.782 83.679 30.754
26.983 83.475 31.512
26.611 83.155 31.703
26.969 83.532 31.779
27.269 83.613 31.930
26.786 84.866 29.524
27.356 84.370 30.285
27.531 84.102 31.804
27.093 84.320 31.596
27.145 86.067 29.005
26.275 86.309 31.185
27.031 85.513 31.364
27.007 87.297 28.800
26.140 87.177 31.249
27.047 86.998 31.329
27.202 88.462 29.016
27.219 88.252 31.387
27.177 89.311 29.365
27.102 89.298 31.361
26.454 90.536 30.190
27.160 90.010 29.825
26.854 90.219 31.100
26.632 90.751 30.289
27.241 90.543 30.266
26.351 90.891 30.446
26.393 90.828 30.710
26.988 90.625 30.641
26.625 90.873 30.507
26.556 90.917 30.517
27.071 83.357 31.841
27.558 84.036 31.000
27.695 83.931 31.480
27.493 83.701 31.795
27.640 83.891 31.881
28.015 85.320 29.683
27.971 84.580 30.562
27.938 84.354 31.684
27.861 84.958 31.461
27.955 86.000 28.968
28.301 86.355 28.773
28.382 85.888 29.070
28.005 86.199 31.215
27.741 86.653 28.721
28.194 86.926 28.662
28.126 87.450 31.176
27.760 87.494 28.712
28.397 87.503 28.784
28.114 88.608 31.167
28.012 88.161 28.910
27.972 89.038 29.366
27.892 89.573 31.099
28.222 89.794 30.029
27.660 90.162 30.937
27.724 90.380 30.463
27.042 90.777 30.490
27.928 90.226 30.726
28.069 84.377 31.140
27.943 84.151 31.616
28.380 85.013 30.613
28.237 84.723 31.281
28.662 86.202 28.956
28.725 85.906 29.366
28.763 85.711 30.053
29.127 86.406 30.262
28.572 85.644 30.847
28.703 86.803 28.863
28.955 86.399 29.159
28.811 86.793 30.814
29.345 87.335 30.341
28.911 87.500 29.032
28.911 87.936 30.818
29.466 88.411 30.339
28.673 88.208 29.131
29.163 88.928 29.697
28.782 89.068 30.796
29.298 89.156 30.409
29.236 89.345 30.128
28.603 89.751 30.520
28.277 89.815 30.869
29.129 86.339 29.636
29.216 87.059 29.350
29.390 86.926 29.868
29.288 88.006 29.444
29.524 87.710 29.854
29.671 88.594 29.886
29.735 88.945 29.862
29.687 88.973 30.121
29.680 89.088 29.949
29.849 88.954 29.953
3 2 1 0
3 4 3 0
3 0 3 2
3 4 5 3
3 0 1 6
3 6 1 7
3 0 8 4
3 0 6 8
3 5 4 9
3 4 10 9
3 4 8 10
3 10 11 9
3 6 7 12
3 12 7 13
3 6 14 8
3 6 12 14
3 8 15 10
3 8 14 15
3 11 10 16
3 16 10 15
3 13 17 12
3 12 17 14
3 14 17 18
3 14 18 15
3 15 18 19
3 15 19 16
3 22 21 20
3 20 23 22
3 26 25 24
3 26 24 21
3 21 24 20
3 24 1 20
3 1 2 20
3 27 23 20
3 2 27 20
3 3 27 2
3 29 28 5
3 28 3 5
3 28 27 3
3 29 30 28
3 24 25 31
3 31 25 32
3 31 7 1
3 31 1 24
3 35 34 33
3 37 36 34
3 36 29 34
3 5 34 29
3 34 5 33
3 9 33 5
3 33 9 36
3 36 38 33
3 37 38 36
3 36 9 29
3 38 37 11
3 37 30 11
3 29 9 11
3 29 11 30
3 31 32 39
3 39 32 40
3 39 13 7
3 39 7 31
3 41 35 33
3 41 33 38
3 41 38 42
3 38 11 42
3 11 43 42
3 11 16 43
3 39 40 44
3 44 40 45
3 46 17 13
3 39 46 13
3 44 46 39
3 47 18 17
3 47 17 46
3 48 19 18
3 48 18 47
3 48 49 19
3 49 16 19
3 49 43 16
3 44 45 50
3 50 45 51
3 44 52 46
3 44 50 52
3 46 53 47
3 46 52 53
3 55 48 54
3 48 53 54
3 48 47 53
3 48 55 49
3 51 56 50
3 58 57 56
3 57 50 56
3 57 52 50
3 60 53 59
3 53 57 59
3 53 52 57
3 53 60 54
3 58 61 57
3 57 61 59
3 64 63 62
3 66 65 62
3 62 65 64
3 66 67 65
3 62 63 68
3 68 63 69
3 68 21 22
3 66 68 22
3 62 68 66
3 71 70 23
3 23 70 22
3 70 67 22
3 67 66 22
3 73 72 71
3 71 72 70
3 73 74 72
3 68 69 26
3 69 25 26
3 69 75 25
3 21 68 26
3 78 77 76
3 80 79 78
3 79 71 78
3 23 78 71
3 78 23 77
3 27 77 23
3 77 27 79
3 79 81 77
3 80 81 79
3 79 27 71
3 83 82 80
3 81 80 82
3 71 28 73
3 28 71 27
3 82 83 30
3 83 74 30
3 73 28 30
3 73 30 74
3 86 85 84
3 75 86 84
3 32 75 84
3 25 75 32
3 76 77 87
3 76 87 88
3 35 87 34
3 87 81 34
3 87 77 81
3 34 81 37
3 37 81 82
3 37 82 30
3 84 85 89
3 89 85 90
3 89 40 32
3 89 32 84
3 88 87 91
3 88 91 92
3 41 93 35
3 93 87 35
3 93 91 87
3 42 94 41
3 41 94 93
3 43 94 42
3 90 95 89
3 40 89 95
3 96 40 95
3 45 40 96
3 92 91 97
3 92 97 98
3 93 100 99
3 97 93 99
3 91 93 97
3 100 93 94
3 100 94 101
3 43 49 94
3 49 102 94
3 102 101 94
3 102 49 103
3 103 104 102
3 96 51 45
3 105 51 96
3 106 98 97
3 106 97 99
3 54 107 55
3 107 108 55
3 55 108 49
3 108 109 49
3 109 103 49
3 103 109 104
3 56 51 110
3 51 111 110
3 51 105 111
3 110 58 56
3 59 112 60
3 107 54 60
3 112 107 60
3 113 107 112
3 108 107 114
3 114 107 113
3 110 111 115
3 115 111 116
3 117 61 58
3 110 117 58
3 115 117 110
3 112 59 61
3 117 112 61
3 118 112 117
3 112 119 113
3 112 118 119
3 114 113 120
3 120 113 119
3 116 121 115
3 123 122 121
3 122 115 121
3 122 117 115
3 117 124 118
3 117 122 124
3 126 119 125
3 119 124 125
3 119 118 124
3 119 126 120
3 123 127 122
3 122 127 124
3 124 127 128
3 124 128 125
3 131 130 129
3 129 132 131
3 134 133 64
3 64 133 63
3 65 129 130
3 134 65 130
3 64 65 134
3 136 135 67
3 67 135 65
3 135 132 65
3 132 129 65
3 136 137 135
3 133 69 63
3 138 69 133
3 141 140 139
3 143 142 140
3 142 136 140
3 67 140 136
3 140 67 139
3 70 139 67
3 139 70 142
3 142 144 139
3 143 144 142
3 142 70 136
3 143 145 144
3 137 136 146
3 70 146 136
3 146 70 72
3 72 74 146
3 146 74 147
3 150 149 148
3 138 150 148
3 75 138 148
3 69 138 75
3 141 139 78
3 76 141 78
3 151 141 76
3 78 139 80
3 80 139 144
3 145 152 144
3 152 80 144
3 152 83 80
3 74 83 147
3 147 83 152
3 148 149 86
3 149 85 86
3 149 153 85
3 148 86 75
3 88 151 76
3 88 154 151
3 153 90 85
3 155 90 153
3 92 154 88
3 92 156 154
3 95 90 157
3 90 158 157
3 90 155 158
3 157 96 95
3 98 156 92
3 98 159 156
3 160 99 100
3 101 161 100
3 100 161 160
3 161 101 162
3 101 163 162
3 101 102 163
3 102 104 163
3 163 104 164
3 158 165 157
3 96 157 165
3 166 96 165
3 105 96 166
3 98 106 167
3 168 98 167
3 159 98 168
3 99 160 106
3 160 167 106
3 160 169 167
3 161 171 170
3 169 161 170
3 160 161 169
3 109 108 172
3 161 162 171
3 172 173 109
3 173 104 109
3 173 164 104
3 166 111 105
3 174 111 166
3 168 167 175
3 168 175 176
3 177 167 169
3 175 167 177
3 169 170 178
3 169 178 177
3 180 179 172
3 108 180 172
3 114 180 108
3 172 179 173
3 174 116 111
3 181 116 174
3 182 176 175
3 184 183 182
3 175 184 182
3 177 184 175
3 177 178 185
3 177 185 184
3 120 187 186
3 180 120 186
3 114 120 180
3 187 188 186
3 121 116 189
3 116 190 189
3 116 181 190
3 189 123 121
3 191 183 184
3 126 125 192
3 184 185 191
3 187 120 126
3 192 187 126
3 193 187 192
3 188 187 194
3 194 187 193
3 190 195 189
3 195 197 196
3 195 196 127
3 189 195 127
3 123 189 127
3 198 128 127
3 198 127 196
3 192 125 128
3 198 192 128
3 199 192 198
3 192 200 193
3 192 199 200
3 194 193 201
3 201 193 200
3 197 202 196
3 204 203 202
3 203 196 202
3 203 198 196
3 198 205 199
3 198 203 205
3 199 206 200
3 199 205 206
3 201 200 207
3 207 200 206
3 204 208 203
3 203 208 205
3 205 208 209
3 205 209 206
3 206 209 210
3 206 210 207
3 211 130 131
3 132 211 131
3 212 133 134
3 130 211 134
3 211 212 134
3 211 213 212
3 135 214 132
3 214 211 132
3 214 213 211
3 216 214 215
3 214 135 215
3 137 217 215
3 137 215 135
3 217 218 215
3 219 138 212
3 212 138 133
3 141 219 140
3 219 213 140
3 219 212 213
3 140 213 143
3 143 213 214
3 137 146 217
3 143 214 145
3 216 145 214
3 145 216 220
3 222 221 147
3 147 221 146
3 221 218 146
3 218 217 146
3 222 223 221
3 224 149 150
3 225 224 150
3 225 150 138
3 226 225 138
3 219 226 138
3 219 141 226
3 141 227 226
3 141 151 227
3 220 228 145
3 145 228 152
3 147 152 222
3 152 229 222
3 152 228 229
3 222 229 223
3 230 153 224
3 224 153 149
3 224 225 231
3 224 231 230
3 154 233 232
3 227 154 232
3 151 154 227
3 233 234 232
3 235 155 230
3 230 155 153
3 230 231 236
3 230 236 235
3 156 237 233
3 156 233 154
3 234 233 238
3 238 233 237
3 239 158 235
3 235 158 155
3 235 236 240
3 235 240 239
3 242 241 237
3 156 242 237
3 159 242 156
3 237 241 238
3 243 162 163
3 164 243 163
3 239 165 158
3 166 165 239
3 240 166 239
3 244 166 240
3 168 242 159
3 168 245 242
3 246 170 171
3 247 246 171
3 247 171 162
3 248 247 162
3 243 248 162
3 164 173 243
3 173 249 243
3 249 248 243
3 249 173 250
3 250 251 249
3 244 174 166
3 252 174 244
3 176 245 168
3 176 253 245
3 254 178 246
3 246 178 170
3 256 255 247
3 255 257 247
3 179 247 257
3 247 179 246
3 180 246 179
3 246 180 255
3 255 254 246
3 256 254 255
3 255 180 257
3 250 173 179
3 257 250 179
3 258 250 257
3 251 250 259
3 259 250 258
3 252 181 174
3 260 181 252
3 176 182 261
3 262 176 261
3 253 176 262
3 183 261 182
3 263 185 254
3 254 185 178
3 265 264 256
3 265 257 264
3 257 265 186
3 263 186 265
3 186 263 180
3 264 180 263
3 263 254 264
3 264 254 256
3 257 180 264
3 257 186 188
3 266 257 188
3 258 257 266
3 259 258 267
3 267 258 266
3 260 190 181
3 268 190 260
3 269 262 261
3 271 269 270
3 270 269 191
3 269 261 191
3 261 183 191
3 185 263 191
3 263 270 191
3 263 272 270
3 263 265 273
3 263 273 272
3 194 274 266
3 194 266 188
3 267 266 275
3 275 266 274
3 268 276 190
3 190 276 195
3 197 195 276
3 197 276 277
3 278 271 270
3 280 279 278
3 270 280 278
3 272 280 270
3 272 273 281
3 272 281 280
3 201 282 274
3 201 274 194
3 275 274 283
3 283 274 282
3 202 197 284
3 197 285 284
3 197 277 285
3 284 204 202
3 286 279 280
3 286 280 281
3 207 287 282
3 207 282 201
3 283 282 288
3 288 282 287
3 285 289 284
3 289 291 290
3 289 290 208
3 284 289 208
3 204 284 208
3 292 209 208
3 292 208 290
3 209 292 293
3 294 209 293
3 210 209 294
3 207 210 287
3 210 295 287
3 210 294 295
3 287 295 288
3 291 296 290
3 290 296 292
3 292 296 297
3 292 297 293
3 298 216 215
3 218 298 215
3 299 220 298
3 298 220 216
3 299 298 218
3 300 299 218
3 221 300 218
3 301 299 300
3 221 223 300
3 300 223 302
3 303 225 226
3 227 303 226
3 299 228 220
3 301 304 299
3 304 228 299
3 304 229 228
3 223 229 302
3 302 229 304
3 305 231 303
3 303 231 225
3 305 303 227
3 306 305 227
3 232 306 227
3 307 305 306
3 232 234 306
3 306 234 308
3 309 236 305
3 305 236 231
3 305 307 310
3 305 310 309
3 238 312 311
3 308 238 311
3 234 238 308
3 312 313 311
3 314 240 309
3 309 240 236
3 316 315 310
3 315 317 310
3 241 310 317
3 310 241 309
3 242 309 241
3 309 242 315
3 315 314 309
3 316 314 315
3 315 242 317
3 317 318 241
3 241 318 238
3 318 319 238
3 319 312 238
3 312 319 313
3 321 320 314
3 320 240 314
3 320 244 240
3 245 322 242
3 245 314 322
3 314 245 321
3 323 321 245
3 321 323 316
3 322 316 323
3 323 317 322
3 322 317 242
3 314 316 322
3 318 317 324
3 324 317 323
3 325 247 248
3 249 326 248
3 248 326 325
3 251 326 249
3 320 252 244
3 327 252 320
3 253 328 323
3 253 323 245
3 324 323 329
3 329 323 328
3 330 256 325
3 325 256 247
3 326 332 331
3 330 326 331
3 325 326 330
3 251 259 326
3 259 333 326
3 333 332 326
3 333 259 334
3 334 335 333
3 327 260 252
3 336 260 327
3 262 337 328
3 262 328 253
3 329 328 338
3 338 328 337
3 339 265 330
3 330 265 256
3 330 331 340
3 330 340 339
3 267 341 334
3 267 334 259
3 335 334 342
3 342 334 341
3 336 268 260
3 343 268 336
3 269 337 262
3 269 271 337
3 271 338 337
3 271 344 338
3 345 273 339
3 339 273 265
3 339 340 346
3 339 346 345
3 348 347 341
3 267 348 341
3 275 348 267
3 341 347 342
3 343 349 268
3 268 349 276
3 277 276 349
3 277 349 350
3 351 344 271
3 351 271 278
3 278 279 351
3 351 279 352
3 353 281 345
3 345 281 273
3 345 346 354
3 345 354 353
3 283 348 275
3 283 355 348
3 350 285 277
3 356 285 350
3 279 286 357
3 358 279 357
3 352 279 358
3 281 353 286
3 353 357 286
3 353 359 357
3 353 354 360
3 361 353 360
3 359 353 361
3 360 355 361
3 355 288 361
3 355 283 288
3 356 362 285
3 285 362 289
3 291 289 362
3 291 362 363
3 364 358 357
3 293 365 294
3 365 357 294
3 357 359 294
3 365 364 357
3 294 359 295
3 295 359 361
3 295 361 288
3 296 291 366
3 291 367 366
3 291 363 367
3 296 366 368
3 369 296 368
3 297 296 369
3 293 297 365
3 365 297 369
3 367 370 366
3 366 370 368
3 371 301 300
3 302 371 300
3 371 304 301
3 304 371 302
3 372 307 306
3 308 372 306
3 373 310 372
3 372 310 307
3 373 372 308
3 374 373 308
3 311 374 308
3 375 373 374
3 311 313 374
3 374 313 376
3 377 316 373
3 373 316 310
3 379 378 375
3 378 380 375
3 319 375 380
3 375 319 373
3 318 373 319
3 373 318 378
3 378 377 373
3 379 377 378
3 378 318 380
3 380 381 319
3 381 313 319
3 381 376 313
3 382 320 321
3 383 382 321
3 383 321 316
3 384 383 316
3 377 384 316
3 324 385 318
3 324 377 385
3 377 324 384
3 386 384 324
3 384 386 379
3 385 379 386
3 386 380 385
3 385 380 318
3 377 379 385
3 381 380 387
3 387 380 386
3 388 327 382
3 382 327 320
3 382 383 389
3 382 389 388
3 329 390 386
3 329 386 324
3 387 386 391
3 391 386 390
3 392 331 332
3 333 393 332
3 332 393 392
3 335 393 333
3 394 336 388
3 388 336 327
3 388 389 395
3 388 395 394
3 397 396 390
3 329 397 390
3 338 397 329
3 390 396 391
3 398 340 392
3 392 340 331
3 399 392 393
3 398 392 399
3 342 399 335
3 335 399 393
3 400 343 394
3 394 343 336
3 394 395 401
3 394 401 400
3 344 397 338
3 344 402 397
3 403 346 398
3 398 346 340
3 348 403 347
3 403 399 347
3 403 398 399
3 347 399 342
3 400 349 343
3 350 349 400
3 401 350 400
3 404 350 401
3 405 402 344
3 405 344 351
3 351 352 405
3 405 352 406
3 407 354 403
3 403 354 346
3 355 407 348
3 348 407 403
3 404 356 350
3 408 356 404
3 358 406 352
3 358 409 406
3 407 360 354
3 360 407 355
3 408 410 356
3 356 410 362
3 363 362 410
3 363 410 411
3 358 364 412
3 413 358 412
3 409 358 413
3 365 412 364
3 411 367 363
3 414 367 411
3 413 412 369
3 368 413 369
3 415 413 368
3 369 412 365
3 414 416 367
3 367 416 370
3 368 370 415
3 415 370 416
3 417 375 374
3 376 417 374
3 418 379 417
3 417 379 375
3 381 419 376
3 420 376 419
3 376 420 417
3 421 417 420
3 417 421 418
3 419 422 420
3 423 383 384
3 424 423 384
3 424 384 379
3 425 424 379
3 418 425 379
3 387 426 381
3 387 418 426
3 418 387 425
3 427 425 387
3 425 427 421
3 426 421 427
3 427 419 426
3 426 419 381
3 418 421 426
3 422 419 428
3 428 419 427
3 430 429 423
3 429 383 423
3 429 389 383
3 430 423 424
3 432 431 427
3 387 432 427
3 391 432 387
3 427 431 428
3 429 395 389
3 433 395 429
3 397 434 396
3 434 435 396
3 435 391 396
3 435 432 391
3 433 401 395
3 436 401 433
3 402 437 434
3 402 434 397
3 435 434 438
3 438 434 437
3 436 404 401
3 439 404 436
3 405 437 402
3 405 406 437
3 406 438 437
3 406 440 438
3 439 408 404
3 441 408 439
3 409 440 406
3 409 442 440
3 410 408 443
3 408 444 443
3 408 441 444
3 443 411 410
3 413 442 409
3 413 445 442
3 443 444 446
3 446 444 447
3 411 448 414
3 411 449 448
3 449 411 450
3 443 450 411
3 450 443 451
3 448 451 443
3 443 446 448
3 448 446 414
3 449 451 448
3 450 445 449
3 445 415 449
3 445 413 415
3 447 452 446
3 451 449 452
3 449 416 452
3 414 446 452
3 414 452 416
3 416 449 415
3 453 421 420
3 422 453 420
3 455 454 425
3 425 454 424
3 425 421 453
3 456 425 453
3 455 425 456
3 453 422 456
3 422 457 456
3 422 428 457
3 459 458 430
3 430 458 429
3 430 424 454
3 430 454 459
3 461 460 431
3 461 431 432
3 428 431 457
3 457 431 460
3 464 463 462
3 458 464 462
3 433 458 462
3 429 458 433
3 435 461 432
3 435 465 461
3 462 463 466
3 466 463 467
3 466 436 433
3 466 433 462
3 438 465 435
3 438 468 465
3 466 467 469
3 469 467 470
3 469 439 436
3 469 436 466
3 440 468 438
3 440 471 468
3 470 472 469
3 439 469 472
3 473 439 472
3 441 439 473
3 442 471 440
3 442 474 471
3 473 444 441
3 475 444 473
3 445 474 442
3 445 476 474
3 478 447 477
3 447 475 477
3 447 444 475
3 450 451 478
3 477 450 478
3 479 450 477
3 445 450 476
3 476 450 479
3 478 452 447
3 452 478 451
3 480 454 455
3 456 481 455
3 455 481 480
3 457 481 456
3 482 458 459
3 454 480 459
3 480 482 459
3 480 483 482
3 461 483 460
3 483 481 460
3 483 480 481
3 460 481 457
3 484 463 464
3 485 484 464
3 485 464 458
3 486 485 458
3 482 486 458
3 488 487 486
3 482 488 486
3 483 488 482
3 465 488 461
3 461 488 483
3 490 489 484
3 489 463 484
3 489 467 463
3 490 484 485
3 487 488 491
3 487 491 492
3 468 491 465
3 465 491 488
3 489 470 467
3 493 470 489
3 492 491 494
3 492 494 495
3 471 494 468
3 468 494 491
3 493 496 470
3 470 496 472
3 473 472 496
3 473 496 497
3 495 494 498
3 495 498 499
3 474 498 471
3 471 498 494
3 501 475 500
3 475 497 500
3 475 473 497
3 501 500 499
3 498 501 499
3 502 501 498
3 476 502 474
3 474 502 498
3 501 477 475
3 477 501 479
3 479 501 502
3 479 502 476
3 503 485 486
3 487 503 486
3 504 489 490
3 485 503 490
3 503 504 490
3 503 505 504
3 492 505 487
3 487 505 503
3 506 493 504
3 504 493 489
3 507 504 505
3 506 504 507
3 495 507 492
3 492 507 505
3 506 496 493
3 506 507 508
3 497 506 508
3 509 497 508
3 506 497 496
3 507 495 508
3 495 510 508
3 495 499 510
3 509 511 497
3 497 511 500
3 499 500 510
3 510 500 511
3 512 509 508
3 510 512 508
3 512 511 509
3 511 512 510
