ply
format ascii 1.0
comment None
element vertex 428
property float x
property float y
property float z
element face 876
property list uchar int vertex_indices
end_header
38.436 84.050 40.059
38.549 84.157 39.692
38.623 84.006 39.855
38.501 83.933 40.425
38.638 84.156 40.233
39.144 81.307 44.715
39.134 81.372 44.598
39.213 81.167 44.882
39.378 81.192 45.022
39.087 81.813 44.170
38.985 82.216 43.563
39.189 81.687 44.224
39.367 81.408 44.803
39.552 81.800 44.584
38.745 83.214 42.137
38.816 83.416 41.540
39.085 82.997 42.176
38.932 82.675 42.879
38.916 82.806 43.062
39.218 82.329 43.773
39.137 82.651 43.331
38.979 84.013 37.222
39.188 84.002 36.612
39.319 83.808 36.782
39.041 83.982 37.706
38.900 84.144 38.047
39.069 84.101 38.940
38.759 84.200 39.018
39.077 83.913 40.033
38.830 83.726 40.747
38.650 83.767 41.184
38.812 83.615 42.032
39.041 83.549 42.610
39.359 83.270 43.218
39.131 84.234 37.254
39.188 84.400 38.341
38.972 84.427 39.279
39.175 84.488 39.799
39.116 84.296 41.171
39.183 84.017 42.125
39.409 81.283 44.869
39.429 81.139 45.066
39.607 81.192 45.180
39.373 82.088 43.728
39.797 81.516 44.601
39.325 81.442 44.636
39.711 81.544 44.930
39.960 81.461 45.254
40.110 83.425 35.085
40.509 83.503 34.450
40.636 83.086 34.507
40.481 83.064 35.213
39.307 83.325 41.414
39.803 82.818 42.024
39.458 82.456 43.031
39.079 82.390 43.373
39.425 82.663 43.616
39.950 82.562 44.342
40.529 82.139 45.192
40.022 83.737 35.024
40.403 83.891 34.792
39.948 83.443 36.007
39.623 83.806 35.818
39.715 83.631 36.803
39.512 83.920 37.731
39.334 84.350 38.842
39.686 84.243 38.330
39.490 84.353 39.383
39.705 83.990 39.858
39.543 83.651 40.646
40.054 83.863 43.374
39.542 83.960 42.727
40.087 83.262 43.905
40.038 84.100 35.458
39.574 84.239 36.355
39.753 84.650 37.286
39.721 84.716 38.389
40.308 85.087 37.776
39.367 84.541 38.814
39.832 84.363 38.979
39.639 84.840 39.077
39.355 84.568 39.272
39.652 84.778 39.630
39.611 84.816 40.552
39.794 84.810 41.313
39.988 84.552 42.172
40.548 85.302 38.611
40.385 85.278 39.543
40.278 85.205 40.356
40.175 85.108 41.006
39.901 81.307 45.168
40.542 81.630 43.626
40.845 81.427 44.651
40.711 81.464 45.209
40.710 81.568 45.562
40.798 81.816 45.638
41.302 81.857 45.843
40.881 83.159 34.044
41.296 83.106 33.726
41.296 82.643 33.975
40.943 82.747 34.735
40.996 82.686 35.415
40.145 83.163 41.199
40.597 82.596 41.686
40.462 82.164 42.494
41.692 82.687 45.552
41.195 83.165 44.801
41.430 82.171 45.795
41.034 83.407 33.978
41.123 83.810 34.370
40.532 83.079 35.902
40.340 83.409 36.880
40.124 83.836 37.772
40.692 83.559 37.664
40.036 84.165 39.519
40.447 83.879 39.839
40.408 83.534 40.404
40.201 84.297 42.961
40.662 84.242 43.450
40.842 83.850 43.981
40.815 84.263 35.143
40.447 84.631 36.167
40.569 85.047 37.063
41.364 85.135 36.637
40.394 83.947 38.299
40.728 83.914 38.785
40.655 83.941 39.355
41.106 84.995 42.347
40.507 85.078 41.645
41.048 84.588 43.082
41.230 85.418 37.671
41.501 85.640 38.530
41.304 85.614 39.312
41.155 85.528 40.202
41.011 85.375 41.105
42.027 77.293 31.119
42.262 77.271 30.855
42.228 76.827 31.168
42.135 76.938 31.480
42.007 78.158 31.015
42.435 77.942 30.570
41.953 77.577 31.560
42.219 78.519 30.626
42.251 79.275 31.008
41.806 79.111 31.643
41.796 78.338 31.670
41.752 78.821 32.193
42.360 79.500 42.143
42.427 79.166 41.542
42.450 79.021 41.737
42.543 79.199 42.108
41.892 80.220 32.001
42.384 80.361 31.492
41.712 79.625 32.472
42.095 80.489 35.669
41.933 80.443 34.791
42.222 79.819 35.226
42.304 79.962 36.007
42.225 80.475 36.489
42.320 80.065 36.567
42.237 80.478 40.498
42.356 80.458 39.534
42.318 79.925 39.952
42.404 79.446 41.027
42.177 80.051 41.588
42.072 80.201 42.420
42.527 79.562 42.613
42.300 80.023 42.903
42.606 79.947 43.124
42.180 81.149 32.145
42.790 80.960 31.687
41.671 80.394 32.798
41.762 81.110 32.991
41.654 80.672 33.363
41.838 81.276 35.158
41.754 81.023 34.381
42.018 81.237 36.287
42.304 80.373 37.047
42.223 81.112 37.398
42.364 80.478 37.933
42.301 81.266 38.591
42.375 80.657 38.999
42.258 81.204 39.661
42.086 81.364 40.527
41.922 81.094 41.262
41.745 80.903 42.171
41.722 80.824 43.171
42.414 80.562 43.739
42.546 81.667 32.222
41.976 82.050 32.974
42.623 82.235 32.624
41.677 81.056 33.772
41.667 81.732 34.175
41.702 81.893 34.972
41.641 82.002 34.706
41.576 82.147 35.810
41.635 82.097 35.118
41.899 82.073 37.196
42.117 82.070 38.310
42.141 82.070 39.313
41.958 82.044 40.210
41.759 81.865 40.935
41.297 81.865 41.748
41.159 81.479 42.676
41.728 81.210 44.360
41.475 81.473 45.107
41.563 81.724 45.637
41.805 82.059 45.920
42.170 82.518 32.888
41.845 82.820 33.294
41.441 82.271 34.830
40.969 82.852 36.212
41.255 82.940 37.164
41.701 82.870 38.177
41.829 82.835 39.109
41.775 82.689 39.884
41.206 82.714 40.778
42.020 83.106 45.373
42.446 82.912 45.576
42.154 82.421 45.828
41.713 83.372 33.739
42.046 83.814 34.230
41.104 83.507 38.194
41.311 83.486 38.945
41.186 83.383 39.809
41.295 84.277 43.770
41.808 83.917 44.371
42.425 83.430 45.073
41.745 84.250 34.870
41.524 84.711 35.709
42.272 85.086 36.310
41.258 85.281 41.834
41.803 85.204 42.251
42.104 84.844 42.930
42.039 84.398 43.756
42.169 85.432 37.153
42.185 85.632 38.054
42.170 85.704 38.971
42.061 85.654 39.903
41.953 85.532 40.832
41.898 85.381 41.662
42.525 76.441 31.673
42.557 76.652 31.134
42.880 76.286 31.552
43.019 76.047 32.065
42.826 76.207 32.363
43.147 75.905 32.504
43.128 76.084 32.739
43.358 76.004 32.702
42.716 77.129 30.821
42.351 76.984 32.183
42.893 76.633 32.830
43.360 76.438 32.957
42.910 77.667 30.660
41.978 78.027 32.284
42.564 77.710 33.127
43.189 77.119 33.271
42.441 78.640 30.516
42.810 78.350 30.526
41.970 78.918 33.098
43.283 78.146 33.916
42.515 78.664 34.023
42.888 78.743 34.617
42.496 79.186 34.862
42.859 79.129 35.151
42.470 79.058 41.273
42.408 79.107 40.911
42.449 78.953 41.283
42.537 79.088 41.240
42.514 78.951 41.609
42.709 79.010 30.649
43.019 79.799 31.161
41.728 79.995 33.320
42.045 79.628 34.215
42.577 79.558 35.661
42.451 79.874 36.407
42.372 80.103 36.969
42.522 80.181 37.041
42.338 80.236 39.071
42.349 80.209 38.680
42.321 79.865 39.488
42.365 79.461 40.323
42.676 79.425 41.459
42.534 79.023 41.486
42.634 79.251 41.824
42.764 79.656 42.661
42.883 79.662 42.387
42.880 80.346 43.489
43.415 80.751 31.604
41.752 80.499 33.985
43.025 81.041 36.916
42.823 80.966 37.353
42.797 80.511 36.910
42.584 80.666 37.958
42.406 80.356 38.788
42.606 80.831 38.861
42.422 80.463 39.033
42.425 80.253 39.378
42.593 80.683 39.455
42.983 81.103 40.254
42.765 80.432 40.357
42.927 79.818 42.092
43.067 80.933 40.836
42.861 80.847 44.165
42.523 81.089 44.510
42.915 81.305 44.645
43.259 81.507 32.108
43.242 82.093 32.714
41.645 82.070 34.897
43.022 81.434 37.339
43.167 82.007 37.728
42.907 81.450 37.876
42.888 81.505 38.665
42.977 81.501 39.602
43.238 81.741 40.474
43.239 81.402 40.946
42.374 81.649 45.163
42.224 82.074 45.753
42.787 82.436 45.470
42.356 82.700 32.957
42.862 82.596 33.028
43.180 82.283 38.491
43.243 82.369 39.460
43.339 82.270 40.274
42.962 83.060 45.301
42.367 83.017 33.318
42.520 83.382 33.812
42.708 83.716 34.307
43.121 83.422 44.866
42.728 83.923 44.396
42.458 84.090 34.703
42.533 84.515 35.483
42.930 84.890 36.259
42.960 84.691 42.839
42.518 85.106 42.253
42.902 84.326 43.591
42.787 85.258 36.811
42.859 85.401 37.521
42.867 85.485 38.443
42.815 85.486 39.436
42.744 85.409 40.444
42.677 85.268 41.419
42.967 76.592 31.232
43.381 76.360 31.844
43.343 75.986 32.383
43.289 77.094 31.157
43.735 76.871 31.707
43.843 76.659 32.150
44.017 77.105 32.533
43.642 76.401 32.584
43.298 78.024 30.889
43.766 77.595 31.501
43.738 77.224 33.163
44.145 77.798 32.895
43.120 78.812 30.788
43.671 78.786 31.388
44.014 78.322 33.504
43.820 79.081 34.255
44.232 79.398 33.575
43.282 79.007 34.817
42.457 79.234 40.757
43.762 79.985 31.627
44.048 80.178 34.314
44.241 80.491 33.485
43.603 79.863 35.071
43.066 79.611 35.545
42.760 79.976 36.274
42.343 80.026 39.209
42.447 79.774 40.018
42.675 79.716 40.926
43.101 80.327 42.870
43.821 80.707 31.794
43.638 81.086 31.829
43.857 81.059 32.152
43.996 81.433 34.169
44.033 81.330 33.281
43.816 81.038 35.161
43.273 80.682 36.120
43.211 80.885 41.828
43.445 81.260 43.296
43.221 81.115 44.011
43.543 82.242 33.449
43.750 81.560 32.687
43.736 82.493 34.378
43.850 82.247 35.142
43.668 82.020 36.076
43.332 81.886 37.019
43.537 82.362 41.336
43.694 82.361 42.480
43.677 82.068 43.262
43.555 81.993 44.148
43.154 81.893 44.832
42.939 82.930 33.497
43.225 83.170 34.161
43.586 83.238 35.068
43.708 83.200 36.018
43.621 83.109 37.008
43.441 83.021 38.071
43.450 83.269 39.301
43.550 83.221 40.513
43.726 83.480 41.578
43.770 83.281 42.371
43.767 83.059 43.300
43.705 82.736 44.036
43.385 82.778 44.812
43.053 83.877 34.902
43.338 84.188 35.916
43.577 84.164 36.923
43.556 84.150 37.944
43.503 84.183 39.045
43.521 84.204 40.190
43.601 84.171 41.286
43.693 84.014 42.126
43.524 84.026 42.998
43.440 83.542 44.111
43.249 84.915 36.865
43.344 84.959 37.761
43.320 84.982 38.776
43.280 84.967 39.846
43.271 84.887 40.928
43.277 84.690 42.048
43.999 77.156 32.011
44.114 78.009 32.184
44.145 79.277 32.141
44.281 78.730 32.873
44.101 80.315 32.160
44.309 79.833 32.821
44.149 80.797 32.732
3 2 1 0
3 0 3 2
3 1 4 0
3 0 4 3
3 7 6 5
3 5 8 7
3 11 10 9
3 13 12 9
3 12 5 9
3 6 11 9
3 6 9 5
3 5 12 8
3 16 15 14
3 18 17 14
3 14 17 16
3 20 19 18
3 19 9 18
3 10 17 18
3 10 18 9
3 9 19 13
3 23 22 21
3 25 24 21
3 21 24 23
3 27 26 25
3 25 26 24
3 1 2 27
3 2 26 27
3 2 28 26
3 30 29 3
3 29 2 3
3 29 28 2
3 29 30 15
3 30 14 15
3 30 31 14
3 33 18 32
3 18 31 32
3 18 14 31
3 18 33 20
3 22 34 21
3 21 34 25
3 25 34 35
3 25 35 27
3 27 35 36
3 27 36 1
3 36 4 1
3 36 37 4
3 3 4 30
3 4 38 30
3 4 37 38
3 30 38 31
3 31 38 39
3 31 39 32
3 41 40 7
3 7 40 6
3 7 8 41
3 41 8 42
3 44 43 11
3 11 43 10
3 40 45 6
3 40 12 45
3 12 40 46
3 44 46 40
3 46 44 13
3 45 13 44
3 44 11 45
3 45 11 6
3 12 13 45
3 46 47 12
3 47 8 12
3 47 42 8
3 50 49 48
3 48 51 50
3 53 52 16
3 16 52 15
3 54 16 17
3 54 53 16
3 43 55 10
3 43 19 55
3 19 43 56
3 54 56 43
3 56 54 20
3 55 20 54
3 54 17 55
3 55 17 10
3 19 20 55
3 56 57 19
3 19 57 13
3 57 58 13
3 58 46 13
3 46 58 47
3 48 49 59
3 59 49 60
3 51 48 61
3 48 62 61
3 48 59 62
3 22 23 62
3 23 61 62
3 23 63 61
3 64 23 24
3 64 63 23
3 66 64 65
3 64 26 65
3 64 24 26
3 65 26 67
3 26 68 67
3 26 28 68
3 69 28 29
3 69 68 28
3 29 15 52
3 29 52 69
3 71 70 33
3 71 33 32
3 20 33 56
3 33 72 56
3 33 70 72
3 56 72 57
3 60 73 59
3 59 73 62
3 62 73 74
3 62 74 22
3 74 34 22
3 74 75 34
3 75 77 76
3 35 75 76
3 34 75 35
3 35 78 36
3 35 65 78
3 65 35 66
3 76 66 35
3 66 76 79
3 78 79 76
3 76 80 78
3 78 80 36
3 65 79 78
3 36 81 37
3 81 65 37
3 67 37 65
3 37 67 82
3 79 82 67
3 82 79 81
3 81 80 82
3 36 80 81
3 81 79 65
3 83 38 37
3 83 37 82
3 38 83 84
3 85 38 84
3 39 38 85
3 32 39 71
3 71 39 85
3 77 86 76
3 76 86 80
3 80 86 87
3 80 87 82
3 82 87 88
3 82 88 83
3 83 88 89
3 83 89 84
3 90 40 41
3 42 90 41
3 92 91 44
3 44 91 43
3 44 40 90
3 93 44 90
3 92 44 93
3 42 47 90
3 47 94 90
3 94 93 90
3 94 47 95
3 95 96 94
3 99 98 97
3 49 50 97
3 50 99 97
3 50 100 99
3 50 51 100
3 100 51 101
3 103 102 53
3 53 102 52
3 104 53 54
3 104 103 53
3 54 43 91
3 54 91 104
3 106 105 58
3 106 58 57
3 47 58 95
3 58 107 95
3 58 105 107
3 95 107 96
3 98 108 97
3 49 97 108
3 109 49 108
3 60 49 109
3 110 101 51
3 110 51 61
3 111 61 63
3 111 110 61
3 113 111 112
3 111 64 112
3 111 63 64
3 66 112 64
3 114 67 68
3 114 68 115
3 68 116 115
3 68 69 116
3 69 52 102
3 69 102 116
3 71 117 70
3 70 117 118
3 119 70 118
3 72 70 119
3 57 72 106
3 106 72 119
3 109 120 60
3 60 120 73
3 73 121 74
3 120 121 73
3 121 123 122
3 75 121 122
3 74 121 75
3 112 124 113
3 77 75 122
3 124 112 66
3 79 124 66
3 125 124 79
3 79 67 114
3 126 79 114
3 125 79 126
3 126 114 115
3 128 127 85
3 128 85 84
3 71 85 117
3 85 129 117
3 85 127 129
3 117 129 118
3 123 130 122
3 122 130 77
3 130 86 77
3 130 131 86
3 86 132 87
3 131 132 86
3 87 133 88
3 132 133 87
3 88 134 89
3 133 134 88
3 84 89 128
3 128 89 134
3 137 136 135
3 135 138 137
3 135 136 139
3 139 136 140
3 138 135 141
3 141 135 139
3 140 142 139
3 142 143 139
3 143 144 139
3 145 141 139
3 145 139 144
3 144 146 145
3 149 148 147
3 147 150 149
3 144 143 151
3 151 143 152
3 146 144 153
3 153 144 151
3 156 155 154
3 158 157 154
3 154 157 156
3 158 159 157
3 162 161 160
3 164 163 160
3 160 163 162
3 163 164 148
3 164 147 148
3 164 165 147
3 150 147 166
3 147 167 166
3 147 165 167
3 167 168 166
3 151 152 169
3 169 152 170
3 153 151 171
3 151 172 171
3 151 169 172
3 172 173 171
3 154 155 174
3 174 155 175
3 154 176 158
3 154 174 176
3 159 158 177
3 158 178 177
3 158 176 178
3 180 179 178
3 178 179 177
3 182 181 180
3 180 181 179
3 181 182 161
3 182 160 161
3 182 183 160
3 160 184 164
3 160 183 184
3 164 185 165
3 164 184 185
3 165 186 167
3 165 185 186
3 168 167 187
3 187 167 186
3 170 188 169
3 190 189 188
3 189 169 188
3 189 172 169
3 173 172 191
3 172 192 191
3 172 189 192
3 194 193 192
3 193 174 192
3 175 191 192
3 175 192 174
3 196 195 193
3 195 174 193
3 195 176 174
3 176 197 178
3 176 195 197
3 178 198 180
3 178 197 198
3 180 199 182
3 180 198 199
3 182 200 183
3 182 199 200
3 183 201 184
3 183 200 201
3 184 202 185
3 184 201 202
3 185 203 186
3 185 202 203
3 92 204 91
3 204 186 91
3 186 203 91
3 186 204 187
3 205 92 93
3 205 204 92
3 206 93 94
3 206 205 93
3 94 96 206
3 206 96 207
3 190 208 189
3 209 98 99
3 189 209 99
3 192 189 99
3 208 209 189
3 210 194 192
3 99 210 192
3 100 210 99
3 211 195 101
3 195 210 101
3 210 100 101
3 195 196 210
3 195 212 197
3 195 211 212
3 197 213 198
3 197 212 213
3 198 214 199
3 198 213 214
3 199 215 200
3 199 214 215
3 200 216 201
3 200 215 216
3 216 102 103
3 202 216 103
3 201 216 202
3 202 103 104
3 202 104 203
3 203 104 91
3 106 217 105
3 105 217 218
3 219 105 218
3 107 105 219
3 96 107 207
3 207 107 219
3 209 220 98
3 98 220 108
3 109 108 220
3 109 220 221
3 110 211 101
3 211 110 111
3 211 111 212
3 212 111 113
3 222 212 113
3 213 212 222
3 213 223 214
3 213 222 223
3 214 224 215
3 214 223 224
3 224 115 116
3 216 224 116
3 215 224 216
3 216 116 102
3 118 225 119
3 225 226 119
3 119 226 106
3 226 227 106
3 227 217 106
3 217 227 218
3 221 228 109
3 109 228 120
3 120 229 121
3 228 229 120
3 123 121 229
3 123 229 230
3 124 222 113
3 222 124 125
3 222 125 223
3 223 125 126
3 223 126 224
3 224 126 115
3 128 231 127
3 127 231 232
3 233 127 232
3 129 127 233
3 118 129 225
3 129 234 225
3 129 233 234
3 225 234 226
3 230 235 123
3 123 235 130
3 130 236 131
3 235 236 130
3 131 237 132
3 236 237 131
3 132 238 133
3 237 238 132
3 133 239 134
3 238 239 133
3 128 134 231
3 134 240 231
3 134 239 240
3 231 240 232
3 243 242 241
3 245 244 241
3 241 244 243
3 247 246 245
3 245 246 244
3 247 248 246
3 241 242 137
3 242 136 137
3 242 249 136
3 241 137 138
3 250 241 138
3 245 241 250
3 245 251 247
3 245 250 251
3 248 247 252
3 252 247 251
3 249 140 136
3 253 140 249
3 141 254 250
3 141 250 138
3 250 255 251
3 250 254 255
3 252 251 256
3 256 251 255
3 142 140 257
3 140 258 257
3 140 253 258
3 145 254 141
3 143 142 257
3 254 145 146
3 259 254 146
3 255 254 259
3 256 255 260
3 255 261 260
3 255 259 261
3 263 262 261
3 261 262 260
3 263 264 262
3 267 266 265
3 265 148 267
3 148 149 267
3 269 268 267
3 269 267 149
3 150 269 149
3 258 270 257
3 143 257 270
3 271 143 270
3 152 143 271
3 153 272 259
3 153 259 146
3 259 273 261
3 259 272 273
3 273 155 156
3 263 273 156
3 261 273 263
3 274 264 263
3 156 274 263
3 157 274 156
3 276 275 159
3 275 157 159
3 275 274 157
3 276 277 275
3 280 279 278
3 161 162 278
3 162 280 278
3 162 281 280
3 163 265 266
3 281 163 266
3 162 163 281
3 268 283 282
3 283 265 282
3 163 282 265
3 282 163 284
3 148 284 163
3 284 148 283
3 283 269 284
3 268 269 283
3 283 148 265
3 284 269 150
3 285 284 150
3 166 285 150
3 286 284 285
3 166 168 285
3 285 168 287
3 271 170 152
3 288 170 271
3 171 272 153
3 272 171 173
3 289 272 173
3 273 272 289
3 289 175 155
3 289 155 273
3 276 159 177
3 292 291 290
3 179 276 177
3 276 179 277
3 293 277 179
3 277 293 292
3 291 292 293
3 181 278 179
3 279 179 278
3 179 279 293
3 294 293 279
3 293 294 295
3 297 296 294
3 297 278 296
3 278 297 161
3 298 161 297
3 161 298 181
3 296 181 298
3 298 295 296
3 296 295 294
3 278 181 296
3 300 299 298
3 300 298 297
3 282 284 301
3 300 302 299
3 301 284 286
3 187 304 303
3 287 187 303
3 168 187 287
3 304 305 303
3 288 306 170
3 170 306 188
3 190 188 306
3 190 306 307
3 191 289 173
3 175 289 191
3 193 194 308
3 308 196 193
3 309 290 291
3 311 310 309
3 291 311 309
3 293 311 291
3 312 293 295
3 311 293 312
3 313 295 298
3 312 295 313
3 299 315 314
3 313 299 314
3 298 299 313
3 315 299 302
3 204 304 187
3 316 305 304
3 204 316 304
3 205 316 204
3 318 316 317
3 316 206 317
3 316 205 206
3 207 317 206
3 208 190 319
3 190 320 319
3 190 307 320
3 319 209 208
3 210 308 194
3 308 210 196
3 321 310 311
3 321 311 312
3 321 312 322
3 322 312 313
3 322 313 323
3 323 313 314
3 318 317 219
3 218 318 219
3 324 318 218
3 219 317 207
3 320 325 319
3 319 325 209
3 325 220 209
3 325 326 220
3 221 220 326
3 221 326 327
3 329 328 227
3 329 227 226
3 218 227 324
3 324 227 328
3 327 330 221
3 221 330 228
3 228 331 229
3 330 331 228
3 230 229 331
3 230 331 332
3 334 333 233
3 334 233 232
3 233 335 234
3 333 335 233
3 226 234 329
3 329 234 335
3 332 336 230
3 230 336 235
3 235 337 236
3 336 337 235
3 236 338 237
3 337 338 236
3 237 339 238
3 338 339 237
3 238 340 239
3 339 340 238
3 239 341 240
3 340 341 239
3 232 240 334
3 334 240 341
3 342 242 243
3 244 343 243
3 243 343 342
3 246 344 244
3 244 344 343
3 248 344 246
3 345 249 342
3 342 249 242
3 343 347 346
3 345 343 346
3 342 343 345
3 349 348 347
3 343 349 347
3 344 349 343
3 252 349 248
3 248 349 344
3 350 253 345
3 345 253 249
3 345 346 351
3 345 351 350
3 348 349 352
3 348 352 353
3 256 352 252
3 252 352 349
3 354 258 350
3 350 258 253
3 350 351 355
3 350 355 354
3 356 353 352
3 358 356 357
3 357 356 260
3 356 352 260
3 352 256 260
3 262 359 260
3 260 359 357
3 264 359 262
3 360 266 267
3 268 360 267
3 354 270 258
3 271 270 354
3 355 271 354
3 361 271 355
3 358 357 362
3 358 362 363
3 364 357 359
3 362 357 364
3 274 365 264
3 365 359 264
3 365 364 359
3 275 366 274
3 274 366 365
3 277 366 275
3 367 279 280
3 281 368 280
3 280 368 367
3 266 360 281
3 360 368 281
3 360 369 368
3 282 369 268
3 268 369 360
3 370 286 285
3 287 370 285
3 372 288 371
3 288 361 371
3 288 271 361
3 373 372 371
3 363 362 374
3 363 374 375
3 376 362 364
3 374 362 376
3 377 364 365
3 376 364 377
3 290 377 292
3 377 366 292
3 377 365 366
3 292 366 277
3 367 294 279
3 294 367 297
3 297 367 368
3 297 368 300
3 300 368 369
3 302 300 378
3 300 369 378
3 282 301 378
3 282 378 369
3 286 370 301
3 370 378 301
3 370 379 378
3 303 380 287
3 380 370 287
3 380 379 370
3 305 380 303
3 372 306 288
3 382 381 307
3 382 307 306
3 373 382 306
3 372 373 306
3 381 382 375
3 374 381 375
3 383 381 374
3 384 374 376
3 383 374 384
3 385 376 377
3 384 376 385
3 309 386 290
3 386 377 290
3 386 385 377
3 310 386 309
3 387 314 315
3 302 378 315
3 378 387 315
3 378 388 387
3 389 378 379
3 388 378 389
3 390 379 380
3 389 379 390
3 316 391 305
3 391 380 305
3 391 390 380
3 318 391 316
3 392 320 381
3 381 320 307
3 393 381 383
3 392 381 393
3 394 383 384
3 393 383 394
3 395 384 385
3 394 384 395
3 396 385 386
3 395 385 396
3 321 397 310
3 397 386 310
3 397 396 386
3 322 398 321
3 321 398 397
3 323 399 322
3 322 399 398
3 314 387 323
3 387 399 323
3 387 400 399
3 401 387 388
3 400 387 401
3 402 388 389
3 401 388 402
3 403 389 390
3 402 389 403
3 404 390 391
3 403 390 404
3 324 404 318
3 318 404 391
3 392 325 320
3 325 392 326
3 326 392 393
3 326 393 327
3 393 405 327
3 393 394 405
3 406 394 395
3 405 394 406
3 407 395 396
3 406 395 407
3 408 396 397
3 407 396 408
3 409 397 398
3 408 397 409
3 410 398 399
3 409 398 410
3 411 399 400
3 410 399 411
3 412 400 401
3 411 400 412
3 413 401 402
3 412 401 413
3 414 402 403
3 413 402 414
3 329 414 328
3 414 404 328
3 414 403 404
3 328 404 324
3 405 330 327
3 330 405 331
3 331 405 406
3 331 406 332
3 406 415 332
3 406 407 415
3 416 407 408
3 415 407 416
3 417 408 409
3 416 408 417
3 418 409 410
3 417 409 418
3 419 410 411
3 418 410 419
3 420 411 412
3 419 411 420
3 334 420 333
3 420 413 333
3 420 412 413
3 333 413 335
3 335 413 414
3 335 414 329
3 415 336 332
3 336 415 337
3 337 415 416
3 337 416 338
3 338 416 417
3 338 417 339
3 339 417 418
3 339 418 340
3 340 418 419
3 340 419 341
3 341 419 420
3 341 420 334
3 421 346 347
3 348 421 347
3 422 351 421
3 421 351 346
3 353 422 348
3 348 422 421
3 423 355 422
3 422 355 351
3 356 424 353
3 424 422 353
3 424 423 422
3 358 424 356
3 425 361 423
3 423 361 355
3 426 423 424
3 425 423 426
3 363 426 358
3 358 426 424
3 425 371 361
3 371 425 373
3 425 427 373
3 425 426 427
3 375 427 363
3 363 427 426
3 427 382 373
3 382 427 375
