ply
format ascii 1.0
comment None
element vertex 82
property float x
property float y
property float z
element face 140
property list uchar int vertex_indices
end_header
43.000 47.500 50.000
43.000 47.500 50.000
43.000 47.500 50.000
43.000 47.500 50.000
43.000 47.500 50.000
43.000 47.500 50.000
43.000 47.500 50.000
43.000 47.500 50.000
43.000 55.000 51.000
43.000 55.000 51.000
43.000 55.000 51.000
43.000 55.000 51.000
43.000 55.000 51.000
43.000 55.000 51.000
43.000 55.000 51.000
43.000 55.000 51.000
43.000 55.000 51.000
43.000 55.000 51.000
43.000 55.000 51.000
42.995 62.420 52.112
42.995 62.445 52.104
42.995 62.245 52.170
42.995 62.445 52.104
42.997 62.918 51.946
42.998 63.025 51.911
42.997 62.918 51.946
43.001 63.780 51.660
43.002 64.030 51.577
43.000 63.533 51.742
43.004 64.703 51.353
43.005 65.003 51.253
43.004 64.778 51.328
43.003 64.332 51.476
43.005 64.873 51.297
43.005 65.025 51.246
43.000 47.500 50.000
43.000 47.500 50.000
44.000 50.000 50.000
44.000 50.000 50.000
44.000 50.000 50.000
44.000 50.000 50.000
44.000 50.000 50.000
43.000 55.000 51.000
43.000 55.000 51.000
43.000 55.000 51.000
42.996 62.470 52.095
42.998 63.025 51.911
43.001 63.780 51.660
43.004 64.703 51.353
44.000 75.517 44.483
44.000 75.517 44.483
44.000 75.517 44.483
44.000 75.517 44.483
44.000 75.517 44.483
44.000 75.517 44.483
44.000 75.517 44.483
44.000 75.517 44.483
44.000 75.517 44.483
44.000 75.517 44.483
44.005 78.851 35.610
44.007 78.769 35.507
44.007 78.767 35.504
44.005 78.844 35.600
44.005 78.860 35.621
44.006 78.812 35.561
44.002 78.977 35.767
43.998 79.101 35.921
43.997 79.151 35.983
44.003 78.934 35.713
43.999 79.092 35.911
43.993 79.287 36.154
43.992 79.353 36.236
43.993 79.303 36.173
43.990 79.395 36.289
43.990 79.392 36.284
44.000 50.000 50.000
44.000 75.517 44.483
44.000 75.517 44.483
44.006 78.806 35.553
44.004 78.903 35.674
44.001 78.999 35.794
43.994 79.274 36.137
3 2 1 0
3 0 3 2
3 0 1 4
3 4 1 5
3 3 0 6
3 6 0 4
3 5 7 4
3 4 7 6
3 10 9 8
3 8 11 10
3 8 9 12
3 12 9 13
3 11 8 14
3 14 8 12
3 12 13 15
3 15 13 16
3 14 12 17
3 17 12 15
3 16 18 15
3 15 18 17
3 21 20 19
3 19 22 21
3 19 20 23
3 23 20 24
3 22 19 25
3 25 19 23
3 23 24 26
3 26 24 27
3 25 23 28
3 28 23 26
3 31 30 29
3 33 32 29
3 32 26 29
3 27 31 29
3 27 29 26
3 26 32 28
3 30 34 29
3 29 34 33
3 35 1 2
3 3 35 2
3 36 5 35
3 35 5 1
3 6 36 3
3 3 36 35
3 36 7 5
3 7 36 6
3 39 38 37
3 37 40 39
3 38 41 37
3 37 41 40
3 42 9 10
3 11 42 10
3 43 13 42
3 42 13 9
3 14 43 11
3 11 43 42
3 44 16 43
3 43 16 13
3 17 44 14
3 14 44 43
3 44 18 16
3 18 44 17
3 45 20 21
3 22 45 21
3 46 24 45
3 45 24 20
3 25 46 22
3 22 46 45
3 47 27 46
3 46 27 24
3 28 47 25
3 25 47 46
3 48 30 31
3 31 27 48
3 27 47 48
3 32 33 48
3 32 48 47
3 32 47 28
3 48 34 30
3 34 48 33
3 51 50 49
3 49 52 51
3 55 54 53
3 57 56 53
3 56 49 53
3 50 55 53
3 50 53 49
3 49 56 52
3 54 58 53
3 53 58 57
3 61 60 59
3 59 62 61
3 59 60 63
3 63 60 64
3 62 59 65
3 59 66 65
3 59 63 66
3 66 67 65
3 64 68 63
3 63 68 66
3 66 68 69
3 69 70 66
3 70 71 66
3 72 67 66
3 72 66 71
3 71 73 72
3 70 74 71
3 71 74 73
3 75 38 39
3 40 75 39
3 75 41 38
3 41 75 40
3 76 50 51
3 52 76 51
3 77 54 55
3 55 50 77
3 50 76 77
3 56 57 77
3 56 77 76
3 56 76 52
3 77 58 54
3 58 77 57
3 78 60 61
3 62 78 61
3 79 64 78
3 78 64 60
3 65 80 62
3 80 78 62
3 80 79 78
3 67 80 65
3 79 68 64
3 68 79 69
3 69 79 80
3 70 69 81
3 69 80 81
3 67 72 81
3 67 81 80
3 73 81 72
3 81 74 70
3 74 81 73
