ply
format ascii 1.0
comment None
element vertex 431
property float x
property float y
property float z
element face 878
property list uchar int vertex_indices
end_header
60.938 85.094 30.225
61.124 85.480 30.048
61.216 84.832 30.105
61.298 84.422 30.480
60.986 85.081 30.454
61.491 84.690 30.868
60.920 85.627 30.313
61.130 85.506 30.601
62.060 82.793 31.577
62.234 82.878 31.179
62.391 82.451 31.719
62.221 82.436 31.896
62.047 82.893 31.692
62.312 82.382 31.975
61.782 83.530 31.137
61.921 83.561 30.637
62.125 83.646 31.410
62.241 82.788 31.808
61.728 84.975 29.877
61.734 84.224 30.165
62.215 84.781 31.139
61.164 86.251 30.246
61.743 86.049 29.864
61.247 86.216 30.604
61.838 85.771 30.930
61.468 86.941 30.237
61.985 87.040 29.939
61.481 87.026 30.666
61.947 86.871 31.036
61.634 87.450 30.269
61.892 87.613 30.196
61.689 87.628 30.635
62.312 87.974 31.342
61.822 87.833 30.466
62.290 88.261 30.900
62.656 82.189 31.779
62.935 82.282 31.174
63.172 81.885 31.366
62.922 81.969 31.745
62.474 82.159 31.985
62.593 82.097 31.996
62.728 82.938 30.629
62.407 82.258 31.960
62.384 82.431 31.928
62.654 82.769 31.684
62.610 82.239 31.917
62.307 83.588 30.272
62.603 84.106 29.846
62.914 83.309 30.162
63.012 84.120 31.284
62.671 85.210 29.544
63.056 85.517 31.140
62.948 86.357 29.500
62.658 86.488 31.183
62.641 87.121 29.743
62.352 87.566 30.029
63.046 87.518 29.864
62.933 87.405 31.492
62.268 87.992 30.410
62.833 87.940 30.216
62.845 88.104 31.792
62.743 88.374 31.850
63.235 88.460 32.105
63.070 88.494 30.767
62.741 88.675 31.119
62.984 88.860 31.558
63.017 88.692 31.965
63.058 88.859 31.224
63.573 81.694 31.159
63.902 81.659 30.602
64.239 81.261 30.510
63.955 81.650 30.901
63.711 82.418 30.568
63.346 82.190 31.415
62.839 82.058 31.865
63.406 82.880 30.305
63.752 83.238 29.793
64.021 82.710 30.320
63.503 83.175 31.245
63.616 84.365 29.341
64.518 84.141 30.791
63.839 83.965 31.081
64.163 83.400 30.884
63.869 85.428 29.130
63.924 84.816 31.039
64.889 85.109 30.816
63.893 86.148 29.204
64.132 85.667 31.054
63.919 86.540 31.292
63.244 87.032 29.590
64.076 86.748 29.387
63.909 87.392 31.701
63.743 87.355 29.695
63.807 87.969 30.150
63.485 87.973 31.951
63.921 88.318 32.286
64.400 88.711 30.792
63.542 89.189 32.190
63.887 88.874 32.440
63.824 89.169 31.424
63.917 89.524 32.092
64.611 89.814 32.015
64.309 89.586 32.623
64.625 89.990 32.507
65.172 77.546 33.246
65.363 77.495 33.055
65.282 77.492 33.134
65.278 77.510 33.162
65.197 77.547 33.228
64.687 80.799 29.910
65.266 80.364 29.242
65.352 79.970 29.431
64.938 80.772 29.893
64.647 81.229 29.818
65.110 81.373 29.354
64.988 81.326 29.964
64.501 81.444 30.392
64.413 82.261 30.009
65.168 82.130 29.412
64.791 81.994 30.199
64.161 81.998 30.740
64.741 82.794 29.360
65.287 83.049 28.836
65.425 82.401 29.176
64.804 83.004 30.355
64.329 82.356 30.470
64.018 82.632 30.791
64.515 83.662 29.101
65.314 83.887 28.645
65.222 84.246 30.535
64.574 84.572 28.878
65.496 84.706 28.596
65.653 84.790 30.576
64.873 85.262 28.809
64.826 86.023 29.036
64.762 85.940 31.015
65.567 85.606 30.873
65.357 86.806 29.366
65.023 86.334 31.172
64.893 86.932 31.601
64.680 87.435 29.731
65.112 88.132 30.260
64.395 87.735 32.076
64.795 88.185 32.587
65.541 88.778 30.839
64.773 89.117 32.875
65.160 89.433 31.481
65.221 90.004 32.058
64.888 89.707 32.960
64.836 89.989 32.839
65.290 89.883 33.002
65.106 90.183 32.411
65.166 90.173 32.764
65.665 77.353 32.717
66.037 77.236 32.225
66.189 77.143 32.052
65.858 77.294 32.574
65.439 77.428 32.994
65.571 77.417 32.907
66.048 77.393 32.388
65.401 77.501 33.040
65.596 77.446 32.882
65.834 79.285 28.981
66.386 78.861 28.621
66.380 78.383 28.965
66.117 78.973 29.371
65.859 79.722 28.732
66.367 79.825 28.418
66.144 79.702 29.503
65.614 80.091 29.503
65.711 80.664 28.789
66.308 81.132 28.325
66.041 80.473 29.551
65.452 80.934 29.663
65.626 81.788 29.039
65.874 82.271 28.607
66.014 81.413 29.625
65.352 81.655 29.736
66.038 83.094 28.434
66.017 82.290 29.604
65.581 81.952 29.471
65.367 82.318 29.702
66.208 83.999 28.412
65.742 82.970 29.940
65.895 83.875 30.289
65.943 84.374 33.674
66.245 84.445 32.878
66.165 84.027 33.369
66.121 83.979 33.803
65.842 84.328 34.106
65.939 84.187 34.212
66.464 84.799 28.544
66.252 84.741 30.659
65.969 85.119 33.417
66.144 85.385 32.666
65.855 84.901 34.005
65.928 84.690 34.268
65.765 85.451 28.758
66.076 86.184 29.098
66.112 85.539 31.031
65.955 86.123 33.155
66.006 86.276 32.481
65.942 85.804 33.791
66.018 85.498 34.158
66.434 86.832 29.501
65.652 86.227 31.247
65.671 86.600 31.653
65.667 87.178 32.801
65.804 86.806 32.352
65.966 86.998 33.515
66.094 86.309 33.963
65.965 87.497 29.887
66.156 88.213 30.483
65.360 87.182 32.154
65.537 88.383 33.121
66.199 87.965 33.430
66.275 86.982 33.792
66.364 88.733 31.068
65.833 89.140 31.212
66.071 89.346 31.605
65.290 89.385 33.081
65.901 89.274 33.067
65.506 90.186 32.318
65.715 89.869 32.018
65.847 90.058 32.397
65.604 90.011 32.884
65.555 90.209 32.614
66.883 77.008 30.375
67.150 76.832 29.640
67.388 76.683 30.092
66.805 76.919 31.130
66.488 77.177 31.483
66.585 77.142 31.835
66.107 77.356 32.444
66.771 77.379 31.929
66.752 77.599 29.521
67.050 77.784 28.806
67.228 77.010 29.179
66.820 77.563 30.570
66.641 78.244 29.878
66.910 77.426 31.434
66.819 77.553 31.816
67.222 77.673 31.400
66.716 77.524 32.014
67.085 78.790 28.402
66.715 79.131 29.827
67.333 77.893 31.526
67.094 80.111 28.159
66.568 79.985 29.674
66.716 80.981 27.987
66.770 81.198 27.900
66.996 80.929 27.965
66.777 80.736 29.794
66.646 81.363 27.999
66.761 81.947 28.209
67.034 81.707 30.004
67.007 83.104 28.331
66.865 82.567 30.025
66.675 83.718 32.881
67.033 83.502 31.955
67.392 83.142 32.259
67.288 83.322 32.956
67.160 84.043 28.439
66.427 83.155 30.020
66.657 83.825 30.391
66.690 84.124 31.907
66.866 84.094 31.149
67.040 83.662 31.392
66.827 83.952 33.612
66.172 84.030 34.074
67.351 84.738 28.661
66.748 84.252 30.764
66.495 84.911 31.300
66.388 84.871 32.104
66.229 84.430 34.169
66.766 84.961 33.869
66.985 85.482 28.982
67.029 86.302 29.470
66.108 85.934 31.466
66.240 85.641 31.956
66.286 85.261 34.180
66.756 86.004 33.809
67.100 86.817 29.787
65.940 86.441 31.981
66.342 86.220 34.022
66.680 87.215 33.529
66.802 87.210 29.901
66.688 88.238 30.739
66.867 87.669 30.466
67.001 88.148 31.167
66.579 88.482 33.063
66.284 89.545 32.244
66.713 88.844 31.734
66.382 89.301 32.743
66.800 88.764 32.449
65.978 89.861 32.696
67.499 76.670 29.396
67.673 77.009 29.003
67.929 76.719 29.474
67.921 76.761 30.057
67.389 76.938 30.863
67.170 77.348 31.462
67.637 77.394 31.012
67.909 77.829 28.660
67.053 78.317 30.400
67.244 77.724 31.025
68.064 77.937 31.043
67.464 77.580 31.292
67.393 77.712 31.543
67.762 78.906 28.346
67.425 79.015 30.334
67.678 78.466 30.927
68.207 78.573 31.129
68.000 79.618 28.323
68.357 79.320 30.573
67.434 79.868 30.090
68.586 79.339 30.895
66.926 81.311 27.977
67.655 80.870 28.221
67.754 80.793 30.245
67.891 82.057 28.406
68.171 81.497 30.656
67.608 82.344 30.530
68.285 82.021 31.004
68.133 83.116 28.609
67.086 83.094 30.368
68.028 82.414 31.107
67.565 82.883 30.941
67.974 82.679 31.683
67.373 83.199 31.467
68.047 82.905 32.494
67.636 83.385 33.160
67.958 84.077 28.679
67.099 83.576 30.834
68.090 84.043 32.861
67.576 83.851 33.330
67.895 83.558 33.148
68.093 84.546 29.038
67.576 85.042 28.920
67.916 85.115 29.414
67.473 84.730 33.279
68.043 84.953 32.609
67.617 86.480 30.214
67.720 85.760 29.762
68.096 85.837 30.477
67.720 85.981 32.519
68.201 85.437 32.030
68.057 86.061 31.602
67.210 85.666 33.425
67.277 87.080 30.258
68.021 86.219 30.930
67.564 87.027 31.255
67.448 87.157 32.370
67.210 86.675 33.152
67.205 88.029 31.965
67.076 87.796 32.803
68.217 77.092 29.073
68.540 77.146 29.637
68.076 77.072 30.381
68.676 77.590 28.999
69.088 77.636 29.340
69.089 77.738 29.758
69.250 78.476 30.086
68.584 77.725 30.373
68.582 78.593 28.659
69.129 78.092 29.062
68.863 78.920 30.690
69.232 79.337 30.415
68.730 79.832 28.657
68.580 79.960 30.527
68.822 79.579 30.722
69.319 79.648 30.690
68.915 80.182 30.872
69.297 79.839 30.999
68.796 81.038 28.714
68.500 80.729 30.655
68.918 80.995 31.014
69.337 80.618 31.145
68.924 82.024 28.830
68.893 81.621 31.294
68.531 82.152 31.489
69.045 81.927 31.724
68.690 82.358 31.975
69.261 82.079 31.930
69.253 82.586 29.197
68.671 83.524 28.986
69.287 83.132 29.491
68.997 82.716 32.140
68.254 83.298 32.772
68.399 84.064 28.951
68.860 83.841 29.472
68.869 84.197 31.328
69.247 83.680 30.990
68.925 84.245 30.574
68.710 83.653 32.198
69.253 83.269 31.614
68.435 85.031 30.455
68.602 84.466 29.825
68.596 84.855 31.266
68.470 84.651 31.985
68.343 85.471 31.248
69.387 78.263 29.497
69.302 78.956 29.119
69.672 79.256 29.828
69.590 80.147 29.310
70.076 80.086 29.986
69.952 79.861 30.459
69.886 80.003 30.847
70.029 80.370 31.042
69.590 81.275 29.235
70.120 80.806 29.853
69.374 81.138 31.325
69.807 80.840 31.279
69.522 81.917 29.203
69.955 81.728 29.723
69.531 81.571 31.607
69.669 82.054 31.760
69.547 83.091 30.125
69.812 82.462 29.907
69.641 82.962 30.987
70.030 82.342 30.627
69.602 82.587 31.642
69.994 82.143 31.292
69.196 83.734 30.317
70.322 80.506 30.448
70.238 80.311 30.806
70.345 81.215 30.404
70.295 80.889 30.960
70.216 81.859 30.337
70.290 81.630 30.895
70.051 81.492 31.383
3 2 1 0
3 4 3 0
3 0 3 2
3 4 5 3
3 1 6 0
3 0 6 4
3 4 6 7
3 4 7 5
3 10 9 8
3 12 11 8
3 8 11 10
3 12 13 11
3 8 9 14
3 14 9 15
3 17 12 16
3 12 14 16
3 12 8 14
3 12 17 13
3 19 18 2
3 2 18 1
3 3 14 15
3 19 3 15
3 2 3 19
3 3 5 14
3 5 16 14
3 5 20 16
3 6 1 21
3 1 22 21
3 1 18 22
3 23 7 6
3 23 6 21
3 23 24 7
3 24 5 7
3 24 20 5
3 21 22 25
3 25 22 26
3 21 27 23
3 21 25 27
3 24 23 28
3 28 23 27
3 25 26 29
3 29 26 30
3 25 31 27
3 25 29 31
3 28 27 32
3 32 27 31
3 30 33 29
3 29 33 31
3 31 33 34
3 31 34 32
3 37 36 35
3 39 38 35
3 35 38 37
3 39 40 38
3 35 36 10
3 36 9 10
3 36 41 9
3 11 42 10
3 42 43 10
3 44 10 43
3 10 44 35
3 45 35 44
3 35 45 42
3 42 39 35
3 11 39 42
3 42 45 43
3 43 45 13
3 45 40 13
3 39 11 13
3 39 13 40
3 48 47 46
3 41 48 46
3 15 41 46
3 9 41 15
3 44 43 17
3 16 44 17
3 49 44 16
3 17 43 13
3 46 47 19
3 47 18 19
3 47 50 18
3 46 19 15
3 20 49 16
3 20 51 49
3 50 22 18
3 52 22 50
3 24 51 20
3 24 53 51
3 55 26 54
3 26 52 54
3 26 22 52
3 56 55 54
3 28 53 24
3 28 57 53
3 58 30 55
3 55 30 26
3 55 56 59
3 55 59 58
3 32 61 60
3 57 32 60
3 28 32 57
3 61 62 60
3 58 33 30
3 34 33 58
3 63 34 58
3 59 63 58
3 64 34 63
3 64 65 34
3 34 65 32
3 65 66 32
3 66 61 32
3 61 66 62
3 63 67 64
3 64 67 65
3 70 69 68
3 68 71 70
3 68 69 37
3 69 36 37
3 69 72 36
3 37 38 68
3 38 73 68
3 73 71 68
3 38 74 73
3 40 74 38
3 77 76 75
3 72 77 75
3 41 72 75
3 36 72 41
3 73 74 45
3 44 73 45
3 78 73 44
3 45 74 40
3 75 76 48
3 76 47 48
3 76 79 47
3 41 75 48
3 82 81 80
3 82 78 81
3 78 49 81
3 78 44 49
3 79 50 47
3 83 50 79
3 80 81 84
3 80 84 85
3 51 84 49
3 49 84 81
3 83 52 50
3 86 52 83
3 87 85 84
3 84 51 87
3 51 88 87
3 51 53 88
3 54 52 89
3 52 90 89
3 52 86 90
3 89 56 54
3 57 88 53
3 57 91 88
3 90 92 89
3 56 89 92
3 93 56 92
3 59 56 93
3 94 91 57
3 94 57 60
3 60 62 94
3 94 62 95
3 93 63 59
3 96 63 93
3 65 97 66
3 97 98 66
3 98 62 66
3 98 95 62
3 96 99 63
3 63 99 67
3 67 99 65
3 99 100 65
3 100 97 65
3 100 99 101
3 98 97 102
3 102 97 100
3 101 103 100
3 100 103 102
3 106 105 104
3 104 107 106
3 105 108 104
3 104 108 107
3 111 110 109
3 109 112 111
3 109 110 113
3 113 110 114
3 112 116 115
3 116 112 70
3 109 70 112
3 70 109 69
3 113 69 109
3 71 116 70
3 113 114 117
3 117 114 118
3 117 69 113
3 69 117 72
3 115 116 119
3 120 119 116
3 73 120 71
3 71 120 116
3 123 122 121
3 123 121 118
3 118 121 117
3 121 76 117
3 76 77 117
3 119 125 124
3 125 117 124
3 77 124 117
3 124 77 126
3 72 126 77
3 126 72 125
3 125 120 126
3 119 120 125
3 125 72 117
3 78 126 73
3 73 126 120
3 121 122 127
3 127 122 128
3 127 79 76
3 127 76 121
3 124 126 82
3 80 124 82
3 129 124 80
3 82 126 78
3 127 128 130
3 130 128 131
3 130 83 79
3 130 79 127
3 85 129 80
3 85 132 129
3 131 133 130
3 83 130 133
3 134 83 133
3 86 83 134
3 85 87 135
3 136 85 135
3 132 85 136
3 88 135 87
3 134 90 86
3 137 90 134
3 138 136 135
3 135 88 138
3 88 139 138
3 88 91 139
3 137 140 90
3 90 140 92
3 93 92 140
3 93 140 141
3 142 139 91
3 142 91 94
3 94 95 142
3 142 95 143
3 141 96 93
3 144 96 141
3 98 143 95
3 98 145 143
3 144 146 96
3 96 146 99
3 101 99 146
3 101 146 147
3 102 149 148
3 145 102 148
3 98 102 145
3 149 150 148
3 147 151 101
3 101 151 103
3 102 103 149
3 103 152 149
3 103 151 152
3 149 152 150
3 155 154 153
3 157 156 153
3 153 156 155
3 157 158 156
3 154 159 153
3 161 160 159
3 105 159 160
3 159 105 153
3 106 153 105
3 153 106 157
3 160 161 107
3 161 158 107
3 157 106 107
3 157 107 158
3 164 163 162
3 162 165 164
3 160 108 105
3 108 160 107
3 162 163 166
3 166 163 167
3 165 169 168
3 169 165 111
3 162 111 165
3 111 162 110
3 166 110 162
3 112 169 111
3 166 167 170
3 170 167 171
3 170 110 166
3 110 170 114
3 168 169 172
3 173 172 169
3 115 173 112
3 112 173 169
3 170 171 174
3 174 171 175
3 174 114 170
3 114 174 118
3 172 173 176
3 177 176 173
3 119 177 115
3 115 177 173
3 174 175 123
3 175 122 123
3 175 178 122
3 176 180 179
3 180 174 179
3 123 179 174
3 179 123 181
3 118 181 123
3 181 118 180
3 180 177 181
3 176 177 180
3 180 118 174
3 124 181 119
3 119 181 177
3 178 128 122
3 182 128 178
3 183 179 181
3 181 124 183
3 124 184 183
3 124 129 184
3 187 186 185
3 189 188 185
3 185 188 187
3 189 190 188
3 182 131 128
3 191 131 182
3 132 184 129
3 132 192 184
3 185 186 193
3 193 186 194
3 185 195 189
3 185 193 195
3 190 189 196
3 196 189 195
3 191 197 131
3 131 197 133
3 134 133 197
3 134 197 198
3 136 192 132
3 136 199 192
3 193 194 200
3 200 194 201
3 193 202 195
3 193 200 202
3 196 195 203
3 203 195 202
3 198 137 134
3 204 137 198
3 205 199 136
3 205 136 138
3 138 139 205
3 205 139 206
3 200 201 207
3 207 201 208
3 200 209 202
3 200 207 209
3 203 202 210
3 210 202 209
3 204 211 137
3 137 211 140
3 141 140 211
3 141 211 212
3 213 206 139
3 213 139 142
3 214 207 143
3 207 213 143
3 213 142 143
3 207 208 213
3 216 209 215
3 209 214 215
3 209 207 214
3 209 216 210
3 218 144 217
3 144 212 217
3 144 141 212
3 219 218 217
3 145 220 214
3 145 214 143
3 215 214 221
3 221 214 220
3 218 146 144
3 223 222 147
3 223 147 146
3 219 223 146
3 218 219 146
3 145 148 220
3 222 223 224
3 148 150 220
3 150 221 220
3 150 225 221
3 222 151 147
3 224 226 222
3 226 151 222
3 226 152 151
3 150 152 225
3 225 152 226
3 229 228 227
3 231 230 227
3 227 230 229
3 154 155 231
3 155 230 231
3 155 232 230
3 234 232 233
3 232 156 233
3 232 155 156
3 158 233 156
3 237 236 235
3 239 238 235
3 238 227 235
3 228 237 235
3 228 235 227
3 227 238 231
3 231 238 240
3 240 242 241
3 240 241 159
3 231 240 159
3 154 231 159
3 243 234 233
3 159 243 233
3 161 159 233
3 243 159 241
3 161 233 158
3 235 236 164
3 236 163 164
3 236 244 163
3 164 165 235
3 165 239 235
3 165 245 239
3 242 246 241
3 241 246 243
3 244 167 163
3 247 167 244
3 168 245 165
3 168 248 245
3 251 250 249
3 247 251 249
3 171 247 249
3 167 247 171
3 172 248 168
3 172 252 248
3 250 253 249
3 171 249 253
3 254 171 253
3 175 171 254
3 176 252 172
3 176 255 252
3 254 178 175
3 256 178 254
3 179 255 176
3 179 257 255
3 260 259 258
3 258 261 260
3 256 182 178
3 262 182 256
3 263 257 179
3 263 179 183
3 183 184 263
3 263 184 264
3 267 266 265
3 267 265 259
3 259 265 258
3 265 186 258
3 186 187 258
3 187 188 258
3 188 268 258
3 268 261 258
3 188 269 268
3 190 269 188
3 262 191 182
3 270 191 262
3 192 272 271
3 264 192 271
3 184 192 264
3 271 272 266
3 272 265 266
3 272 273 265
3 273 194 186
3 273 186 265
3 268 269 274
3 268 274 275
3 196 274 190
3 190 274 269
3 270 276 191
3 191 276 197
3 198 197 276
3 198 276 277
3 199 278 272
3 199 272 192
3 272 279 273
3 272 278 279
3 279 201 194
3 279 194 273
3 275 274 280
3 275 280 281
3 203 280 196
3 196 280 274
3 277 204 198
3 282 204 277
3 205 278 199
3 278 205 206
3 283 278 206
3 279 278 283
3 283 208 201
3 283 201 279
3 281 280 284
3 281 284 285
3 210 284 203
3 203 284 280
3 282 286 204
3 204 286 211
3 288 287 212
3 211 288 212
3 286 288 211
3 206 213 283
3 287 288 289
3 283 213 208
3 285 284 216
3 215 285 216
3 290 285 215
3 216 284 210
3 287 217 212
3 292 291 219
3 292 219 217
3 289 292 217
3 287 289 217
3 294 293 291
3 294 291 292
3 294 290 293
3 290 221 293
3 290 215 221
3 291 223 219
3 223 291 224
3 291 295 224
3 291 293 295
3 225 295 221
3 221 295 293
3 295 226 224
3 226 295 225
3 298 297 296
3 228 229 296
3 229 298 296
3 229 299 298
3 300 229 230
3 300 299 229
3 302 300 301
3 300 232 301
3 300 230 232
3 234 301 232
3 296 297 237
3 297 236 237
3 297 303 236
3 228 296 237
3 238 239 304
3 305 240 238
3 305 238 304
3 302 307 306
3 302 305 307
3 305 302 240
3 301 240 302
3 240 301 242
3 307 242 301
3 301 308 307
3 307 308 306
3 305 242 307
3 243 308 234
3 234 308 301
3 303 244 236
3 309 244 303
3 245 310 304
3 245 304 239
3 304 311 305
3 304 310 311
3 306 308 312
3 246 312 308
3 312 246 311
3 242 311 246
3 311 242 305
3 246 308 243
3 309 247 244
3 313 247 309
3 315 314 310
3 245 315 310
3 248 315 245
3 310 314 311
3 311 314 316
3 311 316 312
3 317 250 251
3 318 317 251
3 247 318 251
3 313 318 247
3 252 315 248
3 252 319 315
3 317 253 250
3 254 253 317
3 318 254 317
3 320 254 318
3 255 322 321
3 319 255 321
3 252 255 319
3 322 323 321
3 320 256 254
3 324 256 320
3 257 325 322
3 257 322 255
3 323 322 326
3 322 327 326
3 322 325 327
3 329 328 327
3 327 328 326
3 259 260 329
3 260 328 329
3 260 330 328
3 260 261 330
3 330 261 331
3 324 262 256
3 332 262 324
3 263 325 257
3 325 263 264
3 333 325 264
3 327 325 333
3 333 266 267
3 329 333 267
3 327 333 329
3 259 329 267
3 336 335 334
3 336 331 335
3 331 268 335
3 331 261 268
3 338 270 337
3 270 332 337
3 270 262 332
3 339 338 337
3 271 333 264
3 333 271 266
3 334 335 340
3 334 340 341
3 275 340 268
3 268 340 335
3 338 276 270
3 343 342 277
3 343 277 276
3 339 343 276
3 338 339 276
3 344 342 343
3 347 346 345
3 345 346 341
3 340 345 341
3 348 345 340
3 281 348 275
3 275 348 340
3 349 282 342
3 342 282 277
3 342 344 350
3 351 342 350
3 349 342 351
3 351 350 347
3 345 351 347
3 352 351 345
3 353 345 348
3 352 345 353
3 285 353 281
3 281 353 348
3 349 286 282
3 286 349 288
3 288 349 351
3 288 351 289
3 351 354 289
3 351 352 354
3 355 352 353
3 354 352 355
3 290 355 285
3 285 355 353
3 354 292 289
3 292 354 294
3 294 354 355
3 294 355 290
3 356 297 298
3 299 357 298
3 298 357 356
3 300 358 299
3 299 358 357
3 302 358 300
3 359 303 356
3 356 303 297
3 357 361 360
3 359 357 360
3 356 357 359
3 363 362 361
3 357 363 361
3 358 363 357
3 306 363 302
3 302 363 358
3 365 364 359
3 364 303 359
3 364 309 303
3 365 359 360
3 362 363 366
3 362 366 367
3 312 366 306
3 306 366 363
3 364 313 309
3 368 313 364
3 315 369 314
3 314 370 316
3 314 366 370
3 366 314 367
3 369 367 314
3 367 369 371
3 370 371 369
3 369 372 370
3 370 372 316
3 366 371 370
3 371 366 373
3 366 312 373
3 316 372 373
3 316 373 312
3 368 318 313
3 374 318 368
3 319 375 369
3 319 369 315
3 377 372 376
3 372 375 376
3 372 369 375
3 372 377 373
3 374 320 318
3 378 320 374
3 321 375 319
3 380 379 323
3 323 379 321
3 379 376 321
3 376 375 321
3 382 381 380
3 380 381 379
3 382 383 381
3 385 324 384
3 324 378 384
3 324 320 378
3 386 385 384
3 326 380 323
3 380 326 328
3 380 328 382
3 328 330 382
3 330 387 382
3 387 383 382
3 330 388 387
3 331 388 330
3 389 332 385
3 385 332 324
3 385 386 390
3 385 390 389
3 393 392 391
3 395 394 391
3 395 391 392
3 394 395 387
3 394 387 388
3 334 394 388
3 336 334 388
3 336 388 331
3 389 337 332
3 397 396 339
3 397 339 337
3 390 397 337
3 389 390 337
3 396 397 393
3 391 396 393
3 398 396 391
3 399 391 394
3 398 391 399
3 341 399 334
3 334 399 394
3 396 343 339
3 343 396 344
3 396 400 344
3 396 398 400
3 347 400 346
3 400 399 346
3 400 398 399
3 346 399 341
3 400 350 344
3 350 400 347
3 401 360 361
3 362 401 361
3 402 364 365
3 360 401 365
3 401 402 365
3 401 403 402
3 367 403 362
3 362 403 401
3 404 368 402
3 402 368 364
3 403 406 405
3 404 403 405
3 402 403 404
3 406 403 367
3 371 406 367
3 407 406 371
3 371 373 407
3 407 373 408
3 409 374 404
3 404 374 368
3 404 405 410
3 404 410 409
3 376 411 377
3 411 412 377
3 412 373 377
3 412 408 373
3 413 378 409
3 409 378 374
3 409 410 414
3 409 414 413
3 379 411 376
3 415 412 411
3 379 415 411
3 381 415 379
3 381 383 415
3 415 383 416
3 413 384 378
3 418 417 386
3 418 386 384
3 414 418 384
3 413 414 384
3 420 419 417
3 420 417 418
3 422 421 419
3 422 419 420
3 422 416 421
3 416 387 421
3 416 383 387
3 423 390 417
3 417 390 386
3 393 423 392
3 423 419 392
3 423 417 419
3 392 419 395
3 395 419 421
3 395 421 387
3 423 397 390
3 397 423 393
3 424 405 406
3 407 425 406
3 406 425 424
3 408 425 407
3 426 410 424
3 424 410 405
3 427 424 425
3 426 424 427
3 412 427 408
3 408 427 425
3 428 414 426
3 426 414 410
3 429 426 427
3 428 426 429
3 415 430 412
3 430 427 412
3 430 429 427
3 416 430 415
3 428 418 414
3 418 428 420
3 420 428 429
3 420 429 422
3 422 429 430
3 422 430 416
