ply
format ascii 1.0
comment None
element vertex 873
property float x
property float y
property float z
element face 1830
property list uchar int vertex_indices
end_header
15.971 73.434 45.430
16.015 73.358 44.904
16.247 72.725 45.188
16.139 73.037 45.698
15.922 73.739 45.119
15.990 74.050 45.422
16.031 73.770 45.776
16.079 73.402 45.851
16.384 73.671 46.164
16.203 74.213 45.875
16.612 71.328 40.500
16.742 71.323 39.877
16.812 70.903 40.082
16.878 70.768 40.875
16.658 71.314 41.353
17.075 70.636 41.948
16.713 71.265 42.376
17.141 70.669 42.996
16.771 71.129 43.344
17.170 70.692 43.743
16.680 71.665 40.205
16.651 71.788 40.829
16.917 71.965 40.370
16.673 72.079 41.820
16.529 71.981 43.020
16.955 70.987 44.090
16.628 71.629 44.019
17.153 71.248 44.957
16.551 72.025 44.753
16.813 72.005 45.541
17.075 72.250 41.030
17.137 72.830 41.774
16.622 73.172 42.753
17.199 73.764 42.269
16.293 72.870 44.107
16.505 72.638 45.875
16.317 73.122 46.038
16.902 72.951 46.396
16.711 74.422 42.978
17.103 74.595 42.654
16.335 74.199 43.757
16.074 74.070 44.750
17.012 73.662 46.554
16.858 75.195 43.154
17.320 74.948 42.844
16.496 75.229 43.727
16.280 75.154 44.559
16.313 74.893 45.521
16.799 74.473 46.313
17.066 75.484 43.300
16.750 75.906 43.856
17.132 75.762 43.724
16.472 75.912 44.423
16.540 76.076 45.329
17.043 75.697 46.250
16.973 76.342 44.244
16.752 76.572 44.815
17.305 76.825 44.839
16.786 76.829 45.592
16.931 76.589 46.037
17.168 77.124 45.549
17.818 68.307 36.563
18.055 68.398 35.964
18.294 67.982 36.242
18.083 67.952 36.950
17.809 68.223 37.457
18.284 67.963 37.978
17.986 68.099 38.218
18.392 67.993 38.829
18.109 68.108 38.674
18.463 68.035 39.213
17.729 68.933 36.231
18.276 68.973 35.704
17.550 68.897 37.114
17.688 68.648 38.241
18.119 68.256 38.637
18.342 68.101 38.886
17.790 69.501 36.013
17.565 69.783 36.700
17.765 69.951 36.155
17.382 69.745 37.926
17.825 68.744 39.009
17.451 69.522 39.051
17.956 69.111 39.890
17.299 70.134 40.171
18.046 69.571 40.892
17.443 70.170 41.293
18.152 69.747 41.764
17.632 70.125 42.056
18.125 69.877 42.454
17.993 70.515 36.485
17.624 70.793 37.631
18.204 71.187 37.090
17.139 70.755 39.105
17.666 70.236 42.764
17.925 70.374 43.884
17.431 70.705 44.450
18.134 70.631 44.960
17.622 70.805 45.007
17.984 70.960 45.547
18.291 71.525 37.874
17.660 71.535 38.685
18.514 71.898 38.672
17.127 71.706 39.675
18.306 71.739 43.126
18.381 71.552 43.312
18.463 71.587 42.755
18.308 71.913 43.518
17.757 71.551 46.133
17.074 72.243 46.182
17.721 72.306 46.686
17.967 72.080 39.416
17.646 72.253 40.353
18.012 72.521 41.339
17.682 73.153 41.781
18.464 72.958 41.722
18.418 72.028 42.817
18.000 73.601 43.797
17.854 73.483 44.380
18.020 72.926 44.155
17.978 73.351 44.769
18.035 72.829 44.658
18.297 72.915 45.091
17.850 73.128 46.838
17.858 73.636 42.021
17.627 74.283 42.387
17.734 74.317 44.111
17.795 74.381 43.699
17.919 74.099 44.576
18.287 73.663 44.998
17.578 73.985 46.706
17.960 74.531 42.690
17.521 75.123 43.802
17.778 74.690 43.415
17.786 75.229 44.374
18.415 74.713 44.834
17.779 74.813 46.687
17.508 75.089 43.228
17.348 76.034 44.223
17.850 76.404 44.657
18.278 75.734 44.692
18.002 75.712 46.766
17.909 77.103 45.066
17.174 77.033 46.081
17.763 76.629 46.633
17.835 77.339 45.562
17.888 77.274 46.294
18.623 68.239 35.701
19.025 67.863 36.035
18.622 67.845 36.906
18.508 68.042 38.028
19.092 68.058 37.181
18.557 68.182 38.635
18.767 68.144 39.079
18.950 68.150 39.816
18.647 68.237 39.775
19.210 68.346 40.616
19.015 68.669 35.474
18.928 68.337 37.817
19.363 68.457 37.323
18.512 68.233 38.436
18.954 68.559 38.420
18.264 68.377 39.181
18.472 68.597 40.044
18.866 68.516 40.473
18.191 69.851 35.878
19.113 69.524 35.597
19.385 68.938 37.833
18.689 68.955 40.722
18.955 69.310 41.374
18.906 69.447 42.403
18.459 69.895 43.202
19.491 69.490 43.600
18.828 70.061 44.014
19.403 70.137 44.442
18.779 70.468 36.046
18.600 71.059 36.581
19.408 71.078 36.467
19.516 70.925 40.354
19.590 70.658 39.850
19.737 71.064 39.701
19.191 71.141 41.213
19.430 70.394 40.757
18.812 71.200 42.241
19.210 70.605 41.857
18.989 70.798 42.691
18.989 70.457 44.821
19.107 70.786 45.817
18.376 71.094 46.099
18.770 71.229 46.589
19.033 71.516 37.254
19.311 71.629 38.243
19.500 71.869 38.762
19.669 71.373 40.357
19.202 71.658 41.144
18.923 72.164 41.446
18.654 71.946 41.866
18.647 71.213 43.095
18.285 72.217 44.292
18.597 71.424 43.950
18.375 72.354 44.959
18.896 71.590 45.046
18.810 72.368 45.430
18.536 71.750 46.939
18.552 72.373 47.130
19.326 71.800 47.345
18.877 72.284 39.273
18.585 72.470 40.036
18.511 72.600 40.843
18.584 72.595 41.452
18.845 72.490 42.091
19.029 72.931 41.258
18.369 72.689 43.378
19.134 73.128 42.654
18.865 73.175 45.509
18.786 72.912 47.068
19.382 72.385 47.303
18.501 73.871 42.141
19.372 73.465 41.604
18.483 73.433 43.267
18.232 74.080 43.287
18.783 73.967 45.202
19.530 72.975 46.895
18.901 73.681 46.759
19.468 73.860 41.993
18.887 74.057 42.598
18.047 74.545 43.050
19.153 74.607 45.189
18.934 74.982 46.860
18.488 76.390 44.835
19.210 75.780 45.110
19.010 76.051 46.949
18.427 76.979 45.019
19.016 76.766 45.108
18.650 76.719 47.057
18.375 77.075 46.880
19.190 76.929 47.104
18.597 77.411 45.489
18.782 77.511 46.139
18.953 77.308 46.758
19.448 68.171 35.590
19.951 67.858 35.974
19.481 67.843 36.502
19.925 68.275 36.965
19.095 68.576 39.169
19.392 68.455 40.099
19.706 68.366 41.038
19.755 68.500 40.814
19.666 68.488 41.445
20.129 68.348 42.086
19.975 68.546 42.260
20.422 68.286 42.861
20.232 68.547 42.968
20.590 68.332 43.375
19.819 68.794 35.462
19.685 68.816 37.221
19.991 68.834 37.110
19.855 69.055 37.174
19.399 69.284 38.849
19.488 69.074 40.058
19.230 68.682 41.029
19.728 68.755 40.797
19.465 68.959 41.650
19.710 68.949 42.691
20.488 68.560 43.520
20.069 68.887 43.339
20.354 69.023 44.038
20.216 69.563 35.587
19.813 69.273 37.484
19.756 69.806 38.205
20.299 69.636 37.720
19.603 70.011 38.863
19.537 69.983 39.702
19.591 69.079 41.053
19.446 69.512 40.880
19.266 69.064 41.131
19.550 69.311 41.436
20.211 69.575 44.627
19.681 70.255 45.007
20.587 69.820 45.626
19.799 70.495 45.652
20.157 70.465 46.350
19.774 70.352 35.904
20.443 70.934 36.415
20.173 70.387 38.242
20.182 71.141 38.499
19.744 70.843 38.885
19.492 69.915 41.605
19.023 70.781 43.560
19.428 70.196 42.727
19.126 70.762 44.575
19.579 70.247 44.235
19.431 70.512 44.913
19.942 70.354 45.258
19.351 70.819 45.295
19.470 70.556 45.371
19.628 70.987 45.653
19.668 70.946 46.823
19.284 71.371 47.131
20.169 71.156 47.371
20.069 71.531 37.102
19.815 71.832 37.859
19.826 71.747 38.471
20.200 71.458 39.187
20.132 72.149 38.470
20.188 71.654 40.130
19.699 71.831 40.834
19.703 72.351 41.327
19.414 72.503 45.935
19.466 71.772 45.753
20.180 71.843 46.137
20.171 71.786 47.508
19.753 72.449 39.131
19.377 72.620 39.756
19.564 72.813 40.664
19.876 73.140 41.202
19.702 72.802 41.874
19.985 73.207 42.145
19.431 73.167 46.203
20.066 72.711 46.364
20.165 72.461 47.297
20.042 73.510 41.307
20.493 73.600 41.013
20.181 73.387 41.101
18.889 73.684 42.911
19.788 73.627 42.422
19.533 73.845 45.613
20.066 73.350 46.202
19.735 73.320 46.713
19.940 74.053 46.838
20.159 73.153 46.995
20.318 73.775 41.463
20.260 73.872 42.000
20.050 74.831 45.468
20.380 75.350 46.718
20.541 75.949 45.744
20.441 76.053 46.833
19.429 76.505 47.118
20.195 76.504 47.093
19.156 77.259 45.375
20.062 77.067 45.590
20.042 77.018 47.004
19.944 77.586 45.955
19.977 77.431 46.586
21.344 67.551 44.998
21.331 67.515 44.777
21.601 67.143 45.304
21.691 67.119 45.525
20.386 68.265 35.677
20.952 67.942 36.167
20.487 67.825 36.539
20.981 67.965 37.160
19.946 68.633 41.387
20.191 68.494 42.127
20.542 68.279 42.980
20.893 68.026 43.794
20.822 68.188 43.623
20.837 68.255 44.108
21.143 68.250 45.019
21.547 67.486 45.416
20.742 68.941 35.607
20.078 69.155 37.282
20.592 68.809 37.387
19.835 69.008 41.474
20.072 68.942 42.214
20.450 68.703 43.282
20.687 68.315 43.476
20.775 68.437 43.839
20.704 68.999 44.659
21.405 68.288 45.593
21.005 69.120 45.399
21.486 69.102 46.183
20.981 69.572 35.705
20.868 69.491 37.779
19.760 69.473 42.076
19.951 69.510 43.122
20.665 68.974 44.288
20.275 69.504 44.301
20.595 69.335 44.700
21.011 69.162 45.155
20.584 69.664 45.142
20.706 69.420 45.124
20.817 69.791 45.635
21.187 69.956 46.622
20.489 70.616 47.013
21.140 70.440 47.330
20.757 70.197 35.918
21.489 70.596 36.449
20.944 70.271 38.186
21.158 71.303 38.552
20.135 71.250 45.987
20.467 70.582 45.884
21.014 70.891 46.229
21.076 71.059 47.598
21.095 71.351 37.090
20.728 71.869 37.864
20.959 72.246 38.474
21.214 71.674 38.981
20.781 71.712 39.729
20.529 72.021 40.522
20.286 72.624 40.982
21.160 71.821 46.330
21.018 71.833 47.494
20.533 72.553 38.914
20.367 72.914 39.719
20.339 73.182 40.761
20.816 73.362 40.097
19.956 72.769 41.283
20.581 72.974 41.379
20.622 73.466 42.000
21.297 72.726 46.338
20.927 72.637 47.136
20.952 73.622 40.475
21.671 73.822 40.179
21.324 73.588 39.946
21.173 73.758 41.746
20.621 73.730 42.104
21.028 73.645 41.926
20.630 74.025 45.743
21.113 73.476 45.965
20.851 73.506 46.812
20.834 74.370 46.708
21.166 73.842 40.830
21.390 73.862 41.265
21.244 74.885 45.805
21.232 75.025 46.677
21.139 75.662 46.260
20.945 76.186 46.327
20.997 75.677 46.664
21.168 75.808 46.877
21.474 76.149 46.445
21.102 76.474 47.029
21.021 77.074 46.011
21.442 76.849 46.294
21.100 77.049 46.869
20.702 77.750 45.912
21.013 77.701 45.937
21.223 77.829 46.183
21.285 77.521 46.460
21.228 77.960 46.057
21.830 67.496 37.681
22.348 67.391 37.777
22.159 67.205 37.925
22.128 67.264 38.024
21.681 67.140 45.427
22.070 66.900 45.918
21.942 67.114 45.740
21.959 67.081 45.954
22.291 66.950 46.335
22.224 67.370 46.399
22.611 67.173 46.758
21.303 68.500 35.940
21.772 68.182 36.413
21.717 67.749 36.979
21.475 68.180 37.766
22.207 67.662 38.271
21.129 68.163 44.334
21.385 67.698 44.740
21.658 67.368 45.337
21.752 67.163 45.647
21.793 67.622 45.875
22.146 68.264 46.508
22.498 67.694 46.794
21.508 69.250 35.908
22.184 68.920 36.390
21.328 69.036 37.910
22.078 68.567 38.422
20.998 68.632 44.485
21.627 67.982 45.225
21.306 68.498 44.952
21.646 68.641 45.654
21.988 69.050 46.804
21.418 69.909 35.982
22.034 69.826 36.319
21.233 69.623 38.015
21.796 69.655 38.405
21.219 69.952 46.203
21.508 69.352 46.065
21.673 69.505 46.606
21.755 69.696 47.119
21.830 69.742 46.413
22.005 70.049 47.574
22.375 70.492 36.779
21.807 70.702 38.688
21.699 71.495 38.814
22.451 71.235 39.373
22.081 70.845 46.388
21.949 71.054 47.664
21.923 71.082 37.069
21.756 71.626 37.936
21.251 71.830 38.361
21.541 72.004 38.507
21.605 71.831 39.819
21.223 72.383 40.674
21.924 72.229 40.359
22.403 71.863 46.501
21.940 72.007 47.290
21.567 72.746 38.874
21.210 73.283 39.600
22.094 73.547 39.455
22.037 72.738 40.795
21.449 73.401 41.516
22.241 73.287 41.071
22.248 72.314 46.813
21.543 72.931 46.683
22.418 73.942 39.939
22.457 73.680 40.826
21.955 73.633 41.258
22.598 73.398 40.892
21.624 73.998 45.786
21.764 73.507 46.062
21.692 74.019 46.413
22.186 73.935 40.515
22.194 74.516 45.874
22.090 75.048 46.574
22.104 75.424 46.223
22.277 76.119 46.454
21.942 75.869 46.898
22.108 76.394 46.948
21.492 77.490 46.256
22.056 77.018 46.472
22.044 77.031 46.777
21.459 77.713 46.141
21.670 77.692 46.287
21.658 77.714 46.362
21.589 77.916 46.254
21.858 77.596 46.496
21.466 77.926 46.126
22.478 67.307 38.216
22.274 66.899 46.037
22.728 66.929 46.445
22.627 66.851 46.568
23.097 67.150 47.064
22.518 68.324 36.907
22.830 67.881 37.565
23.190 67.599 38.348
23.049 67.618 38.922
22.670 68.034 38.906
23.196 67.937 39.441
21.667 67.561 45.219
21.993 67.499 45.690
22.412 67.177 46.097
22.497 68.331 46.884
22.903 67.755 47.185
22.914 68.999 36.886
23.445 68.781 37.450
22.650 68.575 38.974
23.068 68.390 39.410
22.063 68.751 46.324
22.154 68.169 46.136
22.300 68.648 46.758
22.565 68.556 46.494
22.276 69.092 47.202
22.874 68.888 47.569
22.799 69.742 36.764
23.309 69.483 37.107
22.994 68.946 39.304
22.554 69.246 38.900
22.866 69.770 46.456
22.852 70.162 47.839
22.956 70.438 37.034
22.619 71.044 37.303
23.307 70.709 37.377
22.553 70.209 39.020
23.236 70.755 39.529
23.196 70.962 46.444
22.885 71.243 47.696
23.006 71.643 37.836
22.147 72.148 38.272
22.473 72.026 40.084
23.258 71.678 39.856
23.691 72.071 46.583
23.163 72.077 47.304
22.724 72.493 38.365
22.565 73.078 38.804
23.466 72.855 38.529
22.971 72.483 40.341
22.709 73.031 40.729
23.215 73.050 40.513
23.259 72.316 46.841
23.006 73.448 39.013
23.186 73.912 39.544
23.120 73.725 40.481
22.291 73.943 45.791
22.267 73.870 45.944
22.425 74.285 46.077
23.095 74.049 40.147
22.561 74.259 45.871
22.619 74.947 46.263
23.148 75.773 46.692
22.971 75.597 46.815
23.193 76.110 46.948
23.209 76.288 46.845
22.434 77.040 46.675
21.843 77.676 46.349
23.021 66.875 46.818
23.678 68.160 38.049
24.002 67.971 38.632
24.017 67.771 39.270
23.851 67.850 39.926
23.582 68.259 39.970
24.076 68.141 40.525
22.459 67.716 46.190
23.097 67.616 46.561
23.670 67.205 47.160
23.776 67.901 47.732
23.988 68.661 37.936
24.459 68.663 38.448
23.537 69.015 39.862
24.075 68.675 40.542
23.548 68.719 46.612
23.725 69.311 48.030
23.298 70.070 37.119
23.738 69.949 37.473
24.186 69.330 37.890
23.223 69.744 39.459
23.719 69.717 39.907
24.265 69.708 40.485
23.883 69.987 46.529
23.733 70.565 48.013
23.808 70.951 37.702
23.832 70.512 39.920
23.698 71.216 39.813
24.272 71.330 46.526
23.840 71.602 47.741
23.807 71.647 37.917
23.479 72.181 38.123
24.213 72.035 38.213
23.772 71.759 39.982
23.524 72.258 40.158
23.951 72.199 40.303
24.339 72.211 46.578
23.980 72.203 47.483
24.394 72.852 38.593
23.855 73.180 40.520
23.999 72.736 46.833
24.477 73.042 46.775
24.209 72.763 47.188
23.821 73.495 38.979
24.160 74.017 39.483
23.874 73.927 40.479
22.538 73.999 45.818
24.437 73.358 46.976
23.991 74.260 40.089
24.402 74.798 47.042
23.871 75.382 47.009
24.102 75.163 46.990
24.286 75.059 47.095
24.227 75.406 47.061
24.007 75.676 47.082
23.889 75.767 47.005
24.649 67.288 47.935
24.793 67.296 47.661
25.003 67.091 48.001
25.143 67.173 48.166
24.599 68.178 39.078
24.783 68.028 39.663
24.724 67.903 40.258
24.644 67.997 40.900
24.540 68.325 41.094
24.981 68.166 41.487
25.097 68.459 41.619
25.534 68.331 41.882
24.255 67.847 47.045
24.949 67.673 47.446
24.749 67.860 48.233
25.486 67.678 48.443
24.916 68.581 38.968
25.270 68.567 39.551
24.768 68.968 41.164
25.489 68.883 41.704
25.630 68.560 41.947
24.535 69.057 46.830
24.583 68.718 48.292
25.143 68.352 47.313
25.289 68.374 48.510
24.339 70.384 37.897
24.795 69.789 38.329
25.153 69.189 38.894
24.844 69.587 41.029
25.411 69.533 41.389
24.826 70.386 46.717
24.591 69.962 48.298
25.447 69.597 47.167
25.401 69.396 48.549
24.263 71.239 37.954
24.844 71.051 38.295
23.997 71.375 40.048
24.421 71.140 40.478
25.049 70.285 40.996
25.024 71.420 46.683
24.631 71.164 48.080
25.659 71.160 47.072
25.499 70.748 48.400
24.946 72.132 38.492
24.500 72.383 40.701
24.930 72.357 46.725
25.318 71.868 46.816
24.806 72.231 47.653
25.346 71.722 48.067
25.002 72.809 38.690
24.430 73.357 40.791
24.936 73.195 46.848
25.228 72.909 47.312
24.829 73.438 39.061
24.833 74.080 39.581
24.504 73.945 40.824
24.438 74.269 40.617
25.161 74.114 41.101
24.590 74.093 47.011
24.833 74.071 47.022
24.874 73.948 47.187
24.598 74.355 39.935
25.042 74.537 40.598
24.677 74.854 47.129
24.573 75.059 47.186
24.619 75.153 47.185
24.358 75.462 47.150
25.471 67.358 48.207
25.248 68.165 40.145
25.347 68.095 40.654
25.299 68.070 41.066
25.401 68.159 41.572
26.121 68.480 42.017
25.570 67.829 47.902
26.164 67.851 48.510
26.118 67.743 48.658
26.231 68.042 48.772
26.606 68.180 48.903
25.554 68.452 40.117
25.701 68.430 40.589
26.004 68.838 41.975
26.234 68.720 42.132
25.965 68.845 47.781
26.586 68.413 48.847
26.200 68.702 48.725
25.407 70.266 38.809
25.724 69.546 39.481
25.852 68.928 40.199
26.499 69.079 41.964
26.250 69.362 41.739
26.307 70.143 47.665
26.146 70.092 48.651
25.511 71.415 38.780
26.006 70.675 39.400
25.213 71.459 41.067
26.188 70.392 41.471
26.286 71.151 47.492
26.139 70.942 48.503
25.456 72.395 38.815
26.042 71.858 39.287
25.122 72.673 41.145
26.000 71.790 41.560
25.533 72.443 47.098
25.632 72.412 47.788
26.118 72.191 47.470
26.039 71.733 48.207
25.272 72.954 38.873
25.723 72.940 39.238
24.947 73.540 41.103
25.789 73.176 41.546
25.392 73.132 47.057
25.718 72.855 47.274
25.543 72.612 47.448
25.687 73.007 47.446
26.102 72.630 47.813
25.309 74.336 40.080
25.506 73.771 39.592
26.215 73.997 40.184
26.019 73.995 41.585
25.457 73.583 47.255
24.994 74.299 47.168
25.990 73.093 47.535
25.991 74.632 40.775
25.600 74.780 40.935
25.880 74.606 41.233
24.819 74.721 47.198
25.819 74.834 41.047
25.747 68.341 41.079
26.044 68.481 41.635
26.359 68.409 48.475
26.672 68.389 48.791
26.605 68.099 48.844
26.882 68.459 48.963
26.297 69.055 41.257
26.785 69.167 41.911
26.624 68.756 42.090
26.924 69.038 42.273
26.666 69.223 48.307
26.655 68.685 48.701
26.911 68.881 48.736
26.739 68.839 48.887
26.924 68.817 48.954
26.278 69.873 40.252
26.764 70.125 41.177
26.716 69.483 41.683
27.119 69.999 41.740
26.821 69.618 41.990
26.965 69.385 42.241
26.858 70.112 48.144
26.689 69.703 48.808
27.047 69.723 48.543
26.975 69.433 48.912
26.658 71.131 40.122
27.199 71.026 40.824
27.186 70.593 41.428
26.716 69.977 41.712
26.906 70.695 41.882
27.404 70.378 42.252
26.724 70.965 47.909
27.023 70.421 48.268
26.624 70.957 48.501
26.978 70.132 48.749
26.557 72.436 39.796
27.264 71.955 40.446
26.767 72.255 41.992
27.535 71.597 42.268
26.738 71.662 47.962
26.492 72.121 48.070
26.238 73.331 39.763
27.096 73.174 40.333
26.725 73.411 41.966
27.513 72.764 42.267
26.006 72.948 47.434
26.511 72.332 47.814
26.312 72.745 47.740
27.215 74.183 40.822
26.766 74.203 41.770
27.503 73.707 42.141
27.045 74.630 41.388
26.120 74.802 41.138
27.523 74.306 41.906
26.893 68.506 48.903
27.108 69.127 42.204
27.046 68.983 48.879
27.453 69.689 42.066
27.475 69.495 42.284
27.654 70.013 42.317
27.096 69.650 48.801
27.709 71.428 41.072
27.901 70.770 41.729
28.123 71.337 42.320
26.992 70.708 48.400
27.879 72.462 40.837
28.221 71.865 41.308
28.077 72.289 42.368
26.785 71.657 48.178
27.952 73.458 40.888
28.440 72.770 41.251
28.154 73.186 42.298
28.083 74.126 41.086
28.508 73.675 41.272
28.126 73.988 42.116
27.961 74.590 41.295
27.958 74.774 41.528
28.429 74.280 41.335
28.309 74.733 41.627
28.054 74.536 41.797
28.224 74.787 41.487
27.847 70.100 42.165
28.239 70.946 42.121
28.567 71.956 41.747
28.605 71.848 42.128
28.586 72.591 42.234
28.785 73.070 41.633
28.604 73.586 42.145
28.727 73.972 41.626
28.508 74.178 41.995
28.443 74.570 41.515
28.553 74.420 41.765
28.821 72.557 41.969
28.844 73.325 41.952
28.758 73.963 41.927
3 2 1 0
3 0 3 2
3 1 4 0
3 4 5 0
3 5 6 0
3 7 3 0
3 7 0 6
3 6 8 7
3 5 9 6
3 6 9 8
3 12 11 10
3 14 13 10
3 10 13 12
3 16 15 14
3 14 15 13
3 18 17 16
3 16 17 15
3 18 19 17
3 11 20 10
3 22 21 20
3 21 10 20
3 21 14 10
3 14 23 16
3 14 21 23
3 16 24 18
3 16 23 24
3 19 18 25
3 18 26 25
3 18 24 26
3 28 27 26
3 26 27 25
3 28 29 27
3 22 30 21
3 21 30 23
3 23 30 31
3 33 32 31
3 32 23 31
3 32 24 23
3 24 34 26
3 24 32 34
3 34 1 2
3 28 34 2
3 26 34 28
3 36 35 3
3 3 35 2
3 35 29 2
3 29 28 2
3 36 37 35
3 32 33 38
3 38 33 39
3 32 40 34
3 32 38 40
3 41 4 1
3 34 41 1
3 40 41 34
3 7 36 3
3 5 4 41
3 7 8 36
3 8 37 36
3 8 42 37
3 38 39 43
3 43 39 44
3 38 45 40
3 38 43 45
3 40 46 41
3 40 45 46
3 47 9 5
3 41 47 5
3 46 47 41
3 47 48 9
3 48 8 9
3 48 42 8
3 44 49 43
3 51 50 49
3 50 43 49
3 50 45 43
3 45 52 46
3 45 50 52
3 46 53 47
3 46 52 53
3 48 47 54
3 54 47 53
3 51 55 50
3 57 56 55
3 56 50 55
3 56 52 50
3 59 53 58
3 53 56 58
3 53 52 56
3 53 59 54
3 57 60 56
3 56 60 58
3 63 62 61
3 65 64 61
3 61 64 63
3 67 66 65
3 65 66 64
3 69 68 67
3 67 68 66
3 69 70 68
3 61 62 71
3 71 62 72
3 61 73 65
3 61 71 73
3 65 74 67
3 65 73 74
3 76 69 75
3 69 74 75
3 69 67 74
3 69 76 70
3 72 77 71
3 79 78 77
3 78 71 77
3 78 73 71
3 73 80 74
3 73 78 80
3 75 74 81
3 74 82 81
3 74 80 82
3 84 83 82
3 82 83 81
3 86 85 84
3 84 85 83
3 88 87 86
3 86 87 85
3 88 89 87
3 79 90 78
3 92 91 90
3 91 78 90
3 91 80 78
3 80 93 82
3 80 91 93
3 93 11 12
3 84 93 12
3 82 93 84
3 84 12 13
3 84 13 86
3 86 13 15
3 86 15 88
3 94 89 88
3 15 94 88
3 17 94 15
3 96 95 19
3 95 17 19
3 95 94 17
3 98 97 96
3 96 97 95
3 98 99 97
3 92 100 91
3 102 101 100
3 101 91 100
3 101 93 91
3 103 20 11
3 93 103 11
3 101 103 93
3 103 22 20
3 106 105 104
3 19 25 96
3 104 105 107
3 96 25 27
3 96 27 98
3 109 108 29
3 29 108 27
3 108 99 27
3 99 98 27
3 109 110 108
3 102 111 101
3 101 111 103
3 103 111 112
3 103 112 22
3 112 30 22
3 112 113 30
3 113 115 114
3 31 113 114
3 30 113 31
3 104 116 106
3 33 31 114
3 119 118 117
3 107 116 104
3 121 120 118
3 121 118 119
3 29 35 109
3 120 121 122
3 35 37 109
3 37 110 109
3 37 123 110
3 115 124 114
3 33 114 124
3 125 33 124
3 39 33 125
3 117 118 126
3 117 126 127
3 128 118 120
3 126 118 128
3 120 122 129
3 120 129 128
3 42 123 37
3 42 130 123
3 125 44 39
3 131 44 125
3 127 126 132
3 127 132 133
3 134 126 128
3 132 126 134
3 128 129 135
3 128 135 134
3 48 130 42
3 48 136 130
3 131 137 44
3 44 137 49
3 132 138 51
3 137 132 51
3 49 137 51
3 133 132 137
3 134 140 139
3 138 134 139
3 132 134 138
3 140 134 135
3 54 136 48
3 54 141 136
3 138 55 51
3 57 55 138
3 139 57 138
3 142 57 139
3 58 143 59
3 143 144 59
3 144 54 59
3 144 141 54
3 142 145 57
3 57 145 60
3 58 60 143
3 60 146 143
3 60 145 146
3 143 146 144
3 148 147 63
3 63 147 62
3 149 63 64
3 149 148 63
3 151 149 150
3 149 66 150
3 149 64 66
3 150 66 152
3 66 153 152
3 66 68 153
3 155 154 70
3 154 68 70
3 154 153 68
3 155 156 154
3 147 72 62
3 157 72 147
3 151 150 158
3 151 158 159
3 161 160 152
3 160 162 152
3 76 152 162
3 152 76 150
3 75 150 76
3 150 75 160
3 160 158 150
3 161 158 160
3 160 75 162
3 155 70 76
3 162 155 76
3 163 155 162
3 156 155 164
3 164 155 163
3 77 72 165
3 72 166 165
3 72 157 166
3 165 79 77
3 167 159 158
3 75 81 162
3 158 161 167
3 162 81 83
3 162 83 163
3 168 164 163
3 83 168 163
3 85 168 83
3 169 85 87
3 169 168 85
3 171 170 89
3 170 87 89
3 170 169 87
3 173 172 171
3 171 172 170
3 173 174 172
3 166 175 165
3 175 177 176
3 175 176 90
3 165 175 90
3 79 165 90
3 176 92 90
3 180 179 178
3 182 181 178
3 182 178 179
3 184 183 181
3 184 181 182
3 89 94 171
3 183 184 185
3 171 94 95
3 171 95 173
3 186 174 173
3 95 186 173
3 97 186 95
3 188 187 99
3 187 97 99
3 187 186 97
3 188 189 187
3 177 190 176
3 176 190 92
3 190 100 92
3 190 191 100
3 102 100 191
3 102 191 192
3 193 180 178
3 193 178 181
3 193 181 194
3 196 195 194
3 181 196 194
3 183 196 181
3 197 105 106
3 183 197 106
3 196 183 106
3 197 183 185
3 199 198 107
3 105 199 107
3 197 199 105
3 201 200 198
3 201 198 199
3 99 108 188
3 200 201 202
3 204 203 110
3 110 203 108
3 203 189 108
3 189 188 108
3 204 205 203
3 192 206 102
3 102 206 111
3 111 207 112
3 206 207 111
3 112 208 113
3 207 208 112
3 208 209 113
3 209 195 113
3 196 113 195
3 113 196 115
3 210 115 196
3 115 210 209
3 209 211 115
3 208 211 209
3 209 210 195
3 213 210 212
3 212 210 116
3 210 196 116
3 196 106 116
3 116 107 212
3 107 198 212
3 119 117 212
3 119 212 198
3 119 198 121
3 121 198 200
3 122 121 200
3 202 122 200
3 214 122 202
3 123 215 204
3 123 204 110
3 205 204 216
3 216 204 215
3 124 115 217
3 115 218 217
3 115 211 218
3 212 219 213
3 125 124 217
3 212 117 219
3 117 220 219
3 117 127 220
3 214 129 122
3 221 129 214
3 223 222 215
3 123 223 215
3 130 223 123
3 215 222 216
3 218 224 217
3 131 125 217
3 225 131 217
3 224 225 217
3 131 225 226
3 225 220 226
3 220 133 226
3 220 127 133
3 221 135 129
3 227 135 221
3 136 223 130
3 136 228 223
3 226 137 131
3 137 226 133
3 229 139 140
3 230 229 140
3 135 230 140
3 227 230 135
3 141 228 136
3 141 231 228
3 233 232 229
3 232 139 229
3 232 142 139
3 233 229 230
3 144 235 234
3 231 144 234
3 141 144 231
3 235 236 234
3 232 237 142
3 142 237 145
3 145 238 146
3 237 238 145
3 144 146 235
3 146 239 235
3 146 238 239
3 235 239 236
3 241 240 148
3 148 240 147
3 242 148 149
3 242 241 148
3 149 151 242
3 242 151 243
3 244 152 153
3 154 245 153
3 153 245 244
3 247 245 246
3 245 154 246
3 156 248 246
3 156 246 154
3 250 249 248
3 248 249 246
3 252 251 250
3 250 251 249
3 252 253 251
3 240 157 147
3 254 157 240
3 257 256 255
3 256 243 255
3 243 159 255
3 243 151 159
3 258 161 244
3 244 161 152
3 259 244 245
3 258 244 259
3 248 156 260
3 164 260 156
3 261 245 247
3 245 261 259
3 248 262 250
3 248 260 262
3 250 263 252
3 250 262 263
3 253 252 264
3 252 265 264
3 252 263 265
3 265 266 264
3 254 166 157
3 267 166 254
3 268 257 255
3 270 268 269
3 269 268 167
3 268 255 167
3 255 159 167
3 161 258 167
3 258 269 167
3 258 271 269
3 272 258 259
3 271 258 272
3 260 164 168
3 261 273 259
3 274 259 273
3 259 274 272
3 169 275 168
3 169 274 275
3 274 169 276
3 262 276 169
3 276 262 273
3 275 273 262
3 262 260 275
3 275 260 168
3 274 273 275
3 262 169 170
3 262 170 263
3 263 170 172
3 263 172 265
3 278 277 174
3 174 277 172
3 277 266 172
3 266 265 172
3 280 279 278
3 278 279 277
3 280 281 279
3 267 282 166
3 166 282 175
3 177 175 282
3 177 282 283
3 284 270 269
3 286 285 284
3 269 286 284
3 271 286 269
3 180 286 179
3 286 272 179
3 286 271 272
3 179 272 182
3 182 272 274
3 276 287 274
3 287 182 274
3 287 184 182
3 289 288 185
3 184 289 185
3 287 289 184
3 291 290 288
3 291 288 289
3 293 292 291
3 292 278 291
3 174 291 278
3 291 174 290
3 186 290 174
3 290 186 292
3 292 294 290
3 293 294 292
3 292 186 278
3 187 295 186
3 187 294 295
3 294 187 296
3 280 296 187
3 296 280 293
3 295 293 280
3 280 278 295
3 295 278 186
3 294 293 295
3 298 297 189
3 189 297 187
3 297 281 187
3 281 280 187
3 298 299 297
3 283 300 177
3 177 300 190
3 190 301 191
3 300 301 190
3 301 302 191
3 302 285 191
3 286 191 285
3 191 286 192
3 303 192 286
3 192 303 302
3 302 304 192
3 301 304 302
3 302 303 285
3 303 286 180
3 193 303 180
3 305 303 193
3 306 193 194
3 306 305 193
3 194 195 306
3 306 195 307
3 288 197 185
3 197 288 199
3 199 288 290
3 199 290 201
3 201 290 294
3 309 308 202
3 309 202 201
3 296 309 201
3 294 296 201
3 189 203 298
3 308 309 310
3 203 205 298
3 205 299 298
3 205 311 299
3 304 312 192
3 192 312 206
3 206 313 207
3 312 313 206
3 207 314 208
3 313 314 207
3 314 211 208
3 211 314 315
3 195 210 307
3 316 307 210
3 210 213 316
3 316 213 317
3 318 214 308
3 308 214 202
3 308 310 319
3 308 319 318
3 216 311 205
3 216 320 311
3 323 322 321
3 315 323 321
3 218 315 321
3 211 315 218
3 213 219 324
3 325 213 324
3 317 213 325
3 220 324 219
3 327 326 318
3 326 214 318
3 326 221 214
3 329 328 223
3 328 327 223
3 318 223 327
3 223 318 222
3 319 222 318
3 222 319 328
3 328 330 222
3 329 330 328
3 328 319 327
3 216 222 320
3 320 222 330
3 322 331 321
3 321 331 218
3 331 224 218
3 331 332 224
3 324 225 325
3 225 332 325
3 225 224 332
3 225 324 220
3 326 227 221
3 333 227 326
3 228 329 223
3 228 334 329
3 333 230 227
3 335 230 333
3 231 337 336
3 334 231 336
3 228 231 334
3 337 338 336
3 339 232 233
3 340 339 233
3 230 340 233
3 335 340 230
3 234 337 231
3 234 236 337
3 236 338 337
3 236 341 338
3 339 237 232
3 340 342 339
3 342 237 339
3 342 238 237
3 238 343 239
3 342 343 238
3 236 239 341
3 341 239 343
3 346 345 344
3 344 347 346
3 349 348 241
3 241 348 240
3 350 241 242
3 350 349 241
3 242 243 350
3 350 243 351
3 352 247 246
3 249 353 246
3 246 353 352
3 251 354 249
3 249 354 353
3 356 354 355
3 354 251 355
3 253 357 355
3 253 355 251
3 355 357 345
3 357 344 345
3 357 358 344
3 347 344 359
3 359 344 358
3 348 254 240
3 360 254 348
3 257 361 256
3 361 362 256
3 362 243 256
3 362 351 243
3 363 261 352
3 352 261 247
3 364 352 353
3 363 352 364
3 365 353 354
3 364 353 365
3 367 366 356
3 367 357 366
3 357 367 264
3 365 264 367
3 264 365 253
3 366 253 365
3 365 354 366
3 366 354 356
3 357 253 366
3 357 264 266
3 368 357 266
3 358 357 368
3 359 358 369
3 358 370 369
3 358 368 370
3 370 371 369
3 360 267 254
3 372 267 360
3 268 361 257
3 268 270 361
3 270 362 361
3 270 373 362
3 363 273 261
3 273 363 276
3 363 374 276
3 363 364 374
3 375 364 365
3 374 364 375
3 365 367 376
3 377 365 376
3 375 365 377
3 379 378 376
3 378 368 376
3 266 376 368
3 376 266 377
3 277 377 266
3 377 277 378
3 378 380 377
3 379 380 378
3 378 277 368
3 279 381 277
3 279 380 381
3 380 279 382
3 370 382 279
3 382 370 379
3 381 379 370
3 370 368 381
3 381 368 277
3 380 379 381
3 384 383 281
3 281 383 279
3 383 371 279
3 371 370 279
3 384 385 383
3 372 386 267
3 267 386 282
3 283 282 386
3 283 386 387
3 388 373 270
3 388 270 284
3 284 285 388
3 388 285 389
3 374 287 276
3 287 374 289
3 289 374 375
3 289 375 291
3 291 375 377
3 291 377 293
3 293 377 380
3 391 390 296
3 391 296 293
3 382 391 293
3 380 382 293
3 281 297 384
3 390 391 392
3 297 299 384
3 299 385 384
3 299 393 385
3 387 394 283
3 283 394 300
3 300 395 301
3 394 395 300
3 395 304 301
3 304 395 396
3 285 303 389
3 397 389 303
3 398 303 305
3 398 397 303
3 399 305 306
3 399 398 305
3 306 307 399
3 399 307 400
3 390 309 296
3 310 309 390
3 392 310 390
3 401 310 392
3 311 393 299
3 311 402 393
3 396 403 304
3 304 403 312
3 312 404 313
3 403 404 312
3 404 406 405
3 314 404 405
3 313 404 314
3 408 407 316
3 408 315 407
3 315 408 405
3 400 405 408
3 405 400 314
3 407 314 400
3 400 307 407
3 407 307 316
3 315 314 407
3 316 317 408
3 408 317 409
3 401 319 310
3 410 319 401
3 320 402 311
3 320 411 402
3 414 413 412
3 414 412 406
3 406 412 405
3 412 322 405
3 322 323 405
3 315 405 323
3 417 416 415
3 417 409 416
3 409 325 416
3 409 317 325
3 419 418 327
3 327 418 326
3 330 329 420
3 421 420 329
3 410 327 319
3 327 410 419
3 320 330 411
3 411 330 420
3 413 422 412
3 412 422 322
3 422 331 322
3 422 423 331
3 416 332 415
3 332 423 415
3 332 331 423
3 332 416 325
3 418 333 326
3 424 333 418
3 334 421 329
3 334 425 421
3 427 335 426
3 335 424 426
3 335 333 424
3 429 428 336
3 428 430 336
3 427 336 430
3 336 427 334
3 426 334 427
3 334 426 428
3 428 425 334
3 429 425 428
3 428 426 430
3 336 338 429
3 429 338 431
3 433 432 427
3 432 335 427
3 432 340 335
3 433 427 430
3 341 431 338
3 341 434 431
3 342 340 435
3 340 436 435
3 340 432 436
3 342 435 437
3 438 342 437
3 343 342 438
3 341 343 434
3 434 343 438
3 436 439 435
3 435 439 437
3 442 441 440
3 440 443 442
3 444 345 346
3 446 444 445
3 444 346 445
3 347 447 445
3 347 445 346
3 449 448 447
3 447 448 445
3 449 450 448
3 451 348 349
3 451 349 452
3 349 453 452
3 349 350 453
3 454 440 351
3 440 453 351
3 453 350 351
3 440 441 453
3 443 440 455
3 455 440 454
3 456 356 355
3 457 456 355
3 457 355 345
3 458 457 345
3 444 458 345
3 359 459 347
3 359 444 459
3 444 359 458
3 460 458 359
3 458 460 446
3 459 446 460
3 460 447 459
3 459 447 347
3 444 446 459
3 462 449 461
3 449 460 461
3 449 447 460
3 449 462 450
3 463 360 451
3 451 360 348
3 451 452 464
3 451 464 463
3 362 465 454
3 362 454 351
3 455 454 466
3 466 454 465
3 467 367 456
3 456 367 356
3 456 457 468
3 469 456 468
3 467 456 469
3 359 369 460
3 469 468 470
3 369 371 460
3 371 461 460
3 371 471 461
3 472 372 463
3 463 372 360
3 463 464 473
3 463 473 472
3 373 474 465
3 373 465 362
3 466 465 475
3 475 465 474
3 467 376 367
3 376 467 379
3 379 467 469
3 477 476 382
3 477 382 379
3 470 477 379
3 469 470 379
3 479 478 383
3 478 480 383
3 476 383 480
3 383 476 371
3 477 371 476
3 371 477 478
3 478 471 371
3 479 471 478
3 478 477 480
3 383 385 479
3 479 385 481
3 472 386 372
3 387 386 472
3 473 387 472
3 482 387 473
3 388 474 373
3 484 483 389
3 389 483 388
3 483 475 388
3 475 474 388
3 484 485 483
3 476 391 382
3 392 391 476
3 480 392 476
3 486 392 480
3 393 481 385
3 393 487 481
3 482 488 387
3 387 488 394
3 394 489 395
3 488 489 394
3 489 490 395
3 489 389 490
3 389 489 484
3 491 484 489
3 484 491 397
3 490 397 491
3 491 396 490
3 490 396 395
3 389 397 490
3 492 485 484
3 397 492 484
3 398 492 397
3 494 492 493
3 492 399 493
3 492 398 399
3 400 493 399
3 486 401 392
3 495 401 486
3 402 487 393
3 402 496 487
3 491 497 396
3 396 497 403
3 497 499 498
3 404 497 498
3 403 497 404
3 493 500 494
3 406 404 498
3 502 500 501
3 501 500 408
3 500 493 408
3 493 400 408
3 409 501 408
3 504 410 503
3 410 495 503
3 410 401 495
3 503 496 504
3 496 411 504
3 496 402 411
3 498 499 414
3 499 413 414
3 499 505 413
3 406 498 414
3 508 507 506
3 507 508 502
3 507 502 501
3 415 507 501
3 417 415 501
3 417 501 409
3 510 509 419
3 419 509 418
3 419 410 510
3 504 510 410
3 510 504 511
3 420 511 504
3 511 420 421
3 420 504 411
3 505 512 413
3 413 512 422
3 507 423 506
3 423 512 506
3 423 422 512
3 423 507 415
3 509 424 418
3 513 424 509
3 425 511 421
3 425 514 511
3 513 515 424
3 424 515 426
3 515 430 426
3 430 515 516
3 425 429 514
3 517 514 429
3 429 431 517
3 517 431 518
3 519 432 433
3 520 519 433
3 430 520 433
3 516 520 430
3 434 518 431
3 434 521 518
3 523 522 519
3 522 432 519
3 522 436 432
3 525 524 437
3 524 523 437
3 519 437 523
3 437 519 438
3 520 438 519
3 438 520 524
3 524 526 438
3 525 526 524
3 524 520 523
3 434 438 521
3 521 438 526
3 522 527 436
3 436 527 439
3 437 439 525
3 525 439 527
3 528 441 442
3 443 528 442
3 529 446 445
3 529 445 530
3 445 531 530
3 445 448 531
3 448 450 531
3 531 450 532
3 533 452 453
3 534 533 453
3 534 453 441
3 535 534 441
3 528 535 441
3 443 455 528
3 455 536 528
3 536 535 528
3 536 455 537
3 537 538 536
3 539 457 458
3 540 539 458
3 540 458 446
3 541 540 446
3 529 541 446
3 462 461 542
3 529 530 541
3 542 543 462
3 543 450 462
3 543 532 450
3 544 464 533
3 533 464 452
3 533 534 545
3 533 545 544
3 466 546 537
3 466 537 455
3 538 537 547
3 547 537 546
3 539 468 457
3 549 548 470
3 549 470 468
3 540 549 468
3 539 540 468
3 471 550 461
3 550 548 461
3 549 461 548
3 461 549 542
3 551 542 549
3 542 551 550
3 550 552 542
3 471 552 550
3 550 551 548
3 543 542 553
3 553 542 552
3 555 554 544
3 554 464 544
3 554 473 464
3 555 544 545
3 557 556 546
3 466 557 546
3 475 557 466
3 546 556 547
3 548 477 470
3 471 479 552
3 477 548 480
3 551 480 548
3 480 551 558
3 479 481 552
3 481 553 552
3 481 559 553
3 561 482 560
3 482 554 560
3 482 473 554
3 562 561 560
3 563 557 475
3 563 475 483
3 483 485 563
3 563 485 564
3 558 486 480
3 565 486 558
3 487 559 481
3 487 566 559
3 561 488 482
3 489 488 561
3 567 489 561
3 562 567 561
3 568 489 567
3 568 491 489
3 485 492 569
3 570 485 569
3 564 485 570
3 494 569 492
3 565 495 486
3 571 495 565
3 496 566 487
3 496 572 566
3 567 573 568
3 573 575 574
3 573 574 497
3 568 573 497
3 491 568 497
3 569 576 570
3 499 497 574
3 578 576 577
3 577 576 500
3 576 569 500
3 569 494 500
3 502 577 500
3 571 579 495
3 495 579 503
3 496 503 572
3 572 503 579
3 575 580 574
3 499 574 580
3 581 499 580
3 505 499 581
3 578 577 508
3 506 578 508
3 582 578 506
3 508 577 502
3 584 583 510
3 510 583 509
3 510 511 584
3 584 511 585
3 581 586 505
3 505 586 512
3 506 512 582
3 582 512 586
3 588 513 587
3 513 583 587
3 513 509 583
3 587 585 588
3 585 514 588
3 585 511 514
3 588 515 513
3 516 515 589
3 588 589 515
3 589 588 590
3 514 590 588
3 590 514 517
3 517 518 590
3 590 518 591
3 593 520 592
3 520 589 592
3 520 516 589
3 592 591 593
3 591 521 593
3 591 518 521
3 594 522 523
3 523 520 594
3 520 593 594
3 526 525 594
3 526 594 593
3 526 593 521
3 594 527 522
3 527 594 525
3 595 530 531
3 532 595 531
3 596 534 535
3 596 535 597
3 535 598 597
3 535 536 598
3 600 599 538
3 599 536 538
3 599 598 536
3 600 601 599
3 602 540 541
3 603 602 541
3 603 541 530
3 604 603 530
3 595 604 530
3 595 532 604
3 532 605 604
3 532 543 605
3 606 545 596
3 596 545 534
3 596 597 607
3 596 607 606
3 547 608 600
3 547 600 538
3 601 600 609
3 609 600 608
3 602 549 540
3 551 549 602
3 603 551 602
3 610 551 603
3 553 605 543
3 553 611 605
3 612 554 555
3 613 612 555
3 613 555 545
3 614 613 545
3 606 614 545
3 556 557 615
3 606 607 614
3 608 547 556
3 615 608 556
3 616 608 615
3 609 608 617
3 617 608 616
3 610 558 551
3 618 558 610
3 559 611 553
3 559 619 611
3 612 560 554
3 562 560 612
3 613 562 612
3 620 562 613
3 563 615 557
3 616 615 621
3 615 564 621
3 564 622 621
3 564 615 563
3 616 621 617
3 618 565 558
3 623 565 618
3 566 619 559
3 566 624 619
3 626 567 625
3 567 620 625
3 567 562 620
3 627 626 625
3 570 629 628
3 622 570 628
3 564 570 622
3 629 630 628
3 623 571 565
3 631 571 623
3 572 624 566
3 572 632 624
3 626 573 567
3 575 573 626
3 627 575 626
3 633 575 627
3 576 629 570
3 576 578 629
3 578 630 629
3 578 634 630
3 579 571 635
3 571 636 635
3 571 631 636
3 635 637 579
3 637 572 579
3 637 632 572
3 633 638 575
3 575 638 580
3 581 580 638
3 581 638 639
3 582 634 578
3 582 640 634
3 641 583 584
3 636 642 635
3 641 584 585
3 635 642 637
3 639 643 581
3 581 643 586
3 582 586 640
3 640 586 643
3 641 587 583
3 587 641 585
3 646 645 644
3 645 647 644
3 645 646 590
3 646 589 590
3 646 648 589
3 590 591 645
3 591 647 645
3 591 649 647
3 648 650 589
3 589 650 592
3 591 592 649
3 649 592 650
3 653 652 651
3 651 654 653
3 655 597 598
3 655 598 656
3 598 657 656
3 598 599 657
3 659 658 601
3 658 599 601
3 658 657 599
3 661 660 659
3 659 660 658
3 661 662 660
3 663 603 604
3 664 663 652
3 604 652 663
3 652 604 651
3 605 651 604
3 651 605 665
3 654 651 666
3 666 651 665
3 667 607 655
3 655 607 597
3 655 656 668
3 655 668 667
3 609 669 659
3 609 659 601
3 671 661 670
3 661 669 670
3 661 659 669
3 661 671 662
3 672 610 663
3 663 610 603
3 665 605 673
3 611 673 605
3 674 663 664
3 663 674 672
3 666 665 675
3 675 665 673
3 676 613 614
3 677 676 614
3 677 614 607
3 678 677 607
3 667 678 607
3 678 667 668
3 617 679 669
3 617 669 609
3 670 669 680
3 680 669 679
3 681 618 672
3 672 618 610
3 673 611 682
3 619 682 611
3 683 672 674
3 672 683 681
3 675 673 684
3 684 673 682
3 685 620 676
3 676 620 613
3 676 677 686
3 676 686 685
3 622 687 621
3 687 688 621
3 621 688 617
3 688 689 617
3 689 679 617
3 679 689 680
3 690 623 681
3 681 623 618
3 682 619 691
3 624 691 619
3 692 681 683
3 681 692 690
3 684 682 693
3 693 682 691
3 685 625 620
3 627 625 685
3 686 627 685
3 694 627 686
3 628 687 622
3 628 630 687
3 630 688 687
3 630 695 688
3 697 696 690
3 696 623 690
3 696 631 623
3 692 697 690
3 699 691 698
3 624 698 691
3 698 624 632
3 691 699 693
3 694 633 627
3 700 633 694
3 634 695 630
3 634 701 695
3 696 636 631
3 702 636 696
3 637 698 632
3 637 703 698
3 700 704 633
3 633 704 638
3 639 638 704
3 639 704 705
3 640 707 706
3 701 640 706
3 634 640 701
3 707 708 706
3 642 636 709
3 636 710 709
3 636 702 710
3 709 711 642
3 711 637 642
3 711 703 637
3 705 712 639
3 639 712 643
3 640 643 707
3 643 713 707
3 643 712 713
3 707 713 708
3 709 710 644
3 710 646 644
3 710 714 646
3 644 647 709
3 647 711 709
3 647 715 711
3 717 648 716
3 648 714 716
3 648 646 714
3 716 715 717
3 715 649 717
3 715 647 649
3 717 650 648
3 650 717 649
3 718 652 653
3 654 718 653
3 719 656 657
3 719 657 720
3 657 721 720
3 657 658 721
3 722 658 660
3 722 721 658
3 660 662 722
3 722 662 723
3 725 724 718
3 724 652 718
3 724 664 652
3 654 666 718
3 666 726 718
3 726 725 718
3 726 666 727
3 727 728 726
3 729 668 719
3 719 668 656
3 719 720 730
3 719 730 729
3 670 731 671
3 731 732 671
3 732 662 671
3 732 723 662
3 724 674 664
3 733 674 724
3 735 734 727
3 666 735 727
3 675 735 666
3 727 734 728
3 736 677 678
3 737 736 678
3 737 678 668
3 738 737 668
3 729 738 668
3 738 729 730
3 740 739 731
3 670 740 731
3 680 740 670
3 731 739 732
3 733 683 674
3 741 683 733
3 684 735 675
3 684 742 735
3 743 686 736
3 736 686 677
3 736 737 744
3 736 744 743
3 688 745 689
3 745 746 689
3 746 680 689
3 746 740 680
3 741 692 683
3 747 692 741
3 693 742 684
3 693 748 742
3 749 694 743
3 743 694 686
3 743 744 750
3 743 750 749
3 695 751 745
3 695 745 688
3 746 745 752
3 752 745 751
3 753 696 697
3 754 699 698
3 692 753 697
3 753 692 755
3 747 755 692
3 754 756 699
3 756 693 699
3 756 748 693
3 757 700 749
3 749 700 694
3 749 750 758
3 749 758 757
3 701 759 751
3 701 751 695
3 752 751 760
3 760 751 759
3 762 761 753
3 761 696 753
3 761 702 696
3 703 763 698
3 703 753 763
3 753 703 762
3 764 762 703
3 762 764 755
3 763 755 764
3 764 754 763
3 763 754 698
3 753 755 763
3 756 754 765
3 765 754 764
3 757 704 700
3 767 766 705
3 767 705 704
3 758 767 704
3 757 758 704
3 701 706 759
3 766 767 768
3 706 708 759
3 708 760 759
3 708 769 760
3 771 710 770
3 710 761 770
3 710 702 761
3 770 772 764
3 711 770 764
3 703 711 764
3 771 770 711
3 764 772 765
3 766 712 705
3 713 712 766
3 773 713 766
3 768 773 766
3 774 713 773
3 774 775 713
3 775 708 713
3 775 769 708
3 776 714 771
3 771 714 710
3 715 776 711
3 711 776 771
3 773 777 774
3 774 777 775
3 776 716 714
3 716 776 715
3 778 720 721
3 722 779 721
3 721 779 778
3 723 779 722
3 780 724 725
3 780 725 781
3 725 782 781
3 725 726 782
3 726 728 782
3 782 728 783
3 784 730 778
3 778 730 720
3 779 786 785
3 784 779 785
3 778 779 784
3 779 723 786
3 723 787 786
3 723 732 787
3 788 733 780
3 780 733 724
3 790 789 781
3 789 791 781
3 734 781 791
3 781 734 780
3 735 780 734
3 780 735 789
3 789 788 780
3 790 788 789
3 789 735 791
3 791 792 734
3 792 728 734
3 792 783 728
3 793 737 738
3 730 784 738
3 784 793 738
3 784 794 793
3 796 795 785
3 795 797 785
3 739 785 797
3 785 739 784
3 740 784 739
3 784 740 795
3 795 794 784
3 796 794 795
3 795 740 797
3 797 798 739
3 798 732 739
3 798 787 732
3 799 741 788
3 788 741 733
3 791 735 800
3 742 800 735
3 801 788 790
3 788 801 799
3 792 791 802
3 802 791 800
3 803 744 793
3 793 744 737
3 794 805 804
3 803 794 804
3 793 794 803
3 746 806 740
3 746 794 806
3 794 746 805
3 807 805 746
3 805 807 796
3 806 796 807
3 807 797 806
3 806 797 740
3 794 796 806
3 798 797 808
3 808 797 807
3 810 809 799
3 809 741 799
3 809 747 741
3 801 810 799
3 812 800 811
3 742 811 800
3 811 742 748
3 800 812 802
3 813 750 803
3 803 750 744
3 803 804 814
3 803 814 813
3 752 815 807
3 752 807 746
3 808 807 816
3 816 807 815
3 809 755 747
3 817 755 809
3 756 811 748
3 756 818 811
3 819 758 813
3 813 758 750
3 813 814 820
3 813 820 819
3 760 821 815
3 760 815 752
3 816 815 822
3 822 815 821
3 823 761 762
3 755 817 824
3 823 755 824
3 825 823 824
3 762 755 823
3 824 818 825
3 818 765 825
3 818 756 765
3 819 767 758
3 768 767 819
3 820 768 819
3 826 768 820
3 769 827 821
3 769 821 760
3 822 821 828
3 828 821 827
3 823 770 761
3 770 823 772
3 772 823 825
3 772 825 765
3 830 773 829
3 773 826 829
3 773 768 826
3 829 831 827
3 775 829 827
3 769 775 827
3 830 829 775
3 827 831 828
3 830 777 773
3 777 830 775
3 832 781 782
3 783 832 782
3 833 785 786
3 787 833 786
3 834 790 832
3 832 790 781
3 792 834 783
3 783 834 832
3 836 835 833
3 835 785 833
3 835 796 785
3 833 787 836
3 787 837 836
3 787 798 837
3 838 801 834
3 834 801 790
3 802 838 792
3 792 838 834
3 839 804 805
3 840 839 805
3 796 840 805
3 835 840 796
3 808 837 798
3 808 841 837
3 842 809 810
3 810 801 842
3 801 838 842
3 812 811 842
3 812 842 838
3 812 838 802
3 843 814 839
3 839 814 804
3 839 840 844
3 839 844 843
3 816 841 808
3 816 845 841
3 846 817 842
3 842 817 809
3 818 846 811
3 811 846 842
3 847 820 843
3 843 820 814
3 843 844 848
3 843 848 847
3 822 845 816
3 822 849 845
3 846 824 817
3 824 846 818
3 850 826 847
3 847 826 820
3 847 848 851
3 847 851 850
3 828 849 822
3 828 852 849
3 854 829 853
3 829 826 853
3 853 826 850
3 855 853 850
3 850 851 855
3 857 854 856
3 854 857 829
3 831 829 857
3 828 831 852
3 852 831 857
3 853 858 854
3 854 858 856
3 859 835 836
3 837 859 836
3 860 840 859
3 859 840 835
3 841 860 837
3 837 860 859
3 862 861 860
3 861 840 860
3 861 844 840
3 860 841 862
3 841 863 862
3 841 845 863
3 861 848 844
3 864 848 861
3 849 863 845
3 849 865 863
3 864 851 848
3 866 851 864
3 852 865 849
3 852 867 865
3 868 853 855
3 857 856 869
3 868 869 856
3 869 868 866
3 855 866 868
3 866 855 851
3 852 857 867
3 867 857 869
3 868 858 853
3 858 868 856
3 870 861 862
3 863 870 862
3 871 864 870
3 870 864 861
3 865 871 863
3 863 871 870
3 872 866 871
3 871 866 864
3 867 872 865
3 865 872 871
3 872 869 866
3 869 872 867
