ply
format ascii 1.0
comment None
element vertex 683
property float x
property float y
property float z
element face 1474
property list uchar int vertex_indices
end_header
33.190 29.595 39.558
33.536 29.383 39.373
33.642 29.219 39.382
33.329 29.425 39.595
33.010 29.751 39.733
33.275 29.550 39.779
33.318 29.681 39.620
32.836 30.030 39.838
32.974 30.062 39.901
32.896 29.993 39.935
32.593 30.349 40.019
32.632 30.348 40.050
32.577 30.333 40.026
32.492 30.457 40.087
34.066 29.112 39.208
34.226 28.914 39.248
33.958 29.021 39.690
33.643 29.492 40.003
33.858 29.352 39.397
33.032 30.025 39.981
34.041 29.516 39.814
32.616 30.333 40.057
34.769 28.351 40.086
35.103 28.189 39.658
35.284 27.957 40.024
35.271 27.896 40.864
34.864 28.372 40.813
35.176 28.250 41.363
34.828 28.878 39.097
34.942 28.556 39.321
35.369 29.086 39.828
35.071 29.098 39.605
34.992 29.294 39.905
35.663 29.202 40.163
34.448 28.898 40.440
35.060 28.754 41.159
34.695 29.103 39.291
35.150 29.549 40.310
34.488 29.357 40.378
34.937 29.184 40.864
35.201 29.525 40.781
36.517 15.123 35.923
36.515 15.123 35.929
36.530 15.181 36.123
36.539 15.216 36.137
36.517 15.126 35.910
35.817 27.316 41.475
36.167 26.934 40.824
36.317 26.801 41.588
36.147 26.942 42.253
35.842 27.471 42.288
36.108 27.418 42.720
35.631 28.154 39.495
35.941 27.517 40.239
36.386 28.247 40.995
36.476 28.315 40.672
36.165 28.693 40.619
36.496 28.292 41.323
35.564 27.923 41.888
35.995 27.906 42.565
35.626 28.793 39.008
35.787 28.555 39.084
35.982 28.756 39.854
35.699 28.866 39.348
36.142 29.154 40.509
35.539 28.572 41.770
36.381 28.844 40.901
35.890 28.344 42.268
35.693 29.014 39.213
36.235 29.811 40.364
36.513 29.133 40.608
35.883 29.478 41.398
36.126 28.879 42.066
35.906 30.029 40.852
36.558 15.261 36.406
36.525 15.190 36.141
36.578 15.315 36.496
36.674 15.440 36.918
36.632 15.441 36.762
36.801 15.589 37.407
36.838 15.762 37.577
37.129 15.871 38.179
37.221 16.333 34.187
37.164 16.220 34.039
37.158 16.217 34.040
37.219 16.331 34.189
36.527 15.191 36.059
36.537 15.253 36.213
36.618 15.486 36.598
36.832 16.037 37.452
36.874 16.176 37.311
37.116 16.194 38.238
37.243 16.348 34.183
37.393 16.617 34.516
37.367 16.629 34.591
37.304 16.512 34.447
37.488 16.943 35.114
37.081 16.881 37.709
37.237 17.009 37.478
37.114 16.661 38.156
37.579 17.039 35.126
37.291 17.383 37.345
37.449 17.555 36.912
37.450 17.413 36.796
37.293 17.561 37.804
37.416 17.506 38.415
37.570 17.913 37.370
37.452 18.147 38.107
36.563 22.362 39.427
36.795 22.233 38.736
36.632 21.928 39.095
36.773 21.877 39.643
36.664 22.461 40.157
36.939 22.162 40.335
36.638 22.923 39.245
36.914 22.873 38.776
36.581 23.047 40.049
36.982 22.573 40.804
36.754 23.078 40.834
37.143 23.146 41.452
36.912 23.454 39.098
36.733 23.830 39.870
37.085 24.115 39.304
36.710 23.952 41.046
36.916 23.622 41.526
37.139 24.605 39.791
36.712 24.982 40.966
37.035 25.320 40.356
36.980 24.338 42.029
36.798 25.070 42.058
37.114 24.970 42.395
36.582 26.170 41.485
36.640 26.320 40.576
36.509 26.099 42.139
37.145 25.310 42.647
36.847 25.998 42.792
37.311 25.622 43.115
36.449 26.874 40.215
36.454 26.629 42.009
36.665 27.383 41.956
36.630 26.870 41.722
36.923 26.455 42.211
37.124 27.240 42.713
36.531 27.004 42.892
37.189 26.924 43.282
36.653 28.126 39.493
36.700 27.205 39.785
36.628 27.669 41.314
37.085 27.773 40.852
36.791 28.282 41.845
36.453 27.841 42.965
37.163 28.209 42.335
37.016 27.826 43.239
36.239 28.816 38.985
36.448 28.690 39.192
36.002 28.505 39.299
36.263 28.962 39.716
36.899 28.711 40.438
36.823 28.893 41.466
37.037 28.603 41.941
36.604 28.568 42.545
36.943 28.331 43.050
36.435 29.096 39.187
36.528 29.463 39.692
37.033 30.250 40.402
37.107 29.406 41.047
37.000 29.500 42.000
37.022 30.134 41.478
36.627 30.890 40.950
36.931 31.030 40.815
36.665 30.668 41.281
37.075 31.623 41.120
37.317 31.790 41.170
37.164 31.593 41.329
37.459 32.103 41.399
36.567 15.325 36.409
36.729 15.627 36.995
37.019 15.778 37.803
37.225 16.322 34.162
37.101 16.263 37.802
37.701 16.310 39.136
37.675 16.032 38.974
37.414 16.120 38.520
38.186 16.248 39.692
37.420 16.634 34.514
37.403 16.659 34.608
37.641 17.151 35.314
37.304 16.849 37.977
37.519 16.883 38.925
37.546 16.645 38.617
38.516 16.493 40.021
38.142 16.923 39.742
38.901 16.953 40.350
37.698 17.100 35.035
37.635 17.395 36.021
37.643 17.516 36.178
37.979 17.677 35.740
37.663 17.665 36.935
37.576 17.619 37.987
37.777 18.116 37.420
37.707 17.187 38.979
37.952 17.712 39.584
38.288 17.602 39.517
38.546 17.481 40.122
38.151 18.306 36.625
37.889 18.586 37.461
38.451 19.003 36.932
37.632 18.310 37.825
38.030 18.535 37.837
37.605 19.018 38.088
38.058 18.219 38.822
37.633 18.564 39.000
37.870 18.889 39.795
38.484 18.413 40.141
38.166 19.415 37.556
37.681 19.882 37.910
37.296 20.154 38.647
37.426 20.429 37.967
37.537 19.913 39.661
38.201 19.913 40.270
37.269 20.938 38.092
37.881 21.144 37.548
37.514 20.734 37.749
36.909 21.400 38.808
37.197 21.075 39.629
37.680 20.933 40.326
37.297 21.730 38.102
38.141 22.060 37.616
37.550 22.590 39.316
37.821 21.817 39.394
38.199 22.346 38.741
37.345 22.035 40.208
37.670 21.347 39.966
37.450 22.095 40.833
37.936 21.635 40.652
37.778 21.560 40.850
38.129 22.045 41.286
37.481 22.631 38.260
38.317 22.735 37.805
37.845 23.080 38.579
37.322 23.275 38.996
37.348 23.115 40.077
37.759 22.199 41.046
37.473 22.797 41.134
37.839 23.254 42.073
38.074 22.674 41.587
38.385 22.731 41.907
38.538 23.311 42.395
38.059 23.136 38.164
37.417 23.895 38.915
37.899 23.742 38.769
38.149 23.964 38.577
37.448 24.267 39.771
38.273 24.496 39.012
37.513 23.874 41.083
37.296 23.833 42.148
38.075 23.325 41.794
38.396 23.706 42.684
37.835 24.072 42.740
38.380 24.157 43.064
37.687 24.903 39.236
38.538 25.001 38.916
37.842 24.937 39.392
37.394 25.141 40.793
37.842 23.979 41.986
37.526 24.632 41.863
38.069 24.447 42.511
37.377 24.783 42.706
37.987 24.848 43.211
38.325 25.397 39.137
38.124 25.958 39.365
37.306 25.739 39.815
37.648 25.433 39.810
37.853 26.041 40.305
37.413 26.098 41.072
37.246 25.505 42.030
37.455 24.926 42.464
37.711 25.304 42.813
37.660 25.897 43.360
37.084 26.520 39.820
37.590 27.063 39.467
37.787 27.001 40.659
37.048 26.772 41.451
37.353 27.032 43.228
37.408 26.246 43.052
38.125 27.732 39.366
37.914 28.078 40.520
37.595 28.059 42.937
37.533 27.734 43.300
37.818 28.179 43.305
36.971 28.976 39.192
38.107 28.713 39.419
38.080 29.095 40.462
37.500 29.000 42.000
37.374 28.774 42.760
37.732 28.826 42.548
37.625 28.574 43.156
37.625 29.444 39.835
37.528 30.150 40.982
37.500 30.000 42.000
38.000 29.500 42.000
38.186 30.440 41.565
38.127 29.245 42.782
38.416 30.192 42.448
37.446 31.141 41.046
37.790 30.852 41.255
37.605 31.414 41.625
38.138 30.955 42.076
37.589 31.799 41.369
37.507 32.127 41.368
37.722 32.135 41.567
37.955 32.028 41.738
37.700 32.049 41.610
38.254 31.951 41.887
37.850 32.234 41.659
37.996 16.239 39.384
38.583 16.208 40.011
38.536 16.283 39.989
38.566 16.312 40.063
39.136 16.402 40.499
37.715 17.141 35.119
38.118 16.607 39.551
38.326 16.312 39.829
38.673 16.646 40.054
39.323 16.601 40.653
39.440 16.895 40.714
39.660 16.625 40.900
38.145 17.755 35.643
38.024 17.794 36.030
38.135 18.359 36.903
38.489 18.528 36.522
39.255 17.575 40.077
39.667 16.880 40.854
39.437 17.581 40.467
38.629 18.476 36.155
38.553 18.715 36.592
38.525 18.922 37.041
38.936 19.071 36.464
38.412 19.468 37.894
38.906 19.627 37.212
38.569 19.198 39.039
39.283 18.600 39.701
39.231 19.034 40.198
38.489 19.826 37.290
39.186 19.798 36.649
38.170 19.829 37.669
38.637 19.952 37.808
37.901 20.361 37.569
38.496 20.246 38.860
38.850 20.382 38.139
39.339 19.267 39.874
38.638 20.090 39.992
38.664 20.569 37.079
39.721 20.711 36.674
38.815 20.876 38.420
39.120 20.598 37.947
39.564 20.906 37.627
38.184 21.120 39.266
38.220 20.938 39.947
38.170 21.173 40.822
38.659 20.926 40.663
38.834 21.239 40.588
39.067 21.694 41.111
38.992 21.521 37.082
39.823 21.553 36.808
39.188 21.395 38.126
38.499 21.587 38.718
38.989 21.868 40.947
38.928 22.345 41.620
39.584 21.964 36.992
39.096 22.064 38.209
39.356 22.537 37.407
38.796 23.020 38.288
38.489 22.277 41.259
38.950 22.929 41.737
39.103 22.858 42.066
39.089 23.352 42.515
38.911 23.258 38.009
38.565 23.981 38.533
38.750 23.451 42.278
38.320 23.714 42.390
38.734 23.576 42.639
38.946 23.832 42.899
38.881 23.912 42.579
38.912 24.431 43.256
39.039 24.659 38.719
39.235 24.687 38.782
38.974 25.349 39.153
39.085 24.778 42.955
38.733 25.075 43.428
38.723 25.599 39.156
39.557 25.426 39.030
38.171 25.499 39.348
38.394 25.857 39.538
38.754 26.647 39.999
38.881 25.166 43.310
38.030 25.531 43.312
39.329 26.093 39.290
39.002 26.788 39.392
38.663 27.470 40.339
39.245 27.820 39.460
39.036 28.235 40.400
38.040 28.344 43.147
39.655 28.640 39.673
39.325 28.927 40.490
38.588 28.869 42.640
38.925 28.716 43.053
38.842 28.913 43.148
38.735 29.328 39.726
39.318 29.212 39.710
39.134 29.402 40.228
39.303 29.946 41.491
39.616 29.365 41.836
39.150 29.696 42.944
39.223 30.423 42.745
39.294 29.445 39.868
38.009 31.281 41.498
38.337 31.598 41.882
39.113 30.882 41.779
38.869 31.118 42.331
38.934 31.465 42.076
38.170 32.065 41.812
39.120 16.386 40.457
39.405 16.337 40.696
39.539 16.375 40.793
39.551 16.445 40.819
39.743 16.469 40.952
39.384 16.815 40.554
39.456 16.444 40.724
39.633 16.517 40.853
39.797 16.638 40.980
38.725 18.500 36.137
39.722 17.664 40.317
39.688 16.799 40.851
39.688 19.412 36.223
39.152 19.145 36.545
39.644 19.638 36.596
40.163 18.390 40.054
40.250 18.187 40.208
40.329 18.656 40.171
40.190 20.053 36.252
40.851 20.228 36.051
40.583 19.909 36.008
39.271 20.293 37.494
39.765 20.049 36.791
40.061 19.312 39.971
40.622 19.437 39.987
40.363 19.455 40.092
40.655 20.297 36.227
40.169 20.259 36.461
39.973 20.640 36.909
40.624 19.886 40.115
39.412 21.433 40.814
40.567 21.348 36.682
40.456 21.042 36.894
40.018 21.617 37.565
40.317 21.759 40.751
40.292 21.489 40.774
40.140 22.416 41.451
40.195 22.153 36.994
40.671 23.041 37.491
39.993 22.472 37.822
40.164 23.208 37.955
39.553 22.416 41.299
39.939 22.916 41.677
39.690 23.037 42.151
39.672 23.579 42.509
40.186 23.377 37.862
40.000 23.500 42.000
39.940 24.252 42.643
39.627 24.150 42.986
39.954 24.639 43.280
40.326 24.839 38.783
40.298 24.744 38.745
40.380 25.298 39.127
40.333 25.196 42.982
39.933 25.119 43.420
40.673 25.529 39.213
39.170 26.203 39.462
40.056 25.995 39.407
39.992 25.283 43.288
40.185 26.176 39.362
39.730 26.453 39.407
39.642 26.557 39.636
39.953 26.977 39.491
39.797 27.252 40.104
40.377 27.788 39.784
40.255 28.366 40.511
40.479 28.737 40.097
40.009 29.154 39.945
40.432 29.315 40.422
40.474 28.985 40.914
39.884 29.282 40.940
40.472 29.245 41.296
40.322 29.085 42.552
40.110 28.687 43.046
40.396 29.000 43.162
39.765 29.451 40.106
39.983 29.640 40.806
40.058 30.110 41.515
40.475 29.397 41.808
40.014 30.035 42.989
39.705 30.644 42.745
40.090 30.494 41.969
39.950 30.809 42.523
39.769 30.908 42.167
39.713 16.413 40.922
39.805 16.539 40.982
40.772 18.531 40.076
40.883 18.604 40.003
41.059 18.636 39.986
41.100 18.870 39.978
39.774 19.514 36.358
40.926 18.968 39.945
40.937 19.227 40.026
41.001 20.136 35.938
40.723 19.966 36.014
40.341 19.987 36.293
40.989 20.342 36.128
41.281 19.505 39.888
41.143 19.817 40.035
40.925 20.735 36.322
41.175 20.535 36.080
40.933 20.767 36.435
40.848 20.678 40.288
41.418 20.343 39.999
41.012 20.600 40.269
41.211 21.160 36.390
41.254 21.823 36.708
40.778 21.422 36.983
40.805 22.086 37.346
41.250 21.200 40.281
41.456 21.823 40.441
41.070 21.749 40.719
41.258 22.436 41.027
41.006 22.333 37.001
41.350 22.975 37.364
40.895 22.805 37.654
41.099 23.361 37.896
40.697 22.709 41.309
41.544 22.557 40.834
40.500 23.000 42.000
41.225 23.043 41.458
40.812 24.041 38.222
41.398 23.653 37.900
41.009 24.033 38.324
41.540 23.141 41.262
40.500 24.000 42.000
41.000 23.500 42.000
41.691 23.881 41.708
41.424 24.177 42.556
40.408 24.274 42.821
41.295 24.447 38.574
41.305 25.106 39.108
41.005 24.883 38.935
41.271 25.506 39.408
41.323 24.437 42.086
40.942 24.533 43.070
41.029 24.984 42.513
41.131 25.053 43.265
41.389 25.640 39.486
40.828 25.989 39.489
40.855 25.927 43.222
41.140 26.038 42.949
40.950 25.632 43.330
40.849 26.667 39.695
40.756 26.433 39.753
41.111 26.932 40.032
41.224 26.917 43.169
41.411 27.117 42.964
41.472 26.581 43.262
41.020 27.244 39.951
40.845 28.170 40.277
40.974 27.984 43.123
41.216 28.203 42.904
41.410 27.846 43.247
40.991 29.023 40.666
40.939 28.938 40.884
40.957 29.348 41.327
41.529 28.823 42.781
41.476 28.807 43.230
40.812 29.501 41.094
40.667 29.786 41.930
40.424 30.334 42.885
41.455 29.575 42.665
41.135 29.637 43.095
40.575 30.362 42.372
41.156 30.088 42.824
41.245 18.806 39.918
41.381 19.133 39.859
41.451 19.109 39.859
41.467 19.531 39.901
41.144 20.323 36.002
41.660 19.814 39.829
41.591 20.379 40.017
41.282 20.900 36.292
41.828 20.499 39.908
41.645 21.331 40.312
41.472 21.726 36.673
41.284 21.668 36.831
41.389 22.506 37.317
41.796 21.313 40.163
41.902 22.136 40.467
41.664 22.100 40.659
41.825 22.740 41.014
41.538 22.500 37.075
41.649 23.167 37.512
41.430 23.072 37.648
41.533 23.552 37.927
42.104 22.711 40.767
41.882 23.388 41.574
41.692 23.534 37.835
41.586 24.144 38.382
42.149 23.377 41.220
42.388 23.951 41.565
41.903 23.830 42.079
42.294 24.173 42.357
41.716 24.841 39.018
41.609 24.838 39.022
41.851 25.348 39.492
41.911 24.869 42.183
42.565 24.480 41.901
41.633 24.648 43.019
42.318 24.587 42.767
41.772 25.393 39.451
41.804 25.692 39.697
41.504 26.025 39.756
41.535 26.065 39.747
41.748 26.082 39.869
42.545 25.281 42.348
42.044 25.033 43.074
41.905 26.131 42.672
42.205 25.955 43.061
41.365 26.619 39.899
41.677 26.247 39.899
41.853 27.385 42.853
42.005 27.251 43.224
42.055 28.160 42.862
42.098 28.233 43.226
41.330 29.103 40.937
41.320 29.166 41.073
41.293 29.283 41.113
42.247 28.891 42.859
42.087 29.081 43.178
41.303 29.220 40.977
42.425 29.367 42.924
42.026 29.614 43.056
42.027 29.704 42.922
41.648 19.492 39.810
41.792 20.091 39.855
41.897 20.959 40.053
41.590 22.296 37.044
42.014 22.092 40.503
41.670 22.981 37.468
42.294 23.201 41.172
42.692 23.986 41.639
42.529 23.916 41.882
42.792 24.417 42.390
41.923 25.189 39.385
42.999 24.488 41.969
42.820 24.769 42.697
42.542 25.068 42.924
42.807 25.138 42.767
41.912 25.679 39.703
42.941 24.844 42.170
42.503 26.128 42.740
42.852 25.251 42.540
42.399 27.251 42.852
42.561 26.929 42.959
42.525 27.597 43.112
42.606 28.243 42.925
42.615 28.618 43.142
41.447 29.182 41.037
42.756 28.893 42.977
42.611 29.230 43.103
42.777 29.249 43.030
42.508 29.504 43.025
42.999 24.382 42.078
43.104 24.738 42.227
43.031 24.765 42.459
42.689 27.697 42.980
42.803 28.367 43.040
42.855 28.927 43.068
3 2 1 0
3 4 3 0
3 0 3 2
3 4 5 3
3 1 6 0
3 8 7 6
3 7 0 6
3 7 4 0
3 5 4 9
3 9 4 7
3 7 8 10
3 10 8 11
3 9 7 12
3 12 7 10
3 11 13 10
3 10 13 12
3 15 14 2
3 2 14 1
3 16 2 3
3 16 15 2
3 3 5 16
3 16 5 17
3 14 18 1
3 1 18 6
3 20 19 8
3 6 20 8
3 18 20 6
3 20 17 19
3 17 9 19
3 17 5 9
3 21 11 19
3 19 11 8
3 12 21 9
3 9 21 19
3 21 13 11
3 13 21 12
3 24 23 22
3 26 25 22
3 22 25 24
3 26 27 25
3 29 28 15
3 15 28 14
3 32 31 30
3 29 22 23
3 22 29 16
3 15 16 29
3 30 33 32
3 34 16 17
3 16 34 22
3 26 22 34
3 27 26 35
3 35 26 34
3 28 36 14
3 14 36 18
3 32 20 31
3 20 36 31
3 20 18 36
3 37 32 33
3 32 37 20
3 38 20 37
3 20 38 17
3 34 17 38
3 35 34 39
3 39 34 38
3 37 40 38
3 38 40 39
3 43 42 41
3 41 44 43
3 42 45 41
3 41 45 44
3 48 47 46
3 50 49 46
3 46 49 48
3 50 51 49
3 53 52 24
3 24 52 23
3 56 55 54
3 53 46 47
3 46 53 25
3 24 25 53
3 54 57 56
3 58 25 27
3 25 58 46
3 50 46 58
3 51 50 59
3 59 50 58
3 61 60 29
3 29 60 28
3 30 31 62
3 63 62 31
3 52 29 23
3 29 52 61
3 56 64 33
3 62 56 33
3 30 62 33
3 55 56 62
3 58 27 65
3 35 65 27
3 66 56 57
3 56 66 64
3 59 58 67
3 67 58 65
3 60 68 28
3 28 68 36
3 31 36 63
3 63 36 68
3 70 69 64
3 69 33 64
3 69 37 33
3 66 70 64
3 72 65 71
3 35 71 65
3 71 35 39
3 65 72 67
3 69 73 37
3 37 73 40
3 39 40 71
3 71 40 73
3 76 75 74
3 78 77 74
3 74 77 76
3 80 79 78
3 78 79 77
3 80 81 79
3 84 83 82
3 82 85 84
3 87 86 75
3 86 42 75
3 43 74 75
3 43 75 42
3 88 86 87
3 86 88 44
3 78 44 88
3 44 78 43
3 74 43 78
3 90 89 88
3 89 78 88
3 89 80 78
3 81 80 91
3 91 80 89
3 83 92 82
3 92 93 82
3 93 94 82
3 95 85 82
3 95 82 94
3 86 45 42
3 96 95 94
3 45 86 44
3 89 90 97
3 97 90 98
3 91 89 99
3 99 89 97
3 93 100 94
3 94 100 96
3 103 102 101
3 103 101 98
3 101 97 98
3 101 104 97
3 99 97 105
3 105 97 104
3 102 106 101
3 101 106 104
3 104 106 107
3 104 107 105
3 110 109 108
3 112 111 108
3 108 111 110
3 112 113 111
3 108 109 114
3 114 109 115
3 108 116 112
3 108 114 116
3 113 112 117
3 112 118 117
3 112 116 118
3 118 119 117
3 115 120 114
3 122 121 120
3 121 114 120
3 121 116 114
3 116 123 118
3 116 121 123
3 119 118 124
3 124 118 123
3 122 125 121
3 127 126 125
3 126 121 125
3 126 123 121
3 124 123 128
3 123 129 128
3 123 126 129
3 129 130 128
3 126 127 131
3 131 127 132
3 126 133 129
3 126 131 133
3 130 129 134
3 129 135 134
3 129 133 135
3 135 136 134
3 131 132 48
3 132 47 48
3 132 137 47
3 49 138 48
3 138 139 48
3 140 48 139
3 48 140 131
3 141 131 140
3 131 141 138
3 138 133 131
3 49 133 138
3 138 141 139
3 141 142 139
3 143 49 51
3 49 143 133
3 135 133 143
3 136 135 144
3 144 135 143
3 146 145 53
3 53 145 52
3 54 55 147
3 148 147 55
3 137 53 47
3 53 137 146
3 139 149 57
3 147 139 57
3 54 147 57
3 140 139 147
3 143 51 150
3 59 150 51
3 151 139 142
3 139 151 149
3 144 143 152
3 152 143 150
3 154 153 61
3 61 153 60
3 145 155 52
3 145 62 155
3 62 145 156
3 154 156 145
3 156 154 63
3 155 63 154
3 154 61 155
3 155 61 52
3 62 63 155
3 156 157 62
3 157 55 62
3 157 148 55
3 159 158 149
3 158 57 149
3 158 66 57
3 151 159 149
3 161 150 160
3 59 160 150
3 160 59 67
3 150 161 152
3 153 162 60
3 60 162 68
3 63 68 156
3 68 163 156
3 68 162 163
3 69 163 164
3 163 69 156
3 70 156 69
3 156 70 157
3 165 157 70
3 72 71 166
3 167 166 71
3 158 70 66
3 70 158 165
3 67 72 160
3 160 72 166
3 73 69 168
3 69 169 168
3 69 164 169
3 168 170 73
3 170 71 73
3 170 167 71
3 168 169 171
3 171 169 172
3 170 168 173
3 173 168 171
3 172 174 171
3 171 174 173
3 175 75 76
3 77 176 76
3 76 176 175
3 79 177 77
3 77 177 176
3 81 177 79
3 178 83 84
3 85 178 84
3 175 87 75
3 87 175 88
3 88 175 176
3 88 176 90
3 176 179 90
3 176 177 179
3 91 180 81
3 181 81 180
3 81 181 177
3 182 177 181
3 177 182 179
3 180 183 181
3 178 92 83
3 93 92 184
3 178 184 92
3 184 178 185
3 85 185 178
3 185 85 95
3 95 96 185
3 185 96 186
3 187 98 179
3 179 98 90
3 180 91 188
3 99 188 91
3 189 179 182
3 179 189 187
3 183 180 190
3 180 191 190
3 180 188 191
3 191 192 190
3 184 193 93
3 93 193 100
3 96 194 186
3 194 96 195
3 100 195 96
3 195 100 196
3 193 196 100
3 102 103 195
3 103 194 195
3 103 197 194
3 197 103 98
3 198 197 98
3 187 198 98
3 197 198 199
3 105 188 99
3 188 105 200
3 198 200 105
3 200 198 189
3 187 189 198
3 202 201 200
3 201 188 200
3 201 191 188
3 192 191 203
3 203 191 201
3 196 204 195
3 204 206 205
3 204 205 106
3 195 204 106
3 102 195 106
3 106 207 107
3 106 198 207
3 198 106 199
3 205 199 106
3 199 205 208
3 207 208 205
3 205 209 207
3 207 209 107
3 198 208 207
3 208 198 210
3 105 210 198
3 210 105 211
3 107 211 105
3 211 107 209
3 210 211 202
3 211 201 202
3 211 212 201
3 203 201 213
3 213 201 212
3 206 214 205
3 205 214 209
3 209 214 215
3 217 216 215
3 216 209 215
3 216 211 209
3 211 218 212
3 211 216 218
3 213 212 219
3 219 212 218
3 222 221 220
3 222 220 217
3 220 216 217
3 220 223 216
3 216 224 218
3 216 223 224
3 219 218 225
3 225 218 224
3 220 221 226
3 226 221 227
3 230 229 228
3 223 109 110
3 109 223 226
3 220 226 223
3 232 231 229
3 228 229 231
3 223 111 224
3 111 223 110
3 231 113 233
3 113 231 111
3 224 111 231
3 232 224 231
3 224 232 225
3 234 225 232
3 225 234 235
3 233 235 234
3 231 233 234
3 233 236 235
3 226 227 237
3 237 227 238
3 237 109 226
3 109 237 115
3 230 228 239
3 240 239 228
3 241 228 231
3 240 228 241
3 233 113 117
3 234 242 231
3 243 231 242
3 231 243 241
3 243 119 244
3 119 243 117
3 233 117 243
3 242 233 243
3 233 242 236
3 245 236 242
3 236 245 246
3 244 246 245
3 243 244 245
3 244 247 246
3 238 248 237
3 240 115 237
3 115 240 120
3 249 120 240
3 250 249 240
3 249 250 251
3 239 251 250
3 251 239 248
3 237 248 239
3 240 237 239
3 249 122 120
3 253 250 252
3 240 252 250
3 252 240 241
3 254 241 243
3 252 241 254
3 244 119 255
3 124 255 119
3 256 243 245
3 243 256 254
3 247 244 257
3 244 258 257
3 244 255 258
3 258 259 257
3 249 251 260
3 260 251 261
3 253 252 262
3 125 262 252
3 262 125 260
3 122 260 125
3 260 122 249
3 125 252 127
3 252 263 127
3 252 254 263
3 255 124 128
3 256 264 254
3 265 254 264
3 254 265 263
3 264 266 265
3 267 128 130
3 128 267 255
3 258 255 267
3 259 258 268
3 268 258 267
3 261 269 260
3 269 270 260
3 270 271 260
3 272 262 260
3 272 260 271
3 127 271 132
3 271 127 272
3 263 272 127
3 272 263 273
3 274 273 263
3 275 263 265
3 274 263 275
3 277 276 266
3 277 267 276
3 267 277 134
3 275 134 277
3 134 275 130
3 276 130 275
3 275 265 276
3 276 265 266
3 267 130 276
3 134 136 267
3 136 268 267
3 136 278 268
3 271 270 279
3 279 270 280
3 279 132 271
3 132 279 137
3 273 274 281
3 282 281 274
3 140 282 141
3 282 275 141
3 282 274 275
3 284 283 142
3 284 142 141
3 277 284 141
3 275 277 141
3 284 278 283
3 278 144 283
3 278 136 144
3 279 280 146
3 280 145 146
3 280 285 145
3 279 146 137
3 148 282 147
3 282 148 281
3 286 281 148
3 147 282 140
3 288 287 283
3 287 142 283
3 287 151 142
3 283 144 288
3 144 289 288
3 144 152 289
3 290 153 154
3 291 290 154
3 145 291 154
3 285 291 145
3 157 286 148
3 157 292 286
3 293 158 159
3 294 161 160
3 151 293 159
3 293 151 295
3 287 295 151
3 294 296 161
3 296 152 161
3 296 289 152
3 290 162 153
3 291 297 290
3 297 162 290
3 297 163 162
3 157 165 292
3 298 292 165
3 292 298 297
3 164 297 298
3 297 164 163
3 293 300 299
3 301 299 300
3 299 301 298
3 299 298 167
3 165 167 298
3 167 165 166
3 158 166 165
3 166 158 293
3 166 293 299
3 293 166 299
3 166 293 160
3 294 160 293
3 295 294 293
3 294 295 302
3 300 302 295
3 302 300 303
3 299 303 300
3 293 299 300
3 294 302 296
3 305 304 298
3 304 164 298
3 304 169 164
3 301 305 298
3 307 299 306
3 167 306 299
3 306 167 170
3 299 307 303
3 309 172 308
3 172 304 308
3 172 169 304
3 309 308 310
3 306 312 311
3 312 306 173
3 170 173 306
3 312 313 311
3 309 174 172
3 309 310 174
3 310 314 174
3 312 173 174
3 312 174 314
3 312 314 313
3 315 182 181
3 317 315 316
3 315 181 316
3 183 318 316
3 183 316 181
3 318 319 316
3 320 184 185
3 186 320 185
3 321 189 315
3 315 189 182
3 323 322 317
3 323 318 322
3 318 323 190
3 321 190 323
3 190 321 183
3 322 183 321
3 321 315 322
3 322 315 317
3 318 183 322
3 325 324 192
3 192 324 190
3 324 319 190
3 319 318 190
3 325 326 324
3 320 193 184
3 196 193 327
3 320 327 193
3 327 320 328
3 186 328 320
3 328 186 194
3 330 328 329
3 328 197 329
3 328 194 197
3 199 329 197
3 321 200 189
3 202 200 321
3 323 202 321
3 331 202 323
3 333 332 325
3 192 333 325
3 203 333 192
3 325 332 326
3 327 334 196
3 196 334 204
3 334 335 204
3 335 330 204
3 329 204 330
3 204 329 206
3 336 206 329
3 206 336 335
3 335 337 206
3 334 337 335
3 335 336 330
3 339 336 338
3 338 336 208
3 336 329 208
3 329 199 208
3 210 340 208
3 208 340 338
3 341 340 210
3 202 341 210
3 331 341 202
3 213 333 203
3 213 342 333
3 214 206 343
3 206 344 343
3 206 337 344
3 214 345 215
3 214 338 345
3 338 214 339
3 343 339 214
3 339 343 346
3 345 346 343
3 343 347 345
3 345 347 215
3 338 346 345
3 347 217 215
3 349 346 348
3 338 348 346
3 348 338 340
3 340 341 350
3 351 340 350
3 348 340 351
3 350 342 351
3 342 219 351
3 342 213 219
3 343 344 352
3 352 344 353
3 356 355 354
3 347 221 222
3 221 347 352
3 343 352 347
3 347 222 217
3 355 349 354
3 348 354 349
3 354 348 357
3 358 348 351
3 357 348 358
3 225 359 219
3 360 219 359
3 219 360 351
3 361 351 360
3 351 361 358
3 359 362 360
3 352 353 363
3 363 353 364
3 363 221 352
3 221 363 227
3 356 354 365
3 366 365 354
3 230 366 229
3 366 357 229
3 366 354 357
3 229 357 232
3 232 357 358
3 225 235 359
3 232 358 234
3 361 234 358
3 234 361 367
3 235 236 359
3 236 362 359
3 236 368 362
3 364 369 363
3 366 370 365
3 371 363 369
3 363 371 227
3 238 227 371
3 366 230 370
3 230 372 370
3 230 239 372
3 367 373 234
3 234 373 242
3 373 245 242
3 245 373 374
3 236 246 368
3 375 368 246
3 246 247 375
3 375 247 376
3 371 377 238
3 238 377 248
3 239 250 372
3 378 372 250
3 372 378 377
3 251 377 378
3 377 251 248
3 253 378 250
3 380 256 379
3 256 374 379
3 256 245 374
3 382 381 257
3 381 383 257
3 380 257 383
3 257 380 247
3 379 247 380
3 247 379 381
3 381 376 247
3 382 376 381
3 381 379 383
3 257 259 382
3 382 259 384
3 386 385 378
3 385 251 378
3 385 261 251
3 378 253 386
3 253 387 386
3 253 262 387
3 380 264 256
3 266 264 380
3 383 266 380
3 388 266 383
3 268 384 259
3 268 389 384
3 269 261 390
3 261 391 390
3 261 385 391
3 393 392 272
3 393 270 392
3 270 393 390
3 387 390 393
3 390 387 269
3 392 269 387
3 387 262 392
3 392 262 272
3 270 269 392
3 272 273 393
3 393 273 394
3 396 277 395
3 277 388 395
3 277 266 388
3 395 389 396
3 389 278 396
3 389 268 278
3 391 397 390
3 270 390 397
3 398 270 397
3 280 270 398
3 281 394 273
3 281 399 394
3 396 284 277
3 284 396 278
3 398 285 280
3 400 285 398
3 286 399 281
3 286 401 399
3 402 287 288
3 289 402 288
3 400 291 285
3 403 291 400
3 292 401 286
3 292 404 401
3 406 405 402
3 405 287 402
3 405 295 287
3 402 289 406
3 289 407 406
3 289 296 407
3 297 291 408
3 291 409 408
3 291 403 409
3 408 410 297
3 410 292 297
3 410 404 292
3 412 411 300
3 300 411 301
3 302 303 413
3 414 413 303
3 405 300 295
3 300 405 412
3 296 302 407
3 407 302 413
3 409 415 408
3 416 304 305
3 415 410 408
3 417 307 306
3 301 416 305
3 416 301 418
3 411 418 301
3 417 419 307
3 419 303 307
3 419 414 303
3 416 308 304
3 416 418 417
3 420 417 418
3 417 420 421
3 417 421 311
3 310 311 421
3 311 310 306
3 308 306 310
3 306 308 416
3 306 416 417
3 421 420 313
3 420 419 313
3 417 311 313
3 417 313 419
3 421 314 310
3 314 421 313
3 422 317 316
3 424 422 423
3 422 316 423
3 319 425 423
3 319 423 316
3 425 426 423
3 427 323 422
3 422 323 317
3 429 428 424
3 429 425 428
3 425 429 324
3 427 324 429
3 324 427 319
3 428 319 427
3 427 422 428
3 428 422 424
3 425 319 428
3 324 326 425
3 326 426 425
3 326 430 426
3 431 327 328
3 330 431 328
3 432 331 427
3 427 331 323
3 433 332 333
3 427 433 333
3 432 427 333
3 433 427 429
3 326 332 430
3 430 332 433
3 431 334 327
3 337 334 434
3 431 434 334
3 434 431 435
3 330 435 431
3 435 330 336
3 336 339 435
3 435 339 436
3 438 437 432
3 437 331 432
3 437 341 331
3 432 333 438
3 333 439 438
3 333 342 439
3 442 441 440
3 434 442 440
3 344 434 440
3 337 434 344
3 339 346 443
3 444 339 443
3 436 339 444
3 349 443 346
3 350 341 445
3 341 446 445
3 341 437 446
3 445 447 350
3 447 342 350
3 447 439 342
3 441 448 440
3 353 344 440
3 449 353 440
3 448 449 440
3 353 449 450
3 450 449 444
3 450 444 443
3 356 450 443
3 355 356 443
3 355 443 349
3 446 451 445
3 452 361 360
3 451 447 445
3 362 452 360
3 454 453 450
3 453 353 450
3 453 364 353
3 450 356 454
3 356 455 454
3 356 365 455
3 457 456 452
3 456 361 452
3 456 367 361
3 452 362 457
3 362 458 457
3 362 368 458
3 453 459 364
3 364 459 369
3 459 371 369
3 371 459 460
3 365 370 455
3 461 455 370
3 370 372 461
3 461 372 462
3 456 463 367
3 367 463 373
3 463 374 373
3 374 463 464
3 368 375 458
3 465 458 375
3 375 376 465
3 465 376 466
3 460 467 371
3 371 467 377
3 372 377 462
3 462 377 467
3 464 468 374
3 374 468 379
3 468 383 379
3 383 468 469
3 376 382 466
3 470 466 382
3 382 384 470
3 470 384 471
3 473 472 386
3 386 472 385
3 386 387 473
3 473 387 474
3 469 388 383
3 475 388 469
3 389 471 384
3 389 476 471
3 472 391 385
3 477 391 472
3 387 393 478
3 479 387 478
3 474 387 479
3 394 478 393
3 475 480 388
3 388 480 395
3 389 395 476
3 476 395 480
3 477 481 391
3 391 481 397
3 481 482 397
3 482 479 397
3 478 397 479
3 397 478 398
3 483 398 478
3 398 483 482
3 482 484 398
3 481 484 482
3 482 483 479
3 478 394 483
3 394 485 483
3 394 399 485
3 484 400 398
3 486 400 484
3 401 485 399
3 401 487 485
3 489 403 488
3 403 486 488
3 403 400 486
3 489 488 490
3 487 492 491
3 492 487 404
3 401 404 487
3 492 493 491
3 495 494 406
3 406 494 405
3 406 407 495
3 495 407 496
3 497 409 489
3 489 409 403
3 410 492 404
3 492 410 498
3 497 498 410
3 498 497 490
3 489 490 497
3 411 498 499
3 498 411 492
3 412 492 411
3 492 412 493
3 500 493 412
3 413 414 501
3 502 501 414
3 494 412 405
3 412 494 500
3 407 413 496
3 496 413 501
3 497 415 409
3 415 497 410
3 499 418 411
3 503 418 499
3 419 502 414
3 419 504 502
3 503 505 418
3 418 505 420
3 419 420 504
3 504 420 505
3 506 424 423
3 426 506 423
3 507 429 506
3 506 429 424
3 430 507 426
3 426 507 506
3 510 509 508
3 507 433 429
3 511 510 508
3 433 507 430
3 512 434 435
3 436 512 435
3 508 509 438
3 509 437 438
3 509 513 437
3 438 439 508
3 439 511 508
3 439 514 511
3 516 515 442
3 442 515 441
3 516 442 434
3 517 516 434
3 512 517 434
3 516 517 518
3 444 517 436
3 436 517 512
3 513 446 437
3 519 446 513
3 447 514 439
3 447 520 514
3 448 441 521
3 441 522 521
3 441 515 522
3 523 518 517
3 448 523 517
3 449 448 517
3 523 448 521
3 449 517 444
3 451 446 524
3 446 525 524
3 446 519 525
3 524 526 451
3 526 447 451
3 526 520 447
3 522 527 521
3 453 527 528
3 527 453 521
3 454 521 453
3 521 454 523
3 529 523 454
3 454 455 529
3 529 455 530
3 525 531 524
3 456 531 532
3 531 456 524
3 457 524 456
3 524 457 526
3 533 526 457
3 457 458 533
3 533 458 534
3 528 535 453
3 453 535 459
3 535 460 459
3 460 535 536
3 455 461 530
3 537 530 461
3 461 462 537
3 537 462 538
3 463 456 539
3 456 540 539
3 456 532 540
3 464 463 539
3 465 541 458
3 542 458 541
3 458 542 534
3 466 541 465
3 467 460 543
3 460 544 543
3 460 536 544
3 543 545 467
3 545 462 467
3 545 538 462
3 540 546 539
3 541 464 539
3 464 541 468
3 547 468 541
3 548 547 541
3 547 548 549
3 542 549 548
3 549 542 546
3 539 546 542
3 541 539 542
3 551 550 547
3 548 547 550
3 547 548 541
3 547 541 468
3 466 468 541
3 468 466 469
3 470 469 466
3 469 470 551
3 469 551 547
3 471 551 470
3 544 552 543
3 472 552 553
3 552 472 543
3 473 543 472
3 543 473 545
3 554 545 473
3 473 474 554
3 554 474 555
3 549 556 547
3 551 557 550
3 558 547 556
3 547 558 469
3 475 469 558
3 551 471 557
3 471 559 557
3 471 476 559
3 561 477 560
3 477 553 560
3 477 472 553
3 560 555 561
3 555 479 561
3 555 474 479
3 480 475 562
3 475 563 562
3 475 558 563
3 562 564 480
3 564 476 480
3 564 559 476
3 561 481 477
3 484 481 565
3 561 565 481
3 565 561 566
3 479 566 561
3 566 479 483
3 483 485 566
3 566 485 567
3 562 563 568
3 568 563 569
3 564 562 570
3 570 562 568
3 572 486 571
3 486 565 571
3 486 484 565
3 571 567 572
3 567 487 572
3 567 485 487
3 568 569 573
3 573 569 574
3 570 568 575
3 575 568 573
3 572 488 486
3 490 488 576
3 572 576 488
3 576 572 577
3 487 577 572
3 577 487 491
3 491 493 577
3 577 493 578
3 573 574 495
3 574 494 495
3 574 579 494
3 495 496 573
3 496 575 573
3 496 580 575
3 576 581 490
3 490 581 498
3 493 500 578
3 582 578 500
3 578 582 581
3 499 581 582
3 581 499 498
3 583 501 502
3 494 582 500
3 582 494 584
3 579 584 494
3 583 585 501
3 585 496 501
3 585 580 496
3 586 503 582
3 582 503 499
3 504 583 502
3 583 504 587
3 586 587 504
3 587 586 584
3 582 584 586
3 583 587 585
3 586 505 503
3 505 586 504
3 588 509 510
3 511 588 510
3 590 589 588
3 589 509 588
3 589 513 509
3 588 511 590
3 511 591 590
3 511 514 591
3 592 515 516
3 518 592 516
3 589 519 513
3 593 519 589
3 520 591 514
3 520 594 591
3 595 522 592
3 592 522 515
3 523 595 518
3 518 595 592
3 593 525 519
3 596 525 593
3 526 594 520
3 526 597 594
3 595 527 522
3 528 527 598
3 595 598 527
3 598 595 599
3 523 599 595
3 599 523 529
3 529 530 599
3 599 530 600
3 596 601 525
3 525 601 531
3 601 532 531
3 532 601 602
3 526 533 597
3 603 597 533
3 533 534 603
3 603 534 604
3 598 605 528
3 528 605 535
3 605 536 535
3 536 605 606
3 530 537 600
3 607 600 537
3 537 538 607
3 607 538 608
3 602 540 532
3 609 540 602
3 542 604 534
3 542 610 604
3 612 544 611
3 544 606 611
3 544 536 606
3 611 608 612
3 608 545 612
3 608 538 545
3 609 613 540
3 540 613 546
3 613 549 546
3 549 613 614
3 542 548 610
3 615 610 548
3 548 550 615
3 615 550 616
3 612 552 544
3 553 552 617
3 612 617 552
3 617 612 618
3 545 618 612
3 618 545 554
3 554 555 618
3 618 555 619
3 556 549 620
3 549 621 620
3 549 614 621
3 558 556 620
3 557 622 550
3 623 550 622
3 550 623 616
3 559 622 557
3 617 624 553
3 553 624 560
3 555 625 619
3 625 555 626
3 560 626 555
3 626 560 627
3 624 627 560
3 626 628 625
3 621 629 620
3 622 630 623
3 631 620 629
3 620 631 558
3 563 558 631
3 622 559 630
3 559 632 630
3 559 564 632
3 634 633 627
3 633 565 627
3 566 626 627
3 566 627 565
3 633 634 567
3 634 628 567
3 626 566 567
3 626 567 628
3 631 569 563
3 635 569 631
3 570 632 564
3 570 636 632
3 633 571 565
3 571 633 567
3 635 574 569
3 637 574 635
3 575 636 570
3 575 638 636
3 640 639 577
3 577 639 576
3 577 578 640
3 640 578 641
3 637 579 574
3 642 579 637
3 580 638 575
3 580 643 638
3 639 644 576
3 576 644 581
3 578 581 641
3 641 581 644
3 642 584 579
3 645 584 642
3 585 643 580
3 585 646 643
3 645 647 584
3 584 647 587
3 585 587 646
3 646 587 647
3 648 589 590
3 591 648 590
3 649 593 648
3 648 593 589
3 594 649 591
3 591 649 648
3 650 596 649
3 649 596 593
3 597 650 594
3 594 650 649
3 651 598 599
3 600 651 599
3 650 601 596
3 602 601 652
3 601 650 652
3 597 603 652
3 597 652 650
3 604 652 603
3 651 605 598
3 606 605 653
3 605 651 653
3 600 607 653
3 600 653 651
3 608 653 607
3 654 609 652
3 652 609 602
3 610 654 604
3 604 654 652
3 653 611 606
3 611 653 608
3 654 613 609
3 614 613 655
3 654 655 613
3 655 654 656
3 610 656 654
3 656 610 615
3 615 616 656
3 656 616 657
3 658 617 618
3 619 658 618
3 655 621 614
3 659 621 655
3 623 661 660
3 657 623 660
3 616 623 657
3 661 662 660
3 658 624 617
3 627 624 663
3 624 658 663
3 619 625 663
3 619 663 658
3 628 663 625
3 659 664 621
3 621 664 629
3 661 623 630
3 629 665 631
3 665 629 666
3 664 666 629
3 665 666 632
3 666 662 632
3 661 630 632
3 661 632 662
3 663 634 627
3 634 663 628
3 668 667 665
3 667 631 665
3 667 635 631
3 665 632 668
3 632 669 668
3 632 636 669
3 667 637 635
3 670 637 667
3 638 669 636
3 638 671 669
3 672 639 640
3 641 672 640
3 670 642 637
3 673 642 670
3 643 671 638
3 643 674 671
3 672 644 639
3 644 672 641
3 676 645 675
3 645 673 675
3 645 642 673
3 675 674 676
3 674 646 676
3 674 643 646
3 676 647 645
3 647 676 646
3 677 655 656
3 657 677 656
3 678 659 677
3 677 659 655
3 660 679 657
3 679 677 657
3 679 678 677
3 662 679 660
3 678 664 659
3 664 678 666
3 666 678 679
3 666 679 662
3 680 667 668
3 669 680 668
3 681 670 680
3 680 670 667
3 671 681 669
3 669 681 680
3 682 673 681
3 681 673 670
3 674 682 671
3 671 682 681
3 682 675 673
3 675 682 674
