ply
format ascii 1.0
comment None
element vertex 218
property float x
property float y
property float z
element face 440
property list uchar int vertex_indices
end_header
46.763 94.487 29.244
46.890 94.290 28.485
47.191 93.926 28.793
47.005 94.048 29.528
46.856 94.739 28.493
47.270 94.829 27.823
47.087 94.449 27.936
46.763 95.069 29.077
47.012 94.378 30.062
46.723 95.198 30.006
46.914 94.748 30.672
47.222 95.305 28.408
46.935 95.515 29.196
47.006 95.830 29.586
46.977 95.993 30.219
46.672 95.605 30.913
46.683 95.098 30.943
46.712 95.271 31.617
46.702 95.815 31.704
46.780 95.500 32.388
46.753 95.928 32.374
46.888 95.813 32.978
47.013 96.244 31.027
47.053 96.433 32.014
46.975 96.221 32.855
48.297 94.018 26.481
48.726 94.104 25.973
48.813 93.863 26.184
48.423 93.707 26.946
47.866 93.919 27.211
47.938 93.676 27.991
47.329 94.060 27.898
47.790 93.642 28.783
47.623 93.795 29.392
47.201 94.003 29.819
47.725 94.075 29.996
48.439 94.325 26.265
47.763 94.424 27.106
48.474 94.725 26.539
47.741 94.436 30.746
47.073 94.823 31.398
47.962 94.657 31.925
47.141 95.049 32.306
47.759 94.988 33.059
47.224 95.447 33.330
47.816 95.315 34.020
47.580 95.720 34.445
47.959 95.584 34.719
47.911 95.884 35.106
48.360 95.841 35.116
47.951 95.109 27.409
47.928 95.574 28.140
47.518 95.872 28.966
47.384 96.198 29.655
48.090 96.246 29.449
47.306 96.193 33.898
47.721 96.231 35.170
48.204 96.262 35.568
47.710 96.520 30.300
47.639 96.828 31.268
47.649 97.021 32.087
48.371 97.299 31.718
47.472 96.801 33.039
47.671 96.830 34.097
47.720 96.647 34.913
47.931 96.449 35.808
47.875 96.602 35.648
47.983 96.602 35.955
48.224 97.370 32.665
48.167 97.269 33.705
48.149 97.077 34.683
48.075 96.866 35.375
48.193 96.755 35.777
49.047 94.052 25.815
49.265 93.917 26.068
49.105 93.662 26.778
48.763 93.530 27.620
48.821 93.534 28.838
48.428 93.893 29.588
49.288 94.053 29.501
49.022 94.364 26.003
49.011 94.793 26.439
48.955 94.283 30.005
49.199 94.394 30.871
48.878 94.522 32.061
49.657 94.297 31.801
48.499 94.777 32.864
48.392 95.110 33.744
48.389 95.462 34.527
48.670 95.073 26.879
48.602 95.355 27.615
48.510 95.703 28.660
48.850 95.962 29.438
49.312 94.709 32.773
49.031 95.020 33.493
49.140 95.458 34.283
48.874 95.785 34.898
48.999 96.280 35.299
48.778 96.454 30.072
48.599 96.944 30.871
49.406 97.333 31.517
48.144 96.558 35.911
48.623 96.663 35.630
49.162 97.624 32.348
49.030 97.634 33.316
48.927 97.443 34.304
48.733 97.071 35.206
49.954 93.351 29.685
50.213 93.132 29.068
50.634 92.940 29.753
50.551 93.011 30.238
50.215 93.395 30.357
50.547 93.073 30.624
49.254 94.113 25.810
49.470 94.157 26.141
49.618 93.844 26.739
49.622 93.492 27.840
49.708 94.016 29.902
50.442 93.424 30.937
49.967 94.010 30.634
50.222 93.901 31.485
49.192 94.963 27.068
49.454 94.528 26.514
49.250 95.075 28.146
49.784 94.461 27.609
49.321 95.017 29.358
49.759 94.438 29.061
49.663 94.489 29.685
50.184 94.251 29.783
49.813 94.794 30.056
49.658 94.287 30.213
50.311 94.448 30.298
50.168 94.215 32.071
49.537 95.787 29.978
50.343 95.407 30.433
50.054 94.622 32.657
49.953 95.268 33.663
49.871 95.767 34.431
50.392 95.877 34.314
49.508 96.000 34.866
50.005 96.521 30.858
50.325 97.253 31.609
50.206 96.211 34.741
49.812 96.455 35.075
49.586 96.880 35.179
50.177 97.603 32.193
50.054 97.746 33.016
49.927 97.664 33.891
49.771 97.373 34.685
50.745 92.903 29.464
50.947 93.000 29.717
50.914 93.010 30.220
50.787 93.038 30.636
50.657 93.107 30.831
50.821 93.390 31.046
49.768 94.177 26.786
50.033 93.859 27.638
50.424 93.403 28.630
50.760 93.055 29.259
50.753 93.822 29.527
50.738 94.020 29.924
50.998 93.680 29.836
50.947 94.014 30.233
50.680 93.767 31.480
50.558 94.081 31.950
50.871 94.073 31.845
50.370 93.929 28.765
50.876 94.697 30.570
50.513 94.439 32.439
51.041 94.490 32.357
50.921 95.384 30.811
50.664 95.865 30.808
51.248 95.919 31.379
50.836 95.033 33.116
50.906 95.789 33.961
50.766 96.253 34.493
51.404 96.479 34.283
50.942 97.375 32.132
51.082 96.854 31.726
51.771 97.100 32.508
50.547 96.706 34.817
50.444 97.176 34.785
51.199 97.532 32.893
50.843 97.655 33.573
50.899 97.425 34.256
51.080 93.420 30.125
51.048 93.420 30.730
50.886 93.396 29.401
51.137 94.058 30.715
51.243 94.252 31.584
51.239 94.903 31.113
51.706 95.226 31.792
51.893 95.018 32.238
51.710 94.886 32.526
51.512 95.071 32.964
52.019 95.386 33.094
52.015 95.868 32.089
51.721 95.742 33.583
52.275 96.472 33.908
51.962 96.477 32.211
52.643 96.755 32.990
51.113 97.043 34.543
51.814 97.014 34.167
52.336 97.177 33.215
51.895 97.332 33.704
52.253 95.568 32.441
52.253 95.416 32.808
52.518 96.168 32.691
52.612 95.897 32.974
52.502 95.978 33.402
52.949 96.465 33.354
53.089 96.761 33.379
52.828 96.536 33.717
52.596 96.906 33.876
52.965 96.941 33.405
52.819 97.035 33.635
53.144 96.816 33.557
53.037 96.776 33.698
3 2 1 0
3 0 3 2
3 6 5 4
3 6 4 1
3 4 0 1
3 4 7 0
3 3 0 8
3 0 9 8
3 0 7 9
3 9 10 8
3 5 11 4
3 4 11 7
3 7 11 12
3 7 12 9
3 9 12 13
3 13 14 9
3 14 15 9
3 16 10 9
3 16 9 15
3 18 17 15
3 15 17 16
3 20 19 18
3 18 19 17
3 20 21 19
3 14 22 15
3 15 22 18
3 18 22 23
3 18 23 20
3 20 23 24
3 20 24 21
3 27 26 25
3 29 28 25
3 25 28 27
3 31 30 29
3 29 30 28
3 1 2 31
3 2 30 31
3 2 32 30
3 34 33 3
3 33 2 3
3 33 32 2
3 34 35 33
3 26 36 25
3 38 37 36
3 37 25 36
3 37 29 25
3 37 5 6
3 31 37 6
3 29 37 31
3 31 6 1
3 8 34 3
3 40 39 10
3 10 39 8
3 39 35 8
3 35 34 8
3 42 41 40
3 40 41 39
3 44 43 42
3 42 43 41
3 46 45 44
3 44 45 43
3 48 47 46
3 46 47 45
3 48 49 47
3 38 50 37
3 37 50 5
3 50 11 5
3 50 51 11
3 11 52 12
3 51 52 11
3 52 54 53
3 13 52 53
3 12 52 13
3 16 40 10
3 14 13 53
3 40 16 17
3 40 17 42
3 42 17 19
3 42 19 44
3 44 19 21
3 55 44 21
3 46 44 55
3 46 56 48
3 46 55 56
3 49 48 57
3 57 48 56
3 54 58 53
3 53 58 14
3 58 22 14
3 58 59 22
3 59 61 60
3 23 59 60
3 22 59 23
3 62 24 23
3 62 23 60
3 55 21 24
3 62 55 24
3 63 55 62
3 55 64 56
3 55 63 64
3 57 56 65
3 56 66 65
3 56 64 66
3 66 67 65
3 61 68 60
3 60 68 62
3 62 68 69
3 62 69 63
3 63 69 70
3 63 70 64
3 64 70 71
3 64 71 66
3 66 71 72
3 66 72 67
3 74 73 27
3 27 73 26
3 75 27 28
3 75 74 27
3 76 28 30
3 76 75 28
3 77 30 32
3 77 76 30
3 79 77 78
3 77 33 78
3 77 32 33
3 35 78 33
3 73 80 26
3 26 80 36
3 38 36 80
3 38 80 81
3 82 79 78
3 82 78 35
3 39 82 35
3 83 82 39
3 85 83 84
3 83 41 84
3 83 39 41
3 43 86 41
3 41 86 84
3 45 87 43
3 43 87 86
3 47 88 45
3 45 88 87
3 49 88 47
3 81 89 38
3 38 89 50
3 50 90 51
3 89 90 50
3 51 91 52
3 90 91 51
3 54 52 91
3 54 91 92
3 93 85 84
3 93 84 86
3 93 86 94
3 94 86 87
3 94 87 95
3 95 87 88
3 95 88 96
3 88 49 96
3 49 97 96
3 49 57 97
3 92 98 54
3 54 98 58
3 58 99 59
3 98 99 58
3 61 59 99
3 61 99 100
3 57 65 101
3 102 57 101
3 97 57 102
3 67 101 65
3 100 103 61
3 61 103 68
3 68 104 69
3 103 104 68
3 69 105 70
3 104 105 69
3 70 106 71
3 105 106 70
3 101 72 102
3 72 106 102
3 72 71 106
3 72 101 67
3 109 108 107
3 111 110 107
3 107 110 109
3 111 112 110
3 113 73 74
3 113 74 114
3 74 115 114
3 74 75 115
3 116 75 76
3 116 115 75
3 77 107 108
3 116 77 108
3 76 77 116
3 107 77 79
3 117 107 79
3 111 107 117
3 112 111 118
3 111 119 118
3 111 117 119
3 119 120 118
3 113 80 73
3 122 121 81
3 122 81 80
3 114 122 80
3 113 114 80
3 124 123 121
3 124 121 122
3 126 125 123
3 126 123 124
3 128 127 126
3 127 117 126
3 79 126 117
3 126 79 125
3 82 125 79
3 125 82 127
3 127 129 125
3 128 129 127
3 127 82 117
3 83 130 82
3 83 129 130
3 129 83 131
3 119 131 83
3 131 119 128
3 130 128 119
3 119 117 130
3 130 117 82
3 129 128 130
3 83 85 119
3 85 120 119
3 85 132 120
3 121 89 81
3 89 121 90
3 90 121 123
3 90 123 91
3 91 123 125
3 91 125 92
3 125 133 92
3 125 129 133
3 129 131 134
3 129 134 133
3 135 132 85
3 135 85 93
3 136 93 94
3 136 135 93
3 138 136 137
3 136 95 137
3 136 94 95
3 96 139 95
3 95 139 137
3 97 139 96
3 133 98 92
3 134 140 133
3 140 98 133
3 140 99 98
3 100 99 140
3 100 140 141
3 142 138 137
3 142 137 139
3 142 139 143
3 139 97 143
3 97 144 143
3 97 102 144
3 141 145 100
3 100 145 103
3 103 146 104
3 145 146 103
3 104 147 105
3 146 147 104
3 105 148 106
3 147 148 105
3 102 106 144
3 144 106 148
3 149 108 109
3 149 109 150
3 109 151 150
3 109 110 151
3 153 152 112
3 152 110 112
3 152 151 110
3 153 154 152
3 155 114 115
3 116 156 115
3 115 156 155
3 157 156 116
3 157 116 108
3 158 157 108
3 149 158 108
3 161 160 159
3 150 158 149
3 112 118 153
3 160 161 162
3 164 163 120
3 120 163 118
3 163 154 118
3 154 153 118
3 164 165 163
3 155 122 114
3 122 155 124
3 124 155 156
3 157 166 156
3 166 124 156
3 166 126 124
3 160 128 159
3 128 166 159
3 128 126 166
3 131 128 160
3 162 131 160
3 167 131 162
3 132 168 164
3 132 164 120
3 165 164 169
3 169 164 168
3 171 134 170
3 134 167 170
3 134 131 167
3 132 135 168
3 171 170 172
3 173 169 168
3 135 173 168
3 136 173 135
3 175 174 138
3 174 136 138
3 174 173 136
3 175 176 174
3 171 140 134
3 178 177 141
3 178 141 140
3 172 178 140
3 171 172 140
3 179 177 178
3 142 175 138
3 180 176 175
3 142 180 175
3 143 180 142
3 143 144 180
3 180 144 181
3 177 145 141
3 179 182 177
3 182 145 177
3 182 146 145
3 146 183 147
3 182 183 146
3 147 184 148
3 183 184 147
3 144 148 181
3 181 148 184
3 185 150 151
3 152 186 151
3 151 186 185
3 154 186 152
3 187 157 158
3 158 150 187
3 150 185 187
3 161 159 187
3 161 187 185
3 161 185 162
3 185 188 162
3 185 186 188
3 163 189 154
3 189 186 154
3 189 188 186
3 165 189 163
3 187 166 157
3 166 187 159
3 190 167 188
3 188 167 162
3 189 192 191
3 190 189 191
3 188 189 190
3 165 169 189
3 169 193 189
3 193 192 189
3 193 169 194
3 194 195 193
3 190 170 167
3 172 170 190
3 191 172 190
3 196 172 191
3 173 194 169
3 197 195 194
3 173 197 194
3 174 197 173
3 174 176 197
3 197 176 198
3 196 199 172
3 172 199 178
3 179 178 199
3 179 199 200
3 176 180 201
3 202 176 201
3 198 176 202
3 181 201 180
3 200 203 179
3 179 203 182
3 182 204 183
3 203 204 182
3 201 184 202
3 184 204 202
3 184 183 204
3 184 201 181
3 205 191 192
3 193 206 192
3 192 206 205
3 195 206 193
3 207 196 205
3 205 196 191
3 208 205 206
3 207 205 208
3 197 209 195
3 209 206 195
3 209 208 206
3 198 209 197
3 207 199 196
3 207 208 210
3 200 207 210
3 211 200 210
3 207 200 199
3 210 208 209
3 210 209 212
3 209 198 212
3 198 213 212
3 198 202 213
3 211 214 200
3 200 214 203
3 203 215 204
3 214 215 203
3 202 204 213
3 213 204 215
3 216 211 210
3 212 217 210
3 210 217 216
3 213 217 212
3 216 214 211
3 214 216 215
3 215 216 217
3 215 217 213
