ply
format ascii 1.0
comment None
element vertex 607
property float x
property float y
property float z
element face 1314
property list uchar int vertex_indices
end_header
46.327 26.313 41.785
46.428 26.296 41.748
46.427 25.705 41.733
46.478 25.747 41.875
46.358 26.967 41.851
46.513 27.079 41.846
46.453 26.683 41.935
46.460 27.551 41.933
46.730 27.832 41.957
46.553 27.552 42.010
46.597 27.955 42.023
47.109 22.947 42.001
47.261 22.952 41.813
47.393 22.311 41.937
47.404 22.483 42.242
46.900 23.792 41.911
47.031 24.001 41.755
47.108 23.479 42.243
46.643 24.860 41.800
46.765 25.243 41.744
46.856 24.743 42.114
46.753 26.280 41.824
46.776 26.079 42.104
46.887 27.212 41.908
46.811 27.164 42.089
47.185 27.920 41.922
46.957 27.854 42.106
46.802 28.230 42.050
47.236 28.343 41.976
46.868 28.184 42.087
46.971 28.391 42.074
48.091 15.835 40.596
48.441 15.763 40.329
48.496 15.522 40.214
48.399 15.697 40.368
48.115 15.918 40.604
47.958 16.050 40.769
47.849 16.060 40.853
47.991 15.935 40.716
47.901 16.085 40.840
47.832 16.165 40.910
48.053 16.190 40.774
47.831 16.169 40.919
47.809 18.408 35.960
47.973 18.410 35.834
48.163 18.077 35.712
48.150 18.129 35.892
47.875 16.206 40.905
47.830 18.962 36.233
48.188 18.722 35.939
48.013 18.588 36.218
48.149 19.549 41.040
48.244 19.522 40.934
48.439 19.294 40.829
48.443 19.378 40.971
47.979 19.129 36.204
48.171 19.603 36.554
48.027 19.638 36.703
48.088 19.240 36.610
48.496 20.059 37.119
48.033 20.007 41.311
48.339 19.745 40.998
48.257 19.730 41.272
48.405 20.285 37.090
48.127 20.111 41.230
48.065 20.723 41.546
47.937 20.818 41.900
48.175 20.251 41.714
48.250 20.860 42.198
47.706 21.610 41.990
47.977 21.891 41.776
48.065 21.822 42.553
47.701 23.118 41.812
47.659 23.069 42.665
47.440 24.248 41.847
47.339 24.070 42.515
47.252 25.309 41.936
47.446 25.231 42.442
47.182 26.357 42.006
47.170 26.734 42.187
47.431 27.474 41.965
47.479 27.743 42.128
47.992 28.405 41.762
47.471 28.257 42.086
48.178 28.618 41.847
47.276 28.443 42.049
49.075 15.351 39.780
48.908 15.261 39.875
49.010 15.526 39.943
48.310 16.061 40.536
49.049 16.125 40.049
48.145 15.992 40.653
48.727 16.083 40.332
48.698 16.377 40.422
48.101 16.172 40.751
48.875 17.973 35.477
48.965 17.625 35.550
48.765 18.125 36.118
49.037 18.664 35.902
48.610 18.803 36.556
48.890 19.185 40.635
49.043 18.978 40.677
48.890 19.508 41.104
48.447 19.186 36.216
48.938 19.691 36.659
48.600 19.433 36.887
49.134 19.898 37.249
48.871 19.703 40.867
48.564 19.958 41.523
48.652 20.195 36.985
49.165 20.679 37.622
48.916 21.156 37.779
48.932 20.925 37.545
49.393 21.435 38.090
48.534 20.168 41.192
48.845 20.876 41.570
48.674 20.471 41.974
48.848 21.244 42.595
49.037 21.732 38.120
49.229 21.548 38.010
49.386 21.806 38.342
49.163 22.072 38.472
49.437 22.251 38.781
48.858 21.633 41.861
48.551 22.427 41.956
49.299 21.979 42.109
49.353 21.725 43.053
48.904 22.057 43.159
49.526 22.188 43.342
49.217 22.034 38.348
49.216 22.409 38.668
49.496 22.426 38.731
49.432 22.817 39.183
48.330 23.493 42.066
48.491 22.857 43.149
49.312 22.788 42.283
49.353 22.753 43.462
49.422 23.093 39.158
47.966 24.467 42.120
48.086 23.902 42.939
49.228 24.106 42.566
49.228 23.680 43.406
49.390 24.873 39.661
49.554 25.080 39.464
49.403 24.460 39.645
49.571 24.481 39.803
47.829 25.222 42.321
48.767 24.525 42.958
49.699 25.257 39.581
47.374 26.451 42.177
47.610 27.480 42.081
48.252 28.135 41.859
48.351 28.038 42.054
48.474 28.244 42.090
48.969 29.085 41.313
49.438 29.333 40.959
49.077 28.827 41.373
49.137 28.583 41.868
49.293 29.044 41.427
49.499 29.502 40.891
49.853 29.639 40.656
49.563 29.478 40.969
49.808 29.710 40.702
49.672 14.989 39.283
50.064 14.845 38.982
49.648 14.928 39.292
49.728 15.016 39.289
49.302 15.110 39.591
50.206 16.337 34.124
50.339 16.129 33.898
50.332 16.111 33.914
50.394 16.234 34.157
50.053 14.970 39.050
49.569 15.418 39.561
49.818 15.536 39.367
49.563 16.061 39.830
50.424 16.315 34.085
50.307 16.770 34.495
49.717 17.011 34.805
50.200 16.516 34.504
50.029 16.929 35.168
49.446 17.136 40.130
49.933 16.978 39.623
49.591 16.943 40.090
49.915 17.397 35.000
50.024 18.055 35.546
49.952 17.458 35.998
49.718 18.349 36.600
49.579 18.193 40.190
50.197 18.076 39.752
49.976 18.333 40.272
50.051 18.788 36.278
49.162 19.172 36.287
49.652 19.366 36.628
50.044 18.974 36.994
49.287 19.175 36.943
49.988 19.587 37.436
49.732 18.773 40.200
50.366 18.631 39.884
50.256 19.311 40.665
49.537 19.114 40.760
49.696 19.758 36.986
49.651 20.377 37.584
49.942 19.148 40.207
49.612 19.572 41.025
49.482 19.436 40.527
49.257 20.091 41.460
49.317 20.314 37.247
49.490 21.003 37.786
49.731 21.001 38.049
49.659 21.509 38.386
49.449 20.136 41.087
49.588 20.683 41.644
49.353 20.776 42.076
49.636 21.400 42.520
49.575 21.524 38.134
49.419 21.837 38.285
49.569 21.698 38.326
49.630 21.884 38.657
49.901 21.813 38.490
49.852 22.463 39.268
49.715 21.313 41.961
50.023 22.026 42.449
49.884 21.988 43.005
50.129 22.602 43.269
50.000 22.483 39.031
49.784 22.895 39.617
50.405 22.940 42.494
49.934 23.244 43.513
49.668 23.008 39.168
49.712 23.259 39.759
49.511 23.722 39.624
49.744 23.882 39.476
50.089 23.731 40.107
50.284 23.938 42.641
50.176 23.854 43.483
49.994 24.860 39.417
50.180 24.569 39.968
49.861 24.832 43.119
50.434 24.746 42.837
50.005 24.563 43.389
49.772 26.174 39.151
49.997 26.648 38.863
49.947 25.718 39.199
50.274 25.246 39.682
50.207 26.079 39.237
50.436 25.461 43.125
50.855 25.908 42.845
50.432 25.360 43.326
49.966 27.205 38.863
50.125 27.388 38.642
50.108 26.884 39.052
50.696 26.206 43.050
50.183 27.856 38.747
50.480 27.916 38.597
50.456 27.898 39.182
49.372 28.265 41.819
49.248 28.030 42.156
49.819 28.015 42.209
50.495 28.501 38.990
49.949 29.337 40.691
49.849 28.846 41.233
50.134 28.709 41.602
49.994 29.457 40.923
50.322 29.693 40.446
49.976 29.744 40.695
50.264 29.892 40.497
50.562 15.090 38.689
51.236 15.527 38.150
50.605 15.005 38.681
50.957 15.134 38.609
50.311 14.953 38.929
50.516 16.217 34.095
50.961 15.642 38.446
51.319 15.861 38.043
50.860 15.243 38.755
50.504 15.372 38.907
51.039 15.786 38.835
50.286 15.887 39.316
50.842 16.621 34.543
50.838 16.521 34.848
50.774 16.845 35.760
51.292 16.322 38.114
50.681 16.306 38.824
51.263 17.041 38.328
51.121 16.748 39.035
50.365 16.875 39.610
50.838 17.350 35.147
50.781 17.910 35.573
50.774 17.107 36.250
50.936 17.530 36.772
50.716 18.478 36.919
51.575 18.177 37.285
50.798 17.753 38.985
51.556 17.819 38.135
51.005 17.925 39.420
50.437 17.901 39.830
50.730 18.268 35.970
50.481 19.230 37.157
51.188 18.548 36.830
50.895 19.004 38.193
51.335 18.907 37.561
51.619 18.469 37.918
50.707 18.727 39.410
50.645 18.170 39.564
50.784 18.472 39.796
50.967 19.078 40.138
50.114 19.997 37.439
50.335 20.311 38.065
50.999 19.785 37.791
50.459 20.056 39.138
50.154 19.753 40.203
50.152 20.014 41.048
51.027 19.907 40.626
50.843 20.568 38.171
50.136 21.090 38.150
50.834 21.193 38.558
50.037 21.358 38.915
50.316 21.087 40.052
50.902 20.508 41.076
50.277 20.840 41.255
50.999 21.091 41.497
50.176 21.125 41.918
50.674 21.959 39.034
50.232 22.334 39.766
50.549 22.163 40.975
50.932 21.563 41.958
50.519 21.775 42.056
50.967 22.166 42.334
50.473 22.256 42.680
50.355 22.547 39.394
49.997 22.941 39.390
50.063 22.815 39.653
50.554 23.157 39.678
50.148 22.928 40.119
50.831 23.148 40.793
50.973 22.783 41.448
50.839 22.506 42.087
51.107 22.921 41.797
50.605 22.238 42.413
50.771 22.626 42.735
50.751 23.330 43.169
50.463 24.259 39.570
51.180 23.840 40.481
51.078 23.216 42.082
50.992 23.956 42.484
50.942 24.356 43.223
50.812 25.217 39.376
50.850 24.739 40.041
51.371 24.850 42.643
50.756 25.066 43.363
50.354 26.106 39.068
50.976 25.493 39.596
51.354 25.983 42.772
50.974 25.688 43.252
50.650 26.994 38.647
50.658 26.411 38.930
50.801 26.811 39.125
50.441 27.326 42.381
51.450 27.260 42.005
51.320 26.513 42.568
51.117 26.275 43.046
50.781 27.039 42.711
51.178 27.822 38.555
51.134 27.737 39.318
50.673 28.297 41.500
51.353 28.432 40.952
51.808 27.888 41.408
50.775 27.820 42.275
50.863 28.495 38.760
51.207 28.558 40.068
50.555 29.118 39.960
50.969 29.211 39.369
50.355 29.235 40.805
50.928 29.461 40.615
50.979 28.774 41.213
50.978 28.337 41.887
50.684 29.659 40.124
51.278 29.878 39.914
50.429 29.493 40.392
50.462 29.688 40.537
50.367 29.869 40.573
50.820 29.989 40.264
50.860 30.063 40.472
51.505 15.522 38.202
51.558 16.306 37.494
51.796 16.388 36.900
51.827 15.996 37.562
52.122 16.131 37.730
51.917 15.947 38.183
51.407 15.581 38.510
51.369 16.686 34.934
51.622 16.681 35.370
51.600 16.613 36.020
51.336 16.768 36.588
51.433 16.906 37.096
52.220 16.400 37.980
51.569 17.170 37.579
51.785 16.419 38.443
52.206 16.953 37.983
51.401 16.946 35.055
51.293 17.914 35.949
51.753 17.328 35.781
51.836 17.975 36.788
52.180 17.331 36.565
52.093 17.446 37.460
51.791 17.849 38.480
51.705 18.941 37.894
51.871 19.082 38.959
51.486 18.702 39.464
51.428 20.326 38.427
51.845 20.079 39.051
51.676 19.811 39.875
51.490 21.270 39.217
51.870 21.021 39.970
51.562 20.888 40.827
51.133 22.329 39.594
51.729 21.964 39.984
51.954 22.220 40.864
51.524 21.908 41.730
51.562 23.074 40.313
51.299 23.277 41.451
52.004 23.221 40.883
52.286 23.042 41.292
52.030 22.949 41.857
52.400 23.423 41.668
51.370 22.780 42.482
51.483 24.129 39.930
51.889 23.668 40.634
51.493 23.372 40.840
51.762 23.836 41.109
52.210 23.669 42.107
51.486 23.822 41.966
51.622 23.867 42.620
52.010 24.207 42.365
51.648 24.879 39.551
52.256 24.509 41.112
51.898 24.582 40.489
51.842 24.548 42.091
52.263 25.298 41.691
51.610 24.203 42.409
51.673 24.524 42.703
51.456 25.114 43.036
51.112 25.993 39.150
51.388 26.352 38.797
51.865 25.530 39.220
52.135 25.374 40.136
51.689 26.151 39.464
51.682 25.814 42.467
52.038 26.301 42.041
51.459 25.781 43.035
51.788 26.978 38.568
51.737 27.109 39.232
52.471 27.126 41.775
51.273 26.498 42.837
51.518 26.817 42.588
51.619 26.149 42.793
52.107 27.601 38.630
51.803 28.072 39.380
52.237 28.403 40.546
52.732 27.665 41.436
51.572 27.777 42.224
51.562 28.591 38.959
51.719 29.517 39.595
51.832 28.555 39.862
51.890 29.044 41.493
51.803 29.725 41.127
51.548 28.410 41.825
51.999 30.016 40.093
50.779 29.905 40.552
51.387 29.994 40.716
51.655 30.136 40.443
52.150 16.499 36.937
51.758 16.884 35.362
52.056 16.888 36.082
52.334 16.974 36.889
52.350 16.718 37.498
52.405 23.642 41.165
52.350 24.235 40.633
52.692 24.244 41.229
52.462 24.053 41.846
52.408 24.788 39.864
52.760 24.655 40.536
52.968 24.669 41.048
52.683 24.471 40.894
52.550 24.962 40.857
52.685 24.799 41.779
53.042 25.185 41.237
52.131 24.687 42.439
52.529 26.207 38.858
53.166 25.520 39.438
52.604 25.871 39.926
52.672 26.512 39.476
53.005 25.465 40.630
52.808 25.610 41.861
52.930 25.860 41.369
52.409 26.347 42.322
52.118 25.495 42.547
53.064 26.816 38.705
52.557 27.278 39.121
53.082 26.709 41.393
52.283 27.206 42.285
52.980 27.213 38.842
52.184 27.992 38.985
53.433 27.850 40.688
53.338 27.120 41.101
52.938 27.264 41.677
52.727 27.364 42.020
52.398 27.934 41.948
53.148 27.721 41.821
52.209 28.905 39.684
52.469 29.604 41.497
53.435 28.949 40.315
53.163 28.960 41.760
52.474 29.757 40.040
52.826 29.458 40.068
52.385 30.036 41.100
53.085 29.786 41.557
52.950 30.082 40.664
53.202 25.031 40.052
53.375 25.147 40.600
53.812 26.260 39.057
54.032 25.855 39.493
53.405 26.110 40.105
53.871 25.504 40.003
53.906 25.620 40.515
53.512 25.798 40.814
54.028 26.197 40.824
53.310 26.244 41.557
54.188 26.733 38.933
54.151 26.464 39.901
53.993 26.733 39.403
53.555 26.380 40.743
54.097 27.028 40.365
54.065 27.261 41.253
53.021 27.001 41.979
53.893 26.889 38.930
54.631 27.868 40.220
53.951 28.332 41.619
54.508 28.992 40.358
54.218 29.060 41.611
53.210 29.727 40.342
53.334 30.068 41.303
54.338 29.721 40.609
53.996 29.717 41.565
54.160 30.057 41.150
54.421 26.335 39.441
54.476 26.112 39.823
54.275 25.947 40.293
54.870 26.821 39.190
54.826 26.680 39.474
54.877 26.609 39.778
54.622 26.407 39.661
54.535 26.740 39.779
54.633 26.777 40.288
54.975 27.000 39.958
55.035 27.153 39.299
54.936 27.255 39.792
55.434 27.490 39.574
54.694 27.062 40.064
55.038 27.503 40.260
54.972 28.551 41.041
55.576 28.131 39.783
55.486 29.139 40.209
54.813 29.437 41.398
55.530 29.833 40.557
54.970 29.911 41.256
55.176 30.042 40.928
55.466 27.232 39.349
55.281 27.149 39.613
55.877 27.813 39.327
55.708 27.731 39.476
55.963 27.848 39.434
55.714 27.772 39.725
55.589 27.431 39.429
55.598 28.202 40.291
55.966 28.344 39.999
56.304 28.564 39.548
56.127 28.899 39.829
56.533 29.068 39.717
56.003 28.872 40.296
55.670 29.537 40.880
56.415 29.431 39.991
56.324 29.726 40.215
55.706 29.985 40.905
56.039 29.991 40.570
56.441 28.498 39.424
56.306 28.551 39.682
56.699 28.922 39.438
56.705 29.095 39.582
56.784 29.063 39.502
56.632 29.155 39.763
56.600 28.832 39.532
56.426 29.569 40.226
56.765 29.622 39.922
56.902 29.371 39.564
56.993 29.440 39.522
56.744 29.566 39.851
56.771 29.840 40.067
56.645 29.779 40.132
56.359 29.882 40.445
56.960 29.630 39.689
56.726 29.828 40.036
56.972 29.409 39.541
56.901 29.433 39.661
57.006 29.658 39.672
56.943 29.694 39.788
3 2 1 0
3 0 3 2
3 0 1 4
3 4 1 5
3 3 0 6
3 6 0 4
3 4 5 7
3 7 5 8
3 6 4 9
3 9 4 7
3 8 10 7
3 7 10 9
3 13 12 11
3 11 14 13
3 11 12 15
3 15 12 16
3 14 11 17
3 17 11 15
3 15 16 18
3 18 16 19
3 17 15 20
3 20 15 18
3 18 19 2
3 19 1 2
3 19 21 1
3 2 3 18
3 3 20 18
3 3 22 20
3 21 5 1
3 23 5 21
3 6 22 3
3 6 24 22
3 23 8 5
3 25 8 23
3 9 24 6
3 9 26 24
3 10 8 27
3 8 28 27
3 8 25 28
3 27 29 10
3 29 9 10
3 29 26 9
3 28 30 27
3 27 30 29
3 33 32 31
3 31 34 33
3 32 35 31
3 35 36 31
3 36 37 31
3 38 34 31
3 38 31 37
3 37 39 38
3 37 36 40
3 40 36 41
3 39 37 42
3 42 37 40
3 45 44 43
3 43 46 45
3 41 47 40
3 40 47 42
3 43 44 48
3 48 44 49
3 46 43 50
3 50 43 48
3 53 52 51
3 51 54 53
3 49 55 48
3 55 56 48
3 56 57 48
3 58 50 48
3 58 48 57
3 57 59 58
3 51 52 60
3 60 52 61
3 54 51 62
3 62 51 60
3 56 63 57
3 57 63 59
3 61 64 60
3 64 65 60
3 65 66 60
3 67 62 60
3 67 60 66
3 66 68 67
3 66 65 69
3 69 65 70
3 68 66 71
3 71 66 69
3 69 70 13
3 70 12 13
3 70 72 12
3 13 14 69
3 14 71 69
3 14 73 71
3 72 16 12
3 74 16 72
3 17 73 14
3 17 75 73
3 74 19 16
3 76 19 74
3 20 75 17
3 20 77 75
3 76 21 19
3 78 21 76
3 22 77 20
3 22 79 77
3 78 23 21
3 80 23 78
3 24 79 22
3 24 81 79
3 80 25 23
3 82 25 80
3 26 81 24
3 26 83 81
3 85 28 84
3 28 82 84
3 28 25 82
3 84 83 85
3 83 29 85
3 83 26 29
3 85 30 28
3 30 85 29
3 87 86 33
3 33 86 32
3 33 34 87
3 87 34 88
3 35 32 89
3 32 90 89
3 32 86 90
3 36 35 89
3 38 91 34
3 92 34 91
3 34 92 88
3 39 91 38
3 90 93 89
3 36 89 41
3 93 41 89
3 41 93 94
3 92 94 93
3 94 92 91
3 42 94 39
3 39 94 91
3 96 95 45
3 45 95 44
3 45 46 96
3 96 46 97
3 94 47 41
3 47 94 42
3 95 49 44
3 98 49 95
3 50 97 46
3 50 99 97
3 101 100 53
3 53 100 52
3 53 54 101
3 101 54 102
3 98 103 49
3 49 103 55
3 103 56 55
3 56 103 104
3 50 58 99
3 105 99 58
3 58 59 105
3 105 59 106
3 100 61 52
3 107 61 100
3 62 102 54
3 62 108 102
3 104 109 56
3 56 109 63
3 59 110 106
3 110 59 111
3 63 111 59
3 111 63 112
3 109 112 63
3 111 113 110
3 107 114 61
3 61 114 64
3 114 65 64
3 65 114 115
3 62 67 108
3 116 108 67
3 67 68 116
3 116 68 117
3 111 112 118
3 118 112 119
3 113 111 120
3 111 121 120
3 111 118 121
3 121 122 120
3 124 70 123
3 70 115 123
3 70 65 115
3 124 123 125
3 117 127 126
3 127 117 71
3 68 71 117
3 127 128 126
3 119 129 118
3 131 130 129
3 130 118 129
3 130 121 118
3 122 121 132
3 132 121 130
3 133 72 124
3 124 72 70
3 127 71 134
3 73 134 71
3 135 124 125
3 124 135 133
3 128 127 136
3 136 127 134
3 131 137 130
3 130 137 132
3 138 74 133
3 133 74 72
3 134 73 139
3 75 139 73
3 140 133 135
3 133 140 138
3 136 134 141
3 141 134 139
3 144 143 142
3 142 145 144
3 146 76 138
3 138 76 74
3 77 139 75
3 139 77 147
3 146 147 77
3 147 146 140
3 138 140 146
3 139 147 141
3 143 148 142
3 142 148 145
3 149 78 146
3 146 78 76
3 79 149 77
3 77 149 146
3 150 80 149
3 149 80 78
3 81 150 79
3 79 150 149
3 152 151 150
3 151 80 150
3 151 82 80
3 150 81 152
3 81 153 152
3 81 83 153
3 156 155 154
3 84 158 157
3 158 84 154
3 82 154 84
3 154 82 156
3 151 156 82
3 83 84 153
3 153 84 157
3 154 155 159
3 159 155 160
3 158 154 161
3 161 154 159
3 160 162 159
3 159 162 161
3 165 164 163
3 163 86 165
3 86 87 165
3 167 166 165
3 167 165 87
3 88 167 87
3 170 169 168
3 168 171 170
3 164 172 163
3 167 173 166
3 174 163 172
3 163 174 86
3 90 86 174
3 167 88 173
3 88 175 173
3 88 92 175
3 169 176 168
3 176 177 168
3 177 178 168
3 179 171 168
3 179 168 178
3 178 180 179
3 93 90 181
3 90 182 181
3 90 174 182
3 181 183 93
3 183 92 93
3 183 175 92
3 177 184 178
3 95 184 185
3 184 95 178
3 96 178 95
3 178 96 180
3 186 180 96
3 96 97 186
3 186 97 187
3 181 182 188
3 188 182 189
3 183 181 190
3 190 181 188
3 192 98 191
3 98 185 191
3 98 95 185
3 192 191 193
3 187 195 194
3 195 187 99
3 97 99 187
3 195 196 194
3 188 189 197
3 197 189 198
3 190 200 199
3 200 190 101
3 188 101 190
3 101 188 100
3 197 100 188
3 102 200 101
3 192 103 98
3 99 105 195
3 103 192 104
3 193 104 192
3 104 193 201
3 105 106 195
3 106 196 195
3 106 202 196
3 198 203 197
3 200 204 199
3 205 197 203
3 197 205 100
3 107 100 205
3 200 102 204
3 102 206 204
3 102 108 206
3 201 207 104
3 104 207 109
3 207 112 109
3 112 207 208
3 106 110 202
3 209 202 110
3 110 113 209
3 209 113 210
3 205 211 107
3 107 211 114
3 211 115 114
3 115 211 212
3 108 116 206
3 213 206 116
3 116 117 213
3 213 117 214
3 216 119 215
3 119 208 215
3 119 112 208
3 218 217 120
3 217 219 120
3 216 120 219
3 120 216 113
3 215 113 216
3 113 215 217
3 217 210 113
3 218 210 217
3 217 215 219
3 120 122 218
3 218 122 220
3 212 221 115
3 115 221 123
3 221 125 123
3 125 221 222
3 117 126 214
3 223 214 126
3 126 128 223
3 223 128 224
3 216 129 119
3 131 129 216
3 219 131 216
3 225 131 219
3 132 220 122
3 132 226 220
3 222 135 125
3 227 135 222
3 136 224 128
3 136 228 224
3 225 229 131
3 131 229 137
3 132 230 226
3 230 132 231
3 137 231 132
3 231 137 232
3 229 232 137
3 231 233 230
3 227 140 135
3 234 140 227
3 141 228 136
3 141 235 228
3 231 232 144
3 232 143 144
3 232 236 143
3 144 145 231
3 145 233 231
3 145 237 233
3 147 140 238
3 140 239 238
3 140 234 239
3 238 240 147
3 240 141 147
3 240 235 141
3 243 242 241
3 148 245 244
3 245 148 241
3 143 241 148
3 241 143 243
3 236 243 143
3 145 148 237
3 237 148 244
3 238 239 246
3 246 239 247
3 240 238 248
3 248 238 246
3 241 242 249
3 249 242 250
3 245 241 251
3 251 241 249
3 247 252 246
3 246 252 248
3 249 250 253
3 253 250 254
3 251 249 255
3 255 249 253
3 257 256 152
3 152 256 151
3 152 153 257
3 257 153 258
3 254 259 253
3 253 259 255
3 261 260 156
3 156 260 155
3 157 158 262
3 263 262 158
3 256 156 151
3 156 256 261
3 153 157 258
3 258 157 262
3 260 160 155
3 264 160 260
3 161 263 158
3 161 265 263
3 264 266 160
3 160 266 162
3 161 162 265
3 265 162 266
3 269 268 267
3 267 164 269
3 164 165 269
3 271 270 269
3 271 269 165
3 166 271 165
3 272 169 170
3 171 272 170
3 267 268 273
3 273 268 274
3 275 270 271
3 267 172 164
3 172 267 276
3 273 276 267
3 278 277 276
3 275 276 277
3 276 275 271
3 276 271 172
3 166 172 271
3 172 166 174
3 173 174 166
3 174 173 278
3 174 278 276
3 175 278 173
3 272 176 169
3 177 176 279
3 272 279 176
3 279 272 280
3 171 280 272
3 280 171 179
3 179 180 280
3 280 180 281
3 274 282 273
3 284 283 282
3 283 273 282
3 283 276 273
3 283 174 276
3 174 283 182
3 277 278 285
3 286 285 278
3 183 286 175
3 175 286 278
3 279 287 177
3 177 287 184
3 287 185 184
3 185 287 288
3 180 186 281
3 289 281 186
3 291 290 187
3 290 186 187
3 290 289 186
3 291 292 290
3 283 284 293
3 293 284 294
3 293 182 283
3 182 293 189
3 285 286 295
3 296 295 286
3 190 296 183
3 183 296 286
3 288 297 185
3 185 297 191
3 291 187 194
3 191 298 193
3 298 191 299
3 297 299 191
3 298 196 300
3 196 298 194
3 291 194 298
3 299 291 298
3 291 299 292
3 301 292 299
3 292 301 302
3 300 302 301
3 298 300 301
3 302 300 294
3 300 293 294
3 300 303 293
3 189 304 198
3 304 296 198
3 305 198 296
3 198 305 303
3 295 303 305
3 303 295 304
3 304 293 303
3 189 293 304
3 304 295 296
3 296 190 305
3 190 306 305
3 190 199 306
3 307 201 298
3 298 201 193
3 300 196 308
3 202 308 196
3 309 298 301
3 298 309 307
3 300 310 303
3 300 308 310
3 311 203 198
3 303 311 198
3 310 311 303
3 205 203 311
3 204 312 199
3 313 199 312
3 199 313 306
3 206 312 204
3 307 207 201
3 307 309 308
3 314 308 309
3 308 314 315
3 308 315 209
3 208 209 315
3 209 208 202
3 207 202 208
3 202 207 307
3 202 307 308
3 314 316 315
3 317 209 210
3 209 317 308
3 310 308 317
3 310 318 311
3 310 317 318
3 319 313 312
3 311 211 205
3 211 311 320
3 318 320 311
3 322 321 320
3 319 320 321
3 320 319 312
3 320 312 211
3 206 211 312
3 211 206 212
3 213 212 206
3 212 213 322
3 212 322 320
3 214 322 213
3 315 215 208
3 210 218 317
3 215 315 219
3 316 219 315
3 219 316 323
3 317 218 220
3 324 317 220
3 318 317 324
3 318 325 320
3 318 324 325
3 326 321 322
3 320 221 212
3 221 320 327
3 325 327 320
3 329 328 327
3 326 327 328
3 327 326 322
3 327 322 221
3 214 221 322
3 221 214 222
3 223 222 214
3 222 223 329
3 222 329 327
3 224 329 223
3 331 225 330
3 225 323 330
3 225 219 323
3 226 332 220
3 332 331 220
3 330 220 331
3 220 330 324
3 333 324 330
3 324 333 332
3 332 334 324
3 226 334 332
3 332 333 331
3 336 325 335
3 325 334 335
3 325 324 334
3 338 337 336
3 337 325 336
3 337 327 325
3 222 339 227
3 339 329 227
3 340 227 329
3 227 340 337
3 328 337 340
3 337 328 339
3 339 327 337
3 222 327 339
3 339 328 329
3 329 224 340
3 224 341 340
3 224 228 341
3 331 229 225
3 226 230 334
3 229 331 232
3 333 232 331
3 232 333 342
3 230 233 334
3 233 335 334
3 233 343 335
3 338 344 337
3 227 337 344
3 345 227 344
3 234 227 345
3 235 341 228
3 235 346 341
3 342 236 232
3 347 236 342
3 237 343 233
3 237 348 343
3 345 239 234
3 349 239 345
3 240 346 235
3 240 350 346
3 351 242 243
3 244 245 352
3 351 352 245
3 352 351 347
3 243 347 351
3 347 243 236
3 237 244 348
3 348 244 352
3 349 247 239
3 353 247 349
3 248 350 240
3 248 354 350
3 356 355 351
3 355 242 351
3 355 250 242
3 351 245 356
3 245 357 356
3 245 251 357
3 360 359 358
3 252 362 361
3 362 252 358
3 247 358 252
3 358 247 360
3 353 360 247
3 248 252 354
3 354 252 361
3 355 254 250
3 363 254 355
3 255 357 251
3 255 364 357
3 367 366 365
3 367 365 359
3 359 365 358
3 365 256 358
3 256 257 358
3 257 258 358
3 258 362 358
3 258 368 362
3 363 369 254
3 254 369 259
3 255 370 364
3 370 255 371
3 259 371 255
3 371 259 372
3 369 372 259
3 373 261 365
3 261 373 260
3 371 260 373
3 374 371 373
3 371 374 370
3 375 370 374
3 370 375 366
3 365 366 375
3 373 365 375
3 261 256 365
3 263 373 262
3 375 262 373
3 262 375 376
3 258 262 368
3 368 262 376
3 371 372 377
3 377 372 378
3 260 379 264
3 379 373 264
3 380 264 373
3 264 380 377
3 374 377 380
3 377 374 379
3 379 371 377
3 260 371 379
3 379 374 373
3 373 263 380
3 263 381 380
3 263 265 381
3 378 382 377
3 377 382 264
3 382 266 264
3 382 383 266
3 265 266 381
3 381 266 383
3 384 268 269
3 270 384 269
3 387 386 385
3 268 385 274
3 385 268 387
3 384 387 268
3 387 384 388
3 389 388 384
3 275 390 270
3 390 384 270
3 390 389 384
3 277 390 275
3 392 391 280
3 280 391 279
3 394 393 281
3 393 280 281
3 393 392 280
3 393 394 386
3 394 385 386
3 394 395 385
3 396 388 389
3 385 282 274
3 282 385 397
3 395 397 385
3 397 284 282
3 399 396 398
3 389 398 396
3 398 389 390
3 285 398 277
3 277 398 390
3 391 400 279
3 279 400 287
3 394 281 289
3 287 401 288
3 401 287 402
3 400 402 287
3 404 403 402
3 401 402 403
3 394 290 395
3 290 394 289
3 405 403 404
3 403 405 292
3 397 292 405
3 292 397 290
3 395 290 397
3 284 397 294
3 405 294 397
3 294 405 406
3 399 406 405
3 406 399 398
3 295 406 285
3 285 406 398
3 401 297 288
3 297 401 299
3 299 401 403
3 301 299 407
3 299 403 407
3 292 302 407
3 292 407 403
3 294 406 302
3 406 407 302
3 406 408 407
3 305 409 295
3 409 406 295
3 409 408 406
3 306 409 305
3 410 309 407
3 407 309 301
3 411 407 408
3 410 407 411
3 412 408 409
3 411 408 412
3 313 412 306
3 306 412 409
3 410 314 309
3 314 410 316
3 410 413 316
3 410 411 413
3 414 411 412
3 413 411 414
3 319 415 313
3 415 412 313
3 415 414 412
3 321 415 319
3 416 323 413
3 413 323 316
3 417 413 414
3 416 413 417
3 418 414 415
3 417 414 418
3 326 419 321
3 419 415 321
3 419 418 415
3 328 419 326
3 416 330 323
3 330 416 333
3 416 420 333
3 416 417 420
3 421 336 335
3 423 422 418
3 420 418 422
3 418 420 417
3 421 338 336
3 425 423 424
3 418 424 423
3 424 418 419
3 340 426 328
3 426 419 328
3 426 424 419
3 341 426 340
3 428 427 420
3 427 333 420
3 427 342 333
3 343 429 335
3 343 420 429
3 420 343 428
3 430 428 343
3 428 430 422
3 429 422 430
3 430 421 429
3 429 421 335
3 420 422 429
3 431 425 424
3 421 344 338
3 344 421 432
3 430 432 421
3 432 345 344
3 434 431 433
3 424 433 431
3 433 424 426
3 346 433 341
3 341 433 426
3 427 347 342
3 435 347 427
3 437 436 430
3 343 437 430
3 348 437 343
3 439 438 436
3 438 430 436
3 438 432 430
3 345 440 349
3 440 433 349
3 441 349 433
3 349 441 438
3 434 438 441
3 438 434 440
3 440 432 438
3 345 432 440
3 440 434 433
3 433 346 441
3 346 442 441
3 346 350 442
3 445 444 443
3 352 447 446
3 447 352 443
3 347 443 352
3 443 347 445
3 435 445 347
3 348 352 437
3 437 352 446
3 438 439 448
3 448 439 449
3 448 353 349
3 448 349 438
3 354 442 350
3 354 450 442
3 443 444 356
3 444 355 356
3 444 451 355
3 356 357 443
3 357 447 443
3 357 452 447
3 448 449 360
3 449 359 360
3 449 453 359
3 455 454 362
3 455 360 454
3 360 455 448
3 456 448 455
3 448 456 353
3 454 353 456
3 456 361 454
3 454 361 362
3 360 353 454
3 354 361 450
3 450 361 456
3 451 363 355
3 457 363 451
3 364 452 357
3 364 458 452
3 460 459 367
3 367 459 366
3 367 359 453
3 367 453 460
3 368 455 362
3 368 461 455
3 457 462 363
3 363 462 369
3 462 372 369
3 372 462 463
3 364 370 458
3 464 458 370
3 375 374 465
3 466 465 374
3 459 370 366
3 370 459 464
3 375 467 376
3 465 467 375
3 368 376 461
3 461 376 467
3 463 378 372
3 468 378 463
3 374 380 469
3 470 374 469
3 466 374 470
3 381 469 380
3 468 471 378
3 378 471 382
3 469 383 470
3 383 471 470
3 383 382 471
3 383 469 381
3 472 386 387
3 388 472 387
3 473 391 392
3 393 474 392
3 392 474 473
3 386 472 393
3 472 474 393
3 472 475 474
3 396 476 388
3 476 472 388
3 476 475 472
3 399 476 396
3 473 400 391
3 400 473 402
3 402 473 474
3 402 474 404
3 404 474 475
3 404 475 405
3 405 475 476
3 405 476 399
3 477 422 423
3 425 477 423
3 478 427 428
3 422 477 428
3 477 478 428
3 477 479 478
3 431 480 425
3 480 477 425
3 480 479 477
3 434 480 431
3 482 481 478
3 481 427 478
3 481 435 427
3 482 484 483
3 482 485 484
3 485 482 437
3 478 437 482
3 437 478 436
3 484 436 478
3 478 479 484
3 484 479 483
3 485 436 484
3 485 439 436
3 487 483 486
3 479 486 483
3 486 479 480
3 441 488 434
3 488 480 434
3 488 486 480
3 442 488 441
3 490 489 445
3 445 489 444
3 446 447 491
3 492 491 447
3 481 445 435
3 445 481 490
3 437 446 485
3 446 493 485
3 446 491 493
3 486 494 487
3 495 485 493
3 485 495 439
3 449 439 495
3 497 496 494
3 486 497 494
3 488 497 486
3 450 497 442
3 442 497 488
3 489 451 444
3 498 451 489
3 452 492 447
3 452 499 492
3 495 453 449
3 500 453 495
3 496 497 456
3 455 496 456
3 501 496 455
3 456 497 450
3 503 457 502
3 457 498 502
3 457 451 498
3 502 499 503
3 499 458 503
3 499 452 458
3 505 504 460
3 460 504 459
3 500 506 453
3 506 507 453
3 508 453 507
3 453 508 460
3 509 460 508
3 460 509 506
3 506 505 460
3 500 505 506
3 506 509 507
3 507 501 508
3 501 461 508
3 501 455 461
3 503 462 457
3 463 462 510
3 462 503 510
3 458 464 510
3 458 510 503
3 511 465 466
3 459 510 464
3 510 459 512
3 504 512 459
3 513 509 508
3 465 513 508
3 467 465 508
3 513 465 511
3 467 508 461
3 515 514 510
3 514 463 510
3 514 468 463
3 512 515 510
3 517 511 516
3 466 516 511
3 516 466 470
3 511 517 513
3 514 518 468
3 468 518 471
3 470 471 516
3 516 471 518
3 519 481 482
3 483 520 482
3 482 520 519
3 487 520 483
3 522 521 490
3 490 521 489
3 491 492 523
3 481 519 490
3 524 490 519
3 490 524 522
3 524 520 525
3 520 524 519
3 526 493 523
3 491 523 493
3 528 527 526
3 525 526 527
3 526 525 520
3 526 520 493
3 487 493 520
3 493 487 495
3 494 495 487
3 495 494 528
3 495 528 526
3 496 528 494
3 521 498 489
3 529 498 521
3 531 530 523
3 492 531 523
3 499 531 492
3 533 532 530
3 532 523 530
3 532 526 523
3 532 495 526
3 495 532 500
3 527 528 534
3 535 534 528
3 501 535 496
3 496 535 528
3 529 536 498
3 498 536 502
3 499 502 531
3 531 502 536
3 532 533 505
3 533 504 505
3 533 537 504
3 532 505 500
3 509 535 507
3 535 509 534
3 538 534 509
3 507 535 501
3 537 512 504
3 539 512 537
3 513 538 509
3 513 540 538
3 541 514 515
3 542 517 516
3 512 541 515
3 541 512 543
3 539 543 512
3 542 544 517
3 544 513 517
3 544 540 513
3 541 518 514
3 541 543 518
3 543 545 518
3 542 516 518
3 542 518 545
3 542 545 544
3 546 521 522
3 524 547 522
3 522 547 546
3 525 548 524
3 524 548 547
3 527 548 525
3 550 549 546
3 549 521 546
3 549 529 521
3 550 552 551
3 550 553 552
3 553 550 531
3 546 531 550
3 531 546 530
3 552 530 546
3 546 547 552
3 552 547 551
3 553 530 552
3 553 533 530
3 555 551 554
3 547 554 551
3 554 547 548
3 534 554 527
3 527 554 548
3 549 556 529
3 529 556 536
3 536 556 531
3 556 557 531
3 557 553 531
3 557 556 558
3 533 559 537
3 559 554 537
3 560 537 554
3 537 560 557
3 555 557 560
3 557 555 559
3 559 553 557
3 533 553 559
3 559 555 554
3 554 534 560
3 534 561 560
3 534 538 561
3 558 562 557
3 537 557 562
3 563 537 562
3 539 537 563
3 540 561 538
3 540 564 561
3 563 543 539
3 565 543 563
3 544 564 540
3 544 566 564
3 565 567 543
3 543 567 545
3 544 545 566
3 566 545 567
3 568 549 550
3 551 569 550
3 550 569 568
3 555 569 551
3 571 556 570
3 556 549 570
3 570 549 568
3 572 570 568
3 572 574 573
3 574 571 573
3 558 573 571
3 573 558 569
3 556 569 558
3 569 556 574
3 574 568 569
3 572 568 574
3 574 556 571
3 576 573 575
3 575 573 560
3 573 569 560
3 569 555 560
3 561 575 560
3 570 577 571
3 577 579 578
3 577 578 562
3 571 577 562
3 558 571 562
3 575 580 576
3 563 562 578
3 575 561 580
3 561 581 580
3 561 564 581
3 579 582 578
3 563 578 582
3 583 563 582
3 565 563 583
3 566 581 564
3 566 584 581
3 583 585 565
3 565 585 567
3 566 567 584
3 584 567 585
3 586 570 572
3 573 587 572
3 572 587 586
3 576 587 573
3 589 577 588
3 577 570 588
3 588 570 586
3 590 588 586
3 590 592 591
3 592 589 591
3 579 591 589
3 591 579 587
3 577 587 579
3 587 577 592
3 592 586 587
3 590 586 592
3 592 577 589
3 594 591 593
3 593 591 580
3 591 587 580
3 587 576 580
3 581 593 580
3 589 588 595
3 595 588 596
3 597 582 579
3 589 597 579
3 595 597 589
3 594 599 598
3 594 597 599
3 597 594 582
3 593 582 594
3 582 593 583
3 599 583 593
3 593 600 599
3 599 600 598
3 597 583 599
3 584 600 581
3 581 600 593
3 596 601 595
3 595 601 597
3 597 601 602
3 598 600 602
3 600 585 602
3 583 597 602
3 583 602 585
3 585 600 584
3 603 588 590
3 591 604 590
3 590 604 603
3 594 604 591
3 605 596 603
3 603 596 588
3 606 603 604
3 605 603 606
3 598 606 594
3 594 606 604
3 605 601 596
3 601 605 602
3 602 605 606
3 602 606 598
