ply
format ascii 1.0
comment None
element vertex 417
property float x
property float y
property float z
element face 890
property list uchar int vertex_indices
end_header
62.245 47.172 44.242
62.574 47.422 43.870
62.687 46.873 44.018
62.254 46.883 44.393
62.038 47.202 44.439
62.038 46.929 44.569
62.129 47.888 44.012
62.254 48.339 43.627
62.158 47.673 44.235
62.082 47.115 44.497
62.045 49.526 42.430
62.131 49.573 41.810
62.261 49.177 42.393
62.180 48.934 43.105
62.092 49.144 43.298
62.233 48.403 43.802
62.343 48.967 43.544
62.314 49.939 40.591
62.537 49.983 39.931
62.606 49.818 40.021
62.363 49.670 41.088
62.155 49.957 41.504
62.118 49.987 42.433
62.181 49.973 42.987
62.279 49.665 43.320
62.504 50.262 40.575
62.454 50.402 41.671
62.486 50.355 42.543
63.072 46.890 43.689
63.420 46.799 43.428
63.441 46.703 43.477
62.843 46.851 43.993
62.244 46.907 44.444
62.485 47.266 44.201
63.303 47.244 43.427
62.729 48.001 43.635
62.465 47.806 44.073
62.363 49.337 41.739
62.720 48.895 42.125
62.649 48.570 43.198
62.322 48.569 43.530
62.418 48.526 43.692
62.359 48.250 43.946
62.762 49.877 39.365
63.028 49.884 38.894
63.079 49.835 38.956
62.996 49.926 39.772
62.918 49.728 40.749
62.768 49.267 41.425
62.470 50.105 43.093
62.780 49.569 43.392
62.605 48.752 43.691
63.069 50.161 39.310
62.896 50.520 40.132
62.920 50.735 40.973
63.219 50.627 41.848
63.075 50.300 42.910
63.798 46.884 43.025
64.382 47.160 42.317
64.266 46.760 42.763
63.913 46.840 43.217
63.163 47.293 43.689
63.917 47.406 43.247
63.742 47.428 42.737
63.266 47.877 43.278
63.377 48.206 42.380
63.537 47.915 43.512
63.256 47.653 43.573
62.931 47.710 43.835
63.214 48.777 41.742
63.351 48.653 43.453
63.074 48.054 43.624
62.727 48.234 43.741
64.071 49.948 37.476
64.502 50.155 37.088
64.327 49.983 37.305
63.807 49.920 38.002
63.552 49.964 38.223
63.379 49.982 38.893
63.243 50.159 39.575
63.576 50.233 39.083
63.267 50.256 40.634
63.559 50.003 41.143
63.409 49.187 41.290
63.748 49.827 43.259
64.265 50.252 37.409
63.928 50.360 38.183
63.520 50.544 39.241
64.040 50.732 38.557
63.211 50.435 39.687
63.779 50.344 39.794
63.303 50.947 40.146
63.730 50.345 40.845
63.481 51.205 41.034
63.303 50.759 41.205
63.695 50.963 41.586
64.061 51.008 42.341
64.105 50.563 42.864
63.859 51.288 39.419
63.899 51.651 40.486
64.291 51.689 41.505
64.444 51.354 42.177
64.878 47.031 42.134
64.801 46.821 42.500
64.670 46.960 42.758
65.120 46.972 42.389
64.144 47.731 42.056
65.121 47.843 41.377
65.177 47.407 42.511
64.614 48.188 43.076
63.930 48.413 41.636
64.284 48.985 41.160
64.603 49.252 43.227
64.749 50.253 37.064
64.523 50.180 37.554
63.983 50.221 38.302
64.402 49.685 40.841
64.622 50.038 43.199
65.071 50.848 36.921
64.547 50.753 37.356
65.232 50.580 37.151
65.165 50.559 37.790
64.349 50.778 38.013
64.528 50.524 38.704
64.396 50.373 38.012
64.985 50.530 39.897
64.548 50.145 40.432
65.078 50.377 43.055
65.032 50.956 42.709
64.962 51.236 36.977
64.743 51.357 37.446
65.055 51.633 37.070
64.451 51.595 38.467
64.391 52.083 39.761
64.583 52.223 40.878
65.066 52.091 41.600
65.342 51.584 42.185
65.158 52.222 37.602
64.947 52.566 39.007
65.074 52.736 40.364
65.261 52.458 41.228
65.428 47.235 41.920
66.407 47.890 40.502
66.631 48.099 40.300
66.578 47.902 40.553
66.126 47.678 41.058
66.093 47.896 40.685
66.157 47.723 41.793
65.702 48.060 42.496
66.497 48.452 42.201
66.493 48.201 40.321
66.191 48.201 40.531
65.361 48.886 40.744
65.593 48.819 42.853
66.214 49.285 42.726
65.148 49.675 40.591
65.423 49.708 43.078
66.034 50.158 42.840
65.860 51.215 36.953
65.813 50.886 37.341
65.870 50.906 37.793
66.140 51.073 37.565
65.651 50.907 38.465
65.633 50.941 39.435
66.131 51.002 40.386
65.528 50.208 40.406
66.141 50.926 42.622
65.340 51.741 36.890
65.972 52.023 36.759
66.361 51.361 38.052
66.269 51.357 39.080
66.347 51.360 39.837
66.451 51.411 42.092
66.162 51.956 41.720
65.738 52.558 36.985
65.656 52.987 37.515
66.012 53.233 37.201
65.513 53.123 38.444
65.499 53.225 39.695
65.653 53.156 40.604
65.793 52.751 41.185
66.010 53.578 37.962
66.177 53.771 39.310
66.167 53.471 40.447
66.694 48.188 40.338
66.720 48.120 40.545
66.721 47.854 41.040
66.819 47.998 41.542
67.057 48.005 41.238
66.933 48.599 40.186
66.572 48.739 40.241
67.142 48.451 40.442
66.581 48.341 40.317
66.375 48.554 40.415
67.228 48.377 41.572
67.083 49.276 42.293
67.039 49.516 40.090
66.056 49.418 40.417
66.514 50.393 40.460
66.841 50.246 42.613
66.287 51.338 37.317
66.526 51.265 41.175
67.075 50.903 40.575
66.782 51.358 41.321
66.984 50.813 42.487
66.486 51.939 36.975
66.715 51.839 37.499
66.850 51.898 38.082
67.055 52.250 37.737
66.809 51.845 38.807
66.827 51.800 39.647
67.003 51.651 40.269
66.789 51.477 41.021
66.717 51.579 41.880
67.206 51.637 42.059
67.005 51.297 42.296
66.293 53.048 36.845
66.817 52.975 36.788
67.190 52.343 38.402
67.355 52.409 39.401
67.339 52.159 40.044
66.208 53.110 41.086
66.862 52.524 41.620
66.746 53.622 36.839
67.200 53.975 36.777
66.477 53.818 37.354
66.562 54.208 38.447
67.065 54.452 39.668
67.060 53.844 40.498
66.994 53.226 41.153
67.019 54.260 37.084
66.981 54.547 37.827
67.145 54.759 38.749
67.155 48.143 40.946
67.932 49.335 40.027
67.941 48.830 40.602
67.705 48.552 41.104
67.668 48.780 41.706
68.028 48.907 41.508
67.897 49.961 39.609
68.397 50.298 39.238
68.318 50.023 39.456
67.455 50.321 39.937
67.823 49.207 41.929
67.626 49.992 42.239
68.277 50.463 39.323
68.051 50.715 39.725
67.301 51.207 40.594
67.953 51.441 40.091
68.285 50.333 41.798
68.065 51.143 41.945
67.580 50.864 42.261
66.991 52.464 37.209
67.899 52.187 40.282
68.006 51.881 41.780
67.290 53.110 37.071
67.417 52.862 37.716
67.671 52.929 38.666
68.061 53.132 39.647
67.839 52.702 40.183
67.976 52.702 41.551
67.456 53.755 36.861
67.741 53.630 37.290
67.996 53.514 38.014
68.197 53.433 38.776
67.419 54.282 40.429
68.131 53.939 40.773
68.147 53.350 41.081
67.465 54.605 36.943
67.814 54.648 36.897
67.497 54.891 37.399
67.605 55.122 38.268
67.960 55.205 39.494
67.844 54.671 40.348
68.006 55.209 37.108
68.258 55.460 37.626
68.249 55.610 38.602
68.388 49.235 40.551
68.254 49.026 41.058
68.563 50.451 39.251
68.763 50.298 39.585
68.738 49.676 40.242
69.060 49.864 40.446
68.738 49.782 40.956
68.220 49.456 41.628
68.944 50.767 39.039
68.732 50.730 39.082
68.918 50.691 39.155
68.529 50.620 39.218
68.666 50.835 39.323
69.269 50.314 40.548
69.003 51.092 41.275
69.255 51.109 39.029
69.125 51.292 39.334
68.981 52.107 40.036
68.822 52.168 41.525
68.179 53.286 40.548
68.538 53.006 40.619
69.159 52.919 41.394
67.939 54.300 37.055
68.437 54.389 37.558
68.676 53.986 38.341
68.795 53.698 39.204
68.760 53.500 40.325
68.603 53.545 40.937
69.163 53.919 40.932
69.211 53.426 41.113
68.373 55.144 37.198
69.081 55.450 37.533
69.425 54.772 38.036
69.385 54.211 38.675
68.344 55.088 40.314
68.719 54.722 40.707
68.482 55.545 37.134
68.457 55.660 37.190
68.855 55.744 37.306
68.405 55.536 37.236
68.745 55.851 37.515
68.823 56.045 38.310
68.924 55.941 39.244
69.158 55.507 40.207
68.861 56.015 37.407
69.508 56.569 38.068
69.486 56.451 38.848
69.149 50.081 40.117
69.420 51.110 39.055
69.460 51.026 39.322
69.540 50.695 39.963
69.593 50.897 40.555
69.926 51.268 40.233
69.932 51.548 39.064
69.756 51.500 39.059
69.853 51.398 39.169
69.535 51.304 39.059
69.657 51.605 39.332
69.788 51.477 40.719
69.818 52.299 41.068
70.251 52.083 39.328
70.072 52.355 39.937
69.673 52.905 40.540
69.974 52.965 41.276
69.907 53.990 39.363
69.875 53.452 40.312
69.177 53.379 40.746
69.818 53.779 40.986
70.085 53.484 41.242
69.792 55.376 37.823
70.439 55.334 38.210
70.178 54.654 38.582
70.618 54.229 41.065
70.022 54.887 40.819
69.258 56.212 37.508
69.815 56.237 37.646
70.160 55.869 37.841
70.253 55.828 40.380
70.103 56.370 39.648
70.078 56.810 37.941
70.074 57.017 38.150
70.159 57.075 38.393
70.110 56.871 38.816
70.436 57.161 38.318
70.103 51.477 39.679
70.560 51.974 39.352
70.695 52.216 39.799
70.189 52.095 40.300
71.089 52.685 39.325
70.703 52.933 39.694
71.232 52.704 39.552
71.044 52.752 39.999
70.267 52.789 40.205
70.482 52.687 40.479
70.529 52.461 40.123
70.630 53.166 40.929
71.612 53.400 39.444
71.317 53.822 39.488
70.902 53.808 41.011
70.791 54.998 38.559
70.960 54.596 38.947
71.308 54.295 40.801
71.210 54.917 40.717
70.558 56.398 37.932
71.053 56.155 38.376
71.341 55.342 38.730
70.730 56.196 40.160
71.085 55.756 40.424
70.571 56.747 38.007
70.889 56.616 38.143
70.506 57.158 38.667
70.726 56.924 39.131
71.222 56.445 39.736
70.661 57.045 38.244
70.835 57.119 38.645
71.781 53.312 39.422
71.612 53.381 39.743
71.143 53.148 40.351
71.932 53.632 39.337
71.907 53.745 39.415
72.131 53.873 39.465
71.931 53.910 39.729
71.957 53.609 39.485
71.849 54.585 40.241
71.451 53.771 40.454
71.952 54.055 39.321
71.808 54.696 39.215
71.812 55.433 40.252
71.712 55.914 38.948
71.940 55.442 39.183
71.741 56.016 40.085
71.055 56.813 38.484
71.566 56.418 39.114
71.178 56.859 39.043
71.864 56.205 39.704
72.165 54.315 39.412
72.187 54.388 39.693
72.129 55.118 39.677
72.027 55.890 39.435
72.065 55.807 39.885
3 2 1 0
3 4 3 0
3 0 3 2
3 4 5 3
3 0 1 6
3 6 1 7
3 9 4 8
3 4 6 8
3 4 0 6
3 4 9 5
3 12 11 10
3 14 13 10
3 10 13 12
3 16 15 14
3 15 6 14
3 7 13 14
3 7 14 6
3 6 15 8
3 19 18 17
3 21 20 17
3 17 20 19
3 20 21 11
3 21 10 11
3 21 22 10
3 24 14 23
3 14 22 23
3 14 10 22
3 14 24 16
3 18 25 17
3 17 25 21
3 21 25 26
3 21 26 22
3 22 26 27
3 22 27 23
3 30 29 28
3 1 2 28
3 2 30 28
3 2 31 30
3 33 31 32
3 31 3 32
3 31 2 3
3 5 32 3
3 29 34 28
3 1 28 34
3 35 1 34
3 7 1 35
3 33 32 9
3 8 33 9
3 36 33 8
3 9 32 5
3 37 11 12
3 37 12 38
3 12 39 38
3 12 13 39
3 35 40 7
3 35 15 40
3 15 35 41
3 39 41 35
3 41 39 16
3 40 16 39
3 39 13 40
3 40 13 7
3 15 16 40
3 41 42 15
3 42 8 15
3 42 36 8
3 45 44 43
3 18 19 43
3 19 45 43
3 19 46 45
3 47 19 20
3 47 46 19
3 20 11 37
3 48 20 37
3 47 20 48
3 24 23 49
3 37 38 48
3 49 50 24
3 24 50 16
3 50 51 16
3 51 41 16
3 41 51 42
3 44 52 43
3 43 52 18
3 52 25 18
3 52 53 25
3 25 54 26
3 53 54 25
3 26 55 27
3 54 55 26
3 23 27 49
3 27 56 49
3 27 55 56
3 49 56 50
3 59 58 57
3 29 30 57
3 30 59 57
3 30 60 59
3 62 60 61
3 60 31 61
3 60 30 31
3 33 61 31
3 58 63 57
3 63 65 64
3 63 64 34
3 57 63 34
3 29 57 34
3 62 67 66
3 62 64 67
3 64 62 34
3 61 34 62
3 34 61 35
3 67 35 61
3 61 68 67
3 67 68 66
3 64 35 67
3 36 68 33
3 33 68 61
3 64 65 39
3 65 38 39
3 65 69 38
3 66 71 70
3 71 64 70
3 39 70 64
3 70 39 72
3 35 72 39
3 72 35 71
3 71 68 72
3 66 68 71
3 71 35 64
3 42 72 36
3 36 72 68
3 75 74 73
3 77 76 73
3 73 76 75
3 44 45 77
3 45 76 77
3 45 78 76
3 80 78 79
3 78 46 79
3 78 45 46
3 47 81 46
3 46 81 79
3 81 47 82
3 47 83 82
3 47 48 83
3 48 38 69
3 48 69 83
3 70 72 51
3 50 70 51
3 84 70 50
3 51 72 42
3 74 85 73
3 73 85 77
3 77 85 86
3 86 88 87
3 86 87 52
3 77 86 52
3 44 77 52
3 52 89 53
3 52 79 89
3 79 52 80
3 87 80 52
3 80 87 90
3 89 90 87
3 87 91 89
3 89 91 53
3 79 90 89
3 90 81 92
3 81 90 79
3 93 54 91
3 53 91 54
3 54 94 55
3 94 81 55
3 82 55 81
3 55 82 95
3 92 95 82
3 95 92 94
3 94 93 95
3 54 93 94
3 94 92 81
3 55 95 96
3 97 55 96
3 56 55 97
3 50 56 84
3 84 56 97
3 88 98 87
3 87 98 91
3 91 98 99
3 91 99 93
3 93 99 100
3 93 100 95
3 95 100 101
3 95 101 96
3 103 102 59
3 59 102 58
3 105 103 104
3 103 60 104
3 103 59 60
3 62 104 60
3 63 58 106
3 58 107 106
3 58 102 107
3 104 108 105
3 65 63 106
3 104 62 108
3 62 109 108
3 62 66 109
3 106 107 110
3 110 107 111
3 110 69 65
3 110 65 106
3 70 109 66
3 70 112 109
3 113 74 75
3 76 114 75
3 75 114 113
3 78 115 76
3 76 115 114
3 80 115 78
3 110 111 83
3 111 82 83
3 111 116 82
3 110 83 69
3 84 112 70
3 84 117 112
3 119 85 118
3 85 74 118
3 118 74 113
3 120 118 113
3 120 114 121
3 114 120 113
3 122 86 119
3 85 119 86
3 121 124 123
3 124 122 123
3 88 123 122
3 123 88 115
3 86 115 88
3 115 86 124
3 124 114 115
3 121 114 124
3 124 86 122
3 123 115 80
3 90 123 80
3 125 123 90
3 126 90 92
3 126 125 90
3 92 82 116
3 92 116 126
3 128 127 97
3 128 97 96
3 84 97 117
3 117 97 127
3 118 129 119
3 131 130 129
3 130 119 129
3 130 122 119
3 132 98 88
3 122 132 88
3 130 132 122
3 133 99 98
3 133 98 132
3 134 100 99
3 134 99 133
3 100 134 135
3 136 100 135
3 101 100 136
3 96 101 128
3 128 101 136
3 131 137 130
3 130 137 132
3 132 137 138
3 132 138 133
3 133 138 139
3 133 139 134
3 134 139 140
3 134 140 135
3 141 102 103
3 105 141 103
3 144 143 142
3 146 145 142
3 142 145 144
3 147 145 141
3 145 107 141
3 107 102 141
3 145 146 107
3 149 147 148
3 148 147 108
3 147 141 108
3 141 105 108
3 109 148 108
3 143 150 142
3 142 150 146
3 146 150 151
3 107 146 151
3 152 107 151
3 111 107 152
3 149 148 153
3 149 153 154
3 112 153 109
3 109 153 148
3 152 116 111
3 155 116 152
3 154 153 156
3 154 156 157
3 117 156 112
3 112 156 153
3 159 158 120
3 120 158 118
3 161 159 160
3 159 121 160
3 159 120 121
3 123 162 121
3 121 162 160
3 125 163 123
3 123 163 162
3 163 125 164
3 125 165 164
3 125 126 165
3 126 116 155
3 126 155 165
3 157 156 127
3 128 157 127
3 166 157 128
3 127 156 117
3 129 118 167
3 118 168 167
3 118 158 168
3 160 169 161
3 131 129 167
3 169 160 162
3 169 162 170
3 170 162 163
3 170 163 171
3 171 163 164
3 173 172 136
3 173 136 135
3 128 136 166
3 166 136 172
3 168 174 167
3 174 176 175
3 174 175 137
3 167 174 137
3 131 167 137
3 177 138 137
3 177 137 175
3 178 139 138
3 178 138 177
3 139 178 179
3 180 139 179
3 140 139 180
3 135 140 173
3 173 140 180
3 176 181 175
3 175 181 177
3 177 181 182
3 177 182 178
3 178 182 183
3 178 183 179
3 184 143 144
3 184 144 185
3 144 186 185
3 144 145 186
3 188 186 187
3 186 147 187
3 186 145 147
3 149 187 147
3 190 150 189
3 150 143 189
3 189 143 184
3 191 189 184
3 150 192 151
3 192 184 151
3 185 151 184
3 151 185 193
3 191 193 185
3 193 191 192
3 192 190 193
3 150 190 192
3 192 191 184
3 187 194 188
3 152 151 193
3 187 149 194
3 149 195 194
3 149 154 195
3 189 196 190
3 198 197 196
3 197 190 196
3 197 193 190
3 197 155 152
3 197 152 193
3 157 195 154
3 157 199 195
3 200 158 159
3 161 200 159
3 202 201 198
3 201 164 198
3 165 197 198
3 165 198 164
3 165 155 197
3 201 202 203
3 166 199 157
3 166 204 199
3 206 205 200
3 205 158 200
3 205 168 158
3 208 206 207
3 207 206 169
3 206 200 169
3 200 161 169
3 170 209 169
3 169 209 207
3 171 210 170
3 170 210 209
3 211 210 171
3 211 171 164
3 212 211 164
3 201 212 164
3 214 213 173
3 213 212 173
3 201 173 212
3 173 201 172
3 203 172 201
3 172 203 213
3 213 215 172
3 214 215 213
3 213 203 212
3 166 172 204
3 204 172 215
3 174 168 216
3 168 217 216
3 168 205 217
3 207 218 208
3 176 174 216
3 218 207 209
3 218 209 219
3 219 209 210
3 219 210 220
3 180 179 221
3 210 211 220
3 221 222 180
3 222 173 180
3 222 214 173
3 216 217 223
3 223 217 224
3 225 181 176
3 216 225 176
3 223 225 216
3 226 182 181
3 226 181 225
3 182 226 227
3 228 182 227
3 183 182 228
3 179 183 221
3 183 229 221
3 183 228 229
3 221 229 222
3 224 230 223
3 223 230 225
3 225 230 231
3 225 231 226
3 226 231 232
3 226 232 227
3 233 185 186
3 188 233 186
3 235 234 191
3 191 234 189
3 191 185 233
3 236 191 233
3 235 191 236
3 238 236 237
3 237 236 194
3 236 233 194
3 233 188 194
3 195 237 194
3 241 240 239
3 239 242 196
3 234 239 196
3 189 234 196
3 239 234 241
3 242 198 196
3 243 238 237
3 237 195 243
3 195 244 243
3 195 199 244
3 240 245 239
3 239 245 242
3 242 245 246
3 246 248 247
3 246 247 202
3 242 246 202
3 198 242 202
3 203 202 247
3 251 250 249
3 249 244 251
3 244 204 251
3 244 199 204
3 252 205 206
3 208 252 206
3 247 248 212
3 248 211 212
3 248 253 211
3 247 212 203
3 214 251 215
3 251 214 250
3 254 250 214
3 215 251 204
3 255 217 252
3 252 217 205
3 218 256 208
3 256 252 208
3 256 255 252
3 219 257 218
3 218 257 256
3 257 219 258
3 219 259 258
3 219 220 259
3 220 211 253
3 220 253 259
3 222 254 214
3 222 260 254
3 262 261 255
3 261 217 255
3 261 224 217
3 262 255 256
3 262 256 263
3 263 256 257
3 263 257 264
3 228 227 265
3 257 258 264
3 228 265 266
3 267 228 266
3 229 228 267
3 222 229 260
3 260 229 267
3 230 224 268
3 224 269 268
3 224 261 269
3 270 231 230
3 270 230 268
3 271 232 231
3 271 231 270
3 271 272 232
3 232 272 227
3 272 273 227
3 273 265 227
3 265 273 266
3 269 274 268
3 268 274 270
3 270 274 275
3 270 275 271
3 271 275 276
3 271 276 272
3 277 234 235
3 236 278 235
3 235 278 277
3 238 278 236
3 279 240 241
3 280 279 241
3 280 241 234
3 281 280 234
3 277 281 234
3 283 282 281
3 277 283 281
3 278 283 277
3 243 284 238
3 284 278 238
3 284 283 278
3 244 284 243
3 286 245 285
3 245 240 285
3 285 240 279
3 287 285 279
3 245 288 246
3 288 279 246
3 280 246 279
3 246 280 289
3 287 289 280
3 289 287 288
3 288 286 289
3 245 286 288
3 288 287 279
3 283 290 282
3 248 246 289
3 250 291 249
3 291 283 249
3 283 284 249
3 291 290 283
3 249 284 244
3 285 292 286
3 286 292 289
3 289 292 293
3 248 289 293
3 294 248 293
3 253 248 294
3 254 291 250
3 254 295 291
3 296 258 259
3 297 296 259
3 253 297 259
3 294 297 253
3 260 295 254
3 260 298 295
3 299 261 262
3 263 300 262
3 262 300 299
3 264 301 263
3 263 301 300
3 302 301 264
3 302 264 258
3 303 302 258
3 296 303 258
3 305 304 266
3 304 303 266
3 296 266 303
3 266 296 267
3 297 267 296
3 267 297 304
3 304 306 267
3 305 306 304
3 304 297 303
3 260 267 298
3 298 267 306
3 307 269 299
3 299 269 261
3 300 309 308
3 307 300 308
3 299 300 307
3 309 300 301
3 309 301 310
3 273 272 311
3 301 302 310
3 311 312 273
3 312 266 273
3 312 305 266
3 314 274 313
3 274 269 313
3 313 269 307
3 315 313 307
3 274 316 275
3 316 307 275
3 308 275 307
3 275 308 317
3 315 317 308
3 317 315 316
3 316 314 317
3 274 314 316
3 316 315 307
3 318 276 275
3 318 275 317
3 318 319 276
3 276 319 272
3 319 320 272
3 320 311 272
3 311 320 312
3 313 321 314
3 314 321 317
3 317 321 322
3 317 322 318
3 318 322 323
3 318 323 319
3 324 280 281
3 282 324 281
3 325 285 287
3 326 325 287
3 326 287 280
3 327 326 280
3 324 327 280
3 329 327 328
3 328 327 290
3 327 324 290
3 324 282 290
3 291 328 290
3 331 292 330
3 292 285 330
3 330 285 325
3 332 330 325
3 292 333 293
3 333 325 293
3 326 293 325
3 293 326 334
3 332 334 326
3 334 332 333
3 333 331 334
3 292 331 333
3 333 332 325
3 328 335 329
3 294 293 334
3 328 291 335
3 291 336 335
3 291 295 336
3 330 337 331
3 331 337 334
3 334 337 338
3 294 334 338
3 339 294 338
3 297 294 339
3 298 336 295
3 298 340 336
3 342 341 303
3 303 341 302
3 339 343 297
3 339 306 343
3 306 339 344
3 342 344 339
3 344 342 305
3 343 305 342
3 342 303 343
3 343 303 297
3 306 305 343
3 344 345 306
3 345 298 306
3 345 340 298
3 346 308 309
3 346 309 347
3 309 348 347
3 309 310 348
3 310 302 341
3 310 341 348
3 350 349 344
3 305 350 344
3 312 350 305
3 344 349 345
3 351 313 315
3 352 351 315
3 352 315 308
3 353 352 308
3 346 353 308
3 353 346 347
3 355 354 320
3 355 320 319
3 312 320 350
3 350 320 354
3 351 321 313
3 322 321 351
3 356 322 351
3 352 356 351
3 357 322 356
3 322 357 358
3 359 322 358
3 323 322 359
3 319 323 355
3 355 323 359
3 356 360 357
3 357 360 358
3 361 326 327
3 329 361 327
3 362 330 332
3 326 361 332
3 361 362 332
3 361 363 362
3 335 364 329
3 364 361 329
3 364 363 361
3 336 364 335
3 366 337 365
3 337 330 365
3 365 330 362
3 367 365 362
3 367 363 368
3 363 367 362
3 369 338 366
3 337 366 338
3 368 371 370
3 371 369 370
3 339 370 369
3 370 339 364
3 338 364 339
3 364 338 371
3 371 363 364
3 368 363 371
3 371 338 369
3 364 336 370
3 336 372 370
3 336 340 372
3 365 373 366
3 374 341 342
3 366 374 342
3 369 366 342
3 373 374 366
3 369 342 339
3 345 372 340
3 345 375 372
3 376 347 348
3 377 376 348
3 341 377 348
3 374 377 341
3 379 378 349
3 379 349 350
3 345 349 375
3 375 349 378
3 380 352 353
3 381 380 353
3 381 353 347
3 382 381 347
3 376 382 347
3 354 355 383
3 376 377 382
3 383 384 354
3 384 350 354
3 384 379 350
3 386 385 380
3 385 352 380
3 385 356 352
3 359 358 387
3 380 381 386
3 387 388 359
3 359 388 355
3 388 389 355
3 389 383 355
3 383 389 384
3 385 390 356
3 356 390 360
3 358 360 387
3 360 391 387
3 360 390 391
3 387 391 388
3 392 365 367
3 368 393 367
3 367 393 392
3 370 394 368
3 368 394 393
3 372 394 370
3 396 373 395
3 373 365 395
3 395 365 392
3 397 395 392
3 397 399 398
3 399 396 398
3 374 398 396
3 398 374 393
3 373 393 374
3 393 373 399
3 399 392 393
3 397 392 399
3 399 373 396
3 401 400 398
3 393 401 398
3 394 401 393
3 375 401 372
3 372 401 394
3 395 402 396
3 374 396 402
3 403 374 402
3 377 374 403
3 400 401 378
3 379 400 378
3 404 400 379
3 378 401 375
3 406 405 382
3 382 405 381
3 382 377 403
3 382 403 406
3 384 404 379
3 384 407 404
3 408 385 386
3 381 405 409
3 408 381 409
3 410 408 409
3 386 381 408
3 389 388 410
3 409 389 410
3 411 389 409
3 384 389 407
3 407 389 411
3 408 390 385
3 390 408 391
3 391 408 410
3 391 410 388
3 412 395 397
3 398 413 397
3 397 413 412
3 400 413 398
3 412 402 395
3 402 412 403
3 412 414 403
3 412 413 414
3 404 414 400
3 400 414 413
3 415 405 406
3 403 414 406
3 414 415 406
3 414 416 415
3 407 416 404
3 404 416 414
3 415 409 405
3 409 415 411
3 411 415 416
3 411 416 407
