ply
format ascii 1.0
comment None
element vertex 697
property float x
property float y
property float z
element face 1514
property list uchar int vertex_indices
end_header
45.107 17.457 43.447
45.542 16.861 42.464
45.469 16.661 43.076
45.688 16.757 43.733
45.216 17.570 44.446
45.777 17.182 44.538
45.834 18.146 41.454
46.342 18.093 40.846
46.349 17.499 41.200
45.845 17.268 41.687
45.280 18.014 42.457
44.899 18.386 43.457
44.898 18.290 44.304
45.721 17.695 45.059
45.252 18.302 45.118
45.975 18.337 45.627
46.048 19.032 41.192
46.513 18.994 40.723
45.529 19.021 41.985
45.141 19.079 42.954
44.994 19.091 43.983
45.145 18.989 44.944
45.704 19.015 45.718
46.374 19.871 41.117
46.735 19.848 40.814
45.931 19.894 41.756
45.528 19.786 42.482
45.503 19.987 43.360
45.456 19.640 44.542
45.682 19.488 45.448
46.663 20.485 41.203
46.392 20.642 41.712
46.798 21.181 41.732
46.039 20.664 42.469
46.175 20.976 43.017
45.993 20.262 43.854
46.269 19.742 45.216
45.617 21.460 51.496
45.769 21.294 50.484
46.039 21.094 51.171
46.006 21.135 52.109
45.812 21.401 52.385
46.109 21.204 52.703
46.084 21.444 52.873
46.440 21.423 53.050
46.591 21.343 42.357
46.485 21.531 42.666
45.943 22.461 46.682
46.185 22.587 45.619
46.540 21.786 46.423
46.338 21.755 47.243
45.790 22.423 47.614
46.424 21.697 48.097
45.611 22.383 48.537
45.920 21.726 48.932
45.416 22.254 49.488
45.710 21.553 49.741
45.377 21.987 50.546
45.383 22.098 51.407
45.580 21.866 52.009
45.966 21.966 52.633
46.406 21.805 53.104
45.626 23.258 46.222
45.787 23.327 45.348
45.475 23.197 47.159
45.377 23.184 48.089
45.295 23.108 49.084
45.254 22.890 50.115
45.303 22.641 50.970
45.655 22.714 51.831
46.384 22.729 52.650
46.404 22.230 53.013
46.077 24.223 43.647
46.318 24.113 43.159
46.482 23.564 43.215
46.425 23.511 43.787
45.853 24.125 44.259
46.019 23.533 44.395
45.418 24.154 45.860
45.589 23.871 45.129
45.364 24.045 46.817
45.335 23.896 47.626
45.467 24.070 48.580
45.452 23.762 49.729
45.534 23.481 50.845
45.856 23.546 51.628
46.170 23.295 52.145
45.836 25.089 43.550
46.162 24.940 43.153
45.609 25.035 44.204
45.714 23.898 44.697
45.454 24.734 45.060
45.352 25.104 45.935
45.372 24.845 46.541
45.616 24.911 47.483
46.136 24.978 48.558
46.003 24.379 49.456
46.028 24.315 50.267
46.164 24.073 51.250
45.662 26.111 43.423
45.918 26.213 43.137
45.452 26.047 44.040
45.368 25.934 44.842
45.377 25.766 45.605
45.679 25.897 46.503
46.195 25.771 47.284
46.315 25.461 47.769
45.616 27.142 43.232
45.860 27.320 42.998
45.448 27.036 43.847
45.371 26.809 44.570
45.600 26.914 45.552
46.425 26.954 46.485
46.358 26.419 46.799
45.736 27.903 43.026
46.107 28.299 42.887
45.689 27.984 43.499
45.612 27.721 44.578
45.825 27.856 45.485
46.119 27.626 46.022
45.975 28.512 43.029
46.407 28.922 42.861
46.179 28.626 43.308
46.127 28.456 43.928
46.154 28.301 45.130
46.434 28.985 43.169
46.928 14.981 41.592
46.945 15.153 41.218
47.228 14.895 41.533
47.531 14.840 42.073
46.883 15.063 42.174
47.471 14.920 42.462
47.011 15.305 42.786
47.770 15.182 42.829
46.626 15.597 41.289
46.823 15.854 40.986
46.494 15.417 41.800
46.139 15.929 42.631
47.483 15.532 43.216
46.649 16.066 43.511
47.267 16.180 43.980
46.546 16.762 41.124
46.669 16.982 40.796
46.160 16.311 41.685
46.623 17.432 43.154
47.053 16.628 43.078
46.792 17.112 42.182
46.506 17.000 44.198
47.053 16.472 43.902
46.535 17.175 44.863
47.203 16.813 44.502
47.220 16.742 44.655
47.220 17.242 45.174
46.703 17.980 40.631
46.345 17.103 41.407
46.597 17.849 42.024
46.737 18.112 41.278
46.709 17.297 41.390
46.528 18.218 43.291
46.508 17.980 44.204
46.940 17.271 44.986
46.550 17.827 45.173
46.925 18.244 45.869
47.272 17.754 45.449
47.494 17.746 45.636
47.683 18.238 45.999
46.824 19.001 40.671
46.763 19.063 41.991
46.921 19.361 41.473
46.575 18.985 42.967
46.510 18.842 44.079
46.725 18.627 45.039
46.551 19.030 46.201
47.339 18.419 45.585
47.472 18.880 46.363
46.942 19.880 40.852
46.898 19.926 41.925
46.878 20.733 42.206
46.701 19.981 42.620
46.421 19.791 43.823
46.573 19.300 44.876
46.526 19.905 46.373
47.194 19.309 45.872
47.233 19.800 46.714
46.908 20.556 41.139
46.997 21.114 41.573
46.578 21.062 42.847
46.829 21.504 42.414
46.923 19.901 46.347
46.958 20.714 46.822
46.785 20.958 47.175
47.207 20.386 47.121
47.295 20.658 47.637
46.781 21.206 48.117
46.973 20.860 48.571
46.275 21.229 49.119
46.333 21.022 49.938
45.970 21.190 49.837
46.601 21.098 49.917
46.484 21.234 50.856
46.329 21.164 51.803
46.483 21.314 52.602
46.819 21.912 42.430
46.963 21.755 42.073
46.687 21.692 42.616
46.780 21.742 42.602
46.727 22.182 42.705
46.675 21.939 42.744
46.488 22.507 45.013
46.672 22.554 44.727
46.699 22.264 45.347
46.965 22.402 45.164
46.905 22.079 46.298
47.105 21.147 47.420
46.848 21.805 47.523
46.711 21.400 47.586
46.973 21.332 47.844
46.448 21.489 48.653
46.656 21.986 48.814
46.817 21.531 48.327
46.740 21.377 48.848
46.692 21.642 49.942
46.762 21.143 49.359
46.715 21.702 50.940
46.796 21.739 51.873
47.090 21.922 52.853
46.809 21.579 53.107
46.964 21.957 53.249
46.890 22.426 42.504
46.730 22.914 42.908
46.721 23.128 42.797
46.760 22.843 42.841
46.288 22.980 44.682
46.768 22.991 44.319
47.026 22.816 45.258
46.907 23.265 46.067
46.843 22.931 47.073
46.934 21.628 47.958
46.797 22.462 48.051
46.717 23.381 48.873
46.694 22.647 49.674
46.931 22.581 50.843
47.200 22.521 51.930
47.220 22.317 52.482
46.674 22.533 53.033
46.851 22.329 53.184
46.571 23.765 42.909
46.650 23.691 43.204
46.733 23.973 44.005
46.973 23.239 44.339
45.855 23.457 44.805
46.957 23.634 45.206
46.770 24.367 46.065
46.766 23.975 46.821
46.784 24.132 47.836
47.040 24.507 48.691
46.704 24.144 49.218
46.528 24.383 49.487
46.617 23.811 49.765
47.238 23.681 50.596
47.651 23.299 51.591
46.353 23.784 51.902
47.055 23.423 52.457
47.208 22.921 52.917
46.524 24.177 43.039
46.402 25.091 43.373
46.611 25.150 44.103
46.952 23.700 44.566
46.760 24.789 45.056
46.639 25.391 46.277
46.549 25.204 47.169
46.777 25.502 47.775
47.024 25.017 48.222
46.418 24.746 49.405
46.349 24.489 49.767
47.015 24.441 49.779
46.656 24.847 49.849
47.246 24.876 50.216
46.917 24.576 50.883
46.966 24.133 51.817
46.148 26.570 43.237
46.466 26.111 43.834
46.637 25.876 44.661
46.649 26.347 46.032
46.571 26.126 47.083
46.526 25.812 47.468
46.846 26.065 47.595
46.590 25.876 47.666
46.923 25.626 48.237
46.977 25.268 48.855
47.345 25.089 49.473
46.156 27.601 43.145
46.366 27.023 43.587
46.737 26.957 44.570
47.001 27.049 45.757
47.038 26.862 46.667
47.057 26.502 47.320
46.692 26.573 46.863
46.781 26.757 46.999
47.102 26.187 47.802
47.260 26.727 47.433
46.345 28.433 43.197
46.541 27.814 43.621
47.054 27.761 44.248
47.415 27.507 45.210
46.290 28.092 45.850
47.004 27.710 46.378
47.281 27.244 46.894
46.957 29.101 42.750
46.883 28.763 43.185
47.023 28.291 43.692
46.500 28.472 43.479
46.558 28.830 43.671
47.188 28.959 44.223
46.889 28.663 44.818
46.912 28.309 45.853
47.084 29.436 43.000
47.064 29.204 43.613
47.150 15.302 41.278
47.601 15.093 41.992
48.369 15.092 42.575
48.258 15.007 42.644
48.482 15.425 43.196
46.984 16.124 41.046
47.278 15.631 41.612
48.006 15.251 42.760
47.579 15.681 42.660
47.937 15.353 43.130
47.887 15.743 43.631
48.028 15.617 43.255
47.770 16.406 44.251
46.873 17.049 40.843
47.026 16.598 41.608
48.000 16.500 44.000
48.000 17.000 44.500
47.719 16.926 44.849
47.818 17.322 45.298
46.864 17.881 40.917
47.836 17.344 45.050
48.267 18.076 45.516
48.301 17.798 45.591
48.322 18.573 46.175
46.956 19.303 41.026
48.176 18.870 46.012
48.243 19.401 46.766
47.029 20.455 41.265
47.006 20.235 41.575
48.138 19.569 46.628
47.552 19.803 46.699
47.945 19.996 47.073
48.310 19.811 47.125
47.802 20.095 47.191
48.325 20.020 47.311
47.721 20.438 47.656
48.065 20.332 47.600
46.999 21.313 41.965
47.813 20.313 47.382
47.457 20.536 47.341
47.583 20.408 47.421
47.669 20.562 47.522
47.518 20.715 48.005
46.980 21.051 48.657
46.740 20.952 49.312
46.936 22.268 42.401
46.886 21.976 42.471
46.886 22.501 44.738
47.143 21.158 48.092
47.439 20.877 47.753
47.120 21.889 53.202
46.800 22.788 42.705
47.017 22.763 44.644
47.410 22.933 52.459
47.578 22.796 52.818
47.592 22.490 53.129
47.578 22.787 53.174
46.706 23.451 42.896
47.054 23.156 44.698
46.960 24.514 49.224
48.152 24.237 50.806
48.686 23.861 51.635
47.940 23.343 52.417
47.575 23.329 52.745
47.787 23.911 52.432
47.849 23.404 52.919
47.177 25.518 48.249
47.592 25.282 48.523
47.859 24.938 48.929
47.630 24.806 49.904
48.099 25.052 49.167
48.033 24.642 50.907
47.879 24.434 51.701
47.676 26.041 47.776
47.651 25.609 48.277
47.378 25.520 48.506
47.596 25.771 48.284
47.863 25.328 48.841
47.321 27.327 46.269
47.831 27.064 46.660
47.940 26.571 47.269
47.798 26.318 47.822
47.786 26.896 47.449
47.721 28.155 44.396
48.322 27.716 45.231
47.912 27.387 46.075
47.586 27.550 46.691
47.792 27.954 46.629
47.925 27.406 47.129
47.542 29.170 42.723
47.705 28.990 43.008
47.706 28.684 43.624
48.076 28.731 44.865
47.798 29.041 44.157
47.894 28.423 45.857
47.690 29.802 42.574
48.290 30.057 42.371
48.170 29.637 42.500
48.149 29.264 42.770
47.799 29.991 42.941
48.162 30.115 43.306
47.906 29.584 43.708
48.235 30.206 42.617
48.260 30.285 42.963
49.035 15.229 42.794
48.954 15.249 42.900
49.258 15.593 43.158
48.681 15.542 43.160
49.191 15.511 42.990
48.500 16.000 44.000
49.073 15.916 43.486
49.289 15.876 43.313
48.500 17.000 44.000
49.000 16.500 44.000
49.385 16.502 43.766
49.000 17.000 44.500
48.500 17.000 45.000
49.292 17.017 44.229
48.772 17.574 45.124
49.108 17.529 45.044
49.433 17.474 44.764
49.053 18.204 45.694
48.940 18.893 46.320
49.147 17.949 45.280
49.062 18.532 45.789
48.840 19.385 46.772
48.590 19.673 47.041
48.787 19.666 46.996
48.761 19.144 46.342
48.176 20.086 47.221
48.761 19.559 46.794
48.437 20.033 47.288
47.954 20.437 47.590
48.454 23.304 52.763
48.198 23.130 53.073
48.257 23.399 53.020
49.499 24.384 50.793
49.714 24.108 51.630
48.954 23.727 52.218
48.563 23.871 52.681
48.628 24.267 52.211
48.370 25.505 48.208
49.478 25.504 47.737
49.202 25.173 48.203
49.133 24.989 48.789
48.954 25.007 49.160
49.523 24.541 50.961
49.051 24.498 51.667
48.629 26.099 47.544
48.802 26.399 46.915
49.595 25.805 47.300
47.975 25.492 48.492
48.427 25.644 48.229
48.897 25.177 48.847
48.908 26.754 46.294
48.039 26.500 47.621
48.558 26.723 47.489
48.553 26.134 47.758
48.666 28.411 44.709
49.211 27.688 45.330
49.058 27.151 45.729
48.716 27.516 47.187
48.860 28.022 46.687
48.340 29.048 43.237
48.412 28.844 44.000
48.029 28.660 44.278
48.369 28.989 44.465
49.153 28.685 45.181
49.217 28.319 45.835
48.723 30.064 42.350
49.170 29.916 42.577
49.008 29.446 42.960
48.733 29.948 43.861
48.601 30.274 43.329
48.949 29.357 44.569
48.826 30.259 42.513
48.946 30.333 43.027
49.388 15.420 42.951
49.563 15.621 43.042
49.617 15.724 43.150
49.523 16.148 43.544
49.668 16.095 43.390
49.796 16.589 43.766
49.463 16.715 44.067
49.595 17.228 44.525
49.775 17.061 44.211
49.851 17.530 44.665
49.628 17.849 45.131
49.451 18.485 45.767
49.829 17.983 45.160
49.676 17.956 45.145
49.161 19.017 46.274
49.117 19.195 46.521
48.877 23.677 52.764
50.395 24.398 50.882
50.632 24.263 51.640
49.694 23.962 52.257
49.717 24.225 52.230
50.099 25.259 47.623
50.157 24.998 48.243
49.572 25.109 48.574
50.138 25.066 48.376
49.992 24.748 49.510
50.054 24.909 48.999
49.702 24.743 49.925
50.720 24.500 51.141
50.359 24.607 50.502
50.330 24.463 51.661
49.810 26.100 46.563
50.455 25.536 46.998
49.981 25.525 47.494
50.168 25.342 48.035
49.498 25.553 47.918
49.775 25.983 47.652
50.390 24.754 49.698
49.933 26.503 45.988
49.669 26.921 47.475
49.327 28.197 45.285
49.900 27.792 45.466
49.979 27.031 45.618
49.581 27.560 47.203
50.133 27.863 46.820
49.055 29.078 43.552
49.484 28.798 44.216
49.899 28.316 45.047
49.700 28.419 45.581
49.995 28.908 45.458
50.174 28.382 46.167
49.232 30.182 42.505
49.734 30.114 42.764
50.110 29.829 43.141
49.358 30.164 43.743
49.969 29.290 43.648
50.298 29.994 44.162
49.939 29.643 44.598
49.732 30.262 42.963
50.050 30.215 43.606
49.768 16.033 43.345
49.820 16.678 43.892
49.898 17.499 44.647
51.054 24.416 51.166
51.397 24.367 51.530
50.937 24.295 51.987
51.061 24.387 51.980
50.997 25.179 47.511
50.958 24.896 48.312
50.721 24.748 49.047
50.375 24.914 48.752
50.985 24.508 50.354
51.110 24.503 50.677
51.413 24.419 51.597
50.890 25.941 46.280
51.355 25.493 46.789
50.847 25.564 47.915
50.738 26.340 47.595
50.789 24.945 48.797
51.355 24.552 50.171
50.704 26.467 45.820
50.892 26.994 45.616
51.554 26.369 45.947
50.522 27.130 47.361
51.431 26.608 47.435
51.389 27.269 47.133
50.939 27.641 45.361
51.183 27.983 46.644
50.857 28.920 44.476
51.062 28.162 45.050
50.922 28.535 46.110
51.378 28.986 45.531
50.380 30.122 43.169
51.198 30.034 43.573
51.154 29.672 43.856
51.224 29.619 44.654
51.120 29.927 44.171
51.064 30.101 43.763
51.684 24.367 51.713
51.586 24.377 51.980
51.701 24.400 51.918
51.330 25.167 47.992
51.178 24.745 49.038
51.365 24.522 50.076
51.596 24.414 51.012
51.731 24.423 50.791
51.629 24.418 51.125
51.892 24.392 51.738
51.865 24.391 51.462
51.937 25.843 46.431
52.067 25.504 47.114
51.851 25.841 47.507
51.824 24.407 51.052
52.011 27.199 45.730
52.458 26.452 46.176
52.334 26.484 47.247
52.466 27.448 46.739
51.678 27.790 45.334
51.789 28.395 45.053
52.357 27.906 45.523
51.917 28.206 46.284
52.793 27.856 46.243
52.588 28.333 45.934
51.889 29.259 44.665
52.330 28.910 45.595
52.185 30.090 43.807
52.145 29.812 44.194
51.415 29.564 44.342
51.687 29.760 44.441
52.120 29.397 45.073
52.146 30.114 43.933
52.155 29.861 44.435
51.893 24.383 51.848
51.916 24.381 51.445
52.750 26.003 46.648
52.832 25.674 47.036
52.677 25.630 47.263
52.661 25.863 47.344
52.945 25.715 47.286
53.011 27.397 46.115
52.951 26.547 46.372
52.983 26.614 46.927
53.289 27.351 46.538
52.948 25.995 47.203
52.638 28.577 45.254
52.983 28.084 45.809
52.690 27.746 45.918
53.113 28.094 46.031
53.308 27.923 46.277
53.118 29.330 44.792
53.481 28.400 45.897
53.110 28.818 45.588
53.000 30.000 41.000
53.000 30.000 41.000
53.000 30.000 41.000
53.000 30.000 41.000
53.107 30.307 43.681
53.348 30.079 43.990
52.806 29.523 44.932
53.000 30.000 41.000
53.143 30.330 43.723
52.945 29.943 44.356
53.068 26.030 46.952
53.015 25.716 47.178
53.187 26.719 46.566
53.338 28.630 45.561
53.553 28.266 45.861
53.521 27.624 46.235
53.687 28.016 46.149
53.599 28.954 45.327
53.592 28.692 45.633
53.805 28.797 45.502
53.620 28.707 45.675
53.725 28.432 45.912
53.000 30.000 41.000
53.766 30.700 43.152
54.019 30.841 42.913
53.788 30.554 43.377
53.996 30.524 43.461
53.834 30.326 43.734
53.760 29.924 44.237
53.709 29.308 44.963
53.469 29.391 45.017
53.799 28.939 45.468
54.149 30.963 42.691
54.089 30.956 42.706
54.179 31.023 42.578
54.041 30.892 42.837
53.965 30.336 43.739
53.871 30.651 43.268
53.959 30.526 43.486
53.666 30.146 44.032
54.158 30.998 42.634
54.119 30.887 42.854
54.070 30.704 43.186
53.792 28.251 45.932
53.876 28.648 45.679
54.088 30.770 43.040
53.844 29.467 44.835
54.179 30.959 42.704
54.140 30.796 43.008
54.005 30.400 43.633
3 2 1 0
3 4 3 0
3 0 3 2
3 4 5 3
3 8 7 6
3 10 9 6
3 6 9 8
3 9 10 1
3 10 0 1
3 10 11 0
3 0 12 4
3 0 11 12
3 5 4 13
3 4 14 13
3 4 12 14
3 14 15 13
3 6 7 16
3 16 7 17
3 6 18 10
3 6 16 18
3 10 19 11
3 10 18 19
3 11 20 12
3 11 19 20
3 12 21 14
3 12 20 21
3 15 14 22
3 22 14 21
3 16 17 23
3 23 17 24
3 16 25 18
3 16 23 25
3 18 26 19
3 18 25 26
3 19 27 20
3 19 26 27
3 20 28 21
3 20 27 28
3 22 21 29
3 29 21 28
3 24 30 23
3 32 31 30
3 31 23 30
3 31 25 23
3 25 33 26
3 25 31 33
3 35 27 34
3 27 33 34
3 27 26 33
3 27 35 28
3 28 35 36
3 28 36 29
3 39 38 37
3 41 40 37
3 37 40 39
3 43 42 41
3 41 42 40
3 43 44 42
3 32 45 31
3 31 45 33
3 33 45 46
3 33 46 34
3 49 48 47
3 51 50 47
3 47 50 49
3 53 52 51
3 51 52 50
3 55 54 53
3 53 54 52
3 57 56 55
3 55 56 54
3 56 57 38
3 57 37 38
3 57 58 37
3 37 59 41
3 37 58 59
3 41 60 43
3 41 59 60
3 44 43 61
3 61 43 60
3 47 48 62
3 62 48 63
3 47 64 51
3 47 62 64
3 51 65 53
3 51 64 65
3 53 66 55
3 53 65 66
3 55 67 57
3 55 66 67
3 57 68 58
3 57 67 68
3 58 69 59
3 58 68 69
3 71 60 70
3 60 69 70
3 60 59 69
3 60 71 61
3 74 73 72
3 76 75 72
3 72 75 74
3 76 77 75
3 62 63 78
3 78 63 79
3 62 80 64
3 62 78 80
3 64 81 65
3 64 80 81
3 65 82 66
3 65 81 82
3 66 83 67
3 66 82 83
3 67 84 68
3 67 83 84
3 86 69 85
3 69 84 85
3 69 68 84
3 69 86 70
3 72 73 87
3 87 73 88
3 72 89 76
3 72 87 89
3 77 76 90
3 76 91 90
3 76 89 91
3 90 91 79
3 91 78 79
3 91 92 78
3 78 93 80
3 78 92 93
3 80 94 81
3 80 93 94
3 96 82 95
3 82 94 95
3 82 81 94
3 82 96 83
3 83 96 97
3 83 97 84
3 84 97 98
3 84 98 85
3 87 88 99
3 99 88 100
3 87 101 89
3 87 99 101
3 89 102 91
3 89 101 102
3 91 103 92
3 91 102 103
3 92 104 93
3 92 103 104
3 106 94 105
3 94 104 105
3 94 93 104
3 94 106 95
3 99 100 107
3 107 100 108
3 99 109 101
3 99 107 109
3 101 110 102
3 101 109 110
3 102 111 103
3 102 110 111
3 113 104 112
3 104 111 112
3 104 103 111
3 104 113 105
3 107 108 114
3 114 108 115
3 107 116 109
3 107 114 116
3 109 117 110
3 109 116 117
3 119 111 118
3 111 117 118
3 111 110 117
3 111 119 112
3 114 115 120
3 120 115 121
3 123 116 122
3 116 120 122
3 116 114 120
3 116 123 117
3 117 123 124
3 117 124 118
3 121 125 120
3 120 125 122
3 128 127 126
3 130 129 126
3 126 129 128
3 132 131 130
3 130 131 129
3 132 133 131
3 126 127 134
3 134 127 135
3 126 136 130
3 126 134 136
3 130 137 132
3 130 136 137
3 133 132 138
3 132 139 138
3 132 137 139
3 139 140 138
3 134 135 141
3 141 135 142
3 134 143 136
3 134 141 143
3 146 145 144
3 137 1 2
3 1 137 143
3 136 143 137
3 148 147 145
3 144 145 147
3 137 3 139
3 3 137 2
3 147 5 149
3 5 147 3
3 139 3 147
3 148 139 147
3 139 148 140
3 150 140 148
3 140 150 151
3 149 151 150
3 147 149 150
3 149 152 151
3 141 142 8
3 142 7 8
3 142 153 7
3 9 154 8
3 154 155 8
3 156 8 155
3 8 156 141
3 157 141 156
3 141 157 154
3 154 143 141
3 9 143 154
3 154 157 155
3 143 9 1
3 157 146 155
3 144 155 146
3 155 144 158
3 159 144 147
3 158 144 159
3 149 5 13
3 150 160 147
3 161 147 160
3 147 161 159
3 161 15 162
3 15 161 13
3 149 13 161
3 160 149 161
3 149 160 152
3 163 152 160
3 152 163 164
3 162 164 163
3 161 162 163
3 162 165 164
3 153 17 7
3 166 17 153
3 156 155 167
3 156 167 168
3 169 155 158
3 167 155 169
3 170 158 159
3 169 158 170
3 171 159 161
3 170 159 171
3 162 15 172
3 22 172 15
3 173 161 163
3 161 173 171
3 165 162 174
3 174 162 172
3 166 24 17
3 175 24 166
3 176 168 167
3 178 177 176
3 167 178 176
3 169 178 167
3 179 169 170
3 178 169 179
3 180 170 171
3 179 170 180
3 172 22 181
3 29 181 22
3 182 171 173
3 171 182 180
3 174 172 183
3 183 172 181
3 175 184 24
3 24 184 30
3 32 30 184
3 32 184 185
3 177 178 186
3 177 186 187
3 34 186 35
3 186 179 35
3 186 178 179
3 35 179 36
3 36 179 180
3 180 182 36
3 182 188 36
3 181 29 36
3 181 36 188
3 188 189 181
3 189 190 181
3 191 183 181
3 191 181 190
3 193 192 190
3 190 192 191
3 195 194 193
3 193 194 192
3 197 196 195
3 195 196 194
3 197 38 196
3 38 39 196
3 199 198 196
3 199 196 39
3 40 200 39
3 39 200 199
3 42 201 40
3 40 201 200
3 44 201 42
3 45 32 202
3 32 203 202
3 32 185 203
3 45 204 46
3 45 186 204
3 186 45 187
3 202 187 45
3 187 202 205
3 204 205 202
3 202 206 204
3 204 206 46
3 186 205 204
3 205 186 207
3 186 34 207
3 46 206 207
3 46 207 34
3 210 209 208
3 208 48 210
3 48 49 210
3 212 211 210
3 212 210 49
3 50 190 49
3 189 49 190
3 49 189 212
3 213 212 189
3 212 213 214
3 52 215 50
3 52 214 215
3 214 52 216
3 193 216 52
3 216 193 213
3 215 213 193
3 193 190 215
3 215 190 50
3 214 213 215
3 54 217 52
3 217 218 52
3 219 52 218
3 52 219 193
3 220 193 219
3 193 220 217
3 217 195 193
3 54 195 217
3 217 220 218
3 222 221 220
3 218 220 221
3 195 56 197
3 56 195 54
3 197 56 38
3 222 198 221
3 199 221 198
3 221 199 223
3 224 199 200
3 223 199 224
3 201 226 225
3 224 201 225
3 200 201 224
3 201 44 226
3 44 227 226
3 44 61 227
3 203 228 202
3 230 229 228
3 229 202 228
3 229 206 202
3 207 206 231
3 231 206 229
3 208 209 232
3 232 209 233
3 232 48 208
3 48 232 63
3 211 212 234
3 235 234 212
3 236 212 214
3 235 212 236
3 214 216 237
3 238 214 237
3 236 214 238
3 238 237 219
3 218 238 219
3 239 238 218
3 240 218 221
3 239 218 240
3 241 221 223
3 240 221 241
3 224 243 242
3 241 224 242
3 223 224 241
3 71 70 244
3 224 225 243
3 244 245 71
3 245 61 71
3 245 227 61
3 229 230 74
3 230 73 74
3 230 246 73
3 74 75 229
3 75 247 229
3 247 231 229
3 75 248 247
3 249 248 233
3 75 233 248
3 233 75 232
3 77 232 75
3 232 77 250
3 250 63 232
3 63 250 79
3 234 235 251
3 252 251 235
3 253 235 236
3 252 235 253
3 254 236 238
3 253 236 254
3 239 256 255
3 254 239 255
3 238 239 254
3 258 257 256
3 239 258 256
3 240 258 239
3 241 260 259
3 258 241 259
3 240 241 258
3 86 85 261
3 241 242 260
3 261 262 86
3 86 262 70
3 262 263 70
3 263 244 70
3 244 263 245
3 265 88 264
3 88 246 264
3 88 73 246
3 265 264 247
3 248 265 247
3 266 265 248
3 250 77 90
3 249 267 248
3 268 248 267
3 248 268 266
3 250 90 79
3 267 251 268
3 252 268 251
3 268 252 269
3 270 252 253
3 269 252 270
3 254 272 271
3 270 254 271
3 253 254 270
3 96 95 273
3 254 255 272
3 96 274 97
3 96 258 274
3 258 96 257
3 273 257 96
3 257 273 275
3 274 275 273
3 273 276 274
3 274 276 97
3 258 275 274
3 258 259 275
3 278 276 277
3 276 278 97
3 98 97 278
3 85 98 261
3 98 279 261
3 98 278 279
3 261 279 262
3 280 100 265
3 265 100 88
3 281 265 266
3 280 265 281
3 282 266 268
3 281 266 282
3 283 268 269
3 282 268 283
3 284 269 270
3 283 269 284
3 286 285 271
3 285 287 271
3 106 271 287
3 271 106 270
3 105 270 106
3 270 105 285
3 285 284 270
3 286 284 285
3 285 105 287
3 287 288 106
3 106 288 95
3 288 289 95
3 289 273 95
3 273 289 276
3 276 289 290
3 276 290 277
3 291 108 280
3 280 108 100
3 292 280 281
3 291 280 292
3 293 281 282
3 292 281 293
3 283 295 294
3 293 283 294
3 282 283 293
3 295 297 296
3 295 298 297
3 298 295 112
3 283 112 295
3 112 283 113
3 297 113 283
3 283 284 297
3 297 284 296
3 298 113 297
3 284 113 298
3 113 284 105
3 287 105 284
3 286 287 284
3 287 286 299
3 296 299 286
3 299 296 300
3 298 300 296
3 284 298 296
3 287 299 288
3 301 115 291
3 291 115 108
3 302 291 292
3 301 291 302
3 293 304 303
3 302 293 303
3 292 293 302
3 119 118 305
3 293 294 304
3 305 306 119
3 119 306 112
3 306 307 112
3 307 298 112
3 298 307 300
3 309 308 301
3 308 115 301
3 308 121 115
3 309 311 310
3 309 312 311
3 312 309 122
3 301 122 309
3 122 301 123
3 311 123 301
3 301 302 311
3 311 302 310
3 312 123 311
3 302 303 310
3 314 312 313
3 312 314 123
3 124 123 314
3 118 124 305
3 124 315 305
3 124 314 315
3 305 315 306
3 308 316 121
3 121 316 125
3 122 125 312
3 125 317 312
3 125 316 317
3 312 317 313
3 318 127 128
3 129 319 128
3 128 319 318
3 319 129 320
3 129 321 320
3 129 131 321
3 131 133 321
3 321 133 322
3 323 135 318
3 318 135 127
3 324 318 319
3 323 318 324
3 319 320 325
3 326 319 325
3 324 319 326
3 328 327 138
3 327 329 138
3 326 138 329
3 138 326 133
3 325 133 326
3 133 325 327
3 327 322 133
3 328 322 327
3 327 325 329
3 138 140 328
3 328 140 330
3 331 142 323
3 323 142 135
3 332 323 324
3 331 323 332
3 146 332 145
3 332 326 145
3 332 324 326
3 329 333 326
3 333 145 326
3 333 148 145
3 333 150 148
3 150 333 334
3 140 151 330
3 335 330 151
3 151 152 335
3 335 152 336
3 337 153 331
3 331 153 142
3 156 337 157
3 337 332 157
3 337 331 332
3 157 332 146
3 334 338 150
3 150 338 160
3 338 163 160
3 163 338 339
3 152 164 336
3 340 336 164
3 164 165 340
3 340 165 341
3 342 166 337
3 337 166 153
3 168 342 156
3 156 342 337
3 339 173 163
3 343 173 339
3 174 341 165
3 174 344 341
3 345 175 342
3 342 175 166
3 176 346 168
3 346 342 168
3 346 345 342
3 177 346 176
3 348 182 347
3 182 343 347
3 182 173 343
3 348 347 349
3 344 351 350
3 351 344 183
3 174 183 344
3 353 352 351
3 351 352 350
3 353 354 352
3 345 184 175
3 184 345 185
3 345 355 185
3 345 346 355
3 187 355 177
3 177 355 346
3 348 188 182
3 348 349 351
3 356 351 349
3 351 356 357
3 351 357 191
3 189 191 357
3 191 189 183
3 188 183 189
3 183 188 348
3 183 348 351
3 192 358 191
3 192 357 358
3 357 192 359
3 353 359 192
3 359 353 356
3 358 356 353
3 353 351 358
3 358 351 191
3 357 356 358
3 192 194 353
3 194 360 353
3 360 354 353
3 194 361 360
3 196 362 194
3 194 362 361
3 198 362 196
3 363 203 355
3 355 203 185
3 205 364 187
3 364 355 187
3 364 363 355
3 207 364 205
3 365 209 210
3 211 365 210
3 357 213 189
3 367 366 216
3 367 216 213
3 359 367 213
3 357 359 213
3 366 367 360
3 366 360 361
3 219 366 361
3 220 219 361
3 220 361 222
3 222 361 362
3 222 362 198
3 368 225 226
3 227 368 226
3 363 228 203
3 228 363 230
3 363 369 230
3 363 364 369
3 231 369 207
3 207 369 364
3 370 233 365
3 365 233 209
3 234 370 211
3 211 370 365
3 366 237 216
3 237 366 219
3 371 242 243
3 372 371 243
3 372 243 225
3 373 372 225
3 368 373 225
3 368 227 373
3 227 374 373
3 227 245 374
3 375 246 369
3 369 246 230
3 247 375 231
3 231 375 369
3 376 249 370
3 370 249 233
3 251 376 234
3 234 376 370
3 377 255 256
3 257 377 256
3 379 378 260
3 260 378 259
3 260 242 371
3 380 260 371
3 379 260 380
3 382 381 262
3 381 380 262
3 371 262 380
3 262 371 263
3 372 263 371
3 263 372 381
3 381 383 263
3 382 383 381
3 381 372 380
3 245 263 374
3 374 263 383
3 375 264 246
3 264 375 247
3 376 267 249
3 267 376 251
3 384 271 272
3 385 384 272
3 385 272 255
3 386 385 255
3 377 386 255
3 388 386 387
3 387 386 275
3 386 377 275
3 377 257 275
3 278 277 389
3 387 389 277
3 389 387 378
3 275 378 387
3 378 275 259
3 278 390 279
3 389 390 278
3 262 279 382
3 382 279 390
3 392 391 384
3 391 271 384
3 391 286 271
3 394 393 288
3 393 392 288
3 384 288 392
3 288 384 289
3 385 289 384
3 289 385 393
3 393 395 289
3 394 395 393
3 393 385 392
3 387 290 388
3 290 395 388
3 290 289 395
3 290 387 277
3 396 294 295
3 396 295 397
3 295 398 397
3 295 296 398
3 299 300 399
3 400 399 300
3 391 296 286
3 296 391 398
3 288 299 394
3 394 299 399
3 402 401 304
3 304 401 303
3 304 294 396
3 403 304 396
3 402 304 403
3 405 404 306
3 404 403 306
3 396 306 403
3 306 396 307
3 397 307 396
3 307 397 404
3 404 406 307
3 405 406 404
3 404 397 403
3 300 307 400
3 400 307 406
3 407 308 309
3 407 309 408
3 309 409 408
3 309 310 409
3 314 313 410
3 411 410 313
3 401 310 303
3 310 401 409
3 314 412 315
3 410 412 314
3 306 315 405
3 405 315 412
3 415 414 413
3 415 407 416
3 407 415 308
3 413 308 415
3 308 413 316
3 417 316 413
3 407 408 416
3 419 417 418
3 417 419 316
3 317 316 419
3 313 317 411
3 411 317 419
3 414 420 413
3 413 420 417
3 417 420 421
3 417 421 418
3 423 422 321
3 321 422 320
3 321 322 423
3 423 322 424
3 325 320 425
3 320 426 425
3 320 422 426
3 329 325 425
3 328 427 322
3 428 322 427
3 322 428 424
3 330 427 328
3 426 429 425
3 427 329 425
3 329 427 333
3 430 333 427
3 431 430 427
3 430 431 432
3 428 432 431
3 432 428 429
3 425 429 428
3 427 425 428
3 434 433 430
3 431 430 433
3 430 431 427
3 430 427 333
3 330 333 427
3 333 330 334
3 335 334 330
3 334 335 434
3 334 434 430
3 336 434 335
3 432 435 430
3 434 334 430
3 334 434 338
3 436 338 434
3 437 436 434
3 436 437 438
3 433 438 437
3 438 433 435
3 430 435 433
3 434 430 433
3 436 339 338
3 340 434 336
3 434 340 437
3 439 437 340
3 340 341 439
3 439 341 440
3 438 441 436
3 339 436 441
3 442 339 441
3 343 339 442
3 344 444 443
3 440 344 443
3 341 344 440
3 444 445 443
3 442 446 343
3 343 446 347
3 444 344 350
3 347 447 349
3 447 347 448
3 446 448 347
3 352 444 350
3 444 352 445
3 449 445 352
3 445 449 448
3 447 448 449
3 354 449 352
3 447 356 349
3 356 447 359
3 447 450 359
3 447 449 450
3 360 450 354
3 354 450 449
3 450 367 359
3 367 450 360
3 452 451 373
3 373 451 372
3 373 374 452
3 452 374 453
3 455 454 379
3 379 454 378
3 456 379 380
3 456 455 379
3 383 382 457
3 458 457 382
3 451 380 372
3 380 451 456
3 374 383 453
3 453 383 457
3 461 460 459
3 385 386 459
3 386 461 459
3 386 462 461
3 386 388 462
3 462 388 463
3 454 464 378
3 378 464 389
3 389 465 390
3 464 465 389
3 382 390 458
3 458 390 465
3 468 467 466
3 468 466 460
3 460 466 459
3 466 391 459
3 391 392 459
3 470 469 394
3 470 392 469
3 392 470 459
3 471 459 470
3 459 471 385
3 469 385 471
3 471 395 469
3 469 395 394
3 392 385 469
3 388 395 463
3 463 395 471
3 466 467 398
3 467 397 398
3 467 472 397
3 474 473 400
3 474 398 473
3 398 474 466
3 475 466 474
3 466 475 391
3 473 391 475
3 475 399 473
3 473 399 400
3 398 391 473
3 394 399 470
3 470 399 475
3 477 476 402
3 402 476 401
3 478 402 403
3 478 477 402
3 406 405 479
3 480 479 405
3 472 403 397
3 403 472 478
3 400 406 474
3 474 406 479
3 482 481 409
3 409 481 408
3 476 483 401
3 476 410 483
3 410 476 484
3 482 484 476
3 484 482 411
3 483 411 482
3 482 409 483
3 483 409 401
3 410 411 483
3 410 484 485
3 486 410 485
3 412 410 486
3 405 412 480
3 480 412 486
3 488 487 415
3 415 487 414
3 489 415 416
3 489 488 415
3 419 418 490
3 491 490 418
3 481 416 408
3 416 481 489
3 411 419 484
3 419 492 484
3 419 490 492
3 484 492 485
3 487 493 414
3 414 493 420
3 420 494 421
3 493 494 420
3 418 421 491
3 491 421 494
3 495 422 423
3 424 495 423
3 497 496 495
3 496 422 495
3 496 426 422
3 495 424 497
3 424 498 497
3 424 428 498
3 496 499 426
3 426 499 429
3 499 432 429
3 432 499 500
3 428 431 498
3 501 498 431
3 431 433 501
3 501 433 502
3 500 503 432
3 432 503 435
3 503 438 435
3 438 503 504
3 433 437 502
3 505 502 437
3 507 505 506
3 505 439 506
3 505 437 439
3 440 506 439
3 504 508 438
3 438 508 441
3 506 509 442
3 508 506 442
3 441 508 442
3 507 506 508
3 443 510 440
3 510 506 440
3 510 509 506
3 445 510 443
3 509 446 442
3 446 509 448
3 448 509 510
3 448 510 445
3 511 451 452
3 453 511 452
3 513 512 455
3 455 512 454
3 514 455 456
3 514 513 455
3 456 451 514
3 511 514 451
3 514 511 515
3 457 515 511
3 515 457 458
3 457 511 453
3 517 516 461
3 461 516 460
3 519 517 518
3 517 462 518
3 517 461 462
3 521 518 520
3 518 462 520
3 463 522 520
3 463 520 462
3 464 524 523
3 524 464 522
3 454 522 464
3 522 454 520
3 512 520 454
3 464 525 465
3 523 525 464
3 458 465 515
3 515 465 525
3 527 526 468
3 468 526 467
3 516 528 460
3 528 529 460
3 530 460 529
3 460 530 468
3 531 468 530
3 468 531 528
3 528 527 468
3 516 527 528
3 528 531 529
3 530 529 519
3 530 519 518
3 470 530 518
3 471 470 518
3 518 521 471
3 521 532 471
3 522 463 471
3 522 471 532
3 522 532 524
3 526 472 467
3 533 472 526
3 531 530 475
3 474 531 475
3 534 531 474
3 475 530 470
3 535 476 477
3 535 477 536
3 477 537 536
3 477 478 537
3 479 480 538
3 539 538 480
3 533 478 472
3 478 533 537
3 474 479 534
3 534 479 538
3 540 481 482
3 541 540 482
3 541 482 476
3 542 541 476
3 535 542 476
3 544 543 485
3 543 542 485
3 535 485 542
3 485 535 486
3 536 486 535
3 486 536 543
3 543 545 486
3 544 545 543
3 543 536 542
3 480 486 539
3 539 486 545
3 546 487 488
3 546 488 547
3 488 548 547
3 488 489 548
3 490 491 549
3 481 540 489
3 550 489 540
3 489 550 548
3 540 541 550
3 552 549 551
3 549 552 490
3 492 490 552
3 485 492 544
3 544 492 552
3 546 493 487
3 547 553 546
3 553 493 546
3 553 494 493
3 491 494 549
3 494 554 549
3 494 553 554
3 549 554 551
3 555 496 497
3 498 555 497
3 555 499 496
3 500 499 556
3 499 555 556
3 498 501 556
3 498 556 555
3 502 556 501
3 556 503 500
3 504 503 557
3 503 556 557
3 502 505 557
3 502 557 556
3 507 557 505
3 557 508 504
3 508 557 507
3 558 512 513
3 558 513 559
3 513 560 559
3 513 514 560
3 514 515 560
3 560 515 561
3 563 562 517
3 517 562 516
3 565 564 519
3 564 517 519
3 564 563 517
3 521 520 565
3 520 564 565
3 520 566 564
3 520 512 566
3 558 566 512
3 566 558 567
3 523 567 558
3 567 523 524
3 559 568 558
3 568 523 558
3 568 525 523
3 515 525 561
3 561 525 568
3 570 569 527
3 527 569 526
3 529 531 571
3 572 571 531
3 562 527 516
3 527 562 570
3 519 529 565
3 529 573 565
3 529 571 573
3 565 573 521
3 573 532 521
3 573 574 532
3 524 532 567
3 567 532 574
3 577 576 575
3 580 579 578
3 577 575 569
3 533 569 575
3 569 533 526
3 579 572 578
3 572 534 578
3 572 531 534
3 575 576 537
3 576 536 537
3 576 581 536
3 575 537 533
3 539 578 538
3 578 539 580
3 582 580 539
3 538 578 534
3 584 583 542
3 542 583 541
3 545 544 585
3 586 585 544
3 581 542 536
3 542 581 584
3 539 545 582
3 582 545 585
3 587 547 548
3 587 548 588
3 548 589 588
3 548 550 589
3 552 551 590
3 591 590 551
3 583 550 541
3 550 583 589
3 544 552 586
3 586 552 590
3 587 553 547
3 588 592 587
3 592 553 587
3 592 554 553
3 551 554 591
3 591 554 592
3 594 593 560
3 560 593 559
3 560 561 594
3 594 561 595
3 596 562 563
3 564 597 563
3 563 597 596
3 566 598 564
3 564 598 597
3 600 598 599
3 598 566 599
3 567 601 599
3 567 599 566
3 568 603 602
3 603 568 601
3 559 601 568
3 601 559 599
3 593 599 559
3 561 568 595
3 595 568 602
3 605 604 570
3 570 604 569
3 570 562 605
3 596 605 562
3 605 596 606
3 571 606 596
3 606 571 572
3 571 596 573
3 573 596 597
3 573 597 574
3 574 597 598
3 598 600 574
3 600 607 574
3 601 567 574
3 601 574 607
3 601 607 603
3 609 608 577
3 577 608 576
3 579 580 610
3 611 610 580
3 604 577 569
3 577 604 609
3 572 579 606
3 606 579 610
3 614 613 612
3 617 616 615
3 614 612 608
3 581 608 612
3 608 581 576
3 616 611 615
3 611 582 615
3 611 580 582
3 612 613 584
3 613 583 584
3 613 618 583
3 612 584 581
3 586 615 585
3 615 586 617
3 619 617 586
3 585 615 582
3 621 620 589
3 589 620 588
3 618 622 583
3 618 590 622
3 590 618 623
3 621 623 618
3 623 621 591
3 622 591 621
3 621 589 622
3 622 589 583
3 590 591 622
3 623 624 590
3 624 586 590
3 624 619 586
3 620 625 588
3 588 625 592
3 591 592 623
3 592 626 623
3 592 625 626
3 623 626 624
3 627 593 594
3 595 627 594
3 628 600 599
3 599 593 628
3 593 627 628
3 602 603 628
3 602 628 627
3 602 627 595
3 630 629 605
3 605 629 604
3 632 631 606
3 631 605 606
3 631 630 605
3 632 633 631
3 628 607 600
3 607 628 603
3 635 634 609
3 609 634 608
3 610 611 636
3 637 636 611
3 629 609 604
3 609 629 635
3 606 610 632
3 610 638 632
3 610 636 638
3 632 638 633
3 640 639 614
3 614 639 613
3 634 641 608
3 634 616 641
3 616 634 642
3 640 642 634
3 642 640 617
3 641 617 640
3 640 614 641
3 641 614 608
3 616 617 641
3 642 643 616
3 643 611 616
3 643 637 611
3 639 618 613
3 644 618 639
3 646 645 642
3 617 646 642
3 619 646 617
3 642 645 643
3 649 648 647
3 647 650 649
3 652 651 621
3 621 651 620
3 621 618 644
3 621 644 652
3 624 646 619
3 624 653 646
3 648 654 647
3 647 654 650
3 651 655 620
3 620 655 625
3 625 656 626
3 655 656 625
3 624 626 653
3 653 626 656
3 657 629 630
3 631 658 630
3 630 658 657
3 633 658 631
3 659 634 635
3 635 629 659
3 629 657 659
3 636 637 659
3 636 659 657
3 636 657 638
3 638 657 658
3 638 658 633
3 660 639 640
3 661 660 640
3 661 640 634
3 662 661 634
3 659 662 634
3 659 637 662
3 637 663 662
3 637 643 663
3 664 644 660
3 660 644 639
3 666 665 661
3 665 667 661
3 645 661 667
3 661 645 660
3 646 660 645
3 660 646 665
3 665 664 660
3 666 664 665
3 665 646 667
3 667 668 645
3 668 643 645
3 668 663 643
3 669 648 649
3 650 669 649
3 672 671 670
3 670 651 672
3 651 652 672
3 674 673 672
3 674 672 652
3 675 674 652
3 675 652 644
3 676 675 644
3 664 676 644
3 666 676 664
3 678 667 677
3 646 677 667
3 677 646 653
3 667 678 668
3 669 654 648
3 654 669 650
3 681 680 679
3 679 680 671
3 680 670 671
3 680 682 670
3 683 673 674
3 670 655 651
3 655 670 684
3 682 684 670
3 674 675 683
3 686 684 685
3 684 686 655
3 656 655 686
3 653 656 677
3 677 656 686
3 681 687 680
3 680 687 682
3 682 687 688
3 682 688 684
3 684 688 689
3 684 689 685
3 690 661 662
3 663 690 662
3 691 666 690
3 690 666 661
3 668 691 663
3 663 691 690
3 692 671 672
3 673 692 672
3 693 675 676
3 676 666 693
3 666 691 693
3 678 677 693
3 678 693 691
3 678 691 668
3 694 681 679
3 671 692 679
3 692 694 679
3 692 695 694
3 683 696 673
3 696 692 673
3 696 695 692
3 683 675 696
3 675 693 696
3 686 685 696
3 686 696 693
3 686 693 677
3 694 687 681
3 687 694 688
3 688 694 695
3 688 695 689
3 689 695 696
3 689 696 685
