ply
format ascii 1.0
comment None
element vertex 303
property float x
property float y
property float z
element face 646
property list uchar int vertex_indices
end_header
17.736 55.445 38.839
17.689 55.720 38.437
18.082 55.063 38.630
18.298 54.781 39.135
17.900 55.339 39.261
18.306 55.074 39.549
17.539 56.204 38.584
17.697 56.423 38.142
17.658 55.968 39.083
18.096 55.773 39.612
17.633 57.037 38.291
17.958 57.310 37.808
17.618 56.772 38.808
17.835 56.493 39.282
17.895 57.721 38.044
18.150 57.913 37.772
17.845 57.586 38.478
17.973 57.254 39.037
18.438 58.346 37.993
18.199 57.953 38.659
18.662 54.330 38.914
19.062 53.913 38.934
19.237 53.740 39.269
19.052 54.229 39.247
18.018 55.723 38.189
18.733 54.858 38.507
19.045 54.604 39.557
18.684 55.216 39.992
19.359 54.732 40.282
18.074 56.570 37.806
18.470 55.944 37.943
18.613 55.873 40.063
19.159 55.477 40.398
18.302 57.216 37.532
18.593 56.714 37.583
19.097 56.247 40.152
18.423 56.679 39.622
18.687 57.888 37.407
18.622 57.302 37.385
18.569 57.718 39.087
19.100 58.739 37.377
19.741 58.826 37.113
19.435 58.386 37.077
19.076 59.004 37.681
19.052 58.846 38.144
18.634 58.366 38.556
19.459 59.128 37.382
19.521 59.175 37.713
19.830 53.252 39.701
19.603 53.308 39.240
20.234 52.783 39.628
20.498 52.756 40.155
20.095 53.446 40.243
20.539 53.286 40.665
19.405 53.863 38.995
19.739 53.335 39.158
20.055 53.551 39.260
19.575 54.035 39.761
20.204 54.188 40.743
19.422 54.653 38.922
19.574 54.086 39.243
20.178 54.637 39.324
19.789 55.058 40.673
19.339 55.930 37.932
20.394 55.471 38.674
19.728 55.739 40.448
19.178 57.118 37.302
19.867 57.173 37.019
19.849 56.621 37.308
19.585 56.342 40.086
19.370 57.175 39.506
19.578 57.768 37.009
20.181 58.090 36.915
20.241 57.394 36.880
19.917 58.486 38.522
19.242 58.343 38.758
19.712 57.981 38.983
20.347 58.669 37.088
20.029 59.057 37.771
19.632 58.949 38.174
20.037 58.890 38.122
19.937 59.100 37.350
20.797 52.233 39.946
21.104 51.842 39.948
21.206 51.710 40.263
21.105 52.172 40.258
20.058 53.035 39.333
20.834 52.702 39.607
21.114 52.637 40.613
20.912 53.567 41.234
21.411 52.977 41.453
20.800 53.754 39.328
20.912 54.323 41.397
21.396 53.897 41.760
21.094 54.441 39.075
21.420 54.586 41.569
20.637 55.089 40.779
21.032 55.989 37.251
21.343 56.012 36.972
21.600 55.665 37.240
21.181 55.508 37.763
20.392 56.046 37.610
21.180 54.991 38.526
20.804 55.216 39.093
21.080 55.466 39.610
20.236 56.002 39.699
20.777 56.181 39.058
20.543 56.636 37.047
21.003 56.933 36.906
20.852 57.759 38.224
20.318 57.482 38.877
20.972 57.047 38.531
20.830 57.934 37.027
20.800 58.477 37.511
20.467 58.502 38.021
20.954 58.078 37.771
20.753 58.481 37.210
20.435 58.843 37.433
21.575 51.293 40.661
21.487 51.312 40.182
21.995 50.946 40.540
22.012 50.951 41.116
21.720 51.492 41.207
22.031 51.325 41.613
21.376 51.776 39.957
21.621 51.329 40.044
21.896 51.560 40.062
21.439 52.020 40.741
21.947 52.286 41.735
21.418 52.423 39.967
21.479 51.952 40.164
21.795 52.223 40.092
21.829 53.383 41.905
22.235 54.441 37.196
22.357 54.327 36.976
22.544 53.968 37.027
22.457 54.180 37.232
21.856 53.623 39.349
21.903 52.758 39.740
21.919 54.119 41.850
21.936 55.155 37.248
22.037 54.996 37.020
22.284 54.414 37.548
21.822 54.832 37.836
22.246 54.240 38.617
21.661 54.433 38.684
21.875 54.594 41.563
21.689 54.890 40.771
21.705 55.775 36.968
21.696 55.505 37.497
21.599 56.197 37.555
21.729 55.939 37.245
21.829 55.647 37.697
21.387 56.220 38.462
21.837 55.408 38.744
21.899 55.065 39.670
21.580 56.263 37.027
21.347 56.970 37.211
21.235 57.239 37.858
21.056 57.947 37.372
21.879 51.141 40.180
22.630 51.176 40.318
22.794 50.593 40.989
22.522 50.776 41.666
22.458 51.507 42.069
23.116 50.818 42.248
22.691 51.990 39.932
22.610 52.315 42.185
23.124 51.734 42.418
22.915 53.546 37.378
22.815 53.659 37.091
23.379 53.059 37.454
23.585 52.899 37.934
23.101 53.459 38.113
23.471 53.207 38.392
22.533 52.875 39.538
23.240 53.302 39.274
23.449 52.578 39.484
23.278 52.559 42.165
22.574 53.300 41.826
22.603 54.060 37.113
22.578 54.025 37.748
23.296 53.491 38.796
22.706 53.723 38.883
22.810 54.132 40.270
22.366 54.283 41.165
23.190 53.674 40.774
22.466 54.328 37.324
22.196 54.831 37.249
22.402 54.480 37.542
22.624 54.341 37.993
22.196 55.020 37.875
22.361 54.730 38.896
22.821 54.177 38.796
22.565 54.280 39.110
22.734 54.041 39.405
22.317 54.442 39.794
21.908 55.587 37.265
23.394 50.108 41.779
24.106 49.640 41.751
24.057 49.568 42.197
23.897 50.090 42.485
23.549 50.893 40.559
24.018 50.250 41.090
23.964 51.078 42.672
23.974 52.524 37.826
24.218 52.398 37.971
24.451 52.232 38.233
24.297 52.311 38.411
23.864 51.843 40.204
24.590 51.128 40.358
23.809 51.992 42.438
23.170 53.429 37.543
23.846 52.777 37.882
23.905 52.621 38.822
23.536 53.203 38.927
24.211 52.287 39.804
24.202 52.444 41.787
23.564 53.059 41.434
22.811 53.935 37.551
23.566 53.224 38.312
23.182 53.668 38.289
23.453 53.454 38.673
23.712 53.306 38.883
23.268 53.739 38.983
23.496 53.508 39.148
23.703 53.332 39.622
23.253 53.719 39.591
23.858 53.170 40.584
24.720 49.430 42.755
24.682 49.346 42.209
25.388 49.163 42.791
25.555 49.133 43.221
25.227 49.452 43.206
25.832 49.278 43.465
24.810 49.753 41.589
24.750 50.116 43.010
25.491 49.717 43.343
25.219 50.581 40.840
24.862 50.957 42.935
25.495 50.362 43.208
24.517 52.404 38.547
25.087 51.926 39.118
25.055 52.144 39.085
24.595 52.070 39.264
25.198 51.569 39.811
24.583 51.926 40.044
25.534 51.310 40.250
25.538 51.219 42.809
24.695 51.771 42.497
24.009 52.887 38.467
24.875 52.401 39.375
24.254 52.857 39.112
24.431 52.763 39.988
25.124 52.265 40.163
24.599 52.388 40.254
24.704 52.265 40.765
24.216 52.588 40.659
25.089 52.168 41.760
25.417 49.466 42.236
25.997 49.301 42.909
26.118 49.072 43.348
26.169 49.042 43.555
26.306 49.172 43.639
26.510 49.051 43.709
25.610 50.073 41.600
26.066 49.880 42.380
26.574 49.214 43.673
26.233 49.577 43.509
25.766 51.411 40.027
25.838 51.624 39.910
26.073 51.343 40.442
25.941 50.866 40.973
25.810 51.244 40.341
26.019 50.376 41.739
26.089 50.449 43.160
25.461 51.959 39.648
25.905 51.606 40.114
25.704 51.767 40.203
25.750 51.469 40.064
25.910 51.611 40.494
25.676 51.952 41.769
25.427 51.853 42.303
25.899 51.509 42.219
26.083 50.970 42.695
25.549 52.025 40.945
26.412 49.260 43.434
26.589 49.194 43.606
26.525 49.041 43.659
26.683 49.111 43.736
26.419 49.496 43.146
26.555 49.357 43.519
26.605 49.385 43.620
26.516 49.809 43.384
26.707 49.329 43.657
26.103 51.535 40.513
26.175 51.261 41.037
26.196 50.803 42.043
26.444 49.982 42.930
26.344 50.450 42.901
26.030 51.602 41.303
26.712 49.180 43.685
26.646 49.452 43.473
3 2 1 0
3 4 3 0
3 0 3 2
3 4 5 3
3 0 1 6
3 6 1 7
3 0 8 4
3 0 6 8
3 5 4 9
3 9 4 8
3 6 7 10
3 10 7 11
3 6 12 8
3 6 10 12
3 9 8 13
3 13 8 12
3 10 11 14
3 14 11 15
3 10 16 12
3 10 14 16
3 13 12 17
3 17 12 16
3 15 18 14
3 14 18 16
3 16 18 19
3 16 19 17
3 22 21 20
3 20 23 22
3 24 1 2
3 21 25 20
3 25 2 20
3 2 3 20
3 2 25 24
3 27 26 5
3 5 26 3
3 26 23 3
3 23 20 3
3 27 28 26
3 29 7 24
3 24 7 1
3 24 25 30
3 24 30 29
3 9 31 27
3 9 27 5
3 28 27 32
3 32 27 31
3 33 11 29
3 29 11 7
3 29 30 34
3 29 34 33
3 36 35 31
3 9 36 31
3 13 36 9
3 31 35 32
3 38 37 33
3 37 11 33
3 37 15 11
3 38 33 34
3 17 36 13
3 17 39 36
3 42 41 40
3 40 43 18
3 37 40 18
3 15 37 18
3 40 37 42
3 18 43 44
3 45 18 44
3 19 18 45
3 17 19 39
3 39 19 45
3 41 46 40
3 40 46 43
3 43 46 47
3 43 47 44
3 50 49 48
3 52 51 48
3 48 51 50
3 52 53 51
3 55 54 49
3 54 21 49
3 22 48 49
3 22 49 21
3 55 56 54
3 57 22 23
3 22 57 48
3 52 48 57
3 53 52 58
3 58 52 57
3 59 25 54
3 54 25 21
3 61 60 56
3 61 57 60
3 57 61 26
3 59 26 61
3 26 59 23
3 60 23 59
3 59 54 60
3 60 54 56
3 57 23 60
3 26 28 57
3 28 58 57
3 28 62 58
3 64 63 59
3 63 25 59
3 63 30 25
3 64 59 61
3 32 62 28
3 32 65 62
3 68 67 66
3 63 68 66
3 34 63 66
3 30 63 34
3 70 69 35
3 70 35 36
3 32 35 65
3 65 35 69
3 73 72 71
3 73 71 67
3 67 71 66
3 71 37 66
3 37 38 66
3 34 66 38
3 76 75 74
3 76 70 75
3 70 39 75
3 70 36 39
3 71 72 42
3 72 41 42
3 72 77 41
3 37 71 42
3 80 79 78
3 79 80 74
3 79 74 75
3 44 79 75
3 45 44 75
3 45 75 39
3 77 81 41
3 41 81 46
3 79 47 78
3 47 81 78
3 47 46 81
3 47 79 44
3 84 83 82
3 82 85 84
3 86 49 50
3 83 87 82
3 87 50 82
3 50 51 82
3 50 87 86
3 89 88 53
3 53 88 51
3 88 85 51
3 85 82 51
3 89 90 88
3 86 55 49
3 56 55 86
3 87 56 86
3 91 56 87
3 58 92 89
3 58 89 53
3 90 89 93
3 93 89 92
3 91 61 56
3 94 61 91
3 96 95 92
3 58 96 92
3 62 96 58
3 92 95 93
3 99 98 97
3 101 100 97
3 97 100 99
3 63 64 101
3 64 100 101
3 64 102 100
3 94 103 61
3 103 104 61
3 105 61 104
3 61 105 64
3 106 64 105
3 64 106 103
3 103 102 64
3 94 102 103
3 103 106 104
3 104 96 105
3 96 65 105
3 96 62 65
3 97 98 107
3 107 98 108
3 107 67 68
3 101 107 68
3 97 107 101
3 63 101 68
3 111 110 109
3 110 111 106
3 110 106 105
3 70 110 105
3 69 70 105
3 69 105 65
3 107 108 73
3 108 72 73
3 108 112 72
3 67 107 73
3 115 114 113
3 114 115 109
3 114 109 110
3 74 114 110
3 76 74 110
3 76 110 70
3 117 77 116
3 77 112 116
3 77 72 112
3 117 116 113
3 117 113 114
3 78 117 114
3 80 78 114
3 80 114 74
3 117 81 77
3 81 117 78
3 120 119 118
3 122 121 118
3 118 121 120
3 122 123 121
3 125 124 119
3 124 83 119
3 84 118 119
3 84 119 83
3 125 126 124
3 127 84 85
3 84 127 118
3 122 118 127
3 123 122 128
3 128 122 127
3 129 87 124
3 124 87 83
3 131 130 126
3 131 127 130
3 127 131 88
3 129 88 131
3 88 129 85
3 130 85 129
3 129 124 130
3 130 124 126
3 127 85 130
3 88 90 127
3 90 128 127
3 90 132 128
3 135 134 133
3 133 136 135
3 138 137 129
3 137 87 129
3 137 91 87
3 138 129 131
3 93 132 90
3 93 139 132
3 133 134 140
3 140 134 141
3 136 133 142
3 133 143 142
3 133 140 143
3 145 144 143
3 143 144 142
3 137 144 145
3 94 137 145
3 91 137 94
3 147 146 95
3 147 95 96
3 93 95 139
3 139 95 146
3 140 141 99
3 141 98 99
3 141 148 98
3 100 149 99
3 149 150 99
3 151 99 150
3 99 151 140
3 152 140 151
3 140 152 149
3 149 143 140
3 100 143 149
3 149 152 150
3 154 153 152
3 150 152 153
3 143 102 145
3 102 143 100
3 102 94 145
3 106 153 104
3 154 104 153
3 104 154 155
3 96 104 147
3 147 104 155
3 157 108 156
3 108 148 156
3 108 98 148
3 157 156 151
3 150 157 151
3 158 157 150
3 109 158 111
3 158 153 111
3 158 150 153
3 111 153 106
3 159 112 157
3 157 112 108
3 113 159 115
3 159 158 115
3 159 157 158
3 115 158 109
3 159 116 112
3 116 159 113
3 160 119 120
3 160 120 161
3 120 162 161
3 120 121 162
3 164 163 123
3 163 121 123
3 163 162 121
3 164 165 163
3 160 125 119
3 126 125 160
3 161 126 160
3 166 126 161
3 128 167 164
3 128 164 123
3 165 164 168
3 168 164 167
3 171 170 169
3 173 172 169
3 169 172 171
3 173 174 172
3 177 176 175
3 166 177 175
3 131 166 175
3 126 166 131
3 179 178 167
3 128 179 167
3 132 179 128
3 167 178 168
3 169 170 135
3 170 134 135
3 170 180 134
3 169 135 136
3 181 169 136
3 173 169 181
3 174 173 182
3 173 183 182
3 173 181 183
3 182 183 176
3 176 183 175
3 183 137 175
3 137 138 175
3 131 175 138
3 186 185 184
3 186 179 185
3 179 139 185
3 179 132 139
3 188 141 187
3 141 180 187
3 141 134 180
3 190 189 187
3 189 181 187
3 136 187 181
3 187 136 188
3 142 188 136
3 188 142 189
3 189 191 188
3 190 191 189
3 189 142 181
3 193 192 190
3 191 190 192
3 181 144 183
3 144 181 142
3 195 194 193
3 195 183 194
3 183 195 137
3 196 137 195
3 137 196 144
3 194 144 196
3 196 192 194
3 194 192 193
3 183 144 194
3 196 195 184
3 196 184 185
3 147 196 185
3 146 147 185
3 146 185 139
3 197 148 188
3 188 148 141
3 151 197 152
3 197 191 152
3 197 188 191
3 152 191 154
3 154 191 192
3 154 192 155
3 155 192 196
3 155 196 147
3 197 156 148
3 156 197 151
3 200 199 198
3 198 201 200
3 202 161 162
3 199 203 198
3 203 162 198
3 162 163 198
3 162 203 202
3 163 165 198
3 165 201 198
3 165 204 201
3 207 206 205
3 205 208 207
3 210 209 202
3 209 161 202
3 209 166 161
3 210 202 203
3 168 204 165
3 168 211 204
3 212 170 171
3 206 213 205
3 213 171 205
3 171 172 205
3 171 213 212
3 215 214 174
3 174 214 172
3 214 208 172
3 208 205 172
3 176 177 215
3 177 214 215
3 177 216 214
3 177 166 209
3 177 209 216
3 218 217 178
3 218 178 179
3 168 178 211
3 211 178 217
3 219 180 212
3 212 180 170
3 212 213 220
3 221 212 220
3 219 212 221
3 223 222 220
3 222 215 220
3 174 220 215
3 220 174 221
3 182 221 174
3 221 182 222
3 222 224 221
3 223 224 222
3 222 182 215
3 226 225 223
3 226 215 225
3 215 226 176
3 227 176 226
3 176 227 182
3 225 182 227
3 227 224 225
3 225 224 223
3 215 182 225
3 186 184 227
3 226 186 227
3 228 186 226
3 179 186 218
3 218 186 228
3 219 187 180
3 187 219 190
3 190 219 221
3 190 221 193
3 193 221 224
3 193 224 195
3 195 224 227
3 195 227 184
3 231 230 229
3 233 232 229
3 229 232 231
3 233 234 232
3 229 230 200
3 230 199 200
3 230 235 199
3 229 200 201
3 236 229 201
3 233 229 236
3 234 233 237
3 237 233 236
3 235 203 199
3 238 203 235
3 204 239 236
3 204 236 201
3 237 236 240
3 240 236 239
3 241 206 207
3 243 241 242
3 241 207 242
3 208 244 242
3 208 242 207
3 246 245 244
3 244 245 242
3 209 210 246
3 210 245 246
3 210 247 245
3 210 203 238
3 210 238 247
3 249 248 239
3 204 249 239
3 211 249 204
3 239 248 240
3 250 213 241
3 241 213 206
3 244 208 214
3 243 251 241
3 252 241 251
3 241 252 250
3 254 253 251
3 252 251 253
3 244 216 246
3 216 244 214
3 256 255 254
3 256 246 255
3 246 256 209
3 257 209 256
3 209 257 216
3 255 216 257
3 257 253 255
3 255 253 254
3 246 216 255
3 217 218 257
3 256 217 257
3 258 217 256
3 211 217 249
3 249 217 258
3 250 220 213
3 220 250 223
3 223 250 252
3 223 252 226
3 226 252 253
3 226 253 228
3 228 253 257
3 228 257 218
3 259 230 231
3 259 231 260
3 231 261 260
3 231 232 261
3 263 262 234
3 262 232 234
3 262 261 232
3 263 264 262
3 265 235 259
3 259 235 230
3 259 260 266
3 259 266 265
3 268 267 263
3 234 268 263
3 237 268 234
3 263 267 264
3 271 270 269
3 273 272 269
3 269 272 271
3 274 272 265
3 272 238 265
3 238 235 265
3 272 273 238
3 274 265 266
3 240 268 237
3 240 275 268
3 276 243 242
3 245 269 242
3 270 242 269
3 242 270 276
3 277 276 270
3 276 277 278
3 247 279 245
3 247 278 279
3 278 247 280
3 273 280 247
3 280 273 277
3 279 277 273
3 273 269 279
3 279 269 245
3 278 277 279
3 238 273 247
3 283 282 281
3 248 249 282
3 283 248 282
3 284 248 283
3 240 248 275
3 275 248 284
3 276 251 243
3 251 276 254
3 254 276 278
3 280 285 278
3 285 254 278
3 285 256 254
3 282 258 281
3 258 285 281
3 258 256 285
3 258 282 249
3 286 260 261
3 286 261 287
3 261 288 287
3 261 262 288
3 262 264 288
3 288 264 289
3 291 290 286
3 290 260 286
3 290 266 260
3 293 292 268
3 292 291 268
3 286 268 291
3 268 286 267
3 287 267 286
3 267 287 292
3 292 294 267
3 293 294 292
3 292 287 291
3 264 267 289
3 289 267 294
3 295 270 271
3 272 296 271
3 271 296 295
3 274 297 272
3 272 297 296
3 266 290 298
3 297 266 298
3 299 297 298
3 274 266 297
3 298 293 299
3 293 275 299
3 293 268 275
3 295 277 270
3 277 295 280
3 295 300 280
3 295 296 300
3 281 300 283
3 300 297 283
3 300 296 297
3 283 297 284
3 284 297 299
3 284 299 275
3 300 285 280
3 285 300 281
3 301 287 288
3 289 301 288
3 302 290 291
3 291 287 302
3 287 301 302
3 294 293 302
3 294 302 301
3 294 301 289
3 302 298 290
3 298 302 293
