ply
format ascii 1.0
comment None
element vertex 499
property float x
property float y
property float z
element face 998
property list uchar int vertex_indices
end_header
56.042 66.173 16.417
56.196 66.313 15.906
56.520 65.946 16.100
56.390 65.835 16.802
55.997 66.142 17.110
56.327 65.844 17.399
55.902 66.585 16.198
56.168 66.866 15.780
55.783 66.623 16.802
56.165 66.107 17.892
55.823 66.610 17.580
56.006 66.603 18.314
55.840 67.184 16.455
55.754 67.239 17.336
55.865 67.087 18.120
56.805 65.463 21.827
57.037 65.464 21.564
56.834 65.305 21.901
56.870 65.339 21.947
56.760 66.345 15.492
57.188 65.848 15.930
56.901 65.715 16.568
56.950 65.703 17.551
56.477 65.804 17.786
56.711 65.855 18.361
56.733 66.258 20.267
56.637 66.201 19.510
57.229 65.758 20.009
57.097 65.712 20.866
56.847 66.031 21.268
56.845 65.688 21.789
56.875 65.463 21.922
56.659 67.160 15.239
57.151 67.396 14.809
57.340 66.722 14.934
56.375 66.248 18.754
56.275 67.062 19.178
56.710 67.052 20.447
56.996 66.875 21.153
57.145 66.191 21.620
56.960 65.659 21.852
56.733 67.998 15.150
57.407 68.060 14.736
56.199 67.857 15.935
55.917 67.997 17.015
56.005 67.912 18.161
56.276 68.063 18.990
56.651 68.176 19.735
57.214 67.984 20.751
56.876 68.617 15.095
56.543 68.851 15.695
56.822 69.044 15.303
56.245 68.861 16.699
56.164 68.746 17.650
56.541 68.978 18.751
56.918 69.079 19.600
57.157 68.835 20.136
56.960 69.529 15.667
56.652 69.662 16.448
56.951 70.048 16.237
56.663 69.706 17.595
57.241 70.135 18.720
57.077 69.613 19.311
57.170 70.474 16.901
57.290 70.573 17.892
56.934 65.332 21.876
57.610 66.128 15.322
57.839 65.842 15.870
57.653 65.754 16.789
57.734 65.755 17.906
58.044 65.940 17.556
57.729 65.777 19.009
57.991 65.886 18.454
56.888 65.904 19.154
57.887 65.553 20.061
57.907 65.428 20.914
57.294 65.594 21.719
58.344 65.592 21.414
57.817 67.199 14.621
58.183 66.529 14.905
58.117 66.007 18.127
57.447 67.223 21.363
58.167 66.615 21.676
58.190 67.712 14.525
57.576 67.899 21.204
58.031 67.820 21.458
57.251 68.928 15.048
58.099 68.548 14.726
57.458 69.597 19.870
57.816 69.193 20.531
57.895 68.512 21.080
57.710 69.463 15.277
57.413 70.143 15.996
58.407 70.059 15.620
57.488 70.053 19.423
57.851 70.166 19.730
58.140 70.017 20.124
57.757 70.732 16.410
57.666 71.076 16.973
58.015 71.180 16.701
57.695 71.109 17.571
58.054 71.078 18.526
57.971 70.575 19.306
58.270 70.464 19.787
58.105 71.417 17.166
58.320 71.569 17.787
58.697 65.211 21.131
59.049 65.247 20.894
59.044 65.085 21.095
59.116 65.308 21.258
58.396 66.089 15.501
58.346 65.943 16.264
58.318 66.092 17.070
58.727 66.227 16.678
58.428 66.323 18.725
58.922 66.240 19.519
58.739 65.635 20.192
59.038 65.948 21.571
58.666 67.070 14.631
59.193 66.475 15.185
58.741 66.638 17.335
59.139 66.576 16.832
58.450 66.492 17.948
58.782 67.188 18.649
59.112 67.047 19.195
59.053 66.563 21.809
58.903 67.089 21.895
59.527 66.978 21.964
58.942 67.795 14.554
59.086 67.094 17.407
59.423 67.734 17.641
58.896 67.540 18.085
58.961 67.950 18.701
59.110 67.749 19.008
59.312 67.502 21.997
58.818 67.808 21.790
58.849 68.552 14.692
58.452 69.168 14.986
59.280 68.992 15.014
59.170 68.437 18.182
59.595 68.778 18.002
59.088 68.534 18.567
58.384 69.243 20.958
58.713 68.793 21.399
59.446 69.805 15.411
59.372 69.160 18.437
58.971 69.600 21.084
58.739 69.983 20.616
58.334 70.888 16.252
59.209 70.709 15.928
58.407 71.036 19.172
58.615 70.894 19.582
58.788 70.581 20.088
58.593 71.329 16.621
58.777 71.765 17.194
58.832 71.933 17.772
59.151 72.108 17.468
58.802 71.765 18.341
59.042 71.493 19.182
59.220 71.120 19.855
59.373 72.232 18.003
59.226 65.110 21.081
59.110 66.230 16.060
59.606 66.127 20.100
59.986 65.812 20.703
59.582 65.343 21.075
59.796 65.702 21.362
59.510 67.061 14.772
60.181 66.619 15.289
60.078 66.335 15.848
59.811 66.544 16.524
59.474 66.989 17.091
60.114 67.079 17.044
59.889 66.962 19.751
60.332 66.456 20.255
59.886 66.357 21.726
60.224 66.892 21.979
59.674 67.599 14.685
59.411 68.175 14.686
60.142 67.968 14.996
60.162 67.979 17.527
59.299 68.461 18.954
59.659 67.930 19.309
59.560 68.020 22.001
60.124 67.557 22.089
60.201 69.026 15.239
60.305 69.121 17.852
59.423 69.096 18.779
60.016 69.036 19.102
60.337 68.416 22.079
59.571 68.705 21.809
60.182 69.994 15.507
59.825 69.658 18.249
59.853 69.695 18.661
59.464 70.172 20.962
59.738 69.669 21.439
60.271 70.869 15.814
60.235 70.562 21.146
59.743 70.919 20.508
59.496 71.557 16.460
59.371 72.035 17.023
60.047 72.147 16.709
59.418 72.060 18.684
60.023 72.167 19.315
59.899 71.638 19.885
59.685 72.352 17.350
60.069 72.653 17.861
59.989 72.499 18.566
60.114 65.654 21.126
60.130 67.173 14.956
60.888 66.914 15.498
61.026 66.263 15.946
61.006 66.415 16.402
61.059 66.966 17.056
60.748 67.107 20.085
61.179 66.727 20.584
60.919 66.244 21.329
60.738 66.605 21.824
60.988 67.133 22.050
61.135 68.059 15.461
60.969 68.023 17.499
60.721 68.163 19.655
61.368 67.538 20.146
61.278 67.975 22.181
60.910 69.242 15.409
61.081 68.864 17.691
60.755 69.199 19.304
61.164 68.791 22.163
60.639 69.347 21.932
61.079 70.067 15.525
60.298 70.039 18.102
61.001 69.855 17.916
60.304 70.294 18.410
60.835 70.065 18.929
60.843 70.291 21.623
61.243 70.943 15.651
60.711 70.509 18.177
61.026 70.790 18.459
61.027 70.952 21.350
60.677 71.208 20.958
60.566 71.635 16.087
61.063 72.321 16.410
60.421 72.076 19.896
60.937 71.922 20.544
60.462 72.677 17.173
60.633 72.972 17.799
61.019 73.065 17.480
60.619 72.931 18.441
60.656 72.734 19.167
60.823 72.461 19.843
61.336 73.263 18.253
61.336 73.159 19.150
61.675 65.982 16.370
61.646 66.158 16.162
62.129 65.938 16.571
61.977 65.980 16.699
61.638 66.175 16.570
61.910 66.370 16.977
61.663 66.696 16.041
61.803 66.135 16.318
61.491 66.162 16.268
62.098 66.325 16.412
61.840 67.124 17.305
62.195 66.884 21.072
62.288 66.662 21.554
61.624 66.731 21.828
61.957 67.307 22.082
62.038 67.778 15.810
62.564 67.146 16.182
61.805 68.056 17.546
61.675 68.246 19.955
62.193 67.710 20.456
62.268 67.922 22.184
61.857 68.993 15.573
62.773 68.226 15.921
61.790 69.013 17.714
61.555 69.222 19.550
62.252 68.676 20.019
61.520 69.348 22.145
62.182 68.825 22.207
61.984 70.161 15.516
62.059 69.896 17.921
62.001 70.288 19.299
62.127 69.677 22.168
61.574 70.028 21.992
62.119 70.987 15.537
61.547 70.722 18.195
61.692 71.157 18.502
62.384 71.162 18.550
61.682 70.922 18.823
61.437 71.542 21.211
61.958 71.005 21.735
61.536 71.654 15.818
61.996 72.130 16.035
62.258 71.267 18.803
61.691 72.003 21.090
62.275 71.947 21.458
61.211 72.869 16.962
62.055 72.729 16.613
61.308 72.917 19.740
61.631 72.710 20.386
62.054 72.430 21.032
61.837 73.235 17.507
62.198 73.511 18.427
62.148 73.483 19.222
62.171 73.237 20.124
62.116 66.021 16.450
62.745 66.213 16.737
62.454 66.120 16.922
62.505 66.547 17.199
63.002 66.713 16.542
62.956 67.215 17.478
62.885 66.947 21.389
62.960 66.898 21.656
62.557 66.963 21.870
62.786 67.512 22.043
63.542 67.595 16.391
62.522 68.214 17.624
63.082 67.659 21.050
63.269 67.237 21.508
62.945 68.234 22.101
62.873 69.411 15.679
63.493 68.607 16.025
62.728 68.962 17.764
62.537 69.543 19.826
62.945 68.676 20.404
63.110 68.984 22.093
62.669 70.364 15.510
63.112 69.721 17.994
62.791 70.333 19.644
63.354 69.787 20.225
62.427 70.351 22.078
62.911 69.775 22.132
62.891 70.918 15.531
62.675 70.571 18.248
63.394 71.007 18.759
62.645 70.959 19.273
63.252 70.626 19.807
62.836 70.956 22.003
63.069 70.535 22.093
62.450 71.574 15.691
63.126 72.055 16.136
63.172 71.264 19.183
63.405 71.033 21.971
63.179 71.695 21.817
63.026 72.818 16.728
62.598 73.176 17.177
63.464 73.184 17.367
62.483 72.955 20.896
63.198 72.716 21.566
62.958 73.492 18.102
63.009 73.650 19.209
63.066 73.578 20.166
63.288 73.323 21.088
63.333 66.503 17.191
63.819 66.798 16.908
64.450 66.718 17.345
64.128 66.823 17.524
63.973 67.227 17.644
64.718 67.140 17.703
63.192 67.295 21.791
64.403 67.519 16.773
64.362 67.551 17.748
63.512 67.973 17.697
63.555 67.957 21.519
63.319 67.845 21.904
63.686 69.284 15.895
64.334 68.586 16.361
63.655 68.882 17.861
63.655 68.813 20.936
63.884 68.792 21.419
63.979 69.437 21.526
63.588 68.639 21.827
63.413 70.135 15.656
64.088 69.616 15.971
63.878 69.498 18.056
63.899 69.720 20.751
63.611 69.587 21.903
64.025 70.311 21.558
63.510 70.791 15.650
63.189 71.331 15.694
64.023 71.010 15.988
63.974 70.210 18.434
64.288 70.871 19.016
63.428 71.033 19.711
63.840 70.535 20.367
63.584 70.451 21.948
64.125 71.357 21.628
64.372 71.748 16.351
64.137 71.220 19.419
64.132 71.196 20.091
64.176 72.503 21.821
64.178 72.540 16.869
64.299 73.110 17.620
64.001 73.058 21.935
63.822 73.239 21.752
64.160 73.287 21.946
64.033 73.426 18.210
63.939 73.610 19.145
63.926 73.647 20.149
63.879 73.561 20.900
64.220 73.362 21.596
64.810 67.092 17.162
65.147 66.941 17.442
64.999 66.913 17.592
65.415 67.352 17.738
65.127 67.877 16.955
64.374 68.210 17.850
65.018 67.716 17.831
65.035 68.671 16.654
64.422 69.011 18.036
65.121 68.519 18.026
64.023 69.346 21.157
63.993 70.287 15.848
64.792 69.673 16.366
64.342 69.571 18.198
65.128 69.515 18.434
64.100 70.056 21.075
65.135 70.815 16.561
65.200 70.451 19.124
64.824 71.034 19.480
65.412 70.959 19.739
64.246 70.875 20.968
65.068 71.636 16.615
64.751 72.050 16.630
65.411 72.008 17.155
65.056 71.303 20.098
64.824 71.480 20.883
65.032 72.137 21.435
64.766 73.225 18.218
65.180 72.737 17.809
65.391 73.045 18.602
64.357 73.119 21.926
64.897 72.950 21.618
64.931 73.372 19.068
64.839 73.486 20.078
64.748 73.408 21.024
65.383 67.294 17.324
65.604 67.268 17.560
65.713 67.754 17.318
65.963 67.719 17.550
65.866 67.633 17.701
65.739 68.112 17.882
65.583 68.629 16.998
65.991 68.165 17.393
65.776 68.907 18.202
65.732 69.654 16.977
66.285 69.609 18.722
65.726 69.926 18.891
66.148 70.174 19.283
66.121 70.452 17.322
65.622 71.278 16.941
66.202 71.298 17.527
65.994 70.671 19.725
65.846 71.117 20.133
66.523 70.871 20.114
66.193 71.833 17.737
65.968 71.647 20.705
65.721 72.532 21.282
65.926 72.260 17.878
65.732 73.038 19.233
66.190 72.482 18.778
66.191 72.787 19.678
65.480 73.046 21.278
65.663 73.166 19.936
65.584 73.176 20.742
66.091 68.182 17.659
66.084 68.832 17.403
66.299 69.045 17.978
66.258 69.549 17.500
66.643 69.887 17.990
66.831 69.701 18.533
67.016 69.872 19.022
67.162 70.013 18.911
66.827 70.087 19.384
67.180 70.130 19.303
66.550 70.419 19.712
66.903 70.440 19.799
66.716 71.438 18.245
66.792 70.665 18.187
67.240 70.085 19.141
67.031 71.000 18.645
66.785 71.185 20.317
67.038 70.717 19.904
67.078 71.117 19.998
66.425 72.002 18.220
67.027 71.388 18.968
66.732 71.860 18.673
66.778 71.652 20.419
66.831 71.928 19.211
66.360 72.275 20.819
66.740 72.115 20.332
66.276 72.705 20.428
66.651 72.290 19.757
65.991 72.804 21.041
67.021 70.124 18.565
67.126 70.337 19.572
67.176 70.603 19.209
67.019 71.575 19.760
3 2 1 0
3 4 3 0
3 0 3 2
3 4 5 3
3 0 1 6
3 6 1 7
3 0 8 4
3 0 6 8
3 5 4 9
3 4 10 9
3 4 8 10
3 10 11 9
3 7 12 6
3 6 12 8
3 8 12 13
3 8 13 10
3 10 13 14
3 10 14 11
3 17 16 15
3 15 18 17
3 20 19 2
3 2 19 1
3 21 2 3
3 21 20 2
3 23 22 5
3 22 3 5
3 22 21 3
3 23 24 22
3 27 26 25
3 29 28 25
3 25 28 27
3 28 29 16
3 29 15 16
3 29 30 15
3 18 15 31
3 31 15 30
3 34 33 32
3 19 34 32
3 7 19 32
3 1 19 7
3 9 23 5
3 36 35 11
3 11 35 9
3 35 24 9
3 24 23 9
3 35 36 26
3 36 25 26
3 36 37 25
3 39 29 38
3 29 37 38
3 29 25 37
3 29 39 30
3 30 39 40
3 30 40 31
3 32 33 41
3 41 33 42
3 43 12 7
3 32 43 7
3 41 43 32
3 44 13 12
3 44 12 43
3 45 14 13
3 45 13 44
3 36 11 14
3 45 36 14
3 46 36 45
3 36 47 37
3 36 46 47
3 38 37 48
3 48 37 47
3 42 49 41
3 51 50 49
3 50 41 49
3 50 43 41
3 43 52 44
3 43 50 52
3 44 53 45
3 44 52 53
3 45 54 46
3 45 53 54
3 56 47 55
3 47 54 55
3 47 46 54
3 47 56 48
3 51 57 50
3 59 58 57
3 58 50 57
3 58 52 50
3 52 60 53
3 52 58 60
3 62 54 61
3 54 60 61
3 54 53 60
3 54 62 55
3 59 63 58
3 58 63 60
3 60 63 64
3 60 64 61
3 65 16 17
3 18 65 17
3 67 66 20
3 20 66 19
3 68 20 21
3 68 67 20
3 70 68 69
3 68 22 69
3 68 21 22
3 72 69 71
3 69 22 71
3 24 73 71
3 24 71 22
3 26 27 73
3 27 71 73
3 27 74 71
3 75 27 28
3 75 74 27
3 75 28 16
3 76 75 16
3 65 76 16
3 75 76 77
3 31 76 18
3 18 76 65
3 79 78 34
3 34 78 33
3 34 19 66
3 34 66 79
3 80 70 69
3 24 35 73
3 69 72 80
3 73 35 26
3 38 81 39
3 82 77 76
3 39 82 76
3 40 39 76
3 82 39 81
3 40 76 31
3 78 42 33
3 83 42 78
3 48 84 81
3 48 81 38
3 82 81 85
3 85 81 84
3 49 42 86
3 42 87 86
3 42 83 87
3 86 51 49
3 55 88 56
3 88 89 56
3 56 89 48
3 89 90 48
3 90 84 48
3 84 90 85
3 87 91 86
3 91 93 92
3 91 92 57
3 86 91 57
3 51 86 57
3 92 59 57
3 61 94 62
3 88 55 62
3 94 88 62
3 95 88 94
3 89 88 96
3 96 88 95
3 93 97 92
3 97 99 98
3 97 98 63
3 92 97 63
3 59 92 63
3 100 64 63
3 100 63 98
3 100 101 64
3 64 101 61
3 101 102 61
3 102 94 61
3 94 102 95
3 95 102 103
3 95 103 96
3 99 104 98
3 98 104 100
3 100 104 105
3 100 105 101
3 108 107 106
3 106 109 108
3 111 110 67
3 67 110 66
3 113 111 112
3 111 68 112
3 111 67 68
3 70 112 68
3 114 72 71
3 114 71 115
3 71 116 115
3 71 74 116
3 75 106 107
3 116 75 107
3 74 75 116
3 75 77 106
3 77 109 106
3 77 117 109
3 119 118 79
3 79 118 78
3 79 66 110
3 79 110 119
3 113 112 120
3 113 120 121
3 80 122 70
3 122 112 70
3 122 120 112
3 72 114 80
3 114 122 80
3 114 123 122
3 114 115 124
3 114 124 123
3 82 126 125
3 117 82 125
3 77 82 117
3 126 127 125
3 118 83 78
3 128 83 118
3 129 121 120
3 131 130 129
3 120 131 129
3 122 131 120
3 123 133 132
3 131 123 132
3 122 123 131
3 133 123 124
3 135 134 126
3 82 135 126
3 85 135 82
3 126 134 127
3 137 87 136
3 87 128 136
3 87 83 128
3 138 137 136
3 130 131 139
3 130 139 140
3 131 132 141
3 131 141 139
3 89 142 90
3 142 143 90
3 143 85 90
3 143 135 85
3 137 91 87
3 93 91 137
3 138 93 137
3 144 93 138
3 145 140 139
3 145 139 141
3 147 146 142
3 89 147 142
3 96 147 89
3 142 146 143
3 97 93 148
3 93 149 148
3 93 144 149
3 148 99 97
3 101 150 102
3 151 103 102
3 151 102 150
3 151 152 103
3 152 96 103
3 152 147 96
3 149 153 148
3 148 153 99
3 153 104 99
3 153 154 104
3 154 156 155
3 105 154 155
3 104 154 105
3 155 157 105
3 105 157 101
3 157 158 101
3 158 150 101
3 150 158 151
3 151 158 159
3 151 159 152
3 156 160 155
3 155 160 157
3 161 107 108
3 109 161 108
3 162 110 111
3 113 162 111
3 163 115 116
3 164 163 116
3 164 116 107
3 165 164 107
3 161 165 107
3 161 109 165
3 109 166 165
3 109 117 166
3 168 167 119
3 119 167 118
3 119 110 162
3 169 119 162
3 168 119 169
3 113 121 162
3 121 170 162
3 170 169 162
3 170 121 171
3 171 172 170
3 174 173 163
3 173 115 163
3 173 124 115
3 174 163 164
3 175 166 117
3 175 117 125
3 125 127 175
3 175 127 176
3 178 128 177
3 128 167 177
3 128 118 167
3 179 178 177
3 129 171 121
3 129 130 171
3 130 172 171
3 130 180 172
3 181 132 133
3 182 181 133
3 124 182 133
3 173 182 124
3 135 183 134
3 183 184 134
3 184 127 134
3 184 176 127
3 178 136 128
3 138 136 178
3 179 138 178
3 185 138 179
3 140 180 130
3 140 186 180
3 187 141 181
3 181 141 132
3 181 182 188
3 181 188 187
3 190 189 183
3 135 190 183
3 143 190 135
3 183 189 184
3 185 144 138
3 191 144 185
3 192 186 140
3 192 140 145
3 145 141 187
3 193 145 187
3 192 145 193
3 193 187 188
3 147 194 146
3 194 195 146
3 195 143 146
3 195 190 143
3 191 149 144
3 196 149 191
3 198 197 194
3 147 198 194
3 152 198 147
3 194 197 195
3 196 199 149
3 149 199 153
3 199 201 200
3 154 199 200
3 153 199 154
3 200 156 154
3 157 202 158
3 158 202 203
3 204 158 203
3 159 158 204
3 152 159 198
3 198 159 204
3 201 205 200
3 200 205 156
3 205 160 156
3 205 206 160
3 157 160 202
3 160 207 202
3 160 206 207
3 202 207 203
3 208 164 165
3 166 208 165
3 209 167 168
3 209 168 210
3 168 211 210
3 168 169 211
3 212 169 170
3 212 211 169
3 170 172 212
3 212 172 213
3 214 173 174
3 215 214 174
3 215 174 164
3 216 215 164
3 208 216 164
3 216 208 166
3 175 216 166
3 217 216 175
3 175 176 217
3 217 176 218
3 209 177 167
3 179 177 209
3 210 179 209
3 219 179 210
3 180 213 172
3 180 220 213
3 222 221 214
3 221 173 214
3 221 182 173
3 222 214 215
3 184 218 176
3 184 223 218
3 219 185 179
3 224 185 219
3 186 220 180
3 186 225 220
3 221 188 182
3 226 188 221
3 228 227 189
3 228 189 190
3 184 189 223
3 223 189 227
3 224 191 185
3 229 191 224
3 186 192 230
3 231 186 230
3 225 186 231
3 193 232 192
3 192 232 230
3 233 232 193
3 188 233 193
3 226 233 188
3 195 228 190
3 195 234 228
3 229 196 191
3 235 196 229
3 236 231 230
3 236 230 232
3 236 232 237
3 237 232 233
3 239 238 197
3 239 197 198
3 195 197 234
3 234 197 238
3 235 240 196
3 196 240 199
3 201 199 240
3 201 240 241
3 203 242 204
3 242 243 204
3 243 198 204
3 243 239 198
3 241 244 201
3 201 244 205
3 244 246 245
3 206 244 245
3 205 244 206
3 247 207 206
3 247 206 245
3 247 248 207
3 207 248 203
3 248 249 203
3 249 242 203
3 242 249 243
3 246 250 245
3 245 250 247
3 247 250 251
3 247 251 248
3 254 253 252
3 256 255 252
3 252 255 254
3 256 257 255
3 259 258 253
3 258 210 253
3 211 252 253
3 211 253 210
3 212 260 211
3 212 258 260
3 258 212 261
3 256 261 212
3 261 256 259
3 260 259 256
3 256 252 260
3 260 252 211
3 258 259 260
3 212 213 256
3 213 257 256
3 213 262 257
3 264 263 216
3 216 263 215
3 265 216 217
3 265 264 216
3 217 218 265
3 265 218 266
3 267 219 258
3 258 219 210
3 258 261 268
3 258 268 267
3 220 262 213
3 220 269 262
3 270 221 222
3 271 270 222
3 215 271 222
3 263 271 215
3 223 266 218
3 223 272 266
3 274 273 267
3 273 219 267
3 273 224 219
3 274 267 268
3 225 269 220
3 225 275 269
3 277 276 270
3 276 221 270
3 276 226 221
3 277 270 271
3 228 278 227
3 278 279 227
3 279 223 227
3 279 272 223
3 273 229 224
3 280 229 273
3 231 275 225
3 231 281 275
3 276 233 226
3 282 233 276
3 284 283 278
3 228 284 278
3 234 284 228
3 278 283 279
3 280 235 229
3 285 235 280
3 286 281 231
3 286 231 236
3 288 286 287
3 286 237 287
3 286 236 237
3 289 287 237
3 233 289 237
3 282 289 233
3 239 290 238
3 290 291 238
3 291 234 238
3 291 284 234
3 285 292 235
3 235 292 240
3 241 240 292
3 241 292 293
3 294 288 287
3 294 287 289
3 243 295 290
3 243 290 239
3 291 290 296
3 296 290 295
3 244 241 297
3 241 298 297
3 241 293 298
3 297 246 244
3 248 299 249
3 299 300 249
3 249 300 243
3 300 301 243
3 301 295 243
3 295 301 296
3 298 302 297
3 297 302 246
3 302 250 246
3 302 303 250
3 250 304 251
3 303 304 250
3 248 251 299
3 251 305 299
3 251 304 305
3 299 305 300
3 306 253 254
3 306 254 307
3 254 308 307
3 254 255 308
3 255 257 308
3 308 257 309
3 306 259 253
3 261 259 306
3 307 261 306
3 310 261 307
3 262 309 257
3 262 311 309
3 312 263 264
3 312 264 313
3 264 314 313
3 264 265 314
3 265 266 314
3 314 266 315
3 310 268 261
3 316 268 310
3 269 311 262
3 269 317 311
3 319 318 312
3 318 263 312
3 318 271 263
3 319 312 313
3 272 315 266
3 272 320 315
3 322 321 274
3 274 321 273
3 274 268 316
3 274 316 322
3 275 317 269
3 275 323 317
3 324 276 277
3 325 324 277
3 271 325 277
3 318 325 271
3 279 320 272
3 279 326 320
3 321 280 273
3 327 280 321
3 281 323 275
3 281 328 323
3 329 282 324
3 324 282 276
3 324 325 330
3 324 330 329
3 284 331 283
3 331 332 283
3 332 279 283
3 332 326 279
3 327 285 280
3 333 285 327
3 334 328 281
3 334 281 286
3 286 288 334
3 334 288 335
3 337 336 329
3 336 282 329
3 336 289 282
3 337 329 330
3 291 338 331
3 291 331 284
3 332 331 339
3 339 331 338
3 333 340 285
3 285 340 292
3 293 292 340
3 293 340 341
3 342 335 288
3 342 288 294
3 294 289 336
3 294 336 342
3 344 343 338
3 291 344 338
3 296 344 291
3 338 343 339
3 346 298 345
3 298 341 345
3 298 293 341
3 347 346 345
3 300 348 301
3 348 349 301
3 349 296 301
3 349 344 296
3 346 302 298
3 347 350 346
3 350 302 346
3 350 303 302
3 303 351 304
3 350 351 303
3 304 352 305
3 351 352 304
3 300 305 348
3 305 353 348
3 305 352 353
3 348 353 349
3 354 307 308
3 309 354 308
3 356 355 354
3 355 307 354
3 355 310 307
3 309 311 354
3 311 357 354
3 357 356 354
3 357 311 358
3 358 359 357
3 360 313 314
3 315 360 314
3 355 316 310
3 361 316 355
3 363 362 358
3 311 363 358
3 317 363 311
3 358 362 359
3 364 318 319
3 313 360 319
3 360 364 319
3 360 365 364
3 320 365 315
3 315 365 360
3 366 321 322
3 367 366 322
3 316 367 322
3 361 367 316
3 323 363 317
3 323 368 363
3 370 369 364
3 369 318 364
3 369 325 318
3 372 371 370
3 364 372 370
3 365 372 364
3 326 372 320
3 320 372 365
3 374 373 366
3 373 321 366
3 373 327 321
3 374 366 367
3 328 368 323
3 328 375 368
3 369 330 325
3 376 330 369
3 371 372 377
3 371 377 378
3 332 377 326
3 326 377 372
3 380 333 379
3 333 373 379
3 333 327 373
3 381 380 379
3 382 375 328
3 382 328 334
3 334 335 382
3 382 335 383
3 384 336 337
3 385 384 337
3 330 385 337
3 376 385 330
3 378 377 386
3 378 386 387
3 339 386 332
3 332 386 377
3 380 340 333
3 341 340 380
3 381 341 380
3 388 341 381
3 389 383 335
3 389 335 342
3 342 336 384
3 390 342 384
3 389 342 390
3 390 384 385
3 387 386 343
3 344 387 343
3 391 387 344
3 343 386 339
3 388 392 341
3 341 392 345
3 347 345 392
3 347 392 393
3 349 395 394
3 391 349 394
3 344 349 391
3 395 396 394
3 393 397 347
3 347 397 350
3 350 398 351
3 397 398 350
3 351 399 352
3 398 399 351
3 352 400 353
3 399 400 352
3 349 353 395
3 353 401 395
3 353 400 401
3 395 401 396
3 403 402 356
3 356 402 355
3 404 356 357
3 404 403 356
3 357 359 404
3 404 359 405
3 402 361 355
3 406 361 402
3 363 407 362
3 407 408 362
3 408 359 362
3 408 405 359
3 406 367 361
3 409 367 406
3 368 410 407
3 368 407 363
3 408 407 411
3 411 407 410
3 412 369 370
3 371 412 370
3 413 373 374
3 414 413 374
3 367 414 374
3 409 414 367
3 375 415 410
3 375 410 368
3 411 410 416
3 416 410 415
3 417 376 412
3 412 376 369
3 378 417 371
3 371 417 412
3 413 379 373
3 381 379 413
3 414 381 413
3 418 381 414
3 382 415 375
3 420 419 383
3 383 419 382
3 419 416 382
3 416 415 382
3 420 421 419
3 422 385 417
3 417 385 376
3 387 422 378
3 378 422 417
3 424 388 423
3 388 418 423
3 388 381 418
3 425 424 423
3 389 420 383
3 426 421 420
3 389 426 420
3 390 426 389
3 390 385 422
3 427 390 422
3 426 390 427
3 422 387 427
3 387 428 427
3 387 391 428
3 424 392 388
3 430 429 393
3 430 393 392
3 425 430 392
3 424 425 392
3 431 429 430
3 391 394 432
3 433 391 432
3 428 391 433
3 396 432 394
3 429 397 393
3 431 434 429
3 434 397 429
3 434 398 397
3 398 435 399
3 434 435 398
3 399 436 400
3 435 436 399
3 432 401 433
3 401 436 433
3 401 400 436
3 401 432 396
3 437 402 403
3 404 438 403
3 403 438 437
3 405 438 404
3 439 406 437
3 437 406 402
3 438 441 440
3 439 438 440
3 437 438 439
3 438 405 441
3 405 442 441
3 405 408 442
3 444 443 439
3 443 406 439
3 443 409 406
3 444 439 440
3 411 442 408
3 411 445 442
3 443 414 409
3 446 414 443
3 416 448 447
3 445 416 447
3 411 416 445
3 448 449 447
3 451 418 450
3 418 446 450
3 418 414 446
3 452 451 450
3 419 448 416
3 454 453 421
3 421 453 419
3 453 449 419
3 449 448 419
3 454 455 453
3 451 423 418
3 425 423 451
3 452 425 451
3 456 425 452
3 426 454 421
3 457 455 454
3 426 457 454
3 427 457 426
3 427 428 457
3 457 428 458
3 456 459 425
3 425 459 430
3 461 460 431
3 430 461 431
3 459 461 430
3 462 460 461
3 433 458 428
3 433 463 458
3 460 434 431
3 462 464 460
3 464 434 460
3 464 435 434
3 435 465 436
3 464 465 435
3 433 436 463
3 463 436 465
3 466 440 441
3 442 466 441
3 467 443 444
3 440 466 444
3 466 467 444
3 466 468 467
3 445 468 442
3 442 468 466
3 469 446 467
3 467 446 443
3 468 471 470
3 469 468 470
3 467 468 469
3 473 471 472
3 472 471 447
3 471 468 447
3 468 445 447
3 475 472 474
3 472 447 474
3 449 476 474
3 449 474 447
3 476 477 474
3 469 450 446
3 479 478 452
3 479 452 450
3 470 479 450
3 469 470 450
3 473 472 480
3 479 481 478
3 449 453 476
3 484 483 482
3 475 480 472
3 482 483 455
3 483 477 455
3 476 453 455
3 476 455 477
3 485 456 478
3 478 456 452
3 478 481 486
3 487 478 486
3 485 478 487
3 484 482 488
3 486 489 487
3 491 488 490
3 490 488 457
3 488 482 457
3 482 455 457
3 458 490 457
3 485 459 456
3 459 485 461
3 461 485 487
3 493 492 462
3 493 462 461
3 489 493 461
3 487 489 461
3 492 493 491
3 490 492 491
3 494 492 490
3 463 494 458
3 458 494 490
3 492 464 462
3 464 492 465
3 465 492 494
3 465 494 463
3 495 470 471
3 473 495 471
3 496 475 474
3 477 496 474
3 495 479 470
3 481 479 497
3 479 495 497
3 473 480 497
3 473 497 495
3 480 475 497
3 475 496 497
3 483 484 497
3 483 497 496
3 483 496 477
3 497 486 481
3 489 486 498
3 486 497 498
3 484 488 498
3 484 498 497
3 491 498 488
3 498 493 489
3 493 498 491
