ply
format ascii 1.0
comment None
element vertex 778
property float x
property float y
property float z
element face 1596
property list uchar int vertex_indices
end_header
45.783 46.182 56.458
46.288 45.865 55.614
46.355 45.613 56.478
46.169 45.713 57.284
45.690 46.229 57.507
46.033 45.848 58.083
45.741 46.278 58.191
46.011 46.052 58.561
45.950 46.496 58.619
46.389 46.139 58.910
45.814 47.182 54.030
46.133 47.275 53.354
46.289 46.726 53.816
46.380 46.271 54.567
45.717 46.769 55.281
45.464 46.957 56.249
45.494 46.753 56.997
45.666 46.992 57.904
46.233 47.073 58.721
46.342 46.561 58.982
45.817 48.307 52.420
46.074 48.510 51.914
46.185 48.170 52.229
46.113 47.825 52.771
45.676 47.979 53.220
45.451 48.055 54.030
45.431 47.787 54.818
45.390 47.713 55.827
45.454 47.661 56.933
45.694 47.898 57.745
45.980 47.678 58.271
45.729 49.014 52.173
46.277 49.070 51.450
45.475 48.912 52.969
45.352 48.861 53.869
45.323 48.790 54.798
45.340 48.554 55.549
45.459 48.787 56.537
45.705 48.632 57.419
45.685 49.943 52.036
46.097 50.125 51.327
45.390 49.880 52.902
45.273 49.873 53.865
45.300 49.881 54.907
45.459 49.804 56.105
45.620 49.717 56.890
45.731 49.375 57.253
45.624 51.039 51.994
46.051 51.230 51.276
45.336 50.943 52.903
45.218 50.941 53.920
45.262 50.991 54.986
45.456 51.051 56.077
45.750 50.362 57.086
45.814 51.165 57.159
46.086 50.805 57.693
46.240 51.457 57.916
46.566 51.020 58.213
45.642 52.151 51.958
46.086 52.301 51.225
45.316 52.046 52.910
45.175 52.023 53.971
45.211 52.062 55.059
45.398 52.123 56.111
45.723 52.161 57.075
46.158 52.119 57.843
46.644 51.816 58.305
45.831 53.180 51.868
46.189 53.053 51.128
45.384 53.108 52.889
45.166 53.081 53.982
45.166 53.092 55.093
45.326 53.104 56.122
45.625 53.120 57.035
46.056 53.014 57.790
46.583 52.656 58.286
46.255 53.653 51.296
46.667 53.772 50.918
46.519 53.292 50.886
46.202 53.738 52.175
46.385 54.082 51.548
45.602 54.078 52.883
46.163 54.238 52.501
45.217 54.088 53.962
45.150 54.090 55.078
45.292 54.050 56.131
45.517 53.890 56.902
45.941 54.023 57.671
46.489 53.540 58.218
46.465 54.017 51.140
45.660 55.130 53.104
46.173 55.300 52.453
45.288 55.074 53.965
45.157 55.067 55.026
45.282 55.021 56.093
45.631 54.821 57.099
46.108 54.860 57.794
46.501 54.369 58.135
45.762 56.112 53.128
46.334 56.179 52.539
45.354 56.063 53.974
45.177 56.044 54.970
45.261 56.003 55.995
45.594 55.862 56.914
46.107 55.596 57.600
45.900 57.051 53.108
46.617 56.921 52.526
45.430 57.050 53.952
45.203 57.037 54.935
45.240 57.000 55.937
45.564 56.879 56.833
46.169 56.570 57.494
45.946 58.074 53.001
46.464 58.126 52.257
45.478 58.063 53.918
45.222 58.047 54.924
45.220 58.026 55.941
45.485 57.920 56.837
46.127 57.720 57.553
45.879 59.221 52.799
46.404 58.926 52.026
45.449 59.123 53.883
45.214 59.073 54.944
45.196 59.026 55.957
45.446 59.042 56.966
45.829 58.692 57.554
46.124 59.850 52.137
46.600 59.873 51.646
46.626 59.154 51.746
45.582 60.316 53.033
45.324 60.194 53.927
45.161 60.115 55.012
45.191 60.012 56.038
45.349 59.842 56.799
45.843 59.433 57.712
45.790 60.132 57.618
46.388 59.884 58.108
46.159 60.459 51.865
45.612 61.150 52.729
46.046 61.016 51.906
45.186 61.211 53.980
45.069 61.155 55.098
45.185 61.035 56.152
45.528 60.827 57.123
46.155 61.029 57.907
46.347 60.566 58.135
45.806 61.929 52.299
46.361 61.880 51.774
46.281 61.173 51.706
45.281 62.347 53.240
45.054 62.239 54.074
44.969 62.187 55.159
45.153 62.063 56.188
45.552 61.840 57.062
46.023 61.610 57.661
45.901 63.009 52.302
46.493 62.917 51.788
45.340 63.182 53.156
44.981 63.277 54.162
44.901 63.205 55.170
45.134 63.088 56.134
45.648 62.836 56.973
46.277 62.397 57.597
46.057 64.079 52.268
46.641 63.991 51.785
45.468 64.216 53.079
45.056 64.303 54.085
44.955 64.235 55.122
45.103 63.963 55.936
45.770 63.966 56.710
46.549 63.345 57.366
46.227 65.087 52.223
46.752 65.034 51.838
45.656 65.237 52.962
45.207 65.308 53.906
45.088 65.285 54.912
45.437 64.980 55.962
46.292 64.840 56.629
46.923 64.212 57.039
46.335 65.799 52.212
45.885 66.136 52.807
46.190 66.366 52.478
45.418 66.185 53.707
45.204 66.084 54.535
45.491 66.179 55.375
46.252 65.681 56.212
45.952 66.713 52.889
46.251 66.618 52.664
45.665 66.790 53.488
45.449 66.776 54.442
45.669 66.873 55.119
46.229 66.522 55.740
45.937 66.937 53.200
45.775 67.041 53.863
45.705 67.081 54.580
46.880 45.408 56.041
47.322 45.463 55.626
47.213 45.310 56.042
47.205 45.393 56.393
46.901 45.636 55.200
47.107 45.981 54.641
47.355 45.561 55.070
47.004 45.477 57.046
46.758 45.514 57.996
46.547 45.738 58.614
47.067 45.830 58.983
46.547 46.901 53.683
46.687 46.464 54.099
46.592 46.770 59.065
46.990 46.349 59.142
46.588 48.520 51.890
46.547 48.197 52.757
46.583 47.551 53.412
46.116 48.443 58.118
46.613 47.870 58.649
47.079 47.059 59.050
46.703 48.998 50.995
46.960 49.113 50.835
46.972 48.815 51.183
47.229 48.775 51.721
47.443 49.229 52.214
46.949 48.897 52.665
46.764 48.207 53.516
46.824 48.796 53.492
46.945 48.704 54.091
46.198 49.463 57.917
46.876 48.871 58.498
46.606 49.468 50.928
47.062 49.687 50.720
47.123 49.814 53.158
47.547 50.058 52.533
46.898 49.627 53.799
46.959 49.466 54.420
45.922 50.070 57.495
46.329 50.359 57.995
46.970 50.106 58.415
46.578 50.388 50.861
47.135 50.638 50.677
47.072 50.871 53.440
47.500 51.208 52.618
46.802 50.750 54.327
46.866 50.353 54.792
47.190 51.154 58.519
46.580 51.484 50.829
47.161 51.779 50.686
46.853 52.040 53.467
47.100 52.370 52.755
46.623 51.857 54.391
46.738 51.119 55.190
46.580 51.913 55.302
46.714 52.307 55.955
46.826 51.646 55.791
47.134 52.195 56.296
47.197 52.061 58.501
46.581 52.545 50.821
47.130 53.035 50.746
46.542 53.389 53.099
46.898 53.326 52.426
46.417 52.981 54.307
46.372 52.871 55.191
46.553 52.882 55.839
46.924 52.796 56.223
47.090 52.949 58.429
47.076 53.852 50.853
46.419 53.962 52.144
47.110 53.983 52.526
46.608 53.829 52.652
46.681 54.337 53.275
46.337 54.085 54.242
46.245 53.901 55.122
46.436 53.769 55.762
46.942 53.530 56.183
47.000 53.776 58.346
46.777 54.252 51.159
46.530 54.616 51.821
47.197 54.765 51.424
47.185 54.840 52.671
46.776 55.426 53.354
46.402 55.150 54.245
46.231 54.967 55.083
46.377 54.791 55.710
46.884 54.527 56.096
47.134 54.455 58.185
46.677 55.121 57.988
46.802 55.579 52.009
47.388 55.632 51.725
47.149 55.888 52.586
46.803 56.354 53.100
46.508 56.203 54.165
46.313 56.040 55.053
46.412 55.852 55.697
46.862 55.572 56.075
46.902 55.984 57.836
47.080 56.349 52.174
47.431 56.565 51.893
46.818 56.195 52.432
47.071 56.768 52.750
46.921 57.702 53.363
46.655 57.228 53.989
46.433 57.101 55.018
46.531 56.912 55.721
46.949 56.606 56.131
47.198 57.118 57.866
46.991 57.331 52.001
47.207 57.740 51.904
46.606 58.338 54.286
46.832 58.577 53.553
46.492 58.144 55.061
46.653 57.970 55.785
47.145 57.634 56.268
46.822 58.017 57.966
46.422 58.608 57.950
47.239 58.559 58.129
46.828 58.346 51.830
46.984 58.879 51.776
46.556 59.249 54.381
46.771 59.430 53.578
46.468 59.114 55.134
46.666 58.991 55.834
47.307 58.759 56.474
46.180 59.210 57.967
46.829 59.232 58.171
46.933 59.717 51.743
46.555 60.096 54.353
46.774 60.279 53.514
46.458 59.988 55.119
46.599 59.895 55.789
47.127 59.850 56.440
47.180 59.801 58.274
46.386 60.597 51.605
46.721 60.727 51.646
46.628 60.949 54.253
46.851 61.198 53.410
46.527 60.843 55.021
46.643 60.758 55.696
46.915 60.572 56.196
46.676 61.037 58.241
47.004 60.514 58.312
46.831 61.879 51.675
46.772 61.928 54.170
46.972 62.252 53.295
46.643 61.614 54.844
46.812 61.785 55.547
47.207 61.489 56.198
47.160 61.132 58.293
46.896 61.726 58.026
46.961 62.963 51.662
46.920 63.105 54.082
47.060 63.420 53.180
46.893 62.728 55.013
47.137 62.800 55.713
47.286 62.367 56.035
47.294 62.749 57.720
47.067 64.000 51.664
46.954 64.358 53.956
47.042 64.570 53.082
47.039 64.101 54.840
47.398 63.868 55.657
47.640 63.602 57.371
47.117 64.747 51.718
46.816 65.457 53.805
46.923 65.430 53.037
46.930 65.410 54.772
47.391 65.002 55.429
48.003 64.239 56.866
47.483 64.901 56.615
46.550 65.996 52.162
46.934 65.475 51.937
46.903 65.741 52.707
46.700 66.196 52.740
46.594 66.219 53.438
46.520 66.368 54.590
46.851 66.209 55.220
47.215 65.809 55.402
47.113 65.910 56.299
46.643 66.199 52.411
46.263 66.724 53.183
46.087 66.885 54.142
46.684 66.568 55.506
46.056 66.894 55.016
46.993 66.397 56.008
47.408 45.502 56.116
47.536 45.690 54.909
47.614 45.634 55.243
47.641 46.046 55.823
47.690 45.961 55.222
47.575 45.879 56.646
47.798 45.751 57.347
47.706 45.430 57.934
47.596 45.437 58.649
48.117 45.729 59.127
47.083 46.899 54.341
47.522 46.081 54.854
47.599 46.753 55.311
47.744 46.862 55.919
47.851 46.960 56.454
48.202 46.613 57.089
47.717 46.448 59.206
47.005 48.042 54.197
47.417 47.955 55.119
47.768 47.828 55.996
47.959 48.022 56.559
48.102 47.608 56.820
47.977 46.908 59.107
47.709 47.879 58.863
47.364 49.177 50.850
47.552 48.948 51.191
47.674 49.033 51.594
47.918 49.363 51.277
47.246 49.145 55.034
47.709 49.153 55.920
48.061 49.052 56.477
47.822 49.161 58.686
47.563 49.865 50.745
47.865 49.555 51.811
48.106 50.078 51.430
47.120 50.280 55.367
47.632 50.411 56.153
48.184 50.372 56.597
47.898 50.289 58.620
47.677 50.852 50.766
47.959 50.363 51.981
48.161 50.786 51.588
46.916 50.950 55.502
47.279 51.298 56.153
48.114 51.054 56.907
47.881 51.406 56.848
48.375 51.556 57.431
47.903 51.272 58.543
47.701 52.001 50.806
47.972 51.174 51.961
47.645 52.256 52.111
47.722 52.047 56.779
48.242 51.974 57.367
47.845 52.176 58.335
47.711 52.876 50.841
47.506 53.591 50.876
47.849 53.190 51.045
47.559 53.469 52.040
47.745 52.916 56.541
48.252 52.374 57.182
47.583 53.139 58.277
47.276 54.163 51.024
47.679 53.990 51.230
47.585 54.402 52.131
47.757 54.074 56.304
47.469 53.839 58.240
47.687 54.860 51.541
47.587 55.275 52.201
47.675 55.136 56.226
47.783 54.205 58.017
47.704 55.090 57.881
47.727 55.635 51.751
47.522 56.122 52.242
47.644 56.159 56.283
47.968 56.145 57.800
47.667 56.198 51.960
47.376 57.114 52.265
47.174 57.377 52.772
47.821 57.089 56.449
48.296 56.826 57.850
47.199 58.275 52.221
47.133 57.968 52.808
48.222 58.045 56.779
47.509 57.925 58.055
48.303 57.524 57.964
47.074 59.218 52.157
47.029 58.838 52.820
48.136 58.884 56.991
47.818 59.514 56.946
48.256 58.285 58.092
48.515 59.223 57.288
47.949 59.110 58.192
46.995 60.115 52.079
46.963 59.700 52.771
47.728 60.167 56.926
48.431 59.895 57.392
47.927 60.080 58.214
47.000 61.093 52.004
46.967 60.592 52.681
47.514 60.810 56.655
48.021 60.613 57.080
47.716 61.382 58.105
47.576 60.815 58.285
48.073 60.818 58.083
47.100 62.151 51.943
47.046 61.577 52.577
47.863 61.639 56.622
48.001 62.180 57.800
47.201 63.239 51.891
47.150 62.667 52.477
47.644 63.273 56.134
47.953 62.527 56.422
48.342 63.056 57.497
47.235 64.255 51.878
47.200 63.803 52.400
47.920 64.232 56.325
48.333 63.801 56.485
48.581 63.797 57.150
47.162 65.014 51.918
47.127 64.929 52.383
48.019 64.774 55.945
48.497 64.517 56.338
48.235 64.573 56.645
48.182 65.223 56.523
48.639 64.463 56.798
46.972 65.639 52.257
47.177 66.232 55.615
47.903 65.647 55.820
47.761 65.969 56.225
47.425 66.250 55.918
48.621 45.190 58.885
49.159 45.003 58.697
49.231 45.056 58.870
48.904 45.264 59.056
47.681 45.739 55.013
48.704 45.771 57.746
48.660 45.206 58.431
48.940 45.500 59.113
49.294 45.807 58.936
48.742 45.770 59.163
49.101 46.695 57.288
48.479 46.234 59.149
48.898 46.885 58.859
48.166 48.485 56.763
48.565 47.831 56.931
48.772 48.184 58.693
47.758 49.350 50.942
48.280 49.192 56.682
48.418 48.807 56.766
48.738 49.368 58.605
47.955 50.000 50.991
48.649 49.898 56.523
48.501 49.276 56.667
48.772 50.401 58.480
48.069 51.052 51.127
48.526 51.424 57.280
48.774 51.314 56.684
48.525 51.321 58.277
47.992 52.307 51.090
48.074 51.708 51.537
48.527 52.019 57.272
48.766 52.494 56.650
48.511 51.766 57.531
48.470 51.826 57.880
48.845 51.409 57.821
48.889 51.797 57.644
47.900 52.992 51.494
48.968 53.547 56.431
48.709 52.602 57.545
48.509 52.113 57.644
48.201 52.462 57.837
47.798 54.104 51.668
48.851 54.486 56.213
48.059 53.407 57.965
48.752 54.060 57.494
47.797 54.966 51.826
48.646 55.594 56.262
49.035 55.413 57.449
47.768 55.621 51.946
48.496 56.472 56.418
48.918 56.303 57.660
48.945 57.117 56.671
49.236 56.978 57.760
49.484 57.757 57.095
49.458 57.921 57.899
49.033 58.550 57.336
49.230 59.001 57.649
49.178 58.544 58.012
49.153 59.070 58.038
49.231 59.303 57.828
48.554 60.232 57.840
48.162 61.269 56.965
48.391 60.852 57.375
48.474 61.484 57.648
48.589 62.148 56.807
48.976 62.610 57.333
48.785 63.038 56.572
49.076 63.343 57.179
49.284 63.879 56.431
49.231 63.972 56.857
48.889 65.050 56.025
49.308 64.614 56.161
49.076 64.739 56.525
48.654 65.441 56.267
48.836 65.416 56.045
48.153 65.855 56.071
49.326 45.031 58.492
49.566 45.288 58.129
49.839 45.073 58.465
50.119 45.356 58.505
49.440 45.256 58.891
50.097 45.936 57.617
50.107 46.030 58.399
49.889 46.639 57.218
50.393 46.925 56.875
50.600 46.270 57.333
49.768 47.223 58.390
49.449 47.506 56.897
50.143 48.008 56.426
49.626 48.481 58.361
49.029 48.831 56.580
49.775 48.995 56.197
49.501 49.525 58.362
49.474 49.755 56.198
50.287 50.153 55.926
50.161 49.411 55.973
50.108 50.149 57.887
49.521 50.118 58.276
49.894 49.704 58.164
49.459 50.767 56.205
50.364 51.162 55.897
49.271 50.767 58.136
49.764 51.182 57.663
49.561 51.899 56.213
50.448 52.184 55.858
49.671 52.095 57.362
49.759 53.147 56.213
50.594 53.106 55.803
49.531 53.062 57.112
49.869 53.947 56.017
50.689 53.939 55.806
49.541 53.821 56.304
49.647 53.878 56.726
49.951 53.266 56.581
50.245 53.703 56.414
49.845 54.884 56.077
50.816 54.607 55.952
50.495 54.738 56.556
49.642 54.704 57.013
50.360 55.241 56.194
50.193 55.387 56.857
49.688 55.989 56.420
50.071 56.125 57.301
50.055 56.893 56.848
50.251 57.158 57.699
50.419 57.490 57.248
50.155 57.825 57.901
49.799 58.315 57.936
50.257 58.166 57.944
50.039 58.080 57.620
49.516 58.465 57.761
49.865 58.494 57.854
49.964 58.663 57.953
49.780 58.806 57.875
48.582 61.581 57.195
49.023 62.226 57.124
49.366 62.909 56.749
49.491 62.789 56.974
49.566 63.312 56.896
49.680 63.434 56.652
49.584 64.129 56.507
49.547 64.891 56.028
49.640 64.587 56.176
49.422 64.949 56.188
49.423 65.096 56.015
50.703 45.314 57.724
50.815 45.147 57.994
50.845 45.366 58.068
50.868 45.856 57.420
51.157 46.166 56.967
51.204 45.548 57.281
50.917 45.673 57.892
51.246 45.360 57.796
51.485 45.594 57.502
51.328 47.094 56.471
51.243 46.448 57.343
50.899 45.891 57.618
50.546 46.319 57.836
50.971 47.875 56.161
51.362 48.137 55.946
51.673 47.474 56.214
50.488 47.550 57.889
51.183 47.982 57.313
50.526 48.641 56.026
51.121 49.188 55.834
50.393 49.001 57.879
51.199 48.955 57.291
51.453 50.250 55.817
51.656 50.054 56.719
50.969 49.684 57.389
51.455 49.365 57.044
51.131 51.361 55.737
50.784 50.588 57.303
51.354 50.968 56.813
51.318 52.118 55.678
50.592 51.513 57.129
51.308 51.829 56.594
51.405 53.016 55.657
50.386 52.454 56.872
51.020 52.976 56.403
51.430 53.808 55.740
51.118 53.992 56.314
51.424 54.440 55.962
51.160 54.959 56.482
50.700 55.425 56.694
50.957 55.795 56.891
50.844 55.115 56.306
50.423 55.411 56.459
50.650 55.841 56.636
50.833 56.576 57.342
50.815 56.861 57.064
50.846 57.177 57.654
50.584 57.574 57.832
50.855 57.606 57.777
50.892 57.406 57.350
50.662 57.699 57.462
50.830 57.694 57.562
50.594 58.103 57.877
50.250 58.448 57.907
50.541 58.090 57.781
49.709 63.072 56.799
49.681 64.919 56.042
51.354 45.307 57.341
51.730 45.617 56.970
51.540 45.227 57.393
52.059 45.409 57.129
51.418 45.231 57.658
51.852 46.366 56.520
52.080 45.871 57.012
51.952 47.047 56.265
51.976 47.430 56.009
52.257 46.717 56.183
52.091 46.504 56.751
52.497 46.143 56.652
52.493 46.734 56.439
51.982 48.206 55.839
52.265 47.634 56.312
52.034 46.996 56.457
51.746 47.318 56.677
52.213 49.293 55.798
51.810 48.777 56.696
52.478 49.131 56.104
52.289 49.809 55.911
52.053 49.891 56.129
51.999 50.850 55.775
52.223 50.284 56.074
52.102 50.861 56.243
52.106 51.932 55.659
51.959 52.215 56.094
51.955 52.963 55.684
51.712 53.357 56.084
51.855 53.710 55.796
51.600 54.218 56.146
51.732 54.234 55.982
51.327 55.071 56.351
51.254 55.507 56.646
51.122 56.231 56.962
51.092 57.153 57.359
51.091 57.051 57.479
50.974 57.619 57.668
52.142 45.451 56.924
52.402 46.047 56.479
52.486 45.607 56.726
52.546 45.776 56.720
52.421 47.252 55.976
52.546 46.630 56.149
52.742 46.360 56.412
52.762 47.262 56.183
52.582 48.042 55.867
52.799 48.375 56.021
52.736 48.849 55.808
52.851 49.338 55.911
52.436 50.062 55.926
52.592 49.911 55.804
52.642 50.159 55.920
52.584 50.827 55.715
52.502 51.267 55.894
52.565 51.403 55.724
52.302 52.151 55.774
52.059 53.027 55.845
51.905 53.712 55.921
52.703 46.011 56.471
52.738 46.867 56.146
52.869 48.029 55.941
52.902 49.068 55.847
52.842 50.012 55.798
52.749 50.746 55.778
3 2 1 0
3 4 3 0
3 0 3 2
3 6 5 4
3 4 5 3
3 8 7 6
3 6 7 5
3 8 9 7
3 12 11 10
3 14 13 10
3 10 13 12
3 13 14 1
3 14 0 1
3 14 15 0
3 0 16 4
3 0 15 16
3 4 17 6
3 4 16 17
3 19 8 18
3 8 17 18
3 8 6 17
3 8 19 9
3 22 21 20
3 24 23 20
3 20 23 22
3 23 24 11
3 24 10 11
3 24 25 10
3 10 26 14
3 10 25 26
3 14 27 15
3 14 26 27
3 15 28 16
3 15 27 28
3 30 17 29
3 17 28 29
3 17 16 28
3 17 30 18
3 20 21 31
3 31 21 32
3 20 33 24
3 20 31 33
3 24 34 25
3 24 33 34
3 25 35 26
3 25 34 35
3 26 36 27
3 26 35 36
3 27 37 28
3 27 36 37
3 29 28 38
3 38 28 37
3 31 32 39
3 39 32 40
3 31 41 33
3 31 39 41
3 33 42 34
3 33 41 42
3 34 43 35
3 34 42 43
3 35 44 36
3 35 43 44
3 46 37 45
3 37 44 45
3 37 36 44
3 37 46 38
3 39 40 47
3 47 40 48
3 39 49 41
3 39 47 49
3 41 50 42
3 41 49 50
3 42 51 43
3 42 50 51
3 43 52 44
3 43 51 52
3 45 44 53
3 44 54 53
3 44 52 54
3 56 55 54
3 54 55 53
3 56 57 55
3 47 48 58
3 58 48 59
3 47 60 49
3 47 58 60
3 49 61 50
3 49 60 61
3 50 62 51
3 50 61 62
3 51 63 52
3 51 62 63
3 52 64 54
3 52 63 64
3 54 65 56
3 54 64 65
3 57 56 66
3 66 56 65
3 58 59 67
3 67 59 68
3 58 69 60
3 58 67 69
3 60 70 61
3 60 69 70
3 61 71 62
3 61 70 71
3 62 72 63
3 62 71 72
3 63 73 64
3 63 72 73
3 64 74 65
3 64 73 74
3 66 65 75
3 75 65 74
3 78 77 76
3 80 79 76
3 79 67 76
3 68 78 76
3 68 76 67
3 82 81 79
3 81 67 79
3 81 69 67
3 69 83 70
3 69 81 83
3 70 84 71
3 70 83 84
3 71 85 72
3 71 84 85
3 72 86 73
3 72 85 86
3 73 87 74
3 73 86 87
3 75 74 88
3 88 74 87
3 77 89 76
3 76 89 80
3 81 82 90
3 90 82 91
3 81 92 83
3 81 90 92
3 83 93 84
3 83 92 93
3 84 94 85
3 84 93 94
3 85 95 86
3 85 94 95
3 97 87 96
3 87 95 96
3 87 86 95
3 87 97 88
3 90 91 98
3 98 91 99
3 90 100 92
3 90 98 100
3 92 101 93
3 92 100 101
3 93 102 94
3 93 101 102
3 94 103 95
3 94 102 103
3 96 95 104
3 104 95 103
3 98 99 105
3 105 99 106
3 98 107 100
3 98 105 107
3 100 108 101
3 100 107 108
3 101 109 102
3 101 108 109
3 102 110 103
3 102 109 110
3 104 103 111
3 111 103 110
3 105 106 112
3 112 106 113
3 105 114 107
3 105 112 114
3 107 115 108
3 107 114 115
3 108 116 109
3 108 115 116
3 109 117 110
3 109 116 117
3 111 110 118
3 118 110 117
3 112 113 119
3 119 113 120
3 112 121 114
3 112 119 121
3 114 122 115
3 114 121 122
3 115 123 116
3 115 122 123
3 116 124 117
3 116 123 124
3 118 117 125
3 125 117 124
3 128 127 126
3 128 126 120
3 126 119 120
3 126 129 119
3 119 130 121
3 119 129 130
3 121 131 122
3 121 130 131
3 122 132 123
3 122 131 132
3 123 133 124
3 123 132 133
3 125 124 134
3 124 135 134
3 124 133 135
3 135 136 134
3 127 137 126
3 139 138 137
3 138 126 137
3 138 129 126
3 129 140 130
3 129 138 140
3 130 141 131
3 130 140 141
3 131 142 132
3 131 141 142
3 132 143 133
3 132 142 143
3 145 135 144
3 135 143 144
3 135 133 143
3 135 145 136
3 148 147 146
3 148 146 139
3 146 138 139
3 146 149 138
3 138 150 140
3 138 149 150
3 140 151 141
3 140 150 151
3 141 152 142
3 141 151 152
3 142 153 143
3 142 152 153
3 144 143 154
3 154 143 153
3 146 147 155
3 155 147 156
3 146 157 149
3 146 155 157
3 149 158 150
3 149 157 158
3 150 159 151
3 150 158 159
3 151 160 152
3 151 159 160
3 152 161 153
3 152 160 161
3 154 153 162
3 162 153 161
3 155 156 163
3 163 156 164
3 155 165 157
3 155 163 165
3 157 166 158
3 157 165 166
3 158 167 159
3 158 166 167
3 159 168 160
3 159 167 168
3 160 169 161
3 160 168 169
3 162 161 170
3 170 161 169
3 163 164 171
3 171 164 172
3 163 173 165
3 163 171 173
3 165 174 166
3 165 173 174
3 166 175 167
3 166 174 175
3 167 176 168
3 167 175 176
3 178 169 177
3 169 176 177
3 169 168 176
3 169 178 170
3 172 179 171
3 181 180 179
3 180 171 179
3 180 173 171
3 173 182 174
3 173 180 182
3 174 183 175
3 174 182 183
3 175 184 176
3 175 183 184
3 177 176 185
3 185 176 184
3 180 181 186
3 186 181 187
3 180 188 182
3 180 186 188
3 182 189 183
3 182 188 189
3 191 184 190
3 184 189 190
3 184 183 189
3 184 191 185
3 187 192 186
3 186 192 188
3 188 192 193
3 188 193 189
3 189 193 194
3 189 194 190
3 197 196 195
3 195 198 197
3 201 200 199
3 201 199 196
3 196 199 195
3 199 1 195
3 1 2 195
3 202 198 195
3 2 202 195
3 3 202 2
3 203 3 5
3 203 202 3
3 204 5 7
3 204 203 5
3 7 9 204
3 204 9 205
3 207 206 12
3 12 206 11
3 13 199 200
3 207 13 200
3 12 13 207
3 199 13 1
3 18 208 19
3 208 209 19
3 209 9 19
3 209 205 9
3 210 21 22
3 23 211 22
3 22 211 210
3 212 211 23
3 11 212 23
3 206 212 11
3 29 213 30
3 213 214 30
3 30 214 18
3 214 215 18
3 215 208 18
3 208 215 209
3 218 217 216
3 219 218 210
3 218 32 210
3 32 21 210
3 218 216 32
3 221 220 219
3 210 221 219
3 211 221 210
3 211 212 222
3 223 211 222
3 221 211 223
3 224 223 222
3 38 225 213
3 38 213 29
3 214 213 226
3 226 213 225
3 216 217 227
3 227 217 228
3 227 40 32
3 227 32 216
3 220 221 229
3 220 229 230
3 231 221 223
3 229 221 231
3 223 224 232
3 223 232 231
3 45 233 46
3 225 38 46
3 233 225 46
3 234 225 233
3 226 225 235
3 235 225 234
3 227 228 236
3 236 228 237
3 236 48 40
3 236 40 227
3 230 229 238
3 230 238 239
3 240 229 231
3 238 229 240
3 231 232 241
3 231 241 240
3 53 233 45
3 233 53 55
3 233 55 234
3 55 57 234
3 57 235 234
3 57 242 235
3 236 237 243
3 243 237 244
3 243 59 48
3 243 48 236
3 239 238 245
3 239 245 246
3 247 238 240
3 245 238 247
3 240 241 248
3 249 240 248
3 247 240 249
3 251 250 249
3 251 249 248
3 252 250 251
3 66 242 57
3 66 253 242
3 243 244 254
3 254 244 255
3 254 68 59
3 254 59 243
3 246 245 256
3 246 256 257
3 258 245 247
3 256 245 258
3 259 247 249
3 258 247 259
3 260 249 250
3 259 249 260
3 250 252 261
3 250 261 260
3 75 253 66
3 75 262 253
3 254 255 78
3 255 77 78
3 255 263 77
3 68 254 78
3 79 80 264
3 257 266 265
3 257 264 266
3 264 257 79
3 256 79 257
3 79 256 82
3 266 82 256
3 256 267 266
3 266 267 265
3 264 82 266
3 268 256 258
3 267 256 268
3 269 258 259
3 268 258 269
3 270 259 260
3 269 259 270
3 260 261 271
3 260 271 270
3 88 262 75
3 88 272 262
3 263 273 77
3 77 273 89
3 89 273 80
3 273 274 80
3 274 264 80
3 274 273 275
3 274 82 264
3 82 274 91
3 265 267 276
3 277 276 267
3 278 267 268
3 277 267 278
3 279 268 269
3 278 268 279
3 280 269 270
3 279 269 280
3 270 271 281
3 270 281 280
3 283 282 97
3 283 97 96
3 88 97 272
3 272 97 282
3 274 275 284
3 284 275 285
3 284 91 274
3 91 284 99
3 276 277 286
3 287 286 277
3 288 277 278
3 287 277 288
3 289 278 279
3 288 278 289
3 290 279 280
3 289 279 290
3 280 281 291
3 280 291 290
3 104 283 96
3 104 292 283
3 284 285 293
3 293 285 294
3 99 295 106
3 295 287 106
3 296 106 287
3 106 296 293
3 286 293 296
3 293 286 295
3 295 284 293
3 99 284 295
3 295 286 287
3 298 297 296
3 287 298 296
3 288 298 287
3 299 288 289
3 298 288 299
3 300 289 290
3 299 289 300
3 290 291 301
3 290 301 300
3 111 292 104
3 111 302 292
3 293 294 303
3 303 294 304
3 303 113 106
3 303 106 293
3 297 298 305
3 297 305 306
3 307 298 299
3 305 298 307
3 308 299 300
3 307 299 308
3 300 301 309
3 300 309 308
3 118 311 310
3 302 118 310
3 111 118 302
3 311 312 310
3 303 304 313
3 313 304 314
3 313 120 113
3 313 113 303
3 306 305 315
3 306 315 316
3 317 305 307
3 315 305 317
3 318 307 308
3 317 307 318
3 308 309 319
3 308 319 318
3 125 320 311
3 125 311 118
3 312 311 321
3 321 311 320
3 313 314 128
3 314 127 128
3 314 322 127
3 313 128 120
3 316 315 323
3 316 323 324
3 325 315 317
3 323 315 325
3 326 317 318
3 325 317 326
3 318 319 327
3 318 327 326
3 134 320 125
3 134 136 320
3 136 321 320
3 136 328 321
3 137 127 329
3 127 330 329
3 127 322 330
3 329 139 137
3 324 323 331
3 324 331 332
3 333 323 325
3 331 323 333
3 334 325 326
3 333 325 334
3 326 327 335
3 326 335 334
3 144 336 145
3 336 337 145
3 337 136 145
3 337 328 136
3 329 330 148
3 330 147 148
3 330 338 147
3 329 148 139
3 332 331 339
3 332 339 340
3 341 331 333
3 339 331 341
3 342 333 334
3 341 333 342
3 334 335 343
3 334 343 342
3 345 344 336
3 144 345 336
3 154 345 144
3 336 344 337
3 338 156 147
3 346 156 338
3 340 339 347
3 340 347 348
3 349 339 341
3 347 339 349
3 342 351 350
3 349 342 350
3 341 342 349
3 351 342 343
3 162 345 154
3 162 352 345
3 346 164 156
3 353 164 346
3 348 347 354
3 348 354 355
3 356 347 349
3 354 347 356
3 349 350 357
3 349 357 356
3 170 352 162
3 170 358 352
3 353 172 164
3 359 172 353
3 355 354 360
3 355 360 361
3 362 354 356
3 360 354 362
3 356 357 363
3 356 363 362
3 365 364 178
3 365 178 177
3 170 178 358
3 358 178 364
3 179 172 366
3 172 367 366
3 172 359 367
3 181 179 366
3 370 369 368
3 370 368 361
3 360 370 361
3 371 370 360
3 362 373 372
3 371 362 372
3 360 362 371
3 373 362 363
3 185 365 177
3 185 374 365
3 367 375 366
3 181 366 187
3 375 187 366
3 187 375 376
3 369 376 375
3 376 369 370
3 377 370 371
3 376 370 377
3 371 372 378
3 379 371 378
3 377 371 379
3 191 190 379
3 378 191 379
3 380 191 378
3 185 191 374
3 374 191 380
3 376 192 187
3 192 376 193
3 193 376 377
3 193 377 194
3 194 377 379
3 194 379 190
3 381 196 197
3 198 381 197
3 383 382 201
3 201 382 200
3 383 201 196
3 384 383 196
3 381 384 196
3 383 384 385
3 202 386 198
3 386 381 198
3 386 384 381
3 386 202 387
3 202 388 387
3 202 203 388
3 389 203 204
3 389 388 203
3 204 205 389
3 389 205 390
3 391 206 207
3 200 382 392
3 391 200 392
3 393 391 392
3 207 200 391
3 393 392 385
3 384 393 385
3 394 393 384
3 395 384 386
3 394 384 395
3 386 387 396
3 386 396 395
3 209 390 205
3 209 397 390
3 398 212 391
3 391 212 206
3 399 391 393
3 398 391 399
3 400 393 394
3 399 393 400
3 395 402 401
3 400 395 401
3 394 395 400
3 402 395 396
3 404 403 215
3 404 215 214
3 209 215 397
3 397 215 403
3 406 405 218
3 218 405 217
3 408 406 407
3 406 219 407
3 406 218 219
3 220 407 219
3 398 222 212
3 222 398 224
3 398 409 224
3 398 399 409
3 410 399 400
3 409 399 410
3 400 401 411
3 400 411 410
3 226 404 214
3 226 412 404
3 405 228 217
3 413 228 405
3 408 407 414
3 408 414 415
3 230 414 220
3 220 414 407
3 416 232 409
3 409 232 224
3 417 409 410
3 416 409 417
3 410 411 418
3 410 418 417
3 235 412 226
3 235 419 412
3 413 237 228
3 420 237 413
3 415 414 421
3 415 421 422
3 239 421 230
3 230 421 414
3 423 241 416
3 416 241 232
3 424 416 417
3 423 416 424
3 417 418 425
3 426 417 425
3 424 417 426
3 427 426 425
3 242 419 235
3 242 428 419
3 420 244 237
3 429 244 420
3 430 422 421
3 421 239 430
3 239 431 430
3 239 246 431
3 423 248 241
3 248 423 251
3 251 423 424
3 251 424 252
3 424 432 252
3 424 426 432
3 426 427 433
3 426 433 432
3 253 428 242
3 253 434 428
3 436 255 435
3 255 429 435
3 255 244 429
3 437 436 435
3 257 431 246
3 257 438 431
3 440 439 432
3 439 252 432
3 439 261 252
3 440 432 433
3 262 434 253
3 262 441 434
3 442 263 436
3 436 263 255
3 436 437 443
3 436 443 442
3 265 438 257
3 265 444 438
3 439 271 261
3 445 271 439
3 272 441 262
3 272 446 441
3 442 273 263
3 275 273 442
3 443 275 442
3 447 275 443
3 276 444 265
3 276 448 444
3 445 281 271
3 449 281 445
3 451 450 282
3 451 282 283
3 272 282 446
3 446 282 450
3 447 285 275
3 452 285 447
3 286 448 276
3 286 453 448
3 449 291 281
3 454 291 449
3 292 451 283
3 292 455 451
3 457 294 456
3 294 452 456
3 294 285 452
3 458 457 296
3 457 453 296
3 453 286 296
3 453 457 456
3 297 458 296
3 454 301 291
3 459 301 454
3 302 455 292
3 302 460 455
3 461 304 457
3 457 304 294
3 462 457 458
3 461 457 462
3 306 462 297
3 297 462 458
3 459 309 301
3 463 309 459
3 302 310 464
3 465 302 464
3 460 302 465
3 312 464 310
3 466 314 461
3 461 314 304
3 467 461 462
3 466 461 467
3 316 467 306
3 306 467 462
3 469 319 468
3 319 463 468
3 319 309 463
3 465 464 470
3 468 471 469
3 464 312 470
3 312 472 470
3 312 321 472
3 473 322 466
3 466 322 314
3 474 466 467
3 473 466 474
3 324 474 316
3 316 474 467
3 475 327 469
3 469 327 319
3 469 471 476
3 469 476 475
3 328 472 321
3 328 477 472
3 478 330 473
3 473 330 322
3 479 473 474
3 478 473 479
3 332 479 324
3 324 479 474
3 481 480 475
3 480 327 475
3 480 335 327
3 484 483 482
3 476 481 475
3 484 477 483
3 477 337 483
3 477 328 337
3 485 338 478
3 478 338 330
3 486 478 479
3 485 478 486
3 340 486 332
3 332 486 479
3 480 343 335
3 487 343 480
3 482 483 344
3 345 482 344
3 488 482 345
3 344 483 337
3 489 346 485
3 485 346 338
3 490 485 486
3 489 485 490
3 348 490 340
3 340 490 486
3 491 350 351
3 492 491 351
3 343 492 351
3 487 492 343
3 352 488 345
3 352 493 488
3 494 353 489
3 489 353 346
3 495 489 490
3 494 489 495
3 355 495 348
3 348 495 490
3 496 357 491
3 491 357 350
3 491 492 497
3 491 497 496
3 358 493 352
3 358 498 493
3 499 359 494
3 494 359 353
3 500 494 495
3 499 494 500
3 361 500 355
3 355 500 495
3 502 501 496
3 501 357 496
3 501 363 357
3 504 503 365
3 503 502 365
3 496 365 502
3 365 496 364
3 497 364 496
3 364 497 503
3 503 505 364
3 504 505 503
3 503 497 502
3 358 364 498
3 498 364 505
3 506 367 499
3 499 367 359
3 369 506 368
3 506 500 368
3 506 499 500
3 368 500 361
3 507 372 373
3 508 507 373
3 363 508 373
3 501 508 363
3 374 504 365
3 374 509 504
3 506 375 367
3 375 506 369
3 507 378 372
3 508 510 507
3 510 378 507
3 510 380 378
3 374 380 509
3 509 380 510
3 513 512 511
3 511 514 513
3 515 382 383
3 385 515 383
3 517 516 388
3 388 516 387
3 520 519 518
3 517 511 512
3 511 517 389
3 388 389 517
3 520 518 390
3 518 514 390
3 511 389 390
3 511 390 514
3 515 392 382
3 392 515 385
3 516 396 387
3 521 396 516
3 519 520 522
3 519 522 523
3 397 522 390
3 390 522 520
3 524 401 402
3 525 524 402
3 396 525 402
3 521 525 396
3 523 522 403
3 404 523 403
3 526 523 404
3 403 522 397
3 527 405 406
3 408 527 406
3 528 411 524
3 524 411 401
3 524 525 529
3 524 529 528
3 412 526 404
3 412 530 526
3 531 413 527
3 527 413 405
3 415 531 408
3 408 531 527
3 533 532 528
3 532 411 528
3 532 418 411
3 533 528 529
3 419 530 412
3 419 534 530
3 535 420 531
3 531 420 413
3 422 535 415
3 415 535 531
3 425 418 536
3 418 537 536
3 418 532 537
3 536 427 425
3 428 534 419
3 428 538 534
3 539 429 535
3 535 429 420
3 430 540 422
3 540 535 422
3 540 539 535
3 431 540 430
3 536 537 541
3 541 537 542
3 427 543 433
3 427 544 543
3 544 427 545
3 536 545 427
3 545 536 546
3 543 546 536
3 536 541 543
3 543 541 433
3 544 546 543
3 545 538 544
3 538 434 544
3 538 428 434
3 539 435 429
3 435 539 437
3 539 547 437
3 539 540 547
3 438 547 431
3 431 547 540
3 541 542 440
3 542 439 440
3 542 548 439
3 546 550 549
3 550 541 549
3 440 549 541
3 549 440 551
3 433 551 440
3 551 433 550
3 550 544 551
3 546 544 550
3 550 433 541
3 441 551 434
3 434 551 544
3 552 443 547
3 547 443 437
3 444 552 438
3 438 552 547
3 548 445 439
3 553 445 548
3 549 551 554
3 549 554 555
3 446 554 441
3 441 554 551
3 556 447 552
3 552 447 443
3 448 556 444
3 444 556 552
3 553 449 445
3 557 449 553
3 555 554 450
3 451 555 450
3 558 555 451
3 450 554 446
3 559 452 556
3 556 452 447
3 453 559 448
3 448 559 556
3 557 454 449
3 560 454 557
3 455 558 451
3 455 561 558
3 559 456 452
3 456 559 453
3 560 459 454
3 562 459 560
3 460 561 455
3 460 563 561
3 562 463 459
3 564 463 562
3 465 563 460
3 465 565 563
3 564 566 463
3 463 566 468
3 566 471 468
3 471 566 567
3 465 470 565
3 568 565 470
3 470 472 568
3 568 472 569
3 571 476 570
3 476 567 570
3 476 471 567
3 570 569 571
3 569 477 571
3 569 472 477
3 573 572 481
3 481 572 480
3 481 476 573
3 571 573 476
3 573 571 574
3 484 574 571
3 574 484 482
3 484 571 477
3 572 487 480
3 575 487 572
3 488 574 482
3 488 576 574
3 575 492 487
3 577 492 575
3 493 576 488
3 493 578 576
3 577 497 492
3 579 497 577
3 498 578 493
3 498 580 578
3 582 581 502
3 502 581 501
3 505 504 583
3 584 583 504
3 579 502 497
3 502 579 582
3 498 505 580
3 580 505 583
3 586 508 585
3 508 581 585
3 508 501 581
3 585 584 586
3 584 509 586
3 584 504 509
3 586 510 508
3 510 586 509
3 589 588 587
3 587 512 589
3 512 513 589
3 591 590 589
3 591 589 513
3 514 591 513
3 587 588 517
3 588 516 517
3 588 592 516
3 587 517 512
3 519 591 518
3 591 519 590
3 593 590 519
3 518 591 514
3 596 595 594
3 592 596 594
3 521 592 594
3 516 592 521
3 523 593 519
3 523 597 593
3 594 595 598
3 598 595 599
3 598 525 521
3 598 521 594
3 526 597 523
3 526 600 597
3 598 599 601
3 601 599 602
3 601 529 525
3 601 525 598
3 530 600 526
3 530 603 600
3 606 605 604
3 606 604 602
3 602 604 601
3 604 532 601
3 532 533 601
3 529 601 533
3 609 608 607
3 609 603 608
3 603 534 608
3 603 530 534
3 604 605 610
3 610 605 611
3 610 537 532
3 610 532 604
3 607 608 612
3 607 612 613
3 538 612 534
3 534 612 608
3 610 611 614
3 614 611 615
3 614 542 537
3 614 537 610
3 613 612 545
3 546 613 545
3 616 613 546
3 545 612 538
3 614 615 617
3 617 615 618
3 617 548 542
3 617 542 614
3 549 616 546
3 549 619 616
3 617 618 620
3 620 618 621
3 548 622 553
3 548 623 622
3 623 548 624
3 617 624 548
3 624 617 625
3 622 625 617
3 617 620 622
3 622 620 553
3 623 625 622
3 624 619 623
3 619 555 623
3 619 549 555
3 620 621 626
3 626 621 627
3 626 553 620
3 553 626 557
3 625 623 628
3 629 628 623
3 558 629 555
3 555 629 623
3 627 630 626
3 629 631 628
3 632 626 630
3 626 632 557
3 560 557 632
3 629 558 631
3 558 633 631
3 558 561 633
3 632 562 560
3 634 562 632
3 563 633 561
3 563 635 633
3 634 564 562
3 636 564 634
3 565 638 637
3 635 565 637
3 563 565 635
3 638 639 637
3 636 640 564
3 564 640 566
3 640 641 566
3 640 565 641
3 565 640 638
3 642 638 640
3 638 642 568
3 641 568 642
3 642 567 641
3 641 567 566
3 565 568 641
3 568 569 638
3 569 639 638
3 569 643 639
3 642 644 567
3 567 644 570
3 569 570 643
3 643 570 644
3 645 572 573
3 574 645 573
3 646 575 645
3 645 575 572
3 576 646 574
3 574 646 645
3 648 647 646
3 647 575 646
3 647 577 575
3 646 576 648
3 576 649 648
3 576 578 649
3 651 579 650
3 579 647 650
3 579 577 647
3 650 649 651
3 649 580 651
3 649 578 580
3 653 652 582
3 582 652 581
3 582 579 653
3 651 653 579
3 653 651 654
3 583 654 651
3 654 583 584
3 583 651 580
3 652 655 581
3 581 655 585
3 584 585 654
3 654 585 655
3 657 656 589
3 589 656 588
3 589 590 657
3 657 590 658
3 661 660 659
3 664 663 662
3 661 659 656
3 592 656 659
3 656 592 588
3 663 658 662
3 658 593 662
3 658 590 593
3 659 660 596
3 660 595 596
3 660 665 595
3 664 667 666
3 667 659 666
3 596 666 659
3 666 596 668
3 592 668 596
3 668 592 667
3 667 662 668
3 664 662 667
3 667 592 659
3 597 668 593
3 593 668 662
3 671 670 669
3 665 671 669
3 599 665 669
3 595 665 599
3 666 668 672
3 666 672 673
3 600 672 597
3 597 672 668
3 669 670 674
3 674 670 675
3 674 602 599
3 674 599 669
3 673 672 676
3 673 676 677
3 603 676 600
3 600 676 672
3 674 675 606
3 675 605 606
3 675 678 605
3 602 674 606
3 681 680 679
3 680 681 677
3 680 677 676
3 607 680 676
3 609 607 676
3 609 676 603
3 678 611 605
3 682 611 678
3 679 680 683
3 679 683 684
3 613 683 607
3 607 683 680
3 682 615 611
3 685 615 682
3 684 683 686
3 684 686 687
3 616 686 613
3 613 686 683
3 685 618 615
3 688 618 685
3 687 686 689
3 687 689 690
3 619 689 616
3 616 689 686
3 688 621 618
3 691 621 688
3 690 689 624
3 625 690 624
3 692 690 625
3 624 689 619
3 691 627 621
3 693 627 691
3 628 695 694
3 692 628 694
3 625 628 692
3 695 696 694
3 693 697 627
3 627 697 630
3 697 698 630
3 697 628 698
3 628 697 695
3 699 695 697
3 695 699 631
3 698 631 699
3 699 632 698
3 698 632 630
3 628 631 698
3 631 633 695
3 633 696 695
3 633 700 696
3 699 634 632
3 701 634 699
3 635 703 702
3 700 635 702
3 633 635 700
3 703 704 702
3 706 636 705
3 636 701 705
3 636 634 701
3 635 637 703
3 706 705 707
3 637 639 703
3 639 704 703
3 639 708 704
3 706 640 636
3 710 709 642
3 710 642 640
3 707 710 640
3 706 707 640
3 710 708 709
3 708 643 709
3 708 639 643
3 709 644 642
3 644 709 643
3 711 647 648
3 649 711 648
3 711 650 647
3 650 711 649
3 712 652 653
3 654 712 653
3 712 655 652
3 655 712 654
3 715 714 713
3 713 656 715
3 656 657 715
3 717 716 715
3 717 715 657
3 658 717 657
3 713 714 661
3 714 660 661
3 714 718 660
3 713 661 656
3 664 717 663
3 717 664 716
3 719 716 664
3 663 717 658
3 722 721 720
3 725 724 723
3 722 720 718
3 665 718 720
3 718 665 660
3 724 719 723
3 719 666 723
3 719 664 666
3 720 721 671
3 721 670 671
3 721 726 670
3 725 728 727
3 728 720 727
3 671 727 720
3 727 671 729
3 665 729 671
3 729 665 728
3 728 723 729
3 725 723 728
3 728 665 720
3 673 729 666
3 666 729 723
3 726 675 670
3 730 675 726
3 727 729 731
3 727 731 732
3 677 731 673
3 673 731 729
3 734 678 733
3 678 730 733
3 678 675 730
3 734 733 732
3 734 732 731
3 679 734 731
3 681 679 731
3 681 731 677
3 736 735 734
3 735 678 734
3 735 682 678
3 734 679 736
3 679 737 736
3 679 684 737
3 735 685 682
3 738 685 735
3 687 737 684
3 687 739 737
3 738 688 685
3 740 688 738
3 690 739 687
3 690 741 739
3 740 691 688
3 742 691 740
3 692 741 690
3 692 743 741
3 745 693 744
3 693 742 744
3 693 691 742
3 746 745 694
3 745 743 694
3 743 692 694
3 743 745 744
3 696 746 694
3 745 697 693
3 697 745 699
3 745 747 699
3 745 746 747
3 700 747 696
3 696 747 746
3 748 701 747
3 747 701 699
3 702 749 700
3 749 747 700
3 749 748 747
3 704 749 702
3 748 705 701
3 705 748 707
3 748 750 707
3 748 749 750
3 708 750 704
3 704 750 749
3 750 710 707
3 710 750 708
3 751 714 715
3 716 751 715
3 753 752 751
3 752 714 751
3 752 718 714
3 751 716 753
3 716 754 753
3 716 719 754
3 756 755 722
3 722 755 721
3 724 725 757
3 758 757 725
3 752 722 718
3 722 752 756
3 719 724 754
3 754 724 757
3 755 726 721
3 759 726 755
3 727 758 725
3 727 760 758
3 759 730 726
3 761 730 759
3 732 760 727
3 732 762 760
3 733 730 763
3 730 764 763
3 730 761 764
3 763 765 733
3 765 732 733
3 765 762 732
3 763 764 736
3 764 735 736
3 764 766 735
3 736 737 763
3 737 765 763
3 737 767 765
3 769 738 768
3 738 766 768
3 738 735 766
3 768 767 769
3 767 739 769
3 767 737 739
3 770 740 769
3 769 740 738
3 741 770 739
3 739 770 769
3 771 742 770
3 770 742 740
3 743 771 741
3 741 771 770
3 771 744 742
3 744 771 743
3 772 752 753
3 754 772 753
3 773 755 756
3 756 752 773
3 752 772 773
3 757 758 773
3 757 773 772
3 757 772 754
3 774 759 773
3 773 759 755
3 760 774 758
3 758 774 773
3 775 761 774
3 774 761 759
3 762 775 760
3 760 775 774
3 776 764 775
3 775 764 761
3 765 776 762
3 762 776 775
3 777 766 776
3 776 766 764
3 767 777 765
3 765 777 776
3 777 768 766
3 768 777 767
