ply
format ascii 1.0
comment None
element vertex 561
property float x
property float y
property float z
element face 1178
property list uchar int vertex_indices
end_header
39.568 73.067 52.225
39.625 73.348 51.983
39.732 72.911 52.216
39.782 72.857 52.546
39.603 73.369 52.167
39.202 75.367 50.760
39.159 75.499 50.557
39.427 74.778 51.090
39.571 74.949 51.244
39.150 76.153 50.209
39.231 76.536 49.826
39.209 75.938 50.186
39.344 75.615 50.701
39.407 76.054 50.419
39.141 76.985 49.588
39.243 77.553 49.175
39.278 77.067 49.516
39.292 77.034 49.711
39.436 76.628 50.136
39.248 77.774 49.079
39.245 78.219 48.637
39.648 77.646 49.408
39.668 77.165 49.794
39.211 78.851 48.162
39.108 79.413 47.475
39.261 78.794 48.069
39.512 78.321 48.822
39.599 78.908 48.435
39.051 80.292 46.563
39.326 80.645 46.217
39.311 80.290 46.372
39.108 79.914 46.886
39.027 79.966 47.115
39.320 79.543 47.688
39.314 80.057 47.291
39.063 80.572 46.523
39.447 80.905 46.274
39.002 80.556 46.765
39.092 80.431 47.013
39.302 80.889 46.568
40.074 67.270 55.792
40.061 67.190 55.698
40.139 66.993 55.868
40.286 67.079 55.967
40.000 67.677 55.485
40.085 68.127 55.161
40.254 67.525 55.471
40.166 67.896 55.635
40.423 67.466 55.952
40.023 68.618 55.088
40.104 68.995 54.698
40.417 68.679 55.456
40.669 68.087 55.884
39.947 69.853 54.352
40.072 70.381 53.808
40.126 69.781 54.185
40.224 69.393 54.821
40.114 69.998 54.469
39.897 71.030 53.710
40.207 70.983 53.328
39.962 70.667 54.182
39.979 71.859 52.998
40.305 71.837 52.697
40.413 71.428 52.905
39.892 71.976 53.478
40.069 71.482 53.974
39.950 73.104 51.981
40.215 72.440 52.358
39.853 72.499 53.077
40.071 72.634 53.384
40.313 72.311 53.785
39.631 74.041 51.738
39.883 73.905 51.571
39.997 73.766 52.333
40.194 73.229 53.001
39.473 75.310 50.661
39.836 74.611 51.083
40.045 74.419 51.722
40.093 74.899 51.466
39.505 76.259 49.866
39.632 75.715 50.224
39.254 75.660 50.456
39.644 75.924 50.671
39.979 75.675 51.159
39.494 77.411 49.378
39.688 77.006 49.585
40.183 76.330 50.949
40.121 76.806 50.490
39.521 78.052 48.810
39.800 77.542 49.253
39.858 77.432 49.607
40.261 77.831 49.566
40.248 77.431 49.864
39.372 79.340 47.505
39.631 78.606 48.155
39.408 78.462 48.499
39.762 78.584 48.772
40.100 78.416 49.247
39.654 80.618 46.015
39.732 80.333 46.113
39.535 79.827 46.805
39.208 79.681 47.250
39.515 79.823 47.557
39.930 79.704 48.236
40.387 79.220 48.977
40.056 80.981 45.966
40.211 80.643 45.753
39.215 80.764 46.852
39.528 80.659 47.211
40.013 80.367 47.824
40.035 81.178 46.408
39.793 81.042 46.888
40.356 67.099 55.776
40.400 66.991 55.960
40.823 67.281 56.057
40.554 68.170 55.050
40.980 67.495 55.539
40.980 67.728 56.089
40.539 69.124 54.602
41.401 68.298 56.046
40.995 68.718 55.775
40.637 70.285 53.574
40.391 69.704 54.284
40.152 69.497 54.500
40.460 69.885 54.727
40.943 69.473 55.341
40.633 70.994 53.079
41.177 70.444 55.003
40.449 70.862 54.479
40.763 71.733 52.560
40.761 71.286 52.831
40.728 71.855 54.242
40.622 73.130 51.766
40.946 72.348 52.112
41.119 72.595 54.012
40.779 73.089 53.543
40.458 74.099 51.438
40.896 73.689 53.205
40.748 74.043 52.786
41.105 75.225 46.557
41.267 75.086 46.364
41.246 74.881 46.662
41.219 75.005 46.895
40.280 74.883 50.490
40.297 74.542 51.211
40.050 74.396 51.431
40.453 74.768 51.710
40.650 74.522 52.242
41.064 75.804 46.176
41.301 75.891 45.645
41.256 75.421 46.020
41.063 75.564 46.794
40.982 76.045 46.544
40.136 76.233 49.491
40.457 75.364 49.757
41.203 75.269 52.049
40.669 75.550 51.611
41.125 76.843 45.418
41.429 76.822 44.828
41.330 76.379 45.238
40.980 76.563 46.212
40.995 77.095 45.854
40.261 77.169 49.453
40.587 76.722 50.964
40.869 76.395 51.294
41.363 77.545 44.583
41.658 77.856 44.038
41.580 77.327 44.314
41.222 77.786 44.925
41.062 77.627 45.535
39.992 77.952 48.460
40.301 77.518 49.083
40.089 77.417 49.500
40.726 77.866 49.797
41.054 77.658 50.377
41.286 77.181 50.938
41.577 78.443 44.243
41.222 78.281 45.045
39.907 79.071 47.147
40.148 78.397 47.613
41.662 78.414 50.175
41.094 78.830 49.649
40.231 80.123 45.928
40.243 79.513 46.343
41.239 79.675 49.328
40.969 80.187 48.733
40.982 80.990 45.483
40.817 80.469 45.418
40.852 80.786 48.088
40.332 80.977 47.466
41.174 81.426 46.053
40.902 81.351 46.947
42.068 66.061 51.243
42.074 66.324 50.893
42.188 65.877 51.216
42.205 65.713 51.516
42.230 65.944 51.688
42.421 65.812 51.910
42.017 66.835 50.875
42.208 67.158 50.556
42.184 66.618 51.539
42.570 66.349 52.329
40.761 67.146 55.910
42.004 67.916 50.389
42.104 68.468 49.952
42.250 67.768 50.265
42.058 67.545 50.981
42.279 67.422 51.584
42.448 66.977 52.213
41.719 68.125 54.705
41.918 67.618 55.549
41.448 67.429 55.930
41.738 67.814 56.120
41.956 69.253 49.971
42.323 69.295 49.583
41.992 68.685 50.620
42.274 68.126 51.118
41.222 69.326 53.954
41.819 69.323 53.356
41.932 68.678 53.776
42.287 68.496 56.038
41.746 69.052 55.806
42.004 70.261 49.409
42.109 70.672 48.860
42.179 70.139 49.041
41.900 70.145 49.874
41.953 69.979 50.410
42.111 69.291 51.099
41.483 70.077 53.185
41.828 70.624 52.479
41.960 69.773 52.790
41.952 69.921 55.439
42.104 71.339 49.069
42.301 71.140 48.504
42.008 70.956 49.891
42.046 70.886 50.578
42.065 70.320 51.025
41.198 71.038 52.785
41.753 71.376 52.248
42.159 70.770 55.051
41.397 71.349 54.670
42.235 72.152 48.428
42.513 72.265 47.690
42.427 71.449 48.220
42.187 72.104 49.046
42.201 72.058 49.658
42.158 71.682 50.438
41.415 71.854 52.209
41.550 72.611 51.605
41.871 71.909 51.815
41.643 72.131 54.364
42.144 73.154 47.630
42.204 73.524 46.929
42.545 72.847 47.216
42.095 73.169 48.439
42.223 72.792 49.160
42.332 72.771 49.845
42.293 72.408 50.281
41.320 73.498 51.211
41.927 72.647 54.096
41.792 73.112 53.764
41.639 74.400 46.924
42.160 74.127 46.404
41.788 74.022 48.039
41.952 73.772 49.076
42.263 73.333 49.768
41.087 74.190 50.735
41.778 74.000 50.273
41.779 73.710 50.706
41.396 74.157 53.071
41.697 73.753 53.386
41.711 75.047 45.987
42.361 75.203 45.561
42.305 74.600 45.987
41.262 75.165 47.636
41.493 74.594 48.654
42.003 73.870 49.834
41.309 74.530 49.711
42.036 74.298 53.054
41.716 74.754 52.593
41.796 75.978 45.167
42.371 76.242 44.623
42.444 75.584 45.183
40.986 76.325 47.035
40.946 76.087 47.977
40.917 75.515 48.841
42.158 75.643 52.067
41.586 76.089 51.716
41.858 76.797 44.454
41.950 77.490 43.904
42.346 76.888 44.111
40.961 77.289 46.312
40.861 77.181 47.105
40.824 76.784 47.710
40.592 76.702 48.632
41.900 76.852 51.355
42.096 78.281 43.447
41.012 78.287 45.792
40.829 77.840 46.696
40.553 77.640 47.742
42.220 77.424 51.030
42.132 77.962 50.607
42.178 79.055 43.374
42.611 79.023 42.700
42.450 78.770 42.936
41.774 79.293 44.110
41.316 79.022 44.927
40.997 78.976 45.647
40.605 78.705 46.540
42.505 78.701 50.165
42.074 79.083 49.917
42.553 79.323 43.024
42.154 79.838 43.849
42.693 79.880 43.630
41.602 79.755 44.554
40.957 79.696 45.466
41.557 80.059 49.275
41.945 79.735 49.509
42.408 80.475 44.134
41.699 80.543 44.784
42.490 81.052 44.664
41.187 81.155 47.721
41.774 80.800 48.401
41.824 80.300 49.086
41.966 81.346 45.303
42.429 81.769 45.906
41.893 81.617 46.601
42.050 81.335 47.459
42.287 66.382 50.913
42.456 66.023 51.360
42.456 65.796 51.694
42.827 66.152 52.374
42.443 67.130 50.609
43.137 66.700 53.242
42.760 67.198 53.219
43.235 67.102 54.008
42.811 67.505 54.350
43.328 67.361 54.646
42.350 68.252 49.990
42.365 67.640 50.235
42.356 67.462 50.382
42.510 67.573 50.629
42.437 67.755 50.787
42.578 67.869 50.562
42.462 67.746 52.307
42.680 67.865 51.162
42.527 67.869 53.085
42.402 67.974 53.734
42.802 67.665 55.223
42.363 67.717 55.877
42.609 68.080 56.045
42.707 68.703 50.063
42.789 69.181 49.832
42.725 68.120 51.096
42.986 69.003 50.163
42.415 67.867 51.407
42.393 68.462 51.610
42.254 68.723 52.860
43.002 68.475 55.845
42.791 69.239 55.609
42.330 70.631 48.593
42.500 70.009 49.129
42.802 69.637 49.604
42.903 70.149 49.430
43.136 69.436 50.155
42.135 69.992 51.875
42.772 70.153 55.268
42.393 71.071 48.283
42.435 71.381 47.991
42.372 70.954 48.222
42.786 70.956 48.706
42.830 70.814 48.829
42.669 71.114 48.396
43.189 70.006 49.928
43.007 70.874 49.092
42.131 71.132 51.148
42.050 71.265 51.802
43.013 70.691 54.850
42.514 71.518 54.550
42.592 71.972 47.603
42.695 71.440 48.420
42.549 71.068 48.433
42.673 71.194 48.584
43.069 71.194 49.147
42.128 72.205 51.067
42.407 72.274 54.242
43.081 71.907 54.043
42.761 72.679 53.743
42.560 73.386 46.637
42.618 72.602 47.143
42.646 72.448 47.369
42.828 72.543 47.671
42.875 73.031 47.500
42.778 72.893 47.163
43.045 71.657 48.950
43.049 72.907 48.012
42.302 72.965 50.375
41.987 73.138 50.901
42.593 73.466 53.396
42.600 74.140 46.110
42.780 74.272 45.869
42.718 73.839 46.195
42.903 73.750 46.844
42.835 73.363 46.700
42.841 73.957 46.297
43.102 73.970 47.525
43.194 73.524 48.156
42.149 73.551 50.322
42.482 74.031 53.171
43.063 73.810 52.932
42.768 74.466 52.645
42.639 75.173 45.400
42.617 75.440 45.100
42.761 74.835 45.499
42.727 74.740 45.961
42.741 75.050 45.419
42.790 74.414 45.839
43.032 74.675 46.952
43.221 74.718 47.685
43.301 74.350 48.155
42.652 75.176 52.257
42.599 76.077 44.554
42.653 75.647 45.072
42.650 75.198 45.467
42.680 75.627 45.451
42.982 75.665 46.393
43.207 75.462 47.436
42.902 75.698 51.797
42.577 76.402 51.518
42.426 77.642 43.404
42.504 76.810 44.001
42.507 76.547 44.255
42.597 76.372 44.427
42.659 76.632 44.577
42.610 76.947 44.002
42.936 76.678 45.551
43.104 76.566 46.454
43.194 76.232 47.108
42.597 77.117 51.190
43.038 76.861 50.979
42.865 77.568 50.659
42.568 78.418 42.809
42.755 78.453 42.452
42.630 78.162 42.783
42.781 77.767 43.684
42.716 77.568 43.406
42.773 78.167 42.967
42.942 77.718 44.620
43.086 77.610 45.483
43.140 77.236 46.145
42.849 78.244 50.298
42.814 78.907 42.308
42.854 78.849 42.159
42.847 78.736 42.198
42.759 78.844 42.893
42.836 78.808 42.295
42.787 78.543 42.476
42.922 78.499 43.851
43.063 78.683 44.491
43.135 78.326 45.142
43.027 78.681 49.833
42.737 79.371 49.553
42.782 78.956 42.393
42.993 79.453 44.011
42.944 80.158 44.022
42.531 80.265 48.959
43.093 79.798 48.836
43.051 80.369 48.418
42.813 80.603 44.211
42.949 81.091 44.742
42.651 80.870 48.163
43.132 80.695 47.810
42.855 81.166 47.429
42.814 81.597 45.263
43.006 81.957 45.678
43.176 81.810 45.575
43.005 81.916 45.984
42.749 81.584 46.615
43.194 81.965 45.788
42.671 66.596 51.272
42.855 66.283 51.949
42.803 67.397 51.080
43.210 67.105 52.039
43.403 66.908 53.047
43.545 67.177 54.113
42.612 67.872 50.423
43.368 68.122 51.828
43.761 67.885 53.110
43.786 67.782 54.189
43.519 67.707 54.959
43.119 68.003 55.658
43.211 68.818 50.897
43.860 69.150 52.215
44.005 68.918 53.111
43.952 68.760 54.152
43.549 68.532 55.165
42.716 70.517 48.956
43.610 70.167 50.870
43.939 69.979 52.050
44.083 69.914 53.110
44.017 69.671 53.935
43.535 69.749 54.830
42.552 71.071 48.268
43.297 70.846 49.819
43.849 71.194 51.218
43.985 71.003 52.114
44.025 70.748 52.964
43.631 70.820 54.028
42.748 71.865 48.000
43.489 72.049 49.882
43.820 71.973 51.047
43.917 71.984 52.122
43.684 71.793 53.205
42.730 72.731 47.106
43.219 72.722 48.829
43.671 73.172 50.222
43.806 72.978 51.100
43.848 72.771 51.921
43.460 72.960 52.863
42.788 73.801 46.236
43.469 74.359 49.026
43.643 74.070 50.053
43.724 74.007 51.081
43.551 73.761 52.125
42.760 74.921 45.402
43.405 75.268 48.439
43.566 75.414 49.389
43.619 75.144 50.095
43.639 74.870 50.853
43.333 74.917 51.757
42.688 75.803 44.775
43.376 76.398 48.129
43.502 76.196 49.240
43.555 75.958 50.019
43.348 75.915 50.968
42.621 76.903 43.881
43.308 77.267 47.211
43.431 77.335 48.313
43.447 77.120 49.123
43.366 76.855 50.169
42.713 78.031 42.861
43.291 78.301 46.197
43.416 78.284 47.299
43.432 78.060 48.113
43.432 77.872 48.892
43.264 77.935 49.769
42.829 78.657 42.279
43.253 79.431 45.210
43.413 79.391 46.250
43.444 79.086 47.064
43.447 78.822 47.887
43.303 78.833 48.914
43.120 80.428 44.621
43.332 80.521 45.369
43.410 80.215 46.044
43.446 79.899 46.824
43.357 79.834 47.876
43.213 81.250 45.305
43.368 80.965 45.888
43.276 80.824 46.831
43.226 81.596 45.987
3 2 1 0
3 0 3 2
3 1 4 0
3 0 4 3
3 7 6 5
3 5 8 7
3 11 10 9
3 13 12 9
3 12 5 9
3 6 11 9
3 6 9 5
3 5 12 8
3 16 15 14
3 16 14 10
3 14 9 10
3 14 17 9
3 13 9 18
3 18 9 17
3 14 15 19
3 19 15 20
3 22 17 21
3 17 19 21
3 17 14 19
3 17 22 18
3 25 24 23
3 27 26 23
3 26 19 23
3 20 25 23
3 20 23 19
3 19 26 21
3 30 29 28
3 32 31 28
3 28 31 30
3 34 33 32
3 33 23 32
3 24 31 32
3 24 32 23
3 23 33 27
3 28 29 35
3 35 29 36
3 38 32 37
3 32 35 37
3 32 28 35
3 32 38 34
3 36 39 35
3 35 39 37
3 42 41 40
3 40 43 42
3 46 45 44
3 46 44 41
3 44 40 41
3 44 47 40
3 43 40 48
3 48 40 47
3 44 45 49
3 49 45 50
3 52 47 51
3 47 49 51
3 47 44 49
3 47 52 48
3 55 54 53
3 57 56 53
3 56 49 53
3 50 55 53
3 50 53 49
3 49 56 51
3 53 54 58
3 58 54 59
3 57 53 60
3 60 53 58
3 63 62 61
3 63 61 59
3 61 58 59
3 61 64 58
3 60 58 65
3 65 58 64
3 67 66 2
3 2 66 1
3 68 61 3
3 61 67 3
3 67 2 3
3 61 62 67
3 70 64 69
3 64 68 69
3 64 61 68
3 64 70 65
3 4 1 71
3 1 72 71
3 1 66 72
3 71 73 4
3 4 73 3
3 73 74 3
3 74 68 3
3 68 74 69
3 76 75 7
3 7 75 6
3 7 72 76
3 72 7 71
3 8 71 7
3 71 8 77
3 78 77 8
3 71 77 73
3 80 79 11
3 11 79 10
3 75 81 6
3 75 12 81
3 12 75 82
3 80 82 75
3 82 80 13
3 81 13 80
3 80 11 81
3 81 11 6
3 12 13 81
3 82 83 12
3 83 8 12
3 83 78 8
3 84 15 16
3 85 84 16
3 10 85 16
3 79 85 10
3 87 86 82
3 13 87 82
3 18 87 13
3 82 86 83
3 89 88 84
3 88 15 84
3 88 20 15
3 91 90 21
3 90 89 21
3 84 21 89
3 21 84 22
3 85 22 84
3 22 85 90
3 90 92 22
3 91 92 90
3 90 85 89
3 18 22 87
3 87 22 92
3 94 93 25
3 25 93 24
3 88 95 20
3 88 26 95
3 26 88 96
3 94 96 88
3 96 94 27
3 95 27 94
3 94 25 95
3 95 25 20
3 26 27 95
3 96 97 26
3 97 21 26
3 97 91 21
3 98 29 30
3 98 30 99
3 30 100 99
3 30 31 100
3 93 101 24
3 93 33 101
3 33 93 102
3 100 102 93
3 102 100 34
3 101 34 100
3 100 31 101
3 101 31 24
3 33 34 101
3 102 103 33
3 33 103 27
3 103 104 27
3 104 96 27
3 96 104 97
3 106 105 98
3 105 29 98
3 105 36 29
3 38 37 107
3 98 99 106
3 107 108 38
3 38 108 34
3 108 109 34
3 109 102 34
3 102 109 103
3 105 110 36
3 36 110 39
3 37 39 107
3 39 111 107
3 39 110 111
3 107 111 108
3 113 112 42
3 42 112 41
3 42 43 113
3 113 43 114
3 116 115 46
3 46 115 45
3 46 41 112
3 46 112 116
3 48 114 43
3 48 117 114
3 115 50 45
3 118 50 115
3 120 119 52
3 120 52 51
3 48 52 117
3 117 52 119
3 122 121 55
3 55 121 54
3 118 123 50
3 118 56 123
3 56 118 124
3 122 124 118
3 124 122 57
3 123 57 122
3 122 55 123
3 123 55 50
3 56 57 123
3 124 125 56
3 125 51 56
3 125 120 51
3 121 59 54
3 126 59 121
3 128 127 124
3 57 128 124
3 60 128 57
3 124 127 125
3 130 129 63
3 63 129 62
3 63 59 126
3 63 126 130
3 65 128 60
3 65 131 128
3 133 132 67
3 67 132 66
3 67 62 129
3 67 129 133
3 135 134 70
3 135 70 69
3 65 70 131
3 131 70 134
3 132 72 66
3 136 72 132
3 138 137 74
3 138 74 73
3 69 74 135
3 135 74 137
3 141 140 139
3 139 142 141
3 144 143 76
3 76 143 75
3 136 145 72
3 136 77 145
3 77 136 146
3 144 146 136
3 146 144 78
3 145 78 144
3 144 76 145
3 145 76 72
3 77 78 145
3 146 147 77
3 147 73 77
3 147 138 73
3 150 149 148
3 152 151 148
3 151 139 148
3 140 150 148
3 140 148 139
3 139 151 142
3 154 153 80
3 80 153 79
3 80 75 143
3 80 143 154
3 156 155 146
3 78 156 146
3 83 156 78
3 146 155 147
3 159 158 157
3 161 160 157
3 160 148 157
3 149 159 157
3 149 157 148
3 148 160 152
3 153 85 79
3 162 85 153
3 87 163 86
3 163 164 86
3 164 83 86
3 164 156 83
3 167 166 165
3 167 165 158
3 165 157 158
3 165 168 157
3 161 157 169
3 169 157 168
3 171 170 89
3 89 170 88
3 162 172 85
3 162 92 172
3 92 162 173
3 171 173 162
3 173 171 91
3 172 91 171
3 171 89 172
3 172 89 85
3 92 91 172
3 173 174 92
3 92 174 87
3 174 175 87
3 175 163 87
3 163 175 164
3 166 176 165
3 165 176 168
3 168 176 177
3 168 177 169
3 179 178 94
3 94 178 93
3 94 88 170
3 94 170 179
3 181 180 173
3 91 181 173
3 97 181 91
3 173 180 174
3 183 182 100
3 100 182 99
3 100 93 178
3 100 178 183
3 185 184 104
3 185 104 103
3 97 104 181
3 181 104 184
3 187 186 106
3 106 186 105
3 106 99 182
3 106 182 187
3 189 188 109
3 189 109 108
3 103 109 185
3 185 109 188
3 186 190 105
3 105 190 110
3 110 191 111
3 190 191 110
3 108 111 189
3 189 111 191
3 194 193 192
3 196 195 192
3 192 195 194
3 196 197 195
3 192 193 198
3 198 193 199
3 192 200 196
3 192 198 200
3 197 196 201
3 201 196 200
3 202 112 113
3 114 202 113
3 205 204 203
3 205 203 199
3 203 198 199
3 203 206 198
3 208 200 207
3 200 206 207
3 200 198 206
3 200 208 201
3 210 209 116
3 116 209 115
3 116 112 202
3 211 116 202
3 210 116 211
3 202 114 211
3 114 212 211
3 114 117 212
3 203 204 213
3 213 204 214
3 203 215 206
3 203 213 215
3 207 206 216
3 216 206 215
3 219 218 217
3 209 219 217
3 118 209 217
3 115 209 118
3 221 220 119
3 221 119 120
3 117 119 212
3 212 119 220
3 224 223 222
3 224 222 214
3 222 213 214
3 222 225 213
3 213 226 215
3 213 225 226
3 216 215 227
3 227 215 226
3 230 229 228
3 230 228 218
3 218 228 217
3 228 121 217
3 121 122 217
3 217 122 118
3 125 221 120
3 125 231 221
3 222 223 232
3 232 223 233
3 222 234 225
3 222 232 234
3 236 226 235
3 226 234 235
3 226 225 234
3 226 236 227
3 228 229 237
3 237 229 238
3 237 126 121
3 237 121 228
3 240 239 127
3 240 127 128
3 125 127 231
3 231 127 239
3 243 242 241
3 243 241 233
3 241 232 233
3 241 244 232
3 232 245 234
3 232 244 245
3 235 234 246
3 246 234 245
3 249 248 247
3 249 247 238
3 238 247 237
3 247 129 237
3 129 130 237
3 237 130 126
3 131 240 128
3 131 250 240
3 253 252 251
3 253 251 242
3 251 241 242
3 251 254 241
3 241 255 244
3 241 254 255
3 257 245 256
3 245 255 256
3 245 244 255
3 245 257 246
3 247 248 133
3 248 132 133
3 248 258 132
3 247 133 129
3 260 259 134
3 260 134 135
3 131 134 250
3 250 134 259
3 251 252 261
3 261 252 262
3 251 263 254
3 251 261 263
3 254 264 255
3 254 263 264
3 256 255 265
3 265 255 264
3 268 267 266
3 258 268 266
3 136 258 266
3 132 258 136
3 138 269 137
3 269 270 137
3 270 135 137
3 270 260 135
3 273 272 271
3 273 271 262
3 262 271 261
3 271 140 261
3 140 141 261
3 261 141 142
3 274 261 142
3 263 261 274
3 263 275 264
3 263 274 275
3 265 264 276
3 264 277 276
3 264 275 277
3 276 277 267
3 267 277 266
3 277 143 266
3 143 144 266
3 266 144 136
3 279 278 269
3 138 279 269
3 147 279 138
3 269 278 270
3 282 281 280
3 282 280 272
3 272 280 271
3 280 149 271
3 149 150 271
3 140 271 150
3 151 152 283
3 274 142 151
3 283 274 151
3 284 274 283
3 274 285 275
3 274 284 285
3 285 153 154
3 277 285 154
3 275 285 277
3 277 154 143
3 287 286 155
3 287 155 156
3 147 155 279
3 279 155 286
3 290 289 288
3 290 288 281
3 281 288 280
3 288 158 280
3 158 159 280
3 149 280 159
3 160 161 291
3 283 152 160
3 291 283 160
3 292 283 291
3 283 293 284
3 283 292 293
3 284 294 285
3 284 293 294
3 294 162 153
3 294 153 285
3 164 287 156
3 164 295 287
3 288 289 167
3 289 166 167
3 289 296 166
3 288 167 158
3 169 297 291
3 169 291 161
3 291 298 292
3 291 297 298
3 292 299 293
3 292 298 299
3 299 170 171
3 294 299 171
3 293 299 294
3 294 171 162
3 301 300 175
3 301 175 174
3 164 175 295
3 295 175 300
3 304 303 302
3 302 305 176
3 296 302 176
3 166 296 176
3 302 296 304
3 306 177 176
3 306 176 305
3 297 169 177
3 306 297 177
3 307 297 306
3 297 308 298
3 297 307 308
3 308 178 179
3 299 308 179
3 298 308 299
3 299 179 170
3 310 309 180
3 310 180 181
3 174 180 301
3 301 180 309
3 303 311 302
3 313 312 311
3 312 302 311
3 312 305 302
3 305 314 306
3 305 312 314
3 306 315 307
3 306 314 315
3 315 182 183
3 308 315 183
3 307 315 308
3 308 183 178
3 185 316 184
3 316 317 184
3 317 181 184
3 317 310 181
3 313 318 312
3 320 319 318
3 319 312 318
3 319 314 312
3 319 186 187
3 315 319 187
3 314 319 315
3 315 187 182
3 189 321 188
3 321 322 188
3 188 322 185
3 322 323 185
3 323 316 185
3 316 323 317
3 320 324 319
3 319 324 186
3 324 190 186
3 324 325 190
3 190 326 191
3 325 326 190
3 189 191 321
3 191 327 321
3 191 326 327
3 321 327 322
3 329 328 194
3 194 328 193
3 330 194 195
3 330 329 194
3 195 197 330
3 330 197 331
3 328 199 193
3 332 199 328
3 201 334 333
3 331 201 333
3 197 201 331
3 336 335 334
3 334 335 333
3 336 337 335
3 339 338 205
3 205 338 204
3 332 340 199
3 340 341 199
3 342 199 341
3 199 342 205
3 343 205 342
3 205 343 340
3 340 339 205
3 332 339 340
3 340 343 341
3 344 208 207
3 345 342 341
3 334 201 208
3 344 334 208
3 346 334 344
3 334 347 336
3 334 346 347
3 210 348 209
3 348 336 209
3 336 347 209
3 336 348 337
3 349 210 211
3 349 348 210
3 211 212 349
3 349 212 350
3 352 214 351
3 214 338 351
3 214 204 338
3 343 342 353
3 351 354 352
3 216 355 207
3 216 342 355
3 342 216 353
3 356 353 216
3 353 356 345
3 355 345 356
3 356 344 355
3 355 344 207
3 342 345 355
3 344 357 346
3 344 356 357
3 357 218 219
3 347 357 219
3 346 357 347
3 347 219 209
3 359 358 220
3 359 220 221
3 212 220 350
3 350 220 358
3 361 360 224
3 224 360 223
3 361 224 214
3 362 361 214
3 352 362 214
3 361 362 363
3 352 354 364
3 352 364 362
3 227 365 356
3 227 356 216
3 365 229 230
3 357 365 230
3 356 365 357
3 357 230 218
3 231 359 221
3 231 366 359
3 369 368 367
3 372 371 370
3 369 367 360
3 233 360 367
3 360 233 223
3 363 362 373
3 371 374 370
3 236 235 375
3 362 364 373
3 365 227 236
3 375 365 236
3 376 365 375
3 376 238 229
3 376 229 365
3 378 377 239
3 378 239 240
3 231 239 366
3 366 239 377
3 367 368 243
3 368 242 243
3 368 379 242
3 372 381 380
3 381 367 380
3 243 380 367
3 380 243 382
3 233 382 243
3 382 233 381
3 381 370 382
3 372 370 381
3 381 233 367
3 370 374 383
3 370 383 382
3 246 384 375
3 246 375 235
3 384 248 249
3 376 384 249
3 375 384 376
3 376 249 238
3 387 386 385
3 386 378 385
3 378 250 385
3 378 240 250
3 389 388 253
3 253 388 252
3 379 390 242
3 390 391 242
3 392 242 391
3 242 392 253
3 393 253 392
3 253 393 390
3 390 389 253
3 379 389 390
3 390 393 391
3 380 382 394
3 391 395 392
3 257 256 396
3 382 383 394
3 384 246 257
3 396 384 257
3 397 384 396
3 397 258 248
3 397 248 384
3 387 385 259
3 260 387 259
3 398 387 260
3 259 385 250
3 401 400 399
3 404 403 402
3 401 399 388
3 262 388 399
3 388 262 252
3 402 403 393
3 392 402 393
3 405 402 392
3 392 395 406
3 392 406 405
3 265 407 396
3 265 396 256
3 407 267 268
3 397 407 268
3 396 407 397
3 397 268 258
3 410 409 408
3 409 398 408
3 398 270 408
3 398 260 270
3 413 412 411
3 414 273 399
3 273 414 272
3 411 272 414
3 415 411 414
3 411 415 413
3 416 413 415
3 413 416 400
3 399 400 416
3 414 399 416
3 399 273 262
3 416 404 414
3 402 414 404
3 414 402 417
3 405 419 418
3 417 405 418
3 402 405 417
3 419 405 406
3 276 407 265
3 407 276 267
3 410 408 278
3 279 410 278
3 420 410 279
3 278 408 270
3 411 412 282
3 412 281 282
3 412 421 281
3 415 423 422
3 423 411 422
3 282 422 411
3 422 282 424
3 272 424 282
3 424 272 423
3 423 414 424
3 415 414 423
3 423 272 411
3 425 414 417
3 424 414 425
3 417 418 426
3 417 426 425
3 428 427 286
3 428 286 287
3 279 286 420
3 420 286 427
3 430 429 290
3 290 429 289
3 421 431 281
3 431 432 281
3 433 281 432
3 281 433 290
3 434 290 433
3 290 434 431
3 431 430 290
3 421 430 431
3 431 434 432
3 433 432 422
3 424 433 422
3 435 433 424
3 425 437 436
3 435 425 436
3 424 425 435
3 437 425 426
3 440 439 438
3 439 428 438
3 428 295 438
3 428 287 295
3 443 442 441
3 446 445 444
3 443 441 429
3 296 429 441
3 429 296 289
3 444 445 434
3 433 444 434
3 447 444 433
3 435 449 448
3 447 435 448
3 433 435 447
3 449 435 436
3 440 438 300
3 301 440 300
3 450 440 301
3 300 438 295
3 453 452 451
3 454 304 441
3 304 454 303
3 451 303 454
3 455 451 454
3 451 455 453
3 456 453 455
3 453 456 442
3 441 442 456
3 454 441 456
3 441 304 296
3 456 446 454
3 444 454 446
3 454 444 457
3 447 459 458
3 457 447 458
3 444 447 457
3 459 447 448
3 461 460 309
3 461 309 310
3 301 309 450
3 450 309 460
3 452 462 451
3 455 454 462
3 454 311 462
3 303 451 462
3 303 462 311
3 454 457 463
3 313 454 463
3 464 313 463
3 454 313 311
3 463 457 458
3 467 466 465
3 466 461 465
3 461 317 465
3 461 310 317
3 464 468 313
3 313 468 318
3 320 318 468
3 320 468 469
3 472 471 470
3 470 471 467
3 470 467 465
3 322 470 465
3 323 322 465
3 323 465 317
3 469 473 320
3 320 473 324
3 473 475 474
3 325 473 474
3 324 473 325
3 325 474 476
3 477 325 476
3 326 325 477
3 470 327 472
3 327 477 472
3 327 326 477
3 327 470 322
3 475 478 474
3 474 478 476
3 479 328 329
3 330 480 329
3 329 480 479
3 331 480 330
3 481 332 479
3 479 332 328
3 482 479 480
3 481 479 482
3 333 483 331
3 483 480 331
3 483 482 480
3 335 484 333
3 333 484 483
3 337 484 335
3 485 338 339
3 339 332 485
3 332 481 485
3 341 343 485
3 341 485 481
3 341 481 345
3 481 486 345
3 481 482 486
3 487 482 483
3 486 482 487
3 488 483 484
3 487 483 488
3 348 489 337
3 489 484 337
3 489 488 484
3 349 490 348
3 348 490 489
3 350 490 349
3 485 351 338
3 354 351 491
3 351 485 491
3 343 353 491
3 343 491 485
3 345 486 353
3 486 491 353
3 486 492 491
3 493 486 487
3 492 486 493
3 494 487 488
3 493 487 494
3 495 488 489
3 494 488 495
3 359 495 358
3 495 490 358
3 495 489 490
3 358 490 350
3 496 360 361
3 363 496 361
3 497 364 491
3 491 364 354
3 498 491 492
3 497 491 498
3 499 492 493
3 498 492 499
3 500 493 494
3 499 493 500
3 501 494 495
3 500 494 501
3 366 501 359
3 359 501 495
3 502 368 369
3 369 360 502
3 360 496 502
3 371 372 502
3 371 502 496
3 374 371 503
3 371 496 503
3 363 373 503
3 363 503 496
3 364 497 373
3 497 503 373
3 497 504 503
3 505 497 498
3 504 497 505
3 506 498 499
3 505 498 506
3 507 499 500
3 506 499 507
3 378 507 377
3 507 501 377
3 507 500 501
3 377 501 366
3 508 379 502
3 502 379 368
3 380 508 372
3 372 508 502
3 509 383 503
3 503 383 374
3 510 503 504
3 509 503 510
3 511 504 505
3 510 504 511
3 512 505 506
3 511 505 512
3 387 512 386
3 512 507 386
3 512 506 507
3 386 507 378
3 513 388 389
3 389 379 513
3 379 508 513
3 391 393 513
3 391 513 508
3 395 391 514
3 391 508 514
3 380 394 514
3 380 514 508
3 383 509 394
3 509 514 394
3 509 515 514
3 516 509 510
3 515 509 516
3 517 510 511
3 516 510 517
3 518 511 512
3 517 511 518
3 398 518 387
3 387 518 512
3 519 400 401
3 401 388 519
3 388 513 519
3 403 404 519
3 403 519 513
3 403 513 393
3 520 406 514
3 514 406 395
3 521 514 515
3 520 514 521
3 522 515 516
3 521 515 522
3 523 516 517
3 522 516 523
3 410 523 409
3 523 518 409
3 523 517 518
3 409 518 398
3 524 412 413
3 413 400 524
3 400 519 524
3 416 415 524
3 416 524 519
3 416 519 404
3 525 418 419
3 406 520 419
3 520 525 419
3 520 526 525
3 527 520 521
3 526 520 527
3 528 521 522
3 527 521 528
3 529 522 523
3 528 522 529
3 420 529 410
3 410 529 523
3 530 421 524
3 524 421 412
3 422 530 415
3 415 530 524
3 531 426 525
3 525 426 418
3 532 525 526
3 531 525 532
3 533 526 527
3 532 526 533
3 534 527 528
3 533 527 534
3 428 534 427
3 534 529 427
3 534 528 529
3 427 529 420
3 535 429 430
3 430 421 535
3 421 530 535
3 432 434 535
3 432 535 530
3 432 530 422
3 536 436 437
3 426 531 437
3 531 536 437
3 531 537 536
3 538 531 532
3 537 531 538
3 539 532 533
3 538 532 539
3 440 539 439
3 539 534 439
3 539 533 534
3 439 534 428
3 540 442 443
3 443 429 540
3 429 535 540
3 445 446 540
3 445 540 535
3 445 535 434
3 541 448 449
3 436 536 449
3 536 541 449
3 536 542 541
3 543 536 537
3 542 536 543
3 544 537 538
3 543 537 544
3 545 538 539
3 544 538 545
3 450 545 440
3 440 545 539
3 546 452 453
3 453 442 546
3 442 540 546
3 456 455 546
3 456 546 540
3 456 540 446
3 547 458 459
3 448 541 459
3 541 547 459
3 541 548 547
3 549 541 542
3 548 541 549
3 550 542 543
3 549 542 550
3 551 543 544
3 550 543 551
3 461 551 460
3 551 545 460
3 551 544 545
3 460 545 450
3 546 462 452
3 462 546 455
3 552 464 463
3 458 547 463
3 547 552 463
3 547 553 552
3 554 547 548
3 553 547 554
3 555 548 549
3 554 548 555
3 556 549 550
3 555 549 556
3 467 556 466
3 556 551 466
3 556 550 551
3 466 551 461
3 552 468 464
3 468 552 469
3 552 557 469
3 552 553 557
3 558 553 554
3 557 553 558
3 559 554 555
3 558 554 559
3 472 559 471
3 559 556 471
3 559 555 556
3 471 556 467
3 557 473 469
3 473 557 475
3 557 560 475
3 557 558 560
3 476 560 477
3 560 559 477
3 560 558 559
3 477 559 472
3 560 478 475
3 478 560 476
