ply
format ascii 1.0
comment None
element vertex 415
property float x
property float y
property float z
element face 834
property list uchar int vertex_indices
end_header
53.790 56.237 22.731
53.837 56.400 21.822
54.066 55.730 22.178
54.099 55.657 22.938
53.872 56.186 23.489
54.166 55.893 23.656
53.959 56.261 23.960
54.105 56.251 24.055
53.602 57.245 22.402
53.660 57.212 21.538
53.695 56.804 23.203
53.855 56.846 23.788
54.007 56.554 24.101
53.573 58.222 21.635
53.825 58.593 20.723
53.764 57.656 20.955
53.548 58.315 22.441
53.710 57.826 23.146
54.076 57.692 23.667
54.018 56.935 24.017
53.677 59.329 21.317
53.931 59.647 20.659
53.598 59.170 22.053
53.692 58.996 22.714
53.970 58.820 23.151
53.868 60.054 21.164
54.104 60.381 20.830
53.799 59.965 21.704
53.813 59.800 22.303
53.935 59.582 22.746
54.224 60.567 21.343
54.075 60.303 21.920
54.180 60.098 22.356
54.881 55.053 21.264
55.055 55.243 20.504
55.453 54.808 20.848
55.138 54.876 21.777
54.513 55.226 22.138
54.786 55.051 22.488
54.475 55.410 22.995
54.809 55.321 22.869
54.396 55.724 21.130
54.788 55.762 20.208
54.614 56.029 23.406
54.268 56.162 23.897
54.476 56.404 20.217
54.947 56.784 19.487
54.854 56.111 19.822
53.982 56.773 20.926
54.272 56.766 23.913
54.700 56.964 23.494
54.229 57.593 20.139
54.797 58.031 19.271
54.534 57.748 23.524
54.921 57.573 23.176
54.872 58.435 22.958
54.298 59.014 19.870
54.799 58.940 19.118
54.399 58.712 23.221
54.765 59.363 22.594
54.678 59.912 19.392
55.208 59.935 18.726
55.138 59.236 18.776
54.294 60.222 20.243
54.277 59.572 22.809
54.593 60.009 22.291
54.803 60.863 19.350
55.145 60.771 18.714
54.596 61.044 20.112
54.555 61.081 20.817
54.947 61.068 21.186
54.645 60.467 21.721
54.818 61.517 19.295
54.733 61.998 20.133
54.755 62.361 19.618
54.874 62.033 20.860
55.229 61.865 21.140
54.758 63.022 20.458
54.757 63.176 19.941
54.994 63.090 21.199
55.448 62.942 21.560
54.809 63.657 20.501
54.948 63.778 21.113
55.020 64.218 20.785
55.357 63.665 21.918
55.226 64.010 21.779
55.569 64.247 22.223
55.267 64.477 21.422
55.499 64.547 21.992
55.623 55.004 20.169
56.066 55.103 19.733
56.265 54.659 20.326
55.860 54.725 21.205
55.499 55.089 21.985
56.148 55.080 21.496
55.069 55.069 22.408
55.376 55.696 19.699
56.176 55.624 19.229
55.657 55.794 22.162
56.265 55.844 21.609
55.135 55.584 22.682
55.722 56.410 19.029
56.186 56.888 18.614
56.310 56.175 18.824
55.747 56.792 22.097
56.275 56.740 21.496
55.159 56.646 22.872
55.477 57.396 18.833
56.067 57.824 18.438
55.857 57.845 21.704
56.372 57.337 21.226
56.323 58.094 21.020
55.311 57.758 22.553
55.326 58.407 18.708
55.886 58.929 18.365
55.808 58.933 21.342
56.296 58.846 20.735
55.298 58.804 22.178
55.876 59.930 18.202
55.994 59.702 20.817
55.532 60.575 21.066
55.216 59.809 21.726
55.519 60.870 18.238
56.005 60.993 17.849
56.102 60.330 17.921
55.719 61.425 20.988
55.366 61.829 18.269
55.931 61.935 17.683
55.011 61.667 18.830
56.034 62.404 21.241
55.322 62.961 18.176
55.870 63.137 17.296
54.941 62.836 19.088
56.135 63.472 21.772
55.399 64.217 17.961
55.710 64.189 17.137
55.088 63.968 18.925
54.956 63.972 19.945
55.740 63.852 22.145
55.905 64.382 22.334
55.800 65.024 17.377
56.328 65.201 16.631
56.000 64.650 16.673
55.521 65.189 18.154
55.325 64.963 18.812
55.209 64.753 19.585
55.454 64.991 20.568
55.741 64.982 21.592
55.860 64.723 22.165
56.511 65.712 17.289
55.925 65.734 18.001
56.396 66.095 18.042
55.676 65.717 18.698
55.625 65.591 19.550
55.956 65.782 20.218
56.237 65.564 20.875
56.272 65.127 21.733
56.125 66.165 18.564
55.973 66.112 19.122
56.159 66.153 19.667
56.965 54.949 19.541
57.257 54.289 20.207
56.709 54.551 20.819
56.944 55.020 21.124
56.716 55.708 18.977
56.825 56.342 18.662
57.360 55.680 18.969
56.917 55.875 21.198
56.825 57.184 18.407
56.671 56.688 21.144
57.093 56.339 21.009
56.940 57.178 20.865
56.831 58.102 18.231
56.917 58.180 20.466
56.960 59.093 18.062
56.637 59.127 20.312
56.599 59.830 17.891
56.745 60.332 17.740
57.451 59.733 17.853
56.584 59.970 20.258
57.084 59.374 19.992
57.354 60.034 19.900
56.076 60.292 20.617
56.756 61.070 17.556
56.866 60.516 20.136
56.886 61.166 20.316
56.280 60.803 20.545
56.807 61.990 17.182
56.414 61.643 20.749
56.946 61.820 20.551
56.600 63.015 16.614
57.168 63.101 16.235
57.428 62.415 16.714
56.667 62.283 20.911
56.720 63.084 21.242
56.779 63.868 15.912
57.116 64.156 15.403
57.484 63.637 15.763
56.143 63.929 16.545
56.157 64.161 22.151
56.766 64.200 21.627
56.978 64.632 15.278
57.375 65.076 14.814
57.259 64.557 15.078
56.635 64.847 15.876
56.273 64.654 22.109
56.678 64.938 21.694
57.177 65.284 14.988
57.586 65.637 14.500
57.226 65.497 15.280
57.169 65.566 16.159
57.328 65.791 17.065
56.582 66.307 18.474
57.068 66.044 17.982
56.955 66.278 18.747
56.402 66.057 20.161
57.020 65.890 20.101
56.613 66.273 19.696
56.830 65.392 21.131
57.559 65.759 14.675
56.472 66.350 19.090
57.877 53.926 20.203
57.929 54.235 19.892
58.125 53.824 20.104
58.252 53.890 20.281
58.010 55.081 19.391
57.827 54.298 20.606
57.897 55.065 20.979
57.622 56.549 18.619
58.062 55.818 18.980
57.534 55.780 21.014
58.309 55.619 20.976
57.682 56.362 20.868
57.497 57.440 18.344
57.914 57.304 20.510
57.829 58.193 18.239
57.489 58.070 20.172
58.010 57.962 20.144
57.726 58.431 19.979
58.347 59.136 18.131
57.223 58.696 20.053
57.852 59.224 19.848
57.763 60.446 17.686
58.338 59.869 17.919
57.963 59.968 19.765
57.585 61.176 17.427
57.320 60.771 20.008
58.019 60.751 19.819
57.963 61.696 17.178
57.539 61.628 20.178
58.425 61.913 19.835
57.918 62.889 16.338
58.412 62.248 16.872
57.938 62.711 20.266
58.712 63.133 19.758
57.222 62.502 20.679
57.468 64.220 15.277
57.670 64.731 14.972
58.070 64.132 15.478
58.246 63.415 16.010
58.126 63.562 20.297
58.420 64.037 19.986
57.468 63.555 20.862
57.822 65.443 14.575
57.912 64.252 20.539
57.426 64.407 21.073
57.169 64.926 21.233
57.836 65.878 14.261
57.919 66.027 14.182
57.960 65.875 14.313
57.982 65.601 15.914
57.787 65.741 15.091
57.853 65.641 16.580
58.110 65.585 17.512
56.963 66.251 19.318
57.666 65.819 18.887
57.769 65.502 19.801
57.470 65.322 20.569
57.800 65.969 14.293
57.831 65.967 14.484
58.431 54.011 20.105
58.825 54.684 19.881
58.970 54.334 20.427
58.734 54.560 20.801
59.155 55.086 21.001
58.415 56.361 18.848
58.897 55.762 19.332
59.150 55.682 20.995
58.622 56.289 20.835
58.407 57.255 18.575
59.057 56.685 19.000
59.236 56.956 20.627
58.925 58.247 18.478
58.380 58.485 19.992
58.851 57.788 20.279
59.518 59.081 18.495
58.709 59.150 19.871
59.419 58.665 20.067
58.742 60.331 17.884
59.295 59.904 18.216
59.301 59.506 19.867
58.738 60.088 19.741
58.749 61.049 17.650
59.402 60.588 18.050
58.858 61.180 19.664
58.864 61.736 17.312
59.366 62.195 19.472
58.915 62.910 16.589
59.320 62.244 17.169
59.423 63.205 19.255
59.978 62.807 19.007
59.742 63.557 18.832
58.179 64.905 15.067
58.636 64.409 15.590
58.841 63.740 16.058
58.971 64.189 19.233
59.625 64.181 18.374
58.118 65.600 14.777
58.640 64.962 15.466
58.834 65.000 18.361
59.472 64.635 17.930
59.155 64.936 17.426
58.332 65.152 19.271
58.128 64.828 20.047
57.662 64.821 20.750
57.961 65.988 14.324
57.952 65.913 14.566
58.394 65.417 15.560
58.620 65.299 16.497
59.632 54.841 20.229
60.092 54.946 20.579
59.766 54.756 20.858
60.083 55.106 21.045
59.753 55.515 19.913
60.279 55.399 20.323
59.627 56.227 20.898
60.060 55.650 21.032
59.448 57.505 18.904
60.014 56.760 19.563
60.139 56.798 20.727
60.496 56.374 20.891
59.867 58.385 18.827
60.225 57.800 19.244
60.848 57.000 20.614
60.327 57.598 20.402
60.231 59.055 18.844
60.571 58.563 19.225
60.341 58.691 20.150
60.182 59.727 18.687
60.704 59.366 19.121
59.613 60.149 19.770
60.054 59.587 19.929
59.727 61.086 18.029
60.204 60.661 18.502
60.222 60.512 19.717
59.670 61.069 19.579
59.680 61.729 17.705
60.219 61.466 18.215
60.155 62.005 19.258
59.696 62.741 17.065
59.947 62.370 17.477
60.413 62.485 18.896
60.258 63.206 18.317
59.237 64.294 16.168
59.658 63.425 16.735
59.884 64.201 17.644
60.296 63.632 17.609
60.076 63.994 17.192
58.951 64.944 16.042
59.852 63.965 16.796
59.498 64.552 16.788
60.523 55.140 20.845
60.469 55.092 21.000
60.699 55.528 21.027
60.576 56.223 20.203
60.986 55.959 20.630
60.914 56.144 20.945
60.799 57.098 20.227
61.157 56.902 20.513
61.053 56.674 20.801
60.936 57.754 19.844
61.188 57.473 20.361
61.033 57.402 20.485
60.986 58.149 20.268
61.186 57.200 20.575
61.035 58.805 19.597
60.717 59.370 19.976
60.727 60.113 19.029
60.996 59.618 19.401
60.568 60.108 19.825
60.770 60.741 19.018
60.668 60.665 19.631
60.480 61.306 19.414
60.353 62.327 18.043
60.633 61.474 18.724
60.570 61.980 19.101
60.164 62.911 17.375
60.388 63.132 17.714
60.603 62.228 18.717
60.204 63.516 17.225
60.889 55.497 20.922
61.282 56.181 20.839
61.536 57.058 20.533
61.581 57.385 20.385
61.613 56.773 20.629
61.693 56.879 20.659
61.373 56.718 20.736
61.370 57.944 20.175
61.733 57.317 20.482
61.085 59.244 19.810
60.975 60.210 19.403
60.886 60.159 19.696
60.826 60.950 19.316
60.723 61.642 19.087
61.799 57.122 20.560
3 2 1 0
3 4 3 0
3 0 3 2
3 6 5 4
3 4 5 3
3 6 7 5
3 0 1 8
3 8 1 9
3 0 10 4
3 0 8 10
3 4 11 6
3 4 10 11
3 7 6 12
3 12 6 11
3 15 14 13
3 15 13 9
3 13 8 9
3 13 16 8
3 8 17 10
3 8 16 17
3 19 11 18
3 11 17 18
3 11 10 17
3 11 19 12
3 13 14 20
3 20 14 21
3 13 22 16
3 13 20 22
3 16 23 17
3 16 22 23
3 18 17 24
3 24 17 23
3 20 21 25
3 25 21 26
3 20 27 22
3 20 25 27
3 22 28 23
3 22 27 28
3 24 23 29
3 29 23 28
3 26 30 25
3 25 30 27
3 27 30 31
3 27 31 28
3 28 31 32
3 28 32 29
3 35 34 33
3 37 36 33
3 33 36 35
3 39 38 37
3 37 38 36
3 39 40 38
3 33 34 41
3 41 34 42
3 41 1 2
3 37 41 2
3 33 41 37
3 37 2 3
3 37 3 39
3 3 5 39
3 5 43 39
3 43 40 39
3 5 44 43
3 7 44 5
3 47 46 45
3 47 45 42
3 45 41 42
3 45 48 41
3 48 9 1
3 48 1 41
3 43 44 49
3 43 49 50
3 12 49 7
3 7 49 44
3 45 46 51
3 51 46 52
3 51 14 15
3 48 51 15
3 45 51 48
3 48 15 9
3 55 54 53
3 53 54 50
3 53 50 49
3 18 53 49
3 19 18 49
3 19 49 12
3 51 52 56
3 56 52 57
3 56 21 14
3 56 14 51
3 55 53 58
3 55 58 59
3 24 58 18
3 18 58 53
3 62 61 60
3 62 60 57
3 60 56 57
3 60 63 56
3 63 26 21
3 63 21 56
3 59 58 64
3 59 64 65
3 29 64 24
3 24 64 58
3 60 61 66
3 66 61 67
3 60 68 63
3 60 66 68
3 69 30 26
3 63 69 26
3 68 69 63
3 30 69 70
3 71 30 70
3 31 30 71
3 64 32 65
3 32 71 65
3 32 31 71
3 32 64 29
3 67 72 66
3 74 73 72
3 73 66 72
3 73 68 66
3 68 75 69
3 68 73 75
3 70 69 76
3 76 69 75
3 73 74 77
3 77 74 78
3 73 79 75
3 73 77 79
3 76 75 80
3 80 75 79
3 78 81 77
3 83 82 81
3 82 77 81
3 82 79 77
3 80 79 84
3 79 85 84
3 79 82 85
3 85 86 84
3 83 87 82
3 82 87 85
3 85 87 88
3 85 88 86
3 91 90 89
3 34 35 89
3 35 91 89
3 35 92 91
3 94 92 93
3 92 36 93
3 92 35 36
3 38 95 36
3 36 95 93
3 40 95 38
3 89 90 96
3 96 90 97
3 96 42 34
3 96 34 89
3 94 93 98
3 94 98 99
3 100 93 95
3 98 93 100
3 43 100 40
3 40 100 95
3 103 102 101
3 103 101 97
3 97 101 96
3 101 46 96
3 46 47 96
3 96 47 42
3 99 98 104
3 99 104 105
3 106 98 100
3 104 98 106
3 50 106 43
3 43 106 100
3 101 102 107
3 107 102 108
3 107 52 46
3 107 46 101
3 111 110 109
3 109 110 105
3 104 109 105
3 112 109 104
3 55 112 54
3 112 106 54
3 112 104 106
3 54 106 50
3 107 108 113
3 113 108 114
3 113 57 52
3 113 52 107
3 111 109 115
3 111 115 116
3 117 109 112
3 115 109 117
3 59 117 55
3 55 117 112
3 113 114 62
3 114 61 62
3 114 118 61
3 113 62 57
3 119 116 115
3 121 120 119
3 115 121 119
3 117 121 115
3 65 121 59
3 59 121 117
3 124 123 122
3 118 124 122
3 67 118 122
3 61 118 67
3 120 121 71
3 70 120 71
3 125 120 70
3 71 121 65
3 122 123 126
3 126 123 127
3 128 72 67
3 122 128 67
3 126 128 122
3 128 74 72
3 76 125 70
3 76 129 125
3 126 127 130
3 130 127 131
3 126 132 128
3 126 130 132
3 132 78 74
3 132 74 128
3 80 129 76
3 80 133 129
3 130 131 134
3 134 131 135
3 130 136 132
3 130 134 136
3 137 81 78
3 132 137 78
3 136 137 132
3 137 83 81
3 138 133 80
3 138 80 84
3 84 86 138
3 138 86 139
3 142 141 140
3 142 140 135
3 140 134 135
3 140 143 134
3 134 144 136
3 134 143 144
3 136 145 137
3 136 144 145
3 146 87 83
3 137 146 83
3 145 146 137
3 147 88 87
3 147 87 146
3 147 148 88
3 148 86 88
3 148 139 86
3 141 149 140
3 151 150 149
3 150 140 149
3 150 143 140
3 143 152 144
3 143 150 152
3 144 153 145
3 144 152 153
3 155 146 154
3 146 153 154
3 146 145 153
3 146 155 147
3 147 155 156
3 147 156 148
3 151 157 150
3 150 157 152
3 152 157 158
3 152 158 153
3 153 158 159
3 153 159 154
3 161 160 91
3 91 160 90
3 162 91 92
3 162 161 91
3 92 94 162
3 162 94 163
3 166 165 164
3 160 166 164
3 97 160 164
3 90 160 97
3 99 163 94
3 99 167 163
3 164 165 103
3 165 102 103
3 165 168 102
3 164 103 97
3 171 170 169
3 170 167 169
3 167 105 169
3 167 99 105
3 168 108 102
3 172 108 168
3 171 169 110
3 111 171 110
3 173 171 111
3 110 169 105
3 172 114 108
3 174 114 172
3 116 173 111
3 116 175 173
3 178 177 176
3 174 178 176
3 118 174 176
3 114 174 118
3 181 180 179
3 182 179 119
3 179 175 119
3 175 116 119
3 175 179 180
3 120 182 119
3 176 177 124
3 177 123 124
3 177 183 123
3 176 124 118
3 184 181 179
3 186 185 184
3 179 186 184
3 182 186 179
3 125 186 120
3 120 186 182
3 183 127 123
3 187 127 183
3 185 186 188
3 185 188 189
3 129 188 125
3 125 188 186
3 192 191 190
3 187 192 190
3 131 187 190
3 127 187 131
3 193 189 188
3 188 129 193
3 129 194 193
3 129 133 194
3 197 196 195
3 197 195 191
3 195 190 191
3 195 198 190
3 198 135 131
3 198 131 190
3 133 138 199
3 200 133 199
3 194 133 200
3 139 199 138
3 203 202 201
3 203 201 196
3 201 195 196
3 201 204 195
3 204 141 142
3 198 204 142
3 195 204 198
3 198 142 135
3 200 199 205
3 200 205 206
3 148 205 139
3 139 205 199
3 201 202 207
3 207 202 208
3 210 204 209
3 204 207 209
3 204 201 207
3 204 210 141
3 210 149 141
3 210 211 149
3 213 212 151
3 149 213 151
3 211 213 149
3 214 212 213
3 217 216 215
3 155 154 215
3 216 155 215
3 218 155 216
3 205 156 206
3 156 218 206
3 156 155 218
3 156 205 148
3 208 219 207
3 207 219 209
3 212 157 151
3 214 220 212
3 220 157 212
3 220 158 157
3 215 159 217
3 159 220 217
3 159 158 220
3 159 215 154
3 223 222 221
3 221 224 223
3 221 222 161
3 222 160 161
3 222 225 160
3 226 224 221
3 161 226 221
3 162 226 161
3 162 163 226
3 226 163 227
3 229 228 166
3 166 228 165
3 166 160 225
3 166 225 229
3 232 231 230
3 231 227 230
3 227 167 230
3 227 163 167
3 228 168 165
3 233 168 228
3 232 230 170
3 171 232 170
3 234 232 171
3 170 230 167
3 233 172 168
3 235 172 233
3 238 237 236
3 237 234 236
3 234 173 236
3 234 171 173
3 235 174 172
3 239 174 235
3 238 236 240
3 238 240 241
3 175 240 173
3 173 240 236
3 243 242 178
3 178 242 177
3 178 174 239
3 178 239 243
3 241 240 180
3 181 241 180
3 244 241 181
3 180 240 175
3 242 183 177
3 245 183 242
3 181 184 246
3 247 181 246
3 244 181 247
3 185 246 184
3 245 187 183
3 248 187 245
3 247 246 249
3 247 249 250
3 189 249 185
3 185 249 246
3 252 251 192
3 192 251 191
3 192 187 248
3 192 248 252
3 250 249 253
3 250 253 254
3 193 255 189
3 255 249 189
3 255 253 249
3 194 255 193
3 258 257 256
3 196 197 256
3 197 258 256
3 197 259 258
3 197 191 251
3 197 251 259
3 254 253 260
3 254 260 261
3 262 253 255
3 260 253 262
3 200 262 194
3 194 262 255
3 256 257 203
3 257 202 203
3 257 263 202
3 256 203 196
3 264 261 260
3 264 260 262
3 264 262 265
3 262 200 265
3 200 266 265
3 200 206 266
3 269 268 267
3 263 269 267
3 208 263 267
3 202 263 208
3 271 270 210
3 271 210 209
3 210 272 211
3 270 272 210
3 211 273 213
3 272 273 211
3 275 274 214
3 213 275 214
3 273 275 213
3 216 217 274
3 275 216 274
3 276 216 275
3 216 277 218
3 276 277 216
3 206 218 266
3 266 218 277
3 268 278 267
3 267 278 208
3 278 219 208
3 278 279 219
3 209 219 271
3 271 219 279
3 274 220 214
3 220 274 217
3 280 222 223
3 224 280 223
3 282 281 280
3 281 222 280
3 281 225 222
3 282 280 224
3 226 282 224
3 283 282 226
3 226 227 283
3 283 227 284
3 285 228 229
3 286 285 229
3 225 286 229
3 281 286 225
3 288 287 231
3 288 231 232
3 227 231 284
3 284 231 287
3 290 289 285
3 289 228 285
3 289 233 228
3 290 285 286
3 234 288 232
3 234 291 288
3 289 235 233
3 292 235 289
3 238 293 237
3 293 294 237
3 294 234 237
3 294 291 234
3 292 239 235
3 295 239 292
3 241 296 293
3 241 293 238
3 294 293 297
3 297 293 296
3 298 242 243
3 299 298 243
3 239 299 243
3 295 299 239
3 301 300 296
3 241 301 296
3 244 301 241
3 296 300 297
3 303 302 298
3 302 242 298
3 302 245 242
3 303 298 299
3 247 301 244
3 247 304 301
3 302 248 245
3 305 248 302
3 250 304 247
3 250 306 304
3 308 307 252
3 252 307 251
3 252 248 305
3 252 305 308
3 311 310 309
3 310 306 309
3 306 254 309
3 306 250 254
3 312 257 258
3 312 258 313
3 258 314 313
3 258 259 314
3 259 251 307
3 259 307 314
3 311 309 315
3 311 315 316
3 261 315 254
3 254 315 309
3 317 263 312
3 312 263 257
3 312 313 318
3 312 318 317
3 321 320 319
3 319 320 316
3 315 319 316
3 322 319 315
3 264 323 261
3 323 315 261
3 323 322 315
3 265 324 264
3 264 324 323
3 266 324 265
3 325 268 269
3 263 317 269
3 317 325 269
3 317 326 325
3 327 270 271
3 317 327 271
3 326 317 271
3 327 317 318
3 270 328 272
3 327 328 270
3 319 273 321
3 273 328 321
3 273 272 328
3 273 319 275
3 275 319 322
3 275 322 276
3 276 322 323
3 276 323 277
3 277 323 324
3 277 324 266
3 325 278 268
3 278 325 279
3 279 325 326
3 279 326 271
3 329 281 282
3 329 282 330
3 282 331 330
3 282 283 331
3 283 284 331
3 331 284 332
3 334 333 329
3 333 281 329
3 333 286 281
3 287 288 335
3 329 330 334
3 335 336 287
3 336 284 287
3 336 332 284
3 337 289 290
3 338 337 290
3 286 338 290
3 333 338 286
3 291 339 335
3 291 335 288
3 336 335 340
3 340 335 339
3 341 292 337
3 337 292 289
3 337 338 342
3 337 342 341
3 344 343 339
3 291 344 339
3 294 344 291
3 339 343 340
3 345 295 341
3 341 295 292
3 341 342 346
3 341 346 345
3 297 344 294
3 297 347 344
3 349 348 345
3 348 295 345
3 348 299 295
3 300 301 350
3 345 346 349
3 350 351 300
3 351 297 300
3 351 347 297
3 352 302 303
3 353 352 303
3 299 353 303
3 348 353 299
3 355 354 350
3 301 355 350
3 304 355 301
3 350 354 351
3 357 356 352
3 356 302 352
3 356 305 302
3 357 352 353
3 306 355 304
3 306 358 355
3 360 359 308
3 308 359 307
3 308 305 356
3 308 356 360
3 362 361 310
3 362 310 311
3 306 310 358
3 358 310 361
3 363 313 314
3 364 363 314
3 307 364 314
3 359 364 307
3 367 366 365
3 366 362 365
3 362 316 365
3 362 311 316
3 368 318 363
3 363 318 313
3 363 364 369
3 370 363 369
3 368 363 370
3 370 369 367
3 370 367 365
3 321 370 365
3 320 321 365
3 320 365 316
3 368 327 318
3 327 368 328
3 328 368 370
3 328 370 321
3 372 371 331
3 331 371 330
3 331 332 372
3 372 332 373
3 374 333 334
3 375 374 334
3 330 375 334
3 371 375 330
3 336 373 332
3 336 376 373
3 377 338 374
3 374 338 333
3 374 375 378
3 374 378 377
3 340 376 336
3 340 379 376
3 381 380 377
3 380 338 377
3 380 342 338
3 383 382 344
3 382 381 344
3 377 344 381
3 344 377 343
3 378 343 377
3 343 378 382
3 382 384 343
3 383 384 382
3 382 378 381
3 340 343 379
3 379 343 384
3 380 346 342
3 385 346 380
3 347 383 344
3 347 386 383
3 388 387 349
3 349 387 348
3 349 346 385
3 349 385 388
3 351 386 347
3 351 389 386
3 387 353 348
3 390 353 387
3 392 391 354
3 392 354 355
3 351 354 389
3 389 354 391
3 393 356 357
3 394 393 357
3 353 394 357
3 390 394 353
3 358 392 355
3 358 395 392
3 396 359 360
3 356 393 360
3 393 396 360
3 393 397 396
3 398 361 362
3 393 398 362
3 397 393 362
3 398 393 394
3 358 361 395
3 395 361 398
3 399 364 396
3 396 364 359
3 367 399 366
3 399 397 366
3 399 396 397
3 366 397 362
3 399 369 364
3 369 399 367
3 400 371 372
3 373 400 372
3 401 375 400
3 400 375 371
3 376 401 373
3 373 401 400
3 404 403 402
3 375 402 378
3 402 375 404
3 401 404 375
3 404 401 405
3 406 405 401
3 379 406 376
3 376 406 401
3 408 407 403
3 407 380 403
3 381 402 403
3 381 403 380
3 407 408 402
3 405 402 408
3 402 405 406
3 402 406 378
3 384 378 406
3 378 384 381
3 383 381 384
3 381 383 407
3 381 407 402
3 384 406 379
3 409 385 407
3 407 385 380
3 386 409 383
3 383 409 407
3 410 387 388
3 385 409 388
3 409 410 388
3 409 411 410
3 389 411 386
3 386 411 409
3 412 390 410
3 410 390 387
3 392 412 391
3 412 411 391
3 412 410 411
3 391 411 389
3 413 394 412
3 412 394 390
3 395 413 392
3 392 413 412
3 413 398 394
3 398 413 395
3 414 403 404
3 405 414 404
3 414 408 403
3 408 414 405
