ply
format ascii 1.0
comment None
element vertex 373
property float x
property float y
property float z
element face 746
property list uchar int vertex_indices
end_header
28.909 56.359 20.401
28.966 56.457 20.121
29.251 55.939 20.376
29.150 56.037 20.618
28.998 56.518 20.607
29.432 56.086 20.822
28.781 57.171 20.151
29.044 57.056 19.681
29.076 57.120 20.575
29.294 56.577 20.817
28.682 58.087 19.579
28.790 58.521 19.233
28.932 57.909 19.311
28.712 58.102 19.927
28.925 57.755 20.265
28.783 58.867 19.344
29.121 59.120 19.114
28.821 58.771 19.644
29.067 58.451 20.044
29.276 59.489 19.366
29.272 59.123 19.754
29.472 56.119 19.983
29.975 55.570 20.333
29.669 55.685 20.670
30.071 55.750 20.902
29.748 56.513 19.590
29.489 56.944 20.821
29.910 56.330 20.973
29.226 58.438 19.084
29.661 57.465 19.244
29.955 56.948 20.913
29.598 57.704 20.556
29.618 59.092 18.965
30.045 58.460 18.997
29.792 58.750 20.123
29.875 59.960 18.980
29.944 60.274 19.263
30.385 59.332 18.902
30.387 60.248 19.423
29.974 59.617 19.664
30.194 60.890 19.010
30.383 60.916 18.736
30.446 60.782 19.221
30.395 61.447 18.836
30.565 61.811 18.520
30.559 61.355 19.046
30.619 61.802 18.847
30.315 63.997 17.767
30.463 64.080 17.598
30.350 63.754 17.783
30.463 63.723 18.003
30.445 64.153 17.884
30.475 55.791 19.866
30.821 55.280 20.313
30.610 55.334 20.712
31.022 55.721 21.058
30.584 56.599 19.373
30.517 56.512 21.047
31.331 56.458 21.125
30.536 57.186 20.898
30.800 57.631 19.072
30.579 58.073 20.566
31.104 58.887 19.054
30.734 58.972 20.142
30.856 60.019 18.693
31.218 59.488 18.958
30.931 59.710 19.664
30.886 60.328 19.357
30.881 60.972 18.396
30.999 60.971 19.258
30.749 61.827 18.150
31.065 61.968 17.794
31.065 61.303 18.092
30.995 61.663 19.094
30.617 62.956 17.936
31.036 62.767 17.334
30.854 62.325 18.728
30.839 63.166 18.500
30.766 63.710 17.192
31.204 64.103 16.598
31.125 63.319 16.890
30.807 63.963 18.398
30.852 64.884 17.056
31.375 65.115 16.150
30.705 64.696 17.893
30.857 65.326 17.591
31.139 65.667 16.551
31.396 65.871 16.082
31.189 65.985 17.312
31.370 66.193 16.491
31.530 55.025 20.571
31.727 55.338 20.063
32.458 54.959 20.511
32.177 54.903 20.845
31.494 55.111 20.896
32.212 55.144 21.122
31.429 55.983 19.581
32.227 55.715 21.300
31.747 56.799 19.213
32.301 56.489 21.269
31.449 57.296 20.951
31.939 57.951 18.922
31.594 58.189 20.642
31.681 59.089 18.997
31.943 59.282 18.639
32.313 58.515 18.724
31.737 59.034 20.224
31.679 60.084 18.367
31.215 59.710 19.310
31.465 60.101 19.338
31.735 59.567 19.636
31.367 60.732 18.184
31.667 61.058 17.901
31.842 60.390 18.132
31.750 61.178 19.519
31.798 61.937 17.397
31.348 62.545 19.083
31.342 61.961 19.176
31.809 61.946 19.486
31.479 62.743 16.975
31.689 63.333 16.590
32.208 62.549 16.886
31.319 63.260 19.014
32.034 64.250 16.106
31.275 63.889 18.996
31.951 65.173 15.609
32.363 65.469 15.410
32.604 64.858 15.712
31.087 65.488 18.259
31.118 64.613 18.751
31.924 65.624 19.872
31.585 65.313 19.501
31.880 64.982 19.897
32.388 65.108 20.345
31.967 65.691 15.312
32.011 65.932 15.247
32.207 65.844 15.291
31.668 65.731 15.653
31.453 66.258 18.248
31.313 65.237 19.019
31.569 65.908 19.093
32.086 66.318 19.705
32.394 65.931 20.287
31.878 66.004 15.419
31.840 66.405 15.989
31.681 66.665 16.842
31.765 66.758 17.737
32.106 67.073 17.218
32.014 66.723 18.797
32.493 66.810 19.565
32.469 66.470 20.117
32.446 67.172 18.004
32.613 67.105 18.888
32.741 55.248 20.113
33.337 55.084 20.464
33.195 54.890 21.015
33.150 55.167 21.412
32.730 55.968 19.630
33.361 55.452 20.040
33.323 55.797 21.608
33.038 57.215 19.086
33.018 56.620 21.421
32.396 57.333 21.092
32.812 57.965 18.755
33.048 58.577 18.602
33.491 57.918 18.811
32.692 58.243 20.884
32.782 59.463 18.398
32.722 59.314 20.458
32.303 59.982 18.204
32.385 60.387 18.018
32.880 59.934 18.195
32.466 59.851 20.067
32.205 60.294 19.820
32.559 61.024 17.732
32.561 60.827 20.021
32.512 61.545 20.001
33.070 60.982 20.357
33.031 61.813 17.381
32.032 62.526 19.674
32.860 62.134 20.351
33.258 61.490 20.544
32.563 63.276 16.480
32.977 62.604 16.862
31.799 63.466 19.557
32.521 63.006 20.209
33.412 61.979 20.760
33.232 62.643 20.750
33.797 62.323 21.054
33.198 64.126 16.267
31.550 64.152 19.365
32.196 64.135 20.077
32.956 63.458 20.658
33.697 63.339 21.135
32.875 65.374 15.655
33.216 64.971 15.942
31.555 64.735 19.451
33.111 64.389 20.804
33.066 65.526 20.646
32.154 66.156 15.481
32.666 65.966 15.647
32.871 66.636 20.051
32.745 66.234 20.418
33.128 66.240 20.381
32.467 66.617 15.985
32.215 66.846 16.158
32.135 66.973 16.556
33.114 66.962 19.280
32.455 67.019 16.389
32.608 67.179 17.040
33.003 67.228 17.718
33.051 67.213 18.471
34.012 55.033 20.856
34.154 54.849 21.276
33.917 54.910 21.508
33.925 55.233 21.748
34.404 55.102 21.811
33.725 55.882 19.848
34.084 55.545 20.341
34.006 55.526 21.874
34.591 55.664 22.089
33.872 56.613 19.537
34.316 56.204 19.966
33.245 57.283 21.370
33.724 56.521 21.728
34.069 55.918 21.928
33.877 58.339 18.758
34.347 57.797 19.269
33.515 57.913 21.346
33.986 57.367 21.760
33.769 58.994 18.611
34.355 58.655 18.921
34.026 58.173 21.616
33.509 58.694 21.132
33.168 60.395 18.063
33.706 59.830 18.477
33.074 60.252 20.412
33.656 59.587 20.948
33.882 60.324 20.886
34.269 59.957 21.232
33.426 61.030 17.851
33.964 60.653 18.388
33.714 61.017 20.759
34.510 60.878 21.045
33.648 61.459 17.737
34.061 61.357 18.175
33.715 61.660 20.876
34.183 61.789 21.049
33.397 63.210 16.694
33.678 62.600 17.275
33.945 61.988 17.830
34.345 62.833 21.370
33.723 63.687 16.664
34.030 63.446 17.201
34.289 63.596 21.519
33.400 65.696 16.173
33.769 64.962 16.481
34.006 64.242 16.908
33.504 64.877 20.954
34.035 64.317 21.176
33.092 66.493 16.326
33.980 65.661 16.816
33.719 66.378 17.038
34.181 65.970 17.399
33.432 66.501 19.866
33.620 65.896 20.336
33.820 65.179 20.752
32.797 66.954 16.505
33.184 66.970 17.068
34.015 66.440 17.869
33.531 66.950 17.970
33.429 67.050 18.696
33.830 66.564 18.866
33.943 66.107 19.708
34.475 54.997 21.151
34.614 54.961 21.401
34.522 54.967 21.614
34.895 55.390 21.919
34.604 55.403 20.897
34.790 55.206 21.271
35.247 55.951 22.274
34.686 56.957 19.845
34.866 56.281 20.537
34.553 56.669 22.196
35.324 56.538 22.621
35.233 57.326 22.734
35.695 57.284 23.033
34.963 57.599 19.790
35.247 57.398 20.361
34.712 58.025 22.230
35.300 58.062 22.817
35.584 57.816 23.045
34.470 59.402 18.963
34.901 58.878 19.440
35.197 58.244 19.969
34.296 59.055 21.579
34.891 59.085 22.141
35.240 58.775 22.644
34.598 60.366 19.155
35.055 59.779 19.646
34.859 59.921 21.653
35.271 59.565 22.377
34.556 61.305 18.994
35.087 60.435 19.997
34.916 61.211 20.065
34.896 61.230 20.753
35.198 60.513 20.978
35.413 60.096 22.026
34.533 62.126 18.676
34.899 62.288 19.844
34.779 62.179 20.907
34.423 63.022 18.181
34.893 63.032 19.376
35.089 63.134 20.209
35.056 62.995 20.788
34.987 63.096 21.339
34.807 63.139 21.576
34.654 63.508 21.744
34.885 63.577 21.833
34.492 64.282 18.017
34.830 63.967 19.335
35.079 63.661 20.165
34.604 63.942 21.612
34.834 63.798 21.835
34.295 65.196 17.377
34.521 65.249 18.329
34.617 64.914 19.166
34.964 64.129 20.341
34.702 64.617 20.159
34.356 64.795 20.725
34.757 64.248 21.056
34.884 63.977 21.625
34.307 65.924 18.136
34.333 65.758 19.068
34.254 65.385 20.054
34.932 55.300 21.587
35.082 55.800 21.257
35.389 56.062 21.897
35.522 56.938 21.303
35.819 56.959 22.106
35.744 56.654 22.557
35.824 56.938 22.950
35.977 57.427 23.113
35.696 58.337 20.984
35.960 57.860 21.934
35.599 58.524 23.015
35.889 58.095 23.124
35.465 59.302 20.343
35.828 59.350 21.217
36.014 58.917 21.855
35.565 59.297 22.836
35.838 59.042 23.015
35.356 60.075 20.371
35.641 59.962 21.086
35.924 59.722 21.823
35.569 59.824 22.584
35.758 59.647 22.824
35.686 60.154 21.819
35.746 59.988 22.461
35.136 63.567 20.824
35.083 63.510 21.362
34.988 63.463 21.674
35.064 63.946 20.798
35.039 63.888 21.321
34.991 63.755 21.724
36.047 57.474 22.584
36.019 57.216 22.935
36.120 58.413 22.523
36.095 57.887 22.967
36.061 59.313 22.435
36.052 58.771 22.903
35.921 59.881 22.322
35.940 59.550 22.751
3 2 1 0
3 4 3 0
3 0 3 2
3 4 5 3
3 0 1 6
3 6 1 7
3 9 4 8
3 4 6 8
3 4 0 6
3 4 9 5
3 12 11 10
3 12 10 7
3 10 6 7
3 10 13 6
3 8 6 14
3 14 6 13
3 10 11 15
3 15 11 16
3 10 17 13
3 10 15 17
3 14 13 18
3 18 13 17
3 16 19 15
3 15 19 17
3 17 19 20
3 17 20 18
3 22 21 2
3 2 21 1
3 23 2 3
3 23 22 2
3 3 5 23
3 23 5 24
3 21 7 1
3 25 7 21
3 8 26 9
3 26 27 9
3 27 5 9
3 27 24 5
3 28 11 12
3 29 28 12
3 7 29 12
3 25 29 7
3 31 30 26
3 8 31 26
3 14 31 8
3 26 30 27
3 32 16 28
3 28 16 11
3 28 29 33
3 28 33 32
3 18 31 14
3 18 34 31
3 36 19 35
3 19 16 35
3 35 16 32
3 37 35 32
3 32 33 37
3 39 36 38
3 36 39 19
3 20 19 39
3 18 20 34
3 34 20 39
3 36 35 40
3 40 35 41
3 38 36 42
3 42 36 40
3 40 41 43
3 43 41 44
3 42 40 45
3 45 40 43
3 44 46 43
3 43 46 45
3 49 48 47
3 47 50 49
3 48 51 47
3 47 51 50
3 53 52 22
3 22 52 21
3 54 22 23
3 54 53 22
3 23 24 54
3 54 24 55
3 52 25 21
3 56 25 52
3 59 58 57
3 58 55 57
3 55 27 57
3 55 24 27
3 56 29 25
3 60 29 56
3 59 57 30
3 31 59 30
3 61 59 31
3 30 57 27
3 60 33 29
3 62 33 60
3 34 61 31
3 34 63 61
3 65 64 37
3 37 64 35
3 39 38 66
3 67 66 38
3 62 37 33
3 37 62 65
3 34 39 63
3 63 39 66
3 64 41 35
3 68 41 64
3 42 67 38
3 42 69 67
3 72 71 70
3 68 72 70
3 44 68 70
3 41 68 44
3 45 69 42
3 45 73 69
3 70 71 74
3 74 71 75
3 70 74 44
3 74 76 44
3 76 46 44
3 74 77 76
3 45 46 73
3 73 46 76
3 80 79 78
3 80 78 75
3 75 78 74
3 78 48 74
3 48 49 74
3 49 50 74
3 50 77 74
3 50 81 77
3 78 79 82
3 82 79 83
3 78 82 48
3 82 84 48
3 84 51 48
3 82 85 84
3 50 51 81
3 81 51 84
3 82 83 86
3 86 83 87
3 85 82 88
3 88 82 86
3 87 89 86
3 86 89 88
3 92 91 90
3 94 93 90
3 90 93 92
3 94 95 93
3 90 91 53
3 91 52 53
3 91 96 52
3 90 53 54
3 90 54 94
3 54 55 94
3 55 95 94
3 55 97 95
3 96 56 52
3 98 56 96
3 100 99 58
3 100 58 59
3 55 58 97
3 97 58 99
3 98 60 56
3 101 60 98
3 61 100 59
3 61 102 100
3 105 104 103
3 101 105 103
3 62 101 103
3 60 101 62
3 63 102 61
3 63 106 102
3 103 104 65
3 104 64 65
3 104 107 64
3 109 108 67
3 109 65 108
3 65 109 103
3 110 103 109
3 103 110 62
3 108 62 110
3 110 66 108
3 108 66 67
3 65 62 108
3 63 66 106
3 106 66 110
3 113 112 111
3 107 113 111
3 68 107 111
3 64 107 68
3 69 109 67
3 69 114 109
3 111 112 72
3 112 71 72
3 112 115 71
3 68 111 72
3 118 117 116
3 118 114 117
3 114 73 117
3 114 69 73
3 121 120 119
3 115 121 119
3 75 115 119
3 71 115 75
3 116 117 76
3 77 116 76
3 122 116 77
3 76 117 73
3 119 120 80
3 120 79 80
3 120 123 79
3 119 80 75
3 81 122 77
3 81 124 122
3 127 126 125
3 123 127 125
3 83 123 125
3 79 123 83
3 85 128 84
3 128 129 84
3 129 81 84
3 129 124 81
3 132 131 130
3 130 133 132
3 136 135 134
3 136 134 126
3 134 125 126
3 134 137 125
3 137 87 83
3 137 83 125
3 88 138 128
3 88 128 85
3 129 128 139
3 128 140 139
3 128 138 140
3 139 140 131
3 140 130 131
3 140 141 130
3 133 130 142
3 142 130 141
3 135 143 134
3 134 143 137
3 137 143 144
3 137 144 87
3 144 89 87
3 144 145 89
3 89 145 88
3 145 146 88
3 146 138 88
3 146 145 147
3 138 148 140
3 138 146 148
3 150 141 149
3 141 148 149
3 141 140 148
3 141 150 142
3 147 151 146
3 146 151 148
3 148 151 152
3 148 152 149
3 153 91 92
3 153 92 154
3 92 155 154
3 92 93 155
3 93 95 155
3 155 95 156
3 158 157 153
3 157 91 153
3 157 96 91
3 158 153 154
3 97 156 95
3 97 159 156
3 157 98 96
3 160 98 157
3 162 161 99
3 162 99 100
3 97 99 159
3 159 99 161
3 165 164 163
3 160 165 163
3 101 160 163
3 98 160 101
3 102 162 100
3 102 166 162
3 163 164 105
3 164 104 105
3 164 167 104
3 163 105 101
3 106 166 102
3 106 168 166
3 171 170 169
3 167 171 169
3 107 167 169
3 104 167 107
3 173 172 110
3 173 110 109
3 106 110 168
3 168 110 172
3 169 170 113
3 170 112 113
3 170 174 112
3 169 113 107
3 114 176 175
3 173 114 175
3 109 114 173
3 176 177 175
3 174 115 112
3 178 115 174
3 116 179 118
3 176 114 118
3 179 176 118
3 180 176 179
3 177 176 181
3 181 176 180
3 183 182 121
3 121 182 120
3 121 115 178
3 121 178 183
3 122 184 179
3 122 179 116
3 179 185 180
3 179 184 185
3 181 180 186
3 180 187 186
3 180 185 187
3 187 188 186
3 182 123 120
3 189 123 182
3 124 190 184
3 124 184 122
3 184 191 185
3 184 190 191
3 185 192 187
3 185 191 192
3 188 187 193
3 193 187 192
3 195 194 127
3 127 194 126
3 127 123 189
3 127 189 195
3 129 196 190
3 129 190 124
3 196 131 132
3 191 196 132
3 190 196 191
3 192 191 197
3 191 133 197
3 133 198 197
3 133 191 132
3 192 197 193
3 199 135 136
3 200 199 136
3 126 200 136
3 194 200 126
3 139 196 129
3 131 196 139
3 203 202 201
3 203 198 202
3 198 142 202
3 198 133 142
3 199 143 135
3 144 143 199
3 204 144 199
3 200 204 199
3 205 144 204
3 206 145 144
3 206 144 205
3 206 147 145
3 201 202 150
3 149 201 150
3 207 201 149
3 150 202 142
3 204 208 205
3 205 208 206
3 206 208 209
3 206 209 147
3 209 151 147
3 209 210 151
3 151 211 152
3 210 211 151
3 149 152 207
3 207 152 211
3 213 212 155
3 155 212 154
3 215 214 156
3 214 155 156
3 214 213 155
3 215 216 214
3 217 157 158
3 218 217 158
3 154 218 158
3 212 218 154
3 159 219 215
3 159 215 156
3 216 215 220
3 220 215 219
3 222 221 217
3 221 157 217
3 221 160 157
3 161 162 223
3 217 218 222
3 223 224 161
3 161 224 159
3 224 225 159
3 225 219 159
3 219 225 220
3 226 164 165
3 227 226 165
3 160 227 165
3 221 227 160
3 166 228 223
3 166 223 162
3 224 223 229
3 229 223 228
3 231 230 226
3 230 164 226
3 230 167 164
3 231 226 227
3 233 232 228
3 166 233 228
3 168 233 166
3 228 232 229
3 234 170 171
3 235 234 171
3 167 235 171
3 230 235 167
3 173 236 172
3 233 168 237
3 168 236 237
3 236 238 237
3 168 172 236
3 238 239 237
3 240 174 234
3 234 174 170
3 234 235 241
3 234 241 240
3 175 236 173
3 236 175 177
3 242 236 177
3 238 236 242
3 239 238 243
3 243 238 242
3 244 178 240
3 240 178 174
3 240 241 245
3 240 245 244
3 181 246 242
3 181 242 177
3 243 242 247
3 247 242 246
3 248 182 183
3 249 248 183
3 249 183 178
3 250 249 178
3 244 250 178
3 250 244 245
3 186 246 181
3 186 188 246
3 188 247 246
3 188 251 247
3 252 189 248
3 248 189 182
3 248 249 253
3 248 253 252
3 193 251 188
3 193 254 251
3 255 194 195
3 256 255 195
3 256 195 189
3 257 256 189
3 252 257 189
3 257 252 253
3 198 258 197
3 258 259 197
3 259 193 197
3 259 254 193
3 260 200 255
3 255 200 194
3 255 256 261
3 262 255 261
3 260 255 262
3 263 262 261
3 201 264 203
3 264 265 203
3 203 265 198
3 265 266 198
3 266 258 198
3 258 266 259
3 267 204 260
3 260 204 200
3 268 260 262
3 267 260 268
3 262 263 269
3 270 262 269
3 268 262 270
3 272 271 270
3 272 270 269
3 272 273 264
3 207 272 264
3 201 207 264
3 271 272 207
3 264 273 265
3 267 208 204
3 208 267 209
3 209 267 268
3 209 268 210
3 210 268 270
3 210 270 211
3 211 270 271
3 211 271 207
3 274 212 213
3 274 213 275
3 213 276 275
3 213 214 276
3 214 216 276
3 276 216 277
3 279 278 274
3 278 212 274
3 278 218 212
3 279 274 275
3 220 277 216
3 220 280 277
3 281 221 222
3 282 281 222
3 218 282 222
3 278 282 218
3 224 283 225
3 280 220 284
3 220 283 284
3 283 285 284
3 220 225 283
3 285 286 284
3 287 227 281
3 281 227 221
3 281 282 288
3 281 288 287
3 229 289 283
3 229 283 224
3 291 285 290
3 285 289 290
3 285 283 289
3 285 291 286
3 292 230 231
3 293 292 231
3 293 231 227
3 294 293 227
3 287 294 227
3 232 233 295
3 287 288 294
3 289 229 232
3 295 289 232
3 296 289 295
3 290 289 297
3 297 289 296
3 298 235 292
3 292 235 230
3 292 293 299
3 292 299 298
3 237 295 233
3 295 237 239
3 300 295 239
3 296 295 300
3 297 296 301
3 301 296 300
3 302 241 298
3 298 241 235
3 298 299 303
3 304 298 303
3 302 298 304
3 306 305 304
3 306 304 303
3 306 307 300
3 243 306 300
3 239 243 300
3 305 306 243
3 300 307 301
3 308 245 302
3 302 245 241
3 309 302 304
3 308 302 309
3 310 304 305
3 309 304 310
3 247 310 243
3 243 310 305
3 311 249 250
3 245 308 250
3 308 311 250
3 308 312 311
3 309 314 313
3 312 309 313
3 308 309 312
3 314 309 310
3 314 310 315
3 247 251 310
3 251 316 310
3 316 315 310
3 316 251 317
3 317 318 316
3 319 253 311
3 311 253 249
3 320 311 312
3 319 311 320
3 312 313 321
3 312 321 320
3 254 322 317
3 254 317 251
3 318 317 323
3 323 317 322
3 324 256 257
3 253 319 257
3 319 324 257
3 319 325 324
3 326 319 320
3 325 319 326
3 320 321 327
3 328 320 327
3 326 320 328
3 330 329 328
3 330 328 327
3 330 331 322
3 259 330 322
3 254 259 322
3 329 330 259
3 322 331 323
3 324 261 256
3 261 324 263
3 324 332 263
3 324 325 332
3 333 325 326
3 332 325 333
3 334 326 328
3 333 326 334
3 265 334 266
3 334 329 266
3 334 328 329
3 266 329 259
3 332 269 263
3 269 332 272
3 272 332 333
3 272 333 273
3 273 333 334
3 273 334 265
3 335 275 276
3 277 335 276
3 336 278 279
3 275 335 279
3 335 336 279
3 335 337 336
3 280 337 277
3 277 337 335
3 338 282 336
3 336 282 278
3 337 340 339
3 338 337 339
3 336 337 338
3 340 337 280
3 284 340 280
3 341 340 284
3 284 286 341
3 341 286 342
3 343 288 338
3 338 288 282
3 338 339 344
3 338 344 343
3 290 345 291
3 345 346 291
3 346 286 291
3 346 342 286
3 347 293 294
3 288 343 294
3 343 347 294
3 343 348 347
3 343 344 349
3 343 349 348
3 297 350 345
3 297 345 290
3 346 345 351
3 351 345 350
3 352 299 347
3 347 299 293
3 353 347 348
3 352 347 353
3 348 349 354
3 348 354 353
3 301 355 350
3 301 350 297
3 351 350 356
3 356 350 355
3 352 303 299
3 303 352 306
3 306 352 353
3 354 357 353
3 357 306 353
3 357 307 306
3 301 307 355
3 307 358 355
3 307 357 358
3 355 358 356
3 359 313 314
3 315 360 314
3 314 360 359
3 316 361 315
3 315 361 360
3 318 361 316
3 362 321 359
3 359 321 313
3 363 359 360
3 362 359 363
3 364 360 361
3 363 360 364
3 323 364 318
3 318 364 361
3 362 327 321
3 327 362 330
3 330 362 363
3 330 363 331
3 331 363 364
3 331 364 323
3 365 339 340
3 341 366 340
3 340 366 365
3 342 366 341
3 367 344 365
3 365 344 339
3 368 365 366
3 367 365 368
3 346 368 342
3 342 368 366
3 369 349 367
3 367 349 344
3 370 367 368
3 369 367 370
3 351 370 346
3 346 370 368
3 371 354 369
3 369 354 349
3 372 369 370
3 371 369 372
3 356 372 351
3 351 372 370
3 371 357 354
3 357 371 358
3 358 371 372
3 358 372 356
