ply
format ascii 1.0
comment None
element vertex 720
property float x
property float y
property float z
element face 1552
property list uchar int vertex_indices
end_header
60.053 74.294 42.192
60.188 74.464 42.077
60.102 74.183 42.224
60.136 74.265 42.190
60.077 74.786 41.967
60.291 75.070 41.769
60.071 74.492 42.115
60.146 75.943 41.367
60.553 76.443 40.927
60.660 75.670 41.360
60.130 75.077 41.849
60.171 75.730 41.550
60.202 77.248 40.478
60.554 77.675 39.968
60.832 77.027 40.408
59.925 77.167 40.722
60.095 76.467 41.172
60.240 78.106 39.736
60.458 78.454 39.280
60.720 78.132 39.448
59.954 77.947 40.071
59.898 77.746 40.337
60.049 77.213 40.717
60.333 78.581 39.250
60.014 78.171 39.885
60.251 74.324 42.125
60.680 74.928 41.732
60.387 74.512 42.019
60.278 74.669 41.995
61.265 76.317 40.812
61.284 75.637 41.201
60.465 75.323 41.668
60.432 75.979 41.368
61.263 77.527 39.768
61.524 76.790 40.354
60.471 76.604 40.989
61.033 78.584 38.815
61.363 77.976 39.253
60.366 77.142 40.658
60.283 77.687 40.210
60.850 79.000 38.521
61.342 79.143 38.136
61.346 78.901 38.337
60.665 78.990 38.645
60.657 78.643 39.009
60.345 78.286 39.579
61.042 79.160 38.278
61.046 78.989 38.439
60.796 75.041 41.675
62.007 76.053 40.739
61.813 75.570 41.067
61.304 75.844 41.146
62.133 77.113 39.732
62.175 76.431 40.391
61.778 76.397 40.600
61.823 76.238 40.732
61.056 76.813 40.574
61.771 76.746 40.320
61.898 78.269 38.669
62.032 77.645 39.231
61.694 77.599 39.464
61.901 77.333 39.672
61.075 77.805 39.625
61.620 77.907 39.196
62.076 79.035 37.876
61.918 78.696 38.252
61.490 78.685 38.453
61.605 78.457 38.628
61.158 78.589 38.752
61.522 78.822 38.330
61.818 79.130 37.946
62.562 76.272 40.294
63.290 76.335 39.872
63.059 75.826 40.446
62.611 75.651 40.833
62.355 75.816 40.860
62.742 77.276 39.250
63.563 77.466 38.730
63.762 76.681 39.344
62.238 76.268 40.546
62.742 76.428 40.211
62.660 76.005 40.606
62.687 78.356 38.244
63.521 78.577 37.709
63.668 77.911 38.281
62.159 77.481 39.364
62.311 77.768 38.992
62.969 77.137 39.403
63.174 79.324 35.356
63.213 79.129 34.891
63.238 79.021 34.880
63.282 79.135 35.221
62.976 79.090 37.298
63.253 79.301 36.626
63.486 78.965 37.240
61.884 78.584 38.368
62.359 78.663 38.130
62.250 78.312 38.475
63.319 79.325 35.038
63.378 79.598 35.487
63.180 79.542 36.281
63.232 79.374 35.851
62.781 79.394 37.192
63.357 79.720 36.543
62.865 79.119 37.543
63.632 79.867 35.939
64.016 76.024 39.887
63.658 75.683 40.440
63.125 75.703 40.681
63.954 75.813 40.362
64.350 77.007 38.840
64.302 76.402 39.385
64.028 76.289 39.956
63.797 78.557 34.221
64.088 78.609 33.899
64.279 78.448 33.936
64.064 78.508 34.452
63.519 78.766 34.689
63.820 78.846 35.185
64.097 78.159 37.827
64.285 77.533 38.380
63.981 77.490 38.556
63.930 77.348 38.786
63.159 77.896 38.532
63.911 77.852 38.276
64.332 76.699 39.418
63.553 78.910 34.441
64.308 78.932 33.840
63.411 79.279 35.346
63.556 79.212 36.472
63.921 78.780 37.198
63.781 78.712 37.480
64.074 78.528 37.529
63.370 78.615 37.783
63.568 78.991 37.337
63.758 79.293 34.489
63.544 79.535 35.100
63.991 79.590 34.630
63.253 79.386 35.417
63.392 79.413 35.649
63.400 79.447 36.959
63.886 79.743 36.310
64.010 80.362 41.737
64.135 80.376 41.651
64.181 80.115 41.867
64.371 79.989 42.008
64.044 79.838 35.189
64.090 79.989 35.769
63.966 80.661 41.457
64.344 80.839 41.118
64.136 80.627 41.365
64.106 80.442 41.719
63.960 80.725 41.465
64.117 80.858 41.280
64.695 75.691 40.088
65.359 75.695 39.807
65.409 75.506 40.095
65.121 75.556 40.249
64.864 76.225 39.368
65.414 76.422 38.897
65.680 75.908 39.389
64.995 75.811 40.159
64.809 77.244 38.378
65.305 77.506 37.785
65.594 76.801 38.335
65.064 76.405 39.528
64.814 76.188 39.860
65.363 76.001 39.902
64.922 78.591 33.418
64.915 78.463 34.037
64.577 78.498 34.937
65.232 78.443 34.762
64.648 78.259 37.313
64.950 78.450 36.648
65.397 77.921 37.125
64.357 77.389 38.542
64.589 77.682 38.157
64.931 77.069 38.723
64.947 78.825 33.365
64.911 78.366 35.047
65.081 78.362 35.052
63.839 79.172 35.925
64.613 78.781 35.877
64.889 78.545 35.345
64.003 79.086 36.798
64.415 79.318 36.136
64.844 78.707 36.673
65.046 78.179 37.465
64.733 79.614 42.061
64.978 79.636 41.714
65.363 79.130 42.114
65.586 78.737 42.571
65.230 79.030 42.521
65.649 78.624 42.788
64.283 79.342 34.138
65.012 79.121 33.600
65.012 78.386 35.172
64.347 79.850 35.889
64.466 80.267 41.510
64.698 80.555 41.050
65.154 79.970 41.244
65.206 79.264 42.480
64.694 79.972 42.088
64.569 79.574 34.374
64.790 79.722 34.815
64.570 79.878 35.418
65.218 81.006 40.675
64.066 80.611 41.546
64.288 80.733 41.405
64.624 80.411 41.739
64.744 81.008 41.075
64.964 83.813 36.017
65.128 83.698 35.805
65.171 83.646 36.039
65.203 83.678 36.221
65.007 83.801 36.003
65.952 75.567 39.820
65.644 75.461 40.160
65.614 75.564 40.169
66.187 76.163 38.894
66.304 75.761 39.303
65.613 75.740 40.069
65.800 77.104 37.700
66.316 76.497 38.310
65.730 75.887 39.883
65.684 76.269 39.436
65.676 78.602 32.888
66.278 78.653 32.476
65.777 78.586 33.115
66.159 78.726 33.063
65.845 78.701 34.030
65.410 78.455 36.225
66.035 78.374 35.830
66.125 77.920 36.260
65.945 77.443 37.028
65.596 77.559 37.528
65.675 77.439 38.023
65.226 77.681 37.844
65.767 77.879 37.534
66.078 76.825 38.684
65.996 78.297 42.899
66.278 78.232 42.843
66.393 78.043 42.965
66.178 78.189 42.991
65.625 78.761 32.927
66.350 78.751 32.437
66.003 78.949 33.454
65.925 79.104 34.356
65.335 78.563 35.244
66.217 78.598 35.133
66.493 78.894 34.696
65.134 78.936 35.789
66.000 78.910 35.462
65.887 78.667 36.075
65.828 78.395 36.960
65.699 79.275 41.714
66.206 78.572 42.460
65.920 78.524 42.886
65.991 78.936 32.962
65.398 79.325 34.052
66.351 79.085 34.994
65.372 79.409 35.072
64.768 79.595 35.682
65.619 80.466 40.626
66.121 79.682 41.078
65.917 78.842 42.737
65.650 79.594 42.351
65.833 81.055 40.238
66.296 81.363 39.899
66.349 80.860 40.035
65.942 80.357 41.902
65.250 80.872 41.377
66.041 81.493 40.148
66.564 81.787 39.607
65.913 81.349 40.697
66.255 81.690 40.201
65.514 83.399 35.583
65.928 83.199 34.904
65.995 83.101 35.250
66.117 82.975 35.882
65.557 83.346 36.124
66.064 82.987 36.621
65.567 83.389 36.493
66.126 82.982 37.104
66.539 81.890 39.817
65.673 83.379 35.309
65.372 83.593 35.981
66.035 83.250 35.868
66.003 83.235 36.762
65.872 75.509 40.068
66.762 75.907 38.795
67.065 75.529 39.417
66.131 75.719 39.799
67.147 75.654 39.557
66.452 76.879 37.306
67.089 76.273 37.871
66.641 76.214 38.614
66.979 76.069 39.083
66.394 76.194 39.098
66.891 76.521 38.665
66.461 78.674 32.489
66.746 78.205 35.558
67.040 77.769 35.860
66.740 77.330 36.449
66.996 77.451 37.950
66.573 78.125 37.286
66.813 77.963 42.792
66.740 77.930 42.957
66.437 78.136 43.002
66.727 78.699 32.127
66.925 78.705 31.991
66.806 78.681 32.093
66.788 78.716 32.175
66.438 78.793 32.632
67.376 78.808 34.819
67.473 78.493 35.057
66.742 78.786 35.927
67.028 78.924 35.440
66.922 78.500 36.637
66.852 78.889 41.759
66.893 78.219 42.441
66.554 78.225 42.758
66.533 78.194 42.928
66.268 78.383 42.872
66.677 78.569 42.745
66.707 78.756 32.221
67.262 78.966 34.976
66.614 80.156 40.395
67.265 79.534 40.959
66.835 79.593 42.363
66.922 81.520 39.578
67.168 80.635 39.688
67.076 80.343 41.918
66.463 80.941 41.353
66.731 82.694 35.203
67.164 82.591 34.572
67.624 82.259 34.823
67.390 82.162 35.715
66.820 82.524 35.931
67.337 82.215 36.323
66.837 82.027 39.047
66.952 82.044 38.536
67.111 81.825 39.256
67.087 81.462 40.574
66.639 81.780 40.126
66.476 82.977 34.356
67.118 82.776 33.949
67.080 82.723 34.174
66.267 83.053 34.951
66.662 82.906 34.379
67.109 82.727 34.860
66.686 82.933 35.715
67.152 82.679 35.823
67.133 82.738 36.353
66.871 82.520 36.555
66.713 82.432 37.472
66.680 82.591 38.050
66.886 82.210 39.143
67.227 82.568 38.486
66.937 82.047 39.628
66.372 83.041 34.461
66.780 82.979 36.682
66.934 82.867 37.620
67.761 75.278 39.742
67.990 75.217 39.570
68.299 75.098 39.766
68.255 75.135 39.875
67.607 75.752 38.586
68.169 75.370 39.125
67.993 75.343 39.793
67.926 75.698 39.490
67.325 76.800 36.743
67.978 76.800 36.393
68.129 76.440 37.029
68.049 76.020 37.870
67.987 76.170 38.979
68.063 76.748 38.403
67.867 78.178 35.461
68.023 77.372 35.892
68.271 77.808 37.548
68.139 78.322 36.880
67.388 78.106 37.270
68.368 77.248 37.997
67.268 77.936 42.545
67.792 78.156 42.147
67.623 77.724 42.664
68.003 77.841 42.755
67.005 77.999 42.913
66.938 78.709 32.001
68.499 78.842 34.527
68.309 78.458 35.098
67.863 78.667 36.001
67.925 78.858 35.298
68.306 79.120 41.533
67.878 78.777 42.584
68.412 79.079 34.696
67.549 79.938 40.234
68.428 79.601 40.891
67.812 79.691 42.199
67.641 81.213 38.263
68.083 80.983 37.725
68.050 80.701 38.365
67.859 80.572 38.974
67.321 81.468 39.093
67.827 80.127 39.630
67.748 80.246 41.866
67.651 80.778 41.376
67.909 82.462 33.688
68.552 82.303 33.238
68.778 82.085 33.351
68.371 82.106 34.058
67.584 82.456 34.180
68.392 81.851 34.816
68.035 81.811 35.482
68.076 81.445 36.535
67.448 81.937 37.108
67.189 81.814 38.125
67.429 82.217 39.207
68.283 82.093 39.212
67.847 82.489 38.605
67.509 81.897 39.417
67.663 81.703 39.816
67.167 81.854 39.727
68.131 81.319 40.654
68.082 82.500 33.617
67.175 82.774 34.139
68.052 82.523 34.259
68.093 82.484 35.047
67.729 82.414 36.039
67.279 82.514 36.297
67.620 82.472 36.698
67.511 82.721 38.086
67.439 82.733 36.955
67.478 82.789 37.502
68.775 75.101 39.486
68.817 75.063 39.772
68.532 75.173 39.863
68.778 75.704 38.456
68.934 75.261 39.072
68.526 75.388 39.733
69.120 75.746 39.432
68.686 76.837 36.323
69.268 76.567 36.964
68.873 76.170 37.649
69.108 76.295 38.617
69.106 76.691 38.161
68.699 77.146 42.597
68.685 77.455 42.241
69.221 76.931 42.341
69.229 76.757 42.564
69.056 76.843 42.665
69.210 76.768 42.664
68.546 78.169 35.345
68.940 78.334 34.863
69.286 77.750 35.376
69.178 77.222 35.898
69.241 78.037 37.264
68.973 78.445 36.574
69.360 77.347 37.936
69.040 78.181 41.720
69.076 77.108 42.678
68.994 77.948 42.621
69.271 78.823 34.384
68.245 78.591 35.471
68.712 78.794 35.308
68.780 78.570 35.853
69.197 79.083 41.442
68.841 78.991 42.287
69.624 80.212 32.552
69.735 80.540 32.213
69.770 80.217 32.324
69.608 79.879 32.963
69.429 79.989 33.131
69.276 79.392 33.780
69.084 79.602 33.910
69.231 79.268 34.717
69.245 79.528 34.247
68.651 80.235 38.364
69.115 80.155 37.722
69.562 79.709 38.025
69.300 79.598 39.018
68.466 79.932 39.330
68.960 79.538 39.979
68.227 79.791 39.999
69.386 79.293 40.905
68.887 79.421 41.336
69.022 79.401 41.736
68.389 79.875 41.660
68.989 79.903 41.349
69.592 80.564 32.707
69.432 80.403 33.380
69.357 80.083 33.967
68.671 80.602 37.454
68.936 80.673 36.696
69.074 80.344 37.322
68.895 81.189 40.675
68.596 80.695 41.164
69.429 80.648 40.911
69.128 81.983 32.940
69.446 81.641 33.080
69.212 81.679 33.658
69.168 81.645 34.297
68.798 81.288 35.484
69.137 82.218 37.918
68.459 82.394 38.363
69.060 82.119 38.700
69.204 81.878 39.266
68.789 81.629 39.998
68.850 82.213 33.172
69.023 82.142 33.694
68.882 82.291 34.745
68.686 82.332 35.614
68.178 82.536 37.481
68.924 82.270 36.717
67.936 82.632 38.042
69.328 75.116 39.271
69.624 75.339 38.941
69.922 75.063 39.496
70.107 75.272 39.766
69.170 75.218 39.734
69.791 75.943 38.419
70.311 75.876 39.775
69.733 77.015 36.427
70.349 76.871 37.121
69.852 76.378 37.816
69.260 76.172 38.149
69.636 76.585 38.354
69.863 76.377 39.074
69.785 77.076 41.846
69.722 76.714 42.328
69.461 76.773 42.587
70.017 77.012 42.455
69.805 78.317 34.849
70.320 77.868 35.392
70.210 77.505 36.025
69.926 78.266 37.023
69.577 78.556 36.539
70.455 77.756 37.737
70.190 77.083 38.614
69.870 77.854 41.444
70.416 78.079 41.006
70.403 77.327 41.292
69.980 78.125 42.429
69.742 79.135 34.443
69.630 78.751 36.336
69.351 78.898 35.902
69.703 78.780 41.284
70.217 78.749 40.587
69.608 78.916 42.139
69.850 80.480 32.029
69.905 80.335 32.211
69.870 80.069 32.764
69.702 79.618 33.814
69.410 79.254 34.184
69.506 79.912 34.679
69.504 79.304 35.639
69.436 80.077 37.132
69.716 79.847 36.587
69.884 79.575 37.252
70.100 79.294 37.812
70.061 79.216 38.590
69.927 79.128 39.725
69.349 79.473 41.444
69.743 79.707 41.282
69.703 79.204 41.677
69.684 81.061 32.434
69.832 80.805 32.042
69.609 81.171 33.147
69.484 80.947 33.803
69.481 81.102 34.506
69.656 79.779 35.893
69.403 80.384 35.892
70.467 81.691 37.730
69.931 81.762 38.543
70.899 81.184 38.043
69.714 81.490 39.652
70.547 81.122 39.199
69.421 81.247 40.354
70.150 80.880 40.248
70.095 80.366 40.890
69.781 81.107 32.160
69.619 81.464 32.524
69.565 81.468 33.465
69.551 81.710 33.754
69.568 81.646 33.214
69.864 81.314 33.681
69.498 81.456 33.919
69.821 81.567 34.347
70.115 81.912 36.749
69.907 81.984 37.520
70.405 81.811 37.299
69.370 81.847 32.943
69.584 81.958 34.521
69.635 82.048 35.649
70.828 75.356 38.949
71.323 74.944 39.493
71.006 74.951 39.851
70.948 75.304 40.152
71.521 74.969 40.230
70.973 76.018 38.323
70.983 76.147 40.484
71.473 75.306 40.717
70.571 76.344 41.937
71.091 75.803 41.491
71.340 75.754 41.683
71.098 76.377 42.104
70.594 77.449 36.886
71.214 77.402 37.430
71.094 76.644 37.750
71.077 76.978 40.286
70.698 76.794 39.640
71.134 77.422 40.775
70.757 76.451 41.297
71.184 75.699 41.077
70.966 77.282 42.310
70.523 78.185 35.109
70.886 78.092 35.487
70.991 77.930 36.010
70.220 78.617 37.031
71.087 77.793 36.873
70.610 78.014 37.176
70.833 78.185 37.816
70.956 78.028 38.585
70.866 77.589 39.031
71.067 78.375 40.539
71.094 78.293 41.805
70.773 78.040 42.302
71.178 77.750 42.208
70.462 78.715 34.861
70.928 78.437 35.304
69.867 79.035 36.436
70.153 79.142 37.174
70.427 78.872 37.899
71.040 78.360 38.953
70.659 78.742 38.981
71.174 78.569 39.931
70.656 78.739 39.966
70.326 78.677 42.083
70.518 79.249 41.471
69.936 80.639 32.093
70.019 80.444 32.536
70.135 80.144 33.384
70.423 79.572 34.413
69.873 79.447 36.526
70.399 79.929 41.101
69.863 81.037 32.194
69.985 80.840 32.406
70.097 80.771 33.070
70.477 80.538 34.173
71.037 81.168 36.393
70.771 81.500 37.082
71.270 80.837 37.051
71.466 80.502 37.761
71.295 80.549 38.694
70.985 80.466 39.736
70.666 80.246 40.582
69.812 81.307 32.758
70.227 81.647 35.143
70.437 81.200 34.662
70.534 81.619 36.115
70.832 81.182 35.585
71.766 75.130 39.231
72.016 74.980 39.572
71.802 74.898 39.921
71.976 75.107 40.464
71.812 75.622 38.905
72.207 75.286 39.376
71.837 75.456 41.189
71.436 75.453 41.270
71.681 75.913 41.747
71.658 76.537 41.939
71.689 76.923 37.837
71.909 76.463 38.412
71.334 77.647 40.162
71.975 77.181 41.281
71.582 77.364 41.859
72.026 76.684 41.551
71.364 78.524 35.976
71.652 78.242 36.769
71.866 77.862 37.453
72.042 77.279 38.032
71.194 78.119 39.493
71.397 78.307 40.259
71.445 77.978 40.585
71.590 77.910 41.065
71.872 77.459 40.700
71.817 78.029 40.444
71.096 79.126 35.371
71.559 79.249 36.212
71.859 79.044 37.031
72.150 78.506 37.604
71.644 78.726 40.246
71.520 78.413 40.617
71.253 78.821 40.823
71.009 80.023 35.152
71.400 79.758 35.916
71.615 79.965 36.866
72.161 79.097 37.918
71.826 79.794 38.030
71.654 79.881 39.181
72.135 79.269 38.671
71.337 79.645 40.203
71.958 79.154 39.543
70.867 79.661 40.912
70.896 80.712 35.115
71.253 80.533 36.021
72.311 75.272 39.932
72.396 75.954 39.365
72.517 75.905 40.146
72.295 75.609 40.688
72.074 76.030 41.395
72.430 77.076 39.025
72.545 76.544 39.878
72.326 76.557 40.766
72.354 78.019 38.351
72.451 77.933 39.234
72.347 77.431 40.006
72.336 78.739 38.296
72.340 78.629 38.986
72.186 78.367 39.774
3 2 1 0
3 0 3 2
3 0 1 4
3 4 1 5
3 3 0 6
3 6 0 4
3 9 8 7
3 11 10 7
3 10 4 7
3 5 9 7
3 5 7 4
3 4 10 6
3 14 13 12
3 14 12 8
3 12 7 8
3 12 15 7
3 11 7 16
3 16 7 15
3 19 18 17
3 19 17 13
3 17 12 13
3 17 20 12
3 22 15 21
3 15 20 21
3 15 12 20
3 15 22 16
3 18 23 17
3 17 23 20
3 20 23 24
3 20 24 21
3 25 1 2
3 3 25 2
3 27 26 25
3 26 1 25
3 26 5 1
3 25 3 27
3 3 28 27
3 3 6 28
3 30 29 9
3 9 29 8
3 10 11 31
3 32 31 11
3 26 9 5
3 9 26 30
3 6 10 28
3 28 10 31
3 34 33 14
3 14 33 13
3 14 8 29
3 14 29 34
3 16 32 11
3 16 35 32
3 37 36 19
3 19 36 18
3 19 13 33
3 19 33 37
3 39 38 22
3 39 22 21
3 16 22 35
3 35 22 38
3 42 41 40
3 40 43 23
3 36 40 23
3 18 36 23
3 40 36 42
3 23 43 44
3 45 23 44
3 24 23 45
3 21 24 39
3 39 24 45
3 41 46 40
3 40 46 43
3 43 46 47
3 43 47 44
3 48 26 27
3 28 48 27
3 50 49 30
3 30 49 29
3 30 26 50
3 48 50 26
3 50 48 51
3 31 51 48
3 51 31 32
3 31 48 28
3 53 52 34
3 34 52 33
3 49 54 29
3 54 55 29
3 56 29 55
3 29 56 34
3 57 34 56
3 34 57 54
3 54 53 34
3 49 53 54
3 54 57 55
3 55 51 56
3 51 35 56
3 51 32 35
3 59 58 37
3 37 58 36
3 52 60 33
3 60 61 33
3 62 33 61
3 33 62 37
3 63 37 62
3 37 63 60
3 60 59 37
3 52 59 60
3 60 63 61
3 62 61 57
3 62 57 56
3 39 62 56
3 38 39 56
3 38 56 35
3 65 64 42
3 42 64 41
3 58 66 36
3 66 67 36
3 68 36 67
3 36 68 42
3 69 42 68
3 42 69 66
3 66 65 42
3 58 65 66
3 66 69 67
3 68 67 63
3 68 63 62
3 44 68 62
3 45 44 62
3 45 62 39
3 64 70 41
3 41 70 46
3 68 47 69
3 47 70 69
3 47 46 70
3 47 68 44
3 73 72 71
3 49 50 71
3 50 73 71
3 50 74 73
3 50 51 74
3 74 51 75
3 78 77 76
3 78 76 72
3 72 76 71
3 76 52 71
3 52 53 71
3 80 79 57
3 80 53 79
3 53 80 71
3 81 71 80
3 71 81 49
3 79 49 81
3 81 55 79
3 79 55 57
3 53 49 79
3 51 55 75
3 75 55 81
3 84 83 82
3 84 82 77
3 77 82 76
3 82 58 76
3 58 59 76
3 86 85 63
3 86 59 85
3 59 86 76
3 87 76 86
3 76 87 52
3 85 52 87
3 87 61 85
3 85 61 63
3 59 52 85
3 57 61 80
3 80 61 87
3 90 89 88
3 88 91 90
3 94 93 92
3 94 92 83
3 83 92 82
3 92 64 82
3 64 65 82
3 96 95 69
3 96 65 95
3 65 96 82
3 97 82 96
3 82 97 58
3 95 58 97
3 97 67 95
3 95 67 69
3 65 58 95
3 63 67 86
3 86 67 97
3 89 98 88
3 98 99 88
3 99 100 88
3 101 91 88
3 101 88 100
3 103 102 100
3 102 92 100
3 93 101 100
3 93 100 92
3 92 102 64
3 102 70 64
3 102 104 70
3 69 70 96
3 96 70 104
3 99 105 100
3 100 105 103
3 107 106 73
3 73 106 72
3 109 107 108
3 107 74 108
3 107 73 74
3 75 108 74
3 111 110 78
3 78 110 77
3 78 72 106
3 78 106 111
3 109 108 81
3 80 109 81
3 112 109 80
3 81 108 75
3 115 114 113
3 117 116 113
3 113 116 115
3 117 118 116
3 120 119 84
3 84 119 83
3 110 121 77
3 121 122 77
3 123 77 122
3 77 123 84
3 124 84 123
3 84 124 121
3 121 120 84
3 110 120 121
3 121 124 122
3 87 86 123
3 122 87 123
3 125 87 122
3 80 87 112
3 112 87 125
3 113 114 126
3 126 114 127
3 126 89 90
3 117 126 90
3 113 126 117
3 90 91 117
3 91 118 117
3 91 128 118
3 130 129 94
3 94 129 93
3 119 131 83
3 131 132 83
3 133 83 132
3 83 133 94
3 134 94 133
3 94 134 131
3 131 130 94
3 119 130 131
3 131 134 132
3 133 132 124
3 133 124 123
3 96 133 123
3 97 96 123
3 97 123 86
3 127 135 126
3 135 137 136
3 135 136 98
3 126 135 98
3 89 126 98
3 139 138 101
3 139 99 138
3 99 139 136
3 128 136 139
3 136 128 98
3 138 98 128
3 128 91 138
3 138 91 101
3 99 98 138
3 102 103 140
3 141 140 103
3 129 101 93
3 101 129 139
3 133 104 134
3 104 140 134
3 104 102 140
3 104 133 96
3 144 143 142
3 142 145 144
3 137 146 136
3 136 146 99
3 146 105 99
3 146 147 105
3 103 105 141
3 141 105 147
3 150 149 148
3 152 151 148
3 151 142 148
3 143 150 148
3 143 148 142
3 142 151 145
3 149 153 148
3 148 153 152
3 156 155 154
3 154 157 156
3 160 159 158
3 160 158 155
3 155 158 154
3 158 106 154
3 106 107 154
3 107 109 154
3 109 157 154
3 109 161 157
3 164 163 162
3 164 162 159
3 159 162 158
3 162 110 158
3 110 111 158
3 106 158 111
3 167 166 165
3 167 161 166
3 161 112 166
3 161 109 112
3 169 168 115
3 115 168 114
3 171 169 170
3 169 116 170
3 169 115 116
3 118 170 116
3 174 173 172
3 174 172 163
3 163 172 162
3 172 119 162
3 119 120 162
3 176 175 124
3 176 120 175
3 120 176 162
3 177 162 176
3 162 177 110
3 175 110 177
3 177 122 175
3 175 122 124
3 120 110 175
3 166 125 165
3 125 177 165
3 125 122 177
3 125 166 112
3 168 127 114
3 178 127 168
3 171 170 179
3 171 179 180
3 128 181 118
3 182 118 181
3 118 182 170
3 183 170 182
3 170 183 179
3 184 130 172
3 130 184 129
3 181 129 184
3 185 181 184
3 181 185 182
3 186 182 185
3 182 186 173
3 172 173 186
3 184 172 186
3 130 119 172
3 134 184 132
3 186 132 184
3 132 186 187
3 124 132 176
3 176 132 187
3 190 189 188
3 192 191 188
3 188 191 190
3 192 193 191
3 135 127 194
3 127 195 194
3 127 178 195
3 179 196 180
3 137 135 194
3 128 139 181
3 179 183 196
3 181 139 129
3 141 184 140
3 184 141 185
3 197 185 141
3 140 184 134
3 200 199 198
3 200 198 189
3 189 198 188
3 198 143 188
3 143 144 188
3 192 188 201
3 188 145 201
3 145 202 201
3 145 188 144
3 192 201 193
3 195 203 194
3 194 203 137
3 203 146 137
3 203 204 146
3 146 205 147
3 204 205 146
3 141 147 197
3 197 147 205
3 198 199 150
3 199 149 150
3 199 206 149
3 208 207 152
3 208 150 207
3 150 208 198
3 209 198 208
3 198 209 143
3 207 143 209
3 209 151 207
3 207 151 152
3 150 143 207
3 145 151 202
3 202 151 209
3 206 210 149
3 149 210 153
3 152 153 208
3 208 153 210
3 213 212 211
3 211 214 213
3 212 215 211
3 211 215 214
3 217 216 156
3 156 216 155
3 156 157 217
3 217 157 218
3 220 219 160
3 160 219 159
3 160 155 216
3 160 216 220
3 161 218 157
3 161 221 218
3 223 222 164
3 164 222 163
3 164 159 219
3 164 219 223
3 225 224 167
3 225 167 165
3 161 167 221
3 221 167 224
3 228 227 226
3 226 168 228
3 168 169 228
3 230 229 228
3 230 228 169
3 171 230 169
3 233 232 231
3 173 174 231
3 174 233 231
3 174 234 233
3 222 235 163
3 235 236 163
3 237 163 236
3 163 237 174
3 238 174 237
3 174 238 235
3 235 234 174
3 222 234 235
3 235 238 236
3 177 176 237
3 236 177 237
3 239 177 236
3 165 177 225
3 225 177 239
3 242 241 240
3 240 243 242
3 226 227 244
3 244 227 245
3 244 168 226
3 168 244 178
3 229 230 246
3 247 246 230
3 180 248 171
3 249 171 248
3 171 249 230
3 250 230 249
3 230 250 247
3 251 182 231
3 182 251 183
3 248 183 251
3 252 248 251
3 248 252 249
3 253 249 252
3 249 253 232
3 231 232 253
3 251 231 253
3 182 173 231
3 185 251 186
3 253 186 251
3 186 253 254
3 237 187 238
3 187 254 238
3 187 186 254
3 187 237 176
3 256 255 190
3 190 255 189
3 191 240 241
3 256 191 241
3 190 191 256
3 191 193 240
3 193 243 240
3 193 257 243
3 245 258 244
3 178 244 195
3 258 195 244
3 195 258 259
3 246 259 258
3 259 246 247
3 248 180 196
3 250 260 247
3 261 247 260
3 247 261 259
3 248 196 183
3 260 252 261
3 251 261 252
3 261 251 262
3 197 262 185
3 185 262 251
3 264 263 200
3 200 263 199
3 200 189 255
3 200 255 264
3 266 265 201
3 266 201 202
3 193 201 257
3 257 201 265
3 259 203 195
3 203 259 204
3 204 259 261
3 204 261 205
3 205 261 262
3 205 262 197
3 269 268 267
3 263 269 267
3 206 263 267
3 199 263 206
3 271 270 209
3 271 209 208
3 202 209 266
3 266 209 270
3 267 268 272
3 272 268 273
3 267 272 206
3 272 274 206
3 274 210 206
3 272 275 274
3 208 210 271
3 271 210 274
3 278 277 276
3 280 279 276
3 276 279 278
3 282 281 280
3 280 281 279
3 282 283 281
3 273 284 272
3 272 284 275
3 277 285 276
3 287 286 285
3 212 285 286
3 285 212 276
3 213 276 212
3 276 213 280
3 288 286 287
3 286 288 214
3 282 214 288
3 214 282 213
3 280 213 282
3 282 288 283
3 286 215 212
3 215 286 214
3 289 216 217
3 218 289 217
3 291 290 220
3 220 290 219
3 291 220 216
3 292 291 216
3 289 292 216
3 291 292 293
3 221 292 218
3 218 292 289
3 295 294 223
3 223 294 222
3 290 296 219
3 296 297 219
3 298 219 297
3 219 298 223
3 299 223 298
3 223 299 296
3 296 295 223
3 290 295 296
3 296 299 297
3 298 297 293
3 298 293 292
3 225 298 292
3 224 225 292
3 224 292 221
3 300 227 228
3 229 300 228
3 302 301 233
3 233 301 232
3 303 233 234
3 303 302 233
3 236 238 304
3 305 304 238
3 294 234 222
3 234 294 303
3 298 239 299
3 239 304 299
3 239 236 304
3 239 298 225
3 307 306 242
3 242 306 241
3 242 243 307
3 307 243 308
3 311 310 309
3 227 309 245
3 309 227 311
3 300 311 227
3 311 300 312
3 313 312 300
3 246 313 229
3 229 313 300
3 315 314 249
3 249 314 250
3 253 252 316
3 317 316 252
3 301 249 232
3 249 301 315
3 253 318 254
3 316 318 253
3 238 254 305
3 305 254 318
3 320 319 256
3 256 319 255
3 306 321 241
3 321 322 241
3 323 241 322
3 241 323 256
3 324 256 323
3 256 324 321
3 321 320 256
3 306 320 321
3 321 324 322
3 322 308 323
3 308 257 323
3 308 243 257
3 310 325 309
3 312 313 325
3 313 258 325
3 245 309 325
3 245 325 258
3 258 313 246
3 314 326 250
3 250 326 260
3 252 260 317
3 317 260 326
3 328 327 264
3 264 327 263
3 264 255 319
3 264 319 328
3 324 323 265
3 266 324 265
3 329 324 266
3 265 323 257
3 331 330 269
3 269 330 268
3 269 263 327
3 269 327 331
3 333 332 270
3 333 270 271
3 266 270 329
3 329 270 332
3 336 335 334
3 338 337 334
3 334 337 336
3 338 339 337
3 342 341 340
3 330 342 340
3 273 330 340
3 268 330 273
3 344 343 274
3 344 274 275
3 271 274 333
3 333 274 343
3 347 346 345
3 348 278 334
3 278 348 277
3 345 277 348
3 349 345 348
3 345 349 347
3 350 347 349
3 347 350 335
3 334 335 350
3 348 334 350
3 352 351 350
3 348 350 351
3 334 279 338
3 279 334 278
3 352 353 351
3 339 338 354
3 279 354 338
3 354 279 281
3 356 355 283
3 355 281 283
3 355 354 281
3 358 357 356
3 357 340 356
3 341 355 356
3 341 356 340
3 340 357 273
3 357 284 273
3 357 359 284
3 275 284 344
3 344 284 359
3 346 360 345
3 349 348 360
3 348 285 360
3 277 345 360
3 277 360 285
3 285 348 287
3 287 348 351
3 353 361 351
3 361 287 351
3 361 288 287
3 283 288 356
3 288 362 356
3 288 361 362
3 356 362 358
3 365 364 363
3 363 366 365
3 368 367 291
3 291 367 290
3 291 364 368
3 364 291 363
3 293 363 291
3 363 293 369
3 370 369 293
3 363 369 366
3 373 372 371
3 294 295 371
3 295 373 371
3 295 374 373
3 297 299 375
3 376 375 299
3 367 295 290
3 295 367 374
3 293 297 370
3 370 297 375
3 378 377 302
3 302 377 301
3 381 380 379
3 378 371 372
3 371 378 303
3 302 303 378
3 303 294 371
3 305 381 304
3 379 304 381
3 304 379 382
3 299 304 376
3 376 304 382
3 385 384 383
3 383 306 385
3 306 307 385
3 387 386 385
3 387 385 307
3 308 387 307
3 388 310 311
3 312 388 311
3 390 389 315
3 315 389 314
3 316 317 391
3 392 391 317
3 377 315 301
3 315 377 390
3 381 318 380
3 318 391 380
3 318 316 391
3 318 381 305
3 383 384 320
3 384 319 320
3 384 393 319
3 383 320 306
3 324 387 322
3 387 324 386
3 394 386 324
3 322 387 308
3 388 325 310
3 325 388 312
3 389 395 314
3 314 395 326
3 317 326 392
3 392 326 395
3 397 396 328
3 328 396 327
3 328 319 393
3 328 393 397
3 329 394 324
3 329 398 394
3 401 400 399
3 403 402 399
3 399 402 401
3 330 331 403
3 331 402 403
3 331 404 402
3 331 327 396
3 331 396 404
3 406 405 332
3 406 332 333
3 329 332 398
3 398 332 405
3 409 408 407
3 411 410 407
3 407 410 409
3 335 336 411
3 336 410 411
3 336 412 410
3 413 336 337
3 413 412 336
3 415 414 339
3 414 337 339
3 414 413 337
3 414 415 400
3 415 399 400
3 415 416 399
3 419 418 417
3 403 341 342
3 341 403 416
3 399 416 403
3 421 420 418
3 421 403 420
3 403 421 330
3 422 330 421
3 330 422 342
3 420 342 422
3 422 417 420
3 420 417 418
3 403 342 420
3 343 344 422
3 421 343 422
3 423 343 421
3 333 343 406
3 406 343 423
3 408 424 407
3 426 425 424
3 346 424 425
3 424 346 407
3 347 407 346
3 407 347 411
3 347 335 411
3 349 425 350
3 426 350 425
3 350 426 427
3 350 428 352
3 427 428 350
3 428 429 352
3 428 339 429
3 339 428 415
3 430 415 428
3 415 430 354
3 429 354 430
3 430 353 429
3 429 353 352
3 339 354 429
3 415 354 355
3 415 355 416
3 416 355 341
3 358 417 357
3 417 358 419
3 431 419 358
3 357 417 359
3 359 417 422
3 359 422 344
3 425 360 346
3 360 425 349
3 430 432 353
3 353 432 361
3 361 433 362
3 432 433 361
3 358 362 431
3 431 362 433
3 435 434 365
3 365 434 364
3 365 366 435
3 435 366 436
3 438 437 368
3 368 437 367
3 369 370 439
3 440 439 370
3 434 368 364
3 368 434 438
3 366 369 436
3 436 369 439
3 442 441 373
3 373 441 372
3 443 373 374
3 443 442 373
3 375 376 444
3 445 444 376
3 437 374 367
3 374 437 443
3 370 375 440
3 440 375 444
3 448 447 446
3 450 449 446
3 446 449 448
3 450 451 449
3 454 453 452
3 377 378 452
3 378 454 452
3 378 455 454
3 379 380 456
3 457 456 380
3 441 378 372
3 378 441 455
3 379 458 382
3 456 458 379
3 376 382 445
3 445 382 458
3 446 447 385
3 447 384 385
3 447 459 384
3 450 446 460
3 446 386 460
3 386 461 460
3 386 446 385
3 450 460 451
3 452 453 390
3 453 389 390
3 453 462 389
3 464 463 392
3 464 390 463
3 390 464 452
3 465 452 464
3 452 465 377
3 463 377 465
3 465 391 463
3 463 391 392
3 390 377 463
3 380 391 457
3 457 391 465
3 459 393 384
3 466 393 459
3 394 461 386
3 394 467 461
3 470 469 468
3 472 471 468
3 468 471 470
3 474 473 472
3 472 473 471
3 395 476 475
3 476 395 474
3 389 474 395
3 474 389 473
3 462 473 389
3 392 395 464
3 464 395 475
3 479 478 477
3 481 480 477
3 477 480 479
3 483 482 481
3 481 482 480
3 396 397 483
3 397 482 483
3 397 484 482
3 466 485 393
3 485 486 393
3 487 393 486
3 393 487 397
3 488 397 487
3 397 488 485
3 485 484 397
3 466 484 485
3 485 488 486
3 486 467 487
3 467 398 487
3 467 394 398
3 469 489 468
3 468 489 472
3 472 489 490
3 472 490 474
3 474 490 491
3 474 491 476
3 494 493 492
3 494 492 478
3 478 492 477
3 492 400 477
3 400 401 477
3 477 401 402
3 477 402 481
3 481 402 404
3 481 404 483
3 396 483 404
3 497 496 495
3 496 497 488
3 496 488 487
3 406 496 487
3 405 406 487
3 405 487 398
3 499 498 409
3 409 498 408
3 500 409 410
3 500 499 409
3 501 410 412
3 501 500 410
3 502 412 413
3 502 501 412
3 414 492 493
3 502 414 493
3 413 414 502
3 400 492 414
3 505 504 503
3 418 419 504
3 505 418 504
3 506 418 505
3 418 507 421
3 506 507 418
3 496 423 495
3 423 507 495
3 423 421 507
3 423 496 406
3 498 508 408
3 408 508 424
3 424 509 426
3 508 509 424
3 426 510 427
3 509 510 426
3 427 511 428
3 510 511 427
3 513 512 430
3 428 513 430
3 511 513 428
3 512 513 503
3 504 512 503
3 514 512 504
3 431 514 419
3 419 514 504
3 512 432 430
3 432 512 433
3 433 512 514
3 433 514 431
3 517 516 515
3 515 434 517
3 434 435 517
3 519 518 517
3 519 517 435
3 436 519 435
3 515 516 438
3 516 437 438
3 516 520 437
3 515 438 434
3 440 519 439
3 519 440 518
3 521 518 440
3 439 519 436
3 523 522 442
3 442 522 441
3 524 442 443
3 524 523 442
3 520 525 437
3 520 444 525
3 444 520 526
3 524 526 520
3 526 524 445
3 525 445 524
3 524 443 525
3 525 443 437
3 444 445 525
3 526 527 444
3 527 440 444
3 527 521 440
3 529 528 448
3 448 528 447
3 531 529 530
3 529 449 530
3 529 448 449
3 451 530 449
3 533 532 454
3 454 532 453
3 534 454 455
3 534 533 454
3 456 457 535
3 536 535 457
3 522 455 441
3 455 522 534
3 456 537 458
3 535 537 456
3 445 458 526
3 458 538 526
3 458 537 538
3 526 538 527
3 541 540 539
3 528 541 539
3 459 528 539
3 447 528 459
3 531 530 460
3 461 531 460
3 542 531 461
3 460 530 451
3 532 462 453
3 543 462 532
3 545 544 465
3 545 465 464
3 457 465 536
3 536 465 544
3 539 540 546
3 546 540 547
3 546 466 459
3 546 459 539
3 467 542 461
3 467 548 542
3 550 549 470
3 470 549 469
3 551 470 471
3 551 550 470
3 552 471 473
3 552 551 471
3 543 553 462
3 543 475 553
3 475 543 554
3 552 554 543
3 554 552 476
3 553 476 552
3 552 473 553
3 553 473 462
3 475 476 553
3 554 555 475
3 555 464 475
3 555 545 464
3 558 557 556
3 478 479 556
3 479 558 556
3 479 559 558
3 560 479 480
3 560 559 479
3 561 480 482
3 561 560 480
3 484 546 547
3 561 484 547
3 482 484 561
3 563 562 488
3 563 484 562
3 484 563 546
3 564 546 563
3 546 564 466
3 562 466 564
3 564 486 562
3 562 486 488
3 484 466 562
3 467 486 548
3 548 486 564
3 489 469 565
3 469 566 565
3 469 549 566
3 567 490 489
3 567 489 565
3 568 491 490
3 568 490 567
3 554 476 491
3 568 554 491
3 569 554 568
3 555 554 570
3 554 571 570
3 554 569 571
3 570 571 557
3 557 571 556
3 571 493 556
3 493 494 556
3 478 556 494
3 574 573 572
3 576 575 573
3 576 573 574
3 578 577 575
3 578 575 576
3 497 495 577
3 578 497 577
3 579 497 578
3 488 497 563
3 563 497 579
3 566 580 565
3 581 498 499
3 565 581 499
3 567 565 499
3 580 581 565
3 500 582 499
3 582 583 499
3 584 499 583
3 499 584 567
3 585 567 584
3 567 585 582
3 582 568 567
3 500 568 582
3 582 585 583
3 501 586 500
3 501 583 586
3 583 501 587
3 569 587 501
3 587 569 585
3 586 585 569
3 569 568 586
3 586 568 500
3 583 585 586
3 569 501 502
3 569 502 571
3 493 571 502
3 590 589 588
3 589 590 572
3 589 572 573
3 503 589 573
3 505 503 573
3 505 573 506
3 506 573 575
3 506 575 507
3 507 575 577
3 507 577 495
3 581 591 498
3 498 591 508
3 583 509 584
3 509 591 584
3 509 508 591
3 587 592 583
3 592 509 583
3 592 510 509
3 510 593 511
3 592 593 510
3 589 513 588
3 513 593 588
3 513 511 593
3 513 589 503
3 595 594 517
3 517 594 516
3 597 596 518
3 596 517 518
3 596 595 517
3 597 598 596
3 594 520 516
3 599 520 594
3 521 600 597
3 521 597 518
3 598 597 601
3 601 597 600
3 604 603 602
3 602 605 604
3 606 522 523
3 606 523 607
3 523 608 607
3 523 524 608
3 524 520 599
3 524 599 608
3 610 609 600
3 521 610 600
3 527 610 521
3 609 611 600
3 611 612 600
3 613 601 600
3 613 600 612
3 613 612 603
3 603 612 602
3 612 528 602
3 528 529 602
3 529 531 602
3 531 605 602
3 531 614 605
3 615 532 533
3 615 533 616
3 533 617 616
3 533 534 617
3 535 536 618
3 522 606 534
3 619 534 606
3 534 619 617
3 535 620 537
3 620 606 537
3 607 537 606
3 537 607 621
3 619 621 607
3 621 619 620
3 620 618 621
3 535 618 620
3 620 619 606
3 537 621 622
3 623 537 622
3 538 537 623
3 527 538 610
3 610 538 623
3 612 611 541
3 611 540 541
3 611 624 540
3 528 612 541
3 627 626 625
3 627 614 626
3 614 542 626
3 614 531 542
3 629 628 615
3 628 532 615
3 628 543 532
3 544 545 630
3 615 616 629
3 618 536 544
3 630 618 544
3 631 618 630
3 618 632 621
3 618 631 632
3 622 621 633
3 621 634 633
3 621 632 634
3 636 635 634
3 634 635 633
3 624 635 636
3 547 624 636
3 540 624 547
3 625 626 637
3 625 637 638
3 548 637 542
3 542 637 626
3 639 549 550
3 551 640 550
3 550 640 639
3 552 641 551
3 551 641 640
3 642 641 552
3 543 642 552
3 628 642 543
3 555 643 630
3 555 630 545
3 643 557 558
3 631 643 558
3 630 643 631
3 631 558 559
3 631 559 632
3 632 559 560
3 632 560 634
3 634 560 561
3 634 561 636
3 636 561 547
3 638 637 564
3 563 638 564
3 644 638 563
3 564 637 548
3 645 566 639
3 639 566 549
3 646 639 640
3 645 639 646
3 647 640 641
3 646 640 647
3 641 642 648
3 641 648 647
3 570 643 555
3 557 643 570
3 651 650 649
3 574 572 650
3 651 574 650
3 652 574 651
3 574 653 576
3 652 653 574
3 576 654 578
3 653 654 576
3 578 655 579
3 654 655 578
3 563 579 644
3 644 579 655
3 645 580 566
3 580 645 581
3 645 656 581
3 645 646 656
3 584 656 585
3 656 647 585
3 656 646 647
3 658 657 587
3 658 587 585
3 648 658 585
3 647 648 585
3 660 659 657
3 660 657 658
3 659 660 649
3 659 649 650
3 588 659 650
3 590 588 650
3 590 650 572
3 656 591 581
3 591 656 584
3 657 592 587
3 592 657 593
3 593 657 659
3 593 659 588
3 661 594 595
3 661 595 662
3 595 663 662
3 595 596 663
3 596 598 663
3 663 598 664
3 666 665 661
3 665 594 661
3 665 599 594
3 666 661 662
3 601 668 667
3 664 601 667
3 598 601 664
3 603 604 668
3 604 667 668
3 604 669 667
3 604 605 669
3 669 605 670
3 671 607 608
3 672 671 608
3 599 672 608
3 665 672 599
3 610 673 609
3 613 668 601
3 611 609 673
3 603 668 613
3 676 675 674
3 676 670 675
3 670 614 675
3 670 605 614
3 677 616 617
3 619 678 617
3 617 678 677
3 679 678 619
3 679 619 607
3 680 679 607
3 671 680 607
3 623 622 681
3 671 672 680
3 673 610 623
3 681 673 623
3 682 673 681
3 611 683 624
3 611 684 683
3 684 611 685
3 673 685 611
3 685 673 686
3 683 686 673
3 673 682 683
3 683 682 624
3 684 686 683
3 684 685 674
3 684 674 675
3 625 684 675
3 627 625 675
3 627 675 614
3 687 628 629
3 616 677 629
3 677 687 629
3 677 688 687
3 689 677 678
3 688 677 689
3 678 679 690
3 678 690 689
3 633 681 622
3 681 633 635
3 681 635 682
3 686 692 691
3 692 682 691
3 635 691 682
3 691 635 693
3 624 693 635
3 693 624 692
3 692 684 693
3 686 684 692
3 692 624 682
3 638 693 625
3 625 693 684
3 694 642 687
3 687 642 628
3 695 687 688
3 694 687 695
3 696 688 689
3 695 688 696
3 689 690 697
3 698 689 697
3 696 689 698
3 700 699 698
3 700 698 697
3 702 701 699
3 702 699 700
3 701 702 691
3 693 701 691
3 703 701 693
3 644 703 638
3 638 703 693
3 704 648 694
3 694 648 642
3 705 694 695
3 704 694 705
3 649 705 651
3 705 696 651
3 705 695 696
3 651 696 652
3 652 696 698
3 652 698 653
3 653 698 699
3 653 699 654
3 654 699 701
3 654 701 655
3 655 701 703
3 655 703 644
3 704 658 648
3 658 704 660
3 660 704 705
3 660 705 649
3 706 662 663
3 664 706 663
3 707 665 666
3 662 706 666
3 706 707 666
3 706 708 707
3 667 709 664
3 709 706 664
3 709 708 706
3 669 710 667
3 667 710 709
3 670 710 669
3 711 672 707
3 707 672 665
3 712 707 708
3 711 707 712
3 713 708 709
3 712 708 713
3 674 713 676
3 713 710 676
3 713 709 710
3 676 710 670
3 714 679 680
3 672 711 680
3 711 714 680
3 711 715 714
3 716 711 712
3 715 711 716
3 686 716 685
3 716 713 685
3 716 712 713
3 685 713 674
3 717 690 714
3 714 690 679
3 718 714 715
3 717 714 718
3 719 715 716
3 718 715 719
3 691 719 686
3 686 719 716
3 717 697 690
3 697 717 700
3 700 717 718
3 700 718 702
3 702 718 719
3 702 719 691
