ply
format ascii 1.0
comment None
element vertex 676
property float x
property float y
property float z
element face 1396
property list uchar int vertex_indices
end_header
45.886 38.521 46.396
46.068 38.339 45.492
46.387 37.807 45.941
46.134 37.915 47.077
45.681 38.372 47.519
45.980 37.840 48.133
45.576 38.253 48.585
46.046 37.745 49.162
45.589 38.186 49.649
46.157 37.713 50.147
45.669 38.181 50.640
46.157 37.781 50.984
45.804 38.204 51.420
46.133 37.907 51.532
46.020 39.034 45.546
46.215 39.055 44.744
46.100 38.570 44.874
45.835 39.269 46.297
45.619 39.127 47.079
45.400 39.005 48.117
45.288 38.925 49.237
45.314 38.885 50.351
45.489 38.863 51.343
46.026 38.211 51.854
45.831 38.764 52.023
46.360 38.527 52.226
46.414 39.552 45.166
46.143 39.713 45.912
46.685 40.023 45.680
45.885 39.905 46.704
45.515 39.867 47.715
45.250 39.854 48.880
45.141 39.810 50.096
45.248 39.772 51.235
45.602 39.734 52.261
46.201 39.371 52.715
46.340 40.179 46.216
46.271 40.508 46.695
45.878 40.558 47.332
46.206 40.836 47.078
45.498 40.897 48.494
45.153 40.887 49.871
45.127 40.821 51.095
45.360 40.750 52.143
45.948 40.079 52.993
45.768 40.711 52.933
46.280 40.605 53.356
46.160 41.303 47.650
45.681 41.804 48.590
45.283 42.107 49.725
45.663 42.627 49.043
45.112 41.975 51.014
45.277 41.839 52.086
45.687 41.665 52.905
46.267 41.416 53.408
45.293 43.383 50.083
45.763 43.556 49.334
45.116 43.186 51.061
45.247 43.009 52.095
45.666 42.770 52.920
46.300 42.419 53.441
45.356 44.376 50.213
45.801 44.351 49.584
45.124 44.335 51.128
45.215 44.193 52.132
45.647 43.959 52.994
46.339 43.572 53.517
45.546 45.010 50.142
45.258 45.382 51.024
45.729 45.750 50.369
45.188 45.252 52.062
45.586 45.172 53.066
46.339 44.791 53.733
45.474 46.361 51.161
46.007 46.589 50.575
45.279 46.136 51.950
45.385 45.922 52.708
46.117 45.569 53.792
45.854 46.088 53.426
46.488 45.947 54.085
45.772 46.949 51.164
46.231 47.174 50.811
45.561 46.817 51.794
45.577 46.577 52.643
45.949 46.568 53.221
46.446 46.289 53.801
46.141 47.265 51.437
45.833 47.003 52.190
45.939 46.843 52.719
46.783 36.321 40.715
47.093 36.476 40.095
47.350 35.921 40.335
47.210 35.837 41.132
46.557 36.267 41.531
46.866 36.020 42.050
46.484 36.312 42.388
46.802 36.151 42.727
46.693 36.440 43.230
47.089 36.383 43.353
46.701 37.105 40.401
47.210 37.293 39.703
46.398 36.961 41.178
46.259 36.886 42.070
46.331 36.878 43.009
47.173 36.656 44.017
46.655 36.985 44.067
47.205 36.879 44.654
46.824 38.006 40.169
47.172 38.278 39.681
46.505 37.853 40.883
46.288 37.735 41.777
46.202 37.648 42.793
46.271 37.524 43.679
46.916 37.275 45.210
46.318 37.825 44.730
46.897 37.476 45.955
46.797 37.688 46.760
46.444 37.725 47.860
46.463 37.633 48.840
46.965 37.515 49.876
46.927 37.531 50.728
46.650 37.757 51.420
46.371 38.029 51.841
46.986 38.154 51.951
47.038 38.711 40.014
46.818 38.671 40.572
47.184 39.165 40.207
46.609 38.598 41.414
46.424 38.513 42.486
46.281 38.486 43.842
47.368 38.729 47.520
47.424 38.391 47.299
47.560 38.600 47.028
47.048 39.071 48.237
47.176 38.377 47.726
46.694 39.161 49.342
46.870 38.415 48.600
46.587 39.333 50.259
47.006 38.415 49.751
46.926 38.977 50.520
47.124 38.992 52.590
47.189 39.284 40.870
46.933 39.150 41.967
46.755 39.135 43.131
46.617 39.317 44.251
47.075 39.663 44.851
47.343 40.053 45.754
47.477 39.411 47.235
47.129 39.768 48.145
47.041 40.152 48.439
46.781 39.916 48.993
46.468 40.012 50.048
46.747 39.456 50.805
46.586 40.014 50.834
47.214 39.717 51.223
46.746 39.690 53.093
46.333 40.006 53.215
46.886 40.315 53.378
46.855 40.470 46.278
46.598 40.897 46.887
47.161 40.774 46.738
47.011 40.618 48.811
46.875 41.012 49.342
46.604 40.827 49.823
46.467 40.842 50.816
47.088 40.583 51.549
46.964 41.073 53.561
46.904 41.301 47.258
46.631 41.983 47.810
47.350 41.777 47.618
46.050 42.101 48.257
46.952 41.557 49.748
46.990 42.344 50.344
46.548 41.922 50.871
46.622 41.537 51.539
47.056 41.945 53.655
47.017 42.617 48.045
47.680 42.419 47.877
46.264 42.773 48.486
46.827 42.928 51.059
47.126 42.876 50.577
46.579 42.266 51.701
46.724 42.930 51.747
47.118 42.659 52.224
47.204 43.003 53.698
47.425 43.029 48.190
46.619 43.701 48.800
47.692 43.562 48.571
47.378 43.523 50.815
47.335 44.583 51.411
46.997 43.931 51.868
47.323 43.609 52.628
47.270 44.261 53.801
47.030 44.630 49.122
47.833 44.382 49.021
46.146 44.923 49.594
47.035 45.129 52.317
47.292 45.735 51.644
47.163 44.590 52.893
47.194 45.105 54.169
46.632 45.494 54.141
47.201 45.708 54.418
47.371 45.218 49.333
46.603 45.792 49.802
47.494 46.022 49.698
46.807 46.160 52.606
46.983 46.609 51.838
47.064 45.476 53.221
46.927 46.059 54.300
46.814 46.932 50.237
47.570 47.123 50.037
46.437 46.992 52.109
47.028 47.139 51.475
46.887 46.077 53.636
46.343 46.580 53.090
47.037 46.096 54.178
47.226 47.558 50.278
47.557 47.713 50.197
46.812 47.579 50.702
46.895 47.554 51.172
47.356 47.875 50.413
47.205 47.872 50.696
47.844 36.163 39.641
48.183 35.413 40.387
47.856 35.776 41.272
48.366 35.528 40.928
47.415 36.109 42.003
47.222 36.299 42.829
47.737 37.101 39.178
48.022 37.477 38.775
48.271 36.639 38.932
48.260 35.967 41.348
48.589 36.704 41.498
47.955 36.570 42.004
47.671 36.871 42.943
47.693 36.967 44.081
47.705 36.878 44.751
47.990 36.986 44.763
47.486 37.032 45.183
47.854 37.094 45.317
47.606 38.095 39.149
48.142 38.327 38.528
48.138 37.431 42.185
47.992 38.181 42.636
47.914 37.617 42.852
47.840 38.026 43.938
48.121 37.277 45.011
48.024 37.910 45.063
48.212 37.583 45.350
47.475 37.417 45.876
47.423 38.051 46.849
47.880 37.822 46.042
46.884 37.947 47.755
46.720 37.890 48.708
47.015 37.730 49.483
48.196 37.673 50.330
48.238 37.361 50.656
47.599 37.727 51.354
48.013 38.359 51.993
47.849 38.943 38.949
48.215 39.314 38.563
47.505 39.092 39.569
47.839 38.563 43.357
47.743 38.954 44.093
47.505 39.387 44.297
47.688 39.124 45.058
48.121 37.840 45.660
47.817 38.576 46.158
47.225 39.163 50.927
47.714 38.563 50.656
48.123 39.071 51.214
48.320 39.294 52.553
48.015 39.593 39.086
48.464 39.988 38.684
47.907 39.729 39.554
47.613 39.578 40.078
47.886 39.645 40.493
47.594 39.407 41.388
47.356 39.301 42.468
47.236 39.403 43.666
47.678 39.842 46.183
47.622 40.225 46.070
47.515 40.339 46.799
47.669 40.281 46.325
47.353 40.430 47.823
48.307 39.866 51.729
47.497 39.855 53.055
47.857 40.681 53.337
48.343 39.988 39.248
47.473 40.415 46.269
47.366 40.987 47.275
47.612 41.263 47.783
47.487 41.043 48.328
47.238 41.184 48.981
47.681 41.435 48.620
48.158 40.517 52.306
47.341 41.296 52.090
48.249 40.920 52.540
47.766 41.446 53.606
47.886 41.908 47.866
47.575 41.714 49.144
47.420 42.115 49.705
48.091 42.396 49.282
46.920 41.996 52.012
47.899 41.885 52.392
48.116 42.235 53.652
48.091 42.407 48.009
47.913 42.838 48.116
48.303 42.834 48.414
47.661 42.788 50.025
48.454 43.052 49.503
48.267 42.886 52.773
48.382 43.431 53.656
48.397 43.514 48.897
48.284 43.494 49.928
47.810 44.147 50.696
48.254 44.273 50.287
48.241 43.741 53.357
47.587 44.143 53.380
48.373 44.243 49.275
47.886 45.054 49.327
48.156 45.285 49.595
47.784 44.951 50.938
48.159 45.186 50.461
47.529 44.909 53.699
47.919 44.731 54.006
48.215 44.768 53.942
47.932 45.261 54.396
47.714 45.721 54.629
47.916 45.645 54.658
47.970 46.336 49.904
47.770 45.770 50.978
47.485 46.645 51.171
47.358 45.569 53.830
48.017 45.214 54.081
47.840 45.764 54.682
47.553 45.843 54.507
47.929 47.084 50.080
47.798 47.572 50.169
47.946 47.326 50.258
47.394 47.438 50.972
47.479 45.787 54.178
47.658 47.874 50.297
47.792 47.703 50.381
47.360 47.816 50.784
47.542 47.927 50.507
48.671 35.034 40.009
48.669 35.305 39.726
48.872 34.968 39.897
48.954 35.042 40.118
48.617 35.880 39.227
48.993 35.360 40.612
48.673 35.784 41.083
49.247 35.909 41.004
48.615 37.285 38.400
49.019 36.260 38.755
49.224 37.689 40.965
48.836 37.537 41.315
49.454 36.762 41.078
48.060 37.069 45.105
48.999 37.096 50.434
49.366 36.969 50.416
49.352 36.944 50.436
49.192 37.113 50.599
48.586 38.119 38.095
48.888 38.437 37.815
49.123 37.637 37.920
48.695 38.450 41.103
49.292 38.271 40.611
48.280 38.080 41.905
48.078 37.400 45.516
49.265 37.231 50.498
49.333 37.686 50.751
49.018 37.343 50.849
48.788 37.788 51.308
49.159 38.622 51.960
48.510 38.906 38.100
49.036 39.286 37.666
48.949 38.905 40.482
49.303 38.674 40.309
49.257 39.035 40.070
48.344 39.311 40.769
47.996 39.015 41.744
47.764 38.926 42.801
47.638 39.172 43.675
49.158 38.266 51.079
49.377 38.873 51.507
49.157 39.259 52.389
48.634 39.790 38.140
49.080 40.385 37.642
48.153 39.875 39.819
48.822 39.375 40.204
48.495 39.713 40.075
47.693 40.267 46.181
49.557 39.744 51.889
48.248 40.256 52.829
48.922 39.973 52.615
48.902 40.555 38.187
49.250 41.220 37.517
48.902 40.252 38.828
49.160 40.700 38.336
48.705 39.948 39.491
47.889 41.578 48.186
48.919 40.406 52.203
48.664 40.599 52.541
48.851 40.558 52.926
48.967 41.089 52.424
48.919 41.308 53.380
49.187 41.083 37.941
48.213 42.161 48.243
48.055 41.920 48.661
49.171 41.947 52.593
49.350 42.260 53.498
48.492 42.569 48.781
48.651 42.997 48.827
48.651 43.019 49.311
49.546 42.615 52.926
49.696 43.077 53.530
48.725 43.274 49.228
48.574 43.493 49.351
48.663 43.295 49.509
48.616 43.628 49.727
48.660 43.642 49.453
48.525 44.407 49.917
49.024 43.379 53.281
49.345 43.665 53.697
48.607 44.272 53.903
48.759 44.132 53.731
49.415 44.025 53.860
48.277 45.515 50.020
48.552 44.425 49.593
48.868 44.558 53.967
48.710 44.838 54.207
48.040 45.537 54.552
48.056 46.665 50.216
47.984 46.198 50.574
48.591 44.988 54.187
48.087 45.439 54.357
47.812 47.179 50.590
47.629 47.718 50.631
49.150 35.081 39.811
49.366 35.507 39.336
49.812 35.266 40.044
49.749 35.487 40.667
50.060 35.925 40.915
49.479 36.725 38.247
49.870 35.960 38.724
50.388 36.474 40.940
49.905 37.430 40.707
49.505 37.103 50.563
49.594 38.239 37.540
49.958 37.179 37.804
49.733 38.374 40.200
50.489 37.703 40.289
50.251 38.391 39.851
49.711 37.519 50.815
49.555 37.552 50.969
49.491 38.199 51.396
49.867 38.181 51.320
49.633 39.123 37.311
50.117 39.499 37.054
50.351 38.627 37.154
49.692 39.094 39.633
50.424 38.834 39.312
49.877 39.525 39.054
49.912 38.167 51.199
49.834 38.463 51.395
49.833 38.571 51.646
50.140 39.018 51.660
49.937 39.316 52.244
49.527 40.003 37.256
50.232 40.453 36.854
49.296 39.824 39.216
49.599 40.303 38.477
49.047 39.557 39.765
50.329 39.828 52.003
49.768 40.102 52.714
49.604 41.142 36.992
50.108 41.324 36.520
49.396 41.002 38.011
49.837 40.455 52.204
50.043 41.164 52.437
49.969 40.693 52.994
50.178 41.420 53.216
49.930 42.044 36.311
50.344 42.508 35.619
50.249 41.878 36.116
49.643 42.094 36.719
49.486 41.574 37.398
49.650 42.095 36.875
50.262 41.820 52.680
50.367 42.186 53.325
50.017 42.672 35.926
50.373 42.928 35.347
49.922 42.672 36.115
49.808 42.388 36.487
48.773 43.031 49.083
50.455 42.364 52.987
50.354 42.933 53.456
49.847 43.457 53.611
50.023 43.588 53.683
50.205 42.900 35.617
48.754 43.583 49.453
49.838 43.142 53.353
49.435 43.540 53.547
49.635 43.710 53.652
49.542 44.170 53.918
49.506 44.165 53.876
49.100 44.589 54.067
50.360 35.564 39.257
51.174 35.526 39.863
50.578 35.535 40.550
50.909 35.902 40.885
50.469 36.368 38.253
50.510 35.854 38.746
51.176 36.276 40.933
50.823 36.910 40.710
50.704 37.551 37.447
50.653 36.867 37.799
51.310 37.254 40.316
50.966 38.015 39.773
50.008 37.951 51.168
51.245 39.335 36.736
51.229 38.211 37.037
51.380 38.534 38.903
50.438 39.513 38.538
50.298 38.728 51.671
50.789 40.442 36.524
51.190 40.555 36.035
51.589 39.860 36.334
50.181 40.283 37.886
50.579 39.798 37.983
50.651 40.091 37.443
50.704 39.558 52.014
50.694 39.512 52.174
50.622 40.152 52.590
50.619 41.212 36.168
51.000 41.000 35.500
50.409 40.878 36.607
50.286 40.888 36.979
50.621 40.423 36.875
50.760 40.815 36.479
49.763 41.039 37.634
50.694 40.426 52.296
50.761 41.169 52.541
50.727 40.868 52.910
50.910 41.469 53.029
50.859 42.377 35.072
51.301 42.389 34.559
51.000 41.500 35.000
50.504 41.889 35.996
51.000 42.000 35.500
51.000 41.500 36.000
49.906 41.868 36.776
50.945 41.630 52.768
50.867 42.162 53.167
51.170 42.850 34.394
51.421 42.903 34.121
51.499 42.743 34.135
50.750 42.899 34.880
50.679 42.449 35.453
50.208 42.562 35.902
50.944 42.103 53.010
50.437 42.905 53.343
50.333 43.262 53.537
51.108 42.986 34.426
50.714 42.872 35.044
50.017 43.643 53.674
51.268 35.886 38.863
52.257 36.098 38.610
52.303 35.784 39.434
51.987 35.634 40.056
51.609 35.711 40.518
51.529 35.969 40.884
51.578 36.640 37.932
52.534 36.980 37.522
52.801 36.492 38.075
51.659 36.180 40.891
51.683 36.595 40.664
51.851 37.486 37.248
52.172 38.306 36.810
52.893 37.602 37.066
51.915 36.997 40.311
51.976 37.527 39.740
52.396 39.030 36.455
51.828 39.182 37.328
51.172 39.354 37.893
52.145 38.674 37.991
52.548 37.986 38.800
52.029 40.268 35.650
52.387 39.470 36.167
51.919 39.421 36.445
51.971 39.318 36.705
51.300 39.846 36.817
51.929 39.721 36.309
50.957 40.061 52.339
51.500 41.000 35.000
52.081 41.356 34.733
52.329 40.807 35.003
51.457 40.586 35.910
52.152 40.146 35.815
52.029 40.738 35.358
51.046 40.878 52.660
51.694 42.388 34.303
51.755 42.574 34.081
52.025 41.980 34.367
51.500 42.000 35.000
51.892 42.139 34.402
52.000 41.500 35.000
51.142 41.604 52.906
51.433 42.661 34.402
51.834 42.468 34.127
51.064 42.471 35.022
53.087 36.112 38.796
53.278 35.973 39.469
52.630 35.866 40.108
52.159 36.129 40.604
53.092 36.245 40.202
53.373 37.022 37.556
53.639 36.547 38.231
52.630 36.761 40.173
53.518 36.588 39.942
53.401 36.947 39.710
53.371 38.451 36.563
53.793 37.678 37.021
52.974 37.345 39.449
53.673 37.268 39.137
53.337 37.689 38.729
52.921 39.107 36.240
53.015 39.478 35.900
53.624 38.886 36.213
53.288 38.264 37.724
52.558 38.878 37.132
53.002 40.016 35.453
52.348 39.324 36.360
52.648 39.496 36.105
52.627 39.116 36.489
52.374 41.347 34.609
52.678 40.734 34.947
52.569 40.268 35.484
52.363 40.943 35.057
52.081 42.081 34.232
52.287 41.487 34.637
53.781 36.246 38.911
53.840 36.167 39.405
53.510 36.098 39.855
53.699 36.327 39.927
54.156 37.176 37.704
54.110 36.606 38.454
53.953 36.555 39.652
53.892 36.870 39.449
54.106 38.217 36.585
54.321 37.797 36.975
54.096 37.181 38.829
53.900 37.630 38.334
53.708 39.181 35.930
54.113 38.641 36.271
53.930 38.580 36.392
53.850 38.475 36.771
53.300 38.880 36.529
53.872 38.855 36.261
54.147 38.003 37.448
53.696 39.296 35.867
53.198 39.638 35.770
52.710 40.656 35.060
54.144 36.455 38.993
53.991 36.354 39.541
54.301 36.853 38.443
54.205 36.785 39.029
54.438 38.227 36.640
54.520 37.760 37.198
54.342 37.403 38.019
54.516 37.917 37.222
54.154 38.761 36.224
54.349 38.334 36.733
54.590 38.066 36.897
3 2 1 0
3 4 3 0
3 0 3 2
3 6 5 4
3 4 5 3
3 8 7 6
3 6 7 5
3 10 9 8
3 8 9 7
3 12 11 10
3 10 11 9
3 12 13 11
3 16 15 14
3 16 14 1
3 14 0 1
3 14 17 0
3 0 18 4
3 0 17 18
3 4 19 6
3 4 18 19
3 6 20 8
3 6 19 20
3 8 21 10
3 8 20 21
3 10 22 12
3 10 21 22
3 13 12 23
3 12 24 23
3 12 22 24
3 24 25 23
3 15 26 14
3 28 27 26
3 27 14 26
3 27 17 14
3 17 29 18
3 17 27 29
3 18 30 19
3 18 29 30
3 19 31 20
3 19 30 31
3 20 32 21
3 20 31 32
3 21 33 22
3 21 32 33
3 22 34 24
3 22 33 34
3 25 24 35
3 35 24 34
3 28 36 27
3 27 36 29
3 29 36 37
3 39 38 37
3 38 29 37
3 38 30 29
3 30 40 31
3 30 38 40
3 31 41 32
3 31 40 41
3 32 42 33
3 32 41 42
3 33 43 34
3 33 42 43
3 35 34 44
3 34 45 44
3 34 43 45
3 45 46 44
3 39 47 38
3 38 47 40
3 40 47 48
3 50 49 48
3 49 40 48
3 49 41 40
3 41 51 42
3 41 49 51
3 42 52 43
3 42 51 52
3 43 53 45
3 43 52 53
3 46 45 54
3 54 45 53
3 49 50 55
3 55 50 56
3 49 57 51
3 49 55 57
3 51 58 52
3 51 57 58
3 52 59 53
3 52 58 59
3 54 53 60
3 60 53 59
3 55 56 61
3 61 56 62
3 55 63 57
3 55 61 63
3 57 64 58
3 57 63 64
3 58 65 59
3 58 64 65
3 60 59 66
3 66 59 65
3 62 67 61
3 69 68 67
3 68 61 67
3 68 63 61
3 63 70 64
3 63 68 70
3 64 71 65
3 64 70 71
3 66 65 72
3 72 65 71
3 68 69 73
3 73 69 74
3 68 75 70
3 68 73 75
3 70 76 71
3 70 75 76
3 72 71 77
3 71 78 77
3 71 76 78
3 78 79 77
3 73 74 80
3 80 74 81
3 73 82 75
3 73 80 82
3 75 83 76
3 75 82 83
3 85 78 84
3 78 83 84
3 78 76 83
3 78 85 79
3 81 86 80
3 80 86 82
3 82 86 87
3 82 87 83
3 83 87 88
3 83 88 84
3 91 90 89
3 93 92 89
3 89 92 91
3 95 94 93
3 93 94 92
3 97 96 95
3 95 96 94
3 97 98 96
3 89 90 99
3 99 90 100
3 89 101 93
3 89 99 101
3 93 102 95
3 93 101 102
3 95 103 97
3 95 102 103
3 98 97 104
3 97 105 104
3 97 103 105
3 105 106 104
3 99 100 107
3 107 100 108
3 99 109 101
3 99 107 109
3 101 110 102
3 101 109 110
3 102 111 103
3 102 110 111
3 103 112 105
3 103 111 112
3 106 105 113
3 105 114 113
3 105 112 114
3 1 2 114
3 2 113 114
3 2 115 113
3 116 2 3
3 116 115 2
3 117 3 5
3 117 116 3
3 118 5 7
3 118 117 5
3 119 7 9
3 119 118 7
3 120 9 11
3 120 119 9
3 122 121 13
3 121 11 13
3 121 120 11
3 122 123 121
3 108 124 107
3 126 125 124
3 125 107 124
3 125 109 107
3 109 127 110
3 109 125 127
3 110 128 111
3 110 127 128
3 111 129 112
3 111 128 129
3 129 15 16
3 114 129 16
3 112 129 114
3 114 16 1
3 132 131 130
3 134 133 130
3 134 130 131
3 136 135 133
3 136 133 134
3 138 137 135
3 138 135 136
3 139 137 138
3 23 122 13
3 23 25 122
3 25 123 122
3 25 140 123
3 126 141 125
3 125 141 127
3 127 141 142
3 127 142 128
3 128 142 143
3 128 143 129
3 129 143 144
3 129 144 15
3 144 26 15
3 144 145 26
3 28 26 145
3 28 145 146
3 147 132 130
3 147 130 133
3 147 133 148
3 150 149 148
3 133 150 148
3 135 150 133
3 151 135 137
3 150 135 151
3 137 139 152
3 153 137 152
3 151 137 153
3 154 153 152
3 35 156 155
3 140 35 155
3 25 35 140
3 156 157 155
3 146 158 28
3 28 158 36
3 158 160 159
3 37 158 159
3 36 158 37
3 159 39 37
3 161 149 150
3 163 162 161
3 150 163 161
3 151 163 150
3 164 151 153
3 163 151 164
3 153 154 165
3 153 165 164
3 44 156 35
3 44 46 156
3 46 157 156
3 46 166 157
3 160 167 159
3 167 169 168
3 167 168 47
3 159 167 47
3 39 159 47
3 170 48 47
3 170 47 168
3 163 171 162
3 50 48 170
3 173 172 171
3 163 173 171
3 164 173 163
3 164 165 174
3 164 174 173
3 54 166 46
3 54 175 166
3 168 169 176
3 176 169 177
3 168 178 170
3 168 176 178
3 178 56 50
3 178 50 170
3 172 173 179
3 172 179 180
3 173 174 181
3 182 173 181
3 179 173 182
3 183 182 181
3 60 175 54
3 60 184 175
3 177 185 176
3 187 186 185
3 186 176 185
3 186 178 176
3 186 62 56
3 186 56 178
3 188 180 179
3 190 189 188
3 179 190 188
3 182 190 179
3 182 183 191
3 182 191 190
3 66 184 60
3 66 192 184
3 186 187 193
3 193 187 194
3 195 67 62
3 186 195 62
3 193 195 186
3 195 69 67
3 189 190 196
3 189 196 197
3 190 191 198
3 190 198 196
3 72 200 199
3 192 72 199
3 66 72 192
3 200 201 199
3 194 202 193
3 204 203 202
3 203 193 202
3 203 195 193
3 203 74 69
3 203 69 195
3 197 196 205
3 197 205 206
3 196 198 207
3 196 207 205
3 77 200 72
3 77 79 200
3 79 201 200
3 79 208 201
3 203 204 209
3 209 204 210
3 209 81 74
3 209 74 203
3 206 205 211
3 206 211 212
3 205 207 213
3 214 205 213
3 211 205 214
3 85 84 214
3 213 85 214
3 215 85 213
3 79 85 208
3 208 85 215
3 209 210 216
3 216 210 217
3 218 86 81
3 209 218 81
3 216 218 209
3 219 212 211
3 86 219 211
3 87 86 211
3 219 86 218
3 87 211 88
3 88 211 214
3 88 214 84
3 217 220 216
3 216 220 218
3 218 220 221
3 218 221 219
3 223 222 91
3 91 222 90
3 225 223 224
3 223 92 224
3 223 91 92
3 94 226 92
3 92 226 224
3 96 227 94
3 94 227 226
3 98 227 96
3 230 229 228
3 222 230 228
3 100 222 228
3 90 222 100
3 231 225 224
3 233 232 231
3 224 233 231
3 226 233 224
3 234 226 227
3 233 226 234
3 104 235 98
3 235 227 98
3 235 234 227
3 237 235 236
3 235 104 236
3 106 238 236
3 106 236 104
3 238 239 236
3 228 229 240
3 240 229 241
3 240 108 100
3 240 100 228
3 242 232 233
3 244 243 242
3 233 244 242
3 234 244 233
3 245 234 235
3 244 234 245
3 238 106 113
3 237 246 235
3 247 235 246
3 235 247 245
3 246 248 247
3 239 238 249
3 113 249 238
3 249 113 115
3 251 249 250
3 249 116 250
3 249 115 116
3 117 252 116
3 116 252 250
3 118 253 117
3 117 253 252
3 119 254 118
3 118 254 253
3 254 119 255
3 119 256 255
3 119 120 256
3 257 120 121
3 257 256 120
3 121 123 257
3 257 123 258
3 240 241 259
3 259 241 260
3 261 124 108
3 240 261 108
3 259 261 240
3 261 126 124
3 262 243 244
3 262 244 245
3 262 245 263
3 265 264 263
3 245 265 263
3 247 265 245
3 247 248 266
3 267 247 266
3 265 247 267
3 267 266 251
3 267 251 250
3 132 267 250
3 131 132 250
3 131 250 134
3 134 250 252
3 134 252 136
3 136 252 253
3 136 253 138
3 138 253 254
3 269 268 139
3 269 139 138
3 255 269 138
3 254 255 138
3 270 268 269
3 140 258 123
3 140 271 258
3 259 260 272
3 272 260 273
3 275 261 274
3 261 272 274
3 261 259 272
3 261 275 126
3 275 141 126
3 275 276 141
3 141 277 142
3 276 277 141
3 142 278 143
3 277 278 142
3 143 279 144
3 278 279 143
3 265 145 264
3 145 279 264
3 145 144 279
3 265 267 280
3 146 265 280
3 281 146 280
3 265 146 145
3 283 280 282
3 282 280 147
3 280 267 147
3 267 132 147
3 148 284 147
3 147 284 282
3 149 284 148
3 268 152 139
3 154 152 268
3 270 154 268
3 285 154 270
3 286 271 140
3 286 140 155
3 155 157 286
3 286 157 287
3 273 288 272
3 272 288 274
3 281 289 146
3 146 289 158
3 282 290 160
3 289 282 160
3 158 289 160
3 283 282 289
3 284 292 291
3 290 284 291
3 282 284 290
3 294 292 293
3 293 292 161
3 292 284 161
3 284 149 161
3 162 293 161
3 296 165 295
3 165 285 295
3 165 154 285
3 297 296 295
3 166 287 157
3 166 298 287
3 290 167 160
3 169 167 290
3 291 169 290
3 299 169 291
3 300 294 293
3 302 300 301
3 301 300 171
3 300 293 171
3 293 162 171
3 172 301 171
3 303 174 296
3 296 174 165
3 296 297 304
3 296 304 303
3 175 298 166
3 175 305 298
3 307 177 306
3 177 299 306
3 177 169 299
3 308 307 306
3 302 301 309
3 302 309 310
3 180 309 172
3 172 309 301
3 303 181 174
3 183 181 303
3 304 183 303
3 311 183 304
3 184 305 175
3 184 312 305
3 307 185 177
3 187 185 307
3 308 187 307
3 313 187 308
3 314 310 309
3 316 314 315
3 315 314 188
3 314 309 188
3 309 180 188
3 189 315 188
3 318 191 317
3 191 311 317
3 191 183 311
3 317 312 318
3 312 192 318
3 312 184 192
3 320 194 319
3 194 313 319
3 194 187 313
3 321 320 319
3 316 315 322
3 316 322 323
3 197 322 189
3 189 322 315
3 324 198 318
3 318 198 191
3 324 318 192
3 325 324 192
3 199 325 192
3 326 324 325
3 328 327 201
3 327 199 201
3 327 325 199
3 328 329 327
3 320 202 194
3 204 202 320
3 321 204 320
3 330 204 321
3 331 323 322
3 322 197 331
3 197 332 331
3 197 206 332
3 333 207 324
3 324 207 198
3 324 326 334
3 324 334 333
3 336 335 328
3 201 336 328
3 208 336 201
3 328 335 329
3 338 210 337
3 210 330 337
3 210 204 330
3 339 338 337
3 212 332 206
3 212 340 332
3 333 213 207
3 334 341 333
3 341 213 333
3 341 215 213
3 208 215 336
3 336 215 341
3 342 217 338
3 338 217 210
3 338 339 343
3 338 343 342
3 219 340 212
3 219 344 340
3 342 220 217
3 343 345 342
3 345 220 342
3 345 221 220
3 219 221 344
3 344 221 345
3 348 347 346
3 346 349 348
3 346 347 223
3 347 222 223
3 347 350 222
3 352 351 225
3 225 351 223
3 351 349 223
3 349 346 223
3 352 353 351
3 355 354 230
3 230 354 229
3 230 222 350
3 230 350 355
3 352 225 231
3 358 357 356
3 357 358 232
3 358 353 232
3 352 231 232
3 352 232 353
3 359 237 236
3 239 359 236
3 362 361 360
3 360 363 362
3 366 365 364
3 354 366 364
3 241 354 364
3 229 354 241
3 356 357 367
3 356 367 368
3 242 369 232
3 369 357 232
3 369 367 357
3 243 369 242
3 359 246 237
3 248 246 370
3 246 359 370
3 239 249 370
3 239 370 359
3 251 370 249
3 361 371 360
3 255 371 372
3 371 255 360
3 256 360 255
3 360 256 363
3 373 363 256
3 374 256 257
3 374 373 256
3 257 258 374
3 374 258 375
3 364 365 376
3 376 365 377
3 376 260 241
3 376 241 364
3 380 379 378
3 378 379 368
3 367 378 368
3 381 378 367
3 382 367 369
3 381 367 382
3 262 383 243
3 383 369 243
3 383 382 369
3 263 384 262
3 262 384 383
3 264 384 263
3 370 266 248
3 266 370 251
3 372 385 255
3 255 385 269
3 270 269 385
3 270 385 386
3 271 375 258
3 271 387 375
3 376 377 388
3 388 377 389
3 388 273 260
3 388 260 376
3 275 274 390
3 378 391 380
3 275 390 276
3 392 276 390
3 276 392 381
3 391 381 392
3 381 391 378
3 276 381 277
3 277 381 382
3 277 382 278
3 278 382 383
3 278 383 279
3 279 383 384
3 279 384 264
3 393 281 280
3 283 393 280
3 386 285 270
3 394 285 386
3 271 286 395
3 396 271 395
3 387 271 396
3 287 395 286
3 388 389 397
3 397 389 398
3 388 397 273
3 397 399 273
3 399 288 273
3 397 400 399
3 274 288 390
3 288 401 390
3 288 399 401
3 390 401 392
3 393 289 281
3 289 393 283
3 402 291 292
3 294 402 292
3 394 403 285
3 285 403 295
3 403 404 295
3 404 396 295
3 395 295 396
3 295 395 297
3 405 297 395
3 297 405 404
3 404 406 297
3 403 406 404
3 404 405 396
3 395 287 405
3 287 407 405
3 287 298 407
3 398 408 397
3 397 408 400
3 409 299 402
3 402 299 291
3 300 410 294
3 410 402 294
3 410 409 402
3 302 410 300
3 406 304 297
3 411 304 406
3 305 407 298
3 305 412 407
3 409 306 299
3 409 410 413
3 308 409 413
3 414 308 413
3 409 308 306
3 410 302 413
3 302 415 413
3 302 310 415
3 411 311 304
3 416 311 411
3 312 412 305
3 312 417 412
3 419 313 418
3 313 414 418
3 313 308 414
3 421 420 314
3 420 422 314
3 419 314 422
3 314 419 310
3 418 310 419
3 310 418 420
3 420 415 310
3 421 415 420
3 420 418 422
3 314 316 421
3 421 316 423
3 416 424 311
3 311 424 317
3 312 425 417
3 425 312 426
3 317 426 312
3 426 317 427
3 424 427 317
3 426 428 425
3 419 319 313
3 430 429 321
3 430 321 319
3 422 430 319
3 419 422 319
3 430 423 429
3 423 323 429
3 423 316 323
3 426 427 325
3 427 326 325
3 427 431 326
3 325 327 426
3 327 432 426
3 432 428 426
3 327 433 432
3 329 433 327
3 434 330 429
3 429 330 321
3 331 435 323
3 435 429 323
3 435 434 429
3 332 435 331
3 437 334 436
3 334 431 436
3 334 326 431
3 437 436 432
3 437 432 433
3 336 437 433
3 335 336 433
3 335 433 329
3 434 337 330
3 337 434 339
3 434 438 339
3 434 435 438
3 340 438 332
3 332 438 435
3 437 341 334
3 341 437 336
3 439 343 438
3 438 343 339
3 344 439 340
3 340 439 438
3 439 345 343
3 345 439 344
3 440 347 348
3 349 440 348
3 442 441 440
3 441 347 440
3 441 350 347
3 442 440 349
3 351 442 349
3 443 442 351
3 351 353 443
3 443 353 444
3 446 445 355
3 355 445 354
3 355 350 441
3 355 441 446
3 448 447 358
3 448 358 356
3 353 358 444
3 444 358 447
3 449 361 362
3 363 449 362
3 451 450 366
3 366 450 365
3 366 354 445
3 366 445 451
3 454 453 452
3 453 448 452
3 448 368 452
3 448 356 368
3 449 371 361
3 372 371 455
3 449 455 371
3 455 449 456
3 363 456 449
3 456 363 373
3 458 456 457
3 456 374 457
3 456 373 374
3 375 457 374
3 461 460 459
3 450 461 459
3 377 450 459
3 365 450 377
3 464 463 462
3 462 463 454
3 462 454 452
3 380 462 452
3 379 380 452
3 379 452 368
3 455 465 372
3 372 465 385
3 465 466 385
3 466 458 385
3 457 385 458
3 385 457 386
3 467 386 457
3 386 467 466
3 466 468 386
3 465 468 466
3 466 467 458
3 457 375 467
3 375 469 467
3 375 387 469
3 459 460 470
3 470 460 471
3 470 389 377
3 470 377 459
3 464 462 472
3 464 472 473
3 391 474 380
3 474 462 380
3 474 472 462
3 392 474 391
3 468 394 386
3 475 394 468
3 396 469 387
3 396 476 469
3 470 471 477
3 477 471 478
3 477 398 389
3 477 389 470
3 473 472 399
3 400 473 399
3 479 473 400
3 399 472 401
3 401 472 474
3 401 474 392
3 475 480 394
3 394 480 403
3 480 406 403
3 406 480 481
3 396 405 476
3 482 476 405
3 405 407 482
3 482 407 483
3 486 485 484
3 486 484 478
3 484 477 478
3 484 487 477
3 477 487 398
3 487 488 398
3 488 408 398
3 487 489 488
3 400 408 479
3 479 408 488
3 481 411 406
3 490 411 481
3 412 483 407
3 412 491 483
3 484 485 492
3 492 485 493
3 495 487 494
3 487 492 494
3 487 484 492
3 487 495 489
3 496 414 413
3 415 496 413
3 490 416 411
3 497 416 490
3 417 499 498
3 491 417 498
3 412 417 491
3 499 500 498
3 493 501 492
3 492 501 494
3 496 418 414
3 422 418 502
3 418 496 502
3 415 421 502
3 415 502 496
3 423 502 421
3 497 503 416
3 416 503 424
3 503 504 424
3 503 417 504
3 417 503 499
3 505 499 503
3 499 505 425
3 504 425 505
3 505 427 504
3 504 427 424
3 417 425 504
3 425 428 499
3 428 500 499
3 428 506 500
3 502 430 422
3 430 502 423
3 508 431 507
3 431 505 507
3 431 427 505
3 507 506 508
3 506 432 508
3 506 428 432
3 508 436 431
3 436 508 432
3 510 509 442
3 442 509 441
3 511 442 443
3 511 510 442
3 443 444 511
3 511 444 512
3 514 513 446
3 446 513 445
3 446 441 509
3 446 509 514
3 516 515 447
3 516 447 448
3 444 447 512
3 512 447 515
3 518 517 451
3 451 517 450
3 451 445 513
3 451 513 518
3 520 519 453
3 520 453 454
3 448 453 516
3 516 453 519
3 521 455 456
3 458 521 456
3 523 522 461
3 461 522 460
3 461 450 517
3 461 517 523
3 525 524 463
3 525 463 464
3 454 463 520
3 520 463 524
3 521 465 455
3 468 465 526
3 465 521 526
3 458 467 526
3 458 526 521
3 469 526 467
3 529 528 527
3 522 529 527
3 471 522 527
3 460 522 471
3 532 531 530
3 531 525 530
3 525 473 530
3 525 464 473
3 534 533 526
3 533 468 526
3 533 475 468
3 526 469 534
3 469 535 534
3 469 476 535
3 527 528 536
3 536 528 537
3 471 538 478
3 471 539 538
3 539 471 540
3 527 540 471
3 540 527 541
3 538 541 527
3 527 536 538
3 538 536 478
3 539 541 538
3 539 540 532
3 530 539 532
3 542 539 530
3 479 542 473
3 473 542 530
3 533 543 475
3 475 543 480
3 543 481 480
3 481 543 544
3 476 482 535
3 545 535 482
3 482 483 545
3 545 483 546
3 549 548 547
3 550 486 536
3 486 550 485
3 547 485 550
3 551 547 550
3 547 551 549
3 552 549 551
3 549 552 537
3 536 537 552
3 550 536 552
3 536 486 478
3 552 541 550
3 539 550 541
3 550 539 553
3 489 553 488
3 553 542 488
3 553 539 542
3 488 542 479
3 544 490 481
3 554 490 544
3 491 546 483
3 491 555 546
3 558 557 556
3 558 556 548
3 556 547 548
3 556 559 547
3 559 485 547
3 485 559 493
3 551 550 560
3 561 560 550
3 494 561 495
3 561 553 495
3 561 550 553
3 495 553 489
3 563 497 562
3 497 554 562
3 497 490 554
3 564 563 498
3 563 555 498
3 555 491 498
3 555 563 562
3 500 564 498
3 557 565 556
3 556 565 559
3 559 565 566
3 560 561 566
3 561 501 566
3 493 559 566
3 493 566 501
3 501 561 494
3 563 503 497
3 503 563 505
3 563 567 505
3 563 564 567
3 506 567 500
3 500 567 564
3 567 507 505
3 507 567 506
3 570 569 568
3 509 510 568
3 510 570 568
3 510 571 570
3 572 510 511
3 572 571 510
3 511 512 572
3 572 512 573
3 576 575 574
3 576 574 569
3 569 574 568
3 574 513 568
3 513 514 568
3 568 514 509
3 578 577 515
3 578 515 516
3 512 515 573
3 573 515 577
3 581 580 579
3 581 579 575
3 575 579 574
3 579 517 574
3 517 518 574
3 574 518 513
3 583 582 519
3 583 519 520
3 516 519 578
3 578 519 582
3 579 580 523
3 580 522 523
3 580 584 522
3 517 579 523
3 587 586 585
3 524 525 586
3 587 524 586
3 588 524 587
3 520 524 583
3 583 524 588
3 590 589 529
3 529 589 528
3 584 591 522
3 591 592 522
3 593 522 592
3 522 593 529
3 594 529 593
3 529 594 591
3 591 590 529
3 584 590 591
3 591 594 592
3 593 592 585
3 593 585 586
3 532 593 586
3 531 532 586
3 531 586 525
3 595 533 534
3 535 595 534
3 598 597 596
3 601 600 599
3 598 596 589
3 537 589 596
3 589 537 528
3 599 600 594
3 599 594 593
3 541 599 593
3 540 541 593
3 540 593 532
3 595 543 533
3 544 543 602
3 543 595 602
3 535 545 602
3 535 602 595
3 546 602 545
3 605 604 603
3 606 549 596
3 549 606 548
3 603 548 606
3 607 603 606
3 603 607 605
3 608 605 607
3 605 608 597
3 596 597 608
3 606 596 608
3 606 608 596
3 601 596 608
3 596 601 599
3 596 599 537
3 552 537 599
3 537 552 549
3 551 549 552
3 549 551 606
3 549 606 596
3 552 599 541
3 609 554 602
3 602 554 544
3 555 609 546
3 546 609 602
3 611 610 604
3 610 557 604
3 558 603 604
3 558 604 557
3 603 558 548
3 611 607 610
3 606 610 607
3 610 606 612
3 560 612 551
3 551 612 606
3 609 562 554
3 562 609 555
3 610 565 557
3 565 610 566
3 566 610 612
3 566 612 560
3 614 613 570
3 570 613 569
3 615 570 571
3 615 614 570
3 617 615 616
3 615 572 616
3 615 571 572
3 573 616 572
3 619 618 576
3 576 618 575
3 576 569 613
3 576 613 619
3 622 621 620
3 620 621 617
3 620 617 616
3 578 620 616
3 577 578 616
3 577 616 573
3 624 623 581
3 581 623 580
3 581 575 618
3 581 618 624
3 627 626 625
3 625 626 622
3 625 622 620
3 583 625 620
3 582 583 620
3 582 620 578
3 630 629 628
3 623 630 628
3 584 623 628
3 580 623 584
3 632 631 587
3 632 587 585
3 625 588 627
3 588 631 627
3 588 587 631
3 588 625 583
3 628 629 590
3 629 589 590
3 629 633 589
3 635 634 594
3 635 590 634
3 590 635 628
3 636 628 635
3 628 636 584
3 634 584 636
3 636 592 634
3 634 592 594
3 590 584 634
3 585 592 632
3 632 592 636
3 638 637 598
3 598 637 597
3 600 601 639
3 640 639 601
3 633 598 589
3 598 633 638
3 594 600 635
3 635 600 639
3 641 604 605
3 608 607 642
3 641 642 607
3 642 641 637
3 605 637 641
3 637 605 597
3 601 608 640
3 640 608 642
3 641 611 604
3 611 641 607
3 644 643 614
3 614 643 613
3 645 614 615
3 645 644 614
3 615 617 645
3 645 617 646
3 648 647 619
3 619 647 618
3 619 613 643
3 619 643 648
3 650 649 621
3 650 621 622
3 617 621 646
3 646 621 649
3 652 651 624
3 624 651 623
3 624 618 647
3 624 647 652
3 654 653 626
3 654 626 627
3 622 626 650
3 650 626 653
3 656 655 630
3 630 655 629
3 651 657 623
3 657 658 623
3 659 623 658
3 623 659 630
3 660 630 659
3 630 660 657
3 657 656 630
3 651 656 657
3 657 660 658
3 631 632 659
3 658 631 659
3 661 631 658
3 627 631 654
3 654 631 661
3 663 633 662
3 633 655 662
3 633 629 655
3 663 662 660
3 663 660 659
3 635 663 659
3 636 635 659
3 636 659 632
3 664 637 638
3 638 633 664
3 633 663 664
3 639 640 664
3 639 664 663
3 639 663 635
3 664 642 637
3 642 664 640
3 665 643 644
3 645 666 644
3 644 666 665
3 646 666 645
3 667 647 648
3 643 665 648
3 665 667 648
3 665 668 667
3 650 668 649
3 668 666 649
3 668 665 666
3 649 666 646
3 670 669 652
3 652 669 651
3 670 652 647
3 671 670 647
3 667 671 647
3 670 671 672
3 654 671 653
3 671 668 653
3 671 667 668
3 653 668 650
3 673 655 656
3 658 660 674
3 673 674 660
3 674 673 669
3 656 669 673
3 669 656 651
3 671 661 672
3 661 674 672
3 661 658 674
3 661 671 654
3 673 662 655
3 662 673 660
3 675 669 670
3 672 675 670
3 675 674 669
3 674 675 672
