ply
format ascii 1.0
comment None
element vertex 477
property float x
property float y
property float z
element face 978
property list uchar int vertex_indices
end_header
46.223 66.402 51.322
46.350 66.397 50.986
46.394 66.084 51.109
46.412 66.133 51.228
45.953 67.135 51.198
46.351 67.034 50.654
46.317 66.506 51.585
45.941 67.133 52.028
46.378 67.132 52.182
45.999 67.924 50.534
46.367 68.326 49.936
46.440 67.606 50.248
45.563 68.027 51.230
45.477 67.886 51.948
46.214 67.586 53.086
45.557 68.038 52.994
45.926 67.889 53.770
45.687 68.362 53.917
46.221 68.015 54.506
45.904 69.140 50.048
46.386 69.219 49.496
45.502 68.826 50.914
45.282 68.766 51.780
45.272 68.689 52.587
45.494 69.086 53.564
46.159 68.901 54.585
46.083 70.107 49.328
46.403 70.536 48.754
46.464 69.876 49.069
45.675 70.093 49.988
45.458 69.822 50.698
45.284 69.590 51.493
45.384 69.868 52.623
45.834 70.164 53.766
45.857 69.657 54.215
46.050 71.237 48.849
46.432 71.285 48.320
45.697 70.881 49.727
45.466 70.636 50.466
45.421 70.795 51.537
45.893 71.198 52.754
45.871 70.718 53.305
46.238 72.097 48.002
46.493 72.301 47.514
46.500 71.777 47.903
45.853 72.304 48.834
45.691 71.681 49.519
45.490 71.646 50.546
45.571 71.848 51.492
45.810 71.759 52.126
46.279 73.043 47.151
46.424 73.237 46.648
46.471 72.765 47.045
46.006 73.083 47.987
45.828 72.989 48.713
45.715 72.840 49.252
45.607 72.437 49.835
45.701 73.123 49.772
45.578 72.533 50.621
45.629 72.372 51.168
46.215 73.980 46.263
46.312 74.158 45.749
46.366 73.675 46.157
46.029 74.268 47.113
45.933 73.776 48.001
45.873 73.420 48.467
45.687 73.030 50.332
46.110 74.805 45.489
46.144 75.312 44.915
46.243 74.690 45.241
45.946 75.155 46.074
46.036 74.799 46.581
46.048 74.708 46.770
45.958 74.985 46.939
45.820 75.178 47.853
45.893 74.340 48.021
45.835 74.662 48.637
45.812 75.304 48.764
45.881 74.979 49.212
45.844 75.984 45.222
46.079 76.110 44.506
45.840 75.659 45.584
45.847 75.573 45.740
45.765 75.827 45.950
45.726 75.868 46.896
45.963 75.119 46.580
45.667 76.019 47.843
45.728 76.068 48.601
45.954 75.657 49.333
45.859 77.220 44.278
46.291 77.343 43.590
46.296 76.625 44.016
45.526 77.250 45.196
45.749 75.971 45.625
45.543 76.727 46.066
45.476 76.874 46.997
45.524 76.917 47.919
45.707 76.878 48.831
45.938 76.425 49.282
46.131 78.140 43.478
46.576 78.412 42.992
46.611 77.830 43.178
45.660 78.355 44.126
45.412 78.197 44.865
45.289 78.081 45.842
45.335 77.858 47.051
45.445 77.957 48.067
45.621 77.520 48.639
46.311 78.907 43.189
46.775 78.880 42.863
45.831 79.011 43.811
45.441 79.086 44.633
45.244 78.953 45.447
45.260 79.158 46.500
45.457 78.849 47.691
46.535 79.320 43.100
46.137 79.540 43.590
46.549 79.736 43.438
45.710 79.733 44.383
45.414 79.800 45.467
45.461 80.068 46.476
45.518 79.736 47.252
46.168 80.075 44.154
45.830 80.241 44.949
45.830 80.466 45.876
46.486 66.143 51.046
46.555 66.581 50.858
46.539 66.423 51.236
46.490 66.705 51.645
46.613 67.190 51.839
46.985 67.385 55.087
47.333 67.214 54.940
47.633 66.860 55.350
47.564 66.915 55.537
47.344 67.336 55.549
47.885 66.869 55.746
46.629 67.903 50.043
46.656 67.345 50.475
46.642 67.695 52.818
46.791 67.785 52.325
47.055 67.991 53.548
46.754 67.639 54.246
46.754 68.075 55.189
47.394 67.812 55.589
47.916 67.286 55.769
46.651 68.605 49.796
46.760 68.068 50.190
47.178 69.501 52.082
47.062 68.976 51.907
47.024 69.504 51.661
47.111 68.232 52.940
47.262 69.316 52.264
46.730 68.708 55.140
47.296 68.492 55.412
46.616 70.164 48.898
46.675 69.551 49.401
47.216 69.827 52.017
47.143 70.017 51.703
47.604 69.849 52.414
46.055 70.099 54.267
46.605 69.940 54.588
47.185 69.316 55.079
46.636 70.776 48.672
46.738 70.288 49.116
47.096 71.115 51.197
47.065 70.799 51.114
47.073 71.197 50.943
47.446 70.230 52.070
47.375 71.197 51.464
46.208 71.195 53.338
46.759 71.084 53.760
46.540 70.516 54.231
46.599 71.915 47.819
46.669 71.567 48.292
47.275 71.436 51.199
46.098 72.606 51.881
46.671 72.260 52.690
46.791 71.687 53.269
46.527 72.904 46.945
46.610 72.697 47.335
46.697 72.255 47.886
45.800 73.482 49.184
45.950 73.166 51.080
46.674 73.521 51.787
47.089 73.151 52.340
46.408 73.809 46.047
46.506 73.616 46.455
46.614 73.214 47.023
45.853 73.968 48.593
45.878 74.316 49.299
46.005 73.901 50.199
46.621 74.095 51.165
47.348 74.168 51.680
47.378 73.753 52.094
46.318 75.033 45.003
46.421 74.634 45.498
46.514 74.150 46.105
46.036 74.881 46.663
46.122 74.999 49.821
46.786 74.996 50.604
47.352 74.668 51.222
46.386 75.785 44.606
46.523 75.263 45.192
45.804 75.739 45.650
46.535 76.119 49.941
47.383 75.770 50.510
47.821 75.265 50.908
46.649 77.197 43.599
46.644 76.577 44.173
46.081 77.285 49.286
46.924 77.186 49.809
47.525 76.447 50.239
47.011 78.396 42.898
46.960 77.799 43.278
45.785 78.303 48.610
46.604 78.277 49.176
47.365 77.731 49.648
47.766 77.076 49.986
47.147 78.896 42.777
46.114 79.507 48.164
46.950 79.157 48.757
47.543 78.422 49.199
46.922 79.302 42.974
46.991 79.620 43.400
45.965 80.455 47.039
46.536 80.511 47.739
46.948 79.978 48.244
46.621 80.065 43.942
46.527 80.421 44.955
46.475 80.869 46.232
47.346 80.761 45.794
46.657 80.988 47.051
47.103 80.862 47.515
46.989 80.529 47.916
47.044 81.146 46.510
47.336 81.167 46.945
46.707 67.064 51.032
46.648 66.933 51.458
47.816 66.956 55.176
48.117 66.652 55.461
48.229 66.525 55.708
48.467 66.701 55.867
46.809 67.941 50.748
46.856 67.886 51.621
47.319 67.825 54.167
47.800 67.520 54.735
48.504 67.335 55.790
47.986 68.004 55.645
46.817 68.947 50.246
46.904 68.824 51.180
47.385 68.913 52.545
47.895 68.880 53.435
47.869 68.246 54.114
48.138 68.991 55.365
46.832 70.083 49.829
46.973 69.938 50.967
47.925 69.708 52.773
48.184 69.617 53.093
48.096 69.757 55.117
47.760 70.177 54.821
46.840 71.084 49.210
46.991 70.956 50.367
47.391 70.617 51.685
48.160 70.815 52.379
48.540 70.362 52.958
47.191 70.929 54.167
47.471 70.659 54.433
46.947 72.252 48.766
47.162 71.982 49.825
47.397 71.897 50.786
47.885 71.976 51.512
48.030 71.429 51.948
47.577 72.302 53.154
48.107 71.931 53.495
48.226 71.292 53.991
46.899 73.155 47.963
47.221 73.187 48.923
47.331 72.868 49.512
47.741 73.067 50.398
48.109 72.901 51.195
48.440 72.555 53.168
48.004 72.939 52.783
46.829 74.106 47.096
47.196 74.129 48.145
47.336 73.832 48.736
47.793 74.008 49.669
48.371 74.261 50.674
48.292 73.672 51.040
47.946 74.105 51.937
48.044 73.634 52.305
46.787 75.103 46.109
47.100 75.074 47.151
47.368 74.915 47.943
47.791 74.838 48.935
48.376 75.221 49.798
48.425 74.883 50.253
48.661 74.130 51.832
48.360 74.644 51.424
46.870 76.243 45.064
47.122 76.102 46.070
47.295 75.835 46.867
47.525 75.651 47.641
48.093 75.894 48.517
48.628 75.972 49.534
48.724 75.421 50.839
48.393 75.873 50.539
47.084 77.455 44.032
47.274 77.283 44.950
47.379 76.939 45.741
47.535 76.635 46.545
48.050 76.675 47.514
48.642 76.735 48.462
48.855 76.538 49.278
48.318 76.493 50.224
47.304 78.387 43.252
47.396 78.414 43.912
47.489 78.136 44.650
47.620 77.805 45.420
48.063 77.734 46.395
48.616 77.633 47.311
48.901 77.339 48.025
48.406 76.907 49.935
48.206 77.571 49.592
47.389 78.761 42.826
47.514 78.862 42.978
47.532 79.039 42.967
47.386 79.163 43.556
47.553 78.935 44.417
47.968 78.921 45.418
48.595 78.788 46.223
48.877 78.347 46.867
48.477 78.323 48.976
47.869 79.312 48.503
47.343 79.125 42.937
46.988 79.921 44.072
47.419 79.846 44.798
48.164 80.125 45.649
48.780 79.562 45.978
47.645 80.344 47.849
48.595 79.820 47.787
48.368 80.465 47.379
48.301 80.769 46.080
47.821 80.891 47.237
48.598 80.748 46.838
47.958 81.115 46.775
47.704 81.138 46.421
48.716 66.302 55.889
48.736 66.259 55.828
48.901 66.216 55.898
48.882 66.431 55.892
48.295 66.902 55.301
48.563 66.491 55.636
48.816 66.835 55.857
48.521 67.399 55.144
48.853 67.315 55.704
48.679 68.198 55.494
48.552 68.989 54.069
48.594 68.296 54.696
48.847 69.170 55.219
49.070 70.094 53.684
49.041 69.322 54.375
48.560 70.239 54.884
48.743 69.768 55.087
49.183 71.277 52.930
49.406 70.972 53.307
49.172 70.345 54.672
48.721 70.804 54.427
48.574 72.167 52.026
48.997 71.876 52.472
49.643 71.474 53.781
49.519 71.863 53.528
48.776 72.970 51.811
49.169 72.623 52.263
49.002 72.951 52.906
49.349 72.525 53.188
48.566 74.221 51.316
48.722 73.886 51.492
49.677 73.096 52.710
49.210 73.522 52.412
48.702 75.538 50.361
48.878 75.299 50.662
48.914 74.584 51.237
48.911 74.465 51.547
49.245 75.037 51.259
49.316 74.298 51.845
48.951 76.024 49.887
49.026 75.835 50.398
48.918 75.727 50.618
49.019 76.034 50.428
49.232 75.653 50.746
49.327 77.242 48.745
49.300 76.690 49.408
48.998 76.412 49.664
49.140 76.314 50.013
48.779 76.463 49.908
48.944 76.860 49.676
49.202 77.991 47.592
49.493 77.741 48.295
48.974 77.617 49.224
47.538 78.950 42.815
49.198 79.098 46.506
49.467 78.615 47.129
49.155 78.115 48.744
49.020 78.887 48.244
49.064 80.242 46.045
49.456 79.704 46.263
49.390 79.526 47.499
49.055 80.179 47.160
49.050 80.594 46.347
48.346 80.995 46.460
49.295 80.369 46.700
48.893 66.397 55.795
48.763 66.862 55.527
48.947 66.828 55.736
48.866 67.657 55.360
49.054 68.952 54.956
49.426 70.102 54.390
49.167 69.727 54.909
49.772 71.562 53.366
49.935 71.382 53.548
49.811 70.864 53.888
49.725 71.023 54.085
49.770 71.928 53.012
50.018 71.798 53.382
50.042 71.788 53.534
50.049 72.268 53.284
50.125 71.720 53.613
49.461 73.234 52.288
49.778 72.850 52.596
49.973 72.838 52.941
49.378 74.000 51.726
49.680 73.479 52.303
49.793 73.372 52.498
49.750 73.840 52.210
49.992 73.321 52.577
49.322 75.401 50.839
49.387 74.803 51.245
49.680 74.584 51.631
49.659 75.247 51.111
49.424 76.366 49.888
49.402 75.846 50.514
49.203 75.719 50.604
49.386 75.892 50.531
49.547 75.641 50.789
49.647 77.330 48.853
49.572 76.861 49.377
49.454 76.621 49.831
49.407 77.221 49.289
49.557 76.079 50.360
49.655 78.160 47.805
49.726 77.786 48.340
49.641 77.627 48.568
49.627 77.565 48.752
49.430 77.653 48.794
49.608 78.157 48.318
49.709 79.200 46.739
49.810 78.671 47.338
49.653 78.957 47.749
49.668 80.015 46.212
49.845 79.646 46.466
49.828 79.369 47.269
49.644 79.887 46.943
49.574 80.246 46.233
49.680 80.141 46.516
50.122 71.457 53.684
50.149 72.066 53.251
50.113 72.876 52.816
49.867 73.780 52.142
49.650 75.088 51.136
49.631 76.129 50.254
49.703 75.676 50.727
49.649 77.028 49.306
49.822 78.085 48.130
49.961 79.160 47.021
49.916 78.885 47.523
49.898 79.851 46.470
49.946 79.573 46.886
3 2 1 0
3 0 3 2
3 0 1 4
3 4 1 5
3 3 0 6
3 0 7 6
3 0 4 7
3 7 8 6
3 11 10 9
3 11 9 5
3 9 4 5
3 9 12 4
3 4 13 7
3 4 12 13
3 8 7 14
3 7 15 14
3 7 13 15
3 17 16 15
3 15 16 14
3 17 18 16
3 9 10 19
3 19 10 20
3 9 21 12
3 9 19 21
3 12 22 13
3 12 21 22
3 13 23 15
3 13 22 23
3 15 24 17
3 15 23 24
3 18 17 25
3 25 17 24
3 28 27 26
3 28 26 20
3 26 19 20
3 26 29 19
3 19 30 21
3 19 29 30
3 21 31 22
3 21 30 31
3 22 32 23
3 22 31 32
3 34 24 33
3 24 32 33
3 24 23 32
3 24 34 25
3 26 27 35
3 35 27 36
3 26 37 29
3 26 35 37
3 29 38 30
3 29 37 38
3 30 39 31
3 30 38 39
3 41 32 40
3 32 39 40
3 32 31 39
3 32 41 33
3 44 43 42
3 44 42 36
3 42 35 36
3 42 45 35
3 35 46 37
3 35 45 46
3 37 47 38
3 37 46 47
3 49 39 48
3 39 47 48
3 39 38 47
3 39 49 40
3 52 51 50
3 52 50 43
3 50 42 43
3 50 53 42
3 55 45 54
3 45 53 54
3 45 42 53
3 57 56 55
3 56 45 55
3 56 46 45
3 59 47 58
3 47 56 58
3 47 46 56
3 47 59 48
3 62 61 60
3 62 60 51
3 60 50 51
3 60 63 50
3 65 53 64
3 53 63 64
3 53 50 63
3 53 65 54
3 57 66 56
3 56 66 58
3 69 68 67
3 69 67 61
3 67 60 61
3 67 70 60
3 72 63 71
3 63 70 71
3 63 60 70
3 72 73 63
3 73 74 63
3 75 64 63
3 75 63 74
3 77 76 74
3 74 76 75
3 77 78 76
3 67 68 79
3 79 68 80
3 82 70 81
3 70 79 81
3 70 67 79
3 82 83 70
3 83 84 70
3 85 71 70
3 85 70 84
3 85 84 73
3 84 74 73
3 84 86 74
3 74 87 77
3 74 86 87
3 78 77 88
3 88 77 87
3 91 90 89
3 91 89 80
3 89 79 80
3 89 92 79
3 81 79 93
3 79 94 93
3 79 92 94
3 93 94 83
3 94 84 83
3 94 95 84
3 84 96 86
3 84 95 96
3 98 87 97
3 87 96 97
3 87 86 96
3 87 98 88
3 101 100 99
3 101 99 90
3 99 89 90
3 99 102 89
3 89 103 92
3 89 102 103
3 92 104 94
3 92 103 104
3 94 105 95
3 94 104 105
3 107 96 106
3 96 105 106
3 96 95 105
3 96 107 97
3 99 100 108
3 108 100 109
3 99 110 102
3 99 108 110
3 102 111 103
3 102 110 111
3 103 112 104
3 103 111 112
3 104 113 105
3 104 112 113
3 106 105 114
3 114 105 113
3 109 115 108
3 117 116 115
3 116 108 115
3 116 110 108
3 110 118 111
3 110 116 118
3 111 119 112
3 111 118 119
3 121 113 120
3 113 119 120
3 113 112 119
3 113 121 114
3 117 122 116
3 116 122 118
3 118 122 123
3 118 123 119
3 119 123 124
3 119 124 120
3 125 1 2
3 3 125 2
3 127 126 125
3 126 1 125
3 126 5 1
3 127 125 3
3 6 127 3
3 128 127 6
3 6 8 128
3 128 8 129
3 132 131 130
3 134 133 130
3 130 133 132
3 134 135 133
3 136 10 11
3 137 136 11
3 5 137 11
3 126 137 5
3 8 14 138
3 139 8 138
3 129 8 139
3 138 14 140
3 14 141 140
3 14 16 141
3 142 130 18
3 130 141 18
3 141 16 18
3 130 131 141
3 144 134 143
3 134 142 143
3 134 130 142
3 134 144 135
3 146 145 136
3 145 10 136
3 145 20 10
3 146 136 137
3 149 148 147
3 139 138 150
3 148 151 147
3 150 138 140
3 25 152 142
3 25 142 18
3 143 142 153
3 153 142 152
3 154 27 28
3 155 154 28
3 20 155 28
3 145 155 20
3 149 147 156
3 149 156 157
3 147 151 158
3 147 158 156
3 33 159 34
3 159 160 34
3 34 160 25
3 160 161 25
3 161 152 25
3 152 161 153
3 163 162 154
3 162 27 154
3 162 36 27
3 163 154 155
3 166 165 164
3 157 156 167
3 165 168 164
3 41 40 169
3 156 158 167
3 169 170 41
3 41 170 33
3 170 171 33
3 171 159 33
3 159 171 160
3 172 43 44
3 173 172 44
3 36 173 44
3 162 173 36
3 174 166 164
3 49 48 175
3 164 168 174
3 175 176 49
3 49 176 40
3 176 177 40
3 177 169 40
3 169 177 170
3 178 51 52
3 179 178 52
3 179 52 43
3 180 179 43
3 172 180 43
3 55 54 181
3 172 173 180
3 181 57 55
3 58 182 59
3 175 48 59
3 182 175 59
3 183 175 182
3 176 175 184
3 184 175 183
3 185 61 62
3 186 185 62
3 186 62 51
3 187 186 51
3 178 187 51
3 65 64 188
3 178 179 187
3 181 54 65
3 188 181 65
3 189 181 188
3 190 66 57
3 181 190 57
3 189 190 181
3 182 58 66
3 190 182 66
3 191 182 190
3 193 183 192
3 183 191 192
3 183 182 191
3 183 193 184
3 194 68 69
3 195 194 69
3 195 69 61
3 196 195 61
3 185 196 61
3 72 71 197
3 185 186 196
3 75 188 64
3 73 72 197
3 188 75 76
3 188 76 189
3 189 76 78
3 198 189 78
3 190 189 198
3 190 199 191
3 190 198 199
3 192 191 200
3 200 191 199
3 202 201 194
3 201 68 194
3 201 80 68
3 82 81 203
3 194 195 202
3 85 197 71
3 83 82 203
3 197 85 73
3 88 204 198
3 88 198 78
3 206 199 205
3 199 204 205
3 199 198 204
3 199 206 200
3 208 207 91
3 91 207 90
3 91 80 201
3 91 201 208
3 93 203 81
3 203 93 83
3 97 209 98
3 204 88 98
3 209 204 98
3 210 204 209
3 205 204 211
3 211 204 210
3 213 212 101
3 101 212 100
3 101 90 207
3 101 207 213
3 106 214 107
3 209 97 107
3 214 209 107
3 215 209 214
3 217 210 216
3 210 215 216
3 210 209 215
3 210 217 211
3 212 109 100
3 218 109 212
3 114 219 214
3 114 214 106
3 221 215 220
3 215 219 220
3 215 214 219
3 215 221 216
3 218 222 109
3 109 222 115
3 117 115 222
3 117 222 223
3 120 224 121
3 219 114 121
3 224 219 121
3 225 219 224
3 220 219 226
3 226 219 225
3 223 227 117
3 117 227 122
3 122 228 123
3 227 228 122
3 228 230 229
3 124 228 229
3 123 228 124
3 224 120 124
3 229 224 124
3 231 224 229
3 233 225 232
3 225 231 232
3 225 224 231
3 225 233 226
3 230 234 229
3 229 234 231
3 231 234 235
3 231 235 232
3 236 126 127
3 128 237 127
3 127 237 236
3 129 237 128
3 239 238 132
3 132 238 131
3 240 132 133
3 240 239 132
3 133 135 240
3 240 135 241
3 242 137 236
3 236 137 126
3 243 236 237
3 242 236 243
3 139 243 129
3 129 243 237
3 244 140 141
3 245 244 141
3 131 245 141
3 238 245 131
3 247 246 144
3 247 144 143
3 135 144 241
3 241 144 246
3 248 145 146
3 137 242 146
3 242 248 146
3 242 249 248
3 149 249 148
3 249 243 148
3 249 242 243
3 151 148 250
3 148 243 250
3 139 150 250
3 139 250 243
3 251 250 150
3 251 150 140
3 252 251 140
3 244 252 140
3 252 244 245
3 153 247 143
3 153 253 247
3 254 155 248
3 248 155 145
3 255 248 249
3 254 248 255
3 157 255 149
3 149 255 249
3 256 158 250
3 250 158 151
3 250 251 257
3 250 257 256
3 259 258 161
3 259 161 160
3 153 161 253
3 253 161 258
3 260 162 163
3 155 254 163
3 254 260 163
3 254 261 260
3 166 261 165
3 261 255 165
3 261 254 255
3 168 165 262
3 165 255 262
3 157 167 262
3 157 262 255
3 263 262 167
3 263 167 158
3 264 263 158
3 256 264 158
3 171 170 265
3 256 257 264
3 265 266 171
3 266 160 171
3 266 259 160
3 267 173 260
3 260 173 162
3 268 260 261
3 267 260 268
3 174 269 166
3 269 261 166
3 269 268 261
3 270 269 174
3 270 174 168
3 271 270 168
3 262 271 168
3 177 176 272
3 262 263 271
3 272 273 177
3 177 273 170
3 273 274 170
3 274 265 170
3 265 274 266
3 275 179 180
3 173 267 180
3 267 275 180
3 267 276 275
3 277 267 268
3 276 267 277
3 278 268 269
3 277 268 278
3 269 270 279
3 269 279 278
3 281 280 272
3 176 281 272
3 184 281 176
3 272 280 273
3 282 186 187
3 179 275 187
3 275 282 187
3 275 283 282
3 284 275 276
3 283 275 284
3 285 276 277
3 284 276 285
3 278 287 286
3 285 278 286
3 277 278 285
3 193 192 288
3 278 279 287
3 288 289 193
3 289 184 193
3 289 281 184
3 290 195 196
3 186 282 196
3 282 290 196
3 282 291 290
3 292 282 283
3 291 282 292
3 293 283 284
3 292 283 293
3 285 295 294
3 293 285 294
3 284 285 293
3 295 285 286
3 297 296 288
3 192 297 288
3 200 297 192
3 288 296 289
3 298 201 202
3 195 290 202
3 290 298 202
3 290 299 298
3 300 290 291
3 299 290 300
3 301 291 292
3 300 291 301
3 302 292 293
3 301 292 302
3 293 294 303
3 293 303 302
3 305 304 206
3 305 206 205
3 200 206 297
3 297 206 304
3 306 207 208
3 201 298 208
3 298 306 208
3 298 307 306
3 308 298 299
3 307 298 308
3 309 299 300
3 308 299 309
3 310 300 301
3 309 300 310
3 302 312 311
3 310 302 311
3 301 302 310
3 312 302 303
3 211 305 205
3 211 313 305
3 314 212 213
3 207 306 213
3 306 314 213
3 306 315 314
3 316 306 307
3 315 306 316
3 317 307 308
3 316 307 317
3 318 308 309
3 317 308 318
3 310 320 319
3 318 310 319
3 309 310 318
3 320 310 311
3 322 321 217
3 322 217 216
3 211 217 313
3 313 217 321
3 324 323 314
3 323 212 314
3 323 218 212
3 326 325 324
3 314 326 324
3 315 326 314
3 327 315 316
3 326 315 327
3 328 316 317
3 327 316 328
3 318 330 329
3 328 318 329
3 317 318 328
3 330 318 319
3 332 331 221
3 332 221 220
3 216 221 322
3 322 221 331
3 323 333 218
3 218 333 222
3 326 334 223
3 333 326 223
3 222 333 223
3 325 326 333
3 335 326 327
3 334 326 335
3 328 337 336
3 335 328 336
3 327 328 335
3 337 328 329
3 340 339 338
3 339 332 338
3 332 226 338
3 332 220 226
3 334 227 223
3 227 334 228
3 228 334 335
3 230 228 335
3 336 230 335
3 341 230 336
3 344 343 342
3 342 343 340
3 342 340 338
3 232 342 338
3 233 232 338
3 233 338 226
3 341 345 230
3 230 345 234
3 342 235 344
3 235 345 344
3 235 234 345
3 235 342 232
3 348 347 346
3 346 349 348
3 351 350 239
3 239 350 238
3 240 346 347
3 351 240 347
3 239 240 351
3 240 241 346
3 241 349 346
3 241 352 349
3 350 245 238
3 353 245 350
3 355 354 246
3 355 246 247
3 241 246 352
3 352 246 354
3 356 251 252
3 357 356 252
3 245 357 252
3 353 357 245
3 253 355 247
3 253 358 355
3 360 359 356
3 359 251 356
3 359 257 251
3 258 259 361
3 356 357 360
3 361 362 258
3 362 253 258
3 362 358 253
3 364 363 264
3 264 363 263
3 264 257 359
3 264 359 364
3 366 365 361
3 259 366 361
3 266 366 259
3 361 365 362
3 367 270 271
3 368 367 271
3 263 368 271
3 363 368 263
3 370 369 274
3 370 274 273
3 266 274 366
3 366 274 369
3 372 371 367
3 371 270 367
3 371 279 270
3 280 281 373
3 367 368 372
3 373 374 280
3 374 273 280
3 374 370 273
3 375 286 287
3 376 375 287
3 279 376 287
3 371 376 279
3 378 377 373
3 281 378 373
3 289 378 281
3 373 377 374
3 379 294 295
3 380 379 295
3 380 295 286
3 381 380 286
3 375 381 286
3 383 382 297
3 382 381 297
3 375 297 381
3 297 375 296
3 376 296 375
3 296 376 382
3 382 384 296
3 383 384 382
3 382 376 381
3 289 296 378
3 378 296 384
3 386 385 379
3 385 294 379
3 385 303 294
3 388 387 305
3 387 386 305
3 379 305 386
3 305 379 304
3 380 304 379
3 304 380 387
3 387 389 304
3 388 389 387
3 387 380 386
3 297 304 383
3 383 304 389
3 391 390 312
3 312 390 311
3 385 392 303
3 392 393 303
3 394 303 393
3 303 394 312
3 395 312 394
3 312 395 392
3 392 391 312
3 385 391 392
3 392 395 393
3 393 388 394
3 388 313 394
3 388 305 313
3 397 396 320
3 320 396 319
3 320 311 390
3 320 390 397
3 395 394 321
3 322 395 321
3 398 395 322
3 321 394 313
3 399 323 324
3 325 399 324
3 401 400 330
3 330 400 329
3 330 319 396
3 330 396 401
3 403 402 331
3 403 331 332
3 322 331 398
3 398 331 402
3 399 333 323
3 333 399 325
3 405 404 337
3 337 404 336
3 337 329 400
3 337 400 405
3 407 406 339
3 407 339 340
3 332 339 403
3 403 339 406
3 409 341 408
3 341 404 408
3 341 336 404
3 343 344 409
3 408 343 409
3 410 343 408
3 340 343 407
3 407 343 410
3 409 345 341
3 345 409 344
3 411 347 348
3 349 411 348
3 412 350 351
3 347 411 351
3 411 412 351
3 411 413 412
3 352 413 349
3 349 413 411
3 414 353 412
3 412 353 350
3 355 414 354
3 414 413 354
3 414 412 413
3 354 413 352
3 415 357 414
3 414 357 353
3 358 415 355
3 355 415 414
3 416 359 360
3 357 415 360
3 415 416 360
3 415 417 416
3 362 417 358
3 358 417 415
3 418 363 364
3 419 418 364
3 419 364 359
3 420 419 359
3 416 420 359
3 366 421 365
3 421 416 365
3 416 417 365
3 421 420 416
3 365 417 362
3 423 422 418
3 422 363 418
3 422 368 363
3 425 424 370
3 424 423 370
3 418 370 423
3 370 418 369
3 419 369 418
3 369 419 424
3 424 426 369
3 425 426 424
3 424 419 423
3 366 369 421
3 421 369 426
3 427 371 372
3 428 427 372
3 368 428 372
3 422 428 368
3 374 425 370
3 374 429 425
3 431 430 427
3 430 371 427
3 430 376 371
3 433 432 378
3 432 431 378
3 427 378 431
3 378 427 377
3 428 377 427
3 377 428 432
3 432 434 377
3 433 434 432
3 432 428 431
3 374 377 429
3 429 377 434
3 436 435 381
3 381 435 380
3 384 383 437
3 438 437 383
3 430 381 376
3 381 430 436
3 378 384 433
3 433 384 437
3 440 439 386
3 386 439 385
3 435 441 380
3 435 389 441
3 389 435 442
3 440 442 435
3 442 440 388
3 441 388 440
3 440 386 441
3 441 386 380
3 389 388 441
3 442 443 389
3 443 383 389
3 443 438 383
3 445 444 391
3 391 444 390
3 393 395 446
3 447 446 395
3 439 391 385
3 391 439 445
3 388 393 442
3 393 448 442
3 393 446 448
3 442 448 443
3 450 449 397
3 397 449 396
3 444 451 390
3 451 452 390
3 453 390 452
3 390 453 397
3 454 397 453
3 397 454 451
3 451 450 397
3 444 450 451
3 451 454 452
3 452 447 453
3 447 398 453
3 447 395 398
3 456 455 401
3 401 455 400
3 401 396 449
3 401 449 456
3 454 453 402
3 403 454 402
3 457 454 403
3 402 453 398
3 459 458 405
3 405 458 404
3 405 400 455
3 405 455 459
3 461 460 406
3 461 406 407
3 403 406 457
3 457 406 460
3 458 462 404
3 404 462 408
3 408 463 410
3 462 463 408
3 407 410 461
3 461 410 463
3 464 419 420
3 421 464 420
3 465 422 423
3 423 419 465
3 419 464 465
3 426 425 465
3 426 465 464
3 426 464 421
3 466 428 465
3 465 428 422
3 429 466 425
3 425 466 465
3 467 430 431
3 431 428 467
3 428 466 467
3 434 433 467
3 434 467 466
3 434 466 429
3 468 435 436
3 436 430 468
3 430 467 468
3 437 438 468
3 437 468 467
3 437 467 433
3 469 439 440
3 435 468 440
3 468 469 440
3 468 470 469
3 443 470 438
3 438 470 468
3 471 444 445
3 445 439 471
3 439 469 471
3 446 447 471
3 446 471 469
3 446 469 448
3 448 469 470
3 448 470 443
3 472 449 450
3 450 444 472
3 444 471 472
3 452 454 472
3 452 472 471
3 452 471 447
3 473 455 456
3 449 472 456
3 472 473 456
3 472 474 473
3 457 474 454
3 454 474 472
3 475 458 459
3 455 473 459
3 473 475 459
3 473 476 475
3 461 476 460
3 476 474 460
3 476 473 474
3 460 474 457
3 475 462 458
3 462 475 463
3 463 475 476
3 463 476 461
