ply
format ascii 1.0
comment None
element vertex 667
property float x
property float y
property float z
element face 1526
property list uchar int vertex_indices
end_header
67.082 36.638 42.208
67.312 36.528 42.009
67.342 36.175 42.142
67.486 36.019 42.177
66.926 37.169 42.162
67.119 37.111 41.903
67.126 36.783 42.246
66.887 37.313 42.347
66.946 37.484 42.401
66.932 37.579 42.095
67.134 37.499 41.920
66.900 37.790 42.339
67.036 37.938 42.569
67.171 38.144 42.153
67.178 38.333 42.603
67.804 35.733 42.043
68.441 35.313 41.849
68.433 35.104 41.998
68.163 35.301 42.098
67.810 36.237 41.769
68.195 36.407 41.363
68.540 35.642 41.581
67.818 35.869 42.077
67.556 36.935 41.592
68.175 37.139 41.088
67.393 36.782 41.832
67.300 36.973 42.022
67.802 36.190 41.891
67.773 36.961 41.749
67.039 37.314 42.292
67.486 37.621 41.600
68.108 38.108 40.901
67.299 37.203 41.777
67.379 37.621 41.985
67.537 38.230 42.269
67.212 37.960 42.415
67.664 38.565 41.529
67.540 38.720 42.259
68.122 39.236 41.628
67.285 38.474 42.496
67.706 38.457 42.650
67.589 38.763 42.752
67.795 38.485 43.113
68.144 39.158 42.510
68.261 38.909 43.261
69.038 34.914 41.743
68.787 34.824 41.985
68.820 34.879 41.967
69.144 36.182 40.923
69.121 35.269 41.458
68.768 35.205 41.710
68.872 35.019 41.800
68.394 35.421 41.865
68.601 35.662 41.651
68.977 37.425 40.487
68.807 36.663 41.264
68.681 38.436 40.287
69.251 38.509 39.790
69.311 37.836 40.133
67.875 37.842 41.990
68.508 37.760 41.613
68.806 38.441 43.998
69.035 38.385 44.003
69.308 38.321 44.251
69.430 38.319 44.384
68.769 39.230 40.126
69.240 39.186 39.599
68.244 38.997 40.829
68.539 38.427 42.401
68.682 38.475 43.398
68.559 38.651 43.801
69.260 38.488 44.248
69.099 39.922 39.828
68.814 39.766 40.860
69.348 40.407 40.353
69.004 39.537 41.870
69.293 39.770 41.354
68.976 39.199 43.070
69.085 38.806 43.836
69.515 40.195 41.149
68.980 44.268 35.419
69.031 44.152 35.247
69.162 43.792 35.320
69.241 43.730 35.749
69.090 44.302 35.855
69.468 43.936 36.547
69.213 44.530 36.277
69.693 44.277 37.210
68.893 44.588 35.365
68.927 44.836 35.715
68.864 44.997 35.560
69.159 44.833 36.122
69.396 44.620 36.492
68.834 45.284 35.719
68.883 45.327 35.753
69.097 45.229 36.054
68.900 45.424 35.849
69.454 34.557 41.791
70.115 34.477 41.488
69.844 34.285 41.783
69.633 34.401 41.820
69.713 35.064 41.275
70.598 35.150 40.731
70.534 34.752 41.049
69.390 34.623 41.785
69.961 36.052 40.518
70.267 36.489 40.082
70.725 35.606 40.383
69.101 35.084 41.615
69.487 35.407 41.255
69.407 34.848 41.599
69.643 37.140 40.179
70.034 37.461 39.760
69.516 36.656 40.460
69.441 36.534 40.712
69.952 35.897 40.684
70.021 36.577 40.376
70.036 38.503 39.372
69.818 37.780 40.290
69.489 37.225 40.390
69.179 37.712 40.789
69.522 38.381 43.945
69.949 38.258 44.325
70.059 38.284 44.439
69.636 39.433 39.240
69.424 39.047 41.143
70.098 39.142 40.436
69.159 38.728 41.668
69.518 38.912 42.371
69.762 38.647 43.199
69.994 38.516 44.243
69.479 40.457 39.180
69.857 40.377 38.652
69.820 39.833 38.953
69.303 40.495 39.758
69.818 39.610 41.412
69.793 39.326 41.938
69.423 39.441 41.619
69.639 39.847 41.788
70.359 39.841 42.332
69.946 39.453 42.802
69.927 38.921 43.707
69.707 41.298 38.362
70.064 41.408 37.745
70.000 40.785 38.251
69.602 41.144 39.055
69.785 41.009 39.756
70.247 40.654 40.874
70.489 41.076 40.347
70.280 40.199 41.711
69.774 42.129 37.220
70.039 42.089 36.580
70.142 41.746 37.286
69.796 42.428 37.923
69.868 41.821 38.918
70.286 41.628 39.486
70.358 41.254 39.818
69.491 43.208 35.546
69.404 43.591 35.348
70.005 42.787 35.581
69.902 42.568 35.891
69.573 42.922 36.174
69.600 43.266 36.722
70.011 43.194 37.535
70.019 42.660 38.107
70.085 42.767 38.562
70.265 42.982 38.446
70.406 42.559 39.122
69.085 44.387 35.473
69.519 43.716 35.660
69.306 44.333 36.042
69.559 43.720 36.111
69.393 43.657 36.146
69.736 44.180 36.489
70.052 43.646 37.878
70.156 43.641 38.251
70.493 43.343 38.812
70.609 43.923 38.549
69.124 44.985 35.870
69.345 44.796 36.187
69.802 45.072 36.459
69.408 44.897 36.429
69.766 44.802 37.070
70.232 44.420 37.873
69.193 45.325 36.084
69.897 45.203 36.781
69.968 34.301 41.706
71.117 34.944 40.635
70.864 34.691 40.979
70.064 34.625 41.425
70.789 34.809 40.934
71.004 36.269 39.898
71.241 35.364 40.293
70.984 35.210 40.518
70.919 35.075 40.683
70.486 35.190 40.817
71.007 35.630 40.431
71.043 37.346 39.426
70.952 36.892 39.999
70.651 38.308 39.134
71.262 38.210 38.912
71.357 37.612 39.199
70.488 38.094 39.793
70.585 38.374 43.929
70.964 38.194 44.300
70.997 38.235 44.362
70.406 39.052 38.925
71.229 38.863 38.643
70.206 38.836 39.159
70.311 38.949 39.475
70.700 38.232 39.340
70.753 38.656 39.092
70.470 39.203 42.631
71.181 38.738 43.397
70.958 38.505 44.111
70.497 40.145 38.337
71.276 40.031 37.925
71.139 39.433 38.377
70.315 39.800 38.905
70.783 39.776 38.424
70.922 39.114 38.709
70.461 40.161 40.033
70.696 40.009 41.181
70.782 40.389 40.709
70.542 39.655 41.989
71.171 39.479 42.886
71.008 39.915 42.309
70.973 38.944 43.579
70.533 41.399 37.191
71.371 41.478 36.549
71.399 40.771 37.294
70.372 40.836 38.184
70.908 40.946 37.556
71.013 40.274 37.989
70.327 40.950 39.339
70.613 41.150 39.821
71.064 40.795 40.518
70.744 40.917 40.770
71.189 40.733 41.155
71.281 40.352 41.729
70.655 42.029 36.112
71.278 42.001 35.851
71.532 41.751 36.117
70.602 41.678 37.207
70.383 41.347 37.630
70.231 42.021 37.918
70.404 41.506 38.919
70.435 41.394 39.487
70.782 41.667 39.501
70.636 41.597 39.754
70.948 41.432 40.138
71.353 41.133 40.696
69.952 43.100 35.563
70.895 42.380 35.752
70.644 42.409 36.422
70.266 42.848 36.948
70.641 42.162 36.749
70.698 42.331 38.987
70.834 43.327 38.885
71.090 42.541 39.494
71.224 41.902 39.899
70.166 43.075 36.052
70.485 44.100 37.383
70.667 43.866 38.335
71.127 44.568 37.944
70.446 43.522 38.555
70.777 43.657 38.835
70.976 43.305 39.130
70.769 45.001 36.992
71.105 44.881 37.421
70.360 44.926 37.558
71.105 44.635 38.293
71.296 44.105 38.821
71.038 45.415 37.065
71.063 45.194 37.607
71.524 35.124 40.359
71.825 35.548 40.053
71.673 35.052 40.449
72.176 35.420 40.262
71.309 35.010 40.641
71.824 36.402 39.593
72.046 36.075 40.070
71.737 37.123 39.308
71.988 37.422 39.044
72.452 36.646 39.311
71.904 36.741 39.762
72.663 36.296 39.890
72.488 36.807 39.645
72.292 38.142 38.707
71.772 37.599 39.305
71.715 37.148 39.475
71.237 37.446 39.506
72.189 38.318 43.923
72.086 38.121 44.211
72.070 38.179 44.200
71.692 38.965 38.442
71.895 39.440 38.037
72.518 38.692 38.359
71.686 38.393 38.937
71.541 39.349 42.876
72.523 38.701 43.538
71.992 38.458 43.950
72.176 40.231 37.505
71.131 39.245 38.524
71.605 39.477 38.351
71.619 38.889 38.627
71.113 40.510 41.146
71.500 40.418 41.554
71.570 39.882 42.243
71.036 39.610 42.514
71.580 39.772 42.547
72.255 39.369 43.056
72.051 38.871 43.539
72.173 41.212 36.555
72.183 40.708 37.134
71.869 40.350 37.782
71.578 41.092 37.159
71.396 41.491 40.074
71.878 41.120 40.705
71.600 40.723 41.192
71.613 40.606 41.478
72.013 40.820 41.332
72.340 40.487 41.871
72.340 39.938 42.496
72.122 41.878 35.739
72.180 41.576 36.114
71.810 41.538 36.308
71.922 41.431 36.552
71.215 41.769 36.523
71.802 41.749 36.168
71.532 42.278 39.625
72.474 41.250 40.871
72.077 41.699 40.283
72.088 41.995 35.779
71.111 42.230 36.056
71.227 42.682 39.377
71.697 42.337 39.761
71.205 44.385 38.468
71.484 44.181 38.751
71.806 43.370 39.281
72.049 43.602 39.281
71.535 45.327 37.231
71.753 45.223 37.589
71.707 44.778 38.304
71.617 44.565 38.614
72.146 45.008 38.334
72.113 44.471 38.837
71.975 45.672 37.085
71.978 45.715 37.186
72.194 45.647 37.227
72.379 45.778 37.288
72.080 45.564 37.517
72.539 45.876 37.202
72.385 35.396 40.108
72.734 35.899 39.721
73.072 35.618 39.975
73.077 35.844 40.013
72.899 37.138 38.984
73.336 36.414 39.331
73.289 36.333 39.814
73.139 37.002 39.514
73.278 37.710 38.632
72.862 37.802 39.135
73.104 38.237 43.932
73.138 38.078 44.072
73.240 38.140 43.996
72.934 39.451 37.638
73.498 38.417 38.175
72.894 38.276 38.551
73.007 38.226 38.844
72.382 38.391 38.756
72.773 38.788 38.610
72.806 39.391 42.979
73.347 38.649 43.593
73.003 38.415 43.781
73.401 38.306 43.844
72.685 38.435 43.822
73.235 38.723 43.580
72.773 40.540 36.979
73.469 40.695 36.415
73.708 39.990 36.982
72.952 39.673 38.250
72.344 40.450 41.871
72.774 40.038 42.423
73.136 39.490 43.022
72.861 41.364 36.056
73.526 41.588 35.496
73.795 41.133 35.895
72.212 40.613 37.395
72.558 40.884 37.074
73.060 40.383 37.614
72.132 41.512 40.397
72.650 41.379 40.690
72.736 40.870 41.443
72.058 40.639 41.548
72.673 40.784 41.585
73.444 40.572 42.108
73.476 40.118 42.558
73.139 41.831 35.409
73.529 42.026 35.139
73.715 41.883 35.162
72.257 41.517 36.293
72.595 41.670 36.046
72.918 41.346 36.490
72.192 42.046 39.987
72.669 41.741 40.322
72.723 41.542 40.545
73.237 41.834 40.399
73.553 41.472 40.890
73.524 41.000 41.568
73.080 41.996 35.428
73.040 41.900 35.726
72.188 42.897 39.602
72.512 42.950 39.614
72.929 42.502 39.954
72.388 44.378 38.893
72.826 43.795 39.286
73.108 43.339 39.596
73.258 43.897 39.376
72.460 45.479 37.695
72.722 44.997 38.421
72.074 44.666 38.632
72.591 44.776 38.710
72.930 44.446 39.025
72.851 45.959 37.070
72.861 45.837 37.301
72.274 45.628 37.395
72.637 45.778 37.429
72.947 45.617 37.872
73.362 45.160 38.563
73.076 46.050 37.128
73.282 45.980 37.451
73.687 36.025 39.651
73.660 35.807 39.902
73.731 36.016 39.882
73.870 37.034 38.974
73.894 36.433 39.340
73.871 36.496 39.654
73.986 37.306 39.316
74.065 37.772 38.503
73.745 37.932 39.095
74.072 38.279 43.831
74.031 38.071 43.939
74.168 38.050 43.918
74.127 39.149 37.583
74.567 38.397 38.122
73.905 38.466 38.890
74.035 39.160 38.620
73.839 39.196 43.260
74.212 38.648 43.622
73.616 38.396 43.772
74.025 38.536 43.686
74.118 38.240 43.835
74.248 40.507 36.461
74.692 39.832 37.093
74.271 39.827 38.245
73.231 40.393 42.208
73.867 40.048 42.691
74.429 38.652 43.627
74.250 39.388 43.222
74.120 41.566 35.445
74.534 41.031 36.004
74.715 40.337 37.797
73.876 40.847 37.199
73.791 41.517 40.899
74.206 41.106 41.648
73.908 40.604 42.200
73.960 40.404 42.446
74.367 40.705 42.250
74.504 40.317 42.663
73.860 42.048 35.037
74.068 41.916 35.126
74.324 41.250 36.684
73.577 41.664 36.075
73.248 42.443 39.988
73.583 41.892 40.399
73.201 41.616 40.561
73.945 41.796 40.608
74.660 41.611 41.105
74.679 41.203 41.689
73.792 42.057 35.198
73.760 41.917 35.596
73.537 43.359 39.637
74.722 42.058 40.589
74.251 42.349 40.251
73.660 44.614 38.950
73.644 43.918 39.404
73.115 43.537 39.489
73.814 43.775 39.529
74.233 43.210 39.877
73.733 45.727 37.808
73.827 45.279 38.372
74.718 44.081 39.600
74.328 44.632 39.213
73.463 46.120 37.089
73.802 46.097 37.289
74.416 45.434 38.662
74.255 45.918 38.054
73.577 46.201 37.070
74.277 46.344 37.351
73.990 36.105 39.738
74.233 36.743 39.340
74.800 37.796 38.692
74.682 37.566 39.083
74.518 38.021 39.053
74.630 38.344 43.766
74.523 38.101 43.862
74.560 38.176 43.825
75.190 39.209 37.704
75.288 38.561 38.196
74.840 38.762 38.793
74.964 39.392 38.543
74.679 39.420 43.238
74.724 38.716 43.596
74.626 38.502 43.699
74.724 38.449 43.719
74.509 38.416 43.735
74.846 38.993 43.498
75.178 40.484 36.770
75.420 39.919 37.313
75.362 39.860 38.228
75.055 40.411 42.732
74.975 39.653 43.192
74.655 41.393 35.734
75.023 41.048 36.191
75.761 40.240 37.787
75.345 40.663 37.355
74.577 41.410 41.347
75.039 41.351 41.638
75.092 40.850 42.332
74.519 40.505 42.518
74.911 40.675 42.435
75.044 40.251 42.815
74.112 42.011 35.138
74.437 41.761 35.420
75.206 41.103 36.849
74.589 41.565 36.101
74.216 42.308 40.232
74.665 42.089 40.526
75.003 41.681 41.157
75.124 41.508 41.447
75.597 41.825 41.262
75.544 41.365 41.835
75.205 40.869 42.294
74.262 41.912 35.441
74.321 42.981 39.933
74.861 42.545 40.246
74.903 42.334 40.385
75.352 42.795 40.306
75.526 42.340 40.636
74.338 44.345 39.341
74.752 44.018 39.612
75.509 43.724 39.987
74.337 45.607 38.182
74.639 45.333 38.605
74.925 44.749 39.249
75.018 44.481 39.486
75.590 44.891 39.456
75.684 44.426 39.730
74.203 46.335 37.179
74.696 46.298 37.493
75.065 45.979 38.092
74.885 45.780 38.526
75.228 45.445 38.947
75.308 46.708 37.348
75.180 46.656 37.426
75.244 46.489 37.763
75.578 46.097 38.456
75.775 46.830 37.548
75.162 38.307 38.796
74.786 38.327 43.757
75.712 39.097 38.044
75.575 38.680 38.417
75.645 39.268 38.439
75.007 38.961 43.509
75.679 40.286 37.382
75.877 39.926 37.683
75.948 39.933 38.101
75.462 40.134 42.987
75.387 39.667 43.253
75.401 40.031 43.055
74.960 41.389 36.027
75.480 40.843 36.711
75.755 40.456 37.280
75.914 40.409 37.569
75.789 40.709 37.305
76.063 40.304 37.739
75.782 41.405 41.898
75.647 40.799 42.540
75.550 40.651 42.688
75.653 40.588 42.767
75.507 40.768 42.524
75.791 40.977 42.448
74.618 41.722 35.679
75.436 41.060 36.726
75.594 42.267 40.733
75.817 41.856 41.322
75.522 41.585 41.526
75.902 41.628 41.664
75.958 41.384 42.021
75.380 43.339 40.052
75.790 42.751 40.452
75.325 42.437 40.449
76.030 42.734 40.579
76.358 42.457 40.983
76.217 41.881 41.534
76.013 44.336 39.846
76.798 43.188 40.670
76.315 43.482 40.342
75.872 45.619 38.893
75.989 44.954 39.518
75.531 44.578 39.583
76.215 44.835 39.699
76.509 44.374 40.041
75.900 46.689 37.709
76.012 46.303 38.260
76.834 45.128 39.784
76.404 45.552 39.306
76.021 46.994 37.353
76.252 47.127 37.315
76.255 47.052 37.423
76.529 46.354 38.608
76.223 46.694 38.051
76.129 47.041 37.407
76.305 46.963 37.703
75.937 39.350 38.150
76.066 39.886 37.967
75.666 40.267 42.978
75.924 40.479 37.373
75.853 40.843 42.554
76.225 42.418 40.916
76.352 42.059 41.391
76.202 41.577 41.905
76.694 42.390 41.240
76.343 43.494 40.305
76.515 42.943 40.649
76.974 42.922 40.910
76.899 44.234 40.190
77.226 43.475 40.693
77.188 44.122 40.395
76.525 45.357 39.474
76.762 45.045 39.763
77.197 44.798 40.111
76.351 46.593 38.186
76.570 46.349 38.568
76.780 45.598 39.377
76.958 45.461 39.621
77.042 45.848 39.331
77.294 45.303 39.871
76.374 47.119 37.434
76.436 46.963 37.710
76.472 46.739 38.083
76.617 46.652 38.323
76.608 46.832 38.084
76.853 46.470 38.633
76.495 47.018 37.709
76.766 42.719 40.955
76.955 43.419 40.593
77.131 43.149 40.841
77.323 44.018 40.468
77.311 45.029 39.956
77.543 44.648 40.289
77.526 44.917 40.174
77.068 45.975 39.166
77.444 45.399 39.834
76.723 46.699 38.258
77.608 45.034 40.133
3 2 1 0
3 0 3 2
3 0 1 4
3 4 1 5
3 3 0 6
3 0 7 6
3 0 4 7
3 7 8 6
3 4 5 9
3 9 5 10
3 4 11 7
3 4 9 11
3 8 7 12
3 12 7 11
3 10 13 9
3 9 13 11
3 11 13 14
3 11 14 12
3 17 16 15
3 15 18 17
3 21 20 19
3 21 19 16
3 16 19 15
3 19 1 15
3 1 2 15
3 2 3 15
3 3 18 15
3 3 22 18
3 19 20 23
3 23 20 24
3 1 25 5
3 1 26 25
3 26 1 27
3 19 27 1
3 27 19 28
3 25 28 19
3 19 23 25
3 25 23 5
3 26 28 25
3 29 26 6
3 26 22 6
3 22 3 6
3 22 26 27
3 8 29 6
3 23 24 30
3 30 24 31
3 5 32 10
3 32 26 10
3 33 10 26
3 10 33 30
3 28 30 33
3 30 28 32
3 32 23 30
3 5 23 32
3 32 28 26
3 35 34 33
3 26 35 33
3 29 35 26
3 12 35 8
3 8 35 29
3 31 36 30
3 36 38 37
3 36 37 13
3 30 36 13
3 10 30 13
3 13 39 14
3 13 35 39
3 35 13 34
3 37 34 13
3 34 37 40
3 39 40 37
3 37 41 39
3 39 41 14
3 35 40 39
3 40 35 42
3 35 12 42
3 14 41 42
3 14 42 12
3 38 43 37
3 37 43 41
3 41 43 44
3 41 44 42
3 46 45 17
3 17 45 16
3 17 18 46
3 46 18 47
3 49 48 21
3 21 48 20
3 45 50 16
3 50 51 16
3 52 16 51
3 16 52 21
3 53 21 52
3 21 53 50
3 50 49 21
3 45 49 50
3 50 53 51
3 51 47 52
3 47 22 52
3 47 18 22
3 48 24 20
3 54 24 48
3 53 52 27
3 28 53 27
3 55 53 28
3 27 52 22
3 58 57 56
3 54 58 56
3 31 54 56
3 24 54 31
3 28 33 59
3 60 28 59
3 55 28 60
3 34 59 33
3 63 62 61
3 61 64 63
3 56 57 65
3 65 57 66
3 67 36 31
3 56 67 31
3 65 67 56
3 59 68 60
3 38 36 67
3 68 59 34
3 40 68 34
3 69 68 40
3 70 61 42
3 61 69 42
3 69 40 42
3 61 62 69
3 64 61 71
3 71 61 70
3 66 72 65
3 74 73 72
3 73 65 72
3 73 67 65
3 67 73 38
3 73 75 38
3 75 43 38
3 73 76 75
3 43 77 44
3 75 77 43
3 42 44 70
3 44 78 70
3 44 77 78
3 70 78 71
3 74 79 73
3 73 79 76
3 82 81 80
3 84 83 80
3 80 83 82
3 86 85 84
3 84 85 83
3 86 87 85
3 81 88 80
3 90 89 88
3 89 80 88
3 89 84 80
3 92 86 91
3 86 89 91
3 86 84 89
3 86 92 87
3 89 90 93
3 93 90 94
3 91 89 95
3 95 89 93
3 94 96 93
3 93 96 95
3 99 98 97
3 97 100 99
3 103 102 101
3 103 101 98
3 98 101 97
3 101 45 97
3 45 46 97
3 46 47 97
3 47 100 97
3 47 104 100
3 107 106 105
3 107 105 102
3 102 105 101
3 105 48 101
3 48 49 101
3 109 108 53
3 109 49 108
3 49 109 101
3 110 101 109
3 101 110 45
3 108 45 110
3 110 51 108
3 108 51 53
3 49 45 108
3 47 51 104
3 104 51 110
3 105 106 111
3 111 106 112
3 48 113 54
3 48 114 113
3 114 48 115
3 105 115 48
3 115 105 116
3 113 116 105
3 105 111 113
3 113 111 54
3 114 116 113
3 115 109 114
3 109 55 114
3 109 53 55
3 111 112 58
3 112 57 58
3 112 117 57
3 116 119 118
3 119 111 118
3 58 118 111
3 118 58 120
3 54 120 58
3 120 54 119
3 119 114 120
3 116 114 119
3 119 54 111
3 60 120 55
3 55 120 114
3 122 121 63
3 63 121 62
3 63 64 122
3 122 64 123
3 117 66 57
3 124 66 117
3 118 120 125
3 118 125 126
3 68 127 60
3 127 120 60
3 127 125 120
3 127 68 128
3 68 129 128
3 68 69 129
3 69 62 121
3 69 121 129
3 71 123 64
3 71 130 123
3 133 132 131
3 131 134 72
3 124 131 72
3 66 124 72
3 131 124 133
3 125 135 126
3 74 72 134
3 135 137 136
3 135 138 137
3 138 135 76
3 125 76 135
3 76 125 75
3 137 75 125
3 125 127 137
3 137 127 136
3 138 75 137
3 127 128 136
3 140 138 139
3 138 140 75
3 77 75 140
3 77 141 78
3 140 141 77
3 71 78 130
3 130 78 141
3 144 143 142
3 144 142 132
3 142 131 132
3 142 145 131
3 131 146 134
3 131 145 146
3 134 146 74
3 146 147 74
3 147 79 74
3 146 148 147
3 76 79 138
3 79 149 138
3 79 147 149
3 138 149 139
3 152 151 150
3 152 150 143
3 150 142 143
3 150 153 142
3 142 154 145
3 142 153 154
3 156 146 155
3 146 154 155
3 146 145 154
3 146 156 148
3 159 158 157
3 161 160 157
3 157 160 159
3 160 161 151
3 161 150 151
3 161 162 150
3 164 153 163
3 153 162 163
3 153 150 162
3 166 165 164
3 165 153 164
3 165 154 153
3 155 154 167
3 167 154 165
3 169 168 158
3 168 81 158
3 82 157 158
3 82 158 81
3 171 170 169
3 168 169 170
3 157 83 161
3 83 157 82
3 85 172 83
3 85 170 172
3 170 85 173
3 162 173 85
3 173 162 171
3 172 171 162
3 162 161 172
3 172 161 83
3 170 171 172
3 175 174 87
3 87 174 85
3 174 163 85
3 163 162 85
3 177 176 175
3 176 165 175
3 166 174 175
3 166 175 165
3 165 176 167
3 168 88 81
3 88 168 90
3 168 178 90
3 168 170 178
3 180 179 173
3 179 181 173
3 92 173 181
3 173 92 170
3 91 170 92
3 170 91 179
3 179 178 170
3 180 178 179
3 179 91 181
3 181 182 92
3 92 182 87
3 182 183 87
3 183 175 87
3 175 183 177
3 184 94 178
3 178 94 90
3 95 181 91
3 181 95 185
3 184 185 95
3 185 184 180
3 178 180 184
3 181 185 182
3 184 96 94
3 96 184 95
3 186 98 99
3 100 186 99
3 188 187 103
3 103 187 102
3 188 103 98
3 189 188 98
3 186 189 98
3 188 189 190
3 104 189 100
3 100 189 186
3 192 191 107
3 107 191 106
3 187 193 102
3 193 194 102
3 195 102 194
3 102 195 107
3 196 107 195
3 107 196 193
3 193 192 107
3 187 192 193
3 193 196 194
3 195 194 190
3 195 190 189
3 109 195 189
3 110 109 189
3 110 189 104
3 191 112 106
3 197 112 191
3 196 195 115
3 116 196 115
3 198 196 116
3 115 195 109
3 201 200 199
3 197 201 199
3 117 197 199
3 112 197 117
3 118 198 116
3 118 202 198
3 204 203 122
3 122 203 121
3 122 123 204
3 204 123 205
3 199 200 206
3 206 200 207
3 117 208 124
3 117 209 208
3 209 117 210
3 199 210 117
3 210 199 211
3 208 211 199
3 199 206 208
3 208 206 124
3 209 211 208
3 210 202 209
3 202 126 209
3 202 118 126
3 213 212 129
3 129 212 128
3 129 121 203
3 129 203 213
3 130 205 123
3 130 214 205
3 217 216 215
3 218 133 206
3 133 218 132
3 215 132 218
3 219 215 218
3 215 219 217
3 220 217 219
3 217 220 207
3 206 207 220
3 218 206 220
3 206 133 124
3 220 211 218
3 209 218 211
3 218 209 221
3 221 209 126
3 222 221 126
3 135 222 126
3 223 221 222
3 224 135 136
3 224 222 135
3 140 139 225
3 226 225 139
3 212 136 128
3 136 212 224
3 140 227 141
3 225 227 140
3 130 141 214
3 214 141 227
3 230 229 228
3 231 144 215
3 144 231 143
3 228 143 231
3 232 228 231
3 228 232 230
3 233 230 232
3 230 233 216
3 215 216 233
3 231 215 233
3 215 144 132
3 233 219 231
3 218 231 219
3 231 218 234
3 221 236 235
3 234 221 235
3 218 221 234
3 147 148 237
3 221 223 236
3 147 237 238
3 239 147 238
3 149 147 239
3 139 149 226
3 226 149 239
3 242 241 240
3 242 240 229
3 229 240 228
3 240 151 228
3 151 152 228
3 232 244 243
3 244 228 243
3 152 243 228
3 243 152 245
3 143 245 152
3 245 143 244
3 244 231 245
3 232 231 244
3 244 143 228
3 246 231 234
3 245 231 246
3 248 247 235
3 247 249 235
3 156 235 249
3 235 156 234
3 155 234 156
3 234 155 247
3 247 246 234
3 248 246 247
3 247 155 249
3 249 250 156
3 156 250 148
3 250 251 148
3 251 237 148
3 237 251 238
3 252 158 159
3 241 253 240
3 253 159 240
3 159 160 240
3 159 253 252
3 151 240 160
3 256 255 254
3 255 256 243
3 255 243 245
3 163 255 245
3 164 163 245
3 245 246 257
3 166 245 257
3 258 166 257
3 245 166 164
3 248 257 246
3 260 249 259
3 155 259 249
3 259 155 167
3 249 260 250
3 252 169 158
3 253 261 252
3 261 169 252
3 261 171 169
3 255 262 173
3 261 255 173
3 171 261 173
3 254 255 261
3 262 255 163
3 263 262 163
3 174 263 163
3 264 262 263
3 258 265 166
3 258 176 265
3 176 258 266
3 263 266 258
3 266 263 177
3 265 177 263
3 263 174 265
3 265 174 166
3 176 177 265
3 266 267 176
3 267 167 176
3 267 259 167
3 269 268 262
3 268 173 262
3 268 180 173
3 183 182 270
3 262 264 269
3 270 271 183
3 183 271 177
3 271 272 177
3 272 266 177
3 266 272 267
3 268 273 180
3 180 273 185
3 182 185 270
3 185 274 270
3 185 273 274
3 270 274 271
3 277 276 275
3 275 187 277
3 187 188 277
3 279 278 277
3 279 277 188
3 190 279 188
3 275 276 192
3 276 191 192
3 276 280 191
3 275 192 187
3 196 279 194
3 279 196 278
3 281 278 196
3 194 279 190
3 284 283 282
3 287 286 285
3 284 282 280
3 197 280 282
3 280 197 191
3 286 281 285
3 281 198 285
3 281 196 198
3 282 283 201
3 283 200 201
3 283 288 200
3 287 290 289
3 290 282 289
3 201 289 282
3 289 201 291
3 197 291 201
3 291 197 290
3 290 285 291
3 287 285 290
3 290 197 282
3 202 291 198
3 198 291 285
3 293 292 204
3 204 292 203
3 204 205 293
3 293 205 294
3 297 296 295
3 288 297 295
3 207 288 295
3 200 288 207
3 289 291 210
3 211 289 210
3 298 289 211
3 210 291 202
3 300 299 213
3 213 299 212
3 213 203 292
3 213 292 300
3 214 294 205
3 214 301 294
3 295 296 217
3 296 216 217
3 296 302 216
3 304 303 219
3 304 217 303
3 217 304 295
3 305 295 304
3 295 305 207
3 303 207 305
3 305 220 303
3 303 220 219
3 217 207 303
3 211 220 298
3 298 220 305
3 306 223 222
3 306 222 307
3 222 308 307
3 222 224 308
3 299 309 212
3 299 225 309
3 225 299 310
3 308 310 299
3 310 308 226
3 309 226 308
3 308 224 309
3 309 224 212
3 225 226 309
3 225 310 311
3 312 225 311
3 227 225 312
3 214 227 301
3 301 227 312
3 314 313 230
3 230 313 229
3 233 232 315
3 316 315 232
3 302 230 216
3 230 302 314
3 219 233 304
3 304 233 315
3 318 317 236
3 236 317 235
3 236 223 306
3 319 236 306
3 318 236 319
3 321 320 238
3 320 319 238
3 306 238 319
3 238 306 239
3 307 239 306
3 239 307 320
3 320 322 239
3 321 322 320
3 320 307 319
3 226 239 310
3 239 323 310
3 239 322 323
3 310 323 311
3 325 324 242
3 242 324 241
3 313 326 229
3 326 327 229
3 328 229 327
3 229 328 242
3 329 242 328
3 242 329 326
3 326 325 242
3 313 325 326
3 326 329 327
3 327 316 328
3 316 243 328
3 316 232 243
3 317 248 235
3 330 248 317
3 332 331 251
3 332 251 250
3 238 251 321
3 321 251 331
3 334 253 333
3 253 324 333
3 253 241 324
3 334 333 329
3 334 329 328
3 254 334 328
3 256 254 328
3 256 328 243
3 335 258 257
3 260 259 336
3 335 336 259
3 336 335 330
3 257 330 335
3 330 257 248
3 250 260 332
3 332 260 336
3 334 261 253
3 261 334 254
3 337 264 263
3 338 337 263
3 338 263 258
3 339 338 258
3 335 339 258
3 335 259 339
3 259 340 339
3 259 267 340
3 341 268 269
3 342 341 269
3 342 269 264
3 343 342 264
3 337 343 264
3 345 344 271
3 344 343 271
3 337 271 343
3 271 337 272
3 338 272 337
3 272 338 344
3 344 346 272
3 345 346 344
3 344 338 343
3 267 272 340
3 340 272 346
3 348 273 347
3 273 268 347
3 347 268 341
3 349 347 341
3 341 342 349
3 351 348 350
3 348 351 273
3 274 273 351
3 271 274 345
3 345 274 351
3 347 352 348
3 348 352 350
3 353 276 277
3 278 353 277
3 355 354 353
3 354 276 353
3 354 280 276
3 353 278 355
3 278 356 355
3 278 281 356
3 358 357 284
3 284 357 283
3 286 287 359
3 360 359 287
3 354 284 280
3 284 354 358
3 281 286 356
3 356 286 359
3 357 288 283
3 361 288 357
3 289 360 287
3 289 362 360
3 364 363 293
3 293 363 292
3 293 294 364
3 364 294 365
3 367 366 297
3 297 366 296
3 361 368 288
3 368 369 288
3 370 288 369
3 288 370 297
3 371 297 370
3 297 371 368
3 368 367 297
3 361 367 368
3 368 371 369
3 369 362 370
3 362 298 370
3 362 289 298
3 373 372 300
3 300 372 299
3 363 374 292
3 374 375 292
3 376 292 375
3 292 376 300
3 377 300 376
3 300 377 374
3 374 373 300
3 363 373 374
3 374 377 375
3 375 365 376
3 365 301 376
3 365 294 301
3 380 379 378
3 366 380 378
3 302 366 378
3 296 366 302
3 371 370 305
3 304 371 305
3 381 371 304
3 305 370 298
3 383 382 308
3 308 382 307
3 308 299 372
3 308 372 383
3 377 376 312
3 311 377 312
3 384 377 311
3 312 376 301
3 387 386 385
3 387 385 379
3 379 385 378
3 385 313 378
3 313 314 378
3 389 388 316
3 389 314 388
3 314 389 378
3 390 378 389
3 378 390 302
3 388 302 390
3 390 315 388
3 388 315 316
3 314 302 388
3 304 315 381
3 381 315 390
3 391 317 318
3 391 318 392
3 318 393 392
3 318 319 393
3 382 394 307
3 382 322 394
3 322 382 395
3 393 395 382
3 395 393 321
3 394 321 393
3 393 319 394
3 394 319 307
3 322 321 394
3 322 395 396
3 397 322 396
3 323 322 397
3 311 323 384
3 384 323 397
3 400 399 398
3 400 398 386
3 386 398 385
3 398 324 385
3 324 325 385
3 402 401 329
3 402 325 401
3 325 402 385
3 403 385 402
3 385 403 313
3 401 313 403
3 403 327 401
3 401 327 329
3 325 313 401
3 316 327 389
3 389 327 403
3 405 404 391
3 404 317 391
3 404 330 317
3 407 406 332
3 406 405 332
3 391 332 405
3 332 391 331
3 392 331 391
3 331 392 406
3 406 408 331
3 407 408 406
3 406 392 405
3 321 331 395
3 331 409 395
3 331 408 409
3 395 409 396
3 399 410 398
3 398 410 324
3 410 333 324
3 410 411 333
3 329 333 402
3 402 333 411
3 336 330 412
3 330 413 412
3 330 404 413
3 412 414 336
3 414 332 336
3 414 407 332
3 416 415 339
3 339 415 338
3 339 413 416
3 413 339 412
3 340 412 339
3 412 340 417
3 418 417 340
3 412 417 414
3 420 419 343
3 343 419 342
3 415 421 338
3 415 346 421
3 346 415 422
3 420 422 415
3 422 420 345
3 421 345 420
3 420 343 421
3 421 343 338
3 346 345 421
3 422 423 346
3 423 340 346
3 423 418 340
3 425 424 349
3 349 424 347
3 419 426 342
3 419 351 426
3 351 419 427
3 425 427 419
3 427 425 350
3 426 350 425
3 425 349 426
3 426 349 342
3 351 350 426
3 427 428 351
3 351 428 345
3 428 429 345
3 429 422 345
3 422 429 423
3 424 430 347
3 347 430 352
3 350 352 427
3 352 431 427
3 352 430 431
3 427 431 428
3 433 432 355
3 355 432 354
3 355 356 433
3 433 356 434
3 436 435 358
3 358 435 357
3 359 360 437
3 438 437 360
3 432 358 354
3 358 432 436
3 356 359 434
3 434 359 437
3 435 361 357
3 439 361 435
3 362 438 360
3 362 440 438
3 442 441 364
3 364 441 363
3 364 365 442
3 442 365 443
3 445 444 367
3 367 444 366
3 369 371 446
3 447 446 371
3 439 367 361
3 367 439 445
3 362 369 440
3 440 369 446
3 449 448 373
3 373 448 372
3 441 450 363
3 441 375 450
3 375 441 451
3 449 451 441
3 451 449 377
3 450 377 449
3 449 373 450
3 450 373 363
3 375 377 450
3 451 452 375
3 452 365 375
3 452 443 365
3 454 453 380
3 380 453 379
3 380 366 444
3 380 444 454
3 381 447 371
3 381 455 447
3 456 382 383
3 457 456 383
3 372 457 383
3 448 457 372
3 459 458 451
3 377 459 451
3 384 459 377
3 451 458 452
3 461 460 387
3 387 460 386
3 387 379 453
3 387 453 461
3 463 462 390
3 463 390 389
3 381 390 455
3 455 390 462
3 465 464 393
3 393 464 392
3 393 382 456
3 466 393 456
3 465 393 466
3 468 467 396
3 467 466 396
3 456 396 466
3 396 456 397
3 457 397 456
3 397 457 467
3 467 469 397
3 468 469 467
3 467 457 466
3 384 397 459
3 459 397 469
3 471 470 400
3 400 470 399
3 400 386 460
3 400 460 471
3 473 472 403
3 473 403 402
3 389 403 463
3 463 403 472
3 475 474 405
3 405 474 404
3 464 476 392
3 464 408 476
3 408 464 477
3 475 477 464
3 477 475 407
3 476 407 475
3 475 405 476
3 476 405 392
3 408 407 476
3 408 477 478
3 479 408 478
3 409 408 479
3 396 409 468
3 468 409 479
3 470 480 399
3 399 480 410
3 410 481 411
3 480 481 410
3 402 411 473
3 473 411 481
3 474 413 404
3 482 413 474
3 484 483 477
3 407 484 477
3 414 484 407
3 477 483 478
3 486 485 416
3 416 485 415
3 482 487 413
3 482 417 487
3 417 482 488
3 486 488 482
3 488 486 418
3 487 418 486
3 486 416 487
3 487 416 413
3 417 418 487
3 488 489 417
3 489 414 417
3 489 484 414
3 491 490 420
3 420 490 419
3 420 415 485
3 420 485 491
3 493 492 488
3 418 493 488
3 423 493 418
3 488 492 489
3 495 494 425
3 425 494 424
3 425 419 490
3 425 490 495
3 497 496 429
3 497 429 428
3 423 429 493
3 493 429 496
3 494 498 424
3 424 498 430
3 430 499 431
3 498 499 430
3 428 431 497
3 497 431 499
3 500 432 433
3 434 500 433
3 501 435 436
3 436 432 501
3 432 500 501
3 437 438 501
3 437 501 500
3 437 500 434
3 503 502 501
3 502 435 501
3 502 439 435
3 501 438 503
3 438 504 503
3 438 440 504
3 506 505 442
3 442 505 441
3 442 443 506
3 506 443 507
3 509 508 445
3 445 508 444
3 446 447 510
3 511 510 447
3 502 445 439
3 445 502 509
3 440 446 504
3 504 446 510
3 513 512 449
3 449 512 448
3 505 514 441
3 514 515 441
3 516 441 515
3 441 516 449
3 517 449 516
3 449 517 514
3 514 513 449
3 505 513 514
3 514 517 515
3 515 507 516
3 507 452 516
3 507 443 452
3 519 518 454
3 454 518 453
3 454 444 508
3 454 508 519
3 455 511 447
3 455 520 511
3 512 457 448
3 521 457 512
3 517 516 458
3 459 517 458
3 522 517 459
3 458 516 452
3 524 523 461
3 461 523 460
3 461 453 518
3 461 518 524
3 526 525 462
3 526 462 463
3 455 462 520
3 520 462 525
3 527 464 465
3 527 465 528
3 465 529 528
3 465 466 529
3 521 530 457
3 521 469 530
3 469 521 531
3 529 531 521
3 531 529 468
3 530 468 529
3 529 466 530
3 530 466 457
3 469 468 530
3 531 532 469
3 532 459 469
3 532 522 459
3 533 470 471
3 534 533 471
3 460 534 471
3 523 534 460
3 536 535 472
3 536 472 473
3 463 472 526
3 526 472 535
3 537 474 475
3 538 537 475
3 538 475 464
3 539 538 464
3 527 539 464
3 541 540 478
3 540 539 478
3 527 478 539
3 478 527 479
3 528 479 527
3 479 528 540
3 540 542 479
3 541 542 540
3 540 528 539
3 468 479 531
3 479 543 531
3 479 542 543
3 531 543 532
3 533 480 470
3 534 544 533
3 544 480 533
3 544 481 480
3 473 481 536
3 536 481 544
3 546 545 537
3 545 474 537
3 545 482 474
3 548 547 484
3 547 546 484
3 537 484 546
3 484 537 483
3 538 483 537
3 483 538 547
3 547 549 483
3 548 549 547
3 547 538 546
3 478 483 541
3 541 483 549
3 550 485 486
3 551 550 486
3 482 551 486
3 545 551 482
3 489 548 484
3 489 552 548
3 553 490 491
3 554 553 491
3 554 491 485
3 555 554 485
3 550 555 485
3 557 556 493
3 556 555 493
3 550 493 555
3 493 550 492
3 551 492 550
3 492 551 556
3 556 558 492
3 557 558 556
3 556 551 555
3 489 492 552
3 552 492 558
3 559 494 495
3 560 559 495
3 560 495 490
3 561 560 490
3 553 561 490
3 496 497 562
3 553 554 561
3 562 563 496
3 563 493 496
3 563 557 493
3 559 498 494
3 499 498 559
3 564 499 559
3 560 564 559
3 565 499 564
3 565 566 499
3 499 566 497
3 566 567 497
3 567 562 497
3 562 567 563
3 564 568 565
3 565 568 566
3 569 502 503
3 504 569 503
3 570 505 506
3 507 570 506
3 572 571 509
3 509 571 508
3 509 502 572
3 569 572 502
3 572 569 573
3 510 573 569
3 573 510 511
3 510 569 504
3 574 512 513
3 513 505 574
3 505 570 574
3 515 517 574
3 515 574 570
3 515 570 507
3 575 518 519
3 576 575 519
3 508 576 519
3 571 576 508
3 520 573 511
3 520 577 573
3 579 578 574
3 578 512 574
3 578 521 512
3 574 517 579
3 517 580 579
3 517 522 580
3 581 523 524
3 582 581 524
3 582 524 518
3 583 582 518
3 575 583 518
3 585 584 526
3 584 583 526
3 575 526 583
3 526 575 525
3 576 525 575
3 525 576 584
3 584 586 525
3 585 586 584
3 584 576 583
3 520 525 577
3 577 525 586
3 588 587 529
3 529 587 528
3 578 589 521
3 589 590 521
3 591 521 590
3 521 591 529
3 592 529 591
3 529 592 589
3 589 588 529
3 578 588 589
3 589 592 590
3 590 580 591
3 580 532 591
3 580 522 532
3 593 534 581
3 581 534 523
3 594 535 536
3 581 594 536
3 593 581 536
3 594 581 582
3 526 535 585
3 585 535 594
3 596 595 539
3 539 595 538
3 587 597 528
3 587 542 597
3 542 587 598
3 596 598 587
3 598 596 541
3 597 541 596
3 596 539 597
3 597 539 528
3 542 541 597
3 599 592 591
3 542 599 591
3 543 542 591
3 599 542 598
3 543 591 532
3 593 544 534
3 544 593 536
3 601 600 546
3 546 600 545
3 595 602 538
3 595 549 602
3 549 595 603
3 601 603 595
3 603 601 548
3 602 548 601
3 601 546 602
3 602 546 538
3 549 548 602
3 603 604 549
3 549 604 541
3 604 605 541
3 605 598 541
3 598 605 599
3 600 551 545
3 606 551 600
3 608 607 603
3 548 608 603
3 552 608 548
3 603 607 604
3 610 609 555
3 555 609 554
3 606 611 551
3 606 558 611
3 558 606 612
3 610 612 606
3 612 610 557
3 611 557 610
3 610 555 611
3 611 555 551
3 558 557 611
3 612 613 558
3 613 552 558
3 613 608 552
3 615 614 561
3 561 614 560
3 561 554 609
3 561 609 615
3 617 616 612
3 557 617 612
3 563 617 557
3 612 616 613
3 620 619 618
3 614 620 618
3 564 614 618
3 560 614 564
3 622 621 567
3 622 567 566
3 563 567 617
3 617 567 621
3 619 623 618
3 618 623 564
3 623 568 564
3 623 624 568
3 566 568 622
3 622 568 624
3 625 571 572
3 573 625 572
3 626 576 625
3 625 576 571
3 577 626 573
3 573 626 625
3 627 578 579
3 580 627 579
3 628 582 583
3 583 576 628
3 576 626 628
3 586 585 628
3 586 628 626
3 586 626 577
3 629 587 588
3 588 578 629
3 578 627 629
3 590 592 629
3 590 629 627
3 590 627 580
3 628 594 582
3 594 628 585
3 631 630 596
3 596 630 595
3 631 596 587
3 632 631 587
3 629 632 587
3 631 632 633
3 599 632 592
3 592 632 629
3 635 634 601
3 601 634 600
3 601 595 630
3 601 630 635
3 633 632 605
3 604 633 605
3 636 633 604
3 605 632 599
3 634 606 600
3 637 606 634
3 639 638 607
3 639 607 608
3 604 607 636
3 636 607 638
3 640 609 610
3 641 640 610
3 606 641 610
3 637 641 606
3 613 639 608
3 613 642 639
3 643 614 615
3 644 643 615
3 644 615 609
3 645 644 609
3 640 645 609
3 647 646 617
3 646 645 617
3 640 617 645
3 617 640 616
3 641 616 640
3 616 641 646
3 646 648 616
3 647 648 646
3 646 641 645
3 613 616 642
3 642 616 648
3 649 619 620
3 650 649 620
3 650 620 614
3 651 650 614
3 643 651 614
3 653 652 622
3 652 651 622
3 643 622 651
3 622 643 621
3 644 621 643
3 621 644 652
3 652 654 621
3 653 654 652
3 652 644 651
3 617 621 647
3 647 621 654
3 649 623 619
3 650 655 649
3 655 623 649
3 655 624 623
3 622 624 653
3 653 624 655
3 656 630 631
3 633 656 631
3 657 634 635
3 630 656 635
3 656 657 635
3 656 658 657
3 636 658 633
3 633 658 656
3 659 637 657
3 657 637 634
3 639 659 638
3 659 658 638
3 659 657 658
3 638 658 636
3 661 660 659
3 660 637 659
3 660 641 637
3 659 639 661
3 639 662 661
3 639 642 662
3 663 644 645
3 648 647 664
3 663 664 647
3 664 663 660
3 645 660 663
3 660 645 641
3 642 648 662
3 662 648 664
3 665 650 651
3 651 644 665
3 644 663 665
3 654 653 665
3 654 665 663
3 654 663 647
3 665 655 650
3 655 665 653
3 666 660 661
3 662 666 661
3 666 664 660
3 664 666 662
