ply
format ascii 1.0
comment None
element vertex 777
property float x
property float y
property float z
element face 1682
property list uchar int vertex_indices
end_header
16.954 75.455 41.956
16.997 75.117 41.346
17.271 74.840 41.491
17.286 75.017 41.946
16.850 75.855 40.584
17.155 75.950 39.973
17.187 75.316 40.357
17.031 75.191 40.860
16.750 75.854 41.352
16.707 76.255 42.121
17.219 75.507 42.487
16.921 76.202 42.775
17.237 76.055 43.042
16.779 76.671 40.279
17.100 76.895 39.631
16.641 76.549 40.922
16.641 76.994 41.752
16.748 76.947 42.699
17.213 76.549 43.432
16.986 76.924 43.381
17.309 76.984 43.806
16.805 77.430 40.060
16.678 77.474 40.822
16.858 78.044 40.287
16.923 78.100 41.816
16.837 77.712 42.587
17.073 77.553 43.400
17.269 77.300 43.824
16.915 78.314 40.911
17.465 74.858 40.575
17.674 75.251 39.970
18.132 74.750 40.317
17.696 74.645 40.984
17.254 74.797 41.052
17.690 74.773 41.529
17.543 75.081 42.064
17.717 76.135 39.321
17.961 75.655 42.048
17.575 75.477 42.421
17.731 75.238 42.087
17.464 75.839 42.853
17.510 77.339 38.944
18.106 77.252 38.587
17.889 76.671 38.850
18.455 77.041 41.148
18.417 76.714 41.343
18.493 76.982 40.881
17.866 76.042 42.662
18.631 77.098 41.497
17.730 76.440 43.366
17.591 76.835 43.832
17.921 77.318 44.183
17.727 78.249 38.209
18.059 78.413 37.759
18.150 77.741 38.287
17.447 78.317 38.821
17.133 77.980 39.563
18.602 77.324 41.008
17.089 78.232 42.572
17.318 78.141 43.162
17.603 77.955 43.788
17.551 77.633 43.983
17.825 79.137 36.598
18.003 79.277 35.893
18.015 78.854 36.415
18.120 78.712 37.141
17.781 78.945 37.388
17.695 78.968 37.862
17.728 79.060 38.386
17.563 78.874 39.246
17.334 78.767 40.311
17.397 78.831 41.458
17.791 78.672 42.636
18.220 78.318 43.716
17.782 79.614 36.262
17.878 79.974 35.864
17.766 79.625 36.853
17.841 79.608 37.645
18.273 79.854 38.383
18.082 79.401 38.811
18.187 79.449 39.799
18.035 79.376 41.101
17.849 80.203 36.399
17.949 80.324 37.120
18.149 80.406 37.781
18.575 75.188 39.491
18.941 74.700 40.066
18.498 74.713 40.858
18.040 75.124 41.607
18.631 75.125 41.126
18.470 76.163 38.752
19.204 76.026 38.318
19.426 75.363 38.790
18.496 76.002 41.226
19.072 75.365 40.924
19.257 75.961 40.640
18.623 77.061 38.248
19.113 77.029 37.686
19.521 76.372 37.862
18.856 77.106 39.534
18.703 77.033 40.196
19.407 76.541 40.131
18.381 76.477 42.033
18.415 76.688 42.976
18.392 76.848 43.644
18.131 76.958 43.982
18.665 77.287 44.337
18.487 78.474 36.284
19.046 78.404 35.527
19.388 77.891 36.174
19.045 77.634 37.127
18.420 78.305 37.387
18.346 78.053 38.119
18.857 78.081 37.681
18.860 77.505 38.086
18.422 77.549 38.385
18.707 77.294 38.763
18.382 77.689 38.933
18.573 78.213 39.667
18.756 77.741 40.496
19.049 77.664 41.241
19.261 77.341 42.385
19.089 77.155 43.535
18.356 77.878 44.322
19.015 77.618 44.663
19.215 77.903 44.795
19.619 77.796 44.992
18.574 79.148 35.102
19.087 79.327 34.343
19.370 78.714 34.905
18.812 78.818 37.572
18.370 78.431 37.741
18.288 78.961 38.129
18.369 78.902 38.999
18.625 79.134 39.526
19.057 78.613 40.054
19.292 78.197 40.739
18.083 79.213 41.974
18.781 79.160 42.609
19.332 78.723 43.505
19.379 78.199 44.444
19.774 77.962 44.944
18.578 80.191 34.078
18.964 80.294 33.149
19.398 79.702 33.589
18.122 80.049 35.197
18.885 79.558 38.392
18.867 79.437 39.197
18.416 79.371 38.703
18.456 79.793 38.881
18.359 79.526 39.183
18.634 79.874 39.547
18.795 80.067 40.322
18.884 79.901 41.065
18.888 79.539 41.936
18.715 81.013 33.203
19.085 81.236 32.715
19.210 80.641 32.668
18.401 81.190 33.952
18.234 81.011 34.779
18.078 80.834 35.847
18.083 80.865 36.705
18.353 81.136 37.500
18.588 80.932 38.328
19.018 80.667 39.273
19.302 80.435 40.249
18.873 81.629 32.985
19.332 81.766 32.774
18.663 81.864 33.626
18.406 81.752 34.430
18.488 81.928 35.462
18.509 81.684 36.738
18.758 81.810 37.649
18.784 81.575 38.138
19.066 82.089 33.136
19.126 82.505 33.637
18.819 82.492 34.529
19.339 82.914 34.151
18.960 82.729 35.501
19.120 82.542 36.438
19.192 82.259 37.468
19.487 83.159 35.038
19.690 74.836 39.455
19.735 74.741 40.216
19.171 74.920 40.788
19.926 75.212 40.572
20.047 75.632 38.222
20.471 75.072 38.798
20.181 75.843 40.458
19.791 76.825 37.344
20.454 76.137 37.720
20.317 76.387 40.084
19.489 76.923 39.521
18.762 77.124 44.046
19.807 78.162 35.505
20.311 77.744 36.186
19.995 77.334 36.765
19.769 77.684 38.117
19.922 78.295 37.497
19.598 77.271 38.814
20.022 78.194 41.609
20.497 77.948 42.705
20.121 77.589 43.513
19.619 77.468 44.344
19.822 77.673 44.884
20.214 77.837 45.019
19.971 79.177 34.443
20.186 78.505 34.910
19.737 79.243 36.986
20.593 78.636 36.980
20.338 79.237 36.488
19.164 79.139 39.691
19.579 78.988 40.079
19.754 78.662 40.625
20.743 78.738 43.604
20.131 79.243 42.763
20.477 78.380 44.258
20.374 78.061 44.819
19.854 80.262 32.383
20.188 80.167 32.112
20.409 79.997 32.349
20.148 79.723 32.997
19.432 80.081 32.816
20.197 79.473 34.017
19.914 80.009 36.128
20.512 79.513 35.784
20.133 80.067 35.270
19.632 79.888 36.816
19.496 79.845 37.461
20.019 80.086 38.350
19.981 79.786 39.181
19.920 79.375 39.915
19.304 80.278 40.849
19.655 80.171 41.353
19.794 79.815 41.875
20.259 80.407 32.313
19.751 81.070 32.589
20.119 81.520 33.605
20.092 81.141 34.258
20.354 80.986 33.738
19.987 80.684 35.129
20.296 80.419 34.550
19.867 80.968 35.841
19.742 80.509 36.738
19.825 80.468 37.313
20.012 80.357 37.753
19.231 81.604 38.828
19.863 81.460 39.575
20.220 80.888 40.272
20.164 80.410 41.054
19.890 81.965 32.813
20.070 81.674 33.981
20.187 82.010 34.145
20.026 81.480 34.848
20.007 81.678 35.725
20.005 81.496 36.543
20.096 81.040 37.161
19.213 82.036 38.239
19.635 82.106 38.775
19.838 81.922 39.209
19.769 82.413 33.125
19.620 82.811 33.622
20.112 82.713 33.435
20.372 82.188 35.104
19.406 83.058 35.928
19.952 82.932 36.518
19.973 82.651 37.167
19.978 82.386 38.302
20.161 82.181 39.040
20.074 83.161 34.092
20.463 83.638 35.069
20.019 83.456 35.926
20.762 74.806 39.495
20.943 74.922 40.111
21.088 75.324 40.434
21.047 75.509 38.234
21.508 75.095 38.875
21.215 75.826 40.393
20.767 76.855 37.272
21.425 76.181 37.800
21.380 76.317 40.013
20.478 76.846 39.489
20.852 78.163 35.662
21.142 77.858 36.462
20.854 77.431 36.816
21.067 77.619 37.846
21.070 77.955 37.325
20.725 77.272 38.742
20.756 78.270 42.281
21.322 78.367 42.866
21.219 78.016 43.594
20.805 77.739 44.269
20.510 77.717 44.794
20.930 77.899 44.895
20.546 78.810 34.412
20.819 78.447 34.854
21.533 78.281 37.016
21.238 78.770 36.503
20.133 79.045 40.488
20.522 78.826 41.222
20.974 78.612 42.045
21.038 78.946 43.210
21.624 78.655 43.485
21.584 78.390 43.980
21.200 78.121 44.617
20.402 80.158 32.147
20.888 80.191 32.550
21.188 79.715 32.939
20.920 79.168 33.817
20.452 79.293 34.357
20.767 79.534 35.152
20.292 79.705 34.808
20.584 79.835 34.589
21.291 79.258 36.065
20.440 80.079 38.934
21.056 80.201 39.594
20.972 79.847 40.248
20.899 79.322 40.947
20.346 80.067 41.678
21.043 79.556 42.172
21.441 79.091 42.765
20.136 81.544 33.067
20.712 80.710 33.103
21.002 80.436 34.263
20.240 80.774 37.600
20.884 80.815 38.248
20.878 80.378 38.837
20.609 81.401 40.039
21.454 80.960 40.486
21.391 80.517 40.972
21.156 80.110 41.684
20.238 82.256 33.010
20.128 82.148 33.381
20.119 82.277 36.331
20.287 82.297 36.807
20.505 81.789 37.172
20.786 81.406 37.687
21.163 81.569 40.077
20.538 81.872 39.588
20.356 82.586 33.059
20.258 82.646 33.231
20.777 82.704 33.276
20.520 82.521 33.741
20.263 82.469 33.183
21.301 82.774 34.854
20.757 82.594 36.313
20.275 82.887 36.869
20.647 83.497 36.766
20.528 83.070 37.313
21.007 82.721 37.981
21.061 82.254 39.066
20.661 83.006 33.482
21.248 83.425 34.188
21.195 83.818 34.861
21.848 83.681 34.508
21.009 84.000 35.411
20.740 83.895 35.955
21.654 84.081 35.251
21.830 74.982 39.563
22.014 75.119 40.148
22.114 75.416 40.447
22.011 75.625 38.376
22.433 75.322 39.023
22.242 75.814 40.347
21.624 77.093 37.543
22.368 76.359 38.031
22.493 76.223 39.882
21.674 76.772 39.379
21.378 78.241 36.413
21.722 78.142 36.674
21.767 77.665 37.136
21.188 77.412 37.298
21.587 77.772 37.498
21.920 77.715 37.969
22.063 77.294 38.607
21.685 78.358 43.546
21.869 78.331 43.749
21.604 77.993 44.217
21.289 77.848 44.671
21.506 77.969 44.722
21.109 78.668 34.449
21.471 78.450 35.081
21.815 78.371 36.133
21.789 78.484 36.733
22.122 78.893 36.681
22.344 78.441 37.210
22.207 78.043 37.631
21.212 79.100 41.931
21.687 78.957 42.511
21.859 78.548 43.323
21.935 78.499 43.675
21.969 78.779 43.324
22.023 78.457 43.827
21.797 78.163 44.376
21.679 80.049 32.901
22.283 79.779 33.248
22.064 79.283 33.678
21.416 79.983 35.132
21.810 78.803 34.387
22.292 79.996 35.694
21.982 79.507 36.025
21.443 80.370 40.407
21.715 80.242 40.730
21.806 79.745 41.196
21.570 79.350 41.898
21.661 79.317 42.413
21.823 79.717 42.204
22.027 79.250 42.724
21.698 80.362 33.181
21.833 80.501 33.997
22.041 80.333 34.953
21.385 80.716 38.818
21.718 80.633 39.398
22.099 80.524 40.436
21.908 80.656 40.811
22.391 81.046 40.812
22.373 80.658 41.259
22.119 80.230 41.726
20.905 82.321 37.055
21.391 82.286 37.736
21.985 81.921 38.285
22.176 81.221 38.978
21.377 81.882 39.790
21.997 81.513 40.280
21.020 82.965 33.312
21.610 83.146 33.593
21.437 82.978 33.881
21.756 83.222 34.353
21.838 83.295 34.088
22.109 83.111 34.984
22.188 82.962 36.022
21.133 83.285 37.443
21.863 82.680 37.158
22.061 83.072 37.699
22.354 82.394 38.713
22.272 81.971 39.721
21.682 83.376 33.770
21.883 83.484 34.132
22.439 83.461 34.570
22.185 83.734 34.245
21.363 84.158 35.833
21.463 84.059 36.441
21.741 83.754 37.122
22.473 84.143 35.002
22.288 84.312 35.926
22.856 75.308 39.701
22.944 75.274 40.313
23.050 75.453 40.520
22.821 75.874 38.638
23.073 75.640 39.165
23.201 75.783 40.279
22.700 77.150 37.723
23.305 76.603 38.418
23.435 76.101 39.671
23.076 76.564 39.242
22.610 78.215 36.759
23.113 77.845 37.372
23.384 77.224 38.747
22.787 77.734 38.191
21.992 78.260 44.045
21.761 78.003 44.503
22.374 78.603 35.230
22.837 78.524 36.113
23.307 78.655 37.191
22.989 79.017 36.682
23.169 78.197 37.759
22.145 78.852 43.137
22.318 80.143 33.261
23.099 79.980 33.604
23.274 79.452 33.830
22.837 78.962 34.458
23.129 79.616 36.400
22.957 80.185 35.681
22.308 80.144 41.025
22.596 79.950 41.483
22.299 79.515 42.060
22.634 79.828 42.200
22.775 80.339 33.919
22.829 80.420 34.840
22.772 80.997 39.935
23.349 80.862 40.722
23.167 80.955 41.221
23.117 80.401 41.219
23.567 80.856 41.495
23.128 80.545 41.691
23.022 82.052 38.736
23.487 81.643 39.609
23.899 81.153 41.137
23.377 81.489 40.546
22.170 83.351 34.012
22.744 83.330 35.450
23.343 83.454 36.379
23.085 82.991 37.190
22.761 82.601 38.019
22.651 82.713 38.213
23.808 82.525 39.014
23.556 82.855 38.491
23.476 82.109 39.705
22.445 83.616 34.056
22.312 83.681 34.049
23.039 83.797 34.557
23.222 83.799 34.922
23.413 83.836 35.537
22.383 84.195 36.692
23.042 83.967 37.293
23.163 83.345 37.956
22.822 84.029 34.556
23.132 84.353 35.111
23.339 84.535 35.695
23.484 84.471 36.405
23.679 75.468 40.103
23.767 75.299 40.565
23.999 75.432 40.641
23.328 76.123 39.082
23.605 75.920 39.489
24.022 75.849 40.182
23.862 77.537 38.006
24.087 77.020 38.609
23.729 76.421 39.088
23.650 76.293 39.393
23.956 76.631 39.238
24.073 76.214 39.648
23.708 78.503 37.030
23.931 78.123 37.552
24.443 77.242 38.855
24.117 77.785 38.339
23.322 78.765 35.378
23.560 78.746 36.373
23.187 78.602 36.734
23.604 78.966 36.928
24.295 78.773 37.392
24.345 78.407 37.795
24.059 79.752 33.856
24.433 79.345 34.027
24.022 79.064 34.642
23.900 79.902 36.295
23.578 80.274 35.559
24.192 79.323 36.962
23.123 80.101 41.780
23.806 80.140 34.098
23.806 80.288 34.878
23.634 81.263 40.489
24.038 81.223 40.848
24.073 80.903 41.224
23.817 80.810 41.615
23.792 80.535 41.596
23.800 80.557 41.794
24.026 82.432 39.000
24.332 82.055 39.717
24.094 81.557 40.409
24.099 81.438 40.797
24.280 81.802 40.436
24.435 81.391 41.081
24.292 81.008 41.530
23.603 83.301 37.035
23.781 83.219 37.492
23.767 82.849 38.243
23.536 82.558 38.582
24.059 82.723 38.774
24.496 82.623 39.171
24.494 82.339 39.640
23.199 84.047 34.629
23.638 84.239 35.029
23.724 84.181 35.306
23.920 84.412 35.972
24.153 84.545 35.843
24.007 84.270 36.432
23.930 83.604 37.078
23.557 83.768 37.740
23.973 83.453 38.083
24.287 82.929 38.730
23.735 84.534 35.357
24.173 84.618 36.172
24.047 84.805 35.972
24.308 84.923 35.969
23.920 84.666 36.115
24.123 84.725 36.376
23.934 84.510 36.870
23.888 84.081 37.444
24.377 84.960 36.255
24.391 84.857 36.556
24.395 75.386 40.497
24.559 75.193 40.850
24.838 75.243 40.771
24.713 75.248 40.907
25.142 75.137 41.026
24.404 76.005 39.813
25.241 75.542 40.510
24.841 75.607 40.595
25.252 75.270 40.956
24.310 77.483 38.439
24.704 77.431 38.653
24.617 76.717 39.219
24.062 76.297 39.406
24.453 76.526 39.459
24.693 76.164 39.965
24.289 78.467 37.497
24.638 78.328 37.741
24.762 77.861 38.283
24.762 77.677 38.558
25.323 78.087 38.404
25.410 77.553 38.891
25.151 76.786 39.497
25.138 79.227 34.059
25.123 79.468 34.036
25.706 79.175 34.160
25.501 79.109 34.302
24.126 78.871 35.580
24.533 78.812 36.298
24.806 78.683 37.210
24.741 78.635 37.622
25.072 78.938 37.435
25.315 78.625 37.846
24.596 79.911 34.153
25.269 79.690 34.419
24.866 79.954 34.437
24.954 79.129 34.406
24.401 80.035 35.873
25.070 79.074 35.295
25.210 79.722 36.075
25.141 79.461 36.857
24.492 80.105 34.579
24.763 79.993 35.307
24.548 81.450 40.815
24.626 81.141 41.325
24.366 80.847 41.605
24.493 80.943 41.655
24.541 82.414 39.401
24.719 82.323 39.656
24.607 81.890 40.194
24.747 81.672 40.793
24.741 82.068 40.190
24.703 81.259 41.361
24.167 83.379 37.890
24.388 82.825 38.731
24.621 82.560 39.242
24.743 82.528 39.424
24.694 82.715 39.169
24.818 82.404 39.679
24.094 84.561 35.593
24.200 83.967 37.186
24.181 83.920 37.529
24.467 83.013 38.665
24.370 84.866 35.946
24.373 84.720 36.211
24.278 84.474 36.873
24.534 84.898 36.463
24.531 85.011 36.266
25.311 75.192 40.924
25.602 76.324 39.879
26.131 75.801 40.456
25.686 75.531 40.784
26.225 75.354 40.871
26.119 75.254 41.019
25.640 77.584 38.865
25.695 77.017 39.342
26.618 75.734 40.735
25.789 76.159 40.246
25.768 78.548 37.847
25.659 78.069 38.443
25.220 77.786 38.575
25.786 77.886 38.721
26.344 77.638 39.106
26.308 77.088 39.553
25.912 79.228 34.160
26.409 79.086 34.446
26.181 79.071 34.776
25.535 79.089 34.717
25.939 79.180 35.268
25.812 79.068 36.230
25.913 78.885 37.145
25.254 78.679 37.580
25.714 78.913 37.593
26.342 78.614 38.142
26.492 78.183 38.667
25.927 79.348 34.422
25.148 79.830 34.862
25.999 79.389 35.126
25.525 79.479 35.579
26.181 79.298 36.606
26.389 79.071 37.530
24.819 81.441 41.080
24.726 81.116 41.499
24.833 81.999 40.251
24.753 82.579 39.345
24.563 84.967 36.245
26.773 75.176 41.096
27.218 75.399 40.976
27.154 75.164 41.137
27.229 75.291 41.081
26.731 76.324 40.177
26.964 75.784 40.646
27.123 75.494 40.957
26.194 77.359 39.250
26.536 77.065 39.572
27.643 75.931 40.714
27.401 76.442 40.319
26.328 78.401 38.288
26.594 78.167 38.579
26.760 77.617 39.157
26.741 77.425 39.391
27.176 77.703 39.293
27.336 77.246 39.699
26.412 79.153 34.432
26.917 79.061 34.748
27.244 79.011 35.208
26.818 79.026 36.066
26.325 79.163 35.735
27.248 79.019 36.611
26.824 79.069 36.775
26.959 78.906 37.321
27.071 78.588 37.969
26.937 78.483 38.448
27.377 78.766 38.250
27.559 78.249 38.933
26.841 79.159 35.050
26.909 79.135 36.173
27.382 79.057 37.437
27.413 75.281 41.086
27.516 76.224 40.450
27.946 76.029 40.665
28.003 75.730 40.858
27.973 75.719 40.886
27.635 76.940 39.931
28.069 76.403 40.437
27.988 76.191 40.589
28.238 76.493 40.440
28.289 76.108 40.685
27.766 78.078 38.768
27.745 77.541 39.445
27.220 77.383 39.516
27.793 77.597 39.539
28.198 77.188 39.959
27.502 79.037 35.220
28.199 78.999 35.702
28.251 78.958 36.192
27.929 78.845 37.084
27.419 78.948 37.013
28.182 78.513 38.070
28.247 78.554 38.751
28.334 78.870 38.191
28.496 78.007 39.363
27.948 79.061 35.898
27.947 79.050 36.925
28.425 79.028 37.621
28.452 76.473 40.408
28.918 76.782 40.208
28.790 76.334 40.528
28.556 75.985 40.755
28.584 76.062 40.726
28.508 77.102 39.899
28.634 77.635 39.402
29.024 77.193 39.882
28.402 76.338 40.551
28.691 76.822 40.271
28.665 76.381 40.532
28.843 78.195 38.715
29.095 77.969 39.454
28.861 77.545 39.822
29.165 77.516 39.820
28.810 78.987 36.108
29.002 78.965 36.500
28.861 78.870 37.069
28.739 78.660 37.791
28.930 78.491 38.767
28.901 78.879 38.027
28.717 79.015 36.072
28.778 79.029 36.570
28.884 78.983 37.361
29.154 76.878 40.169
28.948 76.416 40.509
29.171 77.517 39.609
29.158 77.078 40.065
29.240 77.971 39.244
29.070 79.000 36.394
29.136 78.951 36.963
29.118 78.678 38.009
3 2 1 0
3 0 3 2
3 6 5 4
3 8 7 4
3 4 7 6
3 7 8 1
3 8 0 1
3 8 9 0
3 3 0 10
3 0 11 10
3 0 9 11
3 11 12 10
3 4 5 13
3 13 5 14
3 4 15 8
3 4 13 15
3 8 16 9
3 8 15 16
3 9 17 11
3 9 16 17
3 12 11 18
3 11 19 18
3 11 17 19
3 19 20 18
3 14 21 13
3 23 22 21
3 22 13 21
3 22 15 13
3 25 16 24
3 16 22 24
3 16 15 22
3 16 25 17
3 17 25 26
3 17 26 19
3 19 26 27
3 19 27 20
3 23 28 22
3 22 28 24
3 31 30 29
3 33 32 29
3 29 32 31
3 1 2 33
3 2 32 33
3 2 34 32
3 2 3 34
3 34 3 35
3 29 30 6
3 30 5 6
3 30 36 5
3 29 6 7
3 29 7 33
3 1 33 7
3 39 38 37
3 40 38 10
3 38 35 10
3 35 3 10
3 35 38 39
3 12 40 10
3 43 42 41
3 36 43 41
3 14 36 41
3 5 36 14
3 46 45 44
3 37 38 47
3 45 48 44
3 47 38 40
3 47 40 49
3 49 40 12
3 18 49 12
3 50 49 18
3 18 20 50
3 50 20 51
3 54 53 52
3 54 52 42
3 52 41 42
3 52 55 41
3 56 21 14
3 41 56 14
3 55 56 41
3 44 57 46
3 23 21 56
3 25 24 58
3 44 48 57
3 59 26 25
3 59 25 58
3 26 59 60
3 61 26 60
3 27 26 61
3 20 27 51
3 51 27 61
3 64 63 62
3 66 65 62
3 62 65 64
3 65 66 53
3 66 52 53
3 66 67 52
3 52 68 55
3 52 67 68
3 55 69 56
3 55 68 69
3 70 28 23
3 56 70 23
3 69 70 56
3 70 71 28
3 28 71 24
3 71 72 24
3 72 58 24
3 58 72 59
3 59 72 73
3 59 73 60
3 62 63 74
3 74 63 75
3 62 76 66
3 62 74 76
3 66 77 67
3 66 76 77
3 79 68 78
3 68 77 78
3 68 67 77
3 68 79 69
3 69 79 80
3 69 80 70
3 70 80 81
3 70 81 71
3 75 82 74
3 74 82 76
3 76 82 83
3 76 83 77
3 77 83 84
3 77 84 78
3 86 85 31
3 31 85 30
3 87 31 32
3 87 86 31
3 89 87 88
3 87 34 88
3 87 32 34
3 35 88 34
3 92 91 90
3 85 92 90
3 36 85 90
3 30 85 36
3 95 94 93
3 93 94 89
3 93 89 88
3 37 93 88
3 39 37 88
3 39 88 35
3 98 97 96
3 98 96 91
3 91 96 90
3 96 42 90
3 42 43 90
3 36 90 43
3 101 100 99
3 100 101 95
3 100 95 93
3 46 100 93
3 45 46 93
3 48 45 102
3 45 93 102
3 37 47 102
3 37 102 93
3 49 103 47
3 47 103 102
3 103 49 104
3 49 105 104
3 49 50 105
3 50 51 105
3 105 51 106
3 109 108 107
3 111 110 107
3 107 110 109
3 112 54 96
3 54 112 53
3 111 53 112
3 113 111 112
3 111 113 110
3 114 110 113
3 110 114 97
3 96 97 114
3 112 96 114
3 116 115 114
3 116 96 115
3 96 116 42
3 117 42 116
3 42 117 54
3 115 54 117
3 117 112 115
3 115 112 114
3 96 54 115
3 117 116 99
3 100 117 99
3 118 117 100
3 57 119 46
3 119 100 46
3 119 118 100
3 120 119 57
3 120 57 48
3 121 120 48
3 102 121 48
3 121 102 103
3 121 103 122
3 61 60 123
3 103 104 122
3 106 51 124
3 51 123 124
3 123 125 124
3 51 61 123
3 125 126 124
3 129 128 127
3 129 127 108
3 108 127 107
3 127 63 107
3 63 64 107
3 107 64 65
3 107 65 111
3 113 131 130
3 131 111 130
3 65 130 111
3 130 65 132
3 53 132 65
3 132 53 131
3 131 112 132
3 113 112 131
3 131 53 111
3 133 112 117
3 132 112 133
3 118 135 134
3 133 118 134
3 117 118 133
3 135 118 119
3 135 119 136
3 72 71 137
3 119 120 136
3 72 137 138
3 139 72 138
3 73 72 139
3 60 73 123
3 73 140 123
3 73 139 140
3 123 140 125
3 125 140 141
3 125 141 126
3 144 143 142
3 144 142 128
3 142 127 128
3 142 145 127
3 145 75 63
3 145 63 127
3 146 130 132
3 146 148 147
3 146 149 148
3 149 146 78
3 132 78 146
3 78 132 79
3 148 79 132
3 132 133 148
3 148 133 147
3 149 79 148
3 79 150 80
3 150 133 80
3 134 80 133
3 80 134 151
3 147 151 134
3 151 147 150
3 150 149 151
3 79 149 150
3 150 147 133
3 80 151 152
3 153 80 152
3 81 80 153
3 71 81 137
3 81 154 137
3 81 153 154
3 137 154 138
3 157 156 155
3 157 155 143
3 155 142 143
3 155 158 142
3 142 159 145
3 142 158 159
3 160 82 75
3 145 160 75
3 159 160 145
3 161 83 82
3 161 82 160
3 162 84 83
3 162 83 161
3 162 163 84
3 84 163 78
3 163 164 78
3 164 149 78
3 149 164 151
3 151 164 165
3 151 165 152
3 155 156 166
3 166 156 167
3 155 168 158
3 155 166 168
3 158 169 159
3 158 168 169
3 159 170 160
3 159 169 170
3 160 171 161
3 160 170 171
3 173 162 172
3 162 171 172
3 162 161 171
3 162 173 163
3 167 174 166
3 166 174 168
3 168 174 175
3 177 176 175
3 176 168 175
3 176 169 168
3 179 170 178
3 170 176 178
3 170 169 176
3 170 179 171
3 171 179 180
3 171 180 172
3 177 181 176
3 176 181 178
3 183 182 86
3 86 182 85
3 185 183 184
3 183 87 184
3 183 86 87
3 89 184 87
3 187 186 92
3 92 186 91
3 92 85 182
3 92 182 187
3 185 184 94
3 95 185 94
3 188 185 95
3 94 184 89
3 190 189 98
3 98 189 97
3 98 91 186
3 98 186 190
3 192 191 101
3 192 101 99
3 95 101 188
3 188 101 191
3 193 104 105
3 106 193 105
3 195 194 109
3 109 194 108
3 196 109 110
3 196 195 109
3 114 113 197
3 198 197 113
3 189 110 97
3 110 189 196
3 114 199 116
3 197 199 114
3 99 116 192
3 192 116 199
3 201 200 121
3 121 200 120
3 202 121 122
3 202 201 121
3 122 104 193
3 203 122 193
3 202 122 203
3 203 193 106
3 124 203 106
3 204 203 124
3 124 126 204
3 204 126 205
3 207 206 129
3 129 206 128
3 129 108 194
3 129 194 207
3 210 209 208
3 209 198 208
3 198 130 208
3 198 113 130
3 211 134 135
3 211 135 212
3 135 213 212
3 135 136 213
3 136 120 200
3 136 200 213
3 215 214 139
3 215 139 138
3 139 216 140
3 214 216 139
3 140 217 141
3 216 217 140
3 126 141 205
3 205 141 217
3 220 219 218
3 222 221 218
3 218 221 220
3 143 144 222
3 144 221 222
3 144 223 221
3 144 128 206
3 144 206 223
3 226 225 224
3 224 225 210
3 208 224 210
3 227 224 208
3 146 228 130
3 228 208 130
3 228 227 208
3 228 146 229
3 146 230 229
3 146 147 230
3 147 134 211
3 231 147 211
3 230 147 231
3 153 152 232
3 211 212 231
3 153 232 233
3 234 153 233
3 154 153 234
3 138 154 215
3 215 154 234
3 219 235 218
3 236 156 157
3 218 236 157
3 222 218 157
3 235 236 218
3 143 222 157
3 239 238 237
3 241 240 238
3 241 238 239
3 240 241 226
3 224 240 226
3 242 240 224
3 243 224 227
3 242 224 243
3 228 245 244
3 243 228 244
3 227 228 243
3 164 163 246
3 228 229 245
3 164 246 247
3 248 164 247
3 165 164 248
3 152 165 232
3 165 249 232
3 165 248 249
3 232 249 233
3 236 167 156
3 250 167 236
3 251 237 238
3 253 252 251
3 238 253 251
3 240 253 238
3 242 255 254
3 253 242 254
3 240 242 253
3 255 242 243
3 255 243 256
3 173 172 257
3 243 244 256
3 246 163 173
3 257 246 173
3 258 246 257
3 247 246 259
3 259 246 258
3 250 260 167
3 167 260 174
3 260 262 261
3 175 260 261
3 174 260 175
3 253 263 252
3 177 175 261
3 179 178 264
3 253 254 263
3 179 264 265
3 266 179 265
3 180 179 266
3 172 180 257
3 180 267 257
3 180 266 267
3 257 267 258
3 258 267 268
3 258 268 259
3 262 269 261
3 261 269 177
3 269 181 177
3 269 270 181
3 178 181 264
3 181 271 264
3 181 270 271
3 264 271 265
3 273 272 183
3 183 272 182
3 183 185 273
3 273 185 274
3 276 275 187
3 187 275 186
3 187 182 272
3 187 272 276
3 188 274 185
3 188 277 274
3 279 278 190
3 190 278 189
3 190 186 275
3 190 275 279
3 281 280 191
3 281 191 192
3 188 191 277
3 277 191 280
3 283 282 195
3 195 282 194
3 284 195 196
3 284 283 195
3 197 198 285
3 286 285 198
3 278 196 189
3 196 278 284
3 197 287 199
3 285 287 197
3 192 199 281
3 281 199 287
3 288 200 201
3 288 201 289
3 201 290 289
3 201 202 290
3 291 202 203
3 291 290 202
3 292 203 204
3 292 291 203
3 204 205 292
3 292 205 293
3 295 294 207
3 207 294 206
3 207 194 282
3 207 282 295
3 297 296 209
3 297 209 210
3 198 209 286
3 286 209 296
3 298 212 213
3 299 298 213
3 299 213 200
3 300 299 200
3 288 300 200
3 214 215 301
3 288 289 300
3 214 301 302
3 303 214 302
3 216 214 303
3 216 304 217
3 303 304 216
3 205 217 293
3 293 217 304
3 305 219 220
3 305 220 306
3 220 307 306
3 220 221 307
3 308 221 223
3 308 307 221
3 294 309 206
3 309 310 206
3 311 206 310
3 206 311 223
3 312 223 311
3 223 312 309
3 309 308 223
3 294 308 309
3 309 312 310
3 225 226 311
3 310 225 311
3 313 225 310
3 210 225 297
3 297 225 313
3 314 229 230
3 314 230 315
3 230 316 315
3 230 231 316
3 231 212 298
3 317 231 298
3 316 231 317
3 234 233 318
3 298 299 317
3 318 319 234
3 234 319 215
3 319 320 215
3 320 301 215
3 301 320 302
3 305 235 219
3 322 321 236
3 322 236 235
3 306 322 235
3 305 306 235
3 239 237 321
3 322 239 321
3 323 239 322
3 311 241 312
3 241 323 312
3 241 239 323
3 241 311 226
3 324 244 245
3 325 324 245
3 325 245 229
3 326 325 229
3 314 326 229
3 248 247 327
3 314 315 326
3 248 327 328
3 329 248 328
3 249 248 329
3 233 249 318
3 249 330 318
3 249 329 330
3 318 330 319
3 331 250 321
3 321 250 236
3 251 332 237
3 332 321 237
3 332 331 321
3 252 332 251
3 333 254 255
3 333 255 334
3 255 335 334
3 255 256 335
3 256 244 324
3 336 256 324
3 335 256 336
3 336 324 325
3 338 337 327
3 247 338 327
3 259 338 247
3 327 337 328
3 340 260 339
3 260 250 339
3 339 250 331
3 341 339 331
3 341 343 342
3 343 340 342
3 262 342 340
3 342 262 332
3 260 332 262
3 332 260 343
3 343 331 332
3 341 331 343
3 343 260 340
3 342 332 252
3 263 342 252
3 344 342 263
3 263 254 333
3 345 263 333
3 344 263 345
3 347 346 265
3 346 345 265
3 333 265 345
3 265 333 266
3 334 266 333
3 266 334 346
3 346 348 266
3 347 348 346
3 346 334 345
3 266 349 267
3 348 349 266
3 267 350 268
3 349 350 267
3 259 268 338
3 338 268 350
3 339 351 340
3 340 351 262
3 351 269 262
3 351 352 269
3 352 354 353
3 270 352 353
3 269 352 270
3 270 353 355
3 356 270 355
3 271 270 356
3 265 271 347
3 347 271 356
3 354 357 353
3 353 357 355
3 359 358 273
3 273 358 272
3 273 274 359
3 359 274 360
3 362 361 276
3 276 361 275
3 276 272 358
3 276 358 362
3 277 360 274
3 277 363 360
3 365 364 279
3 279 364 278
3 279 275 361
3 279 361 365
3 367 366 280
3 367 280 281
3 277 280 363
3 363 280 366
3 368 282 283
3 368 283 369
3 283 370 369
3 283 284 370
3 364 371 278
3 364 285 371
3 285 364 372
3 370 372 364
3 372 370 286
3 371 286 370
3 370 284 371
3 371 284 278
3 285 286 371
3 285 372 373
3 374 285 373
3 287 285 374
3 281 287 367
3 367 287 374
3 375 289 290
3 375 290 376
3 290 377 376
3 290 291 377
3 378 291 292
3 378 377 291
3 292 293 378
3 378 293 379
3 380 294 295
3 381 380 295
3 381 295 282
3 382 381 282
3 368 382 282
3 384 383 297
3 383 382 297
3 368 297 382
3 297 368 296
3 369 296 368
3 296 369 383
3 383 385 296
3 384 385 383
3 383 369 382
3 286 296 372
3 296 386 372
3 296 385 386
3 372 386 373
3 387 299 300
3 388 387 300
3 388 300 289
3 389 388 289
3 375 389 289
3 391 390 302
3 390 389 302
3 375 302 389
3 302 375 303
3 376 303 375
3 303 376 390
3 390 392 303
3 391 392 390
3 390 376 389
3 303 393 304
3 392 393 303
3 293 304 379
3 379 304 393
3 395 394 307
3 307 394 306
3 396 307 308
3 396 395 307
3 310 312 397
3 294 380 308
3 398 308 380
3 308 398 396
3 380 381 398
3 400 397 399
3 397 400 310
3 313 310 400
3 297 313 384
3 384 313 400
3 401 315 316
3 401 316 402
3 316 403 402
3 316 317 403
3 317 299 387
3 404 317 387
3 403 317 404
3 406 405 319
3 405 404 319
3 387 319 404
3 319 387 320
3 388 320 387
3 320 388 405
3 405 407 320
3 406 407 405
3 405 388 404
3 302 320 391
3 391 320 407
3 394 408 306
3 306 408 322
3 322 409 323
3 408 409 322
3 312 323 397
3 323 410 397
3 323 409 410
3 397 410 399
3 411 325 326
3 412 411 326
3 412 326 315
3 413 412 315
3 401 413 315
3 415 414 328
3 414 413 328
3 401 328 413
3 328 401 329
3 402 329 401
3 329 402 414
3 414 416 329
3 415 416 414
3 414 402 413
3 329 417 330
3 416 417 329
3 319 330 406
3 406 330 417
3 418 334 335
3 336 419 335
3 335 419 418
3 420 419 336
3 420 336 325
3 421 420 325
3 411 421 325
3 337 338 422
3 411 412 421
3 422 423 337
3 423 328 337
3 423 415 328
3 424 339 341
3 424 341 425
3 341 426 425
3 341 342 426
3 428 426 427
3 426 344 427
3 426 342 344
3 427 344 429
3 344 430 429
3 344 345 430
3 348 347 431
3 334 418 345
3 432 345 418
3 345 432 430
3 348 431 349
3 433 349 431
3 349 433 419
3 432 419 433
3 419 432 418
3 420 434 419
3 434 349 419
3 434 350 349
3 338 350 422
3 350 435 422
3 350 434 435
3 422 435 423
3 424 351 339
3 425 436 424
3 436 351 424
3 436 352 351
3 436 437 352
3 437 428 352
3 427 352 428
3 352 427 354
3 438 354 427
3 354 438 437
3 437 439 354
3 436 439 437
3 437 438 428
3 356 355 440
3 427 429 438
3 440 441 356
3 356 441 347
3 441 442 347
3 442 431 347
3 431 442 433
3 439 443 354
3 354 443 357
3 355 357 440
3 357 444 440
3 357 443 444
3 440 444 441
3 446 445 359
3 359 445 358
3 359 360 446
3 446 360 447
3 449 448 362
3 362 448 361
3 362 358 445
3 362 445 449
3 363 447 360
3 363 450 447
3 452 451 365
3 365 451 364
3 365 361 448
3 365 448 452
3 454 453 366
3 454 366 367
3 363 366 450
3 450 366 453
3 456 455 370
3 370 455 369
3 370 364 451
3 370 451 456
3 458 457 374
3 458 374 373
3 367 374 454
3 454 374 457
3 459 376 377
3 378 460 377
3 377 460 459
3 379 460 378
3 462 461 382
3 382 461 381
3 385 384 463
3 464 463 384
3 455 382 369
3 382 455 462
3 385 465 386
3 463 465 385
3 373 386 458
3 458 386 465
3 466 388 389
3 389 376 466
3 376 459 466
3 392 391 466
3 392 466 459
3 392 459 393
3 393 459 460
3 393 460 379
3 467 394 395
3 467 395 468
3 395 469 468
3 395 396 469
3 470 396 398
3 470 469 396
3 400 399 471
3 472 471 399
3 461 398 381
3 398 461 470
3 384 400 464
3 464 400 471
3 473 402 403
3 473 403 474
3 403 475 474
3 403 404 475
3 404 388 475
3 466 475 388
3 475 466 476
3 407 476 466
3 476 407 406
3 407 466 391
3 467 408 394
3 468 477 467
3 477 408 467
3 477 409 408
3 409 478 410
3 477 478 409
3 399 410 472
3 472 410 478
3 480 479 413
3 413 479 412
3 416 415 481
3 402 473 413
3 482 413 473
3 413 482 480
3 473 474 482
3 484 481 483
3 481 484 416
3 417 416 484
3 406 417 476
3 476 417 484
3 486 485 421
3 421 485 420
3 421 412 479
3 421 479 486
3 488 487 481
3 415 488 481
3 423 488 415
3 481 487 483
3 489 425 426
3 428 489 426
3 490 429 430
3 490 430 491
3 430 492 491
3 430 432 492
3 494 493 433
3 493 432 433
3 493 492 432
3 434 496 495
3 496 434 494
3 420 494 434
3 494 420 493
3 485 493 420
3 434 497 435
3 495 497 434
3 423 435 488
3 488 435 497
3 499 436 498
3 436 425 498
3 498 425 489
3 500 498 489
3 499 439 436
3 438 489 428
3 489 438 500
3 501 500 438
3 438 429 490
3 502 438 490
3 501 438 502
3 442 441 503
3 490 491 502
3 503 504 442
3 442 504 433
3 504 505 433
3 505 494 433
3 494 505 496
3 498 506 499
3 499 506 439
3 506 443 439
3 506 507 443
3 443 508 444
3 507 508 443
3 441 444 503
3 444 509 503
3 444 508 509
3 503 509 504
3 511 510 446
3 446 510 445
3 446 447 511
3 511 447 512
3 513 448 449
3 514 513 449
3 445 514 449
3 510 514 445
3 450 512 447
3 450 515 512
3 517 516 452
3 452 516 451
3 452 448 513
3 518 452 513
3 517 452 518
3 520 519 454
3 519 518 454
3 513 454 518
3 454 513 453
3 514 453 513
3 453 514 519
3 519 521 453
3 520 521 519
3 519 514 518
3 450 453 515
3 515 453 521
3 523 522 456
3 456 522 455
3 456 451 516
3 456 516 523
3 525 524 457
3 525 457 458
3 454 457 520
3 520 457 524
3 527 526 462
3 462 526 461
3 522 528 455
3 522 463 528
3 463 522 529
3 527 529 522
3 529 527 464
3 528 464 527
3 527 462 528
3 528 462 455
3 463 464 528
3 463 529 530
3 531 463 530
3 465 463 531
3 458 465 525
3 525 465 531
3 533 532 469
3 469 532 468
3 534 469 470
3 534 533 469
3 471 472 535
3 536 535 472
3 526 470 461
3 470 526 534
3 464 471 529
3 471 537 529
3 471 535 537
3 529 537 530
3 538 474 475
3 476 538 475
3 532 539 468
3 468 539 477
3 477 540 478
3 539 540 477
3 472 478 536
3 536 478 540
3 541 479 480
3 541 480 542
3 480 543 542
3 480 482 543
3 484 483 544
3 474 538 482
3 545 482 538
3 482 545 543
3 545 538 546
3 538 476 546
3 484 544 546
3 484 546 476
3 548 547 486
3 486 547 485
3 486 479 541
3 549 486 541
3 548 486 549
3 551 550 488
3 550 549 488
3 541 488 549
3 488 541 487
3 542 487 541
3 487 542 550
3 550 552 487
3 551 552 550
3 550 542 549
3 483 487 544
3 487 553 544
3 487 552 553
3 544 553 546
3 554 491 492
3 554 492 555
3 492 556 555
3 492 493 556
3 547 557 485
3 547 495 557
3 495 547 558
3 556 558 547
3 558 556 496
3 557 496 556
3 556 493 557
3 557 493 485
3 495 496 557
3 495 558 559
3 560 495 559
3 497 495 560
3 488 497 551
3 551 497 560
3 561 498 500
3 561 500 562
3 500 563 562
3 500 501 563
3 565 563 564
3 563 502 564
3 563 501 502
3 566 564 502
3 566 502 491
3 567 566 491
3 554 567 491
3 505 504 568
3 554 555 567
3 568 569 505
3 505 569 496
3 569 570 496
3 570 558 496
3 558 570 559
3 561 506 498
3 562 571 561
3 571 506 561
3 571 507 506
3 572 565 564
3 574 573 571
3 508 571 573
3 571 508 507
3 508 575 509
3 575 564 509
3 566 509 564
3 509 566 576
3 572 576 566
3 576 572 575
3 575 573 576
3 508 573 575
3 575 572 564
3 576 577 509
3 509 577 504
3 577 578 504
3 578 568 504
3 568 578 569
3 574 579 573
3 573 579 576
3 576 579 580
3 576 580 577
3 581 510 511
3 583 581 582
3 581 511 582
3 512 584 582
3 512 582 511
3 584 585 582
3 587 586 581
3 586 510 581
3 586 514 510
3 583 587 581
3 589 584 588
3 512 588 584
3 588 512 515
3 584 589 585
3 590 516 517
3 590 517 591
3 517 592 591
3 517 518 592
3 586 593 514
3 586 521 593
3 521 586 594
3 592 594 586
3 594 592 520
3 593 520 592
3 592 518 593
3 593 518 514
3 521 520 593
3 594 595 521
3 595 515 521
3 595 588 515
3 596 522 523
3 597 596 523
3 597 523 516
3 598 597 516
3 590 598 516
3 600 599 525
3 599 598 525
3 590 525 598
3 525 590 524
3 591 524 590
3 524 591 599
3 599 601 524
3 600 601 599
3 599 591 598
3 520 524 594
3 524 602 594
3 524 601 602
3 594 602 595
3 605 604 603
3 603 606 605
3 607 526 527
3 608 607 527
3 608 527 522
3 609 608 522
3 596 609 522
3 611 610 530
3 610 609 530
3 596 530 609
3 530 596 531
3 597 531 596
3 531 597 610
3 610 612 531
3 611 612 610
3 610 597 609
3 525 531 600
3 600 531 612
3 614 613 604
3 613 532 604
3 533 603 604
3 533 604 532
3 614 615 613
3 606 603 616
3 533 616 603
3 616 533 534
3 535 536 617
3 526 607 534
3 618 534 607
3 534 618 616
3 607 608 618
3 620 617 619
3 617 620 535
3 537 535 620
3 530 537 611
3 611 537 620
3 613 539 532
3 615 621 613
3 621 539 613
3 621 540 539
3 536 540 617
3 540 622 617
3 540 621 622
3 617 622 619
3 624 623 543
3 543 623 542
3 625 543 545
3 625 624 543
3 545 546 625
3 625 546 626
3 627 547 548
3 627 548 628
3 548 629 628
3 548 549 629
3 552 551 630
3 631 630 551
3 623 549 542
3 549 623 629
3 552 632 553
3 630 632 552
3 546 553 626
3 626 553 632
3 633 555 556
3 634 633 556
3 634 556 547
3 635 634 547
3 627 635 547
3 637 636 559
3 636 635 559
3 627 559 635
3 559 627 560
3 628 560 627
3 560 628 636
3 636 638 560
3 637 638 636
3 636 628 635
3 551 560 631
3 631 560 638
3 639 562 563
3 565 639 563
3 640 566 567
3 555 633 567
3 633 640 567
3 633 641 640
3 642 570 569
3 633 642 569
3 641 633 569
3 642 633 634
3 559 570 637
3 637 570 642
3 639 571 562
3 574 571 643
3 639 643 571
3 643 639 644
3 565 644 639
3 644 565 572
3 644 572 566
3 645 644 566
3 640 645 566
3 644 645 646
3 577 645 578
3 645 641 578
3 645 640 641
3 578 641 569
3 643 647 574
3 574 647 579
3 645 580 646
3 580 647 646
3 580 579 647
3 580 645 577
3 648 583 582
3 585 648 582
3 650 649 587
3 587 649 586
3 589 588 651
3 583 648 587
3 652 587 648
3 587 652 650
3 652 648 653
3 648 585 653
3 589 651 653
3 589 653 585
3 655 654 592
3 592 654 591
3 592 586 649
3 592 649 655
3 657 656 651
3 588 657 651
3 595 657 588
3 651 656 653
3 659 658 598
3 598 658 597
3 654 660 591
3 654 601 660
3 601 654 661
3 659 661 654
3 661 659 600
3 660 600 659
3 659 598 660
3 660 598 591
3 601 600 660
3 601 661 662
3 663 601 662
3 602 601 663
3 595 602 657
3 657 602 663
3 665 664 605
3 605 664 604
3 667 666 606
3 666 605 606
3 666 665 605
3 667 668 666
3 670 669 609
3 609 669 608
3 658 671 597
3 658 612 671
3 612 658 672
3 670 672 658
3 672 670 611
3 671 611 670
3 670 609 671
3 671 609 597
3 612 611 671
3 672 673 612
3 612 673 600
3 673 674 600
3 674 661 600
3 661 674 662
3 664 675 604
3 604 675 614
3 667 606 616
3 614 676 615
3 676 614 677
3 675 677 614
3 618 667 616
3 667 618 668
3 678 668 618
3 668 678 677
3 676 677 678
3 620 619 679
3 678 679 619
3 679 678 669
3 618 669 678
3 669 618 608
3 611 620 672
3 620 680 672
3 620 679 680
3 672 680 673
3 676 621 615
3 621 676 622
3 622 676 678
3 622 678 619
3 681 623 624
3 625 682 624
3 624 682 681
3 626 682 625
3 683 628 629
3 629 623 683
3 623 681 683
3 630 631 683
3 630 683 681
3 630 681 632
3 632 681 682
3 632 682 626
3 684 634 635
3 635 628 684
3 628 683 684
3 638 637 684
3 638 684 683
3 638 683 631
3 684 642 634
3 642 684 637
3 685 643 644
3 646 685 644
3 685 647 643
3 647 685 646
3 688 687 686
3 686 689 688
3 691 690 650
3 650 690 649
3 652 686 687
3 691 652 687
3 650 652 691
3 652 653 686
3 653 689 686
3 653 692 689
3 693 654 655
3 694 693 655
3 649 694 655
3 690 694 649
3 696 695 656
3 696 656 657
3 653 656 692
3 692 656 695
3 697 658 659
3 698 697 659
3 698 659 654
3 699 698 654
3 693 699 654
3 701 700 662
3 700 699 662
3 693 662 699
3 662 693 663
3 694 663 693
3 663 694 700
3 700 702 663
3 701 702 700
3 700 694 699
3 657 663 696
3 696 663 702
3 703 664 665
3 703 665 704
3 665 705 704
3 665 666 705
3 707 706 668
3 706 666 668
3 706 705 666
3 707 669 706
3 669 670 706
3 709 708 706
3 709 706 670
3 710 709 670
3 710 670 658
3 711 710 658
3 697 711 658
3 713 712 673
3 712 711 673
3 697 673 711
3 673 697 674
3 698 674 697
3 674 698 712
3 712 714 674
3 713 714 712
3 712 698 711
3 662 674 701
3 701 674 714
3 703 675 664
3 704 715 703
3 715 675 703
3 715 677 675
3 668 677 707
3 677 716 707
3 677 715 716
3 708 709 716
3 709 679 716
3 669 707 716
3 669 716 679
3 710 717 709
3 717 679 709
3 717 680 679
3 673 680 713
3 713 680 717
3 718 687 688
3 689 718 688
3 719 690 691
3 720 719 691
3 720 691 687
3 721 720 687
3 718 721 687
3 718 689 721
3 689 722 721
3 689 692 722
3 724 723 719
3 723 690 719
3 723 694 690
3 726 725 696
3 725 724 696
3 719 696 724
3 696 719 695
3 720 695 719
3 695 720 725
3 725 727 695
3 726 727 725
3 725 720 724
3 692 695 722
3 722 695 727
3 729 728 699
3 699 728 698
3 723 730 694
3 723 702 730
3 702 723 731
3 729 731 723
3 731 729 701
3 730 701 729
3 729 699 730
3 730 699 694
3 702 701 730
3 731 732 702
3 732 696 702
3 732 726 696
3 733 704 705
3 733 705 734
3 705 735 734
3 705 706 735
3 737 736 708
3 736 706 708
3 736 735 706
3 710 711 737
3 711 736 737
3 711 738 736
3 714 713 739
3 740 739 713
3 728 711 698
3 711 728 738
3 701 714 731
3 714 741 731
3 714 739 741
3 731 741 732
3 733 715 704
3 734 742 733
3 742 715 733
3 742 716 715
3 708 716 737
3 716 743 737
3 716 742 743
3 737 743 710
3 743 717 710
3 743 744 717
3 713 717 740
3 740 717 744
3 747 746 745
3 720 721 745
3 721 747 745
3 721 748 747
3 721 722 748
3 748 722 749
3 752 751 750
3 752 750 746
3 746 750 745
3 750 723 745
3 723 724 745
3 754 753 726
3 754 724 753
3 724 754 745
3 755 745 754
3 745 755 720
3 753 720 755
3 755 727 753
3 753 727 726
3 724 720 753
3 722 727 749
3 749 727 755
3 750 751 729
3 751 728 729
3 751 756 728
3 723 750 729
3 759 758 757
3 759 754 758
3 754 732 758
3 754 726 732
3 761 760 735
3 735 760 734
3 762 735 736
3 762 761 735
3 763 736 738
3 763 762 736
3 739 740 764
3 765 764 740
3 756 738 728
3 738 756 763
3 758 741 757
3 741 764 757
3 741 739 764
3 741 758 732
3 760 766 734
3 734 766 742
3 742 767 743
3 766 767 742
3 743 768 744
3 767 768 743
3 740 744 765
3 765 744 768
3 769 746 747
3 748 770 747
3 747 770 769
3 749 770 748
3 771 751 752
3 746 769 752
3 769 771 752
3 769 772 771
3 754 772 755
3 772 770 755
3 772 769 770
3 755 770 749
3 773 756 771
3 771 756 751
3 757 773 759
3 773 772 759
3 773 771 772
3 759 772 754
3 774 760 761
3 762 775 761
3 761 775 774
3 763 776 762
3 762 776 775
3 763 756 776
3 756 773 776
3 764 765 776
3 764 776 773
3 764 773 757
3 774 766 760
3 766 774 767
3 767 774 775
3 767 775 768
3 768 775 776
3 768 776 765
