ply
format ascii 1.0
comment None
element vertex 729
property float x
property float y
property float z
element face 1570
property list uchar int vertex_indices
end_header
35.109 29.553 45.199
35.083 29.662 44.981
35.367 29.176 45.444
35.455 29.308 45.527
34.997 29.984 44.813
35.026 30.173 44.522
35.241 29.825 45.154
35.157 30.560 44.301
35.608 31.111 43.627
35.256 30.602 44.040
35.127 30.266 44.668
35.230 30.574 44.348
35.689 31.179 44.138
35.883 28.744 45.928
35.880 28.765 45.749
36.354 28.046 46.333
36.527 28.196 46.440
35.431 29.319 45.225
35.806 29.126 45.444
35.862 29.137 45.804
36.342 28.880 46.126
35.296 30.005 44.656
35.778 29.489 45.075
35.875 29.634 45.503
36.169 29.267 45.813
35.713 30.947 43.506
35.593 30.496 44.072
35.132 30.341 44.374
35.381 30.562 44.552
35.558 30.320 45.069
36.452 31.914 42.479
36.718 32.094 42.155
36.681 31.873 42.233
36.205 31.477 42.875
36.187 31.752 43.161
36.299 31.579 44.472
36.438 31.888 43.790
35.930 30.995 44.837
36.650 32.128 42.539
36.656 32.130 43.101
37.142 25.170 48.479
37.078 25.282 48.308
37.314 25.027 48.669
37.499 24.985 48.868
36.837 26.174 47.518
36.840 26.610 47.203
37.011 26.092 47.559
37.047 25.642 47.959
37.030 25.816 47.899
37.459 25.260 48.601
37.510 25.681 48.200
36.808 27.103 47.020
36.945 27.456 46.744
37.192 26.626 47.379
37.254 26.157 47.664
36.562 28.294 46.165
37.132 28.151 46.419
37.002 27.924 46.736
37.327 27.524 47.041
36.363 29.021 45.706
37.101 28.576 46.114
37.201 28.655 46.481
37.462 28.212 46.724
36.132 29.974 44.489
36.526 29.491 45.208
36.009 29.298 45.466
36.409 29.653 45.737
36.812 29.382 46.161
36.347 31.019 43.224
36.743 30.533 43.754
37.161 30.202 46.025
36.385 30.531 45.471
36.920 32.089 42.009
37.092 31.918 42.143
36.842 31.532 42.566
36.986 31.927 44.354
37.088 32.176 43.525
36.747 31.417 45.029
36.977 32.207 42.197
37.061 32.250 42.748
38.028 18.186 44.514
38.051 18.127 44.366
38.248 18.065 44.465
38.320 18.315 44.772
38.153 18.337 44.579
38.071 23.877 51.233
38.271 24.112 50.755
38.333 23.772 51.174
38.216 23.659 51.730
38.079 23.850 51.658
38.274 23.689 52.229
37.514 25.276 48.494
37.996 24.943 49.149
38.227 25.005 49.410
38.355 24.267 51.280
38.429 23.963 52.200
37.083 26.551 47.268
37.368 26.268 47.510
37.530 25.767 47.996
38.083 25.421 48.739
38.075 25.740 48.375
37.473 27.093 47.001
37.313 26.569 47.295
37.783 26.707 47.248
37.491 26.466 47.559
37.813 26.118 47.967
37.889 28.137 46.709
38.227 27.356 46.940
37.939 27.197 47.446
38.162 26.618 47.819
37.403 29.047 45.641
38.008 28.674 46.383
37.425 28.400 46.460
37.755 28.627 46.674
37.940 28.150 47.014
37.325 30.037 44.355
37.990 29.563 44.965
38.121 28.834 46.824
37.881 29.506 46.529
37.335 31.129 43.089
38.025 30.656 43.701
38.255 30.628 46.157
37.441 31.090 45.627
37.163 32.130 42.068
37.425 32.009 42.277
37.540 31.670 42.580
37.805 32.040 44.086
37.658 32.155 43.169
37.698 31.725 44.963
37.374 32.179 42.435
38.329 17.969 44.219
38.632 17.927 44.077
38.615 17.834 44.114
38.934 17.824 44.317
38.296 18.198 44.282
38.740 18.136 44.148
39.273 18.035 44.752
38.697 18.149 44.769
38.637 18.402 44.360
39.177 18.353 44.334
39.093 18.265 45.019
38.490 18.556 44.641
39.000 18.553 45.252
38.668 18.719 45.110
39.371 19.118 45.856
39.032 18.720 44.701
38.929 18.909 45.059
39.300 19.223 45.624
39.120 23.437 53.818
38.978 23.428 53.450
39.377 23.325 53.934
39.591 23.333 54.223
38.548 23.981 50.738
38.951 23.795 51.204
38.837 23.592 51.861
38.750 23.503 52.661
38.798 23.649 53.149
39.468 23.491 54.046
39.409 23.731 53.701
38.533 25.408 48.890
38.927 24.975 49.581
38.715 24.481 50.142
38.486 24.619 50.392
38.986 24.688 51.474
38.810 24.791 50.862
38.962 24.363 52.132
39.101 24.011 52.980
38.214 26.319 47.711
38.355 25.803 48.359
37.915 25.498 48.471
38.573 25.725 48.668
39.152 25.548 49.316
39.268 25.242 50.137
38.506 26.899 47.258
39.418 26.122 48.750
38.912 26.323 48.282
38.801 28.009 46.653
39.152 27.428 46.993
38.978 27.073 47.930
38.876 27.934 47.478
38.662 29.104 45.575
39.208 28.587 46.190
38.589 28.532 46.649
38.921 28.539 47.120
38.345 28.524 46.921
38.785 29.092 46.864
38.749 30.175 44.308
39.414 29.679 44.912
39.128 30.093 46.599
38.614 31.333 43.308
39.422 30.761 43.835
39.412 30.839 46.014
38.531 31.349 45.535
37.897 31.918 42.820
38.649 31.796 43.701
38.713 31.724 44.679
39.003 17.733 44.052
39.452 17.811 44.022
39.792 17.409 43.962
40.247 17.663 44.379
39.811 18.230 44.347
39.744 18.413 45.182
39.809 18.976 45.852
40.364 18.901 45.644
39.799 18.746 44.751
39.686 19.218 45.305
40.539 19.342 46.181
39.850 19.589 45.919
40.463 19.780 45.837
40.134 19.557 46.651
39.859 19.658 46.405
40.233 19.953 47.221
40.269 19.932 46.327
40.396 20.168 46.952
39.501 23.323 53.530
40.195 23.156 54.299
40.212 23.251 54.553
39.060 24.065 50.743
39.635 23.987 51.149
39.844 23.686 51.872
39.631 23.421 52.784
40.227 23.482 54.344
39.910 23.889 53.671
39.191 25.300 49.499
39.598 25.209 49.737
39.913 24.767 50.103
39.510 25.073 51.170
39.813 24.324 50.699
40.281 25.165 51.543
39.825 24.756 52.027
39.776 24.285 52.900
39.052 26.272 48.210
39.558 26.109 48.638
39.980 25.560 49.320
39.754 25.585 49.739
40.360 26.122 49.547
40.323 25.751 50.290
40.246 25.442 50.939
39.369 26.852 47.588
39.834 26.552 48.251
39.664 26.403 48.526
40.033 26.782 48.436
40.341 26.527 48.823
39.839 28.037 46.595
40.265 27.527 47.116
40.116 27.490 48.154
39.985 28.265 47.712
40.018 29.148 45.517
40.559 28.613 46.094
39.997 28.907 47.374
40.091 29.592 47.005
40.307 30.412 44.400
40.717 29.721 44.925
40.284 30.245 46.450
40.045 31.082 43.652
40.623 30.796 44.028
40.538 30.679 45.540
39.611 31.277 45.182
39.799 31.364 43.722
39.844 31.404 44.303
40.990 15.470 42.378
40.922 15.556 41.897
41.012 15.336 42.425
41.156 15.128 43.102
41.152 15.251 43.334
41.313 15.010 43.716
41.340 15.183 43.908
41.524 15.179 44.040
40.975 15.880 41.501
41.139 16.310 41.025
40.985 15.869 41.473
41.090 16.019 41.729
41.048 15.837 42.749
41.197 15.706 43.716
41.472 15.554 44.108
41.201 16.423 41.032
41.319 16.695 40.722
41.436 16.652 41.290
41.220 16.209 41.857
41.115 16.259 42.632
40.762 16.575 43.599
40.572 17.068 43.513
41.354 16.568 44.109
41.623 17.157 40.658
40.293 17.744 44.112
41.209 17.321 43.802
40.445 18.466 44.685
40.702 18.601 45.079
41.324 18.893 44.833
41.029 19.180 45.635
40.824 19.354 45.285
41.254 20.063 45.728
41.038 19.588 46.118
40.886 19.860 46.812
40.634 20.050 47.822
40.519 20.415 48.019
40.706 20.277 49.013
40.532 20.537 49.224
40.700 20.391 49.803
40.615 20.612 49.971
40.933 20.588 50.559
41.049 20.381 46.400
40.855 20.692 47.149
41.394 20.927 46.554
40.817 20.955 47.798
40.670 20.995 48.689
40.615 20.962 49.637
40.808 21.020 50.478
41.378 20.684 52.545
41.270 20.892 52.247
41.496 20.677 52.251
41.573 20.683 52.845
41.440 20.754 52.871
41.601 20.893 53.233
41.313 21.379 47.115
41.130 21.412 47.986
40.997 21.559 48.765
40.769 21.400 49.313
40.947 21.681 49.187
40.908 21.571 50.034
41.337 21.018 52.741
41.494 21.068 53.212
41.028 21.830 49.552
40.579 23.191 53.746
41.234 22.797 54.523
41.088 22.844 54.822
40.876 23.098 54.823
41.534 22.682 54.940
40.681 24.192 51.342
40.757 23.587 51.870
40.652 23.334 52.915
40.694 23.566 54.106
40.517 23.939 53.517
41.184 23.099 54.682
40.361 25.111 49.754
41.055 24.816 50.025
40.976 24.545 50.786
40.904 24.824 51.986
40.934 25.257 51.397
40.645 24.352 52.801
41.070 26.442 48.870
41.493 25.740 49.120
41.115 26.071 50.283
41.166 25.213 49.548
41.781 26.018 50.571
41.187 25.691 50.877
40.694 27.122 47.737
41.151 26.827 48.486
40.343 26.553 48.591
40.737 26.899 48.660
41.020 26.708 49.112
41.706 26.369 49.827
41.009 28.109 46.637
41.427 27.671 47.201
40.873 27.883 48.125
40.981 28.420 47.793
41.200 27.251 48.597
41.482 29.216 45.528
41.671 28.601 46.136
41.047 29.023 47.366
41.128 29.584 46.815
41.138 30.186 44.426
41.785 29.640 44.926
41.219 30.015 46.100
40.821 30.924 43.720
41.110 30.869 43.711
41.331 30.595 43.867
41.187 30.491 44.100
40.890 30.613 44.263
41.083 30.591 44.603
40.434 30.950 44.622
40.725 30.958 44.247
41.470 30.146 45.347
40.690 31.063 43.702
40.655 31.114 43.952
41.049 15.654 41.978
41.251 15.418 42.791
41.424 15.113 43.603
41.231 16.240 41.420
41.257 15.987 42.152
41.426 15.974 42.691
41.600 15.517 43.394
41.672 15.337 43.922
41.758 15.840 44.127
41.544 16.945 40.737
41.518 16.625 41.417
41.497 16.317 42.189
41.337 16.273 41.718
41.415 16.501 41.741
41.307 16.270 42.138
41.367 16.634 42.580
41.942 16.837 44.184
41.924 17.657 40.362
42.124 17.943 40.296
41.955 17.608 40.432
42.058 17.903 40.481
42.096 17.862 40.935
41.768 17.077 41.746
41.817 17.301 43.070
41.786 18.157 44.183
42.155 18.086 43.808
41.835 17.747 44.337
42.305 18.340 40.420
42.343 18.481 40.693
41.983 19.168 44.298
42.401 19.030 43.746
41.548 18.716 44.929
41.501 19.471 45.416
42.220 20.080 43.617
42.411 20.266 42.333
42.653 19.662 42.766
41.899 20.206 44.577
41.533 19.759 45.206
41.215 19.610 45.726
41.386 19.930 45.996
41.330 20.388 46.796
41.521 20.465 46.359
41.206 20.284 47.788
41.153 20.321 48.879
41.177 20.429 50.043
42.015 21.158 43.331
42.159 21.335 42.514
41.861 21.086 44.351
41.699 20.896 45.415
41.699 20.683 45.896
41.929 21.074 45.716
41.493 20.699 46.361
41.582 20.732 46.788
41.718 21.049 46.252
41.864 21.076 47.349
41.623 20.687 47.584
41.724 20.720 48.639
41.707 20.676 49.707
41.153 20.966 51.486
41.590 20.726 51.420
41.793 20.767 50.637
41.870 20.801 52.422
41.847 20.814 52.942
41.825 20.991 53.432
41.738 21.489 53.901
42.005 21.406 53.995
41.834 22.034 43.219
41.995 21.967 42.669
41.709 22.074 44.115
41.660 22.011 45.125
41.748 21.253 46.036
41.643 21.840 46.201
41.764 21.721 47.304
41.920 22.178 46.921
42.023 21.218 48.129
41.622 21.984 48.324
42.105 22.265 47.771
42.175 21.256 48.817
41.305 22.014 49.152
42.168 21.155 49.432
42.386 21.535 49.176
41.112 21.871 51.088
42.239 21.265 50.388
41.208 21.648 52.359
41.436 21.657 53.382
41.610 22.325 54.393
41.972 21.802 54.435
41.706 22.263 54.720
41.927 22.194 54.764
41.863 22.559 43.003
41.632 22.961 43.866
41.732 23.143 43.396
41.592 23.026 44.873
41.700 23.004 45.836
41.941 23.008 46.734
42.283 22.497 48.401
41.980 22.518 49.073
42.534 22.832 48.937
42.591 21.985 49.736
41.528 22.583 50.092
41.297 22.776 51.084
41.101 22.822 52.015
41.180 22.729 53.491
41.588 22.575 54.835
41.589 22.739 54.886
41.647 22.726 54.604
41.860 22.439 54.735
41.710 23.679 43.841
41.607 23.919 44.674
41.700 24.197 44.300
41.702 23.947 45.579
41.960 24.010 46.471
42.540 23.226 49.632
42.163 23.630 50.111
41.401 23.837 51.067
41.817 24.340 50.162
40.859 23.513 53.710
41.159 23.616 53.366
41.343 23.159 53.991
41.789 24.604 44.748
41.758 24.624 45.357
41.876 24.958 45.194
41.991 24.818 46.087
41.756 24.830 49.718
41.173 24.810 51.456
41.545 25.002 51.236
41.607 24.559 51.665
41.559 24.183 52.575
42.004 25.139 45.590
42.138 26.328 48.732
42.207 25.641 48.843
41.992 25.153 49.271
41.991 25.616 50.958
42.506 25.851 50.504
41.945 27.297 47.740
42.200 26.741 48.323
41.850 26.682 48.756
42.173 26.579 49.166
41.525 26.782 49.010
41.905 26.960 48.703
42.594 26.241 49.893
42.080 28.221 46.636
42.255 27.715 47.196
41.833 27.656 48.134
41.821 28.320 47.631
42.325 28.888 45.576
42.307 28.537 46.243
41.948 28.793 47.026
41.901 29.299 46.338
41.703 30.106 44.204
42.126 30.021 43.968
42.352 29.582 44.330
42.442 29.241 44.950
42.076 29.325 45.307
42.137 29.280 45.626
41.758 29.640 45.622
42.046 29.602 45.237
41.339 30.719 43.862
41.846 30.269 44.196
41.186 30.787 44.129
41.941 29.979 44.773
41.818 16.228 43.085
41.841 15.769 43.785
41.907 17.336 40.926
41.867 16.944 42.059
42.080 17.116 43.350
42.039 16.528 43.849
42.295 18.127 40.527
42.214 17.815 41.048
42.248 17.923 44.035
42.572 19.135 40.822
42.700 19.112 40.652
42.694 18.740 40.762
42.636 18.714 41.053
42.574 19.174 41.378
42.952 19.566 41.696
42.578 19.407 43.866
42.090 19.023 44.727
42.724 19.926 41.031
42.975 20.079 40.904
42.589 19.823 41.373
43.188 20.241 41.888
42.949 20.281 42.942
42.667 20.262 44.115
42.381 19.908 44.691
41.888 20.157 45.603
42.777 20.828 41.296
43.082 20.900 41.114
42.511 20.668 41.705
43.188 21.014 42.313
43.025 21.370 43.180
42.777 21.061 44.023
42.299 20.821 45.133
41.832 21.040 46.590
42.223 21.267 51.427
42.184 21.183 52.353
42.165 21.148 53.078
42.093 21.227 53.619
42.853 21.627 41.451
43.110 21.529 41.272
42.341 21.863 42.132
43.127 21.963 42.743
43.017 22.144 43.358
42.879 21.993 44.005
42.611 21.841 44.967
42.148 21.737 46.220
42.218 21.892 47.743
42.438 22.017 48.696
42.682 22.234 51.148
42.536 21.917 52.315
42.390 21.741 53.164
42.267 21.622 53.703
42.123 21.837 54.280
42.980 22.064 41.496
42.662 22.642 42.015
42.963 22.569 41.760
43.052 22.639 43.210
42.077 23.197 42.965
42.964 22.893 43.921
43.039 23.277 43.501
42.834 22.804 44.827
42.684 22.744 45.786
42.275 22.940 47.654
42.473 22.636 47.398
42.652 22.860 46.644
42.763 22.805 48.272
42.582 23.032 48.552
42.807 22.814 49.023
42.556 22.490 48.424
42.950 23.217 50.147
43.068 23.524 49.528
42.891 23.331 51.339
42.649 22.877 52.255
42.478 22.440 53.072
42.128 22.404 53.959
42.841 23.186 42.149
42.576 23.882 42.808
42.890 23.785 42.515
43.016 23.686 44.056
42.053 24.338 43.879
42.990 23.764 44.793
43.069 24.274 44.494
42.946 23.638 45.659
42.264 23.981 47.369
42.951 23.617 46.532
42.523 23.909 48.264
42.735 23.761 49.285
42.773 23.645 49.838
43.175 23.889 49.946
42.460 24.006 49.794
43.063 24.216 50.803
43.396 24.504 50.151
42.456 23.984 51.944
42.078 23.279 53.137
42.873 24.532 42.958
42.727 25.179 43.666
43.079 25.333 43.222
43.108 24.543 45.082
42.202 25.201 44.902
43.110 24.424 45.638
43.211 25.016 45.612
42.316 25.095 47.099
43.161 24.421 46.424
42.469 24.794 47.956
42.476 24.850 48.775
42.307 24.516 49.514
43.183 25.194 50.381
42.455 25.005 51.162
43.148 25.819 43.231
43.244 25.973 43.078
43.208 25.836 43.104
43.081 25.816 43.784
43.211 25.964 43.259
42.790 25.947 44.917
43.099 26.015 44.618
43.258 25.024 46.212
42.399 25.793 46.170
42.474 26.009 47.220
42.482 26.006 48.170
43.055 25.876 50.072
43.245 25.999 43.110
43.048 26.445 45.307
42.797 26.754 45.963
43.083 27.094 45.736
42.490 26.992 47.250
42.371 26.689 48.721
42.494 26.849 48.346
42.741 26.430 48.709
42.994 26.153 49.453
43.205 28.806 44.357
43.171 28.993 44.054
43.313 28.850 44.068
43.316 28.745 44.302
42.645 28.013 46.211
43.123 27.924 45.577
42.224 27.750 47.681
42.439 27.896 47.293
42.535 27.368 47.689
42.877 29.111 44.378
42.845 29.342 44.017
43.229 28.493 44.870
42.839 28.758 45.104
42.277 28.683 46.554
42.481 28.730 46.118
42.550 28.332 46.584
42.690 29.581 43.958
42.389 29.239 45.285
42.493 29.346 44.956
42.609 28.999 45.378
42.426 29.829 44.045
42.435 29.696 44.411
43.024 19.536 40.855
42.970 19.256 41.041
43.203 20.338 41.073
43.183 19.893 41.270
43.235 21.174 41.319
43.275 20.696 41.555
43.139 21.996 41.550
43.209 21.798 41.974
43.056 22.941 42.149
43.105 22.996 42.826
42.984 23.577 47.378
43.080 23.534 48.195
43.171 23.521 48.941
43.053 24.201 42.971
43.093 24.158 43.760
43.247 24.422 47.306
43.344 24.356 48.179
43.425 24.263 48.963
43.402 24.122 49.581
43.156 25.389 43.920
43.185 25.094 44.888
43.372 25.283 47.081
43.445 25.167 48.072
43.505 25.048 48.944
43.502 24.832 49.683
43.213 25.848 43.267
43.215 26.178 45.239
43.324 25.834 46.167
43.385 26.080 47.211
43.417 25.838 47.851
43.333 25.874 48.720
43.383 25.556 49.633
43.257 27.073 46.002
43.303 26.669 46.838
43.124 26.622 47.828
43.218 28.956 44.090
43.205 28.059 45.578
43.005 27.592 46.730
42.990 29.201 44.163
43.183 28.723 44.694
42.915 28.521 45.684
42.738 29.496 44.162
42.832 29.144 44.719
3 2 1 0
3 0 3 2
3 0 1 4
3 4 1 5
3 3 0 6
3 6 0 4
3 9 8 7
3 11 10 7
3 10 4 7
3 5 9 7
3 5 7 4
3 4 10 6
3 8 12 7
3 7 12 11
3 15 14 13
3 13 16 15
3 17 1 2
3 18 17 14
3 2 14 17
3 14 2 13
3 3 13 2
3 13 3 19
3 16 13 20
3 20 13 19
3 22 21 17
3 21 1 17
3 21 5 1
3 18 22 17
3 24 19 23
3 3 23 19
3 23 3 6
3 19 24 20
3 26 25 9
3 9 25 8
3 21 27 5
3 21 10 27
3 10 21 28
3 26 28 21
3 28 26 11
3 27 11 26
3 26 9 27
3 27 9 5
3 10 11 27
3 28 29 10
3 29 6 10
3 29 23 6
3 32 31 30
3 34 33 30
3 30 33 32
3 12 36 35
3 36 12 34
3 8 34 12
3 34 8 33
3 25 33 8
3 11 12 28
3 12 37 28
3 12 35 37
3 28 37 29
3 31 38 30
3 30 38 34
3 34 38 39
3 34 39 36
3 42 41 40
3 40 43 42
3 46 45 44
3 48 47 44
3 44 47 46
3 50 49 48
3 49 40 48
3 41 47 48
3 41 48 40
3 40 49 43
3 44 45 51
3 51 45 52
3 54 48 53
3 48 51 53
3 48 44 51
3 48 54 50
3 55 14 15
3 56 55 52
3 15 52 55
3 52 15 51
3 16 51 15
3 51 16 57
3 53 51 58
3 58 51 57
3 60 59 55
3 59 14 55
3 59 18 14
3 56 60 55
3 62 57 61
3 16 61 57
3 61 16 20
3 57 62 58
3 64 63 22
3 22 63 21
3 59 65 18
3 59 24 65
3 24 59 66
3 64 66 59
3 66 64 23
3 65 23 64
3 64 22 65
3 65 22 18
3 24 23 65
3 66 67 24
3 67 20 24
3 67 61 20
3 69 68 26
3 26 68 25
3 26 21 63
3 26 63 69
3 71 70 66
3 23 71 66
3 29 71 23
3 66 70 67
3 73 72 32
3 32 72 31
3 74 32 33
3 74 73 32
3 35 36 75
3 76 75 36
3 68 33 25
3 33 68 74
3 35 77 37
3 75 77 35
3 29 37 71
3 71 37 77
3 72 78 31
3 31 78 38
3 38 79 39
3 78 79 38
3 36 39 76
3 76 39 79
3 82 81 80
3 80 83 82
3 81 84 80
3 80 84 83
3 87 86 85
3 89 88 85
3 85 88 87
3 89 90 88
3 92 91 42
3 42 91 41
3 42 43 92
3 92 43 93
3 86 94 85
3 85 94 89
3 89 94 95
3 89 95 90
3 96 45 46
3 96 46 97
3 46 98 97
3 46 47 98
3 49 50 99
3 100 99 50
3 91 47 41
3 47 91 98
3 43 49 93
3 93 49 99
3 101 52 96
3 96 52 45
3 103 102 97
3 102 104 97
3 54 97 104
3 97 54 96
3 53 96 54
3 96 53 102
3 102 101 96
3 103 101 102
3 102 53 104
3 104 105 54
3 105 50 54
3 105 100 50
3 107 106 101
3 106 52 101
3 106 56 52
3 103 107 101
3 109 104 108
3 53 108 104
3 108 53 58
3 104 109 105
3 111 110 60
3 60 110 59
3 106 112 56
3 106 62 112
3 62 106 113
3 111 113 106
3 113 111 61
3 112 61 111
3 111 60 112
3 112 60 56
3 62 61 112
3 113 114 62
3 114 58 62
3 114 108 58
3 116 115 64
3 64 115 63
3 64 59 110
3 64 110 116
3 118 117 113
3 61 118 113
3 67 118 61
3 113 117 114
3 120 119 69
3 69 119 68
3 69 63 115
3 69 115 120
3 122 121 70
3 122 70 71
3 67 70 118
3 118 70 121
3 123 72 73
3 123 73 124
3 73 125 124
3 73 74 125
3 75 76 126
3 127 126 76
3 119 74 68
3 74 119 125
3 75 128 77
3 126 128 75
3 71 77 122
3 122 77 128
3 123 78 72
3 124 129 123
3 129 78 123
3 129 79 78
3 76 79 127
3 127 79 129
3 132 131 130
3 130 133 132
3 130 131 134
3 134 131 135
3 133 137 136
3 137 133 82
3 130 82 133
3 82 130 81
3 134 81 130
3 83 137 82
3 134 135 138
3 138 135 139
3 140 136 137
3 134 84 81
3 84 134 141
3 138 141 134
3 140 137 142
3 83 142 137
3 142 83 143
3 84 143 83
3 143 84 141
3 143 144 142
3 139 145 138
3 138 145 141
3 141 145 146
3 141 146 143
3 143 146 147
3 143 147 144
3 150 149 148
3 148 151 150
3 153 152 87
3 87 152 86
3 154 87 88
3 154 153 87
3 156 155 90
3 155 88 90
3 155 154 88
3 158 157 156
3 157 148 156
3 149 155 156
3 149 156 148
3 148 157 151
3 160 159 92
3 92 159 91
3 162 161 93
3 161 92 93
3 161 160 92
3 94 164 163
3 164 94 162
3 86 162 94
3 162 86 161
3 152 161 86
3 94 165 95
3 163 165 94
3 90 95 156
3 95 166 156
3 95 165 166
3 156 166 158
3 168 167 98
3 98 167 97
3 159 169 91
3 159 99 169
3 99 159 170
3 168 170 159
3 170 168 100
3 169 100 168
3 168 98 169
3 169 98 91
3 99 100 169
3 170 171 99
3 99 171 93
3 171 172 93
3 172 162 93
3 162 172 164
3 167 103 97
3 173 103 167
3 175 174 170
3 100 175 170
3 105 175 100
3 170 174 171
3 177 176 107
3 107 176 106
3 109 108 178
3 179 178 108
3 173 107 103
3 107 173 177
3 105 109 175
3 175 109 178
3 181 180 111
3 111 180 110
3 176 182 106
3 182 183 106
3 184 106 183
3 106 184 111
3 185 111 184
3 111 185 182
3 182 181 111
3 176 181 182
3 182 185 183
3 183 179 184
3 179 114 184
3 179 108 114
3 187 186 116
3 116 186 115
3 116 110 180
3 116 180 187
3 185 184 117
3 118 185 117
3 188 185 118
3 117 184 114
3 190 189 120
3 120 189 119
3 120 115 186
3 120 186 190
3 192 191 121
3 192 121 122
3 118 121 188
3 188 121 191
3 193 124 125
3 126 127 194
3 193 194 127
3 194 193 189
3 125 189 193
3 189 125 119
3 126 195 128
3 194 195 126
3 122 128 192
3 192 128 195
3 193 129 124
3 129 193 127
3 196 131 132
3 133 196 132
3 198 197 196
3 197 131 196
3 197 135 131
3 196 133 198
3 133 199 198
3 133 136 199
3 197 139 135
3 200 139 197
3 201 199 136
3 201 136 140
3 203 201 202
3 201 142 202
3 201 140 142
3 144 202 142
3 200 204 139
3 139 204 145
3 145 205 146
3 204 205 145
3 206 203 202
3 208 207 205
3 147 205 207
3 205 147 146
3 206 202 209
3 144 209 202
3 209 144 210
3 147 210 144
3 210 147 207
3 210 211 209
3 208 212 207
3 207 212 210
3 210 212 213
3 210 213 211
3 215 214 150
3 150 214 149
3 150 151 215
3 215 151 216
3 217 152 153
3 217 153 218
3 153 219 218
3 153 154 219
3 220 154 155
3 220 219 154
3 157 158 221
3 222 221 158
3 214 155 149
3 155 214 220
3 151 157 216
3 216 157 221
3 223 159 160
3 223 160 224
3 160 225 224
3 160 161 225
3 163 164 226
3 152 217 161
3 227 161 217
3 161 227 225
3 217 218 227
3 229 226 228
3 226 229 163
3 165 163 229
3 165 230 166
3 229 230 165
3 158 166 222
3 222 166 230
3 231 167 168
3 232 231 168
3 232 168 159
3 233 232 159
3 223 233 159
3 235 234 171
3 234 233 171
3 223 171 233
3 171 223 172
3 224 172 223
3 172 224 234
3 234 236 172
3 235 236 234
3 234 224 233
3 164 172 226
3 172 237 226
3 172 236 237
3 226 237 228
3 239 238 231
3 238 167 231
3 238 173 167
3 241 240 175
3 240 239 175
3 231 175 239
3 175 231 174
3 232 174 231
3 174 232 240
3 240 242 174
3 241 242 240
3 240 232 239
3 171 174 235
3 235 174 242
3 244 243 177
3 177 243 176
3 178 179 245
3 246 245 179
3 238 177 173
3 177 238 244
3 175 178 241
3 241 178 245
3 248 247 181
3 181 247 180
3 183 185 249
3 250 249 185
3 243 181 176
3 181 243 248
3 179 183 246
3 246 183 249
3 252 251 187
3 187 251 186
3 187 180 247
3 187 247 252
3 188 250 185
3 188 253 250
3 255 254 190
3 190 254 189
3 190 186 251
3 190 251 255
3 257 256 191
3 257 191 192
3 188 191 253
3 253 191 256
3 254 258 189
3 189 258 194
3 194 259 195
3 258 259 194
3 192 195 257
3 257 195 259
3 262 261 260
3 264 263 260
3 260 263 262
3 266 265 264
3 264 265 263
3 266 267 265
3 270 269 268
3 270 268 261
3 268 260 261
3 268 271 260
3 260 272 264
3 260 271 272
3 264 273 266
3 264 272 273
3 267 266 274
3 274 266 273
3 268 269 275
3 275 269 276
3 278 271 277
3 271 275 277
3 271 268 275
3 271 278 272
3 272 278 279
3 281 280 279
3 280 272 279
3 280 273 272
3 274 273 282
3 282 273 280
3 276 283 275
3 275 283 277
3 285 284 281
3 284 197 281
3 198 280 281
3 198 281 197
3 284 285 199
3 285 282 199
3 280 198 199
3 280 199 282
3 286 200 284
3 284 200 197
3 286 284 199
3 287 286 199
3 201 287 199
3 288 286 287
3 201 203 287
3 287 203 289
3 286 204 200
3 288 290 286
3 290 204 286
3 290 205 204
3 290 208 205
3 208 290 291
3 203 206 289
3 292 289 206
3 293 206 209
3 293 292 206
3 295 294 211
3 294 209 211
3 294 293 209
3 297 296 295
3 295 296 294
3 299 298 297
3 297 298 296
3 299 300 298
3 291 301 208
3 208 301 212
3 301 303 302
3 213 301 302
3 212 301 213
3 295 211 213
3 302 295 213
3 304 295 302
3 295 305 297
3 295 304 305
3 297 306 299
3 297 305 306
3 300 299 307
3 307 299 306
3 310 309 308
3 312 311 308
3 308 311 310
3 312 313 311
3 303 314 302
3 302 314 304
3 304 314 315
3 304 315 305
3 305 315 316
3 318 317 316
3 317 305 316
3 317 306 305
3 307 306 319
3 319 306 317
3 309 320 308
3 308 320 312
3 312 320 321
3 312 321 313
3 318 322 317
3 317 322 319
3 324 323 215
3 215 323 214
3 326 325 216
3 325 215 216
3 325 324 215
3 326 327 325
3 329 328 219
3 219 328 218
3 330 219 220
3 330 329 219
3 221 222 331
3 332 331 222
3 323 220 214
3 220 323 330
3 216 221 326
3 221 333 326
3 221 331 333
3 326 333 327
3 334 224 225
3 334 225 335
3 225 336 335
3 225 227 336
3 229 228 337
3 338 337 228
3 328 227 218
3 227 328 336
3 229 339 230
3 337 339 229
3 222 230 332
3 332 230 339
3 341 340 233
3 233 340 232
3 236 235 342
3 224 334 233
3 343 233 334
3 233 343 341
3 334 335 343
3 345 342 344
3 342 345 236
3 237 236 345
3 228 237 338
3 338 237 345
3 347 346 239
3 239 346 238
3 340 348 232
3 340 242 348
3 242 340 349
3 347 349 340
3 349 347 241
3 348 241 347
3 347 239 348
3 348 239 232
3 242 241 348
3 349 350 242
3 242 350 235
3 350 351 235
3 351 342 235
3 342 351 344
3 353 352 244
3 244 352 243
3 245 246 354
3 355 354 246
3 346 244 238
3 244 346 353
3 241 245 349
3 245 356 349
3 245 354 356
3 349 356 350
3 358 357 248
3 248 357 247
3 249 250 359
3 360 359 250
3 352 248 243
3 248 352 358
3 246 249 355
3 355 249 359
3 362 361 252
3 252 361 251
3 252 247 357
3 252 357 362
3 253 360 250
3 253 363 360
3 366 365 364
3 254 255 364
3 255 366 364
3 255 367 366
3 361 368 251
3 368 369 251
3 370 251 369
3 251 370 255
3 371 255 370
3 255 371 368
3 368 367 255
3 361 367 368
3 368 371 369
3 256 257 370
3 369 256 370
3 372 256 369
3 253 256 363
3 363 256 372
3 365 373 364
3 364 373 254
3 373 258 254
3 373 374 258
3 370 259 371
3 259 374 371
3 259 258 374
3 259 370 257
3 375 261 262
3 263 376 262
3 262 376 375
3 265 377 263
3 263 377 376
3 267 377 265
3 378 269 270
3 261 375 270
3 375 378 270
3 375 379 378
3 376 381 380
3 379 376 380
3 375 376 379
3 381 376 377
3 381 377 382
3 377 267 382
3 267 383 382
3 267 274 383
3 385 384 378
3 384 269 378
3 384 276 269
3 385 387 386
3 385 388 387
3 388 385 277
3 378 277 385
3 277 378 278
3 387 278 378
3 378 379 387
3 387 379 386
3 388 278 387
3 278 389 279
3 389 379 279
3 380 279 379
3 279 380 390
3 386 390 380
3 390 386 389
3 389 388 390
3 278 388 389
3 389 386 379
3 390 281 279
3 282 383 274
3 282 391 383
3 394 393 392
3 392 395 283
3 384 392 283
3 276 384 283
3 392 384 394
3 395 396 283
3 283 396 277
3 396 397 277
3 397 388 277
3 388 397 390
3 390 397 398
3 398 400 399
3 398 399 285
3 390 398 285
3 281 390 285
3 399 401 285
3 401 282 285
3 401 391 282
3 393 402 392
3 392 402 395
3 395 402 403
3 395 403 396
3 399 400 404
3 404 400 405
3 287 406 288
3 406 399 288
3 399 404 288
3 399 406 401
3 287 289 406
3 406 289 407
3 410 409 408
3 410 408 405
3 408 404 405
3 408 411 404
3 412 290 288
3 404 412 288
3 411 412 404
3 414 413 292
3 414 291 413
3 291 414 412
3 407 412 414
3 412 407 290
3 413 290 407
3 407 289 413
3 413 289 292
3 291 290 413
3 416 414 415
3 414 293 415
3 414 292 293
3 294 417 293
3 293 417 415
3 296 418 294
3 294 418 417
3 298 419 296
3 296 419 418
3 300 419 298
3 408 409 420
3 420 409 421
3 408 422 411
3 408 420 422
3 411 423 412
3 411 422 423
3 412 423 291
3 423 424 291
3 424 301 291
3 423 425 424
3 424 426 301
3 426 416 301
3 415 301 416
3 301 415 303
3 427 303 415
3 303 427 426
3 426 428 303
3 424 428 426
3 426 427 416
3 430 429 427
3 415 430 427
3 417 430 415
3 431 417 418
3 430 417 431
3 432 418 419
3 431 418 432
3 307 433 300
3 434 300 433
3 300 434 419
3 435 419 434
3 419 435 432
3 309 310 433
3 310 434 433
3 310 436 434
3 437 310 311
3 437 436 310
3 439 438 313
3 438 311 313
3 438 437 311
3 439 440 438
3 420 421 441
3 441 421 442
3 420 443 422
3 420 441 443
3 422 444 423
3 422 443 444
3 425 423 445
3 423 446 445
3 423 444 446
3 314 448 447
3 448 314 446
3 303 446 314
3 446 303 445
3 428 445 303
3 449 429 430
3 451 450 447
3 315 447 450
3 447 315 314
3 449 431 452
3 431 449 430
3 453 316 450
3 315 450 316
3 453 318 316
3 455 452 454
3 431 454 452
3 454 431 432
3 433 307 456
3 319 456 307
3 457 432 435
3 432 457 454
3 458 320 309
3 433 458 309
3 456 458 433
3 459 321 320
3 459 320 458
3 439 313 321
3 459 439 321
3 460 439 459
3 440 439 461
3 439 462 461
3 439 460 462
3 462 463 461
3 442 464 441
3 466 465 464
3 465 441 464
3 465 443 441
3 443 467 444
3 443 465 467
3 444 468 446
3 444 467 468
3 448 446 469
3 469 446 468
3 451 470 450
3 472 471 470
3 471 450 470
3 471 453 450
3 473 455 454
3 453 322 318
3 322 453 474
3 471 474 453
3 457 473 454
3 474 319 322
3 319 474 456
3 475 456 474
3 456 476 458
3 456 475 476
3 458 477 459
3 458 476 477
3 477 323 324
3 460 477 324
3 459 477 460
3 325 478 324
3 478 479 324
3 480 324 479
3 324 480 460
3 481 460 480
3 460 481 478
3 478 462 460
3 325 462 478
3 478 481 479
3 479 481 327
3 481 463 327
3 462 325 327
3 462 327 463
3 466 482 465
3 484 483 482
3 483 465 482
3 483 467 465
3 467 485 468
3 467 483 485
3 469 468 486
3 486 468 485
3 472 487 471
3 471 487 474
3 474 487 488
3 490 489 488
3 489 474 488
3 489 475 474
3 489 328 329
3 476 489 329
3 475 489 476
3 476 329 330
3 476 330 477
3 492 491 332
3 492 330 491
3 330 492 477
3 493 477 492
3 477 493 323
3 491 323 493
3 493 331 491
3 491 331 332
3 330 323 491
3 479 333 480
3 333 493 480
3 333 331 493
3 333 479 327
3 484 494 483
3 496 495 494
3 495 483 494
3 495 485 483
3 486 485 497
3 497 485 495
3 489 490 336
3 490 335 336
3 490 498 335
3 500 499 338
3 500 336 499
3 336 500 489
3 501 489 500
3 489 501 328
3 499 328 501
3 501 337 499
3 499 337 338
3 336 328 499
3 337 502 339
3 501 502 337
3 332 339 492
3 492 339 502
3 496 503 495
3 495 503 497
3 505 504 341
3 341 504 340
3 506 341 343
3 506 505 341
3 345 344 507
3 508 507 344
3 498 343 335
3 343 498 506
3 338 345 500
3 500 345 507
3 510 509 347
3 347 509 346
3 504 511 340
3 511 512 340
3 513 340 512
3 340 513 347
3 514 347 513
3 347 514 511
3 511 510 347
3 504 510 511
3 511 514 512
3 351 350 513
3 512 351 513
3 515 351 512
3 344 351 508
3 508 351 515
3 517 516 353
3 353 516 352
3 354 355 518
3 519 518 355
3 509 353 346
3 353 509 517
3 513 356 514
3 356 518 514
3 356 354 518
3 356 513 350
3 521 520 358
3 358 520 357
3 359 360 522
3 523 522 360
3 516 358 352
3 358 516 521
3 355 359 519
3 519 359 522
3 526 525 524
3 361 362 524
3 362 526 524
3 362 527 526
3 520 528 357
3 528 529 357
3 530 357 529
3 357 530 362
3 531 362 530
3 362 531 528
3 528 527 362
3 520 527 528
3 528 531 529
3 529 523 530
3 523 363 530
3 523 360 363
3 532 365 366
3 367 524 366
3 525 366 524
3 366 525 532
3 533 532 525
3 532 533 534
3 367 361 524
3 371 534 369
3 533 369 534
3 369 533 535
3 530 372 531
3 372 535 531
3 372 369 535
3 372 530 363
3 532 373 365
3 373 532 374
3 374 532 534
3 374 534 371
3 536 380 381
3 382 537 381
3 381 537 536
3 383 537 382
3 538 384 385
3 386 539 385
3 385 539 538
3 380 536 386
3 536 539 386
3 536 540 539
3 541 536 537
3 540 536 541
3 391 541 383
3 383 541 537
3 542 393 394
3 384 538 394
3 538 542 394
3 538 543 542
3 396 543 397
3 543 539 397
3 543 538 539
3 397 539 398
3 398 539 540
3 398 540 400
3 540 544 400
3 540 541 544
3 401 544 391
3 391 544 541
3 542 402 393
3 402 545 403
3 545 402 546
3 542 546 402
3 546 542 547
3 543 547 542
3 547 543 548
3 396 548 543
3 548 396 549
3 403 549 396
3 549 403 545
3 549 550 548
3 551 405 544
3 544 405 400
3 406 552 401
3 552 544 401
3 552 551 544
3 407 552 406
3 545 546 553
3 553 546 554
3 545 555 549
3 545 553 555
3 550 557 556
3 557 550 410
3 549 410 550
3 410 549 409
3 555 409 549
3 405 551 410
3 551 557 410
3 551 558 557
3 559 551 552
3 558 551 559
3 414 560 407
3 560 552 407
3 560 559 552
3 416 560 414
3 553 554 561
3 561 554 562
3 553 563 555
3 553 561 563
3 563 409 555
3 409 563 421
3 556 557 564
3 565 564 557
3 566 557 558
3 565 557 566
3 567 558 559
3 566 558 567
3 425 567 424
3 567 560 424
3 567 559 560
3 428 424 568
3 424 560 568
3 416 427 568
3 416 568 560
3 429 568 427
3 569 435 434
3 436 570 434
3 434 570 569
3 437 571 436
3 436 571 570
3 438 572 437
3 437 572 571
3 440 572 438
3 561 562 573
3 573 562 574
3 561 575 563
3 561 573 575
3 575 421 563
3 421 575 442
3 564 565 576
3 577 576 565
3 578 565 566
3 577 565 578
3 579 566 567
3 578 566 579
3 445 580 425
3 580 567 425
3 580 579 567
3 445 428 580
3 428 568 580
3 447 448 580
3 447 580 568
3 451 447 581
3 447 568 581
3 429 449 581
3 429 581 568
3 452 582 449
3 449 582 581
3 455 582 452
3 583 457 569
3 569 457 435
3 584 569 570
3 583 569 584
3 585 570 571
3 584 570 585
3 586 571 572
3 585 571 586
3 461 587 440
3 587 572 440
3 587 586 572
3 463 587 461
3 574 588 573
3 590 589 588
3 589 573 588
3 589 575 573
3 591 576 577
3 575 464 442
3 464 575 592
3 589 592 575
3 592 466 464
3 594 591 593
3 577 593 591
3 593 577 578
3 595 578 579
3 593 578 595
3 596 579 580
3 595 579 596
3 469 597 448
3 598 448 597
3 448 598 580
3 599 580 598
3 580 599 596
3 598 581 600
3 581 598 451
3 597 451 598
3 451 597 470
3 601 470 597
3 600 603 602
3 603 601 602
3 472 602 601
3 602 472 582
3 470 582 472
3 582 470 603
3 603 581 582
3 600 581 603
3 603 470 601
3 605 602 604
3 604 602 473
3 602 582 473
3 582 455 473
3 457 583 473
3 583 604 473
3 583 606 604
3 607 583 584
3 606 583 607
3 608 584 585
3 607 584 608
3 609 585 586
3 608 585 609
3 480 609 481
3 609 587 481
3 609 586 587
3 481 587 463
3 590 610 589
3 612 611 610
3 611 589 610
3 611 592 589
3 613 594 593
3 592 482 466
3 482 592 614
3 611 614 592
3 614 484 482
3 616 613 615
3 593 615 613
3 615 593 595
3 617 595 596
3 615 595 617
3 597 469 618
3 486 618 469
3 619 596 599
3 596 619 617
3 597 620 601
3 597 618 620
3 621 487 472
3 601 621 472
3 620 621 601
3 487 622 488
3 487 604 622
3 604 487 605
3 621 605 487
3 605 621 623
3 622 623 621
3 621 624 622
3 622 624 488
3 604 623 622
3 624 490 488
3 626 623 625
3 604 625 623
3 625 604 606
3 627 606 607
3 625 606 627
3 628 607 608
3 627 607 628
3 492 628 493
3 628 609 493
3 628 608 609
3 493 609 480
3 612 629 611
3 631 630 629
3 630 611 629
3 630 614 611
3 632 616 615
3 614 494 484
3 494 614 633
3 630 633 614
3 633 496 494
3 635 632 634
3 615 634 632
3 634 615 617
3 618 486 636
3 497 636 486
3 637 617 619
3 617 637 634
3 618 638 620
3 618 636 638
3 620 639 621
3 620 638 639
3 621 640 624
3 621 639 640
3 640 490 624
3 490 640 498
3 626 625 641
3 642 641 625
3 500 642 501
3 642 627 501
3 642 625 627
3 501 627 502
3 502 627 628
3 502 628 492
3 645 644 643
3 647 646 643
3 646 630 643
3 631 645 643
3 631 643 630
3 649 648 646
3 648 630 646
3 648 633 630
3 650 635 634
3 633 503 496
3 503 633 651
3 648 651 633
3 637 650 634
3 651 497 503
3 497 651 636
3 652 636 651
3 636 653 638
3 636 652 653
3 653 504 505
3 639 653 505
3 638 653 639
3 639 505 506
3 639 506 640
3 640 506 498
3 508 642 507
3 642 508 641
3 654 641 508
3 507 642 500
3 644 655 643
3 643 655 647
3 649 656 648
3 658 657 656
3 657 648 656
3 657 651 648
3 651 659 652
3 651 657 659
3 659 509 510
3 653 659 510
3 652 659 653
3 661 660 514
3 661 510 660
3 510 661 653
3 662 653 661
3 653 662 504
3 660 504 662
3 662 512 660
3 660 512 514
3 510 504 660
3 512 663 515
3 662 663 512
3 508 515 654
3 654 515 663
3 666 665 664
3 664 667 666
3 657 658 668
3 668 658 669
3 668 516 517
3 659 668 517
3 657 668 659
3 671 670 519
3 671 517 670
3 517 671 659
3 672 659 671
3 659 672 509
3 670 509 672
3 672 518 670
3 670 518 519
3 517 509 670
3 514 518 661
3 661 518 672
3 664 665 673
3 673 665 674
3 667 664 675
3 664 676 675
3 664 673 676
3 675 676 669
3 669 676 668
3 676 520 668
3 520 521 668
3 678 677 523
3 678 521 677
3 521 678 668
3 679 668 678
3 668 679 516
3 677 516 679
3 679 522 677
3 677 522 523
3 521 516 677
3 519 522 671
3 671 522 679
3 673 674 526
3 674 525 526
3 674 680 525
3 673 526 527
3 673 527 676
3 682 681 531
3 682 527 681
3 527 682 676
3 683 676 682
3 676 683 520
3 681 520 683
3 683 529 681
3 681 529 531
3 527 520 681
3 523 529 678
3 678 529 683
3 680 684 525
3 525 684 533
3 533 685 535
3 684 685 533
3 531 535 682
3 682 535 685
3 686 546 547
3 548 687 547
3 547 687 686
3 550 687 548
3 688 554 686
3 686 554 546
3 689 686 687
3 688 686 689
3 556 689 550
3 550 689 687
3 690 562 688
3 688 562 554
3 691 688 689
3 690 688 691
3 564 691 556
3 556 691 689
3 692 574 690
3 690 574 562
3 693 690 691
3 692 690 693
3 576 693 564
3 564 693 691
3 692 588 574
3 588 692 590
3 692 694 590
3 692 693 694
3 591 695 576
3 695 693 576
3 695 694 693
3 594 695 591
3 696 599 598
3 600 697 598
3 598 697 696
3 602 698 600
3 600 698 697
3 605 698 602
3 694 610 590
3 610 694 612
3 694 699 612
3 694 695 699
3 613 700 594
3 700 695 594
3 700 699 695
3 616 700 613
3 701 619 696
3 696 619 599
3 702 696 697
3 701 696 702
3 703 697 698
3 702 697 703
3 623 704 605
3 704 698 605
3 704 703 698
3 626 704 623
3 699 629 612
3 629 699 631
3 699 705 631
3 699 700 705
3 632 706 616
3 706 700 616
3 706 705 700
3 635 706 632
3 707 637 701
3 701 637 619
3 708 701 702
3 707 701 708
3 709 702 703
3 708 702 709
3 710 703 704
3 709 703 710
3 641 710 626
3 626 710 704
3 711 644 645
3 645 631 711
3 631 705 711
3 646 647 711
3 646 711 705
3 646 705 649
3 705 712 649
3 705 706 712
3 650 713 635
3 713 706 635
3 713 712 706
3 637 707 650
3 707 713 650
3 707 714 713
3 715 707 708
3 714 707 715
3 716 708 709
3 715 708 716
3 717 709 710
3 716 709 717
3 654 717 641
3 641 717 710
3 711 655 644
3 655 711 647
3 712 656 649
3 656 712 658
3 712 718 658
3 712 713 718
3 719 713 714
3 718 713 719
3 720 714 715
3 719 714 720
3 661 720 662
3 720 716 662
3 720 715 716
3 662 716 663
3 663 716 717
3 663 717 654
3 721 665 666
3 667 721 666
3 722 669 718
3 718 669 658
3 723 718 719
3 722 718 723
3 671 723 672
3 723 720 672
3 723 719 720
3 672 720 661
3 724 674 721
3 721 674 665
3 675 725 667
3 725 721 667
3 725 724 721
3 669 722 675
3 722 725 675
3 722 726 725
3 678 726 679
3 726 723 679
3 726 722 723
3 679 723 671
3 727 680 724
3 724 680 674
3 728 724 725
3 727 724 728
3 682 728 683
3 728 726 683
3 728 725 726
3 683 726 678
3 727 684 680
3 684 727 685
3 685 727 728
3 685 728 682
