ply
format ascii 1.0
comment None
element vertex 291
property float x
property float y
property float z
element face 582
property list uchar int vertex_indices
end_header
36.966 93.672 27.946
37.008 93.876 27.660
37.080 93.501 27.632
37.175 93.339 27.968
37.022 94.139 28.141
37.261 94.391 27.622
37.314 93.541 28.509
37.064 94.670 28.132
37.220 94.905 28.046
37.284 94.020 28.732
37.163 94.528 28.542
37.555 94.225 29.050
37.218 94.931 28.402
37.407 94.735 28.773
37.032 95.658 33.268
37.233 95.617 33.023
37.084 95.587 33.299
37.172 95.854 33.456
37.207 95.847 33.112
37.490 93.610 27.204
37.572 93.128 27.638
37.688 93.054 28.283
38.263 93.308 29.926
38.209 93.240 29.770
38.447 93.220 30.091
38.572 93.403 30.184
37.596 94.057 27.033
38.121 93.922 26.683
37.707 93.754 26.808
38.025 93.178 29.158
37.835 93.555 29.367
38.291 93.462 29.878
38.125 93.741 29.580
38.065 94.489 27.234
37.639 94.906 27.902
37.886 94.556 29.136
37.448 95.492 33.249
37.997 95.138 32.331
38.121 95.177 32.833
37.824 95.428 33.516
37.642 95.728 33.934
38.045 95.578 33.907
37.420 95.079 28.278
37.553 94.992 28.649
37.613 95.462 32.550
37.857 95.539 32.099
37.976 95.283 31.991
37.379 95.927 33.831
38.091 95.904 34.357
37.732 96.259 34.339
38.319 96.353 34.793
37.804 96.030 32.426
37.487 96.329 33.229
37.541 96.475 33.886
37.882 96.931 33.532
37.861 96.780 34.401
38.117 96.705 34.720
38.194 97.221 34.150
38.183 93.439 26.660
38.996 93.111 26.365
38.682 92.846 27.132
38.813 92.566 27.930
38.158 92.781 27.891
38.499 93.307 29.991
38.658 93.236 30.220
38.792 93.342 30.318
38.841 93.575 26.299
39.590 93.694 26.096
39.675 93.227 25.979
38.557 92.785 28.623
38.674 93.253 29.628
38.287 93.297 29.723
38.519 94.019 29.943
38.964 93.713 30.445
38.729 94.381 30.882
39.004 94.184 30.961
39.019 94.164 26.611
38.937 94.669 27.248
37.853 95.055 28.426
38.509 94.934 27.984
37.888 94.954 28.806
38.420 94.858 28.947
38.964 94.972 29.623
38.680 94.878 30.599
39.215 95.512 30.177
38.893 94.718 31.672
38.400 94.958 31.495
39.189 95.040 32.206
38.672 95.113 32.632
38.346 95.351 33.364
38.420 95.558 31.369
39.182 96.047 30.727
39.080 95.290 32.990
38.779 95.626 34.046
38.606 96.006 34.697
39.041 96.326 35.117
38.796 96.393 31.445
38.527 96.812 32.122
39.378 97.112 31.592
38.121 96.885 32.866
38.317 97.095 34.665
38.879 96.925 35.079
39.033 97.406 32.499
38.687 97.527 33.506
38.799 97.686 34.168
39.035 97.575 34.729
40.046 92.741 26.214
40.069 92.513 27.048
39.659 92.462 27.760
39.357 92.523 28.369
40.310 92.552 28.480
38.892 93.308 30.160
40.496 93.471 25.796
40.422 92.995 25.719
39.599 92.841 29.091
39.665 93.430 30.027
39.435 94.033 30.751
39.961 93.888 30.458
40.160 94.050 26.320
39.837 94.569 27.022
39.454 94.910 27.698
39.481 95.146 28.638
39.536 95.370 29.381
39.917 95.433 29.043
40.065 94.385 30.911
39.614 94.854 31.629
40.152 94.833 31.370
40.114 95.696 29.482
39.795 96.046 30.145
39.871 95.114 32.166
39.925 95.438 33.470
39.495 95.664 34.379
40.058 95.651 34.465
39.187 95.902 34.803
39.947 96.655 30.680
40.218 97.281 31.185
39.744 95.808 34.872
39.776 96.119 35.285
39.832 96.690 35.549
40.172 97.640 32.032
39.814 97.878 33.181
39.611 97.979 34.247
39.935 97.976 35.030
40.534 98.201 34.933
39.976 97.470 35.480
40.613 98.008 35.513
40.938 92.551 25.846
41.128 92.650 25.549
41.222 92.543 25.637
41.339 92.556 25.885
40.746 92.731 25.663
41.270 93.034 25.457
41.167 92.559 26.610
40.915 92.478 27.758
41.201 92.608 28.569
41.294 93.486 25.650
41.027 93.074 29.370
40.589 93.757 30.197
41.409 93.678 30.038
41.121 93.873 26.103
40.936 94.399 26.857
40.537 94.957 27.823
40.488 95.408 28.750
41.529 95.259 28.472
41.188 94.189 30.539
40.634 94.637 30.983
41.114 94.620 30.996
41.165 95.739 29.209
40.645 96.188 29.867
41.697 96.104 29.716
40.633 94.908 31.478
40.701 95.156 32.307
40.805 95.363 33.098
41.043 95.239 32.586
40.878 95.615 34.282
41.292 95.368 33.275
40.364 95.863 35.095
41.103 95.940 35.459
40.643 96.285 35.764
41.280 96.178 36.026
41.208 96.475 36.182
41.556 96.359 36.222
41.140 96.624 30.267
40.757 97.082 30.743
41.538 96.980 30.693
41.099 95.309 32.867
40.797 96.968 36.006
41.493 96.772 36.249
41.046 97.411 31.294
41.120 97.665 32.053
40.871 97.857 32.888
40.768 98.044 34.092
41.152 98.132 34.996
40.830 97.614 35.894
41.360 97.356 36.120
41.051 98.162 35.434
41.223 97.873 35.836
41.452 92.707 25.603
41.707 93.059 25.285
41.852 93.100 25.297
41.794 92.992 25.516
41.816 92.790 26.096
42.060 92.809 26.855
41.941 92.723 27.583
41.817 92.693 28.386
41.629 92.767 28.859
42.130 93.068 29.096
41.748 93.150 25.307
41.726 93.352 25.533
42.195 93.627 30.006
41.755 93.872 30.239
41.988 94.056 30.543
42.051 94.697 31.921
42.094 94.412 31.241
42.455 94.380 31.551
42.494 94.518 31.908
41.690 93.672 25.896
41.919 94.032 26.672
41.777 94.691 27.633
42.505 94.968 28.435
41.682 94.389 30.882
41.386 94.768 31.511
41.385 95.045 32.251
42.510 94.830 32.401
41.833 95.136 32.812
42.304 95.354 33.232
42.273 95.541 29.164
42.464 95.901 29.746
41.322 95.224 32.709
41.805 95.623 33.983
41.618 95.903 35.127
41.617 96.125 35.886
41.817 96.501 36.091
42.235 96.332 30.279
42.174 96.762 30.838
41.788 97.053 36.066
41.804 97.140 31.135
41.777 97.301 31.741
41.710 97.479 32.580
41.615 97.613 33.564
41.504 97.897 35.506
41.670 97.640 34.711
41.631 97.574 35.936
41.876 97.333 35.567
41.957 93.217 25.515
42.165 93.184 26.035
42.335 93.080 26.635
42.623 93.203 27.533
42.550 93.091 28.446
42.078 93.518 26.005
42.518 93.584 26.889
42.986 93.784 27.867
43.103 93.654 28.568
42.944 93.625 29.478
42.985 93.912 30.380
42.624 94.131 30.990
42.145 94.228 30.867
43.076 94.379 31.567
42.763 94.421 31.778
42.709 94.303 27.794
43.092 94.696 28.626
42.997 94.760 32.157
42.731 95.365 32.888
43.083 95.330 32.335
42.961 95.108 29.033
42.749 95.886 30.000
42.982 95.433 29.678
42.974 95.738 30.342
42.650 96.199 32.991
42.967 95.925 32.219
42.341 96.052 33.900
42.048 96.190 34.960
41.908 96.234 35.662
42.361 96.774 31.389
42.721 96.234 30.901
42.439 96.738 32.240
42.917 96.095 31.597
42.190 97.060 33.084
42.177 96.946 33.911
42.111 96.829 34.875
42.018 96.682 35.656
43.251 94.232 28.599
43.371 94.209 29.424
43.353 94.231 30.292
43.236 94.283 31.032
43.314 94.771 29.272
43.362 94.932 30.177
43.409 94.780 31.031
43.286 94.733 31.694
43.215 95.505 30.990
43.256 95.349 31.698
3 2 1 0
3 0 3 2
3 0 1 4
3 4 1 5
3 3 0 6
3 6 0 4
3 4 5 7
3 7 5 8
3 6 4 9
3 4 10 9
3 4 7 10
3 10 11 9
3 8 12 7
3 7 12 10
3 10 12 13
3 10 13 11
3 16 15 14
3 14 17 16
3 15 18 14
3 14 18 17
3 20 19 2
3 2 19 1
3 2 3 20
3 20 3 21
3 24 23 22
3 22 25 24
3 28 27 26
3 19 28 26
3 5 19 26
3 1 19 5
3 6 30 29
3 21 6 29
3 3 6 21
3 32 31 30
3 31 22 30
3 23 29 30
3 23 30 22
3 22 31 25
3 27 33 26
3 5 26 33
3 34 5 33
3 8 5 34
3 9 30 6
3 9 11 30
3 11 32 30
3 11 35 32
3 38 37 36
3 40 39 36
3 36 39 38
3 40 41 39
3 34 42 8
3 8 42 12
3 12 43 13
3 42 43 12
3 11 13 35
3 35 13 43
3 46 45 44
3 46 44 37
3 37 44 36
3 44 15 36
3 15 16 36
3 36 16 17
3 47 36 17
3 40 36 47
3 41 40 48
3 40 49 48
3 40 47 49
3 49 50 48
3 45 51 44
3 44 51 15
3 51 18 15
3 51 52 18
3 18 52 17
3 52 53 17
3 53 47 17
3 53 52 54
3 56 49 55
3 49 53 55
3 49 47 53
3 49 56 50
3 54 57 53
3 53 57 55
3 60 59 58
3 58 19 60
3 19 20 60
3 62 61 60
3 62 60 20
3 21 62 20
3 64 63 24
3 24 63 23
3 24 25 64
3 64 25 65
3 68 67 66
3 68 66 59
3 59 66 58
3 66 27 58
3 27 28 58
3 62 69 61
3 19 58 28
3 69 62 21
3 29 69 21
3 70 69 29
3 63 71 23
3 63 31 71
3 31 63 72
3 70 72 63
3 72 70 32
3 71 32 70
3 70 29 71
3 71 29 23
3 31 32 71
3 65 25 73
3 25 72 73
3 72 74 73
3 25 31 72
3 74 75 73
3 67 76 66
3 66 76 27
3 76 33 27
3 76 77 33
3 79 78 34
3 33 79 34
3 77 79 33
3 81 80 78
3 81 78 79
3 81 82 72
3 35 81 72
3 32 35 72
3 80 81 35
3 84 83 82
3 83 72 82
3 83 74 72
3 75 74 85
3 74 86 85
3 74 83 86
3 86 37 85
3 37 38 85
3 88 87 85
3 88 85 38
3 39 89 38
3 38 89 88
3 41 89 39
3 78 42 34
3 42 78 43
3 43 78 80
3 43 80 35
3 83 84 90
3 90 84 91
3 90 45 46
3 86 90 46
3 83 90 86
3 88 92 87
3 37 86 46
3 92 88 89
3 92 89 93
3 93 89 41
3 48 93 41
3 94 93 48
3 48 50 94
3 94 50 95
3 91 96 90
3 96 98 97
3 96 97 51
3 90 96 51
3 45 90 51
3 99 52 51
3 99 51 97
3 99 54 52
3 55 100 56
3 100 101 56
3 101 50 56
3 101 95 50
3 98 102 97
3 97 102 99
3 99 102 103
3 99 103 54
3 103 57 54
3 103 104 57
3 55 57 100
3 57 105 100
3 57 104 105
3 100 105 101
3 107 106 60
3 60 106 59
3 109 108 61
3 108 60 61
3 108 107 60
3 109 110 108
3 111 63 64
3 65 111 64
3 113 112 68
3 68 112 67
3 68 59 106
3 68 106 113
3 69 109 61
3 114 110 109
3 69 114 109
3 70 114 69
3 70 63 111
3 115 70 111
3 114 70 115
3 117 115 116
3 116 115 73
3 115 111 73
3 111 65 73
3 75 116 73
3 112 118 67
3 67 118 76
3 76 119 77
3 118 119 76
3 77 120 79
3 119 120 77
3 79 121 81
3 120 121 79
3 121 123 122
3 82 121 122
3 81 121 82
3 116 124 117
3 84 82 122
3 126 124 125
3 125 124 85
3 124 116 85
3 116 75 85
3 87 125 85
3 123 127 122
3 84 122 127
3 128 84 127
3 91 84 128
3 129 126 125
3 129 125 87
3 92 129 87
3 130 129 92
3 132 130 131
3 130 93 131
3 130 92 93
3 94 133 93
3 93 133 131
3 95 133 94
3 128 134 91
3 91 134 96
3 98 96 134
3 98 134 135
3 136 132 131
3 136 131 133
3 136 133 137
3 133 95 137
3 95 138 137
3 95 101 138
3 135 139 98
3 98 139 102
3 102 140 103
3 139 140 102
3 103 141 104
3 140 141 103
3 141 143 142
3 105 141 142
3 104 141 105
3 142 144 105
3 144 101 105
3 144 138 101
3 143 145 142
3 142 145 144
3 148 147 146
3 146 149 148
3 146 147 150
3 150 147 151
3 107 152 106
3 152 146 106
3 146 150 106
3 146 152 149
3 153 107 108
3 153 152 107
3 108 110 153
3 153 110 154
3 150 151 113
3 151 112 113
3 151 155 112
3 150 113 106
3 156 154 110
3 156 110 114
3 158 156 157
3 156 115 157
3 156 114 115
3 117 157 115
3 155 159 112
3 112 159 118
3 118 160 119
3 159 160 118
3 119 161 120
3 160 161 119
3 161 163 162
3 121 161 162
3 120 161 121
3 157 164 158
3 123 121 162
3 166 164 165
3 165 164 124
3 164 157 124
3 157 117 124
3 126 165 124
3 163 167 162
3 167 169 168
3 167 168 127
3 162 167 127
3 123 162 127
3 165 170 166
3 128 127 168
3 170 165 126
3 129 170 126
3 171 170 129
3 173 171 172
3 171 130 172
3 171 129 130
3 175 172 174
3 172 130 174
3 132 176 174
3 132 174 130
3 178 177 176
3 176 177 174
3 180 179 178
3 178 179 177
3 180 181 179
3 169 182 168
3 182 184 183
3 182 183 134
3 168 182 134
3 128 168 134
3 183 135 134
3 185 173 172
3 132 136 176
3 172 175 185
3 176 136 137
3 176 137 178
3 178 137 138
3 186 178 138
3 180 178 186
3 181 180 187
3 187 180 186
3 184 188 183
3 183 188 135
3 188 139 135
3 188 189 139
3 139 190 140
3 189 190 139
3 140 191 141
3 190 191 140
3 143 141 191
3 143 191 192
3 144 193 186
3 144 186 138
3 187 186 194
3 194 186 193
3 192 195 143
3 143 195 145
3 144 145 193
3 145 196 193
3 145 195 196
3 193 196 194
3 197 147 148
3 149 197 148
3 200 199 198
3 201 200 197
3 200 151 197
3 151 147 197
3 200 198 151
3 201 197 149
3 152 201 149
3 202 201 152
3 203 152 153
3 203 202 152
3 205 204 154
3 204 153 154
3 204 203 153
3 205 206 204
3 199 207 198
3 151 198 207
3 208 151 207
3 155 151 208
3 156 205 154
3 210 209 158
3 158 209 156
3 209 206 156
3 206 205 156
3 210 211 209
3 214 213 212
3 212 215 214
3 208 216 155
3 155 216 159
3 159 217 160
3 216 217 159
3 160 218 161
3 217 218 160
3 163 161 218
3 163 218 219
3 164 210 158
3 221 220 166
3 166 220 164
3 220 211 164
3 211 210 164
3 220 221 213
3 221 212 213
3 221 222 212
3 215 212 223
3 212 224 223
3 212 222 224
3 224 225 223
3 219 226 163
3 163 226 167
3 169 167 226
3 169 226 227
3 170 221 166
3 221 170 171
3 221 171 222
3 222 171 173
3 228 222 173
3 224 222 228
3 174 229 175
3 229 224 175
3 224 228 175
3 224 229 225
3 230 174 177
3 230 229 174
3 231 177 179
3 231 230 177
3 179 181 231
3 231 181 232
3 227 233 169
3 169 233 182
3 184 182 233
3 184 233 234
3 185 228 173
3 228 185 175
3 187 232 181
3 187 235 232
3 234 236 184
3 184 236 188
3 188 237 189
3 236 237 188
3 189 238 190
3 237 238 189
3 190 239 191
3 238 239 190
3 241 240 192
3 191 241 192
3 239 241 191
3 243 242 240
3 243 240 241
3 243 235 242
3 235 194 242
3 235 187 194
3 240 195 192
3 195 240 196
3 196 240 242
3 196 242 194
3 244 199 200
3 201 245 200
3 200 245 244
3 202 246 201
3 201 246 245
3 203 247 202
3 202 247 246
3 204 248 203
3 203 248 247
3 206 248 204
3 244 207 199
3 207 244 208
3 244 249 208
3 244 245 249
3 250 245 246
3 249 245 250
3 247 252 251
3 250 247 251
3 246 247 250
3 252 247 248
3 252 248 253
3 253 248 206
3 209 253 206
3 254 253 209
3 256 255 211
3 255 209 211
3 255 254 209
3 256 213 255
3 213 214 255
3 258 257 255
3 258 255 214
3 215 258 214
3 249 216 208
3 216 249 217
3 217 249 250
3 251 259 250
3 259 217 250
3 259 218 217
3 219 218 259
3 219 259 260
3 220 256 211
3 258 261 257
3 213 256 220
3 263 261 262
3 262 261 223
3 261 258 223
3 258 215 223
3 225 262 223
3 260 264 219
3 219 264 226
3 266 265 227
3 226 266 227
3 264 266 226
3 267 265 266
3 263 262 268
3 263 268 269
3 229 270 225
3 270 262 225
3 270 268 262
3 230 271 229
3 229 271 270
3 231 272 230
3 230 272 271
3 232 272 231
3 265 233 227
3 274 273 234
3 274 234 233
3 267 274 233
3 265 267 233
3 276 275 273
3 276 273 274
3 275 276 269
3 268 275 269
3 277 275 268
3 278 268 270
3 277 268 278
3 279 270 271
3 278 270 279
3 280 271 272
3 279 271 280
3 235 280 232
3 232 280 272
3 273 236 234
3 236 273 237
3 237 273 275
3 237 275 238
3 238 275 277
3 238 277 239
3 239 277 278
3 239 278 241
3 241 278 279
3 241 279 243
3 243 279 280
3 243 280 235
3 281 251 252
3 253 282 252
3 252 282 281
3 254 283 253
3 253 283 282
3 255 284 254
3 254 284 283
3 257 284 255
3 281 259 251
3 259 281 260
3 281 285 260
3 281 282 285
3 286 282 283
3 285 282 286
3 287 283 284
3 286 283 287
3 261 288 257
3 288 284 257
3 288 287 284
3 263 288 261
3 285 264 260
3 264 285 266
3 266 285 286
3 266 286 267
3 286 289 267
3 286 287 289
3 290 287 288
3 289 287 290
3 269 290 263
3 263 290 288
3 289 274 267
3 274 289 276
3 276 289 290
3 276 290 269
