ply
format ascii 1.0
comment None
element vertex 632
property float x
property float y
property float z
element face 1308
property list uchar int vertex_indices
end_header
34.140 38.022 38.011
34.155 38.057 37.876
34.266 37.926 38.020
34.456 37.939 38.328
34.334 38.264 37.811
34.774 37.516 38.818
34.948 37.306 38.699
35.268 37.099 39.095
35.253 37.312 39.399
34.531 38.134 37.667
34.832 37.626 38.216
34.666 37.798 38.775
34.926 37.679 39.085
34.685 38.779 37.151
34.962 39.198 36.652
35.063 38.600 37.104
34.691 38.697 37.554
34.757 38.420 38.114
35.043 38.091 38.798
35.014 39.585 36.438
35.322 40.328 35.898
35.125 39.769 36.238
35.199 39.291 36.977
35.372 39.808 36.403
35.167 38.890 37.764
35.372 40.215 36.036
35.429 37.131 38.618
35.895 36.801 39.092
36.016 36.752 39.792
35.722 37.220 39.879
36.352 36.958 40.399
35.403 37.983 37.562
35.895 37.401 38.030
35.977 37.443 40.036
35.508 37.708 39.505
35.528 39.289 36.681
35.998 38.553 37.064
36.161 38.380 39.257
35.628 38.741 38.414
35.582 40.428 35.901
35.497 39.839 36.316
35.156 39.483 36.509
35.508 39.644 36.637
35.925 39.716 37.066
36.106 39.412 37.786
35.746 40.925 35.654
35.828 41.147 35.505
35.995 40.542 36.061
36.143 40.167 36.546
36.206 41.889 35.200
36.516 42.589 34.885
36.318 41.984 35.173
36.344 41.352 35.672
36.632 42.134 35.302
36.556 42.566 34.939
36.744 36.319 40.640
36.823 36.218 40.105
37.309 35.945 40.563
37.194 36.014 40.960
37.043 36.187 41.030
37.485 36.102 41.102
36.393 36.880 38.560
36.858 36.436 39.301
37.084 36.533 40.939
36.941 37.090 40.693
36.711 37.944 37.431
37.098 37.244 37.926
36.156 37.839 39.841
36.576 37.509 40.294
36.706 39.244 36.770
36.992 38.626 37.035
37.286 38.815 39.457
37.026 39.287 38.738
36.908 38.130 39.931
36.000 40.407 36.097
36.559 40.195 36.375
37.171 39.841 38.106
37.039 40.195 37.453
36.362 41.166 35.707
36.421 40.629 36.057
36.447 40.514 36.299
36.829 40.954 36.172
37.042 40.659 36.727
36.673 42.544 35.010
36.717 42.087 35.359
37.000 41.500 36.000
37.025 42.312 35.435
36.776 42.890 34.854
36.888 42.892 34.918
36.904 42.707 35.079
37.204 42.938 35.107
37.597 35.985 39.889
38.149 35.751 40.357
37.794 35.843 40.880
38.193 35.972 41.033
37.614 36.721 38.464
38.149 36.238 39.079
37.513 36.930 40.916
38.030 36.436 41.082
37.839 37.745 37.510
38.334 37.266 37.837
38.274 37.123 40.934
37.514 37.616 40.541
37.608 39.134 36.917
38.011 38.548 37.193
37.660 39.256 39.215
38.030 39.173 39.529
38.009 38.580 40.039
37.730 39.931 36.735
38.505 39.513 37.026
37.630 40.183 38.024
38.048 40.087 38.495
38.254 39.672 39.142
37.500 41.000 36.000
37.670 41.071 36.568
38.070 41.115 36.487
38.206 41.005 37.347
38.158 40.538 37.987
37.965 40.759 53.034
38.371 40.863 52.955
38.221 40.514 52.953
38.238 40.821 53.156
37.146 42.570 35.297
37.500 42.000 36.000
38.000 41.500 36.000
37.677 42.239 35.727
38.265 41.529 36.642
38.093 41.944 36.253
37.988 40.953 53.084
37.202 42.925 35.097
37.401 42.628 35.475
37.616 42.697 35.486
38.047 42.383 36.049
37.714 42.758 35.570
38.634 35.858 39.665
39.023 35.691 40.107
38.806 35.746 40.657
39.093 36.106 40.970
39.023 36.797 38.303
39.315 36.204 38.951
38.917 36.666 41.069
38.994 38.098 37.475
39.349 37.487 37.774
39.221 37.277 41.005
38.671 38.008 40.652
39.214 39.135 37.309
38.850 38.807 40.282
38.870 39.426 39.796
38.777 40.433 36.948
39.312 39.964 37.226
39.074 40.037 39.302
38.832 40.234 38.903
38.573 40.198 52.964
39.064 40.108 52.646
39.286 39.638 52.832
39.010 40.149 53.166
39.007 41.184 36.938
38.743 40.889 37.994
38.978 40.661 38.472
39.230 40.768 52.712
39.086 41.085 53.422
38.083 42.065 36.039
38.480 42.028 36.554
38.726 41.862 36.619
39.001 41.654 37.184
39.321 41.134 38.039
38.312 41.460 53.211
39.255 41.656 53.052
38.431 41.683 53.386
38.434 42.090 53.430
38.659 42.395 53.546
38.192 42.448 36.033
38.664 42.162 36.574
38.861 42.202 53.450
38.808 42.641 53.586
39.688 35.887 39.554
39.900 35.729 40.171
39.669 35.784 40.646
40.438 35.810 40.461
39.986 36.702 38.463
40.324 36.342 38.943
40.075 36.024 40.803
40.095 36.675 41.080
39.876 38.053 37.654
40.269 37.577 38.064
40.002 37.486 41.159
39.493 37.943 40.945
39.952 38.838 37.585
40.442 38.497 37.847
39.225 39.170 40.241
39.486 38.757 40.653
39.854 39.298 52.328
40.475 39.055 51.748
40.564 38.721 51.939
40.161 39.016 52.624
39.553 40.699 37.306
40.016 39.933 37.628
39.480 40.492 39.030
39.659 40.122 39.595
39.679 39.564 40.224
40.181 39.618 52.023
40.036 40.314 52.315
39.870 39.450 53.092
39.886 40.050 53.378
39.437 41.445 37.262
40.087 40.866 37.793
39.705 40.871 38.662
40.172 40.645 39.123
40.087 41.039 52.572
40.143 40.755 53.545
39.059 41.894 36.936
39.833 41.278 37.872
40.091 41.037 38.478
40.328 41.706 52.778
38.950 42.260 53.561
39.850 42.084 53.628
39.471 42.683 53.545
40.365 42.578 53.172
38.991 42.635 53.590
39.354 42.699 53.659
39.334 43.157 53.728
39.490 43.187 53.771
40.283 43.324 53.698
39.914 43.599 53.842
40.477 43.933 53.924
40.069 43.944 53.963
40.408 44.246 54.036
40.818 36.121 39.647
40.718 35.805 40.098
41.044 35.939 40.302
40.771 37.014 38.516
41.069 36.682 38.997
40.999 36.222 40.745
41.337 36.733 41.201
41.114 37.782 38.427
40.191 38.264 41.170
41.074 37.474 41.512
41.224 37.664 47.387
41.267 37.950 46.768
41.538 37.561 47.014
41.380 37.505 47.935
41.200 37.707 48.092
41.323 37.564 48.782
41.240 37.835 48.977
41.353 37.708 49.689
41.267 38.147 50.074
41.384 37.859 50.525
40.623 39.391 38.021
41.050 38.708 38.364
40.387 39.412 40.987
40.844 38.548 41.691
41.229 38.039 47.536
41.307 38.100 48.395
41.354 38.178 49.158
41.467 38.458 49.625
41.397 38.742 50.353
40.972 38.636 51.118
41.211 38.208 51.309
41.046 38.537 52.314
40.781 38.941 52.965
40.602 40.386 38.328
41.081 39.816 38.718
40.397 40.189 40.021
40.790 40.175 40.729
40.962 39.326 41.860
40.970 40.004 41.390
41.360 39.826 42.092
41.487 40.073 45.490
41.732 40.057 45.127
41.588 39.596 44.910
41.357 39.600 45.776
41.396 40.532 46.223
41.428 40.352 46.279
41.083 39.268 51.245
40.969 39.937 51.779
41.076 40.628 52.096
40.561 39.401 53.296
41.029 39.890 53.475
40.344 40.963 38.261
40.809 40.426 39.214
40.506 40.784 38.701
41.122 40.356 40.168
41.164 40.352 40.952
41.418 40.259 41.509
41.627 40.389 45.668
41.531 40.672 46.145
41.493 41.009 46.699
41.264 41.196 47.335
41.396 40.726 46.805
41.257 41.027 47.718
41.168 41.485 48.355
41.313 41.105 48.454
40.911 41.305 52.433
41.070 40.924 53.613
41.400 41.520 47.425
41.174 41.932 48.224
41.485 41.945 47.825
41.254 41.541 49.024
41.150 42.098 49.164
41.395 41.810 49.598
41.180 42.020 52.608
41.257 41.866 53.673
41.245 42.403 48.383
41.071 42.773 49.001
41.230 42.903 48.699
41.321 42.320 49.809
41.203 42.862 49.681
41.480 42.736 50.081
41.471 43.109 52.901
40.055 43.195 53.794
41.011 43.184 53.788
41.070 43.409 49.115
41.144 43.783 49.602
41.163 44.127 49.370
41.529 43.524 50.083
40.838 43.485 53.507
40.628 43.655 53.806
40.457 43.712 53.909
40.979 44.043 53.802
40.763 44.305 54.040
41.125 45.085 49.817
41.289 45.020 49.628
41.567 44.721 50.129
40.907 44.615 54.084
41.224 44.529 53.984
41.047 44.807 54.128
41.067 46.035 49.937
41.393 45.923 49.904
41.343 45.602 50.169
41.126 46.204 50.183
41.446 46.225 50.443
41.619 45.203 54.025
41.135 46.691 50.111
41.126 47.044 50.379
41.331 47.396 50.508
41.401 46.948 50.657
41.281 47.748 50.719
41.515 47.955 50.923
41.446 47.685 50.898
41.556 48.047 51.061
41.122 35.967 40.044
41.448 37.396 38.859
41.617 36.912 39.506
41.633 36.427 40.304
42.018 36.646 41.148
42.273 37.087 41.566
42.024 37.555 43.261
42.241 37.343 42.455
42.634 37.052 42.836
42.471 37.140 43.626
42.109 37.454 44.249
42.671 37.227 44.296
41.625 38.360 38.889
41.982 37.871 39.472
42.251 37.407 41.857
41.549 38.021 42.360
41.622 38.352 43.252
41.711 38.134 44.109
42.293 37.427 45.091
41.715 37.866 45.203
42.084 37.578 46.182
41.497 37.797 46.164
42.092 37.570 47.178
41.879 37.541 47.914
41.704 37.535 48.780
41.572 37.572 49.488
41.701 37.708 50.394
41.600 37.888 51.099
41.973 37.892 51.183
41.599 39.447 39.198
42.043 38.891 39.593
41.136 38.752 42.163
41.412 39.042 42.658
41.690 39.133 43.863
41.491 38.777 44.931
41.338 38.486 45.970
41.324 38.660 47.042
41.296 39.177 46.406
41.473 38.597 48.068
41.593 38.601 49.007
41.679 38.825 49.757
41.892 39.139 49.572
41.843 38.192 51.877
41.812 38.687 52.814
41.305 39.150 53.245
42.144 39.353 53.278
41.304 40.129 39.429
41.960 39.641 39.849
41.638 40.085 39.956
41.975 39.942 40.394
41.833 40.170 41.531
41.730 40.065 42.043
42.195 39.772 42.021
41.942 39.612 42.863
42.058 39.558 43.721
42.091 39.745 44.475
41.353 39.841 46.500
41.477 40.427 46.657
41.425 40.080 47.156
41.814 39.359 50.421
41.715 39.815 51.248
41.628 40.204 51.675
42.070 40.242 51.420
41.909 40.197 53.497
41.628 40.273 40.818
42.027 40.179 45.268
41.797 40.499 46.044
41.533 40.713 46.366
41.758 40.806 46.555
41.402 40.602 47.625
41.531 40.774 48.571
41.877 40.572 51.754
41.768 41.254 52.036
42.103 41.065 53.527
41.868 41.372 47.163
41.865 41.893 47.692
41.497 41.260 49.196
41.709 41.568 49.779
41.998 42.249 52.209
42.167 42.175 53.567
41.699 42.375 48.201
41.559 42.950 48.638
41.643 42.173 50.075
41.892 42.902 50.372
42.159 43.168 52.314
42.312 43.135 53.607
41.320 43.449 48.968
41.702 44.009 49.324
42.151 44.240 50.437
41.434 44.022 53.473
42.036 44.194 52.807
41.203 44.195 53.970
42.095 44.251 53.797
41.902 44.880 49.817
42.148 45.164 50.453
41.776 44.735 53.695
42.224 45.230 53.073
41.445 44.348 53.846
41.590 44.660 54.017
41.852 45.182 54.117
41.870 45.591 50.035
41.914 45.669 50.485
41.867 46.481 50.921
42.193 45.669 53.609
42.228 45.896 53.943
42.615 46.362 53.510
42.002 45.615 54.116
41.387 46.742 50.186
41.731 46.309 50.185
41.965 47.560 51.314
42.554 46.166 53.904
41.811 47.085 50.596
41.792 47.809 51.007
41.908 48.035 51.388
42.037 48.105 51.438
42.234 37.350 40.268
42.552 36.997 41.172
42.827 36.994 42.078
42.980 37.148 41.801
42.641 37.133 42.020
43.036 36.994 42.973
42.893 37.016 43.525
43.063 37.258 43.965
42.370 38.379 40.254
42.660 37.779 41.296
42.781 37.198 41.596
42.953 37.504 41.906
42.736 37.468 45.026
43.025 37.625 44.612
42.624 37.605 45.691
42.692 37.765 46.351
42.659 37.813 47.025
42.610 37.833 47.923
42.402 37.803 48.860
42.127 37.755 49.846
42.188 37.860 50.763
42.631 38.123 50.646
42.243 39.339 40.317
42.511 38.908 40.924
43.020 38.236 41.963
42.686 38.995 41.768
43.027 38.737 42.397
42.994 37.937 45.446
42.966 37.995 46.103
41.409 39.493 47.135
41.613 39.302 47.994
41.838 39.211 48.897
42.560 38.255 51.507
42.582 38.536 52.440
42.603 38.845 52.979
43.027 38.925 52.772
42.196 39.747 41.112
42.636 39.308 42.647
42.542 39.421 43.623
42.651 39.543 44.411
41.608 40.131 48.106
41.959 39.998 49.055
42.171 39.873 49.962
42.213 40.089 50.898
42.901 39.266 53.090
42.804 40.139 53.217
42.453 39.880 44.924
42.462 40.074 45.543
42.176 40.942 46.746
42.455 40.455 46.361
42.567 40.952 47.095
41.852 40.882 49.338
42.270 40.809 50.097
42.439 40.749 50.838
42.269 40.701 51.439
42.970 41.375 53.208
42.064 42.004 47.871
42.331 41.594 47.612
42.411 42.021 48.164
42.090 41.842 50.281
42.452 41.719 50.937
42.368 41.506 51.552
43.020 42.493 53.264
41.767 43.277 48.901
42.128 42.695 48.634
42.400 43.264 49.224
42.352 43.051 50.952
42.412 42.553 51.665
43.028 43.489 53.341
42.491 44.063 49.796
42.465 44.507 50.940
42.395 43.768 51.818
43.132 44.308 53.368
42.485 44.562 50.277
42.291 45.020 50.269
42.393 44.887 50.564
42.707 44.953 50.576
42.318 45.520 50.924
42.386 45.165 52.065
42.250 44.980 53.994
42.902 45.009 53.658
42.175 45.791 50.391
42.419 45.357 50.513
42.620 45.716 50.763
42.349 46.605 51.822
42.488 46.112 52.865
42.633 45.458 53.929
42.614 45.895 53.934
42.032 46.510 50.456
42.453 46.678 50.903
42.386 47.669 51.799
42.825 47.168 52.682
43.033 46.565 53.427
43.254 47.074 52.994
42.113 47.966 51.403
42.243 47.605 51.290
42.219 47.991 51.615
42.488 47.901 51.701
42.451 47.960 51.942
42.938 47.743 52.379
43.232 47.374 52.699
42.655 47.994 51.986
43.205 37.457 42.390
43.236 37.320 42.991
43.178 37.168 43.472
43.213 38.121 42.481
43.283 38.027 43.151
43.231 37.771 43.898
43.146 38.239 46.816
43.412 38.379 47.797
43.355 38.380 48.842
42.944 38.269 49.866
43.058 38.785 43.072
43.052 38.827 44.031
43.126 38.554 45.006
43.225 38.747 46.225
43.697 39.066 47.425
44.056 38.921 48.051
44.032 38.782 48.507
44.059 38.924 49.056
44.317 39.423 49.234
43.787 39.097 49.822
43.291 38.878 51.012
43.159 38.922 52.142
42.853 39.465 44.959
42.959 39.582 45.833
43.219 40.004 46.975
44.232 39.336 48.077
43.973 39.985 48.079
44.429 39.592 48.410
44.164 40.049 49.766
44.380 39.946 49.115
43.934 40.047 50.831
43.668 39.873 51.914
43.297 39.555 52.714
43.135 41.104 47.968
44.375 39.968 48.692
43.961 40.805 49.125
44.087 41.047 50.451
44.105 40.878 51.107
44.012 40.634 51.580
43.903 40.703 52.089
43.931 41.306 52.237
43.548 40.659 52.638
43.055 42.200 48.993
43.785 42.088 50.109
44.146 41.387 51.130
44.063 42.013 51.136
44.142 41.660 51.466
43.639 41.901 52.671
43.994 41.907 52.127
43.253 43.326 50.062
43.844 43.061 51.067
44.093 41.992 51.730
43.913 42.698 52.068
43.532 42.876 52.871
43.071 44.388 50.455
43.638 44.188 51.115
43.846 43.956 52.015
43.610 43.725 52.806
43.344 45.267 51.187
43.762 45.054 52.022
43.578 44.856 52.916
43.158 46.367 51.433
43.612 46.071 52.065
43.678 45.773 52.705
43.239 45.835 53.430
42.885 47.260 51.621
43.375 46.881 52.067
43.453 46.735 52.782
43.107 47.535 52.234
44.396 39.193 48.443
44.377 39.141 48.812
44.508 39.528 48.784
44.126 41.221 51.507
44.054 41.094 51.872
44.096 41.552 51.835
3 2 1 0
3 0 3 2
3 1 4 0
3 0 4 3
3 7 6 5
3 5 8 7
3 10 9 2
3 2 9 1
3 11 5 3
3 5 10 3
3 10 2 3
3 5 6 10
3 8 5 12
3 12 5 11
3 15 14 13
3 13 16 4
3 9 13 4
3 1 9 4
3 13 9 15
3 16 17 4
3 4 17 3
3 17 18 3
3 18 11 3
3 11 18 12
3 21 20 19
3 23 22 19
3 22 13 19
3 14 21 19
3 14 19 13
3 13 22 16
3 16 22 24
3 16 24 17
3 20 25 19
3 19 25 23
3 27 26 7
3 7 26 6
3 29 28 8
3 28 7 8
3 28 27 7
3 29 30 28
3 32 31 10
3 10 31 9
3 10 6 26
3 10 26 32
3 34 33 29
3 8 34 29
3 12 34 8
3 29 33 30
3 36 35 15
3 15 35 14
3 15 9 31
3 15 31 36
3 38 37 18
3 38 18 17
3 12 18 34
3 34 18 37
3 40 39 21
3 21 39 20
3 35 41 14
3 35 22 41
3 22 35 42
3 40 42 35
3 42 40 23
3 41 23 40
3 40 21 41
3 41 21 14
3 22 23 41
3 22 42 43
3 44 22 43
3 24 22 44
3 17 24 38
3 38 24 44
3 25 20 45
3 20 46 45
3 20 39 46
3 45 47 25
3 25 47 23
3 47 48 23
3 48 42 23
3 42 48 43
3 51 50 49
3 53 52 49
3 52 45 49
3 46 51 49
3 46 49 45
3 45 52 47
3 50 54 49
3 49 54 53
3 57 56 55
3 59 58 55
3 55 58 57
3 59 60 58
3 62 61 27
3 27 61 26
3 28 55 56
3 62 28 56
3 27 28 62
3 59 55 63
3 55 30 63
3 30 64 63
3 30 55 28
3 59 63 60
3 66 65 32
3 32 65 31
3 32 26 61
3 32 61 66
3 34 67 33
3 67 68 33
3 68 30 33
3 68 64 30
3 70 69 36
3 36 69 35
3 36 31 65
3 36 65 70
3 72 71 37
3 72 37 38
3 34 37 67
3 37 73 67
3 37 71 73
3 67 73 68
3 74 39 40
3 75 74 40
3 35 75 40
3 69 75 35
3 77 76 44
3 77 44 43
3 38 44 72
3 72 44 76
3 79 78 74
3 78 39 74
3 78 46 39
3 81 80 47
3 80 79 47
3 74 47 79
3 47 74 48
3 75 48 74
3 48 75 80
3 80 82 48
3 81 82 80
3 80 75 79
3 43 48 77
3 77 48 82
3 84 83 51
3 51 83 50
3 52 53 85
3 86 85 53
3 78 51 46
3 51 78 84
3 47 52 81
3 81 52 85
3 54 50 87
3 50 88 87
3 50 83 88
3 87 89 54
3 89 53 54
3 89 86 53
3 88 90 87
3 87 90 89
3 92 91 57
3 57 91 56
3 93 57 58
3 93 92 57
3 58 60 93
3 93 60 94
3 96 95 62
3 62 95 61
3 62 56 91
3 62 91 96
3 64 97 63
3 97 98 63
3 98 60 63
3 98 94 60
3 100 99 66
3 66 99 65
3 66 61 95
3 66 95 100
3 102 101 97
3 64 102 97
3 68 102 64
3 97 101 98
3 103 69 70
3 104 103 70
3 65 104 70
3 99 104 65
3 72 105 71
3 71 105 106
3 107 71 106
3 73 71 107
3 68 73 102
3 102 73 107
3 109 108 103
3 108 69 103
3 108 75 69
3 76 77 110
3 103 104 109
3 110 111 76
3 76 111 72
3 111 112 72
3 112 105 72
3 105 112 106
3 113 78 79
3 114 82 81
3 75 113 79
3 113 75 115
3 108 115 75
3 114 116 82
3 82 116 77
3 116 117 77
3 117 110 77
3 110 117 111
3 120 119 118
3 118 121 120
3 122 83 84
3 113 124 123
3 125 123 124
3 123 125 122
3 123 122 86
3 84 86 122
3 86 84 85
3 78 85 84
3 85 78 113
3 85 113 123
3 113 85 123
3 85 113 81
3 114 81 113
3 115 114 113
3 114 115 126
3 124 126 115
3 126 124 127
3 123 127 124
3 113 123 124
3 114 126 116
3 119 128 118
3 118 128 121
3 129 88 122
3 122 88 83
3 123 86 130
3 89 130 86
3 131 122 125
3 122 131 129
3 127 123 132
3 132 123 130
3 129 90 88
3 129 131 90
3 131 133 90
3 130 89 90
3 130 90 133
3 130 133 132
3 135 134 92
3 92 134 91
3 136 92 93
3 136 135 92
3 93 94 136
3 136 94 137
3 139 138 96
3 96 138 95
3 96 91 134
3 96 134 139
3 98 137 94
3 98 140 137
3 142 141 100
3 100 141 99
3 100 95 138
3 100 138 142
3 144 143 101
3 144 101 102
3 98 101 140
3 140 101 143
3 141 104 99
3 145 104 141
3 147 146 107
3 147 107 106
3 102 107 144
3 144 107 146
3 149 148 109
3 109 148 108
3 109 104 145
3 109 145 149
3 151 150 112
3 151 112 111
3 106 112 147
3 147 112 150
3 154 153 152
3 152 155 154
3 148 115 108
3 156 115 148
3 116 157 117
3 157 158 117
3 158 111 117
3 158 151 111
3 152 153 120
3 153 119 120
3 153 159 119
3 120 121 152
3 121 155 152
3 121 160 155
3 161 125 124
3 162 126 127
3 115 161 124
3 161 115 163
3 156 163 115
3 162 164 126
3 126 164 116
3 164 165 116
3 165 157 116
3 157 165 158
3 128 119 166
3 119 167 166
3 119 159 167
3 160 121 168
3 121 166 168
3 166 169 168
3 121 128 166
3 169 170 168
3 171 131 161
3 161 131 125
3 132 162 127
3 162 132 172
3 171 172 132
3 172 171 163
3 161 163 171
3 162 172 164
3 167 173 166
3 166 173 169
3 169 173 174
3 169 174 170
3 171 133 131
3 133 171 132
3 176 175 135
3 135 175 134
3 178 176 177
3 176 136 177
3 176 135 136
3 137 177 136
3 180 179 139
3 139 179 138
3 139 134 175
3 139 175 180
3 181 178 177
3 177 137 181
3 137 182 181
3 137 140 182
3 183 141 142
3 184 183 142
3 138 184 142
3 179 184 138
3 186 185 143
3 186 143 144
3 140 143 182
3 182 143 185
3 188 187 183
3 187 141 183
3 187 145 141
3 188 183 184
3 147 189 146
3 189 190 146
3 190 144 146
3 190 186 144
3 193 192 191
3 191 194 193
3 195 148 149
3 196 195 149
3 145 196 149
3 187 196 145
3 151 197 150
3 197 198 150
3 150 198 147
3 198 199 147
3 199 189 147
3 189 199 190
3 192 200 191
3 153 200 201
3 200 153 191
3 154 191 153
3 191 154 194
3 202 194 154
3 154 155 202
3 202 155 203
3 204 156 195
3 195 156 148
3 195 196 205
3 195 205 204
3 158 206 197
3 158 197 151
3 198 197 207
3 207 197 206
3 201 159 153
3 208 159 201
3 160 203 155
3 160 209 203
3 210 163 204
3 204 163 156
3 211 165 164
3 204 211 164
3 210 204 164
3 211 204 205
3 158 165 206
3 165 212 206
3 165 211 212
3 206 212 207
3 208 167 159
3 213 167 208
3 160 168 214
3 215 160 214
3 209 160 215
3 170 214 168
3 210 172 163
3 172 210 164
3 173 167 216
3 167 217 216
3 167 213 217
3 173 218 174
3 173 214 218
3 214 173 215
3 216 215 173
3 215 216 219
3 218 219 216
3 216 220 218
3 218 220 174
3 214 219 218
3 219 214 221
3 214 170 221
3 174 220 221
3 174 221 170
3 217 222 216
3 224 223 222
3 223 216 222
3 223 220 216
3 221 220 225
3 225 220 223
3 224 226 223
3 223 226 225
3 228 227 176
3 176 227 175
3 176 178 228
3 228 178 229
3 231 230 180
3 180 230 179
3 180 175 227
3 180 227 231
3 232 229 178
3 232 178 181
3 181 182 232
3 232 182 233
3 230 184 179
3 234 184 230
3 186 235 185
3 235 236 185
3 236 182 185
3 236 233 182
3 239 238 237
3 241 240 237
3 237 240 239
3 243 242 241
3 241 242 240
3 245 244 243
3 243 244 242
3 245 246 244
3 247 187 188
3 248 247 188
3 184 248 188
3 234 248 184
3 190 249 235
3 190 235 186
3 236 235 250
3 250 235 249
3 238 251 237
3 237 251 241
3 241 251 252
3 241 252 243
3 243 252 253
3 243 253 245
3 245 253 254
3 254 255 245
3 255 256 245
3 257 246 245
3 257 245 256
3 192 193 256
3 193 257 256
3 193 258 257
3 193 194 258
3 258 194 259
3 260 196 247
3 247 196 187
3 247 248 261
3 247 261 260
3 198 262 199
3 249 190 199
3 262 249 199
3 263 249 262
3 250 249 264
3 249 265 264
3 249 263 265
3 265 266 264
3 269 268 267
3 271 270 267
3 267 270 269
3 271 272 270
3 255 273 256
3 256 273 192
3 273 200 192
3 273 274 200
3 274 201 200
3 201 274 275
3 194 202 259
3 276 259 202
3 202 203 276
3 276 203 277
3 278 205 260
3 260 205 196
3 260 261 279
3 280 260 279
3 278 260 280
3 279 281 262
3 207 279 262
3 198 207 262
3 280 279 207
3 262 281 263
3 263 281 282
3 263 282 265
3 265 282 283
3 265 283 266
3 268 284 267
3 267 284 271
3 271 284 285
3 285 286 271
3 286 287 271
3 288 272 271
3 288 271 287
3 290 289 287
3 287 289 288
3 290 291 289
3 275 208 201
3 292 208 275
3 209 277 203
3 209 293 277
3 278 211 205
3 211 278 212
3 212 278 280
3 212 280 207
3 286 294 287
3 296 295 294
3 295 287 294
3 295 290 287
3 291 290 297
3 290 298 297
3 290 295 298
3 298 299 297
3 292 213 208
3 300 213 292
3 215 293 209
3 215 301 293
3 296 302 295
3 304 303 302
3 303 295 302
3 303 298 295
3 299 298 305
3 298 306 305
3 298 303 306
3 306 307 305
3 300 217 213
3 308 217 300
3 215 219 309
3 310 215 309
3 301 215 310
3 221 309 219
3 304 311 303
3 313 312 311
3 312 303 311
3 312 306 303
3 307 306 314
3 314 306 312
3 308 315 217
3 217 315 222
3 315 316 222
3 316 310 222
3 309 222 310
3 222 309 224
3 317 224 309
3 224 317 316
3 316 318 224
3 315 318 316
3 316 317 310
3 309 221 317
3 221 319 317
3 221 225 319
3 312 313 320
3 320 313 321
3 314 312 322
3 322 312 320
3 226 224 323
3 224 324 323
3 224 318 324
3 323 325 226
3 325 225 226
3 325 319 225
3 320 321 326
3 326 321 327
3 322 320 328
3 320 329 328
3 320 326 329
3 329 330 328
3 324 331 323
3 323 331 325
3 327 332 326
3 334 333 332
3 333 326 332
3 333 329 326
3 330 329 335
3 335 329 333
3 333 334 336
3 336 334 337
3 335 333 338
3 338 333 336
3 337 339 336
3 336 339 338
3 340 227 228
3 229 340 228
3 341 230 231
3 342 341 231
3 342 231 227
3 343 342 227
3 340 343 227
3 343 340 229
3 232 343 229
3 344 343 232
3 232 233 344
3 344 233 345
3 348 347 346
3 350 349 346
3 346 349 348
3 350 351 349
3 352 234 341
3 341 234 230
3 341 342 353
3 341 353 352
3 236 355 354
3 345 236 354
3 233 236 345
3 354 355 347
3 355 346 347
3 355 356 346
3 346 357 350
3 346 356 357
3 351 350 358
3 350 359 358
3 350 357 359
3 361 360 359
3 359 360 358
3 238 239 361
3 239 360 361
3 239 362 360
3 363 239 240
3 363 362 239
3 364 240 242
3 364 363 240
3 365 242 244
3 365 364 242
3 367 366 246
3 366 244 246
3 366 365 244
3 367 368 366
3 369 248 352
3 352 248 234
3 352 353 370
3 352 370 369
3 250 371 355
3 250 355 236
3 355 372 356
3 355 371 372
3 356 373 357
3 356 372 373
3 357 374 359
3 357 373 374
3 359 375 361
3 359 374 375
3 361 375 238
3 375 376 238
3 376 251 238
3 375 377 376
3 251 378 252
3 376 378 251
3 252 379 253
3 378 379 252
3 379 381 380
3 254 379 380
3 253 379 254
3 257 367 246
3 255 254 380
3 382 368 367
3 257 382 367
3 258 382 257
3 384 383 259
3 383 258 259
3 383 382 258
3 384 385 383
3 386 261 369
3 369 261 248
3 369 370 387
3 388 369 387
3 386 369 388
3 389 388 387
3 371 250 264
3 392 391 390
3 393 391 392
3 391 393 266
3 372 266 393
3 266 372 264
3 371 264 372
3 372 393 373
3 373 393 394
3 395 268 269
3 373 395 269
3 374 373 269
3 394 395 373
3 374 269 270
3 374 270 375
3 397 396 272
3 272 396 270
3 396 377 270
3 377 375 270
3 397 398 396
3 381 399 380
3 380 399 255
3 399 273 255
3 399 400 273
3 400 402 401
3 274 400 401
3 273 400 274
3 276 384 259
3 275 274 401
3 276 277 384
3 277 385 384
3 277 403 385
3 386 279 261
3 279 386 281
3 281 386 388
3 389 404 388
3 404 281 388
3 404 282 281
3 391 283 390
3 283 404 390
3 283 282 404
3 283 391 266
3 395 405 268
3 268 405 284
3 284 406 285
3 405 406 284
3 406 407 285
3 406 272 407
3 272 406 397
3 408 397 406
3 397 408 288
3 407 288 408
3 408 286 407
3 407 286 285
3 272 288 407
3 409 398 397
3 288 409 397
3 289 409 288
3 289 291 409
3 409 291 410
3 402 411 401
3 275 401 411
3 412 275 411
3 292 275 412
3 293 403 277
3 293 413 403
3 408 414 286
3 286 414 294
3 296 294 414
3 296 414 415
3 416 410 291
3 416 291 297
3 297 299 416
3 416 299 417
3 412 300 292
3 418 300 412
3 301 413 293
3 301 419 413
3 415 420 296
3 296 420 302
3 304 302 420
3 304 420 421
3 422 417 299
3 422 299 305
3 305 307 422
3 422 307 423
3 418 308 300
3 424 308 418
3 310 419 301
3 310 425 419
3 421 426 304
3 304 426 311
3 313 311 426
3 313 426 427
3 314 423 307
3 314 428 423
3 315 308 429
3 308 430 429
3 308 424 430
3 318 315 429
3 317 431 310
3 432 310 431
3 310 432 425
3 319 431 317
3 427 321 313
3 433 321 427
3 322 428 314
3 322 434 428
3 429 430 435
3 435 430 436
3 318 437 324
3 437 431 324
3 438 324 431
3 324 438 435
3 432 435 438
3 435 432 437
3 437 429 435
3 318 429 437
3 437 432 431
3 431 319 438
3 319 439 438
3 319 325 439
3 433 327 321
3 440 327 433
3 441 434 322
3 441 322 328
3 328 330 441
3 441 330 442
3 436 443 435
3 443 445 444
3 443 444 331
3 435 443 331
3 324 435 331
3 444 446 331
3 446 325 331
3 446 439 325
3 332 327 447
3 327 448 447
3 327 440 448
3 447 334 332
3 335 442 330
3 335 449 442
3 445 450 444
3 444 450 446
3 448 451 447
3 334 447 451
3 452 334 451
3 337 334 452
3 338 449 335
3 338 453 449
3 452 454 337
3 337 454 339
3 338 339 453
3 453 339 454
3 455 342 343
3 344 456 343
3 343 456 455
3 458 456 457
3 456 344 457
3 345 459 457
3 345 457 344
3 347 348 459
3 348 457 459
3 348 460 457
3 461 348 349
3 461 460 348
3 349 351 461
3 461 351 462
3 463 353 455
3 455 353 342
3 464 455 456
3 463 455 464
3 466 465 458
3 466 459 465
3 459 466 354
3 464 354 466
3 354 464 345
3 465 345 464
3 464 456 465
3 465 456 458
3 459 345 465
3 459 354 347
3 351 358 467
3 468 351 467
3 462 351 468
3 360 469 358
3 358 469 467
3 469 360 470
3 360 471 470
3 360 362 471
3 472 362 363
3 472 471 362
3 473 363 364
3 473 472 363
3 474 364 365
3 474 473 364
3 476 474 475
3 474 366 475
3 474 365 366
3 368 475 366
3 477 370 463
3 463 370 353
3 478 463 464
3 477 463 478
3 464 466 479
3 480 464 479
3 478 464 480
3 481 480 479
3 482 468 467
3 482 467 469
3 482 469 483
3 376 377 484
3 469 470 483
3 485 378 376
3 485 376 484
3 486 379 378
3 486 378 485
3 486 381 379
3 487 476 475
3 487 475 368
3 382 487 368
3 488 487 382
3 490 488 489
3 488 383 489
3 488 382 383
3 385 489 383
3 477 387 370
3 387 477 389
3 477 491 389
3 477 478 491
3 390 491 392
3 491 480 392
3 491 478 480
3 481 492 480
3 492 392 480
3 492 393 392
3 393 493 394
3 492 493 393
3 395 394 493
3 395 493 494
3 396 484 377
3 484 396 398
3 495 484 398
3 485 484 495
3 485 496 486
3 485 495 496
3 497 399 381
3 486 497 381
3 496 497 486
3 498 400 399
3 498 399 497
3 498 402 400
3 499 490 489
3 489 385 499
3 385 500 499
3 385 403 500
3 491 404 389
3 404 491 390
3 494 501 395
3 395 501 405
3 405 502 406
3 501 502 405
3 504 503 408
3 406 504 408
3 502 504 406
3 398 409 495
3 503 504 505
3 495 409 410
3 506 495 410
3 496 495 506
3 496 507 497
3 496 506 507
3 497 508 498
3 497 507 508
3 509 411 402
3 498 509 402
3 508 509 498
3 509 412 411
3 413 500 403
3 413 510 500
3 503 414 408
3 512 511 415
3 512 415 414
3 505 512 414
3 503 505 414
3 410 416 506
3 511 512 513
3 506 416 417
3 514 506 417
3 507 506 514
3 507 515 508
3 507 514 515
3 508 516 509
3 508 515 516
3 516 418 412
3 516 412 509
3 419 510 413
3 419 517 510
3 511 420 415
3 519 518 421
3 519 421 420
3 513 519 420
3 511 513 420
3 417 422 514
3 518 519 520
3 514 422 423
3 521 514 423
3 515 514 521
3 515 522 516
3 515 521 522
3 522 424 418
3 522 418 516
3 425 517 419
3 425 523 517
3 518 426 421
3 427 426 518
3 520 427 518
3 524 427 520
3 428 525 521
3 428 521 423
3 521 526 522
3 521 525 526
3 526 430 424
3 526 424 522
3 432 523 425
3 432 527 523
3 529 433 528
3 433 524 528
3 433 427 524
3 434 530 428
3 530 529 428
3 528 428 529
3 428 528 525
3 531 525 528
3 525 531 530
3 530 532 525
3 434 532 530
3 530 531 529
3 525 533 526
3 525 532 533
3 533 436 430
3 533 430 526
3 432 438 534
3 535 432 534
3 527 432 535
3 439 534 438
3 536 440 529
3 529 440 433
3 538 537 531
3 538 532 537
3 532 538 441
3 536 441 538
3 441 536 434
3 537 434 536
3 536 529 537
3 537 529 531
3 532 434 537
3 532 441 442
3 539 532 442
3 533 532 539
3 540 443 436
3 533 540 436
3 539 540 533
3 534 541 535
3 445 443 540
3 534 439 541
3 439 542 541
3 439 446 542
3 543 448 536
3 536 448 440
3 536 538 544
3 536 544 543
3 449 545 539
3 449 539 442
3 539 546 540
3 539 545 546
3 540 546 445
3 546 547 445
3 547 450 445
3 546 548 547
3 446 450 542
3 542 450 547
3 543 451 448
3 550 549 452
3 550 452 451
3 544 550 451
3 543 544 451
3 453 551 449
3 551 549 449
3 550 449 549
3 449 550 545
3 552 545 550
3 545 552 551
3 551 553 545
3 453 553 551
3 551 552 549
3 555 546 554
3 546 553 554
3 546 545 553
3 546 555 548
3 549 454 452
3 549 552 454
3 552 556 454
3 553 453 454
3 553 454 556
3 553 556 554
3 557 458 457
3 460 558 457
3 457 558 557
3 461 559 460
3 460 559 558
3 462 559 461
3 560 466 557
3 557 466 458
3 561 557 558
3 560 557 561
3 562 558 559
3 561 558 562
3 468 562 462
3 462 562 559
3 563 470 471
3 472 564 471
3 471 564 563
3 473 565 472
3 472 565 564
3 474 566 473
3 473 566 565
3 476 566 474
3 560 479 466
3 479 560 481
3 560 567 481
3 560 561 567
3 568 561 562
3 567 561 568
3 482 569 468
3 569 562 468
3 569 568 562
3 483 570 482
3 482 570 569
3 470 563 483
3 563 570 483
3 563 571 570
3 564 573 572
3 571 564 572
3 563 564 571
3 573 564 565
3 573 565 574
3 576 575 574
3 565 576 574
3 566 576 565
3 487 577 476
3 577 566 476
3 577 576 566
3 488 578 487
3 487 578 577
3 490 578 488
3 567 492 481
3 492 567 493
3 493 567 568
3 493 568 494
3 568 579 494
3 568 569 579
3 580 569 570
3 579 569 580
3 581 570 571
3 580 570 581
3 571 572 582
3 583 571 582
3 581 571 583
3 584 583 582
3 575 576 585
3 575 585 586
3 587 576 577
3 585 576 587
3 588 577 578
3 587 577 588
3 499 589 490
3 589 578 490
3 589 588 578
3 500 589 499
3 579 501 494
3 501 579 502
3 502 579 580
3 502 580 504
3 504 580 581
3 504 581 505
3 581 590 505
3 581 583 590
3 583 584 591
3 592 583 591
3 590 583 592
3 592 591 586
3 585 592 586
3 593 592 585
3 587 595 594
3 593 587 594
3 585 587 593
3 595 587 588
3 595 588 596
3 598 597 596
3 588 598 596
3 589 598 588
3 510 598 500
3 500 598 589
3 590 512 505
3 512 590 513
3 590 599 513
3 590 592 599
3 600 592 593
3 599 592 600
3 593 594 601
3 602 593 601
3 600 593 602
3 603 602 601
3 597 598 604
3 597 604 605
3 517 604 510
3 510 604 598
3 599 519 513
3 519 599 520
3 599 606 520
3 599 600 606
3 607 600 602
3 606 600 607
3 602 603 608
3 609 602 608
3 607 602 609
3 609 608 605
3 604 609 605
3 610 609 604
3 523 610 517
3 517 610 604
3 611 524 606
3 606 524 520
3 612 606 607
3 611 606 612
3 613 607 609
3 612 607 613
3 614 609 610
3 613 609 614
3 527 614 523
3 523 614 610
3 611 528 524
3 528 611 531
3 611 615 531
3 611 612 615
3 616 612 613
3 615 612 616
3 617 613 614
3 616 613 617
3 535 617 527
3 527 617 614
3 618 538 615
3 615 538 531
3 619 615 616
3 618 615 619
3 620 616 617
3 619 616 620
3 541 621 535
3 621 617 535
3 621 620 617
3 542 621 541
3 622 544 618
3 618 544 538
3 623 618 619
3 622 618 623
3 624 619 620
3 623 619 624
3 548 624 547
3 624 621 547
3 624 620 621
3 547 621 542
3 622 550 544
3 550 622 552
3 622 625 552
3 622 623 625
3 554 625 555
3 625 624 555
3 625 623 624
3 555 624 548
3 625 556 552
3 556 625 554
3 626 572 573
3 574 627 573
3 573 627 626
3 575 627 574
3 626 582 572
3 582 626 584
3 626 628 584
3 626 627 628
3 586 628 575
3 575 628 627
3 628 591 584
3 591 628 586
3 629 594 595
3 596 630 595
3 595 630 629
3 597 630 596
3 629 601 594
3 601 629 603
3 629 631 603
3 629 630 631
3 605 631 597
3 597 631 630
3 631 608 603
3 608 631 605
