ply
format ascii 1.0
comment None
element vertex 122
property float x
property float y
property float z
element face 200
property list uchar int vertex_indices
end_header
45.167 51.407 49.913
45.208 51.293 49.936
45.333 50.956 50.011
45.307 51.031 49.997
45.078 51.629 49.852
45.098 51.579 49.866
45.100 51.574 49.867
45.049 51.698 49.833
45.000 59.000 51.000
45.000 59.000 51.000
45.000 59.000 51.000
45.000 59.000 51.000
45.000 59.000 51.000
45.000 66.000 51.000
45.000 66.000 51.000
45.000 66.000 51.000
45.000 66.000 51.000
45.000 66.000 51.000
45.000 68.000 50.000
45.000 68.000 50.000
45.000 68.000 50.000
45.000 68.000 50.000
45.000 68.000 50.000
45.000 71.517 47.483
45.000 71.517 47.483
45.000 71.517 47.483
45.000 71.517 47.483
45.000 71.517 47.483
45.000 71.517 47.483
45.000 71.517 47.483
45.000 71.517 47.483
45.000 71.517 47.483
45.000 71.517 47.483
45.000 74.560 45.440
45.000 74.666 45.334
45.000 74.469 45.531
45.000 74.469 45.531
45.000 74.928 45.072
45.000 75.210 44.790
45.000 74.915 45.085
45.000 74.666 45.334
45.000 74.915 45.085
45.000 75.410 44.590
45.000 75.554 44.446
45.000 75.474 44.526
45.000 75.210 44.790
45.000 75.474 44.526
45.000 75.554 44.446
45.000 80.000 40.000
45.000 80.000 40.000
45.000 80.000 40.000
45.000 80.000 40.000
45.000 80.000 40.000
45.924 44.435 48.343
45.878 44.242 48.184
45.876 44.231 48.176
45.908 44.357 48.284
45.918 44.412 48.324
46.006 44.867 48.664
46.031 44.997 48.760
45.966 44.611 48.490
46.041 45.019 48.786
46.124 45.857 49.275
46.079 45.310 48.972
46.118 45.692 49.197
46.140 46.000 49.361
46.142 46.921 49.742
46.151 47.090 49.827
46.168 46.476 49.605
46.150 47.271 49.899
46.056 48.066 50.062
46.046 48.015 50.024
46.058 48.131 50.092
45.859 49.139 50.164
45.837 49.197 50.151
45.880 49.111 50.188
45.580 50.195 50.120
45.521 50.385 50.097
45.632 50.060 50.153
45.257 51.169 49.969
45.468 50.593 50.093
45.119 51.525 49.881
45.000 59.000 51.000
46.000 61.000 52.000
46.000 61.000 52.000
46.000 61.000 52.000
46.000 61.000 52.000
46.000 61.000 52.000
45.000 66.000 51.000
45.000 68.000 50.000
45.000 71.517 47.483
45.000 71.517 47.483
46.000 74.000 35.000
46.000 74.000 35.000
46.000 74.000 35.000
46.000 74.000 35.000
45.000 74.560 45.440
46.000 74.000 35.000
45.000 74.928 45.072
45.000 75.410 44.590
46.000 78.000 35.000
46.000 78.000 35.000
46.000 78.000 35.000
46.000 78.000 35.000
46.000 78.000 35.000
46.000 79.000 42.000
46.000 79.000 42.000
46.000 79.000 42.000
46.000 79.000 42.000
45.000 80.000 40.000
46.000 79.000 42.000
45.890 44.291 48.225
45.980 44.706 48.553
46.097 45.501 49.082
46.144 46.704 49.656
46.048 48.080 50.055
45.858 49.170 50.175
45.679 49.921 50.177
46.000 61.000 52.000
46.000 74.000 35.000
46.000 78.000 35.000
46.000 79.000 42.000
3 2 1 0
3 0 3 2
3 0 1 4
3 4 1 5
3 3 0 6
3 6 0 4
3 5 7 4
3 4 7 6
3 10 9 8
3 8 11 10
3 9 12 8
3 8 12 11
3 15 14 13
3 13 16 15
3 14 17 13
3 13 17 16
3 20 19 18
3 18 21 20
3 19 22 18
3 18 22 21
3 25 24 23
3 23 26 25
3 29 28 27
3 31 30 27
3 30 23 27
3 24 29 27
3 24 27 23
3 23 30 26
3 28 32 27
3 27 32 31
3 35 34 33
3 33 36 35
3 39 38 37
3 41 40 37
3 40 33 37
3 34 39 37
3 34 37 33
3 33 40 36
3 44 43 42
3 46 45 42
3 45 37 42
3 38 44 42
3 38 42 37
3 37 45 41
3 43 47 42
3 42 47 46
3 50 49 48
3 48 51 50
3 49 52 48
3 48 52 51
3 55 54 53
3 53 56 55
3 54 57 53
3 57 58 53
3 58 59 53
3 60 56 53
3 60 53 59
3 59 61 60
3 59 58 62
3 62 58 63
3 61 59 64
3 64 59 62
3 63 65 62
3 65 66 62
3 66 67 62
3 68 64 62
3 68 62 67
3 67 69 68
3 67 66 70
3 70 66 71
3 69 67 72
3 72 67 70
3 70 71 73
3 73 71 74
3 72 70 75
3 75 70 73
3 73 74 76
3 76 74 77
3 75 73 78
3 78 73 76
3 80 79 77
3 79 1 77
3 2 76 77
3 2 77 1
3 79 80 3
3 80 78 3
3 76 2 3
3 76 3 78
3 81 5 79
3 79 5 1
3 6 81 3
3 3 81 79
3 81 7 5
3 7 81 6
3 82 9 10
3 11 82 10
3 82 12 9
3 12 82 11
3 85 84 83
3 83 86 85
3 84 87 83
3 83 87 86
3 88 14 15
3 16 88 15
3 88 17 14
3 17 88 16
3 89 19 20
3 21 89 20
3 89 22 19
3 22 89 21
3 90 24 25
3 26 90 25
3 91 28 29
3 29 24 91
3 24 90 91
3 30 31 91
3 30 91 90
3 30 90 26
3 91 32 28
3 32 91 31
3 94 93 92
3 92 95 94
3 96 34 35
3 36 96 35
3 93 97 92
3 92 97 95
3 98 38 39
3 39 34 98
3 34 96 98
3 40 41 98
3 40 98 96
3 40 96 36
3 99 43 44
3 44 38 99
3 38 98 99
3 45 46 99
3 45 99 98
3 45 98 41
3 99 47 43
3 47 99 46
3 102 101 100
3 100 103 102
3 101 104 100
3 100 104 103
3 107 106 105
3 105 108 107
3 109 49 50
3 51 109 50
3 106 110 105
3 105 110 108
3 109 52 49
3 52 109 51
3 111 54 55
3 56 111 55
3 111 57 54
3 58 57 112
3 57 111 112
3 56 60 112
3 56 112 111
3 61 112 60
3 113 63 112
3 112 63 58
3 64 113 61
3 61 113 112
3 113 65 63
3 66 65 114
3 65 113 114
3 64 68 114
3 64 114 113
3 69 114 68
3 115 71 114
3 114 71 66
3 72 115 69
3 69 115 114
3 116 74 115
3 115 74 71
3 75 116 72
3 72 116 115
3 117 77 116
3 116 77 74
3 78 117 75
3 75 117 116
3 117 80 77
3 80 117 78
3 118 84 85
3 86 118 85
3 118 87 84
3 87 118 86
3 119 93 94
3 95 119 94
3 119 97 93
3 97 119 95
3 120 101 102
3 103 120 102
3 120 104 101
3 104 120 103
3 121 106 107
3 108 121 107
3 121 110 106
3 110 121 108
