ply
format ascii 1.0
comment None
element vertex 676
property float x
property float y
property float z
element face 1488
property list uchar int vertex_indices
end_header
51.886 43.386 31.836
52.301 43.185 31.234
52.338 42.654 31.574
52.157 42.794 32.058
51.697 43.555 32.381
52.069 43.140 32.558
51.625 43.729 32.739
51.776 43.664 32.855
51.853 44.029 31.541
52.319 43.994 30.904
51.573 44.097 32.141
51.475 44.121 32.610
51.583 44.070 32.845
51.982 44.618 31.293
52.414 44.878 30.761
51.692 44.639 31.847
51.505 44.551 32.380
51.508 44.422 32.695
52.130 45.185 31.451
51.756 44.874 32.111
51.674 44.689 32.482
52.746 42.039 31.675
52.989 42.131 31.097
53.427 41.380 31.375
53.197 41.604 31.789
52.688 42.262 32.137
53.341 41.801 32.051
52.930 43.019 30.603
52.916 42.718 32.443
52.144 43.437 32.763
52.949 44.055 30.212
52.413 43.825 32.603
53.171 43.303 32.446
53.089 44.172 32.217
51.868 43.891 32.860
52.909 45.140 30.179
53.397 45.210 29.718
53.287 44.498 29.779
52.270 44.854 32.121
53.118 45.249 31.655
51.803 44.345 32.699
53.081 45.970 30.177
53.502 46.021 29.795
52.669 45.841 30.701
52.731 45.922 31.198
53.310 46.523 30.329
53.001 46.539 30.482
53.272 46.801 30.440
52.879 46.508 30.722
53.114 46.852 30.521
54.008 40.910 31.211
53.817 41.263 30.934
54.324 40.809 30.973
54.506 40.766 31.247
53.695 42.012 30.514
53.925 41.193 31.627
54.076 41.828 32.055
53.654 42.957 29.988
53.702 42.643 32.325
54.532 42.407 32.094
53.854 43.315 32.199
53.513 43.794 29.711
53.871 44.195 29.414
53.957 43.352 29.558
53.909 44.382 31.785
53.964 45.203 29.257
53.836 45.867 30.985
53.644 45.442 31.373
54.203 45.073 31.287
53.892 46.112 29.386
54.320 46.187 28.889
54.144 45.641 29.047
53.310 46.314 30.878
53.718 46.552 30.470
54.010 46.711 29.377
54.329 47.052 29.003
53.592 46.732 30.019
53.530 46.937 30.384
53.387 46.795 30.500
53.160 46.745 30.657
54.077 47.253 29.522
53.506 47.016 30.233
54.415 55.133 24.288
54.494 55.133 24.191
54.526 54.898 24.025
54.448 54.892 24.312
54.428 55.145 24.352
54.485 41.228 30.670
54.710 40.757 30.969
55.015 40.841 31.190
54.401 42.088 30.145
54.912 41.149 31.591
55.195 41.689 31.903
54.300 42.761 29.702
54.521 43.300 29.387
54.992 42.500 29.826
55.552 42.254 31.843
54.778 43.185 31.854
54.618 44.160 28.980
54.817 44.113 31.440
54.501 45.110 28.752
54.989 44.817 28.363
54.835 44.452 28.613
54.696 44.807 31.123
54.485 45.578 30.695
54.798 45.688 28.376
55.292 46.071 27.931
55.117 45.269 28.132
54.752 46.380 29.724
54.297 46.360 30.241
54.677 45.944 30.211
54.768 47.051 28.324
55.193 47.152 27.657
54.100 47.016 29.911
54.648 47.147 29.320
55.029 48.151 27.632
55.300 48.387 26.915
55.277 47.669 27.372
54.859 48.283 28.221
54.623 47.912 28.790
54.619 47.831 29.084
55.076 49.286 27.067
55.223 49.410 26.630
55.051 49.240 27.766
54.964 48.912 28.373
54.910 48.656 28.657
54.996 50.244 26.296
54.907 50.446 25.521
55.185 49.888 26.212
55.130 50.186 27.053
55.259 49.958 27.590
55.187 49.584 28.063
55.204 49.408 28.321
54.767 51.336 25.259
54.688 51.467 24.400
54.816 50.809 24.827
55.065 51.035 26.271
55.295 50.824 26.862
55.331 50.400 27.212
54.589 52.420 24.273
54.670 52.556 23.458
54.720 51.876 23.776
54.688 52.178 24.973
54.981 51.987 25.540
55.417 51.421 26.420
54.637 53.456 23.429
54.906 53.218 22.660
54.745 52.856 23.073
54.533 53.402 24.212
54.699 52.879 24.790
55.062 52.706 25.174
55.437 52.128 25.690
54.959 53.940 22.609
55.278 53.862 22.059
55.064 53.604 22.262
54.801 54.468 23.301
54.529 54.256 24.050
54.592 53.732 24.473
54.878 53.467 24.737
55.458 54.454 22.265
55.088 54.699 23.055
54.822 54.842 23.746
54.633 54.354 24.415
54.513 54.931 24.370
54.554 55.059 24.235
55.069 41.018 30.909
55.274 41.692 30.562
55.723 41.344 31.289
55.790 41.408 31.711
56.212 41.747 31.857
55.435 43.251 29.294
56.016 42.470 30.252
56.517 42.083 31.662
56.035 42.851 31.402
55.309 44.077 28.568
55.884 44.096 28.318
56.037 43.622 28.827
55.408 44.352 30.884
56.546 43.506 30.883
56.154 44.270 30.392
55.537 44.877 28.000
56.059 45.113 27.594
56.258 44.505 27.996
56.142 45.121 29.391
55.396 45.273 30.044
56.509 44.504 29.810
55.706 45.961 27.481
55.927 46.336 26.879
56.250 45.666 27.153
56.029 45.905 28.429
55.537 45.906 29.095
56.489 45.375 28.841
55.488 47.132 27.097
55.944 47.044 26.334
55.418 46.523 27.626
55.427 46.601 28.146
56.117 46.141 27.813
55.758 46.597 27.561
55.013 46.730 29.015
55.598 48.176 26.217
56.017 47.939 25.348
55.961 47.526 25.842
55.695 47.529 27.212
55.417 47.100 27.562
55.294 47.824 27.760
54.989 47.528 28.652
55.633 48.812 25.101
56.072 48.698 24.365
56.050 48.299 24.827
55.350 49.282 26.124
55.398 48.807 26.555
55.450 48.709 27.035
55.662 48.272 26.744
55.792 48.919 26.523
55.409 49.279 27.716
55.174 48.850 28.353
55.597 49.599 24.126
56.075 49.512 23.499
56.067 49.089 23.900
55.142 49.946 25.095
55.605 49.864 26.664
55.438 49.371 26.694
55.426 49.920 27.181
55.432 50.010 27.877
55.613 50.203 27.653
55.499 49.805 28.003
55.478 49.906 28.092
55.574 50.471 23.303
55.887 50.912 22.576
56.121 50.038 22.977
55.010 50.874 24.019
56.176 51.185 25.786
56.021 51.443 26.161
56.085 50.986 26.381
55.543 50.790 27.079
55.947 51.244 26.609
55.668 50.465 27.295
55.682 50.437 27.665
55.744 50.795 27.272
55.105 51.996 22.934
55.736 51.940 22.030
56.157 51.885 24.954
55.907 51.907 25.547
56.190 51.500 25.353
55.783 51.613 26.268
55.755 51.165 26.856
55.382 53.045 21.994
55.922 52.928 21.384
55.744 52.524 21.650
55.872 52.350 25.003
55.460 52.875 24.934
55.828 53.777 21.529
56.585 53.837 21.051
56.303 53.299 21.079
55.264 54.343 23.772
55.726 53.938 23.548
55.628 54.301 23.270
55.068 53.943 24.407
55.577 53.536 24.163
56.259 54.404 21.462
55.975 54.711 21.767
56.306 54.681 21.603
55.892 54.622 22.191
55.443 54.572 22.992
54.767 54.676 24.205
56.110 54.762 21.781
56.133 42.020 31.105
56.611 41.919 31.458
56.801 41.691 31.774
57.328 41.889 32.014
56.651 43.241 29.656
56.954 42.799 30.470
56.717 42.343 31.117
56.760 42.304 31.511
57.235 42.723 31.431
57.470 42.199 31.863
56.459 43.985 28.505
56.676 43.686 29.000
57.484 43.188 30.826
57.192 43.703 30.307
56.770 45.141 27.593
57.098 44.521 28.304
57.419 44.105 29.604
57.148 44.609 29.178
56.514 46.339 26.576
56.797 45.753 27.096
57.585 45.198 28.729
56.917 45.687 28.268
56.487 47.208 25.724
57.225 47.370 25.405
57.330 46.787 26.229
57.314 46.057 27.601
56.927 46.721 27.210
56.648 47.958 24.773
57.266 48.147 24.307
57.568 47.761 24.882
57.211 48.289 26.366
56.453 48.014 26.692
57.552 47.575 26.778
56.671 48.718 23.854
57.194 48.902 23.408
57.539 48.481 23.886
56.913 49.437 25.736
56.633 48.927 26.190
57.399 48.811 25.945
56.641 49.385 23.160
56.615 50.087 22.587
57.293 49.372 22.921
56.258 50.125 26.078
56.881 50.030 25.280
55.670 50.306 27.788
56.482 51.040 21.920
56.484 50.967 25.103
56.882 50.414 24.861
56.950 50.792 24.494
55.842 50.643 27.088
56.185 52.043 21.456
56.762 51.818 21.145
56.607 51.445 21.442
56.551 51.909 24.205
57.149 51.204 24.054
57.219 51.926 23.645
56.469 52.594 21.049
57.017 53.090 20.813
57.015 52.304 20.865
56.947 53.473 22.749
56.697 52.871 23.350
57.441 52.738 23.092
56.089 53.178 23.752
55.942 52.640 24.505
57.442 53.782 20.856
56.163 54.017 22.844
56.905 54.076 22.184
56.980 54.209 21.127
56.364 54.530 21.944
56.958 54.397 21.542
57.584 42.155 31.642
58.255 41.963 32.237
58.647 42.049 32.419
57.224 43.230 30.298
57.561 43.108 30.570
57.685 42.655 31.090
58.333 42.424 31.914
58.138 42.757 31.470
57.070 44.099 28.943
57.388 43.883 29.357
57.725 43.484 30.138
57.762 43.388 30.549
58.328 43.729 30.403
58.479 43.154 31.146
57.702 45.267 27.941
58.060 44.902 28.495
57.685 44.362 28.985
57.685 44.286 29.315
58.326 44.720 29.216
58.458 44.233 29.754
57.126 46.210 26.985
57.503 45.890 27.388
58.641 45.287 28.703
58.306 45.707 28.257
58.128 47.445 25.699
58.231 46.967 26.499
57.680 46.438 27.013
57.638 46.308 27.344
58.272 46.810 27.273
58.233 46.233 27.648
57.905 48.104 24.441
58.203 47.875 25.003
58.390 47.556 26.855
58.197 48.179 26.392
57.859 48.874 23.468
58.328 48.517 24.161
58.093 48.775 25.849
57.595 49.348 25.402
57.460 50.084 22.239
58.089 49.344 22.940
57.421 50.041 24.777
58.401 49.517 25.039
58.130 50.038 24.520
57.232 51.033 21.465
58.004 51.152 21.196
58.235 50.507 21.739
57.565 50.554 24.266
58.404 50.543 24.189
57.797 51.180 23.880
57.445 51.692 20.972
57.714 52.427 20.724
58.321 51.785 20.865
58.030 51.967 23.475
58.022 53.210 20.670
58.337 52.772 23.008
57.696 53.547 22.456
58.462 53.806 20.826
57.469 54.112 21.896
58.161 53.982 21.958
57.761 54.243 21.574
57.858 54.181 21.173
58.806 42.367 32.038
59.287 42.055 32.634
59.214 41.937 32.758
59.337 41.942 32.833
59.687 41.943 32.979
58.297 43.128 30.781
58.569 42.745 31.456
58.185 42.493 31.622
58.752 42.658 31.778
59.407 42.370 32.383
59.674 42.079 32.823
58.563 44.173 29.578
59.145 43.687 30.431
59.465 43.475 31.117
59.656 44.069 30.417
59.472 42.907 31.806
58.410 45.441 28.286
58.836 45.335 28.605
58.841 44.816 29.033
59.478 44.563 29.706
59.533 45.017 29.290
58.552 46.133 27.745
58.949 45.751 28.348
58.902 45.559 28.532
59.347 45.892 28.499
59.451 45.537 28.813
58.581 47.330 26.243
58.976 47.326 26.712
58.619 46.728 27.218
58.140 46.329 27.376
58.685 46.504 27.588
59.024 46.304 28.005
58.455 48.180 24.733
58.880 48.124 25.497
58.902 47.710 26.138
58.763 47.818 26.748
59.183 47.451 27.125
59.365 46.963 27.599
58.745 49.088 23.781
58.870 48.808 24.368
58.895 48.528 24.799
58.417 49.048 25.580
59.045 48.586 26.150
59.275 48.104 26.653
58.505 49.807 22.449
58.780 49.418 23.073
59.253 49.430 25.061
59.207 49.899 24.603
59.160 49.156 25.692
59.047 51.215 21.288
59.394 50.400 22.177
59.293 50.694 24.229
58.845 51.351 23.852
58.819 52.654 20.662
59.193 52.004 20.842
58.888 52.162 23.439
58.952 53.395 20.665
59.354 52.808 23.094
58.827 53.508 22.464
59.531 53.831 20.840
58.848 53.986 21.939
58.480 54.173 21.554
59.107 54.110 21.207
59.519 42.200 32.585
59.837 42.153 32.777
59.888 42.028 32.946
60.110 42.042 33.044
59.123 43.161 31.090
59.510 42.857 31.675
59.867 42.446 32.404
59.916 42.270 32.700
60.162 42.607 32.419
60.220 42.233 32.876
59.902 44.489 29.883
60.293 44.000 30.563
60.298 43.735 31.086
59.951 43.426 31.107
60.831 43.692 31.332
60.355 43.246 31.723
59.732 45.519 28.923
59.788 44.962 29.386
59.354 44.658 29.453
59.978 44.789 29.654
60.513 44.567 30.142
60.797 44.154 30.720
59.639 46.426 28.153
59.719 45.965 28.590
59.330 45.648 28.627
59.894 45.902 28.760
60.287 45.585 29.217
60.483 45.145 29.626
59.255 47.173 27.222
59.671 47.125 27.524
60.498 46.230 28.877
60.181 46.627 28.380
59.211 48.162 26.190
59.522 48.021 26.605
59.563 47.491 27.092
59.670 47.366 27.399
59.929 47.800 27.222
60.127 47.346 27.729
59.162 49.239 24.519
59.263 48.984 24.811
59.554 48.845 25.470
59.591 48.511 26.201
59.574 48.449 26.509
60.000 49.000 26.500
60.000 48.500 27.000
59.229 49.782 22.857
59.431 49.611 23.592
59.548 49.546 24.500
59.746 49.432 25.135
59.414 49.335 24.805
59.642 49.658 25.017
60.000 50.000 25.500
60.000 49.500 26.000
60.212 51.237 21.671
60.522 50.810 22.437
60.125 50.237 23.262
59.801 51.234 24.090
60.420 50.726 24.470
60.204 50.134 24.813
59.733 52.579 20.751
60.171 52.116 21.091
60.495 51.484 24.144
60.059 52.091 23.684
60.014 53.342 20.740
60.472 52.921 20.872
60.187 52.909 23.127
59.885 53.394 22.638
60.389 53.893 20.882
59.208 54.112 21.660
59.578 53.862 22.076
60.190 54.074 21.121
59.980 54.064 21.582
60.350 42.349 32.734
60.360 42.140 33.015
60.460 42.204 32.995
60.459 43.099 31.783
60.473 42.680 32.349
60.591 42.509 32.681
60.691 42.925 32.222
60.627 44.350 30.351
60.900 44.242 30.592
60.768 43.785 31.050
60.988 43.414 31.726
61.167 43.878 31.217
60.273 45.328 29.342
60.586 45.142 29.669
60.840 44.594 30.238
61.011 44.469 30.446
61.137 44.905 30.177
61.259 44.283 30.790
60.289 46.477 28.525
60.544 46.180 28.845
60.643 45.634 29.299
60.695 45.496 29.501
61.000 46.000 29.500
61.016 45.464 29.740
60.560 47.153 28.116
60.714 46.731 28.602
60.675 46.551 28.730
60.978 46.989 28.594
61.000 46.500 29.000
60.500 48.000 27.000
60.584 47.789 27.562
60.730 47.848 27.548
60.798 47.453 28.072
60.500 49.000 26.000
60.500 49.000 27.000
61.000 48.500 27.000
61.000 49.000 26.500
61.170 48.169 27.665
61.484 49.063 27.215
60.244 50.114 24.339
60.500 50.000 25.000
60.500 50.000 26.000
61.000 49.500 26.000
61.000 50.000 25.500
61.451 49.515 26.700
61.599 50.027 26.341
60.959 51.355 21.979
61.329 51.312 22.625
61.033 50.864 23.313
61.007 50.646 24.426
61.200 50.454 25.187
60.701 50.307 24.773
60.931 50.524 24.866
61.492 50.433 25.733
61.540 50.705 25.331
61.136 52.075 21.555
61.436 51.732 22.010
60.810 51.852 24.027
61.329 51.547 24.288
61.603 51.143 24.835
60.954 53.422 20.932
61.306 53.131 21.264
60.630 53.297 22.754
60.894 52.827 23.221
61.241 52.237 23.814
61.074 53.809 20.959
61.565 53.671 21.191
61.331 53.351 22.475
60.600 53.736 22.094
60.892 54.035 21.063
60.964 53.994 21.411
60.615 42.381 32.822
60.847 42.956 32.189
61.222 44.277 30.756
61.133 43.658 31.404
61.309 43.809 31.345
61.271 45.147 30.103
61.391 44.419 30.727
61.500 46.000 29.000
61.500 46.000 30.000
61.640 45.790 29.791
62.000 46.000 29.500
61.492 45.674 29.824
61.241 47.278 28.482
61.500 47.000 29.000
62.000 46.500 29.000
61.692 47.192 28.716
61.795 46.263 29.426
61.793 46.759 29.056
61.345 48.080 27.818
61.570 47.636 28.358
61.433 47.651 28.329
61.706 47.226 28.764
61.559 49.353 26.834
61.518 48.840 27.256
61.715 48.633 27.709
61.985 49.454 27.236
61.612 50.330 25.836
61.718 49.853 26.502
61.450 49.583 26.508
61.854 49.886 26.694
61.983 49.805 26.924
61.471 51.235 23.297
61.535 51.247 24.040
61.777 51.286 24.619
61.713 50.754 25.371
61.492 50.490 25.522
61.825 50.798 25.565
62.023 50.648 26.028
62.128 50.294 26.550
61.698 52.234 21.863
61.776 51.936 22.412
61.773 51.637 23.329
61.780 51.555 24.164
61.797 51.543 24.531
61.780 51.900 24.242
61.999 51.522 24.789
62.091 51.087 25.498
61.797 52.996 21.575
61.952 52.511 22.123
61.808 52.353 23.716
61.602 52.819 23.182
61.674 53.813 21.161
61.850 53.597 21.290
61.766 53.514 21.357
61.754 53.475 21.758
61.407 53.672 21.629
61.651 53.785 21.386
61.837 53.131 22.544
61.457 53.936 21.191
61.405 44.046 31.085
61.784 46.104 29.522
61.847 46.753 29.047
61.726 47.846 28.283
61.873 49.245 27.236
62.051 50.395 26.223
62.197 50.088 26.786
62.103 51.171 25.292
62.247 50.718 26.131
62.008 52.297 22.843
61.989 51.871 24.039
61.995 53.008 22.173
61.977 52.641 23.098
61.858 53.598 21.457
3 2 1 0
3 4 3 0
3 0 3 2
3 6 5 4
3 4 5 3
3 6 7 5
3 0 1 8
3 8 1 9
3 0 10 4
3 0 8 10
3 4 11 6
3 4 10 11
3 7 6 12
3 12 6 11
3 8 9 13
3 13 9 14
3 8 15 10
3 8 13 15
3 10 16 11
3 10 15 16
3 12 11 17
3 17 11 16
3 14 18 13
3 13 18 15
3 15 18 19
3 15 19 16
3 16 19 20
3 16 20 17
3 23 22 21
3 25 24 21
3 21 24 23
3 25 26 24
3 21 22 2
3 22 1 2
3 22 27 1
3 21 2 3
3 21 3 25
3 3 5 25
3 5 28 25
3 28 26 25
3 5 29 28
3 7 29 5
3 27 9 1
3 30 9 27
3 33 32 31
3 31 32 28
3 29 31 28
3 34 31 29
3 12 34 7
3 7 34 29
3 37 36 35
3 30 37 35
3 14 30 35
3 9 30 14
3 33 31 38
3 33 38 39
3 40 31 34
3 38 31 40
3 17 40 12
3 12 40 34
3 35 36 41
3 41 36 42
3 43 18 14
3 35 43 14
3 41 43 35
3 44 39 38
3 18 44 38
3 19 18 38
3 44 18 43
3 19 38 20
3 20 38 40
3 20 40 17
3 42 45 41
3 47 46 45
3 46 41 45
3 46 43 41
3 44 43 48
3 48 43 46
3 47 49 46
3 46 49 48
3 52 51 50
3 50 53 52
3 50 51 23
3 51 22 23
3 51 54 22
3 55 53 50
3 23 55 50
3 24 55 23
3 24 26 55
3 55 26 56
3 54 27 22
3 57 27 54
3 60 59 58
3 59 56 58
3 56 28 58
3 56 26 28
3 63 62 61
3 57 63 61
3 30 57 61
3 27 57 30
3 60 58 32
3 33 60 32
3 64 60 33
3 32 58 28
3 61 62 37
3 62 36 37
3 62 65 36
3 30 61 37
3 68 67 66
3 68 64 67
3 64 39 67
3 64 33 39
3 71 70 69
3 65 71 69
3 42 65 69
3 36 65 42
3 66 67 72
3 66 72 73
3 44 72 39
3 39 72 67
3 69 70 74
3 74 70 75
3 76 45 42
3 69 76 42
3 74 76 69
3 73 78 77
3 73 76 78
3 76 73 45
3 72 45 73
3 45 72 47
3 78 47 72
3 72 79 78
3 78 79 77
3 76 47 78
3 48 79 44
3 44 79 72
3 75 80 74
3 74 80 76
3 76 80 81
3 77 79 81
3 79 49 81
3 47 76 81
3 47 81 49
3 49 79 48
3 84 83 82
3 82 85 84
3 83 86 82
3 82 86 85
3 88 87 52
3 52 87 51
3 52 53 88
3 88 53 89
3 87 54 51
3 90 54 87
3 91 89 53
3 91 53 55
3 55 56 91
3 91 56 92
3 95 94 93
3 90 95 93
3 57 90 93
3 54 90 57
3 97 96 59
3 97 59 60
3 56 59 92
3 92 59 96
3 93 94 63
3 94 62 63
3 94 98 62
3 93 63 57
3 64 97 60
3 64 99 97
3 102 101 100
3 98 102 100
3 65 98 100
3 62 98 65
3 104 103 68
3 104 68 66
3 64 68 99
3 99 68 103
3 107 106 105
3 107 105 101
3 101 105 100
3 105 70 100
3 70 71 100
3 65 100 71
3 110 109 108
3 110 104 109
3 104 73 109
3 104 66 73
3 105 106 111
3 111 106 112
3 111 75 70
3 111 70 105
3 108 109 113
3 108 113 114
3 77 113 73
3 73 113 109
3 117 116 115
3 117 115 112
3 115 111 112
3 115 118 111
3 119 80 75
3 111 119 75
3 118 119 111
3 120 114 113
3 80 120 113
3 81 80 113
3 120 80 119
3 81 113 77
3 115 116 121
3 121 116 122
3 115 123 118
3 115 121 123
3 118 124 119
3 118 123 124
3 120 119 125
3 125 119 124
3 128 127 126
3 128 126 122
3 126 121 122
3 126 129 121
3 131 123 130
3 123 129 130
3 123 121 129
3 123 131 124
3 124 131 132
3 124 132 125
3 135 134 133
3 135 133 127
3 133 126 127
3 133 136 126
3 138 129 137
3 129 136 137
3 129 126 136
3 129 138 130
3 141 140 139
3 141 139 134
3 139 133 134
3 139 142 133
3 133 143 136
3 133 142 143
3 137 136 144
3 144 136 143
3 147 146 145
3 147 145 140
3 145 139 140
3 145 148 139
3 139 149 142
3 139 148 149
3 151 143 150
3 143 149 150
3 143 142 149
3 143 151 144
3 154 153 152
3 154 152 146
3 152 145 146
3 152 155 145
3 145 156 148
3 145 155 156
3 148 157 149
3 148 156 157
3 150 149 158
3 158 149 157
3 153 159 152
3 152 159 155
3 155 159 160
3 161 83 84
3 155 161 84
3 156 155 84
3 160 161 155
3 157 156 162
3 156 85 162
3 85 163 162
3 85 156 84
3 157 162 158
3 161 164 83
3 83 164 86
3 85 86 163
3 163 86 164
3 165 87 88
3 89 165 88
3 167 166 165
3 166 87 165
3 166 90 87
3 167 165 89
3 91 167 89
3 168 167 91
3 91 92 168
3 168 92 169
3 171 170 95
3 95 170 94
3 95 90 166
3 95 166 171
3 173 172 96
3 173 96 97
3 92 96 169
3 169 96 172
3 176 175 174
3 170 176 174
3 98 170 174
3 94 170 98
3 179 178 177
3 178 173 177
3 173 99 177
3 173 97 99
3 182 181 180
3 182 180 175
3 175 180 174
3 180 101 174
3 101 102 174
3 98 174 102
3 185 184 183
3 184 185 179
3 184 179 177
3 104 184 177
3 103 104 177
3 103 177 99
3 188 187 186
3 188 186 181
3 181 186 180
3 186 106 180
3 106 107 180
3 101 180 107
3 191 190 189
3 190 191 183
3 190 183 184
3 108 190 184
3 110 108 184
3 110 184 104
3 186 187 192
3 192 187 193
3 106 194 112
3 106 195 194
3 195 106 196
3 186 196 106
3 196 186 197
3 194 197 186
3 186 192 194
3 194 192 112
3 195 197 194
3 195 196 189
3 190 195 189
3 198 195 190
3 114 198 108
3 108 198 190
3 201 200 199
3 201 199 193
3 193 199 192
3 199 116 192
3 116 117 192
3 197 203 202
3 203 192 202
3 117 202 192
3 202 117 204
3 112 204 117
3 204 112 203
3 203 195 204
3 197 195 203
3 203 112 192
3 205 195 198
3 204 195 205
3 120 205 114
3 114 205 198
3 208 207 206
3 208 206 200
3 206 199 200
3 206 209 199
3 116 210 122
3 116 211 210
3 211 116 212
3 199 212 116
3 212 199 213
3 210 213 199
3 199 209 210
3 210 209 122
3 211 213 210
3 211 212 202
3 204 211 202
3 214 211 204
3 215 204 205
3 214 204 215
3 125 215 120
3 120 215 205
3 218 217 216
3 218 216 207
3 216 206 207
3 216 219 206
3 219 127 128
3 209 219 128
3 206 219 209
3 213 221 220
3 221 209 220
3 128 220 209
3 220 128 222
3 122 222 128
3 222 122 221
3 221 211 222
3 213 211 221
3 221 122 209
3 223 131 130
3 225 224 214
3 222 214 224
3 214 222 211
3 131 223 132
3 226 132 223
3 132 226 215
3 225 215 226
3 215 225 214
3 132 215 125
3 229 228 227
3 229 227 217
3 227 216 217
3 227 230 216
3 230 134 135
3 219 230 135
3 216 230 219
3 127 219 135
3 233 232 231
3 138 137 234
3 233 235 232
3 236 220 222
3 222 138 234
3 138 222 130
3 223 130 222
3 224 223 222
3 223 224 237
3 236 237 224
3 237 236 238
3 234 238 236
3 222 234 236
3 223 237 226
3 227 228 239
3 239 228 240
3 239 140 141
3 230 239 141
3 227 239 230
3 134 230 141
3 243 242 241
3 242 243 231
3 232 242 231
3 244 242 232
3 144 234 137
3 234 144 245
3 244 245 144
3 245 244 235
3 232 235 244
3 234 245 238
3 248 247 246
3 248 246 240
3 240 246 239
3 246 146 239
3 146 147 239
3 239 147 140
3 249 241 242
3 150 250 151
3 250 242 151
3 242 244 151
3 250 249 242
3 151 244 144
3 253 252 251
3 253 251 247
3 247 251 246
3 251 153 246
3 153 154 246
3 246 154 146
3 256 255 254
3 258 257 254
3 258 254 255
3 258 250 257
3 250 158 257
3 250 150 158
3 252 259 251
3 259 261 260
3 259 260 159
3 251 259 159
3 153 251 159
3 159 260 262
3 263 159 262
3 160 159 263
3 254 264 161
3 263 254 161
3 160 263 161
3 256 254 263
3 163 264 162
3 264 257 162
3 264 254 257
3 162 257 158
3 261 265 260
3 260 265 262
3 264 164 161
3 164 264 163
3 266 166 167
3 266 167 267
3 167 268 267
3 167 168 268
3 168 169 268
3 268 169 269
3 271 270 171
3 171 270 170
3 171 166 266
3 272 171 266
3 271 171 272
3 274 273 173
3 273 272 173
3 266 173 272
3 173 266 172
3 267 172 266
3 172 267 273
3 273 275 172
3 274 275 273
3 273 267 272
3 169 172 269
3 269 172 275
3 277 276 176
3 176 276 175
3 176 170 270
3 176 270 277
3 279 278 178
3 279 178 179
3 173 178 274
3 274 178 278
3 281 280 182
3 182 280 181
3 182 175 276
3 182 276 281
3 283 282 185
3 283 185 183
3 179 185 279
3 279 185 282
3 285 284 188
3 188 284 187
3 188 181 280
3 188 280 285
3 287 286 191
3 287 191 189
3 183 191 283
3 283 191 286
3 290 289 288
3 284 290 288
3 193 284 288
3 187 284 193
3 292 291 196
3 292 196 197
3 189 196 287
3 287 196 291
3 295 294 293
3 295 293 289
3 289 293 288
3 293 200 288
3 200 201 288
3 193 288 201
3 298 297 296
3 298 292 297
3 292 202 297
3 292 197 202
3 301 300 299
3 301 299 294
3 294 299 293
3 299 207 293
3 207 208 293
3 200 293 208
3 304 303 302
3 303 304 296
3 303 296 297
3 213 303 297
3 212 213 297
3 212 297 202
3 307 306 305
3 307 305 300
3 300 305 299
3 305 217 299
3 217 218 299
3 299 218 207
3 302 303 308
3 302 308 309
3 220 308 213
3 213 308 303
3 310 224 225
3 226 310 225
3 305 306 229
3 306 228 229
3 306 311 228
3 305 229 217
3 314 313 312
3 312 313 309
3 312 309 308
3 231 312 308
3 233 231 308
3 235 233 315
3 233 308 315
3 220 236 315
3 220 315 308
3 236 224 315
3 224 310 315
3 237 238 315
3 237 315 310
3 237 310 226
3 318 317 316
3 311 318 316
3 240 311 316
3 228 311 240
3 321 320 319
3 319 320 314
3 319 314 312
3 241 319 312
3 243 241 312
3 243 312 231
3 315 245 235
3 245 315 238
3 324 323 322
3 324 322 317
3 317 322 316
3 322 247 316
3 247 248 316
3 240 316 248
3 327 326 325
3 326 327 321
3 319 326 321
3 328 326 319
3 249 329 241
3 329 319 241
3 329 328 319
3 250 329 249
3 322 323 253
3 323 252 253
3 323 330 252
3 322 253 247
3 325 326 331
3 325 331 332
3 256 331 255
3 331 328 255
3 331 326 328
3 255 328 258
3 258 328 329
3 258 329 250
3 330 333 252
3 252 333 259
3 335 334 261
3 259 335 261
3 333 335 259
3 334 335 332
3 334 332 331
3 262 334 331
3 263 262 331
3 263 331 256
3 334 265 261
3 265 334 262
3 337 336 268
3 268 336 267
3 268 269 337
3 337 269 338
3 339 270 271
3 339 271 340
3 271 341 340
3 271 272 341
3 275 274 342
3 343 342 274
3 336 272 267
3 272 336 341
3 269 275 338
3 338 275 342
3 344 276 277
3 345 344 277
3 345 277 270
3 346 345 270
3 339 346 270
3 348 347 279
3 347 346 279
3 339 279 346
3 279 339 278
3 340 278 339
3 278 340 347
3 347 349 278
3 348 349 347
3 347 340 346
3 274 278 343
3 343 278 349
3 351 350 281
3 281 350 280
3 281 276 344
3 352 281 344
3 351 281 352
3 354 353 283
3 353 352 283
3 344 283 352
3 283 344 282
3 345 282 344
3 282 345 353
3 353 355 282
3 354 355 353
3 353 345 352
3 279 282 348
3 348 282 355
3 356 284 285
3 357 356 285
3 280 357 285
3 350 357 280
3 359 358 286
3 359 286 287
3 283 286 354
3 354 286 358
3 361 360 290
3 290 360 289
3 290 284 356
3 362 290 356
3 361 290 362
3 364 363 292
3 363 362 292
3 356 292 362
3 292 356 291
3 357 291 356
3 291 357 363
3 363 365 291
3 364 365 363
3 363 357 362
3 287 291 359
3 359 291 365
3 367 366 295
3 295 366 294
3 295 289 360
3 295 360 367
3 369 368 298
3 369 298 296
3 292 298 364
3 364 298 368
3 371 370 301
3 301 370 300
3 301 294 366
3 301 366 371
3 373 372 304
3 373 304 302
3 296 304 369
3 369 304 372
3 375 374 307
3 307 374 306
3 307 300 370
3 307 370 375
3 378 377 376
3 377 373 376
3 373 309 376
3 373 302 309
3 381 380 379
3 374 381 379
3 311 374 379
3 306 374 311
3 384 383 382
3 382 383 378
3 382 378 376
3 314 382 376
3 313 314 376
3 313 376 309
3 387 386 385
3 387 385 380
3 380 385 379
3 385 317 379
3 317 318 379
3 379 318 311
3 384 382 320
3 321 384 320
3 388 384 321
3 320 382 314
3 385 386 324
3 386 323 324
3 386 389 323
3 385 324 317
3 391 390 327
3 391 327 325
3 321 327 388
3 388 327 390
3 389 330 323
3 392 330 389
3 395 394 393
3 394 391 393
3 391 332 393
3 391 325 332
3 392 396 330
3 330 396 333
3 393 335 395
3 335 396 395
3 335 333 396
3 335 393 332
3 398 397 337
3 337 397 336
3 400 399 338
3 399 337 338
3 399 398 337
3 400 401 399
3 403 402 341
3 341 402 340
3 397 404 336
3 397 342 404
3 342 397 405
3 403 405 397
3 405 403 343
3 404 343 403
3 403 341 404
3 404 341 336
3 342 343 404
3 405 406 342
3 342 406 338
3 406 407 338
3 407 400 338
3 400 407 401
3 409 408 346
3 346 408 345
3 349 348 410
3 411 410 348
3 402 346 340
3 346 402 409
3 343 349 405
3 349 412 405
3 349 410 412
3 405 412 406
3 413 350 351
3 413 351 414
3 351 415 414
3 351 352 415
3 355 354 416
3 417 416 354
3 408 352 345
3 352 408 415
3 348 355 411
3 411 355 416
3 419 418 413
3 418 350 413
3 418 357 350
3 421 420 359
3 420 419 359
3 413 359 419
3 359 413 358
3 414 358 413
3 358 414 420
3 420 422 358
3 421 422 420
3 420 414 419
3 354 358 417
3 417 358 422
3 423 360 361
3 423 361 424
3 361 425 424
3 361 362 425
3 418 426 357
3 418 365 426
3 365 418 427
3 425 427 418
3 427 425 364
3 426 364 425
3 425 362 426
3 426 362 357
3 365 364 426
3 427 428 365
3 428 359 365
3 428 421 359
3 429 366 367
3 430 429 367
3 430 367 360
3 431 430 360
3 423 431 360
3 368 369 432
3 423 424 431
3 432 433 368
3 368 433 364
3 433 434 364
3 434 427 364
3 427 434 428
3 436 435 371
3 371 435 370
3 371 366 429
3 437 371 429
3 436 371 437
3 372 373 438
3 429 430 437
3 438 439 372
3 372 439 369
3 439 440 369
3 440 432 369
3 432 440 433
3 442 441 375
3 375 441 374
3 375 370 435
3 375 435 442
3 444 443 377
3 444 377 378
3 373 377 438
3 377 445 438
3 377 443 445
3 438 445 439
3 447 446 381
3 381 446 380
3 381 374 441
3 381 441 447
3 449 448 383
3 449 383 384
3 378 383 444
3 444 383 448
3 451 450 387
3 387 450 386
3 387 380 446
3 387 446 451
3 388 449 384
3 388 452 449
3 450 389 386
3 453 389 450
3 455 454 390
3 455 390 391
3 388 390 452
3 452 390 454
3 453 392 389
3 456 392 453
3 458 457 394
3 458 394 395
3 391 394 455
3 455 394 457
3 456 459 392
3 392 459 396
3 395 396 458
3 458 396 459
3 460 397 398
3 460 398 461
3 398 462 461
3 398 399 462
3 399 401 462
3 462 401 463
3 464 402 403
3 465 464 403
3 465 403 397
3 466 465 397
3 460 466 397
3 468 467 406
3 467 466 406
3 460 406 466
3 406 460 407
3 461 407 460
3 407 461 467
3 467 469 407
3 468 469 467
3 467 461 466
3 401 407 463
3 463 407 469
3 471 470 409
3 409 470 408
3 410 411 472
3 402 464 409
3 473 409 464
3 409 473 471
3 464 465 473
3 475 472 474
3 472 475 410
3 412 410 475
3 406 412 468
3 468 412 475
3 477 476 415
3 415 476 414
3 470 478 408
3 470 416 478
3 416 470 479
3 477 479 470
3 479 477 417
3 478 417 477
3 477 415 478
3 478 415 408
3 416 417 478
3 479 480 416
3 416 480 411
3 480 481 411
3 481 472 411
3 472 481 474
3 483 482 419
3 419 482 418
3 476 484 414
3 476 422 484
3 422 476 485
3 483 485 476
3 485 483 421
3 484 421 483
3 483 419 484
3 484 419 414
3 422 421 484
3 485 486 422
3 422 486 417
3 486 487 417
3 487 479 417
3 479 487 480
3 488 424 425
3 489 488 425
3 418 489 425
3 482 489 418
3 491 490 485
3 421 491 485
3 428 491 421
3 485 490 486
3 492 430 431
3 493 492 431
3 493 431 424
3 494 493 424
3 488 494 424
3 496 495 433
3 495 494 433
3 488 433 494
3 433 488 434
3 489 434 488
3 434 489 495
3 495 497 434
3 496 497 495
3 495 489 494
3 428 434 491
3 491 434 497
3 498 435 436
3 437 499 436
3 436 499 498
3 500 499 437
3 500 437 430
3 501 500 430
3 492 501 430
3 503 502 439
3 502 501 439
3 492 439 501
3 439 492 440
3 493 440 492
3 440 493 502
3 502 504 440
3 503 504 502
3 502 493 501
3 433 440 496
3 496 440 504
3 505 441 442
3 506 505 442
3 506 442 435
3 507 506 435
3 498 507 435
3 507 509 508
3 507 510 509
3 510 507 444
3 498 444 507
3 444 498 443
3 509 443 498
3 498 499 509
3 509 499 508
3 510 443 509
3 499 500 508
3 512 510 511
3 510 512 443
3 445 443 512
3 439 445 503
3 503 445 512
3 514 513 447
3 447 513 446
3 447 441 505
3 515 447 505
3 514 447 515
3 448 449 516
3 505 506 515
3 516 517 448
3 448 517 444
3 517 518 444
3 518 510 444
3 510 518 511
3 519 450 451
3 520 519 451
3 446 520 451
3 513 520 446
3 522 521 516
3 449 522 516
3 452 522 449
3 516 521 517
3 524 523 519
3 523 450 519
3 523 453 450
3 524 519 520
3 526 525 454
3 526 454 455
3 452 454 522
3 522 454 525
3 523 456 453
3 527 456 523
3 458 528 457
3 528 529 457
3 529 455 457
3 529 526 455
3 527 530 456
3 456 530 459
3 458 459 528
3 459 531 528
3 459 530 531
3 528 531 529
3 533 532 462
3 462 532 461
3 462 463 533
3 533 463 534
3 536 535 466
3 466 535 465
3 469 468 537
3 538 537 468
3 532 466 461
3 466 532 536
3 463 469 534
3 534 469 537
3 539 470 471
3 539 471 540
3 471 541 540
3 471 473 541
3 475 474 542
3 543 542 474
3 535 473 465
3 473 535 541
3 468 475 538
3 538 475 542
3 544 476 477
3 545 544 477
3 545 477 470
3 546 545 470
3 539 546 470
3 548 547 480
3 547 546 480
3 539 480 546
3 480 539 481
3 540 481 539
3 481 540 547
3 547 549 481
3 548 549 547
3 547 540 546
3 474 481 543
3 543 481 549
3 550 482 483
3 551 550 483
3 551 483 476
3 552 551 476
3 544 552 476
3 554 553 486
3 553 552 486
3 544 486 552
3 486 544 487
3 545 487 544
3 487 545 553
3 553 555 487
3 554 555 553
3 553 545 552
3 480 487 548
3 548 487 555
3 557 556 550
3 556 482 550
3 556 489 482
3 559 558 491
3 558 557 491
3 550 491 557
3 491 550 490
3 551 490 550
3 490 551 558
3 558 560 490
3 559 560 558
3 558 551 557
3 486 490 554
3 554 490 560
3 561 493 494
3 562 497 496
3 489 561 494
3 561 489 563
3 556 563 489
3 562 564 497
3 564 491 497
3 564 559 491
3 565 500 501
3 561 567 566
3 568 566 567
3 566 568 565
3 566 565 503
3 501 503 565
3 503 501 504
3 493 504 501
3 504 493 561
3 504 561 566
3 561 504 566
3 504 561 496
3 562 496 561
3 563 562 561
3 562 563 569
3 567 569 563
3 569 567 570
3 566 570 567
3 561 566 567
3 562 569 564
3 571 506 507
3 508 572 507
3 507 572 571
3 565 574 573
3 575 573 574
3 573 575 572
3 573 572 511
3 508 511 572
3 511 508 512
3 500 512 508
3 512 500 565
3 512 565 573
3 565 512 573
3 512 565 503
3 566 503 565
3 568 566 565
3 566 568 576
3 574 576 568
3 576 574 577
3 573 577 574
3 565 573 574
3 566 576 570
3 578 513 514
3 578 514 579
3 514 580 579
3 514 515 580
3 515 506 571
3 581 515 571
3 580 515 581
3 581 583 582
3 581 584 583
3 584 581 517
3 571 517 581
3 517 571 518
3 583 518 571
3 571 572 583
3 583 572 582
3 584 518 583
3 572 518 584
3 518 572 511
3 573 511 572
3 575 573 572
3 573 575 585
3 582 585 575
3 585 582 586
3 584 586 582
3 572 584 582
3 573 585 577
3 588 587 578
3 587 513 578
3 587 520 513
3 588 578 579
3 522 589 521
3 589 590 521
3 521 590 517
3 590 591 517
3 591 584 517
3 584 591 586
3 592 523 524
3 593 592 524
3 520 593 524
3 587 593 520
3 526 594 525
3 594 595 525
3 525 595 522
3 595 596 522
3 596 589 522
3 589 596 590
3 598 597 592
3 597 523 592
3 597 527 523
3 598 592 593
3 600 599 594
3 526 600 594
3 529 600 526
3 594 599 595
3 597 601 527
3 527 601 530
3 530 602 531
3 601 602 530
3 529 531 600
3 600 531 602
3 603 532 533
3 534 603 533
3 604 535 536
3 536 532 604
3 532 603 604
3 537 538 604
3 537 604 603
3 537 603 534
3 606 605 541
3 541 605 540
3 541 535 606
3 604 606 535
3 606 604 607
3 542 607 604
3 607 542 543
3 542 604 538
3 608 545 546
3 549 548 609
3 608 609 548
3 609 608 605
3 546 605 608
3 605 546 540
3 543 549 607
3 607 549 609
3 610 551 552
3 608 612 611
3 613 611 612
3 611 613 610
3 611 610 554
3 552 554 610
3 554 552 555
3 545 555 552
3 555 545 608
3 555 608 611
3 612 608 614
3 608 548 614
3 555 611 614
3 555 614 548
3 615 556 557
3 610 617 616
3 618 616 617
3 616 618 615
3 616 615 559
3 557 559 615
3 559 557 560
3 551 560 557
3 560 551 610
3 560 610 616
3 610 560 616
3 560 610 554
3 611 554 610
3 613 611 610
3 611 613 619
3 617 619 613
3 619 617 620
3 616 620 617
3 610 616 617
3 611 619 614
3 622 621 615
3 621 556 615
3 621 563 556
3 618 622 615
3 624 616 623
3 559 623 616
3 623 559 564
3 616 624 620
3 626 625 567
3 567 625 568
3 569 570 627
3 628 627 570
3 621 567 563
3 567 621 626
3 564 569 623
3 623 569 627
3 630 629 574
3 574 629 575
3 625 631 568
3 625 576 631
3 576 625 632
3 630 632 625
3 632 630 577
3 631 577 630
3 630 574 631
3 631 574 568
3 576 577 631
3 632 633 576
3 633 570 576
3 633 628 570
3 634 579 580
3 581 635 580
3 580 635 634
3 635 581 636
3 581 637 636
3 581 582 637
3 629 638 575
3 629 585 638
3 585 629 639
3 637 639 629
3 639 637 586
3 638 586 637
3 637 582 638
3 638 582 575
3 585 586 638
3 639 640 585
3 585 640 577
3 640 641 577
3 641 632 577
3 632 641 633
3 642 587 588
3 643 642 588
3 643 588 579
3 644 643 579
3 634 644 579
3 644 634 635
3 644 635 645
3 647 646 590
3 646 645 590
3 635 590 645
3 590 635 591
3 636 591 635
3 591 636 646
3 646 648 591
3 647 648 646
3 646 636 645
3 586 591 639
3 591 649 639
3 591 648 649
3 639 649 640
3 651 650 642
3 650 587 642
3 650 593 587
3 651 642 643
3 653 652 596
3 653 596 595
3 590 596 647
3 647 596 652
3 655 654 598
3 598 654 597
3 650 656 593
3 656 657 593
3 658 593 657
3 593 658 598
3 659 598 658
3 598 659 656
3 656 655 598
3 650 655 656
3 656 659 657
3 599 600 658
3 657 599 658
3 660 599 657
3 595 599 653
3 653 599 660
3 654 661 597
3 597 661 601
3 658 602 659
3 602 661 659
3 602 601 661
3 602 658 600
3 662 605 606
3 607 662 606
3 662 609 605
3 609 662 607
3 663 613 612
3 614 663 612
3 664 618 617
3 617 613 664
3 613 663 664
3 619 620 664
3 619 664 663
3 619 663 614
3 665 621 622
3 622 618 665
3 618 664 665
3 624 623 665
3 624 665 664
3 624 664 620
3 666 625 626
3 626 621 666
3 621 665 666
3 627 628 666
3 627 666 665
3 627 665 623
3 667 629 630
3 625 666 630
3 666 667 630
3 666 668 667
3 633 668 628
3 628 668 666
3 669 636 637
3 629 667 637
3 667 669 637
3 667 670 669
3 640 670 641
3 670 668 641
3 670 667 668
3 641 668 633
3 671 643 644
3 645 672 644
3 644 672 671
3 645 636 672
3 636 669 672
3 648 647 672
3 648 672 669
3 648 669 649
3 649 669 670
3 649 670 640
3 673 650 651
3 643 671 651
3 671 673 651
3 671 674 673
3 653 674 652
3 674 672 652
3 674 671 672
3 652 672 647
3 675 654 655
3 655 650 675
3 650 673 675
3 657 659 675
3 657 675 673
3 657 673 660
3 660 673 674
3 660 674 653
3 675 661 654
3 661 675 659
