ply
format ascii 1.0
comment None
element vertex 654
property float x
property float y
property float z
element face 1432
property list uchar int vertex_indices
end_header
27.562 42.680 32.449
27.694 42.812 32.356
27.791 42.593 32.472
27.705 42.547 32.512
27.633 42.751 32.404
27.201 46.186 29.975
27.296 46.376 29.773
27.617 45.777 30.211
27.477 45.710 30.334
27.080 46.899 29.412
27.162 47.464 28.930
27.430 46.866 29.324
27.248 46.245 29.923
27.215 46.727 29.521
27.010 48.023 28.578
27.085 48.604 28.142
27.150 47.988 28.543
27.192 47.387 29.003
27.248 48.176 28.397
27.049 48.928 27.955
27.194 49.226 27.704
27.123 48.622 28.134
27.334 49.650 27.404
27.799 50.233 26.815
27.557 49.656 27.288
27.247 49.180 27.745
27.456 49.658 27.383
27.756 50.217 26.900
27.951 42.325 32.609
28.109 42.349 32.587
28.325 42.189 32.641
28.283 42.140 32.674
28.218 42.987 32.173
28.151 42.522 32.482
28.107 42.316 32.605
27.956 42.670 32.423
27.944 43.019 32.205
27.878 45.168 30.693
28.170 45.221 30.543
28.440 44.556 31.038
28.223 44.567 31.124
27.830 46.229 29.746
28.309 45.625 30.135
27.966 45.203 30.686
27.735 45.752 30.248
27.772 47.548 28.689
28.175 46.741 29.221
27.619 46.290 29.790
27.618 46.883 29.297
27.318 48.240 28.321
27.742 47.627 28.673
27.484 49.029 27.723
27.505 48.567 28.039
27.635 48.632 27.976
28.151 49.946 26.826
27.934 49.494 27.229
27.525 49.266 27.606
27.908 49.643 27.233
28.060 50.957 26.179
28.372 51.281 25.639
28.425 50.594 26.212
28.148 50.184 26.787
28.190 50.709 26.394
28.130 51.914 25.247
28.111 52.447 24.603
28.526 51.749 24.912
28.269 51.332 25.837
28.270 51.826 25.347
27.965 52.924 24.244
27.882 53.318 23.641
28.040 52.839 24.151
28.109 52.392 24.817
28.082 52.865 24.320
27.979 53.973 22.705
28.283 54.041 22.177
28.122 53.892 22.614
27.920 53.681 23.070
27.910 53.743 23.228
28.224 53.433 23.555
27.981 53.872 23.120
28.169 54.194 22.480
27.969 54.028 22.898
28.392 42.343 32.557
28.647 42.572 32.371
28.945 42.216 32.531
28.696 42.059 32.664
28.700 42.074 32.669
29.027 42.989 32.046
28.140 42.420 32.553
28.410 42.552 32.450
28.655 42.276 32.579
28.333 43.715 31.688
28.909 43.711 31.563
28.528 43.149 32.059
29.000 45.000 30.500
29.000 44.500 31.000
28.646 43.985 31.472
28.584 44.758 30.987
28.805 46.060 29.620
28.894 45.509 30.039
28.503 45.290 30.517
28.291 45.836 29.998
28.738 47.122 28.746
29.011 46.671 29.068
28.340 46.383 29.528
28.293 46.940 29.096
28.078 48.202 28.123
28.901 48.237 27.774
29.029 47.662 28.194
28.632 47.279 28.751
28.427 47.945 28.267
28.197 49.162 27.365
28.665 49.423 26.939
29.075 48.758 27.274
27.856 48.938 27.687
28.578 49.083 27.338
28.539 48.494 27.774
28.920 49.972 26.433
28.601 49.741 26.885
29.000 51.000 25.500
29.000 50.500 26.000
28.636 50.299 26.448
28.676 50.903 26.060
28.577 52.463 23.176
28.739 52.462 22.400
29.181 51.866 22.718
29.212 51.568 24.074
28.332 52.426 24.170
28.952 51.458 24.932
28.696 51.371 25.558
28.512 51.885 25.020
28.446 53.402 22.390
29.034 53.120 21.441
28.858 52.658 21.892
28.093 53.148 23.360
28.097 52.640 24.510
28.468 52.677 24.203
28.313 52.348 24.610
28.818 53.943 21.441
29.322 54.192 20.898
29.424 53.592 20.912
28.155 53.697 22.832
28.205 54.010 22.758
28.540 54.065 22.468
28.714 53.777 22.835
29.137 53.153 23.534
29.072 54.498 21.112
29.596 54.639 20.835
28.725 54.509 21.640
28.761 54.525 22.075
29.245 54.830 21.136
29.257 54.939 21.436
29.507 42.566 32.214
29.841 42.191 32.364
29.443 42.006 32.577
29.281 42.027 32.630
30.061 43.201 31.729
29.665 42.152 32.515
29.586 42.655 32.249
29.500 44.000 31.000
30.484 44.000 30.936
30.478 43.529 31.389
29.340 43.477 31.704
30.306 43.153 31.877
30.070 43.702 31.475
29.500 45.000 30.000
29.972 45.457 29.719
30.465 44.655 30.348
29.500 45.000 31.000
30.000 45.000 30.500
30.000 44.500 31.000
29.188 45.849 29.691
30.181 45.423 29.855
30.000 47.000 28.500
29.607 46.460 29.184
29.570 46.556 29.137
30.000 48.000 27.500
30.000 47.500 28.000
29.468 47.323 28.528
29.369 47.965 28.015
30.000 49.000 26.500
30.000 48.500 27.000
29.463 48.472 27.514
29.430 49.163 26.967
29.500 50.000 26.000
30.000 50.000 25.500
30.000 49.500 26.000
29.224 49.802 26.494
29.821 49.399 26.523
29.835 49.873 26.171
29.751 51.029 24.528
30.091 50.789 23.920
30.273 50.594 24.540
30.000 50.500 25.000
29.500 51.000 25.000
29.500 51.000 26.000
30.000 51.000 25.500
30.000 50.500 26.000
29.116 52.158 22.035
29.430 52.404 21.501
29.830 51.778 21.970
30.112 51.136 22.890
29.361 51.307 24.652
29.117 51.728 24.580
29.929 51.531 24.321
29.812 51.115 24.747
29.736 52.890 20.970
29.515 52.358 24.028
30.499 52.194 23.890
30.063 52.847 23.564
30.022 54.054 20.642
30.017 53.361 20.653
30.071 53.634 22.946
29.453 54.402 22.256
30.347 54.710 20.719
29.451 54.899 21.721
30.169 54.915 21.694
29.809 55.118 21.363
29.863 55.039 21.017
30.593 42.495 31.965
30.660 42.034 32.258
29.992 41.990 32.520
30.789 42.139 32.290
30.826 43.126 31.600
31.122 43.355 31.161
31.432 42.660 31.469
31.090 42.596 32.096
31.315 43.991 30.648
30.490 43.399 31.656
30.734 43.675 31.425
31.152 43.142 31.769
31.191 44.894 29.721
31.351 44.411 30.241
30.935 44.338 30.861
30.808 44.862 30.334
30.438 46.116 29.203
31.251 46.308 28.676
31.405 45.660 28.944
30.978 45.233 29.929
30.757 45.842 29.421
30.500 47.000 28.000
31.366 47.158 27.796
31.202 46.701 28.351
30.500 47.000 29.000
31.000 47.000 28.500
30.940 46.420 28.874
30.500 48.000 27.000
31.404 48.105 26.780
31.281 47.649 27.387
30.500 48.000 28.000
31.000 48.000 27.500
31.000 47.500 28.000
30.500 49.000 26.000
31.430 49.033 25.734
31.286 48.616 26.359
30.500 49.000 27.000
31.000 49.000 26.500
31.000 48.500 27.000
30.754 50.243 24.300
31.121 50.081 23.505
31.547 49.816 23.868
31.441 49.539 24.991
30.500 50.000 25.000
30.500 50.000 26.000
31.000 50.000 25.500
31.000 49.500 26.000
30.690 50.450 23.334
31.115 50.641 22.634
31.244 50.225 23.041
30.470 50.359 24.747
30.330 50.581 24.858
30.610 50.864 24.537
30.999 50.367 24.866
30.484 52.250 21.190
31.077 51.361 21.905
30.996 51.573 24.197
30.409 52.907 20.716
30.733 53.461 20.561
31.254 52.806 20.744
31.293 52.128 23.855
31.070 52.864 23.437
30.998 54.173 20.607
31.376 53.722 22.845
30.704 54.390 22.246
31.152 54.748 20.822
31.220 54.839 21.617
30.445 55.128 21.224
30.570 55.051 20.904
31.607 42.122 31.779
32.055 41.912 31.896
32.151 42.139 32.035
32.072 42.993 30.792
32.125 42.275 31.329
32.254 42.561 31.960
31.810 43.978 30.360
31.972 44.275 29.814
32.578 43.453 30.022
32.491 43.003 31.728
31.740 43.637 31.361
32.164 44.982 29.313
31.301 44.423 30.530
31.527 44.665 30.282
31.921 44.181 30.763
31.688 46.471 28.146
32.332 46.415 27.472
32.333 45.889 28.103
32.440 45.382 28.795
31.732 45.312 29.733
31.653 45.840 29.195
31.902 47.249 27.156
32.561 47.234 26.300
32.762 46.668 26.808
31.306 46.588 28.565
31.596 46.850 28.317
31.871 46.385 28.711
31.964 48.144 26.113
32.593 48.146 25.303
32.881 47.560 25.679
31.381 47.560 27.633
31.653 47.822 27.359
31.940 47.381 27.829
32.009 48.892 25.284
32.306 49.042 24.640
32.763 48.538 24.815
31.364 48.545 26.613
31.582 48.793 26.332
31.874 48.395 26.824
31.589 50.003 23.253
31.945 50.326 22.779
32.282 49.907 23.386
32.251 49.456 24.116
31.399 49.510 25.550
31.694 49.815 25.367
31.808 49.318 25.872
31.883 50.831 22.234
31.827 50.521 25.067
31.768 51.186 24.611
31.941 52.119 21.192
32.385 51.354 21.773
31.690 51.785 24.096
32.158 51.872 24.194
31.962 52.416 23.778
31.797 53.512 20.644
32.166 52.847 20.799
31.942 53.153 23.315
31.928 54.258 20.824
32.370 53.742 22.967
31.860 54.340 22.305
31.923 54.705 21.246
31.076 55.015 21.099
32.212 54.627 21.836
32.415 41.945 31.501
32.828 42.170 31.009
33.103 41.853 31.365
33.115 41.889 31.714
33.096 42.170 31.876
33.186 42.613 30.348
33.061 42.529 31.857
32.901 44.110 29.358
33.568 43.162 29.673
33.334 42.778 31.702
33.007 43.444 31.397
32.743 44.988 29.074
33.147 45.079 28.600
33.493 44.537 28.832
33.188 44.247 30.973
32.436 44.810 30.337
33.014 46.132 27.407
33.257 45.586 28.088
32.187 45.418 29.301
32.555 45.737 29.167
32.749 45.346 29.686
33.228 46.975 26.182
33.510 46.506 26.804
33.133 46.518 29.042
32.721 47.013 28.507
33.252 47.995 25.151
33.554 47.412 25.690
32.924 47.549 28.151
32.741 48.106 27.679
33.037 49.075 24.417
33.274 48.512 24.746
32.725 48.803 27.172
32.285 49.059 26.589
32.705 50.300 22.924
33.122 50.160 23.394
32.924 49.673 23.833
32.506 49.627 26.375
32.287 49.911 25.914
32.962 50.862 22.443
33.197 50.514 22.929
32.171 50.863 25.074
32.401 50.567 25.571
33.072 51.932 21.479
33.240 51.448 21.876
32.509 52.319 24.075
32.573 51.894 24.560
32.580 51.333 25.154
32.626 53.241 20.801
33.010 52.727 21.127
32.914 52.559 24.294
32.644 53.029 23.668
32.672 53.778 20.883
33.170 53.388 21.045
33.047 53.730 23.299
33.023 54.309 22.519
32.795 54.288 21.250
32.799 54.515 21.715
33.734 42.079 30.758
33.990 41.915 31.256
33.719 41.989 31.638
34.223 42.144 31.481
34.178 42.515 30.093
33.674 42.327 31.727
34.052 42.749 31.585
33.986 43.800 29.128
34.573 43.113 29.521
34.040 43.589 31.468
33.990 45.129 28.438
34.389 44.456 28.751
34.124 44.398 31.246
33.576 45.044 30.580
33.951 46.146 27.543
34.102 45.693 28.065
33.744 45.676 30.126
33.773 46.209 29.649
33.983 47.032 26.441
34.063 46.573 26.952
34.057 46.876 29.304
33.676 47.086 28.941
33.776 47.871 25.474
34.011 47.587 25.934
33.319 47.867 28.170
33.677 47.650 28.595
33.462 48.787 24.719
33.722 48.519 25.202
33.111 49.595 27.077
33.478 49.012 27.721
33.718 48.369 28.244
33.324 49.954 23.813
33.486 49.753 24.289
33.698 49.275 24.915
32.966 50.354 26.492
33.663 50.422 27.399
34.005 49.922 27.685
34.518 50.359 28.564
34.460 50.225 28.376
34.619 49.847 28.719
34.792 49.831 28.858
33.441 50.772 22.850
33.630 50.691 23.310
33.689 50.357 23.961
33.163 51.347 26.037
33.553 51.005 26.969
34.136 50.498 27.937
34.138 50.931 27.865
34.477 50.555 28.426
34.310 50.930 28.105
33.687 51.846 21.796
33.783 51.547 22.276
33.811 51.184 22.926
33.248 52.302 25.130
33.519 52.026 25.996
33.823 51.784 26.730
34.143 51.572 27.321
34.258 51.211 27.744
33.776 52.435 21.639
34.110 52.118 22.099
33.374 53.340 24.080
33.877 53.324 24.883
33.851 52.580 25.857
34.093 52.394 26.337
34.173 52.036 26.750
33.320 53.844 21.274
33.807 53.344 21.592
33.576 54.101 23.343
34.096 54.230 23.914
34.403 54.062 24.623
34.277 53.263 25.432
34.169 52.747 25.970
33.738 54.280 21.990
34.148 54.678 22.953
34.828 54.973 22.684
34.653 55.067 23.438
34.536 54.684 23.990
34.805 55.300 22.954
34.758 42.258 30.698
34.679 42.114 31.210
34.711 42.397 31.455
35.030 42.693 30.031
34.941 43.001 31.762
35.057 43.923 29.131
35.481 43.278 29.679
34.800 43.883 31.789
34.765 45.034 28.609
35.107 44.649 28.834
34.761 44.620 31.548
34.406 45.045 31.088
34.435 45.985 27.998
34.934 45.800 28.506
34.178 46.023 30.128
34.443 45.731 30.606
34.300 46.824 26.925
34.478 46.702 27.437
34.741 46.415 28.064
34.542 47.560 29.234
34.924 47.103 29.619
34.700 46.442 30.132
34.146 48.236 25.968
34.390 47.755 26.621
34.557 47.238 27.178
34.436 48.397 28.841
35.417 47.563 29.755
35.163 48.292 29.411
35.740 47.822 29.938
34.193 49.364 26.124
34.515 48.619 26.929
34.342 49.344 28.329
34.808 49.157 28.972
35.178 48.963 29.207
35.530 48.343 29.549
34.095 50.369 25.139
34.297 50.385 26.347
34.449 49.422 27.511
34.304 50.137 27.142
34.722 49.491 28.334
34.665 50.094 28.558
35.017 49.334 28.839
34.267 51.347 24.047
34.435 51.387 25.299
34.369 51.089 26.167
34.355 50.819 26.976
34.346 50.667 27.892
34.403 52.098 22.897
34.852 52.538 23.899
34.703 52.241 25.007
34.500 51.807 25.935
34.340 51.538 26.937
34.378 52.844 22.221
34.932 53.269 23.078
35.174 53.293 23.835
35.075 53.021 24.506
34.898 52.913 25.141
34.873 53.274 25.202
34.485 52.606 25.883
34.569 53.871 22.375
35.123 54.347 22.997
35.255 53.867 23.514
34.525 53.779 25.050
34.672 53.517 25.216
35.284 55.265 22.977
34.753 55.022 23.766
34.770 54.713 24.109
34.762 54.143 24.653
35.106 55.641 22.812
35.282 55.756 22.776
35.071 55.647 23.050
35.025 55.312 23.496
35.287 55.941 22.832
35.328 42.516 31.316
35.902 42.972 30.665
36.029 42.789 31.494
35.853 42.952 32.226
35.574 43.493 32.506
36.068 43.197 33.145
35.997 43.422 33.241
36.196 43.266 33.587
36.226 43.477 33.584
36.379 43.361 33.802
35.854 43.940 29.463
36.144 43.647 29.945
35.360 44.416 32.122
36.018 44.067 33.005
36.410 43.684 33.547
36.467 43.488 33.740
35.407 45.275 28.842
35.836 44.736 29.250
35.164 45.388 31.426
35.898 45.147 32.246
36.331 44.862 32.864
36.437 44.288 33.334
35.589 45.773 28.916
36.029 45.670 29.312
35.287 46.374 30.719
35.974 46.222 31.473
36.502 45.761 32.242
35.092 47.273 28.301
35.419 46.679 28.829
35.821 46.251 29.180
35.408 47.096 30.008
35.841 47.112 30.524
36.405 46.845 31.140
36.469 46.427 31.685
34.855 48.091 27.684
35.234 48.088 28.599
35.580 47.256 29.419
35.462 47.685 29.314
35.695 47.534 29.714
36.043 47.417 29.861
35.806 47.873 29.742
36.222 47.377 30.359
34.770 48.901 27.803
35.055 48.770 28.444
35.394 48.487 29.152
35.247 53.765 24.153
35.088 53.377 24.780
35.299 54.572 23.554
35.233 54.254 24.100
35.039 53.880 24.631
35.322 55.481 23.224
35.102 54.678 23.981
35.420 55.910 22.871
35.432 55.992 22.926
35.329 55.925 22.978
35.406 56.071 22.802
36.334 43.000 31.403
36.406 43.097 32.098
36.414 43.290 33.232
36.409 43.307 33.698
36.427 44.421 29.861
36.637 43.981 30.591
36.689 43.562 31.575
36.760 43.553 32.725
36.670 43.578 33.565
36.628 43.479 33.830
36.546 43.452 33.729
36.654 43.942 33.684
36.661 43.639 33.856
36.573 45.375 29.899
36.952 44.950 30.558
36.748 44.907 33.077
36.932 44.501 33.525
36.889 44.121 33.767
36.557 46.384 30.068
37.049 45.821 30.674
36.775 46.456 31.654
37.029 45.739 32.213
37.061 46.401 31.461
37.093 44.923 33.015
37.060 44.448 33.517
36.049 46.916 29.593
36.412 47.086 30.170
37.037 46.397 30.919
36.732 46.830 30.857
35.448 56.117 22.837
37.083 44.540 31.394
37.068 44.190 32.393
36.959 43.909 33.272
36.806 43.698 33.744
37.232 45.341 31.238
37.228 45.087 32.149
37.139 44.468 33.079
36.965 44.049 33.649
37.222 45.913 31.464
3 2 1 0
3 0 3 2
3 1 4 0
3 0 4 3
3 7 6 5
3 5 8 7
3 11 10 9
3 13 12 9
3 12 5 9
3 6 11 9
3 6 9 5
3 5 12 8
3 16 15 14
3 18 17 14
3 17 9 14
3 10 16 14
3 10 14 9
3 9 17 13
3 14 15 19
3 19 15 20
3 18 14 21
3 21 14 19
3 24 23 22
3 26 25 22
3 25 19 22
3 20 24 22
3 20 22 19
3 19 25 21
3 23 27 22
3 22 27 26
3 30 29 28
3 28 31 30
3 33 32 2
3 2 32 1
3 2 29 33
3 29 2 28
3 3 28 2
3 28 3 34
3 35 34 3
3 28 34 31
3 32 36 1
3 1 36 4
3 3 4 35
3 35 4 36
3 39 38 37
3 37 40 39
3 42 41 7
3 7 41 6
3 7 38 42
3 38 7 37
3 8 37 7
3 37 8 43
3 44 43 8
3 37 43 40
3 46 45 11
3 11 45 10
3 12 13 47
3 48 47 13
3 41 11 6
3 11 41 46
3 8 12 44
3 44 12 47
3 49 15 16
3 17 18 50
3 49 50 18
3 50 49 45
3 16 45 49
3 45 16 10
3 13 17 48
3 48 17 50
3 52 51 49
3 51 15 49
3 51 20 15
3 49 18 52
3 18 53 52
3 18 21 53
3 55 54 24
3 24 54 23
3 25 26 56
3 57 56 26
3 51 24 20
3 24 51 55
3 21 25 53
3 53 25 56
3 60 59 58
3 27 62 61
3 62 27 58
3 23 58 27
3 58 23 60
3 54 60 23
3 26 27 57
3 57 27 61
3 65 64 63
3 67 66 63
3 66 58 63
3 59 65 63
3 59 63 58
3 58 66 62
3 70 69 68
3 72 71 68
3 71 63 68
3 64 70 68
3 64 68 63
3 63 71 67
3 75 74 73
3 77 76 73
3 73 76 75
3 79 78 77
3 78 68 77
3 69 76 77
3 69 77 68
3 68 78 72
3 74 80 73
3 73 80 77
3 77 80 81
3 77 81 79
3 84 83 82
3 29 30 82
3 30 84 82
3 30 85 84
3 30 31 85
3 85 31 86
3 82 83 33
3 83 32 33
3 83 87 32
3 89 88 35
3 89 33 88
3 33 89 82
3 90 82 89
3 82 90 29
3 88 29 90
3 90 34 88
3 88 34 35
3 33 29 88
3 31 34 86
3 86 34 90
3 36 32 91
3 32 92 91
3 32 87 92
3 91 93 36
3 93 35 36
3 93 89 35
3 95 94 39
3 39 94 38
3 39 92 95
3 92 39 91
3 40 91 39
3 91 40 96
3 97 96 40
3 91 96 93
3 99 98 42
3 42 98 41
3 43 44 100
3 101 100 44
3 94 42 38
3 42 94 99
3 40 43 97
3 97 43 100
3 103 102 46
3 46 102 45
3 47 48 104
3 105 104 48
3 98 46 41
3 46 98 103
3 44 47 101
3 101 47 104
3 108 107 106
3 50 110 109
3 110 50 106
3 45 106 50
3 106 45 108
3 102 108 45
3 48 50 105
3 105 50 109
3 113 112 111
3 114 52 106
3 52 114 51
3 111 51 114
3 115 111 114
3 111 115 113
3 116 113 115
3 113 116 107
3 106 107 116
3 114 106 116
3 114 116 53
3 116 110 53
3 106 52 53
3 106 53 110
3 111 112 55
3 112 54 55
3 112 117 54
3 111 55 51
3 57 114 56
3 114 57 115
3 118 115 57
3 56 114 53
3 120 119 60
3 60 119 59
3 61 62 121
3 122 121 62
3 117 60 54
3 60 117 120
3 57 61 118
3 118 61 121
3 125 124 123
3 127 126 123
3 123 126 125
3 64 65 127
3 65 126 127
3 65 128 126
3 66 67 129
3 130 129 67
3 119 65 59
3 65 119 128
3 62 66 122
3 122 66 129
3 133 132 131
3 133 131 124
3 131 123 124
3 131 134 123
3 134 69 70
3 127 134 70
3 123 134 127
3 136 135 72
3 136 70 135
3 70 136 127
3 137 127 136
3 127 137 64
3 135 64 137
3 137 71 135
3 135 71 72
3 70 64 135
3 67 71 130
3 130 71 137
3 140 139 138
3 140 138 132
3 132 138 131
3 138 74 131
3 74 75 131
3 76 141 75
3 141 142 75
3 143 75 142
3 75 143 131
3 144 131 143
3 131 144 141
3 141 134 131
3 76 134 141
3 141 144 142
3 76 69 134
3 79 142 78
3 144 78 142
3 78 144 145
3 72 78 136
3 136 78 145
3 138 139 146
3 146 139 147
3 148 80 74
3 138 148 74
3 146 148 138
3 149 143 142
3 80 149 142
3 81 80 142
3 149 80 148
3 81 142 79
3 147 150 146
3 146 150 148
3 148 150 151
3 148 151 149
3 153 152 84
3 84 152 83
3 154 84 85
3 154 153 84
3 85 86 154
3 154 86 155
3 152 87 83
3 156 87 152
3 158 157 90
3 158 90 89
3 86 90 155
3 155 90 157
3 161 160 159
3 164 163 162
3 161 159 156
3 92 156 159
3 156 92 87
3 163 158 162
3 158 93 162
3 158 89 93
3 167 166 165
3 168 95 159
3 95 168 94
3 165 94 168
3 169 165 168
3 165 169 167
3 170 167 169
3 167 170 160
3 159 160 170
3 168 159 170
3 168 170 159
3 164 159 170
3 159 164 162
3 159 162 92
3 96 92 162
3 92 96 95
3 97 95 96
3 95 97 168
3 95 168 159
3 96 162 93
3 172 171 166
3 171 98 166
3 99 165 166
3 99 166 98
3 171 172 165
3 169 165 172
3 165 169 168
3 165 168 94
3 100 94 168
3 94 100 99
3 101 99 100
3 99 101 171
3 99 171 165
3 100 168 97
3 174 173 103
3 103 173 102
3 103 98 174
3 171 174 98
3 174 171 175
3 104 175 171
3 175 104 105
3 104 171 101
3 177 176 108
3 108 176 107
3 109 110 178
3 179 178 110
3 173 108 102
3 108 173 177
3 105 109 175
3 175 109 178
3 181 180 113
3 113 180 112
3 116 115 182
3 183 182 115
3 176 113 107
3 113 176 181
3 110 116 179
3 179 116 182
3 186 185 184
3 189 188 187
3 186 184 180
3 117 180 184
3 180 117 112
3 188 183 187
3 183 118 187
3 183 115 118
3 192 191 190
3 194 193 190
3 190 193 192
3 195 120 184
3 120 195 119
3 194 119 195
3 196 194 195
3 194 196 193
3 197 193 196
3 193 197 185
3 184 185 197
3 195 184 197
3 195 197 184
3 189 184 197
3 184 189 187
3 184 187 117
3 121 117 187
3 117 121 120
3 122 120 121
3 120 122 195
3 120 195 184
3 121 187 118
3 200 199 198
3 124 125 198
3 125 200 198
3 125 201 200
3 126 190 191
3 201 126 191
3 125 126 201
3 128 202 126
3 202 203 126
3 204 126 203
3 126 204 190
3 205 190 204
3 190 205 202
3 202 194 190
3 128 194 202
3 202 205 203
3 203 205 194
3 196 194 205
3 194 196 195
3 194 195 119
3 129 119 195
3 119 129 128
3 130 128 129
3 128 130 203
3 128 203 194
3 129 195 122
3 198 199 133
3 199 132 133
3 199 206 132
3 198 133 124
3 209 208 207
3 207 208 204
3 207 204 203
3 136 207 203
3 137 136 203
3 137 203 130
3 211 210 140
3 140 210 139
3 140 132 206
3 140 206 211
3 213 212 144
3 213 144 143
3 207 145 209
3 145 212 209
3 145 144 212
3 145 207 136
3 210 147 139
3 214 147 210
3 217 216 215
3 216 213 215
3 213 149 215
3 213 143 149
3 214 218 147
3 147 218 150
3 215 151 217
3 151 218 217
3 151 150 218
3 151 215 149
3 220 219 153
3 153 219 152
3 222 220 221
3 220 154 221
3 220 153 154
3 155 221 154
3 225 224 223
3 219 225 223
3 156 219 223
3 152 219 156
3 222 221 157
3 158 222 157
3 226 222 158
3 157 221 155
3 223 224 161
3 224 160 161
3 224 227 160
3 229 228 164
3 229 161 228
3 161 229 223
3 230 223 229
3 223 230 156
3 228 156 230
3 230 163 228
3 228 163 164
3 161 156 228
3 158 163 226
3 226 163 230
3 232 231 167
3 167 231 166
3 170 169 233
3 234 233 169
3 227 167 160
3 167 227 232
3 164 170 229
3 229 170 233
3 237 236 235
3 172 239 238
3 239 172 235
3 166 235 172
3 235 166 237
3 231 237 166
3 169 172 234
3 234 172 238
3 242 241 240
3 243 174 235
3 174 243 173
3 240 173 243
3 244 240 243
3 240 244 242
3 245 242 244
3 242 245 236
3 235 236 245
3 243 235 245
3 243 245 175
3 245 239 175
3 235 174 175
3 235 175 239
3 248 247 246
3 249 177 240
3 177 249 176
3 246 176 249
3 250 246 249
3 246 250 248
3 251 248 250
3 248 251 241
3 240 241 251
3 249 240 251
3 249 251 240
3 244 240 251
3 240 244 243
3 240 243 173
3 178 173 243
3 173 178 177
3 179 177 178
3 177 179 249
3 177 249 240
3 178 243 175
3 254 253 252
3 255 181 246
3 181 255 180
3 252 180 255
3 256 252 255
3 252 256 254
3 257 254 256
3 254 257 247
3 246 247 257
3 255 246 257
3 255 257 246
3 250 246 257
3 246 250 249
3 246 249 176
3 182 176 249
3 176 182 181
3 183 181 182
3 181 183 255
3 181 255 246
3 182 249 179
3 260 259 258
3 262 261 258
3 258 261 260
3 263 186 252
3 186 263 185
3 262 185 263
3 264 262 263
3 262 264 261
3 265 261 264
3 261 265 253
3 252 253 265
3 263 252 265
3 263 265 252
3 256 252 265
3 252 256 255
3 252 255 180
3 188 180 255
3 180 188 186
3 189 186 188
3 186 189 263
3 186 263 252
3 188 255 183
3 268 267 266
3 268 266 259
3 259 266 258
3 266 191 258
3 191 192 258
3 193 269 192
3 269 270 192
3 271 192 270
3 192 271 258
3 272 258 271
3 258 272 269
3 269 262 258
3 193 262 269
3 269 272 270
3 270 272 262
3 264 262 272
3 262 264 263
3 262 263 185
3 197 185 263
3 185 197 193
3 196 193 197
3 193 196 270
3 193 270 262
3 197 263 189
3 274 273 200
3 200 273 199
3 201 266 267
3 274 201 267
3 200 201 274
3 266 201 191
3 271 270 205
3 204 271 205
3 275 271 204
3 205 270 196
3 278 277 276
3 273 278 276
3 206 273 276
3 199 273 206
3 280 279 208
3 280 208 209
3 204 208 275
3 275 208 279
3 276 277 211
3 277 210 211
3 277 281 210
3 276 211 206
3 283 282 212
3 283 212 213
3 209 212 280
3 280 212 282
3 281 214 210
3 284 214 281
3 286 285 216
3 286 216 217
3 213 216 283
3 283 216 285
3 284 287 214
3 214 287 218
3 217 218 286
3 286 218 287
3 289 288 220
3 220 288 219
3 220 222 289
3 289 222 290
3 292 291 225
3 225 291 224
3 225 219 288
3 225 288 292
3 226 290 222
3 226 293 290
3 296 295 294
3 291 296 294
3 227 291 294
3 224 291 227
3 298 297 230
3 298 230 229
3 226 230 293
3 293 230 297
3 294 295 232
3 295 231 232
3 295 299 231
3 301 300 234
3 301 232 300
3 232 301 294
3 302 294 301
3 294 302 227
3 300 227 302
3 302 233 300
3 300 233 234
3 232 227 300
3 229 233 298
3 298 233 302
3 305 304 303
3 236 237 303
3 237 305 303
3 237 306 305
3 238 239 307
3 308 307 239
3 299 237 231
3 237 299 306
3 234 238 301
3 301 238 307
3 311 310 309
3 311 309 304
3 304 309 303
3 309 241 303
3 241 242 303
3 313 312 244
3 313 242 312
3 242 313 303
3 314 303 313
3 303 314 236
3 312 236 314
3 314 245 312
3 312 245 244
3 242 236 312
3 239 245 308
3 308 245 314
3 317 316 315
3 317 315 310
3 310 315 309
3 315 247 309
3 247 248 309
3 319 318 250
3 319 248 318
3 248 319 309
3 320 309 319
3 309 320 241
3 318 241 320
3 320 251 318
3 318 251 250
3 248 241 318
3 244 251 313
3 313 251 320
3 323 322 321
3 323 321 316
3 316 321 315
3 321 253 315
3 253 254 315
3 325 324 256
3 325 254 324
3 254 325 315
3 326 315 325
3 315 326 247
3 324 247 326
3 326 257 324
3 324 257 256
3 254 247 324
3 250 257 319
3 319 257 326
3 329 328 327
3 259 260 327
3 260 329 327
3 260 330 329
3 261 321 322
3 330 261 322
3 260 261 330
3 332 331 264
3 332 261 331
3 261 332 321
3 333 321 332
3 321 333 253
3 331 253 333
3 333 265 331
3 331 265 264
3 261 253 331
3 256 265 325
3 325 265 333
3 327 328 268
3 328 267 268
3 328 334 267
3 327 268 259
3 336 335 272
3 336 272 271
3 264 272 332
3 332 272 335
3 338 337 274
3 274 337 273
3 274 267 334
3 274 334 338
3 341 340 339
3 340 336 339
3 336 275 339
3 336 271 275
3 343 342 278
3 278 342 277
3 278 273 337
3 278 337 343
3 341 339 279
3 280 341 279
3 344 341 280
3 279 339 275
3 342 281 277
3 345 281 342
3 347 346 282
3 347 282 283
3 280 282 344
3 344 282 346
3 349 284 348
3 284 345 348
3 284 281 345
3 285 286 349
3 348 285 349
3 350 285 348
3 283 285 347
3 347 285 350
3 349 287 284
3 287 349 286
3 353 352 351
3 288 289 351
3 289 353 351
3 289 354 353
3 289 290 354
3 354 290 355
3 351 352 292
3 352 291 292
3 352 356 291
3 351 292 288
3 293 355 290
3 293 357 355
3 359 358 296
3 296 358 295
3 296 291 356
3 296 356 359
3 361 360 297
3 361 297 298
3 293 297 357
3 357 297 360
3 364 363 362
3 358 364 362
3 299 358 362
3 295 358 299
3 366 365 302
3 366 302 301
3 298 302 361
3 361 302 365
3 368 367 305
3 305 367 304
3 306 362 363
3 368 306 363
3 305 306 368
3 370 369 308
3 370 306 369
3 306 370 362
3 371 362 370
3 362 371 299
3 369 299 371
3 371 307 369
3 369 307 308
3 306 299 369
3 301 307 366
3 366 307 371
3 373 372 311
3 311 372 310
3 311 304 367
3 311 367 373
3 375 374 314
3 375 314 313
3 308 314 370
3 370 314 374
3 377 376 317
3 317 376 316
3 317 310 372
3 317 372 377
3 379 378 320
3 379 320 319
3 313 320 375
3 375 320 378
3 381 380 323
3 323 380 322
3 323 316 376
3 323 376 381
3 383 382 326
3 383 326 325
3 319 326 379
3 379 326 382
3 384 328 329
3 384 329 385
3 329 386 385
3 329 330 386
3 330 322 380
3 330 380 386
3 388 387 333
3 388 333 332
3 325 333 383
3 383 333 387
3 390 389 384
3 389 328 384
3 389 334 328
3 390 384 385
3 336 391 335
3 391 392 335
3 392 332 335
3 392 388 332
3 394 393 338
3 338 393 337
3 338 334 389
3 338 389 394
3 341 395 340
3 395 396 340
3 340 396 336
3 396 397 336
3 397 391 336
3 391 397 392
3 398 342 343
3 399 398 343
3 337 399 343
3 393 399 337
3 401 400 395
3 341 401 395
3 344 401 341
3 395 400 396
3 403 402 398
3 402 342 398
3 402 345 342
3 403 398 399
3 405 404 346
3 405 346 347
3 344 346 401
3 401 346 404
3 402 406 345
3 345 406 348
3 348 407 350
3 406 407 348
3 347 350 405
3 405 350 407
3 409 408 353
3 353 408 352
3 411 409 410
3 409 354 410
3 409 353 354
3 355 410 354
3 408 356 352
3 412 356 408
3 411 410 413
3 411 413 414
3 357 413 355
3 355 413 410
3 416 415 359
3 359 415 358
3 359 356 412
3 359 412 416
3 414 413 360
3 361 414 360
3 417 414 361
3 360 413 357
3 419 418 364
3 364 418 363
3 364 358 415
3 364 415 419
3 421 420 365
3 421 365 366
3 361 365 417
3 417 365 420
3 423 422 368
3 368 422 367
3 368 363 418
3 368 418 423
3 425 424 371
3 425 371 370
3 366 371 421
3 421 371 424
3 427 426 373
3 373 426 372
3 373 367 422
3 373 422 427
3 429 428 374
3 429 374 375
3 370 374 425
3 425 374 428
3 431 430 377
3 377 430 376
3 377 372 426
3 377 426 431
3 379 432 378
3 432 433 378
3 433 375 378
3 433 429 375
3 434 380 381
3 435 434 381
3 376 435 381
3 430 435 376
3 383 436 382
3 436 437 382
3 382 437 379
3 437 438 379
3 438 432 379
3 432 438 433
3 439 385 386
3 440 439 386
3 440 386 380
3 441 440 380
3 434 441 380
3 387 388 442
3 434 435 441
3 436 383 387
3 442 436 387
3 443 436 442
3 437 436 444
3 444 436 443
3 447 446 445
3 445 448 447
3 449 389 390
3 450 449 390
3 450 390 385
3 451 450 385
3 439 451 385
3 451 439 440
3 392 452 442
3 392 442 388
3 442 453 443
3 442 452 453
3 444 443 454
3 443 455 454
3 443 453 455
3 457 456 455
3 456 445 455
3 446 454 455
3 446 455 445
3 445 456 448
3 458 393 394
3 459 458 394
3 459 394 389
3 460 459 389
3 449 460 389
3 460 449 450
3 396 461 397
3 452 392 397
3 461 452 397
3 462 452 461
3 452 463 453
3 452 462 463
3 465 455 464
3 455 463 464
3 455 453 463
3 455 465 457
3 467 466 458
3 466 393 458
3 466 399 393
3 467 458 459
3 401 468 400
3 461 396 400
3 468 461 400
3 469 461 468
3 461 470 462
3 461 469 470
3 472 463 471
3 463 470 471
3 463 462 470
3 463 472 464
3 473 402 403
3 474 473 403
3 399 474 403
3 466 474 399
3 405 475 404
3 468 401 404
3 475 468 404
3 476 468 475
3 478 469 477
3 469 476 477
3 469 468 476
3 469 478 470
3 470 478 479
3 470 479 471
3 473 406 402
3 474 480 473
3 480 406 473
3 480 407 406
3 407 480 405
3 480 481 405
3 481 475 405
3 481 480 482
3 484 476 483
3 476 481 483
3 476 475 481
3 476 484 477
3 482 485 481
3 481 485 483
3 487 486 409
3 409 486 408
3 409 411 487
3 487 411 488
3 486 412 408
3 489 412 486
3 414 488 411
3 414 490 488
3 492 491 416
3 416 491 415
3 416 412 489
3 416 489 492
3 417 490 414
3 417 493 490
3 495 494 419
3 419 494 418
3 419 415 491
3 419 491 495
3 497 496 420
3 497 420 421
3 417 420 493
3 493 420 496
3 498 422 423
3 499 498 423
3 418 499 423
3 494 499 418
3 425 500 424
3 500 501 424
3 501 421 424
3 501 497 421
3 502 426 427
3 503 502 427
3 503 427 422
3 504 503 422
3 498 504 422
3 428 429 505
3 498 499 504
3 505 506 428
3 428 506 425
3 506 507 425
3 507 500 425
3 500 507 501
3 508 430 431
3 509 508 431
3 509 431 426
3 510 509 426
3 502 510 426
3 510 502 503
3 433 511 505
3 433 505 429
3 506 505 512
3 505 513 512
3 505 511 513
3 513 514 512
3 515 435 508
3 508 435 430
3 508 509 516
3 508 516 515
3 437 517 438
3 511 433 438
3 517 511 438
3 518 511 517
3 520 513 519
3 513 518 519
3 513 511 518
3 513 520 514
3 521 440 441
3 435 515 441
3 515 521 441
3 515 522 521
3 515 516 523
3 524 515 523
3 522 515 524
3 523 525 517
3 444 523 517
3 437 444 517
3 524 523 444
3 527 526 525
3 446 525 526
3 525 446 517
3 447 517 446
3 517 447 518
3 526 527 448
3 527 519 448
3 518 447 448
3 518 448 519
3 528 450 451
3 440 521 451
3 521 528 451
3 521 529 528
3 530 521 522
3 529 521 530
3 531 522 524
3 530 522 531
3 454 532 444
3 532 524 444
3 532 531 524
3 454 446 532
3 446 526 532
3 456 457 532
3 456 532 526
3 456 526 448
3 533 459 460
3 450 528 460
3 528 533 460
3 528 534 533
3 535 528 529
3 534 528 535
3 536 529 530
3 535 529 536
3 537 530 531
3 536 530 537
3 464 537 465
3 537 532 465
3 537 531 532
3 465 532 457
3 538 466 467
3 459 533 467
3 533 538 467
3 533 539 538
3 534 541 540
3 539 534 540
3 533 534 539
3 541 534 535
3 541 535 542
3 544 543 542
3 535 544 542
3 536 544 535
3 471 544 472
3 544 537 472
3 544 536 537
3 472 537 464
3 545 474 538
3 538 474 466
3 539 547 546
3 545 539 546
3 538 539 545
3 547 539 540
3 477 548 478
3 549 543 544
3 478 549 544
3 479 478 544
3 549 478 548
3 479 544 471
3 545 480 474
3 482 480 545
3 546 482 545
3 550 482 546
3 483 551 484
3 551 552 484
3 484 552 477
3 552 553 477
3 553 548 477
3 548 553 549
3 485 482 554
3 482 555 554
3 482 550 555
3 554 556 485
3 485 556 483
3 556 557 483
3 557 551 483
3 551 557 552
3 555 558 554
3 554 558 556
3 559 486 487
3 488 559 487
3 561 560 559
3 560 486 559
3 560 489 486
3 488 490 559
3 490 562 559
3 562 561 559
3 562 490 563
3 565 564 563
3 563 564 562
3 567 566 565
3 565 566 564
3 567 568 566
3 570 569 492
3 492 569 491
3 492 489 560
3 492 560 570
3 493 571 563
3 493 563 490
3 563 572 565
3 563 571 572
3 574 567 573
3 567 572 573
3 567 565 572
3 567 574 568
3 575 494 495
3 576 575 495
3 491 576 495
3 569 576 491
3 497 577 496
3 571 493 496
3 577 571 496
3 578 571 577
3 580 572 579
3 572 578 579
3 572 571 578
3 572 580 573
3 581 499 575
3 575 499 494
3 575 576 582
3 575 582 581
3 501 583 577
3 501 577 497
3 577 584 578
3 577 583 584
3 579 578 585
3 585 578 584
3 586 503 504
3 587 586 504
3 587 504 499
3 588 587 499
3 581 588 499
3 507 506 589
3 581 582 588
3 583 501 507
3 589 583 507
3 590 583 589
3 592 584 591
3 584 590 591
3 584 583 590
3 584 592 585
3 593 509 510
3 503 586 510
3 586 593 510
3 586 594 593
3 586 587 595
3 596 586 595
3 594 586 596
3 598 597 595
3 597 589 595
3 506 595 589
3 595 506 596
3 512 596 506
3 596 512 597
3 597 599 596
3 598 599 597
3 597 512 589
3 600 599 598
3 599 600 514
3 590 514 600
3 514 590 512
3 589 512 590
3 590 600 591
3 601 516 593
3 593 516 509
3 602 593 594
3 601 593 602
3 603 594 596
3 602 594 603
3 519 603 520
3 603 599 520
3 603 596 599
3 520 599 514
3 601 523 516
3 523 601 525
3 525 601 602
3 525 602 527
3 527 602 603
3 527 603 519
3 604 540 541
3 542 605 541
3 541 605 604
3 543 605 542
3 606 546 547
3 540 604 547
3 604 606 547
3 604 607 606
3 608 604 605
3 607 604 608
3 549 608 543
3 543 608 605
3 609 550 606
3 606 550 546
3 610 606 607
3 609 606 610
3 552 610 553
3 610 608 553
3 610 607 608
3 553 608 549
3 612 611 609
3 611 550 609
3 611 555 550
3 556 613 557
3 613 609 557
3 609 610 557
3 613 612 609
3 557 610 552
3 611 614 555
3 555 614 558
3 556 558 613
3 613 558 614
3 615 560 561
3 562 616 561
3 561 616 615
3 564 617 562
3 562 617 616
3 566 618 564
3 564 618 617
3 568 618 566
3 619 569 570
3 620 619 570
3 620 570 560
3 621 620 560
3 615 621 560
3 621 615 616
3 621 616 622
3 622 616 617
3 622 617 623
3 623 625 624
3 623 626 625
3 626 623 573
3 617 573 623
3 573 617 574
3 625 574 617
3 617 618 625
3 625 618 624
3 626 574 625
3 624 618 627
3 618 568 627
3 574 626 627
3 574 627 568
3 628 576 619
3 619 576 569
3 619 620 629
3 619 629 628
3 579 630 580
3 626 573 580
3 630 626 580
3 631 626 630
3 627 626 632
3 632 626 631
3 633 582 628
3 628 582 576
3 628 629 634
3 628 634 633
3 637 636 635
3 636 638 630
3 585 636 630
3 579 585 630
3 635 636 585
3 630 638 631
3 631 638 639
3 631 639 632
3 640 587 588
3 582 633 588
3 633 640 588
3 633 641 640
3 633 634 642
3 643 633 642
3 641 633 643
3 643 642 637
3 643 637 635
3 591 643 635
3 592 591 635
3 592 635 585
3 640 595 587
3 595 640 598
3 598 640 641
3 598 641 600
3 600 641 643
3 600 643 591
3 644 611 612
3 613 644 612
3 644 614 611
3 614 644 613
3 645 620 621
3 622 646 621
3 621 646 645
3 623 647 622
3 622 647 646
3 624 648 623
3 623 648 647
3 627 648 624
3 649 629 645
3 645 629 620
3 650 645 646
3 649 645 650
3 651 646 647
3 650 646 651
3 652 647 648
3 651 647 652
3 632 652 627
3 627 652 648
3 653 634 649
3 649 634 629
3 637 653 636
3 653 650 636
3 653 649 650
3 636 650 638
3 638 650 651
3 638 651 639
3 639 651 652
3 639 652 632
3 653 642 634
3 642 653 637
