ply
format ascii 1.0
comment None
element vertex 629
property float x
property float y
property float z
element face 1358
property list uchar int vertex_indices
end_header
12.595 43.018 35.996
12.753 43.229 35.722
12.721 42.750 36.143
12.644 42.715 36.261
12.705 43.212 35.823
11.764 46.420 38.923
12.005 46.527 38.549
12.125 46.050 38.907
11.948 45.955 39.370
11.828 46.333 39.434
12.212 45.755 40.048
11.952 46.868 38.534
12.458 47.218 38.256
12.446 46.893 38.228
11.793 46.785 38.951
11.937 46.714 39.362
12.317 46.349 40.008
12.206 47.172 38.606
12.074 47.025 39.022
12.933 41.426 36.983
12.973 41.640 36.739
13.220 41.147 37.015
13.324 40.922 37.442
12.767 42.076 36.629
13.003 42.259 36.446
12.967 41.611 37.044
13.064 43.108 35.721
12.970 42.687 36.168
12.923 42.254 36.687
12.818 42.842 36.200
12.923 43.528 35.367
13.404 43.671 34.946
13.142 43.450 35.312
12.997 43.259 35.773
12.950 43.518 35.438
13.104 44.158 42.992
13.266 44.154 42.835
13.190 43.867 43.229
13.320 43.794 43.349
13.191 43.686 35.102
12.742 45.031 40.871
12.832 44.881 40.348
13.259 44.613 40.818
13.349 44.435 42.035
13.048 44.798 42.143
13.250 44.264 42.940
13.275 44.681 42.535
12.558 46.379 38.420
12.789 45.832 38.797
12.646 45.342 39.638
12.650 45.627 40.930
13.108 45.585 41.509
13.532 45.267 42.006
13.232 47.339 37.965
13.252 46.818 38.054
12.909 46.720 39.979
12.427 46.918 39.439
13.105 46.214 40.751
13.054 47.499 38.279
12.704 47.274 38.872
14.031 39.407 38.916
14.165 39.315 38.821
14.337 39.076 39.203
14.429 39.136 39.352
13.861 39.949 38.215
14.196 39.928 37.937
14.530 39.525 38.495
13.940 39.968 38.644
14.219 39.539 39.090
13.483 41.522 36.596
13.921 40.558 37.317
13.692 40.645 38.065
14.108 40.557 38.498
14.440 40.110 38.940
13.346 42.487 36.086
13.910 42.532 35.586
14.111 41.854 36.046
14.113 41.225 38.088
13.456 41.556 37.402
13.489 43.148 35.398
13.771 43.455 34.908
14.222 42.961 35.095
12.992 42.566 36.415
13.252 42.861 36.169
13.543 42.418 36.735
13.539 43.489 43.365
13.959 43.478 43.002
14.123 43.107 43.388
13.818 43.024 43.682
13.682 43.125 43.720
13.976 42.964 43.809
14.154 43.756 34.535
13.113 43.440 35.479
13.366 43.578 35.196
13.709 43.372 35.556
13.638 44.010 42.696
13.995 44.116 42.071
14.336 43.750 42.456
13.912 43.330 43.650
13.618 43.849 43.329
13.796 43.789 34.760
13.142 44.779 40.105
13.476 44.883 39.607
14.010 44.533 40.261
14.044 44.345 41.327
13.330 44.397 42.698
13.619 44.633 42.476
13.749 44.225 42.894
13.528 46.195 38.362
13.708 45.403 38.929
13.845 46.297 40.927
13.545 45.889 41.389
14.303 45.859 41.424
14.174 45.213 42.046
13.948 47.189 37.823
14.317 46.738 37.996
13.780 46.746 40.187
13.271 47.111 39.414
13.693 47.674 37.921
14.272 47.550 37.767
13.835 47.700 38.123
13.732 47.468 38.668
14.223 47.737 37.893
14.655 39.104 39.159
14.984 38.911 39.575
15.157 39.057 39.500
14.842 38.979 39.632
15.215 38.839 39.793
14.826 40.033 37.741
15.282 39.656 38.371
15.324 39.306 39.144
14.841 39.452 39.421
15.198 39.019 39.729
14.387 41.068 36.606
14.740 40.528 37.081
15.261 40.388 39.161
14.828 41.018 38.632
14.670 42.268 35.508
15.165 41.496 36.103
14.753 41.672 38.168
14.283 41.970 37.623
14.690 43.521 34.522
15.137 42.826 35.008
14.985 42.673 37.271
14.285 43.033 36.384
14.652 43.303 42.886
15.024 42.949 43.342
14.407 42.860 43.703
14.683 42.905 43.830
14.813 43.885 34.205
15.392 44.100 34.009
15.272 43.933 34.103
14.246 43.748 34.817
15.070 43.674 34.959
15.047 43.840 34.457
14.930 43.415 35.887
14.952 44.169 41.775
15.237 43.639 42.240
15.009 43.214 43.692
14.365 43.737 43.341
14.932 43.954 34.339
14.324 44.761 39.349
15.228 44.414 39.862
15.064 44.413 41.077
14.927 44.233 42.706
14.424 44.745 42.336
15.042 46.118 38.392
14.718 45.155 38.793
15.370 46.115 40.906
14.541 46.490 40.614
15.094 45.350 41.670
14.875 47.192 37.768
15.490 46.784 38.041
14.516 46.830 40.051
14.354 47.102 39.370
15.265 47.419 37.758
14.502 47.361 38.695
14.549 47.560 38.217
14.754 47.628 37.856
15.511 39.128 39.539
16.179 39.292 39.261
15.877 38.935 39.677
15.574 38.814 39.822
15.841 38.965 39.876
15.880 40.078 37.886
16.055 39.683 38.579
15.256 39.222 39.560
15.778 39.765 39.531
15.638 39.188 39.729
15.166 40.863 36.683
15.583 40.493 37.205
16.095 40.780 39.287
15.882 41.306 38.933
15.660 42.123 35.535
16.211 41.608 36.045
16.007 41.053 36.622
15.115 42.183 37.926
15.583 41.857 38.429
15.484 43.465 34.608
16.296 42.702 35.192
16.190 43.043 37.413
15.521 43.225 36.651
15.988 42.532 37.993
15.711 43.242 42.782
16.264 42.892 43.333
15.494 42.743 43.722
15.909 42.784 43.876
16.143 44.283 33.875
15.832 43.904 34.220
15.172 43.744 34.391
15.409 43.835 34.502
15.870 43.812 34.966
16.208 43.562 35.949
15.749 43.952 41.558
16.290 43.609 42.116
16.208 43.124 43.661
15.436 43.663 43.281
16.163 44.273 34.036
16.022 44.019 34.505
15.158 44.724 39.071
15.585 45.193 38.615
16.127 44.589 39.167
16.242 44.252 39.919
15.909 44.162 40.746
15.538 44.335 41.437
15.731 44.429 42.085
15.144 44.630 41.904
15.852 44.877 41.608
15.871 44.053 42.773
16.077 45.884 38.224
16.048 46.655 39.449
15.276 46.697 39.935
16.477 46.264 40.351
16.270 45.646 41.199
16.016 47.107 37.709
16.478 46.580 37.836
15.863 46.480 38.191
16.047 46.628 38.722
15.301 46.968 38.679
16.034 46.900 38.260
16.231 47.192 37.861
15.381 47.355 38.044
16.409 39.092 39.564
16.486 39.017 39.710
16.216 38.918 39.853
16.808 39.221 39.885
16.655 40.143 38.104
17.055 39.924 38.660
17.116 39.441 39.409
16.229 39.562 39.776
16.555 39.419 39.875
16.898 40.739 37.406
17.263 40.407 38.042
16.638 41.431 39.159
16.968 40.959 39.475
17.079 40.133 39.778
16.490 42.054 35.691
16.899 41.775 36.059
16.901 41.373 36.536
17.235 41.725 39.210
16.911 42.178 38.728
16.638 43.451 34.682
17.446 42.919 35.349
17.294 42.219 35.865
16.486 43.337 36.923
16.959 43.224 37.462
16.950 42.899 37.993
17.095 43.330 42.789
17.398 42.886 43.328
17.142 42.555 43.843
17.281 42.569 44.006
16.758 44.331 33.915
17.083 44.059 34.240
17.615 43.553 36.082
16.838 43.840 35.171
17.369 43.372 37.030
16.673 43.902 41.355
17.389 43.692 42.206
17.354 43.075 43.533
16.484 43.626 43.137
16.761 44.532 33.783
17.264 44.641 33.762
17.091 44.524 33.936
17.237 44.232 34.439
16.576 45.191 38.537
17.236 44.672 39.048
17.087 44.328 39.739
16.960 44.115 40.534
16.702 44.701 41.956
17.096 45.169 41.535
16.834 44.162 42.497
17.433 44.693 33.790
17.053 46.024 38.177
17.647 46.126 40.263
16.876 46.487 39.527
17.428 45.707 40.950
16.814 47.025 37.550
17.385 47.157 37.422
17.331 46.857 37.477
17.357 46.441 37.814
16.963 46.637 38.719
16.830 46.874 38.144
16.998 47.203 37.620
17.038 47.076 37.868
16.841 39.135 39.767
18.048 40.161 38.912
18.236 39.909 39.426
17.582 39.516 39.723
17.886 39.911 39.912
17.600 40.702 37.839
17.896 40.538 38.278
18.192 40.554 39.913
18.008 41.068 39.725
17.424 41.743 36.361
17.725 41.435 36.946
18.150 41.084 37.717
17.596 42.066 39.127
17.874 41.731 39.408
17.979 42.244 44.197
18.514 42.269 44.085
18.619 42.092 44.267
18.343 42.182 44.269
17.895 43.668 34.864
18.361 43.080 35.613
18.272 42.510 36.092
18.108 41.964 36.560
17.508 43.162 37.773
17.783 42.847 38.360
18.174 42.391 39.041
18.048 43.218 42.902
18.495 42.640 43.606
18.150 42.485 44.038
17.726 44.580 33.933
17.904 44.292 34.256
18.661 43.419 36.021
18.249 43.763 35.286
18.383 43.329 37.010
18.173 43.173 37.825
17.768 43.966 41.360
18.359 43.665 42.235
17.768 43.536 42.614
17.793 43.383 43.026
17.263 43.604 42.834
17.838 43.829 42.588
18.307 42.869 43.635
18.185 44.852 33.829
18.473 44.355 34.497
18.113 44.657 34.057
17.600 45.276 38.432
18.289 44.714 39.149
17.960 44.440 39.698
18.121 44.295 40.557
17.835 44.558 42.027
18.187 45.096 41.369
18.154 44.830 33.855
17.577 46.078 38.070
17.915 46.155 37.674
18.183 45.656 37.951
18.462 46.059 40.179
17.784 46.385 39.530
18.533 45.535 40.770
18.063 47.113 37.276
18.160 46.634 37.336
17.230 46.534 38.240
17.467 46.719 38.081
17.802 46.489 38.630
17.918 47.277 37.478
17.721 47.143 37.811
18.799 40.379 39.127
19.189 40.349 39.579
18.555 39.960 39.762
19.152 40.320 40.035
18.998 40.928 38.581
19.379 40.709 39.189
18.790 41.121 39.927
19.158 40.765 40.128
18.617 41.682 37.262
19.002 41.455 37.869
19.458 41.407 40.091
19.047 41.957 39.709
19.107 42.178 44.008
19.062 42.067 44.212
18.901 42.171 44.227
18.468 43.466 35.442
18.942 43.310 35.713
19.256 42.796 36.302
19.145 42.210 36.972
19.040 42.692 39.158
18.636 42.923 38.566
19.093 43.285 42.777
19.529 42.551 43.275
18.969 42.363 43.892
19.027 42.298 44.082
18.646 42.419 44.010
18.950 42.636 43.761
18.335 44.616 34.116
18.636 44.389 34.427
18.853 43.740 35.202
18.917 43.536 35.584
19.388 43.842 35.280
19.531 43.390 36.010
19.301 43.275 36.958
19.084 43.185 37.976
19.044 44.107 41.565
19.232 43.697 42.309
18.814 43.361 43.064
18.790 44.012 42.414
18.777 44.923 33.969
18.847 44.790 34.120
18.708 44.629 34.235
18.963 44.799 34.141
19.272 44.524 34.506
18.654 45.102 38.481
19.338 44.715 39.217
19.175 44.465 40.268
18.833 44.735 41.034
19.455 44.898 40.872
19.089 44.448 41.760
19.094 44.959 34.042
18.635 46.091 37.474
19.131 45.556 37.877
19.390 45.702 40.395
18.750 46.286 39.622
19.013 47.050 37.031
19.233 46.581 37.051
19.092 46.637 38.922
18.358 46.941 38.239
18.867 47.304 37.271
18.685 47.254 37.725
19.211 40.235 39.861
19.659 41.000 39.081
20.102 41.034 39.666
19.890 40.647 40.094
20.138 40.914 40.456
19.355 41.843 37.632
19.698 41.624 38.253
20.023 41.391 38.968
19.792 41.794 40.138
20.387 41.563 40.506
19.751 42.215 43.703
19.451 42.116 44.104
19.411 42.210 44.094
19.824 43.306 35.956
20.165 42.903 36.635
20.108 42.565 37.151
20.151 42.158 37.886
19.298 43.027 38.800
19.856 43.018 39.498
20.159 42.335 40.192
19.759 43.372 42.265
20.670 42.919 41.543
20.517 42.367 42.307
20.177 42.335 43.101
19.544 42.500 43.795
19.496 42.944 43.383
19.660 44.474 34.689
19.713 43.771 35.375
19.361 43.507 35.585
19.857 43.541 35.709
20.316 43.395 36.171
20.234 43.251 36.780
19.902 43.327 37.799
19.721 43.237 38.602
19.943 43.994 41.250
20.395 43.996 40.706
20.748 43.482 41.237
19.264 43.649 42.633
19.605 43.865 42.317
19.732 43.398 42.781
19.453 45.057 34.094
19.590 44.911 34.272
19.169 44.691 34.303
19.580 44.764 34.374
20.182 44.430 34.921
20.367 43.921 35.506
19.718 45.087 38.479
20.152 44.747 39.038
20.206 44.437 39.915
19.979 44.473 41.310
20.086 45.044 40.773
20.035 44.190 41.890
19.778 45.133 34.179
20.128 44.957 34.476
19.601 46.069 37.314
20.332 45.585 37.806
20.349 45.521 40.313
19.824 46.146 39.702
20.203 46.948 36.693
20.080 46.481 36.881
20.300 46.546 38.818
19.461 47.032 38.213
19.800 47.266 36.956
19.909 47.266 37.430
20.534 41.129 40.409
20.746 41.130 40.717
20.879 41.320 40.735
20.819 41.318 41.014
21.262 41.572 41.327
20.438 41.887 38.678
21.002 41.910 39.643
20.870 41.495 40.471
20.632 41.253 40.708
20.828 41.763 41.127
21.033 41.798 41.695
19.891 42.327 43.716
20.301 43.147 36.427
20.624 43.130 36.727
20.828 42.903 37.232
20.973 42.646 37.888
21.081 42.352 38.686
20.558 43.200 40.425
21.092 42.522 40.729
21.192 42.377 41.026
21.288 43.096 41.357
20.979 42.110 42.246
20.661 42.418 42.824
20.152 42.845 43.184
20.217 44.155 35.151
20.523 43.939 35.561
20.612 43.433 36.269
20.608 43.317 36.487
20.935 43.816 36.199
20.819 43.421 36.779
20.631 43.582 37.549
20.363 43.674 38.733
20.433 43.964 40.060
20.501 44.161 39.315
21.149 43.288 41.118
20.377 43.285 42.751
20.454 43.685 42.273
20.125 45.170 34.301
20.685 45.096 34.687
20.668 44.526 35.074
20.668 44.305 35.243
20.997 44.861 35.105
20.951 44.272 35.562
20.884 45.091 38.515
20.656 44.569 38.967
20.375 44.555 40.759
20.720 44.754 40.543
20.632 44.346 40.924
20.716 44.123 41.583
20.824 45.301 34.667
20.461 46.119 37.130
20.994 46.467 36.564
21.307 45.870 37.338
21.280 45.404 38.120
20.935 45.316 40.254
20.859 45.783 39.638
21.254 46.957 36.256
21.054 47.000 37.349
20.395 46.987 37.998
21.102 46.559 38.071
21.131 46.109 38.751
21.042 47.202 36.645
21.407 41.634 40.970
21.435 42.079 40.684
21.798 42.050 40.998
21.392 42.078 41.955
21.758 41.943 41.471
21.921 42.022 41.210
21.874 42.333 41.738
21.275 43.377 37.176
21.598 43.169 37.797
21.744 42.906 38.569
21.784 42.671 39.437
21.775 42.538 40.528
22.028 42.361 41.041
21.724 42.358 40.931
21.553 42.860 41.099
21.525 42.742 42.030
20.839 43.090 42.527
21.352 44.165 36.175
21.392 44.122 37.036
22.048 43.915 37.484
22.015 44.347 36.778
22.229 43.522 38.406
20.932 44.059 38.051
22.229 43.202 39.134
20.778 44.240 38.677
22.057 44.310 40.533
21.433 44.197 41.040
22.049 43.705 40.978
21.656 43.481 41.297
21.814 43.151 41.436
21.306 43.466 41.695
21.579 45.194 35.232
21.595 44.871 35.969
22.184 44.859 36.269
22.199 45.291 35.752
21.655 45.399 37.183
21.327 44.883 38.133
22.038 44.967 39.371
21.564 44.967 40.116
22.227 44.573 39.930
21.799 45.738 35.109
21.647 45.707 35.399
22.293 45.704 35.481
21.584 45.860 36.320
21.597 45.529 37.766
21.590 45.900 38.037
21.795 46.301 37.296
22.009 45.633 37.721
21.677 45.416 38.266
21.895 45.153 38.503
21.508 45.448 38.873
22.148 46.313 35.403
21.798 46.546 35.838
22.300 46.741 35.632
21.741 46.992 36.752
21.917 47.039 35.990
22.008 47.103 36.269
22.087 42.363 41.381
22.273 43.179 39.940
22.184 42.990 40.938
22.024 42.707 41.569
22.525 44.811 37.058
22.521 44.285 38.173
22.490 43.775 39.184
22.387 43.892 40.150
22.613 45.653 36.191
22.712 45.433 36.938
22.520 45.143 37.765
22.437 44.558 39.062
22.483 46.306 35.588
22.642 46.404 36.125
22.524 45.966 36.888
22.430 46.853 35.911
22.327 46.720 36.471
3 2 1 0
3 0 3 2
3 1 4 0
3 0 4 3
3 7 6 5
3 9 8 5
3 5 8 7
3 9 10 8
3 13 12 11
3 13 11 6
3 11 5 6
3 11 14 5
3 16 9 15
3 9 14 15
3 9 5 14
3 9 16 10
3 12 17 11
3 11 17 14
3 14 17 18
3 14 18 15
3 21 20 19
3 19 22 21
3 19 20 23
3 23 20 24
3 22 19 25
3 25 19 23
3 27 26 2
3 2 26 1
3 2 24 27
3 24 2 23
3 3 23 2
3 23 3 28
3 29 28 3
3 23 28 25
3 32 31 30
3 4 34 33
3 34 4 30
3 1 30 4
3 30 1 32
3 26 32 1
3 3 4 29
3 29 4 33
3 37 36 35
3 35 38 37
3 31 39 30
3 30 39 34
3 42 41 40
3 44 43 40
3 40 43 42
3 46 45 44
3 45 35 44
3 36 43 44
3 36 44 35
3 35 45 38
3 48 47 7
3 7 47 6
3 49 7 8
3 49 48 7
3 50 40 10
3 40 49 10
3 49 8 10
3 40 41 49
3 52 44 51
3 44 50 51
3 44 40 50
3 44 52 46
3 54 53 13
3 13 53 12
3 13 6 47
3 13 47 54
3 56 55 16
3 56 16 15
3 10 16 50
3 16 57 50
3 16 55 57
3 50 57 51
3 53 58 12
3 12 58 17
3 17 59 18
3 58 59 17
3 15 18 56
3 56 18 59
3 62 61 60
3 60 63 62
3 66 65 64
3 66 64 61
3 64 60 61
3 64 67 60
3 63 60 68
3 68 60 67
3 70 69 21
3 21 69 20
3 71 64 22
3 64 70 22
3 70 21 22
3 64 65 70
3 73 67 72
3 67 71 72
3 67 64 71
3 67 73 68
3 76 75 74
3 69 76 74
3 24 69 74
3 20 69 24
3 78 77 71
3 22 78 71
3 25 78 22
3 71 77 72
3 81 80 79
3 81 79 75
3 75 79 74
3 79 26 74
3 26 27 74
3 83 82 29
3 83 27 82
3 27 83 74
3 84 74 83
3 74 84 24
3 82 24 84
3 84 28 82
3 82 28 29
3 27 24 82
3 25 28 78
3 78 28 84
3 87 86 85
3 89 88 85
3 85 88 87
3 89 90 88
3 79 80 32
3 80 31 32
3 80 91 31
3 93 92 34
3 93 32 92
3 32 93 79
3 94 79 93
3 79 94 26
3 92 26 94
3 94 33 92
3 92 33 34
3 32 26 92
3 29 33 83
3 83 33 94
3 97 96 95
3 97 95 86
3 86 95 85
3 95 36 85
3 36 37 85
3 89 85 98
3 85 38 98
3 38 99 98
3 38 85 37
3 89 98 90
3 91 100 31
3 31 100 39
3 34 39 93
3 93 39 100
3 103 102 101
3 41 42 101
3 42 103 101
3 42 104 103
3 43 95 96
3 104 43 96
3 42 43 104
3 106 105 46
3 106 43 105
3 43 106 95
3 107 95 106
3 95 107 36
3 105 36 107
3 107 45 105
3 105 45 46
3 43 36 105
3 38 45 99
3 99 45 107
3 109 108 48
3 48 108 47
3 49 101 102
3 109 49 102
3 48 49 109
3 41 101 49
3 112 111 110
3 52 51 111
3 112 52 111
3 113 52 112
3 46 52 106
3 106 52 113
3 115 114 54
3 54 114 53
3 54 47 108
3 54 108 115
3 117 116 55
3 117 55 56
3 111 57 110
3 57 116 110
3 57 55 116
3 57 111 51
3 58 53 118
3 53 119 118
3 53 114 119
3 58 118 120
3 121 58 120
3 59 58 121
3 56 59 117
3 117 59 121
3 119 122 118
3 118 122 120
3 123 61 62
3 125 123 124
3 123 62 124
3 63 126 124
3 63 124 62
3 126 127 124
3 129 128 66
3 66 128 65
3 66 61 123
3 130 66 123
3 129 66 130
3 125 130 123
3 132 126 131
3 63 131 126
3 131 63 68
3 126 132 127
3 134 133 70
3 70 133 69
3 70 65 128
3 70 128 134
3 136 135 73
3 136 73 72
3 68 73 131
3 131 73 135
3 138 137 76
3 76 137 75
3 76 69 133
3 76 133 138
3 140 139 77
3 140 77 78
3 72 77 136
3 136 77 139
3 142 141 81
3 81 141 80
3 81 75 137
3 81 137 142
3 144 143 84
3 144 84 83
3 78 84 140
3 140 84 143
3 146 145 87
3 87 145 86
3 147 87 88
3 147 146 87
3 88 90 147
3 147 90 148
3 151 150 149
3 154 153 152
3 151 149 141
3 91 141 149
3 141 91 80
3 94 93 152
3 153 94 152
3 155 94 153
3 83 94 144
3 144 94 155
3 157 156 97
3 97 156 96
3 97 86 145
3 97 145 157
3 159 158 98
3 159 98 99
3 90 98 148
3 148 98 158
3 150 160 149
3 154 152 160
3 152 100 160
3 91 149 160
3 91 160 100
3 100 152 93
3 162 161 103
3 103 161 102
3 163 103 104
3 163 162 103
3 104 96 156
3 104 156 163
3 165 164 107
3 165 107 106
3 99 107 159
3 159 107 164
3 167 166 109
3 109 166 108
3 109 102 161
3 109 161 167
3 169 168 112
3 169 112 110
3 112 170 113
3 168 170 112
3 106 113 165
3 165 113 170
3 172 171 115
3 115 171 114
3 115 108 166
3 115 166 172
3 174 173 116
3 174 116 117
3 110 116 169
3 169 116 173
3 171 119 114
3 175 119 171
3 177 176 121
3 177 121 120
3 117 121 174
3 174 121 176
3 175 178 119
3 119 178 122
3 120 122 177
3 177 122 178
3 181 180 179
3 125 124 179
3 124 181 179
3 124 182 181
3 124 127 182
3 182 127 183
3 185 184 129
3 129 184 128
3 130 179 180
3 185 130 180
3 129 130 185
3 187 186 131
3 187 130 186
3 130 187 179
3 188 179 187
3 179 188 125
3 186 125 188
3 188 132 186
3 186 132 131
3 130 125 186
3 127 132 183
3 183 132 188
3 189 133 134
3 190 189 134
3 128 190 134
3 184 190 128
3 192 191 135
3 192 135 136
3 131 135 187
3 187 135 191
3 194 193 138
3 138 193 137
3 138 133 189
3 195 138 189
3 194 138 195
3 139 140 196
3 189 190 195
3 196 197 139
3 197 136 139
3 197 192 136
3 199 198 142
3 142 198 141
3 142 137 193
3 142 193 199
3 201 200 143
3 201 143 144
3 140 143 196
3 143 202 196
3 143 200 202
3 196 202 197
3 204 203 146
3 146 203 145
3 205 146 147
3 205 204 146
3 147 148 205
3 205 148 206
3 208 207 151
3 151 207 150
3 198 209 141
3 198 153 209
3 153 198 210
3 208 210 198
3 210 208 154
3 209 154 208
3 208 151 209
3 209 151 141
3 153 154 209
3 153 210 211
3 212 153 211
3 155 153 212
3 144 155 201
3 201 155 212
3 214 213 157
3 157 213 156
3 157 145 203
3 157 203 214
3 216 215 158
3 216 158 159
3 148 158 206
3 206 158 215
3 207 217 150
3 150 217 160
3 154 160 210
3 160 218 210
3 160 217 218
3 210 218 211
3 221 220 219
3 161 162 219
3 162 221 219
3 162 222 221
3 223 162 163
3 223 222 162
3 213 224 156
3 224 225 156
3 226 156 225
3 156 226 163
3 227 163 226
3 163 227 224
3 224 223 163
3 213 223 224
3 224 227 225
3 164 165 226
3 225 164 226
3 228 164 225
3 159 164 216
3 216 164 228
3 219 220 167
3 220 166 167
3 220 229 166
3 161 219 167
3 232 231 230
3 168 169 231
3 232 168 231
3 233 168 232
3 226 170 227
3 170 233 227
3 170 168 233
3 170 226 165
3 235 234 172
3 172 234 171
3 229 236 166
3 236 237 166
3 238 166 237
3 166 238 172
3 239 172 238
3 172 239 236
3 236 235 172
3 229 235 236
3 236 239 237
3 238 237 230
3 238 230 231
3 174 238 231
3 173 174 231
3 173 231 169
3 241 175 240
3 175 234 240
3 175 171 234
3 241 240 239
3 241 239 238
3 177 241 238
3 176 177 238
3 176 238 174
3 241 178 175
3 178 241 177
3 242 180 181
3 242 181 243
3 181 244 243
3 181 182 244
3 182 183 244
3 244 183 245
3 246 184 185
3 247 246 185
3 247 185 180
3 248 247 180
3 242 248 180
3 188 187 249
3 242 243 248
3 249 250 188
3 250 183 188
3 250 245 183
3 252 251 246
3 251 184 246
3 251 190 184
3 191 192 253
3 246 247 252
3 253 254 191
3 191 254 187
3 254 255 187
3 255 249 187
3 249 255 250
3 256 193 194
3 256 194 257
3 194 258 257
3 194 195 258
3 195 190 251
3 195 251 258
3 260 259 253
3 192 260 253
3 197 260 192
3 253 259 254
3 262 261 199
3 199 261 198
3 199 193 256
3 263 199 256
3 262 199 263
3 200 201 264
3 256 257 263
3 200 264 265
3 266 200 265
3 202 200 266
3 197 202 260
3 260 202 266
3 268 267 204
3 204 267 203
3 269 204 205
3 269 268 204
3 205 206 269
3 269 206 270
3 272 271 208
3 208 271 207
3 208 198 261
3 208 261 272
3 274 273 212
3 274 212 211
3 201 212 264
3 212 275 264
3 212 273 275
3 264 275 265
3 277 276 214
3 214 276 213
3 214 203 267
3 214 267 277
3 279 278 215
3 279 215 216
3 206 215 270
3 270 215 278
3 217 207 280
3 207 281 280
3 207 271 281
3 217 280 282
3 283 217 282
3 218 217 283
3 211 218 274
3 274 218 283
3 285 284 221
3 221 284 220
3 286 221 222
3 286 285 221
3 287 222 223
3 287 286 222
3 225 227 288
3 289 288 227
3 276 223 213
3 223 276 287
3 225 290 228
3 288 290 225
3 216 228 279
3 279 228 290
3 281 291 280
3 280 291 282
3 284 229 220
3 292 229 284
3 294 293 232
3 294 232 230
3 232 295 233
3 293 295 232
3 227 233 289
3 289 233 295
3 298 297 296
3 234 235 296
3 235 298 296
3 235 299 298
3 237 239 300
3 301 300 239
3 292 235 229
3 235 292 299
3 230 237 294
3 294 237 300
3 297 302 296
3 296 302 234
3 302 240 234
3 302 303 240
3 239 240 301
3 301 240 303
3 304 243 244
3 245 304 244
3 306 305 248
3 248 305 247
3 248 243 304
3 307 248 304
3 306 248 307
3 304 245 307
3 245 308 307
3 245 250 308
3 309 251 252
3 310 309 252
3 247 310 252
3 305 310 247
3 312 311 255
3 312 255 254
3 250 255 308
3 308 255 311
3 313 257 258
3 314 313 258
3 314 258 251
3 315 314 251
3 309 315 251
3 259 260 316
3 309 310 315
3 316 317 259
3 317 254 259
3 317 312 254
3 320 319 318
3 318 321 320
3 323 322 262
3 262 322 261
3 324 262 263
3 324 323 262
3 263 257 313
3 325 263 313
3 324 263 325
3 266 265 326
3 313 314 325
3 326 327 266
3 266 327 260
3 327 328 260
3 328 316 260
3 316 328 317
3 330 329 268
3 268 329 267
3 269 318 319
3 330 269 319
3 268 269 330
3 269 270 318
3 270 321 318
3 270 331 321
3 333 332 272
3 272 332 271
3 272 261 322
3 272 322 333
3 335 334 273
3 335 273 274
3 273 336 275
3 334 336 273
3 265 275 326
3 275 337 326
3 275 336 337
3 326 337 327
3 339 338 277
3 277 338 276
3 329 340 267
3 340 341 267
3 342 267 341
3 267 342 277
3 343 277 342
3 277 343 340
3 340 339 277
3 329 339 340
3 340 343 341
3 278 279 342
3 341 278 342
3 344 278 341
3 270 278 331
3 331 278 344
3 332 281 271
3 345 281 332
3 347 346 283
3 347 283 282
3 274 283 335
3 335 283 346
3 349 348 285
3 285 348 284
3 350 285 286
3 350 349 285
3 351 286 287
3 351 350 286
3 288 289 352
3 353 352 289
3 338 287 276
3 287 338 351
3 342 290 343
3 290 352 343
3 290 288 352
3 290 342 279
3 345 354 281
3 281 354 291
3 282 291 347
3 347 291 354
3 357 356 355
3 348 357 355
3 292 348 355
3 284 348 292
3 359 358 293
3 359 293 294
3 293 360 295
3 358 360 293
3 289 295 353
3 353 295 360
3 362 361 298
3 298 361 297
3 299 355 356
3 362 299 356
3 298 299 362
3 364 363 301
3 364 299 363
3 299 364 355
3 365 355 364
3 355 365 292
3 363 292 365
3 365 300 363
3 363 300 301
3 299 292 363
3 294 300 359
3 359 300 365
3 361 366 297
3 297 366 302
3 302 367 303
3 366 367 302
3 301 303 364
3 364 303 367
3 368 305 306
3 368 306 369
3 306 370 369
3 306 307 370
3 307 308 370
3 370 308 371
3 373 372 368
3 372 305 368
3 372 310 305
3 311 312 374
3 368 369 373
3 374 375 311
3 375 308 311
3 375 371 308
3 377 376 315
3 315 376 314
3 315 310 372
3 315 372 377
3 379 378 374
3 312 379 374
3 317 379 312
3 374 378 375
3 381 380 320
3 320 380 319
3 320 321 381
3 381 321 382
3 383 322 323
3 383 323 384
3 323 385 384
3 323 324 385
3 386 324 325
3 386 385 324
3 325 314 376
3 325 376 386
3 388 387 328
3 388 328 327
3 317 328 379
3 379 328 387
3 390 389 330
3 330 389 329
3 380 391 319
3 391 392 319
3 393 319 392
3 319 393 330
3 394 330 393
3 330 394 391
3 391 390 330
3 380 390 391
3 391 394 392
3 392 382 393
3 382 331 393
3 382 321 331
3 395 332 333
3 396 395 333
3 396 333 322
3 397 396 322
3 383 397 322
3 399 398 335
3 398 397 335
3 383 335 397
3 335 383 334
3 384 334 383
3 334 384 398
3 398 400 334
3 399 400 398
3 398 384 397
3 334 401 336
3 400 401 334
3 336 402 337
3 401 402 336
3 327 337 388
3 388 337 402
3 404 403 339
3 339 403 338
3 341 343 405
3 406 405 343
3 389 339 329
3 339 389 404
3 393 344 394
3 344 405 394
3 344 341 405
3 344 393 331
3 408 407 395
3 407 332 395
3 407 345 332
3 410 409 347
3 409 408 347
3 395 347 408
3 347 395 346
3 396 346 395
3 346 396 409
3 409 411 346
3 410 411 409
3 409 396 408
3 335 346 399
3 399 346 411
3 413 412 349
3 349 412 348
3 414 349 350
3 414 413 349
3 416 414 415
3 414 351 415
3 414 350 351
3 352 353 417
3 415 417 353
3 417 415 403
3 351 403 415
3 403 351 338
3 343 352 406
3 406 352 417
3 407 418 345
3 345 418 354
3 347 354 410
3 410 354 418
3 420 419 357
3 357 419 356
3 357 348 412
3 357 412 420
3 422 421 358
3 422 358 359
3 415 360 416
3 360 421 416
3 360 358 421
3 360 415 353
3 424 423 362
3 362 423 361
3 362 356 419
3 362 419 424
3 426 425 365
3 426 365 364
3 359 365 422
3 422 365 425
3 423 427 361
3 361 427 366
3 366 428 367
3 427 428 366
3 364 367 426
3 426 367 428
3 429 369 370
3 371 429 370
3 430 372 373
3 431 430 373
3 431 373 369
3 432 431 369
3 429 432 369
3 429 371 432
3 371 433 432
3 371 375 433
3 434 376 377
3 435 434 377
3 435 377 372
3 436 435 372
3 430 436 372
3 378 379 437
3 430 431 436
3 437 438 378
3 438 375 378
3 438 433 375
3 440 439 381
3 381 439 380
3 381 382 440
3 440 382 441
3 443 442 385
3 385 442 384
3 444 385 386
3 444 443 385
3 386 376 434
3 445 386 434
3 444 386 445
3 387 388 446
3 434 435 445
3 446 447 387
3 387 447 379
3 447 448 379
3 448 437 379
3 437 448 438
3 451 450 449
3 389 390 449
3 390 451 449
3 390 452 451
3 392 394 453
3 454 453 394
3 439 390 380
3 390 439 452
3 382 392 441
3 441 392 453
3 456 455 397
3 397 455 396
3 442 457 384
3 442 400 457
3 400 442 458
3 456 458 442
3 458 456 399
3 457 399 456
3 456 397 457
3 457 397 384
3 400 399 457
3 400 458 459
3 460 400 459
3 401 400 460
3 401 461 402
3 460 461 401
3 388 402 446
3 402 462 446
3 402 461 462
3 446 462 447
3 465 464 463
3 465 463 450
3 450 463 449
3 463 403 449
3 403 404 449
3 467 466 406
3 467 404 466
3 404 467 449
3 468 449 467
3 449 468 389
3 466 389 468
3 468 405 466
3 466 405 406
3 404 389 466
3 394 405 454
3 454 405 468
3 470 469 408
3 408 469 407
3 455 471 396
3 455 411 471
3 411 455 472
3 470 472 455
3 472 470 410
3 471 410 470
3 470 408 471
3 471 408 396
3 411 410 471
3 472 473 411
3 411 473 399
3 473 474 399
3 474 458 399
3 458 474 459
3 476 475 413
3 413 475 412
3 477 413 414
3 477 476 413
3 414 464 477
3 464 414 463
3 416 463 414
3 463 416 478
3 479 478 416
3 463 478 403
3 478 417 403
3 478 480 417
3 406 417 467
3 467 417 480
3 469 481 407
3 407 481 418
3 410 418 472
3 418 482 472
3 418 481 482
3 472 482 473
3 484 483 420
3 420 483 419
3 420 412 475
3 420 475 484
3 486 485 421
3 486 421 422
3 416 421 479
3 479 421 485
3 488 487 424
3 424 487 423
3 424 419 483
3 424 483 488
3 490 489 425
3 490 425 426
3 422 425 486
3 486 425 489
3 487 491 423
3 423 491 427
3 427 492 428
3 491 492 427
3 426 428 490
3 490 428 492
3 493 431 432
3 495 493 494
3 493 432 494
3 433 496 494
3 433 494 432
3 496 497 494
3 498 435 436
3 499 498 436
3 499 436 431
3 500 499 431
3 493 500 431
3 438 501 433
3 438 493 501
3 493 438 500
3 502 500 438
3 500 502 495
3 501 495 502
3 502 496 501
3 501 496 433
3 493 495 501
3 497 496 503
3 503 496 502
3 504 439 440
3 441 504 440
3 505 442 443
3 505 443 506
3 443 507 506
3 443 444 507
3 508 444 445
3 508 507 444
3 445 435 498
3 509 445 498
3 508 445 509
3 448 447 510
3 498 499 509
3 510 511 448
3 448 511 438
3 511 512 438
3 512 502 438
3 450 512 513
3 512 450 502
3 451 502 450
3 502 451 503
3 514 503 451
3 515 451 452
3 515 514 451
3 452 439 515
3 504 515 439
3 515 504 516
3 453 516 504
3 516 453 454
3 453 504 441
3 517 455 456
3 518 517 456
3 518 456 442
3 519 518 442
3 505 519 442
3 521 520 459
3 520 519 459
3 505 459 519
3 459 505 460
3 506 460 505
3 460 506 520
3 520 522 460
3 521 522 520
3 520 506 519
3 460 523 461
3 522 523 460
3 461 524 462
3 523 524 461
3 462 524 447
3 524 525 447
3 525 510 447
3 525 524 526
3 465 527 464
3 527 510 464
3 510 525 464
3 510 527 511
3 465 450 513
3 465 513 527
3 529 528 468
3 529 468 467
3 454 468 516
3 516 468 528
3 530 469 470
3 531 530 470
3 531 470 455
3 532 531 455
3 517 532 455
3 534 533 473
3 533 532 473
3 517 473 532
3 473 517 474
3 518 474 517
3 474 518 533
3 533 535 474
3 534 535 533
3 533 518 532
3 459 474 521
3 521 474 535
3 537 536 476
3 476 536 475
3 477 525 526
3 537 477 526
3 476 477 537
3 539 538 479
3 539 477 538
3 477 539 525
3 540 525 539
3 525 540 464
3 538 464 540
3 540 478 538
3 538 478 479
3 477 464 538
3 478 541 480
3 540 541 478
3 467 480 529
3 529 480 541
3 530 481 469
3 531 542 530
3 542 481 530
3 542 482 481
3 473 482 534
3 534 482 542
3 545 544 543
3 483 484 543
3 484 545 543
3 484 546 545
3 484 475 536
3 484 536 546
3 548 547 485
3 548 485 486
3 479 485 539
3 539 485 547
3 543 544 488
3 544 487 488
3 544 549 487
3 483 543 488
3 552 551 550
3 489 490 551
3 552 489 551
3 553 489 552
3 486 489 548
3 548 489 553
3 549 554 487
3 487 554 491
3 551 492 550
3 492 554 550
3 492 491 554
3 492 551 490
3 555 495 494
3 497 555 494
3 556 499 500
3 495 555 500
3 555 556 500
3 555 557 556
3 503 558 497
3 559 497 558
3 497 559 555
3 560 555 559
3 555 560 557
3 558 561 559
3 562 506 507
3 508 563 507
3 507 563 562
3 509 564 508
3 508 564 563
3 565 564 509
3 565 509 499
3 566 565 499
3 556 566 499
3 566 568 567
3 566 569 568
3 569 566 511
3 556 511 566
3 511 556 512
3 568 512 556
3 556 557 568
3 568 557 567
3 569 512 568
3 557 560 567
3 558 503 514
3 569 513 512
3 514 515 558
3 515 570 558
3 570 561 558
3 515 571 570
3 516 571 515
3 572 518 519
3 562 574 573
3 575 573 574
3 573 575 572
3 573 572 521
3 519 521 572
3 521 519 522
3 506 522 519
3 522 506 562
3 522 562 573
3 574 563 576
3 563 574 562
3 577 523 573
3 522 573 523
3 576 564 578
3 564 576 563
3 579 524 577
3 523 577 524
3 564 565 578
3 524 579 526
3 569 511 527
3 582 581 580
3 584 583 582
3 584 569 583
3 569 584 513
3 585 513 584
3 513 585 527
3 583 527 585
3 585 581 583
3 583 581 582
3 569 527 583
3 585 584 570
3 585 570 571
3 529 585 571
3 528 529 571
3 528 571 516
3 586 531 532
3 572 588 587
3 589 587 588
3 587 589 586
3 587 586 534
3 532 534 586
3 534 532 535
3 518 535 532
3 535 518 572
3 535 572 587
3 575 588 572
3 587 521 535
3 521 587 573
3 590 573 587
3 573 591 577
3 573 590 591
3 591 536 537
3 579 591 537
3 577 591 579
3 526 579 537
3 594 593 592
3 593 594 580
3 593 580 581
3 539 593 581
3 540 539 581
3 540 581 541
3 541 581 585
3 541 585 529
3 596 542 595
3 542 531 595
3 595 531 586
3 597 595 586
3 589 597 586
3 596 534 542
3 534 596 587
3 598 587 596
3 598 544 545
3 590 598 545
3 587 598 590
3 546 599 545
3 599 600 545
3 601 545 600
3 545 601 590
3 602 590 601
3 590 602 599
3 599 591 590
3 546 591 599
3 599 602 600
3 604 603 602
3 604 591 603
3 591 604 536
3 605 536 604
3 536 605 546
3 603 546 605
3 605 600 603
3 603 600 602
3 591 546 603
3 605 604 592
3 605 592 593
3 548 605 593
3 547 548 593
3 547 593 539
3 595 606 596
3 608 607 606
3 607 596 606
3 607 598 596
3 607 549 544
3 607 544 598
3 601 600 552
3 550 601 552
3 609 601 550
3 552 600 553
3 553 600 605
3 553 605 548
3 608 610 607
3 607 610 549
3 610 554 549
3 610 611 554
3 550 554 609
3 609 554 611
3 612 560 559
3 561 612 559
3 613 565 566
3 567 614 566
3 566 614 613
3 560 612 567
3 612 614 567
3 612 615 614
3 570 615 561
3 561 615 612
3 616 575 574
3 576 617 574
3 574 617 616
3 578 618 576
3 576 618 617
3 565 613 578
3 613 618 578
3 613 619 618
3 580 619 582
3 619 614 582
3 619 613 614
3 582 614 584
3 584 614 615
3 584 615 570
3 620 589 588
3 575 616 588
3 616 620 588
3 616 621 620
3 622 616 617
3 621 616 622
3 623 617 618
3 622 617 623
3 592 623 594
3 623 619 594
3 623 618 619
3 594 619 580
3 624 595 597
3 589 620 597
3 620 624 597
3 620 625 624
3 626 620 621
3 625 620 626
3 601 626 602
3 626 622 602
3 626 621 622
3 602 622 604
3 604 622 623
3 604 623 592
3 624 606 595
3 606 624 608
3 624 627 608
3 624 625 627
3 628 625 626
3 627 625 628
3 609 628 601
3 601 628 626
3 627 610 608
3 610 627 611
3 611 627 628
3 611 628 609
