ply
format ascii 1.0
comment None
element vertex 731
property float x
property float y
property float z
element face 1494
property list uchar int vertex_indices
end_header
37.269 45.335 56.838
37.253 45.483 56.722
37.417 45.204 56.945
37.527 45.146 57.075
37.192 45.790 56.589
37.264 46.034 56.459
37.534 45.549 56.952
37.185 46.549 56.247
37.328 47.315 55.990
37.289 46.705 56.160
37.345 46.228 56.509
37.355 46.797 56.295
37.297 47.252 56.090
37.589 50.879 55.841
37.693 51.083 55.804
37.650 50.493 55.770
37.763 50.675 56.007
37.658 51.312 56.015
37.689 45.507 56.895
37.876 45.093 57.253
38.056 45.113 57.421
37.662 46.229 56.533
38.220 45.492 57.398
37.623 47.386 56.001
37.608 46.755 56.265
37.321 46.414 56.325
37.505 46.552 56.484
37.846 46.364 56.945
37.518 48.005 55.981
37.635 48.129 55.859
37.612 47.689 56.244
37.773 47.175 56.599
37.728 48.921 55.885
37.881 49.052 55.778
38.029 48.790 56.219
37.747 49.822 55.807
37.936 50.085 55.727
38.004 49.797 56.083
38.080 50.847 55.735
38.240 50.687 56.357
37.698 52.154 56.139
37.950 51.890 55.854
38.037 51.789 56.488
37.717 53.051 56.121
37.988 52.939 55.947
37.824 52.659 56.511
37.745 53.229 56.428
38.040 53.307 56.748
37.843 53.895 56.208
38.099 53.662 56.074
37.819 54.053 56.446
38.031 53.948 56.697
38.202 54.442 56.394
38.012 54.991 56.593
38.273 55.408 56.735
38.301 54.911 56.814
38.162 55.914 56.837
38.401 56.386 56.959
38.383 55.858 56.958
38.416 56.519 57.075
38.353 45.255 57.402
38.705 45.048 57.757
38.904 45.244 57.678
38.650 45.130 57.847
39.090 45.113 58.123
38.576 45.912 57.034
38.841 45.483 57.481
38.422 45.167 57.603
38.692 45.476 57.759
39.277 45.582 58.252
38.124 47.368 56.156
38.598 46.891 56.539
39.091 46.191 58.061
38.546 46.318 57.569
38.185 48.205 55.958
38.780 47.768 56.262
38.219 48.177 56.611
38.618 47.584 57.257
38.438 49.269 55.887
38.651 49.035 56.577
38.977 48.790 57.008
38.584 50.183 55.844
39.277 49.470 56.706
38.876 49.937 56.514
38.630 51.099 55.828
38.746 51.252 56.795
38.549 52.093 55.873
38.615 52.085 56.945
38.466 52.975 55.966
38.046 52.696 56.741
38.325 52.512 56.888
38.474 53.594 56.108
38.332 53.976 56.202
38.340 53.094 56.952
38.979 54.089 56.437
38.737 54.006 57.069
38.501 55.087 56.855
38.679 54.748 56.808
38.789 55.801 56.858
38.780 55.275 56.874
38.948 55.573 57.115
38.633 57.231 57.277
38.935 56.954 57.050
39.158 56.797 57.430
38.765 57.724 57.319
39.226 57.842 57.206
38.928 57.680 57.581
38.800 58.002 57.545
39.158 58.194 57.786
38.966 58.215 57.477
39.231 58.531 57.755
39.662 45.314 57.925
39.436 45.119 58.163
39.606 45.293 58.374
39.430 45.953 57.326
39.843 45.759 57.592
40.134 45.768 58.674
39.591 46.639 57.019
40.136 46.365 57.332
39.213 47.124 57.971
40.010 46.736 58.621
39.061 48.641 56.201
39.888 47.888 56.637
39.385 48.033 57.864
39.963 47.943 58.361
39.151 49.597 56.220
39.800 49.261 56.479
39.902 48.657 58.093
39.458 48.727 57.612
39.474 50.347 56.076
39.583 49.814 56.394
40.357 49.833 56.339
39.601 49.986 56.885
39.777 49.676 57.416
39.441 51.360 55.995
39.509 50.986 57.147
40.450 50.688 56.201
40.157 50.754 57.591
39.258 52.354 56.041
39.274 52.018 57.254
40.330 51.694 56.195
40.247 51.949 57.746
38.974 53.183 56.134
38.804 52.803 57.145
40.001 52.877 56.312
39.649 52.983 57.520
40.117 53.817 56.529
39.951 53.888 57.615
39.032 54.967 56.883
39.596 54.949 56.716
39.581 54.879 57.346
39.723 56.086 56.804
39.905 55.911 57.516
39.847 57.113 56.871
40.262 56.638 57.681
40.044 58.036 56.951
39.520 57.832 57.821
40.209 57.364 57.830
39.528 58.643 57.468
40.253 58.026 58.050
39.769 59.173 57.964
39.981 59.478 57.638
39.926 58.624 58.104
40.147 59.994 58.126
40.242 60.299 57.725
40.372 59.553 58.373
40.343 60.879 58.139
40.339 61.157 57.703
40.623 60.459 58.499
40.331 61.811 57.931
40.305 62.074 57.582
40.773 61.498 58.429
40.178 62.876 57.497
40.205 63.356 57.028
40.313 62.726 57.301
40.480 62.389 57.920
40.350 62.961 57.645
40.027 64.063 56.982
40.285 64.021 56.611
40.154 63.691 57.418
40.060 64.809 56.480
40.261 65.320 56.171
40.452 64.745 56.213
39.994 65.071 56.708
40.180 64.591 57.186
40.104 65.533 56.330
40.534 65.903 56.031
40.188 65.747 56.521
40.315 65.499 56.887
40.449 66.082 56.249
41.368 44.811 54.879
41.479 45.059 54.644
41.588 44.779 54.945
41.505 44.797 55.284
40.260 45.421 58.358
41.404 44.998 55.055
40.859 45.926 57.663
41.222 45.492 58.281
40.963 45.690 58.878
40.861 46.326 59.106
41.508 46.049 59.276
40.603 47.146 57.100
40.843 46.605 57.371
40.970 47.108 59.173
41.678 46.808 59.431
41.078 47.984 56.876
41.452 47.533 57.071
41.504 47.604 59.329
40.899 48.003 58.932
41.363 49.339 50.962
41.468 49.392 50.847
41.652 49.083 50.866
41.604 49.116 51.052
41.022 48.947 56.569
41.785 48.382 56.764
40.244 49.435 58.046
40.609 48.911 58.501
41.131 49.980 51.114
41.559 49.825 50.850
41.265 49.626 51.229
41.353 49.998 56.347
40.639 50.402 58.056
41.105 49.923 58.475
41.173 50.128 51.168
41.043 50.808 51.276
40.898 50.886 51.515
40.973 50.287 51.409
40.965 50.845 51.758
41.373 50.976 56.277
40.938 51.417 58.146
41.461 50.950 58.457
40.938 51.877 51.641
41.135 52.178 51.314
41.039 51.584 51.987
41.235 51.994 56.333
41.111 52.274 58.220
41.732 51.997 58.480
41.049 53.028 51.752
41.319 53.385 51.502
41.198 52.660 52.115
41.092 53.031 56.453
41.562 52.784 58.377
40.784 53.123 58.017
41.130 54.068 51.905
41.271 54.365 51.808
41.322 53.758 52.199
40.913 54.089 56.557
40.933 54.325 57.913
41.212 54.794 52.027
41.532 55.159 52.021
41.387 54.801 52.304
40.759 55.184 56.589
40.641 55.286 57.710
41.385 55.365 52.220
40.755 56.244 56.562
40.966 56.033 57.740
40.835 57.240 56.512
41.140 56.900 57.808
41.021 58.256 56.462
41.104 57.781 58.045
40.248 58.902 57.090
40.443 59.711 57.210
40.704 58.381 58.240
40.997 59.006 58.421
40.586 60.522 57.267
41.121 59.918 58.624
40.588 61.382 57.331
41.289 60.805 58.708
40.507 62.186 57.538
41.455 61.592 58.702
40.661 63.159 56.730
40.594 62.523 57.284
40.356 62.465 57.575
40.662 62.857 57.879
41.232 62.442 58.432
40.822 64.020 56.251
41.300 63.499 58.220
40.609 63.924 57.710
40.728 65.431 55.905
41.030 64.766 55.882
40.781 65.127 57.385
41.067 66.053 55.721
40.771 65.857 57.000
40.832 66.254 56.552
41.230 66.588 55.916
41.814 45.069 54.550
41.949 44.808 55.035
42.026 44.762 55.876
41.655 45.137 56.033
42.139 44.813 57.101
41.853 45.043 57.330
42.155 44.889 57.937
41.832 45.192 58.139
42.325 45.100 58.596
41.590 45.619 54.880
41.806 45.597 54.275
41.672 46.050 55.772
41.552 45.688 57.122
41.822 45.523 58.940
42.173 46.132 59.399
41.914 46.316 54.191
42.190 46.730 53.834
42.205 46.270 53.887
41.846 46.565 54.871
41.883 46.818 55.559
41.794 46.621 56.341
41.589 46.489 57.013
41.640 47.088 57.065
42.415 46.801 59.497
42.247 47.343 54.230
42.089 47.282 55.090
41.992 47.919 56.838
41.743 48.253 59.217
42.247 47.631 59.404
41.885 49.233 50.777
42.112 48.947 51.082
41.838 49.158 51.482
42.075 49.233 56.345
42.235 48.477 56.518
42.396 48.549 59.108
41.636 49.129 58.855
42.138 49.632 50.695
41.399 49.874 51.568
42.151 50.281 56.173
41.977 50.300 58.637
41.341 50.389 51.116
42.081 50.523 50.732
41.069 50.154 51.347
41.136 50.442 51.626
41.328 51.087 52.283
42.122 51.239 56.183
42.178 51.317 58.569
41.483 51.347 50.968
42.053 51.708 50.771
41.558 52.118 52.603
42.022 52.220 56.261
42.339 52.090 58.546
41.617 52.410 51.039
42.079 52.452 50.890
41.903 53.460 52.534
41.896 53.242 56.318
41.679 53.542 58.292
42.205 52.872 58.471
41.984 53.110 51.298
41.754 54.176 51.797
41.880 54.362 52.636
41.778 54.298 56.303
41.883 54.269 58.166
42.339 53.755 58.320
41.988 55.031 52.050
41.850 55.209 52.662
41.710 55.351 56.226
42.440 54.480 58.046
41.703 55.137 57.879
41.679 56.054 52.298
42.092 56.062 52.189
41.683 55.848 52.499
41.703 56.364 56.120
41.971 56.174 57.684
42.051 57.086 52.394
42.471 57.292 52.267
41.829 56.625 52.501
41.759 57.310 56.005
42.175 57.296 57.705
42.333 58.131 52.381
42.538 58.386 52.272
42.036 57.251 52.577
42.220 57.989 52.549
42.277 57.668 52.665
41.892 58.068 55.887
41.818 58.036 58.092
41.328 58.380 58.275
41.919 58.675 58.247
42.430 58.858 52.342
42.381 58.993 52.517
42.431 59.525 52.368
42.424 58.632 52.659
40.854 59.153 56.716
41.636 59.011 56.121
41.685 59.425 58.501
42.441 60.014 52.590
42.411 60.334 52.379
42.527 59.612 52.724
41.043 59.863 56.710
41.709 60.069 56.179
41.867 60.165 58.595
42.425 60.972 52.689
42.352 61.294 52.357
42.605 60.563 52.941
41.080 60.753 56.795
41.621 61.098 56.298
42.002 61.071 58.669
42.270 62.123 52.660
42.211 62.412 52.262
42.639 61.517 53.375
40.943 61.681 56.962
41.341 62.254 56.419
42.056 62.005 58.633
42.012 63.134 52.195
41.931 63.589 51.930
42.067 63.173 52.064
42.149 63.044 52.690
42.394 62.557 53.366
41.349 63.311 56.090
42.122 63.058 58.485
41.919 63.804 51.980
41.975 64.094 51.904
42.060 63.849 52.354
42.232 63.558 53.111
41.336 64.107 55.864
41.938 63.923 58.310
41.470 64.538 57.907
42.035 64.337 52.027
42.121 64.565 51.990
42.226 64.652 52.348
42.238 64.320 52.667
41.436 65.491 55.421
41.548 64.617 55.507
41.433 65.244 57.559
42.304 64.922 52.238
41.691 66.408 55.335
41.092 66.190 56.892
41.412 65.820 57.196
42.062 67.040 55.424
42.612 67.157 55.104
42.361 66.677 54.810
41.973 67.160 55.817
41.758 66.873 56.222
41.734 66.454 56.727
42.518 67.312 55.539
42.380 67.205 55.931
42.216 45.077 54.811
42.412 44.917 55.471
42.659 44.900 56.298
42.630 44.863 57.116
42.553 44.887 58.016
42.781 45.186 58.653
42.342 45.681 54.368
42.752 45.442 55.197
42.921 45.205 56.012
42.563 45.574 59.097
42.822 46.278 59.296
42.563 47.153 53.648
42.688 46.514 53.989
42.124 47.467 55.870
41.923 47.147 56.589
42.915 47.141 59.272
42.563 48.313 53.469
42.723 48.426 52.700
42.883 47.867 53.217
42.542 48.378 54.399
42.395 48.075 55.186
42.365 48.093 55.868
42.199 47.895 56.429
42.855 47.930 59.165
42.459 49.219 50.857
42.738 48.967 51.302
42.611 48.774 51.907
42.204 49.222 52.495
42.518 49.331 53.552
42.676 49.138 54.294
42.649 48.987 55.110
42.460 48.681 55.921
43.014 48.465 58.814
42.666 49.410 58.615
42.659 49.838 50.763
41.693 50.309 52.423
42.304 50.155 53.391
42.670 50.013 54.314
42.761 49.848 55.098
42.575 49.624 55.779
42.676 50.602 58.407
42.785 50.507 50.733
42.628 51.252 50.751
43.086 50.944 50.957
42.028 51.307 53.268
42.576 50.972 54.323
42.768 50.746 55.154
42.624 50.538 55.770
42.705 51.568 58.367
42.486 52.125 50.878
43.006 51.758 51.152
42.196 52.614 53.352
42.551 52.058 54.317
42.732 51.713 55.203
42.593 51.468 55.835
42.712 52.424 58.338
42.313 52.655 51.007
42.671 52.733 51.402
42.416 53.659 53.015
42.647 53.166 54.177
42.725 52.745 55.170
42.528 52.451 55.881
42.733 53.255 58.241
42.273 54.292 52.241
42.337 53.607 52.060
42.247 53.996 52.641
42.654 53.945 52.447
42.361 54.253 53.043
42.793 54.285 53.828
42.782 53.798 55.019
42.472 53.479 55.843
42.753 53.933 58.115
42.481 55.334 52.247
42.401 55.011 53.026
42.842 54.674 52.502
42.962 55.089 53.254
43.242 54.713 53.937
42.985 54.790 54.893
43.409 55.120 54.662
42.462 54.517 55.735
42.903 54.381 57.766
42.687 55.248 57.533
42.657 56.311 52.278
42.174 55.978 52.758
42.921 55.577 52.509
42.695 55.970 52.860
43.056 55.767 55.170
43.435 56.052 55.052
42.476 55.531 55.659
42.801 56.361 57.244
42.800 57.060 52.285
42.040 56.755 52.647
42.934 56.496 52.432
42.494 57.053 52.705
43.045 56.737 55.221
43.402 57.080 55.130
42.480 56.509 55.603
42.953 57.180 57.141
42.746 57.861 52.279
42.904 57.300 52.369
42.567 58.198 52.671
43.007 57.712 55.203
43.367 58.093 55.145
42.485 57.434 55.520
42.319 58.069 57.925
42.791 57.892 57.479
42.515 59.104 52.269
42.666 58.916 52.273
42.636 59.197 52.704
42.965 58.706 55.227
43.343 59.109 55.188
42.438 58.364 55.524
42.558 58.508 57.887
42.430 59.335 58.136
42.511 59.710 52.258
42.620 59.851 52.275
42.730 60.185 52.896
42.916 59.753 55.275
43.312 60.135 55.189
42.379 59.367 55.607
42.577 60.363 58.257
42.471 60.451 52.249
42.581 60.518 52.294
42.915 61.079 53.415
42.798 60.945 55.180
43.257 61.053 54.922
42.318 60.435 55.683
42.681 61.348 58.348
42.483 61.020 52.289
42.481 61.822 52.391
43.131 61.469 54.233
42.719 61.932 54.407
42.457 61.962 55.202
42.142 61.528 55.748
42.772 62.311 58.352
42.118 63.771 52.047
42.442 63.031 52.389
42.385 63.183 54.036
42.324 62.875 54.920
41.967 62.604 55.664
42.880 63.100 58.253
42.195 64.440 52.147
42.503 64.301 52.506
42.259 64.302 53.727
42.207 63.805 54.606
41.861 63.747 55.393
42.233 64.433 58.071
42.586 63.799 58.241
42.384 64.886 52.225
42.378 64.734 52.360
42.732 64.971 52.597
42.371 64.922 52.958
42.281 65.252 53.981
41.983 64.783 54.786
42.818 64.377 57.813
42.297 65.205 57.477
42.737 65.429 52.706
42.513 65.377 52.791
42.590 65.986 53.802
42.077 65.870 54.692
42.240 66.073 56.996
42.834 65.903 53.202
43.043 66.270 53.752
42.972 66.744 54.543
42.487 66.430 56.700
42.630 66.786 56.287
42.954 67.179 55.203
42.971 67.116 55.685
43.173 45.339 57.059
43.023 45.200 58.065
43.129 46.405 54.855
43.371 45.962 56.195
43.598 46.072 57.351
43.425 45.855 58.124
43.084 45.696 58.812
43.202 47.437 53.956
43.560 47.332 55.039
43.659 47.000 55.979
43.755 46.803 57.092
43.660 46.697 58.062
43.322 46.518 58.829
43.232 48.413 52.987
43.553 48.318 54.038
43.659 48.117 54.899
43.764 47.981 55.942
43.775 47.774 56.994
43.722 47.484 57.831
43.376 47.568 58.672
43.028 49.452 51.194
43.258 49.123 52.050
43.582 49.164 53.054
43.655 49.026 53.912
43.722 48.990 54.923
43.727 48.948 55.953
43.653 48.836 56.994
43.435 48.518 58.037
43.164 50.242 51.074
43.474 50.039 51.834
43.682 49.904 52.848
43.762 49.874 53.919
43.735 49.885 54.985
43.657 49.917 56.032
43.511 49.894 57.011
43.229 49.742 57.886
43.445 51.148 51.685
43.743 50.931 52.767
43.820 50.842 53.910
43.752 50.845 55.054
43.606 50.884 56.130
43.408 50.893 57.080
43.125 50.808 57.856
43.303 52.364 51.924
43.689 52.077 52.787
43.832 51.926 53.907
43.774 51.864 55.077
43.599 51.857 56.177
43.363 51.848 57.130
43.075 51.761 57.875
43.007 53.319 52.178
43.507 53.181 52.860
43.760 53.061 53.905
43.773 52.923 55.052
43.619 52.816 56.136
43.377 52.766 57.081
43.074 52.665 57.841
43.203 54.038 52.779
43.548 54.272 53.894
43.719 54.034 55.013
43.609 53.797 56.074
43.424 53.531 56.890
43.107 53.615 57.673
43.191 54.867 53.067
43.627 55.251 55.098
43.573 54.868 55.991
43.273 54.465 57.019
43.008 55.810 52.768
43.595 56.481 55.342
43.559 55.985 55.912
43.269 55.606 56.729
42.865 56.937 52.584
43.569 57.548 55.379
43.551 57.075 55.911
43.313 56.653 56.585
42.826 58.127 52.419
42.742 57.817 52.596
43.561 58.576 55.421
43.560 58.134 55.945
43.296 57.754 56.711
42.751 59.273 52.413
42.747 58.736 52.573
43.573 59.586 55.488
43.598 59.165 56.020
43.396 58.837 56.716
42.992 58.638 57.427
42.721 60.225 52.473
42.765 59.754 52.655
43.591 60.556 55.475
43.654 60.165 56.125
43.470 59.855 56.837
43.065 59.597 57.544
42.671 61.097 52.508
42.889 60.908 52.980
43.605 61.457 55.208
43.728 61.125 56.176
43.560 60.852 56.975
43.162 60.605 57.688
42.930 62.207 53.011
43.383 61.923 54.148
43.805 62.247 55.374
43.834 62.033 56.199
43.660 61.815 57.059
43.263 61.595 57.796
43.054 63.628 53.097
43.522 63.197 54.013
43.840 63.038 55.120
43.922 62.915 56.150
43.734 62.747 57.041
43.344 62.547 57.810
43.163 64.711 53.160
43.617 64.354 53.966
43.911 64.138 54.968
43.922 63.925 56.040
43.765 63.564 56.862
43.301 63.569 57.690
43.183 65.498 53.249
43.632 65.349 54.044
43.933 65.050 54.806
43.981 65.256 55.882
43.426 64.598 56.992
43.098 65.952 53.334
43.409 66.182 54.141
43.931 66.003 55.227
44.272 66.011 55.919
44.133 66.010 56.200
44.052 66.286 56.204
43.285 65.991 56.578
43.398 66.759 55.120
44.191 66.286 55.922
43.601 66.563 55.899
44.328 66.210 56.121
3 2 1 0
3 0 3 2
3 0 1 4
3 4 1 5
3 3 0 6
3 6 0 4
3 9 8 7
3 11 10 7
3 10 4 7
3 5 9 7
3 5 7 4
3 4 10 6
3 8 12 7
3 7 12 11
3 15 14 13
3 13 16 15
3 14 17 13
3 13 17 16
3 19 18 2
3 2 18 1
3 2 3 19
3 19 3 20
3 18 5 1
3 21 5 18
3 6 20 3
3 6 22 20
3 24 23 9
3 9 23 8
3 21 25 5
3 21 10 25
3 10 21 26
3 24 26 21
3 26 24 11
3 25 11 24
3 24 9 25
3 25 9 5
3 10 11 25
3 26 27 10
3 27 6 10
3 27 22 6
3 12 8 28
3 8 29 28
3 8 23 29
3 28 30 12
3 12 30 11
3 30 31 11
3 31 26 11
3 26 31 27
3 28 29 32
3 32 29 33
3 30 28 34
3 34 28 32
3 32 33 35
3 35 33 36
3 34 32 37
3 37 32 35
3 35 36 15
3 36 14 15
3 36 38 14
3 15 16 35
3 16 37 35
3 16 39 37
3 17 14 40
3 14 41 40
3 14 38 41
3 40 42 17
3 42 16 17
3 42 39 16
3 40 41 43
3 43 41 44
3 42 40 45
3 40 46 45
3 40 43 46
3 46 47 45
3 43 44 48
3 48 44 49
3 43 50 46
3 43 48 50
3 47 46 51
3 51 46 50
3 49 52 48
3 54 53 52
3 53 48 52
3 53 50 48
3 51 50 55
3 55 50 53
3 53 54 56
3 56 54 57
3 55 53 58
3 58 53 56
3 57 59 56
3 56 59 58
3 60 18 19
3 62 60 61
3 60 19 61
3 20 63 61
3 20 61 19
3 63 64 61
3 66 65 60
3 65 18 60
3 65 21 18
3 22 67 20
3 22 60 67
3 60 22 66
3 68 66 22
3 66 68 62
3 67 62 68
3 68 63 67
3 67 63 20
3 60 62 67
3 64 63 69
3 69 63 68
3 70 23 24
3 71 70 24
3 21 71 24
3 65 71 21
3 73 72 68
3 22 73 68
3 27 73 22
3 68 72 69
3 75 74 70
3 74 23 70
3 74 29 23
3 31 30 76
3 70 71 75
3 76 77 31
3 77 27 31
3 77 73 27
3 74 33 29
3 78 33 74
3 34 79 76
3 34 76 30
3 77 76 80
3 80 76 79
3 78 36 33
3 81 36 78
3 83 82 79
3 34 83 79
3 37 83 34
3 79 82 80
3 81 38 36
3 84 38 81
3 39 83 37
3 39 85 83
3 84 41 38
3 86 41 84
3 42 85 39
3 42 87 85
3 86 44 41
3 88 44 86
3 42 45 89
3 90 42 89
3 87 42 90
3 47 89 45
3 92 49 91
3 49 88 91
3 49 44 88
3 90 89 93
3 91 94 92
3 89 47 93
3 47 95 93
3 47 51 95
3 92 52 49
3 97 96 54
3 97 54 52
3 94 97 52
3 92 94 52
3 97 95 96
3 95 55 96
3 95 51 55
3 99 98 96
3 98 54 96
3 98 57 54
3 96 55 99
3 55 100 99
3 55 58 100
3 59 57 101
3 57 102 101
3 57 98 102
3 101 103 59
3 103 58 59
3 103 100 58
3 101 102 104
3 104 102 105
3 103 101 106
3 101 107 106
3 101 104 107
3 107 108 106
3 105 109 104
3 104 109 107
3 107 109 110
3 107 110 108
3 112 111 61
3 61 111 62
3 61 64 112
3 112 64 113
3 114 65 66
3 115 114 66
3 62 115 66
3 111 115 62
3 69 113 64
3 69 116 113
3 118 117 114
3 117 65 114
3 117 71 65
3 72 73 119
3 114 115 118
3 119 120 72
3 120 69 72
3 120 116 69
3 121 74 75
3 122 121 75
3 71 122 75
3 117 122 71
3 77 123 119
3 77 119 73
3 120 119 124
3 124 119 123
3 125 78 121
3 121 78 74
3 121 122 126
3 121 126 125
3 128 127 123
3 77 128 123
3 80 128 77
3 123 127 124
3 129 81 125
3 125 81 78
3 131 130 126
3 130 132 126
3 82 126 132
3 126 82 125
3 83 125 82
3 125 83 130
3 130 129 125
3 131 129 130
3 130 83 132
3 132 133 82
3 133 80 82
3 133 128 80
3 134 84 129
3 129 84 81
3 132 83 135
3 85 135 83
3 136 129 131
3 129 136 134
3 133 132 137
3 137 132 135
3 138 86 134
3 134 86 84
3 135 85 139
3 87 139 85
3 140 134 136
3 134 140 138
3 137 135 141
3 141 135 139
3 142 88 138
3 138 88 86
3 139 87 143
3 90 143 87
3 144 138 140
3 138 144 142
3 141 139 145
3 145 139 143
3 142 91 88
3 90 93 143
3 91 142 94
3 144 94 142
3 94 144 146
3 93 95 143
3 95 145 143
3 95 147 145
3 97 94 148
3 94 149 148
3 94 146 149
3 148 150 97
3 150 95 97
3 150 147 95
3 148 149 99
3 149 98 99
3 149 151 98
3 99 100 148
3 100 150 148
3 100 152 150
3 151 102 98
3 153 102 151
3 103 152 100
3 103 154 152
3 153 105 102
3 155 105 153
3 103 106 156
3 157 103 156
3 154 103 157
3 108 156 106
3 155 158 105
3 105 158 109
3 159 157 156
3 161 160 158
3 110 158 160
3 158 110 109
3 159 156 162
3 156 108 162
3 110 160 162
3 110 162 108
3 160 161 163
3 163 161 164
3 162 160 165
3 165 160 163
3 163 164 166
3 166 164 167
3 165 163 168
3 168 163 166
3 166 167 169
3 169 167 170
3 168 166 171
3 171 166 169
3 174 173 172
3 176 175 172
3 175 169 172
3 170 174 172
3 170 172 169
3 169 175 171
3 172 173 177
3 177 173 178
3 176 172 179
3 179 172 177
3 182 181 180
3 182 180 178
3 180 177 178
3 180 183 177
3 179 177 184
3 184 177 183
3 180 181 185
3 185 181 186
3 188 183 187
3 183 185 187
3 183 180 185
3 183 188 184
3 186 189 185
3 185 189 187
3 192 191 190
3 190 193 192
3 194 111 112
3 113 194 112
3 191 195 190
3 190 195 193
3 197 196 194
3 196 111 194
3 196 115 111
3 113 116 194
3 116 198 194
3 198 197 194
3 198 116 199
3 199 200 198
3 201 117 118
3 202 201 118
3 115 202 118
3 196 202 115
3 120 203 199
3 120 199 116
3 200 199 204
3 204 199 203
3 205 122 201
3 201 122 117
3 201 202 206
3 201 206 205
3 208 207 203
3 120 208 203
3 124 208 120
3 203 207 204
3 211 210 209
3 209 212 211
3 214 213 205
3 213 122 205
3 213 126 122
3 127 128 215
3 205 206 214
3 215 216 127
3 216 124 127
3 216 208 124
3 209 210 217
3 217 210 218
3 212 209 219
3 219 209 217
3 213 131 126
3 220 131 213
3 133 221 215
3 133 215 128
3 216 215 222
3 222 215 221
3 218 223 217
3 223 224 217
3 224 225 217
3 226 219 217
3 226 217 225
3 225 227 226
3 220 136 131
3 228 136 220
3 137 229 221
3 137 221 133
3 222 221 230
3 230 221 229
3 225 224 231
3 231 224 232
3 227 225 233
3 233 225 231
3 228 140 136
3 234 140 228
3 141 235 229
3 141 229 137
3 230 229 236
3 236 229 235
3 231 232 237
3 237 232 238
3 233 231 239
3 239 231 237
3 234 144 140
3 240 144 234
3 242 241 235
3 141 242 235
3 145 242 141
3 235 241 236
3 237 238 243
3 243 238 244
3 239 237 245
3 245 237 243
3 240 146 144
3 246 146 240
3 147 242 145
3 147 247 242
3 243 244 248
3 248 244 249
3 245 243 250
3 250 243 248
3 246 149 146
3 251 149 246
3 150 247 147
3 150 252 247
3 249 253 248
3 248 253 250
3 251 151 149
3 254 151 251
3 152 252 150
3 152 255 252
3 254 153 151
3 256 153 254
3 154 255 152
3 154 257 255
3 256 155 153
3 258 155 256
3 157 257 154
3 157 259 257
3 258 260 155
3 155 260 158
3 260 161 158
3 161 260 261
3 157 159 259
3 262 259 159
3 159 162 262
3 262 162 263
3 261 164 161
3 264 164 261
3 165 263 162
3 165 265 263
3 264 167 164
3 266 167 264
3 168 265 165
3 168 267 265
3 266 170 167
3 268 170 266
3 171 267 168
3 171 269 267
3 271 270 174
3 174 270 173
3 268 272 170
3 268 175 272
3 175 268 273
3 271 273 268
3 273 271 176
3 272 176 271
3 271 174 272
3 272 174 170
3 175 176 272
3 273 274 175
3 274 171 175
3 274 269 171
3 270 178 173
3 275 178 270
3 277 276 273
3 176 277 273
3 179 277 176
3 273 276 274
3 279 278 182
3 182 278 181
3 182 178 275
3 182 275 279
3 184 277 179
3 184 280 277
3 278 186 181
3 281 186 278
3 283 282 188
3 283 188 187
3 184 188 280
3 280 188 282
3 281 284 186
3 186 284 189
3 187 189 283
3 283 189 284
3 286 285 192
3 192 285 191
3 288 287 193
3 287 192 193
3 287 286 192
3 290 289 288
3 288 289 287
3 292 291 290
3 290 291 289
3 292 293 291
3 195 191 294
3 191 295 294
3 191 285 295
3 288 193 195
3 294 288 195
3 296 288 294
3 288 297 290
3 288 296 297
3 297 196 197
3 292 297 197
3 290 297 292
3 298 293 292
3 197 298 292
3 198 298 197
3 198 200 298
3 298 200 299
3 302 301 300
3 302 300 295
3 300 294 295
3 300 303 294
3 305 296 304
3 296 303 304
3 296 294 303
3 296 305 297
3 297 305 306
3 196 297 306
3 307 196 306
3 202 196 307
3 204 299 200
3 204 308 299
3 301 309 300
3 300 309 303
3 303 309 310
3 303 310 304
3 307 206 202
3 311 206 307
3 208 312 207
3 312 313 207
3 313 204 207
3 313 308 204
3 315 314 211
3 211 314 210
3 211 212 315
3 315 212 316
3 318 317 214
3 214 317 213
3 214 206 311
3 214 311 318
3 320 319 312
3 208 320 312
3 216 320 208
3 312 319 313
3 314 218 210
3 321 218 314
3 219 316 212
3 219 322 316
3 317 220 213
3 323 220 317
3 222 320 216
3 222 324 320
3 223 218 325
3 218 326 325
3 218 321 326
3 328 327 226
3 328 224 327
3 224 328 325
3 322 325 328
3 325 322 223
3 327 223 322
3 322 219 327
3 327 219 226
3 224 223 327
3 226 227 328
3 328 227 329
3 323 228 220
3 330 228 323
3 230 324 222
3 230 331 324
3 325 326 332
3 332 326 333
3 332 232 224
3 332 224 325
3 233 329 227
3 233 334 329
3 330 234 228
3 335 234 330
3 236 331 230
3 236 336 331
3 332 333 337
3 337 333 338
3 337 238 232
3 337 232 332
3 239 334 233
3 239 339 334
3 335 240 234
3 340 240 335
3 242 341 241
3 341 342 241
3 342 236 241
3 342 336 236
3 338 343 337
3 238 337 343
3 344 238 343
3 244 238 344
3 245 339 239
3 245 345 339
3 340 246 240
3 346 246 340
3 247 347 341
3 247 341 242
3 342 341 348
3 348 341 347
3 344 249 244
3 349 249 344
3 250 345 245
3 250 350 345
3 346 251 246
3 351 251 346
3 353 352 347
3 247 353 347
3 252 353 247
3 347 352 348
3 253 249 354
3 249 355 354
3 249 349 355
3 354 356 253
3 356 250 253
3 356 350 250
3 351 254 251
3 357 254 351
3 255 353 252
3 255 358 353
3 354 355 359
3 359 355 360
3 356 354 361
3 361 354 359
3 357 256 254
3 362 256 357
3 257 358 255
3 257 363 358
3 359 360 364
3 364 360 365
3 361 359 366
3 359 367 366
3 359 364 367
3 367 368 366
3 362 258 256
3 369 258 362
3 259 371 370
3 363 259 370
3 257 259 363
3 371 372 370
3 365 373 364
3 375 374 373
3 374 364 373
3 374 367 364
3 368 367 376
3 376 367 374
3 260 258 377
3 258 378 377
3 258 369 378
3 262 371 259
3 261 260 377
3 262 263 371
3 263 372 371
3 263 379 372
3 374 375 380
3 380 375 381
3 376 374 382
3 382 374 380
3 377 378 383
3 383 378 384
3 383 264 261
3 383 261 377
3 265 379 263
3 265 385 379
3 380 381 386
3 386 381 387
3 382 380 388
3 388 380 386
3 383 384 389
3 389 384 390
3 389 266 264
3 389 264 383
3 267 385 265
3 267 391 385
3 386 387 392
3 392 387 393
3 388 386 394
3 394 386 392
3 389 390 395
3 395 390 396
3 395 268 266
3 395 266 389
3 269 391 267
3 269 397 391
3 400 399 398
3 400 398 393
3 398 392 393
3 398 401 392
3 394 392 402
3 402 392 401
3 395 396 271
3 396 270 271
3 396 403 270
3 395 271 268
3 274 397 269
3 274 404 397
3 398 399 405
3 405 399 406
3 398 407 401
3 398 405 407
3 402 401 408
3 408 401 407
3 403 275 270
3 409 275 403
3 411 410 276
3 411 276 277
3 274 276 404
3 404 276 410
3 405 406 412
3 412 406 413
3 415 407 414
3 407 412 414
3 407 405 412
3 407 415 408
3 417 416 279
3 279 416 278
3 279 275 409
3 279 409 417
3 280 411 277
3 280 418 411
3 413 419 412
3 412 419 414
3 416 281 278
3 420 281 416
3 283 421 282
3 421 422 282
3 422 280 282
3 422 418 280
3 425 424 423
3 423 426 284
3 420 423 284
3 281 420 284
3 423 420 425
3 426 427 284
3 284 427 283
3 427 428 283
3 428 421 283
3 421 428 422
3 424 429 423
3 423 429 426
3 426 429 430
3 426 430 427
3 431 285 286
3 287 432 286
3 286 432 431
3 432 287 433
3 287 434 433
3 287 289 434
3 435 289 291
3 435 434 289
3 291 293 435
3 435 293 436
3 438 437 431
3 437 285 431
3 437 295 285
3 438 431 432
3 438 432 439
3 439 432 433
3 440 436 293
3 440 293 298
3 298 299 440
3 440 299 441
3 443 442 302
3 302 442 301
3 302 295 437
3 302 437 443
3 304 444 305
3 445 306 305
3 445 305 444
3 445 307 306
3 308 441 299
3 308 446 441
3 449 448 447
3 447 450 309
3 442 447 309
3 301 442 309
3 447 442 449
3 451 310 309
3 451 309 450
3 444 304 310
3 451 444 310
3 452 444 451
3 444 453 445
3 444 452 453
3 453 311 307
3 453 307 445
3 313 446 308
3 313 454 446
3 456 455 315
3 315 455 314
3 458 457 316
3 457 315 316
3 457 456 315
3 457 458 448
3 458 447 448
3 458 459 447
3 447 460 450
3 447 459 460
3 450 461 451
3 450 460 461
3 451 462 452
3 451 461 462
3 462 317 318
3 453 462 318
3 452 462 453
3 453 318 311
3 464 463 319
3 464 319 320
3 313 319 454
3 454 319 463
3 455 321 314
3 465 321 455
3 322 466 458
3 322 458 316
3 458 467 459
3 458 466 467
3 459 468 460
3 459 467 468
3 460 469 461
3 460 468 469
3 461 470 462
3 461 469 470
3 470 323 317
3 470 317 462
3 324 464 320
3 324 471 464
3 473 326 472
3 326 465 472
3 326 321 465
3 322 328 466
3 473 472 474
3 466 328 329
3 475 466 329
3 467 466 475
3 467 476 468
3 467 475 476
3 468 477 469
3 468 476 477
3 469 478 470
3 469 477 478
3 478 330 323
3 478 323 470
3 331 471 324
3 331 479 471
3 480 333 473
3 473 333 326
3 473 474 481
3 473 481 480
3 334 482 475
3 334 475 329
3 475 483 476
3 475 482 483
3 476 484 477
3 476 483 484
3 477 485 478
3 477 484 485
3 485 335 330
3 485 330 478
3 336 479 331
3 336 486 479
3 487 338 480
3 480 338 333
3 480 481 488
3 480 488 487
3 339 489 482
3 339 482 334
3 482 490 483
3 482 489 490
3 483 491 484
3 483 490 491
3 484 492 485
3 484 491 492
3 492 340 335
3 492 335 485
3 342 486 336
3 342 493 486
3 487 343 338
3 495 494 344
3 495 344 343
3 488 495 343
3 487 488 343
3 345 496 339
3 496 494 339
3 495 339 494
3 339 495 489
3 497 489 495
3 489 497 496
3 496 498 489
3 345 498 496
3 496 497 494
3 489 499 490
3 489 498 499
3 490 500 491
3 490 499 500
3 491 501 492
3 491 500 501
3 501 346 340
3 501 340 492
3 348 493 342
3 348 502 493
3 503 349 494
3 494 349 344
3 498 345 504
3 350 504 345
3 505 494 497
3 494 505 503
3 507 499 506
3 499 504 506
3 499 498 504
3 509 508 507
3 508 499 507
3 508 500 499
3 500 510 501
3 500 508 510
3 510 351 346
3 510 346 501
3 512 511 352
3 512 352 353
3 348 352 502
3 502 352 511
3 513 355 503
3 503 355 349
3 504 350 514
3 356 514 350
3 515 503 505
3 503 515 513
3 506 504 516
3 516 504 514
3 508 509 517
3 517 509 518
3 508 519 510
3 508 517 519
3 519 357 351
3 519 351 510
3 358 512 353
3 358 520 512
3 521 360 513
3 513 360 355
3 514 356 522
3 361 522 356
3 523 513 515
3 513 523 521
3 516 514 524
3 524 514 522
3 517 518 525
3 525 518 526
3 517 527 519
3 517 525 527
3 527 362 357
3 527 357 519
3 363 520 358
3 363 528 520
3 530 529 521
3 529 360 521
3 529 365 360
3 361 366 522
3 521 523 530
3 366 368 522
3 368 524 522
3 368 531 524
3 525 526 532
3 532 526 533
3 525 534 527
3 525 532 534
3 534 369 362
3 534 362 527
3 363 370 535
3 536 363 535
3 528 363 536
3 372 535 370
3 373 365 537
3 365 538 537
3 365 529 538
3 537 375 373
3 376 531 368
3 376 539 531
3 532 533 540
3 540 533 541
3 532 542 534
3 532 540 542
3 542 378 369
3 542 369 534
3 543 536 535
3 535 372 543
3 372 544 543
3 372 379 544
3 537 538 545
3 545 538 546
3 545 381 375
3 545 375 537
3 382 539 376
3 382 547 539
3 540 541 548
3 548 541 549
3 540 550 542
3 540 548 550
3 550 384 378
3 550 378 542
3 385 544 379
3 385 551 544
3 545 546 552
3 552 546 553
3 552 387 381
3 552 381 545
3 388 547 382
3 388 554 547
3 548 549 555
3 555 549 556
3 548 557 550
3 548 555 557
3 557 390 384
3 557 384 550
3 391 551 385
3 391 558 551
3 553 559 552
3 387 552 559
3 560 387 559
3 393 387 560
3 394 562 561
3 554 394 561
3 388 394 554
3 561 562 556
3 562 555 556
3 562 563 555
3 555 564 557
3 555 563 564
3 564 396 390
3 564 390 557
3 397 558 391
3 397 565 558
3 566 399 400
3 567 566 400
3 393 567 400
3 560 567 393
3 402 568 562
3 402 562 394
3 562 569 563
3 562 568 569
3 563 570 564
3 563 569 570
3 570 403 396
3 570 396 564
3 404 565 397
3 404 571 565
3 572 406 566
3 566 406 399
3 566 567 573
3 566 573 572
3 408 574 568
3 408 568 402
3 568 575 569
3 568 574 575
3 569 576 570
3 569 575 576
3 576 409 403
3 576 403 570
3 411 577 410
3 577 578 410
3 578 404 410
3 578 571 404
3 579 413 572
3 572 413 406
3 581 580 573
3 580 582 573
3 415 573 582
3 573 415 572
3 414 572 415
3 572 414 580
3 580 579 572
3 581 579 580
3 580 414 582
3 574 408 415
3 582 574 415
3 583 574 582
3 574 584 575
3 574 583 584
3 584 416 417
3 576 584 417
3 575 584 576
3 576 417 409
3 586 585 577
3 411 586 577
3 418 586 411
3 577 585 578
3 579 419 413
3 587 579 581
3 579 587 419
3 588 419 587
3 419 588 414
3 582 414 588
3 582 589 583
3 582 588 589
3 583 590 584
3 583 589 590
3 590 420 416
3 590 416 584
3 422 586 418
3 422 591 586
3 587 592 588
3 588 592 589
3 589 592 593
3 594 424 425
3 589 594 425
3 590 589 425
3 593 594 589
3 590 425 420
3 596 595 428
3 596 428 427
3 422 428 591
3 591 428 595
3 594 597 424
3 424 597 429
3 429 598 430
3 597 598 429
3 427 430 596
3 596 430 598
3 599 433 434
3 435 600 434
3 434 600 599
3 436 600 435
3 601 437 438
3 439 602 438
3 438 602 601
3 433 599 439
3 599 602 439
3 599 603 602
3 604 599 600
3 603 599 604
3 440 605 436
3 605 600 436
3 605 604 600
3 441 605 440
3 606 442 443
3 437 601 443
3 601 606 443
3 601 607 606
3 608 601 602
3 607 601 608
3 609 602 603
3 608 602 609
3 610 603 604
3 609 603 610
3 611 604 605
3 610 604 611
3 446 611 441
3 441 611 605
3 612 448 449
3 442 606 449
3 606 612 449
3 606 613 612
3 614 606 607
3 613 606 614
3 615 607 608
3 614 607 615
3 616 608 609
3 615 608 616
3 617 609 610
3 616 609 617
3 618 610 611
3 617 610 618
3 454 618 446
3 446 618 611
3 619 455 456
3 457 620 456
3 456 620 619
3 448 612 457
3 612 620 457
3 612 621 620
3 622 612 613
3 621 612 622
3 623 613 614
3 622 613 623
3 624 614 615
3 623 614 624
3 625 615 616
3 624 615 625
3 626 616 617
3 625 616 626
3 464 626 463
3 626 618 463
3 626 617 618
3 463 618 454
3 627 465 619
3 619 465 455
3 628 619 620
3 627 619 628
3 629 620 621
3 628 620 629
3 630 621 622
3 629 621 630
3 631 622 623
3 630 622 631
3 632 623 624
3 631 623 632
3 633 624 625
3 632 624 633
3 634 625 626
3 633 625 634
3 471 634 464
3 464 634 626
3 627 472 465
3 472 627 474
3 627 635 474
3 627 628 635
3 636 628 629
3 635 628 636
3 637 629 630
3 636 629 637
3 638 630 631
3 637 630 638
3 639 631 632
3 638 631 639
3 640 632 633
3 639 632 640
3 641 633 634
3 640 633 641
3 479 641 471
3 471 641 634
3 642 481 635
3 635 481 474
3 643 635 636
3 642 635 643
3 644 636 637
3 643 636 644
3 645 637 638
3 644 637 645
3 646 638 639
3 645 638 646
3 647 639 640
3 646 639 647
3 648 640 641
3 647 640 648
3 486 648 479
3 479 648 641
3 649 488 642
3 642 488 481
3 650 642 643
3 649 642 650
3 651 643 644
3 650 643 651
3 652 644 645
3 651 644 652
3 653 645 646
3 652 645 653
3 654 646 647
3 653 646 654
3 655 647 648
3 654 647 655
3 493 655 486
3 486 655 648
3 649 495 488
3 495 649 497
3 649 656 497
3 649 650 656
3 657 650 651
3 656 650 657
3 658 651 652
3 657 651 658
3 659 652 653
3 658 652 659
3 660 653 654
3 659 653 660
3 661 654 655
3 660 654 661
3 502 661 493
3 493 661 655
3 662 505 656
3 656 505 497
3 506 662 507
3 662 657 507
3 662 656 657
3 507 657 509
3 657 663 509
3 657 658 663
3 664 658 659
3 663 658 664
3 665 659 660
3 664 659 665
3 512 665 511
3 665 661 511
3 665 660 661
3 511 661 502
3 666 515 662
3 662 515 505
3 516 666 506
3 506 666 662
3 667 518 663
3 663 518 509
3 668 663 664
3 667 663 668
3 669 664 665
3 668 664 669
3 520 669 512
3 512 669 665
3 670 523 666
3 666 523 515
3 524 670 516
3 516 670 666
3 671 526 667
3 667 526 518
3 672 667 668
3 671 667 672
3 673 668 669
3 672 668 673
3 528 673 520
3 520 673 669
3 674 529 530
3 523 670 530
3 670 674 530
3 670 675 674
3 531 675 524
3 524 675 670
3 676 533 671
3 671 533 526
3 677 671 672
3 676 671 677
3 678 672 673
3 677 672 678
3 536 678 528
3 528 678 673
3 679 538 674
3 674 538 529
3 680 674 675
3 679 674 680
3 539 680 531
3 531 680 675
3 681 541 676
3 676 541 533
3 682 676 677
3 681 676 682
3 683 677 678
3 682 677 683
3 543 684 536
3 684 678 536
3 684 683 678
3 544 684 543
3 685 546 679
3 679 546 538
3 686 679 680
3 685 679 686
3 547 686 539
3 539 686 680
3 687 549 681
3 681 549 541
3 688 681 682
3 687 681 688
3 689 682 683
3 688 682 689
3 690 683 684
3 689 683 690
3 551 690 544
3 544 690 684
3 691 553 685
3 685 553 546
3 692 685 686
3 691 685 692
3 554 692 547
3 547 692 686
3 693 556 687
3 687 556 549
3 694 687 688
3 693 687 694
3 695 688 689
3 694 688 695
3 696 689 690
3 695 689 696
3 558 696 551
3 551 696 690
3 691 559 553
3 559 691 560
3 691 697 560
3 691 692 697
3 561 698 554
3 698 692 554
3 698 697 692
3 556 693 561
3 693 698 561
3 693 699 698
3 700 693 694
3 699 693 700
3 701 694 695
3 700 694 701
3 702 695 696
3 701 695 702
3 565 702 558
3 558 702 696
3 703 567 697
3 697 567 560
3 704 697 698
3 703 697 704
3 705 698 699
3 704 698 705
3 706 699 700
3 705 699 706
3 707 700 701
3 706 700 707
3 708 701 702
3 707 701 708
3 571 708 565
3 565 708 702
3 709 573 703
3 703 573 567
3 710 703 704
3 709 703 710
3 711 704 705
3 710 704 711
3 712 705 706
3 711 705 712
3 713 706 707
3 712 706 713
3 714 707 708
3 713 707 714
3 578 714 571
3 571 714 708
3 715 581 709
3 709 581 573
3 716 709 710
3 715 709 716
3 717 710 711
3 716 710 717
3 718 711 712
3 717 711 718
3 719 712 713
3 718 712 719
3 586 719 585
3 719 714 585
3 719 713 714
3 585 714 578
3 720 587 715
3 715 587 581
3 721 715 716
3 720 715 721
3 722 716 717
3 721 716 722
3 718 724 723
3 722 718 723
3 717 718 722
3 726 725 724
3 718 726 724
3 719 726 718
3 591 726 586
3 586 726 719
3 720 592 587
3 592 720 593
3 593 720 721
3 593 721 594
3 721 727 594
3 721 722 727
3 722 723 728
3 729 722 728
3 727 722 729
3 729 728 725
3 729 725 726
3 596 729 726
3 595 596 726
3 595 726 591
3 727 597 594
3 597 727 598
3 598 727 729
3 598 729 596
3 730 723 724
3 725 730 724
3 730 728 723
3 728 730 725
