ply
format ascii 1.0
comment None
element vertex 1011
property float x
property float y
property float z
element face 2026
property list uchar int vertex_indices
end_header
26.000 50.000 31.000
26.000 50.000 31.000
26.000 50.000 31.000
26.000 50.000 31.000
26.000 50.000 31.000
26.000 52.000 30.000
26.000 52.000 30.000
26.000 52.000 30.000
26.000 52.000 30.000
26.000 52.000 30.000
26.000 54.000 29.000
26.000 54.000 29.000
26.000 54.000 29.000
26.000 54.000 29.000
26.000 54.000 29.000
25.884 57.470 25.994
25.918 57.497 25.987
25.918 57.477 26.019
26.115 57.627 26.132
25.966 57.566 25.980
26.188 57.756 26.021
26.117 57.671 26.074
26.300 57.888 26.037
26.366 66.203 24.366
26.454 66.258 24.108
26.666 65.928 24.134
26.448 65.954 24.697
26.324 66.237 24.664
26.380 66.082 24.997
26.490 66.496 24.211
26.498 66.299 24.901
27.457 48.914 33.520
27.450 48.920 33.506
27.474 48.898 33.555
27.531 48.844 33.672
26.000 50.000 31.000
27.534 48.842 33.677
26.000 52.000 30.000
26.000 54.000 29.000
26.230 57.689 26.137
26.485 57.976 26.128
26.544 57.963 26.389
26.591 57.964 26.395
27.000 58.000 26.500
26.876 58.294 26.631
26.792 58.356 26.068
26.745 58.383 26.136
27.000 58.500 26.000
27.000 58.500 27.000
27.000 59.000 26.500
27.114 58.740 26.171
26.721 66.274 23.815
27.234 66.262 23.464
27.176 65.882 23.547
27.230 65.411 23.870
26.959 65.432 24.648
26.633 65.771 25.157
26.546 66.042 25.264
26.839 65.801 25.508
26.894 66.598 23.741
26.549 66.794 23.854
26.730 66.833 23.811
26.566 66.786 24.050
26.975 66.558 24.655
26.902 66.143 25.398
26.552 66.890 23.844
27.883 48.515 34.388
27.822 48.572 34.263
27.924 48.476 34.472
27.931 48.470 34.486
27.503 48.871 33.613
27.616 48.764 33.845
27.601 48.779 33.814
27.714 48.673 34.043
27.853 48.543 34.326
27.762 48.628 34.141
27.671 48.714 33.955
28.517 56.517 29.000
28.517 56.517 29.000
28.517 56.517 29.000
28.517 56.517 29.000
28.517 56.517 29.000
27.093 58.455 26.700
27.500 59.000 26.000
27.500 59.000 27.000
27.489 58.803 26.693
28.000 59.000 26.500
27.295 58.690 26.726
27.335 58.832 26.185
27.410 58.905 26.197
27.557 58.943 26.295
27.574 58.920 26.534
27.515 58.939 26.322
27.457 58.917 26.259
27.588 64.910 24.222
27.728 65.023 23.623
28.231 64.633 23.787
28.211 64.378 24.674
27.508 64.884 24.888
27.848 64.641 25.391
28.000 65.932 23.095
27.725 65.407 23.293
27.219 65.289 25.437
27.355 65.698 25.905
27.806 66.417 23.513
26.747 66.825 24.007
27.360 66.667 24.040
28.178 66.499 24.927
27.749 66.238 25.831
29.635 47.072 35.592
29.689 47.161 35.406
29.660 47.114 35.504
29.622 47.050 35.638
27.894 48.505 34.410
29.659 47.112 35.508
27.758 48.632 34.133
29.517 55.517 30.000
29.517 55.517 30.000
29.517 55.517 30.000
29.517 55.517 30.000
28.517 56.517 29.000
29.517 55.517 30.000
28.517 56.517 29.000
28.517 56.517 29.000
28.517 56.517 29.000
28.517 56.517 29.000
28.517 56.517 29.000
27.584 58.874 26.560
27.574 58.930 26.372
29.051 63.482 26.685
29.504 63.346 25.816
29.750 62.930 26.493
29.542 62.865 27.214
29.048 63.392 27.583
29.392 62.884 27.767
28.621 63.996 25.666
28.888 63.912 24.818
29.249 63.657 25.176
28.454 64.261 26.655
28.653 64.163 27.419
29.212 63.303 28.186
28.852 64.089 28.136
29.105 64.009 28.590
28.164 64.975 23.264
28.473 65.326 22.844
28.942 64.717 23.191
28.991 64.190 24.111
27.908 64.915 26.179
28.287 64.973 27.171
28.644 64.989 28.038
29.001 64.828 28.681
29.035 65.799 22.480
28.965 66.355 25.255
29.450 66.115 25.032
29.009 66.346 24.736
29.452 66.073 25.606
27.984 65.686 26.686
28.515 65.791 27.672
29.096 65.939 28.694
29.059 66.262 23.114
28.702 66.420 24.054
28.805 66.388 26.036
28.531 66.274 26.969
29.057 66.499 27.999
29.765 47.289 35.138
29.841 47.416 34.875
29.718 47.210 35.304
29.642 47.082 35.570
29.637 47.074 35.587
29.895 47.506 34.687
29.944 47.589 34.514
29.921 47.550 34.595
29.788 47.328 35.059
29.904 47.521 34.655
29.694 47.170 35.387
29.940 47.582 34.528
29.517 55.517 30.000
29.517 55.517 30.000
29.517 55.517 30.000
29.517 55.517 30.000
29.517 55.517 30.000
28.517 56.517 29.000
29.517 55.517 30.000
29.912 63.024 26.067
30.244 62.926 26.402
30.237 62.579 27.063
30.008 62.523 27.831
29.501 62.805 28.031
29.705 62.882 28.327
29.352 63.818 24.669
29.789 63.720 25.141
30.051 63.328 25.811
29.511 63.528 28.672
29.453 64.398 28.966
30.094 63.770 28.983
29.367 65.245 22.307
30.042 64.703 22.908
29.617 64.374 23.659
29.746 64.111 24.373
30.143 65.047 25.444
29.975 65.548 25.927
30.295 64.611 25.870
30.303 65.250 26.477
29.462 65.378 29.148
30.117 64.824 29.246
29.609 65.705 21.911
30.171 65.764 21.381
29.754 65.461 21.732
29.986 65.517 25.127
29.816 65.997 24.496
29.533 66.174 26.323
30.028 65.958 26.780
29.526 66.017 29.240
30.146 65.869 29.420
30.112 66.216 22.125
30.174 66.372 23.088
29.930 66.256 23.778
29.493 66.557 27.259
29.660 66.961 28.189
30.399 67.062 27.983
29.565 66.811 28.733
29.777 66.473 29.215
30.227 67.225 28.600
31.000 46.000 37.000
31.000 46.000 37.000
31.000 46.000 37.000
31.000 46.000 37.000
29.770 47.297 35.122
29.677 47.142 35.447
31.000 46.000 37.000
29.896 47.507 34.684
29.517 55.517 30.000
30.746 62.250 27.693
31.215 62.173 27.822
31.291 62.039 28.115
30.919 62.176 28.244
30.517 62.682 26.824
30.895 62.614 27.346
30.424 62.553 28.458
30.057 63.066 28.699
30.933 62.905 28.905
30.195 63.896 25.557
30.447 63.633 26.271
30.624 63.005 26.745
30.951 64.023 29.054
30.215 65.190 21.734
31.013 65.039 21.277
30.997 64.699 22.447
31.019 64.583 23.385
30.428 64.534 23.971
30.195 64.531 24.968
30.729 65.157 24.479
30.581 65.506 27.201
30.596 64.534 26.723
31.006 65.470 27.737
30.959 64.701 27.515
31.379 65.123 28.159
31.038 65.309 29.343
30.996 65.845 20.091
31.248 66.145 19.872
31.258 65.764 20.081
31.040 65.445 20.458
30.727 65.676 20.693
30.876 65.798 24.202
30.395 66.365 27.496
30.881 66.018 27.700
31.332 65.857 28.051
30.897 65.972 29.524
31.186 66.248 20.036
31.099 66.298 20.677
31.308 66.610 21.981
30.857 66.476 22.783
31.030 66.245 23.611
31.265 66.636 27.934
31.063 67.298 27.933
30.150 66.963 29.090
30.718 66.511 29.386
31.233 67.616 28.143
30.904 67.114 28.952
31.000 46.000 37.000
31.657 62.071 28.233
31.960 61.992 28.774
32.160 62.155 28.663
31.261 62.275 28.725
32.223 62.150 29.245
31.481 62.348 27.960
31.808 62.201 28.286
31.843 62.872 28.986
31.903 64.459 22.070
32.428 64.356 21.484
32.835 63.867 22.262
32.561 64.096 22.966
30.900 63.587 27.192
31.362 62.967 27.892
31.306 63.980 28.113
31.432 63.734 28.714
31.644 63.088 28.479
31.678 65.083 20.761
32.066 65.296 20.463
32.515 64.795 20.914
32.090 64.589 23.440
31.627 64.674 24.038
32.038 65.049 24.246
31.477 64.796 28.795
31.397 66.236 19.953
31.689 65.922 20.164
31.622 65.781 24.134
32.060 65.547 24.177
31.973 65.970 23.781
32.259 65.878 28.589
32.064 65.511 29.204
31.864 65.912 29.458
31.794 66.572 19.896
31.560 66.598 19.929
31.743 66.365 19.910
31.388 66.433 19.997
31.684 66.612 20.228
31.882 66.847 21.171
32.233 66.784 22.161
31.713 66.470 22.973
31.670 67.492 27.562
32.512 66.644 27.981
31.716 66.573 29.194
31.966 66.856 20.100
32.375 67.080 20.691
32.543 67.080 21.470
31.776 68.288 27.203
32.119 68.260 26.538
31.917 67.957 26.979
31.859 68.267 27.714
32.129 67.697 28.211
31.816 67.105 28.710
32.083 68.857 26.519
32.430 68.904 26.065
32.345 68.548 26.099
32.176 68.852 27.109
32.095 69.181 26.651
32.394 68.304 27.752
32.242 69.220 26.390
33.387 61.609 29.941
33.583 61.246 30.150
33.788 61.112 30.344
33.962 61.343 30.366
32.917 62.088 29.282
33.271 61.605 29.792
32.945 62.243 29.498
33.801 62.060 29.976
31.888 62.502 28.426
32.661 62.428 29.106
32.016 62.686 28.746
33.654 62.545 29.650
33.336 63.967 21.720
33.594 63.245 22.326
33.233 63.607 23.058
32.778 64.317 23.735
33.109 63.939 23.758
32.541 64.431 24.101
33.075 64.193 23.989
32.518 65.531 20.485
33.140 64.878 21.147
32.454 64.607 24.004
32.464 65.207 23.933
32.979 65.028 23.623
33.062 64.574 23.957
32.698 65.594 29.409
32.995 65.577 29.090
33.326 65.474 29.326
33.033 65.619 29.447
32.181 66.089 20.046
32.317 66.448 20.000
32.681 66.090 20.312
32.726 66.122 23.073
33.576 65.564 22.874
33.347 66.412 22.367
33.425 65.819 28.646
32.763 65.984 29.245
32.522 66.782 20.125
32.867 67.192 20.706
32.969 67.162 21.254
33.195 67.092 21.015
32.951 66.862 22.039
33.342 66.843 21.626
32.428 67.521 26.844
33.131 67.398 26.299
33.356 66.773 27.033
33.623 66.129 28.068
32.955 66.188 28.470
33.024 66.105 28.805
32.405 66.448 28.788
32.791 66.735 28.500
32.450 67.010 20.258
32.640 68.002 26.113
32.806 68.398 25.842
33.314 67.770 25.883
33.025 67.640 28.098
32.938 68.752 25.954
32.231 69.261 26.700
32.526 69.115 26.910
33.097 68.547 27.416
32.569 69.126 26.184
32.521 69.247 26.524
33.804 61.039 30.362
34.090 60.831 30.653
34.027 60.871 30.575
34.219 61.042 30.654
34.267 60.697 30.839
34.304 62.387 22.180
34.294 62.499 22.124
34.389 62.372 22.148
34.379 62.433 22.305
33.611 62.042 29.754
33.864 61.729 30.067
33.923 61.206 30.352
34.308 61.863 30.344
34.315 60.956 30.756
34.088 62.660 22.253
34.076 63.014 22.112
34.207 62.521 22.377
33.714 62.552 29.620
34.222 63.004 29.765
34.516 63.249 29.838
34.347 62.882 29.918
34.063 63.643 22.073
33.880 62.932 22.668
33.768 63.415 23.316
33.665 63.948 23.735
34.600 63.422 29.828
33.309 65.728 21.127
33.827 64.531 21.868
33.868 64.178 23.597
33.725 64.738 23.447
33.909 65.472 28.892
33.634 65.426 29.318
33.570 65.562 29.282
32.914 66.512 20.443
33.320 66.646 21.076
33.867 65.257 22.221
33.578 66.153 21.902
34.035 64.868 22.895
33.979 65.773 28.435
34.320 65.732 27.924
34.419 65.511 28.277
33.521 65.768 29.062
32.957 66.979 20.539
34.010 67.069 26.327
34.394 66.207 27.201
33.459 66.156 28.561
33.848 66.543 28.370
33.830 65.913 28.690
33.438 68.199 25.805
33.952 67.675 25.909
34.038 67.702 28.011
33.616 68.523 26.151
33.018 68.982 26.353
32.938 69.023 26.801
33.773 68.665 26.867
34.242 68.325 27.580
34.188 60.868 30.691
34.258 60.613 30.866
34.316 60.663 30.887
34.424 62.595 22.244
34.125 62.359 29.956
34.219 61.654 30.349
34.306 61.016 30.714
34.418 63.137 22.391
34.224 62.720 22.667
34.477 62.615 22.507
34.551 62.753 22.477
34.360 62.948 22.865
34.546 62.830 30.048
34.753 63.477 29.900
34.677 63.186 29.991
34.293 63.882 22.455
34.508 63.047 22.738
34.432 63.511 22.797
34.206 63.556 23.223
34.805 63.746 29.820
34.854 63.769 29.843
34.775 63.625 29.860
34.169 64.534 22.527
34.219 64.164 23.057
33.899 65.415 29.176
34.906 63.895 29.827
34.799 65.700 27.768
34.627 65.580 28.347
34.109 65.594 28.886
34.808 66.160 28.320
34.904 66.670 26.645
35.333 66.224 27.239
34.782 67.056 28.237
34.087 68.023 26.010
34.858 67.500 26.349
35.234 67.926 28.050
34.527 68.260 26.541
35.118 68.477 27.408
34.295 60.664 30.867
34.551 62.765 22.637
34.814 63.541 29.918
34.881 63.760 29.870
35.151 65.869 27.861
35.632 66.916 26.748
36.162 66.777 27.255
35.737 66.414 27.760
35.821 67.100 28.177
35.812 67.563 26.709
36.270 67.915 28.357
35.657 68.240 26.966
36.087 68.800 27.632
36.725 68.911 27.535
36.317 68.715 28.202
36.646 69.238 28.003
36.346 67.383 26.987
36.812 67.324 27.379
36.729 67.073 27.850
36.938 67.515 28.391
36.342 68.032 27.034
37.017 68.095 27.346
37.035 68.241 28.603
37.424 68.934 27.557
37.152 68.926 28.637
37.083 69.613 28.039
37.590 69.659 27.848
37.143 69.508 28.404
37.499 69.941 28.232
37.970 43.368 36.975
38.103 43.329 36.472
38.200 42.948 36.890
38.225 42.737 37.588
37.936 43.382 37.920
38.076 42.822 38.279
37.908 43.546 36.310
37.919 43.621 36.131
37.960 43.528 36.158
37.899 43.771 36.705
37.980 44.048 37.576
37.980 43.323 38.570
38.018 44.021 38.511
38.258 43.597 39.027
37.918 43.747 36.337
38.044 44.038 36.875
38.303 44.525 37.716
38.255 44.705 38.484
38.718 44.957 38.567
38.387 44.510 39.090
38.579 45.079 39.059
37.601 67.653 27.745
37.780 67.292 28.302
37.975 67.657 28.715
37.732 68.450 27.569
37.699 68.476 28.778
38.097 69.161 27.648
37.780 69.161 28.710
38.453 69.862 27.775
37.856 69.853 28.489
38.089 70.102 28.139
38.534 42.234 38.403
38.823 42.361 37.823
39.165 41.863 38.502
39.042 41.820 38.870
38.693 42.196 38.960
39.372 41.925 39.312
38.397 43.023 36.800
38.476 42.710 37.182
38.262 42.773 38.803
38.759 42.797 39.229
38.076 43.696 36.402
38.428 43.487 36.793
38.379 44.082 37.085
38.680 44.480 37.797
38.801 43.856 37.444
39.171 44.299 38.287
38.878 43.814 39.393
39.258 44.894 39.031
38.910 44.794 39.402
38.923 45.193 39.203
38.529 67.374 28.201
38.921 66.870 28.754
39.246 66.965 28.512
38.878 67.251 28.925
39.563 66.665 29.177
38.516 68.266 27.758
39.165 67.588 28.129
38.772 68.099 28.749
39.365 67.252 28.916
38.973 69.215 27.586
38.400 69.359 28.664
39.310 69.877 27.597
38.602 69.930 28.382
38.867 70.163 27.961
40.162 41.336 39.731
40.420 41.321 39.643
40.701 40.983 40.095
40.759 41.030 40.419
39.339 42.147 38.254
39.618 41.953 38.693
39.793 41.673 39.166
39.958 41.827 39.635
40.506 41.587 40.001
38.795 43.030 37.308
39.282 42.745 37.966
39.180 43.476 37.825
39.588 43.405 38.412
40.298 42.128 39.643
39.710 42.643 39.475
39.716 44.128 38.947
39.726 43.902 39.550
39.661 44.509 39.338
39.285 44.903 39.408
41.230 46.331 40.299
41.194 46.330 40.294
41.197 46.330 40.294
41.326 46.342 40.322
41.263 46.339 40.311
39.793 66.197 29.087
39.821 66.317 28.798
40.497 65.773 29.115
40.319 66.046 29.442
39.811 66.888 28.590
40.050 66.529 29.455
39.550 68.362 27.678
39.862 67.537 28.190
39.346 67.324 28.531
39.548 67.749 28.814
39.924 67.205 29.294
39.977 69.202 27.376
40.074 68.334 29.054
39.297 69.075 28.652
40.150 69.787 27.445
39.460 69.941 28.169
39.554 70.112 27.756
40.987 39.986 42.963
41.018 40.072 42.410
41.085 39.996 42.997
41.013 39.925 43.490
41.033 40.000 43.537
41.209 40.133 44.059
40.841 41.265 39.851
41.125 41.075 40.232
41.147 40.750 40.971
41.093 40.741 41.241
41.058 40.324 41.772
41.139 40.362 42.199
41.174 40.236 43.030
41.193 40.194 43.613
41.143 40.106 43.873
42.062 41.263 45.897
41.991 41.111 45.596
41.943 41.057 45.588
42.140 41.501 46.214
39.708 42.527 38.554
40.052 42.266 39.180
40.759 42.056 39.585
41.520 41.079 41.545
41.216 41.519 40.655
41.581 40.791 42.412
41.524 40.580 43.315
42.142 41.468 46.117
40.128 43.109 39.055
40.345 42.601 39.407
40.943 42.934 39.544
40.367 42.669 39.646
40.850 42.224 40.014
40.215 43.724 39.399
40.869 43.049 39.786
41.307 46.338 40.315
41.390 46.344 40.331
41.496 46.355 40.355
41.287 46.340 40.315
41.524 46.363 40.366
41.424 46.358 40.349
41.429 46.358 40.349
41.563 46.373 40.380
41.529 46.371 40.374
40.759 66.026 28.680
41.300 65.457 29.154
41.063 65.553 29.549
40.930 65.929 29.793
41.598 65.761 30.124
40.652 66.713 28.263
41.229 66.309 30.050
40.582 66.606 29.705
40.763 68.303 27.383
41.145 67.278 27.803
40.624 67.703 29.583
41.019 69.200 27.097
41.743 69.071 26.831
41.672 68.642 26.945
40.746 68.684 29.301
40.570 69.472 28.477
41.545 69.371 27.089
40.887 69.639 27.512
40.112 69.930 27.821
41.231 40.310 42.106
41.522 40.513 42.245
41.388 40.284 42.762
41.308 40.149 43.387
41.191 40.052 43.755
41.437 40.333 44.405
41.276 41.513 39.979
41.727 41.453 40.551
41.773 41.012 41.632
41.440 40.424 44.137
41.683 40.680 44.986
41.802 40.829 44.952
41.986 41.133 45.757
42.146 41.450 46.177
41.840 42.108 39.979
42.019 41.846 41.096
42.402 42.243 40.384
42.283 41.793 41.041
42.499 42.037 41.249
42.126 41.482 41.705
42.113 41.260 42.603
41.832 40.844 43.926
41.984 41.065 45.321
42.131 41.363 46.014
42.285 41.933 46.727
42.348 42.326 47.121
42.258 41.774 46.542
42.392 42.480 47.301
41.974 42.724 39.776
42.455 42.641 39.976
41.792 42.445 40.392
42.619 42.346 41.105
42.369 42.320 47.130
42.468 43.062 47.874
42.508 43.429 48.231
42.456 42.958 47.777
42.513 43.426 48.236
41.885 42.920 39.918
42.527 43.565 48.366
42.567 43.984 48.761
42.566 43.991 48.769
42.554 43.846 48.635
42.585 44.186 48.953
42.589 44.231 48.993
41.516 46.354 40.357
41.595 46.360 40.372
41.650 46.369 40.387
41.450 46.354 40.348
41.569 46.369 40.377
41.656 46.377 40.395
41.622 46.379 40.393
41.578 46.375 40.384
42.363 48.690 43.363
42.363 48.690 43.363
42.363 48.690 43.363
42.363 48.690 43.363
42.363 48.690 43.363
42.363 48.690 43.363
42.363 48.690 43.363
42.363 48.690 43.363
41.797 65.284 29.713
42.122 65.186 29.702
42.159 65.204 29.938
42.211 65.504 30.477
41.577 65.696 28.798
42.003 65.439 29.346
42.126 66.030 30.815
41.554 66.413 28.333
42.056 65.972 28.865
41.282 67.141 30.031
41.875 66.596 30.481
41.763 67.967 27.361
41.927 67.249 27.891
41.386 68.404 29.872
42.147 67.562 30.328
42.053 68.852 26.856
42.130 68.478 27.103
41.256 69.385 29.409
41.646 69.374 30.006
42.183 69.019 30.284
41.959 69.168 26.994
41.760 69.540 27.714
41.701 70.030 28.847
42.342 70.170 28.374
41.671 70.167 29.913
41.899 69.838 30.449
42.369 70.451 28.896
41.975 70.820 29.450
42.433 70.691 29.109
41.772 70.478 30.686
41.764 71.113 30.480
41.821 70.959 31.199
42.185 71.433 29.175
42.382 71.453 28.727
42.408 71.034 28.814
41.940 71.744 29.963
41.858 71.944 30.763
41.832 71.566 31.267
42.275 71.938 29.047
42.134 72.232 29.582
42.396 72.526 29.376
42.124 72.763 30.494
42.233 72.765 29.826
41.791 40.771 42.486
41.642 40.523 43.291
41.502 40.364 44.025
42.253 41.403 42.083
42.141 41.169 42.859
41.819 40.757 44.104
41.820 40.802 45.055
42.009 41.123 45.727
42.710 42.378 40.916
42.649 41.994 41.718
42.688 41.888 42.060
42.875 42.275 41.567
42.665 41.862 42.155
42.170 41.435 46.120
42.098 41.235 45.833
42.098 41.225 45.871
42.227 41.547 46.303
42.337 42.123 46.925
42.653 42.950 39.903
42.749 42.785 40.187
42.578 42.814 40.305
42.875 42.236 41.696
42.253 41.671 46.434
42.462 42.966 47.783
42.471 43.042 47.861
42.541 43.693 48.491
42.524 43.004 39.921
42.535 43.632 48.429
42.572 44.027 48.804
42.574 44.059 48.835
42.591 44.255 49.017
42.596 44.308 49.064
42.591 44.241 49.002
42.600 44.352 49.106
41.682 46.367 40.389
41.724 46.372 40.399
41.726 46.377 40.404
42.603 44.379 49.130
41.652 46.370 40.388
41.667 46.379 40.398
42.363 48.690 43.363
42.363 48.690 43.363
42.363 48.690 43.363
42.363 48.690 43.363
42.363 48.690 43.363
42.363 48.690 43.363
42.363 48.690 43.363
42.387 65.464 30.064
43.032 65.609 32.995
42.999 65.517 32.805
43.062 65.418 32.976
43.090 65.508 32.998
42.481 66.145 29.628
42.562 65.971 31.613
42.721 65.733 31.206
42.720 66.016 30.515
42.897 65.659 32.257
42.873 65.950 32.639
43.003 66.049 33.002
43.093 65.854 33.008
42.347 66.896 28.689
42.657 67.166 29.854
42.381 66.818 31.330
42.767 66.886 30.553
42.674 66.775 32.346
42.910 66.707 32.919
43.081 66.546 32.993
42.393 68.156 27.904
42.785 67.884 29.075
42.991 67.852 29.901
42.834 67.538 30.478
42.404 67.093 30.590
42.470 67.872 31.013
42.569 67.838 32.230
42.808 67.726 32.932
43.060 67.542 33.063
42.221 68.906 27.277
42.435 69.292 28.019
42.750 68.988 28.889
43.036 68.567 29.752
42.412 69.374 30.962
42.474 69.032 32.189
42.735 68.992 33.143
43.030 68.664 33.318
42.686 70.056 28.674
42.765 69.256 29.961
42.625 69.880 29.449
42.325 69.689 30.435
42.840 69.771 30.199
42.034 70.263 31.198
42.283 70.155 32.186
42.568 70.051 33.137
43.025 69.548 33.658
42.920 70.155 33.763
43.242 70.266 33.897
42.504 70.904 28.559
42.626 71.143 28.435
42.691 70.872 28.565
42.892 70.829 29.050
42.567 70.668 28.908
42.881 70.521 29.510
42.705 70.400 29.008
42.098 71.342 32.112
42.425 70.923 33.026
42.859 71.120 33.818
43.289 70.999 34.114
42.556 71.426 28.520
42.475 71.913 28.818
42.662 71.733 28.705
42.701 72.258 29.163
42.050 72.411 31.573
42.304 72.453 32.532
42.606 72.023 33.324
43.125 72.178 34.126
43.305 71.670 34.300
42.723 72.923 29.702
42.281 73.352 31.413
42.399 73.295 32.225
42.676 73.183 33.090
43.055 73.089 33.829
42.507 73.320 30.127
42.531 73.945 30.964
42.832 74.209 30.693
42.602 74.090 31.837
42.802 74.111 32.708
43.087 74.115 33.498
42.821 74.613 31.024
43.008 74.739 31.023
42.827 74.664 31.488
42.983 74.776 32.277
43.190 74.976 33.137
42.989 74.917 31.278
43.134 75.026 31.803
43.379 75.315 32.739
43.449 77.461 34.071
43.492 77.253 34.022
43.502 76.878 33.909
43.465 77.082 34.014
43.421 77.732 34.136
43.439 77.666 34.145
43.418 77.685 34.143
43.401 77.862 34.174
42.908 42.171 41.886
42.187 41.393 46.119
42.790 43.019 40.012
42.524 43.507 48.312
42.572 44.024 48.801
42.598 44.321 49.077
41.744 46.374 40.404
42.363 48.690 43.363
43.057 65.508 32.752
42.988 66.380 31.303
43.050 65.913 32.208
43.112 65.708 32.813
43.178 67.412 31.241
43.200 66.791 32.094
43.151 66.265 32.711
43.243 68.304 30.622
43.431 68.366 31.498
43.363 67.876 32.150
43.220 67.225 32.727
43.202 69.259 30.406
43.492 69.253 31.259
43.539 69.012 32.178
43.327 68.547 32.927
43.421 70.414 30.806
43.683 70.110 32.041
43.607 69.864 32.956
43.325 69.651 33.531
42.697 71.365 28.541
42.881 71.612 29.042
43.257 71.469 30.007
43.673 71.597 31.145
43.824 71.185 32.014
43.822 70.802 32.837
43.697 70.973 33.756
43.106 72.607 29.949
43.598 72.501 30.963
43.909 72.239 32.016
43.992 71.777 33.088
43.503 72.312 34.414
44.014 71.794 33.888
43.921 71.680 34.157
43.731 71.903 34.311
42.975 73.584 30.348
43.440 73.513 30.974
43.838 73.270 31.911
44.062 72.871 32.897
43.456 73.067 34.287
44.109 72.449 33.722
43.778 72.934 34.363
43.231 74.409 31.108
43.647 74.233 31.881
43.948 73.914 32.782
43.409 74.091 34.042
44.079 73.392 33.594
43.712 73.986 34.236
43.167 74.921 31.364
43.408 74.902 31.906
43.704 74.889 32.754
43.396 75.163 33.791
43.914 74.523 33.524
43.608 75.151 34.086
43.627 75.980 33.661
43.454 76.048 33.639
43.518 76.361 34.015
43.532 77.038 34.053
43.460 77.355 34.133
43.464 77.494 34.153
43.417 77.758 34.176
44.024 72.100 34.166
44.014 72.743 34.147
43.948 73.757 34.066
43.788 74.959 33.999
43.624 76.155 34.033
43.523 76.990 34.113
3 2 1 0
3 0 3 2
3 1 4 0
3 0 4 3
3 7 6 5
3 5 8 7
3 6 9 5
3 5 9 8
3 12 11 10
3 10 13 12
3 11 14 10
3 10 14 13
3 17 16 15
3 15 18 17
3 15 16 19
3 19 16 20
3 18 15 21
3 21 15 19
3 20 22 19
3 19 22 21
3 25 24 23
3 27 26 23
3 23 26 25
3 27 28 26
3 24 29 23
3 23 29 27
3 27 29 30
3 27 30 28
3 33 32 31
3 31 34 33
3 35 1 2
3 3 35 2
3 32 36 31
3 31 36 34
3 35 4 1
3 4 35 3
3 37 6 7
3 8 37 7
3 37 9 6
3 9 37 8
3 38 11 12
3 13 38 12
3 38 14 11
3 14 38 13
3 39 16 17
3 18 39 17
3 40 20 39
3 39 20 16
3 21 41 18
3 42 18 41
3 18 42 39
3 43 39 42
3 39 43 40
3 41 44 42
3 46 22 45
3 22 20 45
3 45 20 40
3 47 45 40
3 40 22 46
3 22 40 21
3 41 21 40
3 43 41 40
3 41 43 48
3 47 48 43
3 48 47 49
3 46 49 47
3 40 46 47
3 41 48 44
3 45 50 46
3 46 50 49
3 53 52 51
3 24 25 51
3 25 53 51
3 25 54 53
3 55 25 26
3 55 54 25
3 57 56 28
3 56 26 28
3 56 55 26
3 57 58 56
3 52 59 51
3 59 61 60
3 59 60 29
3 51 59 29
3 24 51 29
3 29 60 62
3 63 29 62
3 30 29 63
3 28 30 57
3 30 64 57
3 30 63 64
3 57 64 58
3 61 65 60
3 60 65 62
3 68 67 66
3 66 69 68
3 70 32 33
3 72 70 71
3 70 33 71
3 34 73 71
3 34 71 33
3 75 74 73
3 74 66 73
3 67 71 73
3 67 73 66
3 66 74 69
3 70 36 32
3 70 72 36
3 72 76 36
3 73 34 36
3 73 36 76
3 73 76 75
3 79 78 77
3 77 80 79
3 78 81 77
3 77 81 80
3 82 43 42
3 44 82 42
3 83 45 47
3 82 85 84
3 86 84 85
3 84 86 83
3 84 83 49
3 47 49 83
3 49 47 48
3 43 48 47
3 48 43 82
3 48 82 84
3 85 82 87
3 82 44 87
3 48 84 87
3 48 87 44
3 89 50 88
3 50 45 88
3 88 45 83
3 90 88 83
3 83 50 89
3 50 83 49
3 84 49 83
3 86 84 83
3 84 86 91
3 90 91 86
3 91 90 92
3 89 92 90
3 83 89 90
3 84 91 87
3 88 93 89
3 89 93 92
3 96 95 94
3 98 97 94
3 94 97 96
3 98 99 97
3 101 100 53
3 53 100 52
3 54 94 95
3 101 54 95
3 53 54 101
3 94 54 55
3 94 55 98
3 102 99 98
3 55 102 98
3 56 102 55
3 56 58 102
3 102 58 103
3 100 104 52
3 52 104 59
3 106 105 61
3 59 106 61
3 104 106 59
3 63 62 105
3 106 63 105
3 107 63 106
3 63 108 64
3 107 108 63
3 58 64 103
3 103 64 108
3 105 65 61
3 65 105 62
3 111 110 109
3 109 112 111
3 113 67 68
3 110 114 109
3 113 68 69
3 109 114 112
3 115 72 71
3 71 67 115
3 67 113 115
3 74 75 115
3 74 115 113
3 74 113 69
3 115 76 72
3 76 115 75
3 118 117 116
3 116 119 118
3 120 78 79
3 117 121 116
3 120 79 80
3 116 121 119
3 123 81 122
3 81 78 122
3 122 78 120
3 124 122 120
3 124 120 125
3 120 80 125
3 81 123 125
3 81 125 80
3 122 126 123
3 123 126 125
3 127 86 85
3 87 127 85
3 128 88 90
3 90 86 128
3 86 127 128
3 91 92 128
3 91 128 127
3 91 127 87
3 128 93 88
3 93 128 92
3 131 130 129
3 133 132 129
3 129 132 131
3 133 134 132
3 137 136 135
3 137 135 130
3 135 129 130
3 135 138 129
3 129 139 133
3 129 138 139
3 134 133 140
3 133 141 140
3 133 139 141
3 141 142 140
3 145 144 143
3 95 96 143
3 96 145 143
3 96 146 145
3 97 135 136
3 146 97 136
3 96 97 146
3 135 97 99
3 147 135 99
3 138 135 147
3 138 148 139
3 138 147 148
3 139 149 141
3 139 148 149
3 142 141 150
3 150 141 149
3 143 144 101
3 144 100 101
3 144 151 100
3 143 101 95
3 154 153 152
3 99 102 147
3 152 153 155
3 147 102 103
3 156 147 103
3 148 147 156
3 148 157 149
3 148 156 157
3 150 149 158
3 158 149 157
3 151 159 100
3 100 159 104
3 104 160 106
3 159 160 104
3 152 107 154
3 107 160 154
3 107 106 160
3 155 161 152
3 161 107 152
3 161 108 107
3 103 108 156
3 108 162 156
3 108 161 162
3 156 162 157
3 157 162 163
3 157 163 158
3 166 165 164
3 110 111 164
3 111 166 164
3 111 167 166
3 111 112 167
3 167 112 168
3 171 170 169
3 173 172 169
3 172 164 169
3 165 171 169
3 165 169 164
3 164 172 110
3 172 114 110
3 172 174 114
3 112 114 168
3 168 114 174
3 170 175 169
3 169 175 173
3 176 117 118
3 119 176 118
3 178 121 177
3 121 117 177
3 177 117 176
3 179 177 176
3 179 176 180
3 176 119 180
3 121 178 180
3 121 180 119
3 181 122 124
3 177 182 178
3 181 124 125
3 178 182 180
3 181 126 122
3 126 181 125
3 183 130 131
3 183 131 184
3 131 185 184
3 131 132 185
3 187 186 134
3 186 132 134
3 186 185 132
3 187 188 186
3 189 136 137
3 190 189 137
3 190 137 130
3 191 190 130
3 183 191 130
3 191 183 184
3 140 187 134
3 193 192 142
3 142 192 140
3 192 188 140
3 188 187 140
3 193 194 192
3 196 195 145
3 145 195 144
3 197 145 146
3 197 196 145
3 146 136 189
3 198 146 189
3 197 146 198
3 201 200 199
3 190 198 189
3 202 200 201
3 150 203 193
3 150 193 142
3 194 193 204
3 204 193 203
3 207 206 205
3 195 207 205
3 151 195 205
3 144 195 151
3 209 208 153
3 209 153 154
3 200 210 155
3 208 200 155
3 153 208 155
3 199 200 208
3 200 202 211
3 200 211 210
3 158 212 203
3 158 203 150
3 204 203 213
3 213 203 212
3 206 214 205
3 205 214 151
3 214 159 151
3 214 215 159
3 159 216 160
3 215 216 159
3 154 160 209
3 209 160 216
3 210 161 155
3 211 217 210
3 217 161 210
3 217 162 161
3 217 219 218
3 163 217 218
3 162 217 163
3 218 220 163
3 163 220 158
3 220 221 158
3 221 212 158
3 212 221 213
3 219 222 218
3 218 222 220
3 225 224 223
3 223 226 225
3 227 165 166
3 167 228 166
3 166 228 227
3 224 229 223
3 228 167 168
3 223 229 226
3 230 170 171
3 171 165 230
3 165 227 230
3 172 173 230
3 172 230 227
3 172 227 174
3 174 227 228
3 174 228 168
3 230 175 170
3 175 230 173
3 231 177 179
3 180 231 179
3 231 182 177
3 182 231 180
3 234 233 232
3 232 235 234
3 236 184 185
3 233 237 232
3 237 185 232
3 185 186 232
3 185 237 236
3 239 238 188
3 188 238 186
3 238 235 186
3 235 232 186
3 239 240 238
3 241 190 191
3 242 241 191
3 242 191 184
3 243 242 184
3 236 243 184
3 243 236 237
3 192 239 188
3 192 194 239
3 194 240 239
3 194 244 240
3 247 246 245
3 195 196 245
3 196 247 245
3 196 248 247
3 249 196 197
3 249 248 196
3 251 249 250
3 249 198 250
3 249 197 198
3 198 190 250
3 190 241 250
3 201 199 250
3 201 250 241
3 253 252 202
3 253 202 201
3 242 253 201
3 241 242 201
3 255 254 252
3 255 252 253
3 256 254 255
3 204 244 194
3 204 257 244
3 260 259 258
3 262 261 258
3 258 261 260
3 261 262 246
3 246 262 245
3 262 206 245
3 206 207 245
3 245 207 195
3 251 250 208
3 209 251 208
3 263 251 209
3 208 250 199
3 264 211 252
3 252 211 202
3 265 252 254
3 264 252 265
3 254 256 266
3 254 266 265
3 213 257 204
3 213 267 257
3 259 268 258
3 258 268 262
3 262 268 269
3 262 269 206
3 269 214 206
3 269 270 214
3 214 271 215
3 270 271 214
3 215 272 216
3 271 272 215
3 209 216 263
3 263 216 272
3 264 217 211
3 264 265 273
3 219 264 273
3 274 219 273
3 264 219 217
3 221 220 275
3 265 266 273
3 275 276 221
3 276 213 221
3 276 267 213
3 274 277 219
3 219 277 222
3 220 222 275
3 222 278 275
3 222 277 278
3 275 278 276
3 279 224 225
3 226 279 225
3 279 229 224
3 229 279 226
3 280 233 234
3 282 280 281
3 280 234 281
3 235 283 281
3 235 281 234
3 283 284 281
3 286 285 280
3 285 233 280
3 285 237 233
3 235 238 283
3 280 282 286
3 238 240 283
3 240 284 283
3 240 287 284
3 290 289 288
3 288 291 290
3 292 242 243
3 237 285 293
3 292 237 293
3 294 292 293
3 243 237 292
3 296 295 294
3 296 294 293
3 296 287 295
3 287 244 295
3 287 240 244
3 299 298 297
3 299 297 289
3 289 297 288
3 297 246 288
3 246 247 288
3 300 291 288
3 247 300 288
3 248 300 247
3 301 248 249
3 301 300 248
3 249 251 301
3 301 251 302
3 292 253 242
3 253 292 255
3 255 292 294
3 255 294 256
3 294 303 256
3 294 295 303
3 257 303 244
3 244 303 295
3 304 259 260
3 298 305 297
3 305 260 297
3 260 261 297
3 260 305 304
3 297 261 246
3 308 307 306
3 307 302 306
3 302 263 306
3 302 251 263
3 310 309 303
3 309 256 303
3 309 266 256
3 303 257 310
3 257 311 310
3 257 267 311
3 313 268 312
3 268 259 312
3 312 259 304
3 314 312 304
3 268 315 269
3 315 304 269
3 305 269 304
3 269 305 316
3 314 316 305
3 316 314 315
3 315 313 316
3 268 313 315
3 315 314 304
3 317 270 269
3 317 269 316
3 270 317 318
3 319 270 318
3 271 270 319
3 306 272 308
3 272 319 308
3 272 271 319
3 272 306 263
3 321 320 273
3 273 320 274
3 273 266 309
3 273 309 321
3 276 311 267
3 276 322 311
3 312 323 313
3 313 323 316
3 316 323 324
3 316 324 317
3 317 324 325
3 317 325 318
3 328 327 326
3 326 329 277
3 320 326 277
3 274 320 277
3 326 320 328
3 277 329 330
3 331 277 330
3 278 277 331
3 276 278 322
3 322 278 331
3 334 333 332
3 336 335 332
3 335 326 332
3 327 334 332
3 327 332 326
3 326 335 329
3 329 335 337
3 329 337 330
3 333 338 332
3 332 338 336
3 341 340 339
3 339 342 341
3 344 343 281
3 281 343 282
3 345 339 284
3 339 344 284
3 344 281 284
3 339 340 344
3 342 339 346
3 346 339 345
3 347 285 286
3 282 343 348
3 347 282 348
3 349 347 348
3 286 282 347
3 348 350 345
3 287 348 345
3 284 287 345
3 349 348 287
3 345 350 346
3 352 351 290
3 290 351 289
3 354 353 291
3 353 290 291
3 353 352 290
3 356 355 354
3 354 355 353
3 356 357 355
3 347 293 285
3 293 347 296
3 296 347 349
3 296 349 287
3 359 358 299
3 299 358 298
3 299 289 351
3 299 351 359
3 300 354 291
3 301 360 300
3 360 361 300
3 362 300 361
3 300 362 354
3 363 354 362
3 354 363 360
3 360 356 354
3 301 356 360
3 360 363 361
3 361 363 302
3 363 357 302
3 356 301 302
3 356 302 357
3 366 365 364
3 364 367 366
3 370 369 368
3 358 370 368
3 305 358 368
3 298 358 305
3 373 372 371
3 371 372 362
3 371 362 361
3 308 371 361
3 307 308 361
3 307 361 302
3 364 365 310
3 365 309 310
3 365 374 309
3 310 311 364
3 311 367 364
3 311 375 367
3 368 369 314
3 369 312 314
3 369 376 312
3 305 368 314
3 379 378 377
3 381 380 378
3 381 378 379
3 380 381 373
3 380 373 371
3 318 380 371
3 319 318 371
3 319 371 308
3 384 383 382
3 320 321 382
3 321 384 382
3 321 385 384
3 374 386 309
3 386 387 309
3 388 309 387
3 309 388 321
3 389 321 388
3 321 389 386
3 386 385 321
3 374 385 386
3 386 389 387
3 387 375 388
3 375 322 388
3 375 311 322
3 376 390 312
3 312 390 323
3 378 324 377
3 324 390 377
3 324 323 390
3 324 378 325
3 325 378 380
3 325 380 318
3 393 392 391
3 393 391 383
3 383 391 382
3 391 327 382
3 327 328 382
3 382 328 320
3 389 388 331
3 330 389 331
3 394 389 330
3 331 388 322
3 391 392 334
3 392 333 334
3 392 395 333
3 327 391 334
3 335 336 396
3 335 396 397
3 398 335 397
3 337 335 398
3 330 337 394
3 394 337 398
3 395 399 333
3 333 399 338
3 336 338 396
3 338 400 396
3 338 399 400
3 396 400 397
3 401 340 341
3 403 401 402
3 401 341 402
3 342 404 402
3 342 402 341
3 404 405 402
3 408 407 406
3 406 409 408
3 411 410 344
3 344 410 343
3 344 340 401
3 412 344 401
3 411 344 412
3 403 412 401
3 414 404 413
3 342 413 404
3 413 342 346
3 404 414 405
3 406 407 415
3 415 407 416
3 409 406 417
3 417 406 415
3 410 418 343
3 343 418 348
3 418 420 419
3 350 418 419
3 348 418 350
3 419 421 350
3 421 346 350
3 421 413 346
3 415 416 352
3 416 351 352
3 416 422 351
3 423 417 415
3 352 423 415
3 353 423 352
3 424 353 355
3 424 423 353
3 355 357 424
3 424 357 425
3 420 426 419
3 419 426 421
3 427 358 359
3 428 427 359
3 351 428 359
3 422 428 351
3 430 429 363
3 430 363 362
3 357 363 425
3 425 363 429
3 432 431 366
3 366 431 365
3 366 367 432
3 432 367 433
3 434 369 370
3 358 427 370
3 427 434 370
3 427 435 434
3 427 428 436
3 437 427 436
3 435 427 437
3 372 373 437
3 436 372 437
3 438 372 436
3 362 372 430
3 430 372 438
3 441 440 439
3 431 441 439
3 374 431 439
3 365 431 374
3 375 433 367
3 375 442 433
3 443 376 434
3 434 376 369
3 377 443 379
3 443 435 379
3 443 434 435
3 379 435 381
3 381 435 437
3 381 437 373
3 445 444 384
3 384 444 383
3 385 439 440
3 445 385 440
3 384 385 445
3 447 446 389
3 447 385 446
3 385 447 439
3 448 439 447
3 439 448 374
3 446 374 448
3 448 387 446
3 446 387 389
3 385 374 446
3 375 387 442
3 442 387 448
3 443 390 376
3 390 443 377
3 450 449 393
3 393 449 392
3 393 383 444
3 393 444 450
3 394 447 389
3 394 451 447
3 453 395 452
3 395 449 452
3 395 392 449
3 455 454 453
3 455 453 452
3 398 397 454
3 455 398 454
3 456 398 455
3 394 398 451
3 451 398 456
3 453 399 395
3 399 453 400
3 400 453 454
3 400 454 397
3 458 457 402
3 402 457 403
3 402 405 458
3 458 405 459
3 460 407 408
3 409 460 408
3 461 410 411
3 412 462 411
3 411 462 461
3 414 413 463
3 462 463 413
3 463 462 457
3 412 457 462
3 457 412 403
3 405 414 459
3 459 414 463
3 464 416 460
3 460 416 407
3 417 465 409
3 466 409 465
3 409 466 460
3 467 460 466
3 460 467 464
3 465 468 466
3 461 418 410
3 461 462 469
3 420 461 469
3 470 420 469
3 461 420 418
3 462 413 469
3 413 471 469
3 413 421 471
3 472 422 464
3 464 422 416
3 465 417 423
3 467 473 464
3 474 464 473
3 464 474 472
3 424 465 423
3 465 424 468
3 475 468 424
3 468 475 473
3 474 473 475
3 425 475 424
3 426 420 476
3 420 477 476
3 420 470 477
3 476 478 426
3 478 421 426
3 478 471 421
3 479 428 472
3 472 428 422
3 480 472 474
3 479 472 480
3 430 480 429
3 480 475 429
3 480 474 475
3 429 475 425
3 481 431 432
3 477 482 476
3 481 432 433
3 476 482 478
3 479 436 428
3 436 479 438
3 438 479 480
3 438 480 430
3 484 483 441
3 441 483 440
3 484 441 431
3 485 484 431
3 481 485 431
3 484 485 486
3 442 485 433
3 433 485 481
3 488 487 445
3 445 487 444
3 445 440 483
3 445 483 488
3 486 485 448
3 447 486 448
3 489 486 447
3 448 485 442
3 490 449 450
3 491 490 450
3 444 491 450
3 487 491 444
3 451 489 447
3 451 492 489
3 490 452 449
3 491 493 490
3 493 452 490
3 493 455 452
3 455 494 456
3 493 494 455
3 451 456 492
3 492 456 494
3 495 457 458
3 459 495 458
3 495 463 457
3 463 495 459
3 496 467 466
3 468 496 466
3 497 470 469
3 471 497 469
3 496 473 467
3 473 496 468
3 498 477 497
3 497 477 470
3 478 498 471
3 471 498 497
3 498 482 477
3 482 498 478
3 499 483 484
3 486 499 484
3 501 500 488
3 488 500 487
3 488 483 499
3 502 488 499
3 501 488 502
3 499 486 502
3 486 503 502
3 486 489 503
3 500 491 487
3 504 491 500
3 492 503 489
3 492 505 503
3 504 506 491
3 491 506 493
3 506 508 507
3 494 506 507
3 493 506 494
3 507 509 494
3 509 492 494
3 509 505 492
3 508 510 507
3 507 510 509
3 511 500 501
3 511 501 512
3 501 513 512
3 501 502 513
3 502 503 513
3 513 503 514
3 515 504 511
3 511 504 500
3 511 512 516
3 511 516 515
3 505 514 503
3 505 517 514
3 515 506 504
3 508 506 515
3 516 508 515
3 518 508 516
3 509 517 505
3 509 519 517
3 510 508 520
3 508 521 520
3 508 518 521
3 520 522 510
3 522 509 510
3 522 519 509
3 521 523 520
3 520 523 522
3 526 525 524
3 528 527 524
3 524 527 526
3 528 529 527
3 532 531 530
3 532 530 525
3 530 524 525
3 530 533 524
3 524 534 528
3 524 533 534
3 529 528 535
3 528 536 535
3 528 534 536
3 536 537 535
3 531 538 530
3 530 538 533
3 533 538 539
3 533 539 534
3 534 539 540
3 542 541 540
3 541 534 540
3 541 536 534
3 537 536 543
3 543 536 541
3 542 544 541
3 541 544 543
3 546 545 513
3 513 545 512
3 513 514 546
3 546 514 547
3 545 516 512
3 548 516 545
3 517 547 514
3 517 549 547
3 548 518 516
3 550 518 548
3 519 549 517
3 519 551 549
3 550 521 518
3 552 521 550
3 522 551 519
3 522 553 551
3 552 554 521
3 521 554 523
3 522 523 553
3 553 523 554
3 557 556 555
3 559 558 555
3 555 558 557
3 559 560 558
3 562 561 526
3 526 561 525
3 527 555 556
3 562 527 556
3 526 527 562
3 555 527 529
3 563 555 529
3 559 555 563
3 560 559 564
3 564 559 563
3 565 531 532
3 525 561 566
3 565 525 566
3 567 565 566
3 532 525 565
3 569 568 567
3 569 567 566
3 529 535 563
3 568 569 570
3 535 537 563
3 537 564 563
3 537 571 564
3 565 538 531
3 538 565 539
3 539 565 567
3 539 567 540
3 540 567 568
3 542 540 568
3 570 542 568
3 572 542 570
3 543 571 537
3 543 573 571
3 572 574 542
3 542 574 544
3 543 544 573
3 573 544 574
3 575 545 546
3 577 575 576
3 575 546 576
3 547 578 576
3 547 576 546
3 578 579 576
3 581 580 575
3 580 545 575
3 580 548 545
3 577 581 575
3 583 578 582
3 547 582 578
3 582 547 549
3 578 583 579
3 580 550 548
3 584 550 580
3 551 582 549
3 551 585 582
3 584 552 550
3 586 552 584
3 553 585 551
3 553 587 585
3 586 588 552
3 552 588 554
3 553 554 587
3 587 554 588
3 591 590 589
3 589 592 591
3 594 593 557
3 557 593 556
3 595 557 558
3 595 594 557
3 596 589 560
3 589 595 560
3 595 558 560
3 589 590 595
3 592 589 597
3 597 589 596
3 598 561 562
3 556 593 599
3 598 556 599
3 600 598 599
3 562 556 598
3 601 600 599
3 603 602 596
3 560 603 596
3 564 603 560
3 596 602 597
3 598 566 561
3 566 598 569
3 569 598 600
3 570 569 600
3 601 570 600
3 604 570 601
3 571 603 564
3 571 605 603
3 607 572 606
3 572 604 606
3 572 570 604
3 606 605 607
3 605 573 607
3 605 571 573
3 607 574 572
3 574 607 573
3 610 609 608
3 609 611 608
3 610 612 609
3 609 612 611
3 615 614 613
3 613 616 615
3 613 614 576
3 614 577 576
3 614 617 577
3 576 579 613
3 579 616 613
3 579 618 616
3 620 619 581
3 581 619 580
3 617 621 577
3 617 583 621
3 583 617 622
3 620 622 617
3 622 620 582
3 621 582 620
3 620 581 621
3 621 581 577
3 583 582 621
3 622 623 583
3 623 579 583
3 623 618 579
3 619 584 580
3 624 584 619
3 626 625 622
3 582 626 622
3 585 626 582
3 622 625 623
3 624 586 584
3 627 586 624
3 587 626 585
3 587 628 626
3 627 629 586
3 586 629 588
3 587 588 628
3 628 588 629
3 632 631 630
3 634 633 630
3 630 633 632
3 634 635 633
3 637 636 591
3 591 636 590
3 639 638 592
3 638 591 592
3 638 637 591
3 641 640 639
3 639 640 638
3 640 641 631
3 641 630 631
3 641 642 630
3 644 634 643
3 634 642 643
3 634 630 642
3 634 644 635
3 647 646 645
3 645 648 647
3 649 593 594
3 595 650 594
3 594 650 649
3 651 650 595
3 590 651 595
3 636 651 590
3 653 652 639
3 592 653 639
3 597 653 592
3 639 652 641
3 641 652 654
3 641 654 642
3 642 654 655
3 642 655 643
3 646 656 645
3 645 656 648
3 649 599 593
3 599 649 601
3 649 657 601
3 649 650 657
3 659 658 651
3 658 660 651
3 602 651 660
3 651 602 650
3 603 650 602
3 650 603 658
3 658 657 650
3 659 657 658
3 658 603 660
3 660 661 602
3 661 597 602
3 661 653 597
3 662 604 657
3 657 604 601
3 605 660 603
3 660 605 663
3 662 663 605
3 663 662 659
3 657 659 662
3 660 663 661
3 662 606 604
3 606 662 605
3 665 664 608
3 608 664 610
3 608 611 665
3 665 611 666
3 664 667 610
3 610 667 612
3 611 668 666
3 668 611 669
3 612 669 611
3 669 612 670
3 667 670 612
3 669 671 668
3 670 672 669
3 669 672 671
3 674 673 615
3 615 673 614
3 676 675 616
3 675 615 616
3 675 674 615
3 676 677 675
3 673 617 614
3 678 617 673
3 680 679 676
3 616 680 676
3 618 680 616
3 676 679 677
3 682 681 620
3 620 681 619
3 620 617 678
3 620 678 682
3 623 680 618
3 623 683 680
3 686 685 684
3 681 686 684
3 624 681 684
3 619 681 624
3 688 687 625
3 688 625 626
3 623 625 683
3 683 625 687
3 685 689 684
3 627 624 684
3 690 627 684
3 689 690 684
3 627 690 691
3 690 688 691
3 688 628 691
3 688 626 628
3 691 629 627
3 629 691 628
3 694 693 692
3 631 632 692
3 632 694 692
3 632 695 694
3 696 632 633
3 696 695 632
3 633 635 696
3 696 635 697
3 698 636 637
3 638 699 637
3 637 699 698
3 693 700 692
3 700 638 692
3 638 640 692
3 638 700 699
3 692 640 631
3 643 701 644
3 697 635 702
3 635 701 702
3 701 703 702
3 635 644 701
3 646 647 703
3 647 702 703
3 647 704 702
3 647 648 704
3 704 648 705
3 706 651 698
3 698 651 636
3 707 652 653
3 709 708 699
3 706 699 708
3 699 706 698
3 699 700 709
3 711 707 710
3 707 711 652
3 654 652 711
3 654 712 655
3 711 712 654
3 643 655 701
3 655 713 701
3 655 712 713
3 701 713 703
3 703 713 714
3 703 714 646
3 714 656 646
3 714 715 656
3 648 716 705
3 716 648 717
3 656 717 648
3 717 656 718
3 715 718 656
3 717 719 716
3 721 720 706
3 720 651 706
3 720 659 651
3 708 721 706
3 723 707 722
3 653 722 707
3 722 653 661
3 707 723 710
3 718 724 717
3 724 725 717
3 725 726 717
3 727 719 717
3 727 717 726
3 726 728 727
3 720 729 659
3 659 729 663
3 661 663 722
3 722 663 729
3 725 730 726
3 730 731 726
3 731 732 726
3 733 728 726
3 733 726 732
3 732 734 733
3 731 735 732
3 732 735 734
3 737 736 665
3 665 736 664
3 665 666 737
3 737 666 738
3 736 739 664
3 664 739 667
3 739 670 667
3 670 739 740
3 666 668 738
3 741 738 668
3 668 671 741
3 741 671 742
3 740 743 670
3 670 743 672
3 671 672 742
3 742 672 743
3 746 745 744
3 744 747 746
3 744 745 748
3 748 745 749
3 747 744 750
3 750 744 748
3 749 751 748
3 748 751 750
3 754 753 752
3 752 755 754
3 756 673 674
3 753 757 752
3 757 674 752
3 674 675 752
3 674 757 756
3 675 677 752
3 677 755 752
3 677 758 755
3 760 759 756
3 759 673 756
3 759 678 673
3 679 680 761
3 756 757 760
3 761 762 679
3 762 677 679
3 762 758 677
3 764 763 682
3 682 763 681
3 682 678 759
3 682 759 764
3 683 765 761
3 683 761 680
3 762 761 766
3 766 761 765
3 768 767 686
3 686 767 685
3 686 681 763
3 686 763 768
3 688 769 687
3 765 683 687
3 769 765 687
3 770 765 769
3 766 765 771
3 771 765 770
3 767 772 685
3 685 772 689
3 689 773 690
3 772 773 689
3 690 773 688
3 773 774 688
3 774 769 688
3 774 773 775
3 769 776 770
3 769 774 776
3 771 770 777
3 777 770 776
3 775 778 774
3 780 779 778
3 779 774 778
3 779 776 774
3 777 776 781
3 776 782 781
3 776 779 782
3 782 783 781
3 786 785 784
3 786 784 780
3 784 779 780
3 784 787 779
3 789 782 788
3 782 787 788
3 782 779 787
3 782 789 783
3 785 790 784
3 792 791 790
3 791 784 790
3 791 787 784
3 788 787 793
3 793 787 791
3 792 794 791
3 791 794 793
3 795 693 694
3 695 796 694
3 694 796 795
3 696 797 695
3 695 797 796
3 697 797 696
3 798 700 795
3 795 700 693
3 799 795 796
3 798 795 799
3 800 796 797
3 799 796 800
3 702 801 697
3 801 797 697
3 801 800 797
3 704 802 702
3 702 802 801
3 705 802 704
3 803 708 709
3 798 805 804
3 806 804 805
3 804 806 803
3 804 803 710
3 709 710 803
3 710 709 711
3 700 711 709
3 711 700 798
3 711 798 804
3 711 804 712
3 807 712 804
3 712 807 799
3 805 799 807
3 799 805 798
3 712 799 713
3 713 799 800
3 713 800 714
3 714 800 801
3 714 808 715
3 808 714 809
3 801 809 714
3 809 801 810
3 802 810 801
3 812 811 808
3 810 808 811
3 808 810 802
3 808 802 715
3 705 715 802
3 715 705 718
3 716 718 705
3 718 716 812
3 718 812 808
3 719 812 716
3 814 813 721
3 721 813 720
3 721 708 814
3 803 814 708
3 814 803 815
3 723 815 803
3 815 723 722
3 803 806 723
3 806 816 723
3 804 710 723
3 804 723 816
3 804 816 807
3 809 817 808
3 811 812 817
3 812 724 817
3 718 808 817
3 718 817 724
3 725 724 818
3 812 818 724
3 818 812 819
3 719 819 812
3 819 719 727
3 727 728 819
3 819 728 820
3 813 821 720
3 720 821 729
3 722 729 815
3 815 729 821
3 818 822 725
3 725 822 730
3 822 731 730
3 731 822 823
3 728 733 820
3 824 820 733
3 733 734 824
3 824 734 825
3 735 731 826
3 731 827 826
3 731 823 827
3 826 828 735
3 828 734 735
3 828 825 734
3 830 829 737
3 737 829 736
3 737 738 830
3 830 738 831
3 827 832 826
3 826 832 828
3 829 833 736
3 736 833 739
3 738 741 831
3 834 831 741
3 831 834 833
3 740 833 834
3 833 740 739
3 742 834 741
3 834 743 740
3 743 834 742
3 835 745 746
3 747 835 746
3 836 749 835
3 835 749 745
3 750 837 747
3 838 747 837
3 747 838 835
3 839 835 838
3 835 839 836
3 837 840 838
3 836 751 749
3 836 839 751
3 839 841 751
3 837 750 751
3 837 751 841
3 837 841 840
3 842 753 754
3 755 842 754
3 845 844 843
3 843 846 845
3 847 757 842
3 842 757 753
3 758 848 755
3 849 755 848
3 755 849 842
3 850 842 849
3 842 850 847
3 852 851 848
3 848 851 849
3 851 852 844
3 852 843 844
3 852 853 843
3 846 843 854
3 854 843 853
3 855 759 760
3 757 847 760
3 847 855 760
3 847 856 855
3 848 758 857
3 762 857 758
3 858 847 850
3 847 858 856
3 848 859 852
3 848 857 859
3 852 860 853
3 852 859 860
3 854 853 861
3 861 853 860
3 862 763 764
3 759 855 764
3 855 862 764
3 855 863 862
3 856 865 864
3 863 856 864
3 855 856 863
3 766 866 762
3 766 856 866
3 856 766 865
3 867 865 766
3 865 867 858
3 866 858 867
3 867 857 866
3 866 857 762
3 856 858 866
3 857 868 859
3 857 867 868
3 859 869 860
3 859 868 869
3 861 860 870
3 870 860 869
3 871 767 768
3 763 862 768
3 862 871 768
3 862 872 871
3 873 862 863
3 872 862 873
3 863 864 874
3 863 874 873
3 771 875 867
3 771 867 766
3 867 876 868
3 867 875 876
3 868 877 869
3 868 876 877
3 870 869 878
3 878 869 877
3 871 772 767
3 772 871 773
3 773 871 872
3 773 872 775
3 872 879 775
3 872 873 879
3 873 874 880
3 881 873 880
3 879 873 881
3 777 882 771
3 882 881 771
3 880 771 881
3 771 880 875
3 883 875 880
3 875 883 882
3 882 884 875
3 777 884 882
3 882 883 881
3 875 885 876
3 875 884 885
3 876 886 877
3 876 885 886
3 878 877 887
3 877 888 887
3 877 886 888
3 888 889 887
3 892 891 890
3 892 879 893
3 879 892 775
3 890 775 892
3 775 890 778
3 894 778 890
3 893 896 895
3 896 894 895
3 780 895 894
3 895 780 881
3 778 881 780
3 881 778 896
3 896 879 881
3 893 879 896
3 896 778 894
3 777 781 884
3 881 883 895
3 884 781 783
3 897 884 783
3 885 884 897
3 885 898 886
3 885 897 898
3 886 899 888
3 886 898 899
3 889 888 900
3 900 888 899
3 891 901 890
3 903 902 901
3 785 901 902
3 901 785 890
3 786 890 785
3 890 786 894
3 786 780 894
3 902 903 904
3 788 905 789
3 897 783 789
3 905 897 789
3 906 897 905
3 897 907 898
3 897 906 907
3 909 899 908
3 899 907 908
3 899 898 907
3 899 909 900
3 902 790 785
3 792 790 902
3 904 792 902
3 910 792 904
3 793 911 905
3 793 905 788
3 905 912 906
3 905 911 912
3 906 913 907
3 906 912 913
3 908 907 914
3 914 907 913
3 910 915 792
3 792 915 794
3 794 915 793
3 915 916 793
3 916 911 793
3 916 915 917
3 911 918 912
3 911 916 918
3 912 919 913
3 912 918 919
3 914 913 920
3 920 913 919
3 916 917 921
3 921 917 922
3 916 923 918
3 916 921 923
3 918 924 919
3 918 923 924
3 920 919 925
3 925 919 924
3 922 926 921
3 921 926 923
3 923 926 927
3 923 927 924
3 924 927 928
3 924 928 925
3 931 930 929
3 929 932 931
3 929 930 933
3 933 930 934
3 932 929 935
3 935 929 933
3 934 936 933
3 933 936 935
3 937 806 805
3 807 937 805
3 938 809 810
3 811 938 810
3 939 813 814
3 815 939 814
3 937 816 806
3 816 937 807
3 938 817 809
3 817 938 811
3 940 818 819
3 820 940 819
3 939 821 813
3 821 939 815
3 940 822 818
3 823 822 941
3 822 940 941
3 820 824 941
3 820 941 940
3 825 941 824
3 942 827 941
3 941 827 823
3 828 942 825
3 825 942 941
3 943 829 830
3 831 943 830
3 942 832 827
3 832 942 828
3 943 833 829
3 833 943 831
3 944 839 838
3 840 944 838
3 944 841 839
3 841 944 840
3 945 844 845
3 846 945 845
3 946 850 849
3 851 947 849
3 849 947 946
3 844 945 851
3 945 947 851
3 945 948 947
3 854 948 846
3 846 948 945
3 949 858 946
3 946 858 850
3 950 946 947
3 949 946 950
3 951 947 948
3 950 947 951
3 861 951 854
3 854 951 948
3 952 864 865
3 858 949 865
3 949 952 865
3 949 953 952
3 954 949 950
3 953 949 954
3 955 950 951
3 954 950 955
3 870 955 861
3 861 955 951
3 956 874 952
3 952 874 864
3 957 952 953
3 956 952 957
3 958 953 954
3 957 953 958
3 959 954 955
3 958 954 959
3 878 959 870
3 870 959 955
3 956 880 874
3 880 956 883
3 956 960 883
3 956 957 960
3 961 957 958
3 960 957 961
3 962 958 959
3 961 958 962
3 887 963 878
3 963 959 878
3 963 962 959
3 889 963 887
3 964 891 892
3 893 965 892
3 892 965 964
3 895 966 893
3 893 966 965
3 883 960 895
3 960 966 895
3 960 967 966
3 968 960 961
3 967 960 968
3 969 961 962
3 968 961 969
3 970 962 963
3 969 962 970
3 900 970 889
3 889 970 963
3 964 901 891
3 901 964 903
3 903 964 965
3 903 965 904
3 965 971 904
3 965 966 971
3 972 966 967
3 971 966 972
3 973 967 968
3 972 967 973
3 974 968 969
3 973 968 974
3 975 909 908
3 977 976 970
3 974 970 976
3 970 974 969
3 977 970 978
3 970 900 978
3 909 975 978
3 909 978 900
3 979 910 971
3 971 910 904
3 980 971 972
3 979 971 980
3 981 972 973
3 980 972 981
3 982 973 974
3 981 973 982
3 975 908 983
3 914 983 908
3 984 974 976
3 974 984 982
3 978 975 985
3 985 975 983
3 979 915 910
3 915 979 917
3 979 986 917
3 979 980 986
3 987 980 981
3 986 980 987
3 988 981 982
3 987 981 988
3 983 914 989
3 920 989 914
3 990 982 984
3 982 990 988
3 985 983 991
3 991 983 989
3 992 922 986
3 986 922 917
3 993 986 987
3 992 986 993
3 994 987 988
3 993 987 994
3 989 920 995
3 925 995 920
3 996 988 990
3 988 996 994
3 991 989 997
3 997 989 995
3 992 926 922
3 926 992 927
3 927 992 993
3 927 993 928
3 928 993 994
3 998 994 996
3 994 998 928
3 999 928 998
3 928 999 925
3 995 925 999
3 997 995 1000
3 1000 995 999
3 999 998 931
3 998 930 931
3 998 1001 930
3 931 932 999
3 932 1000 999
3 932 1002 1000
3 1004 934 1003
3 934 1001 1003
3 934 930 1001
3 1003 1002 1004
3 1002 935 1004
3 1002 932 935
3 1004 936 934
3 936 1004 935
3 1005 976 977
3 978 1005 977
3 1006 984 1005
3 1005 984 976
3 985 1006 978
3 978 1006 1005
3 1007 990 1006
3 1006 990 984
3 991 1007 985
3 985 1007 1006
3 1008 996 1007
3 1007 996 990
3 997 1008 991
3 991 1008 1007
3 1009 998 1008
3 1008 998 996
3 1000 1009 997
3 997 1009 1008
3 1010 1001 1009
3 1009 1001 998
3 1002 1010 1000
3 1000 1010 1009
3 1010 1003 1001
3 1003 1010 1002
