ply
format ascii 1.0
comment None
element vertex 451
property float x
property float y
property float z
element face 902
property list uchar int vertex_indices
end_header
23.906 71.034 16.289
24.449 71.058 15.916
24.289 70.501 16.130
24.010 70.486 16.356
23.806 71.491 17.708
23.886 70.800 17.030
24.257 70.657 17.441
24.200 71.177 17.882
23.993 71.376 16.081
23.813 71.658 16.371
23.678 71.645 17.030
23.795 70.813 16.616
23.603 72.118 17.792
24.112 71.820 18.336
23.726 72.394 18.429
24.210 72.523 19.035
23.846 72.453 16.721
23.715 72.946 17.967
23.825 73.088 17.149
23.695 72.968 18.855
23.809 72.801 19.030
24.096 73.565 17.372
24.230 73.878 18.287
23.941 73.642 18.873
23.774 73.332 19.005
24.054 73.661 19.448
24.528 74.073 19.355
24.491 70.045 16.422
24.964 70.195 16.014
25.174 69.606 16.402
25.053 69.575 16.823
24.398 70.152 16.931
25.164 69.922 17.400
25.176 70.824 15.706
24.022 70.384 16.625
25.367 70.715 17.893
24.652 70.724 17.752
24.178 71.842 16.075
25.133 71.853 15.710
24.666 71.333 18.154
24.684 71.998 18.663
24.868 72.416 19.130
24.380 72.641 16.164
24.127 73.183 16.674
24.489 73.223 16.307
24.089 73.197 19.513
24.874 72.810 19.740
24.659 73.348 20.222
25.214 73.057 20.569
24.767 73.756 16.723
24.586 74.096 17.610
25.146 74.333 17.372
24.499 73.737 20.040
25.014 73.624 20.697
25.159 74.455 18.435
25.269 74.437 19.556
25.185 74.097 20.347
25.814 68.383 21.938
25.933 68.045 21.767
25.953 67.973 22.084
26.205 68.143 22.329
25.720 69.136 16.723
25.833 69.542 16.178
26.392 68.892 16.605
26.352 68.654 17.159
25.667 69.162 17.140
26.220 69.019 17.502
25.798 68.955 21.532
26.154 68.987 20.958
26.068 68.227 21.313
25.931 68.864 21.963
25.795 69.314 21.720
25.646 70.250 15.771
26.156 69.904 17.701
25.929 70.028 21.183
26.262 70.148 20.621
25.887 69.863 21.557
25.886 70.919 15.536
26.421 70.885 18.004
25.992 71.239 21.073
26.125 71.399 20.589
26.140 70.931 21.430
26.199 71.690 15.415
25.449 71.581 18.365
25.243 72.134 18.820
25.796 72.033 18.679
25.777 72.496 21.016
26.016 72.017 20.467
26.165 72.247 21.442
25.050 73.038 16.023
26.193 72.703 15.636
25.654 72.355 19.192
25.904 72.356 20.003
25.397 73.321 21.118
25.890 72.981 21.601
25.714 73.341 21.548
25.867 73.308 21.775
25.763 73.675 16.202
25.566 74.221 16.811
26.433 74.221 16.628
25.508 73.751 21.140
25.924 73.630 21.512
25.876 73.440 21.760
26.017 74.574 17.532
26.108 74.732 18.457
25.947 74.626 19.269
25.826 74.410 20.067
26.065 74.031 20.848
26.439 67.417 22.241
26.954 66.848 21.810
27.112 66.765 22.295
27.010 66.965 22.622
26.810 67.255 22.757
27.296 67.024 22.880
26.679 68.367 17.574
26.936 68.256 17.374
26.896 68.165 17.634
26.889 68.225 17.683
26.396 67.510 21.540
26.724 67.845 20.925
26.963 67.044 21.306
26.598 67.622 22.686
27.141 67.414 22.958
26.568 69.252 16.175
26.960 68.839 16.411
26.985 68.490 16.865
26.904 68.543 17.628
26.818 69.169 17.632
26.831 68.890 20.367
26.118 69.526 21.877
26.677 68.829 22.356
26.899 67.981 22.783
26.483 70.015 15.741
27.198 69.318 15.970
27.128 69.884 17.725
26.760 69.806 20.134
27.219 70.056 19.765
27.183 69.308 19.930
26.274 70.309 21.681
26.842 69.835 21.993
26.821 70.964 15.378
27.471 70.666 17.882
26.611 70.687 20.126
27.163 70.990 19.611
26.513 70.929 21.570
26.713 70.544 21.712
27.101 71.912 15.319
26.264 71.679 18.365
27.219 71.470 18.201
26.424 71.594 20.063
26.910 71.789 19.457
26.990 70.978 21.593
26.817 71.656 21.470
27.486 72.796 15.546
26.488 72.033 18.677
26.627 72.151 19.136
26.105 73.211 21.662
26.769 72.851 21.409
26.892 73.577 15.996
27.463 74.121 16.524
26.430 73.567 21.353
26.899 73.424 21.234
26.908 73.804 20.874
27.096 74.524 17.237
26.896 74.698 18.142
26.685 74.688 18.960
26.842 74.340 19.946
27.736 66.323 22.020
28.126 66.103 21.658
28.369 65.972 21.932
28.447 66.123 22.270
27.567 66.496 21.477
27.591 66.953 20.955
28.291 66.324 21.261
27.763 66.611 22.598
28.027 67.076 22.998
27.159 68.264 17.540
27.725 67.776 20.340
27.597 67.653 23.043
28.438 67.601 23.088
27.649 68.241 22.842
27.703 68.609 16.340
27.663 68.221 17.020
27.791 68.730 17.438
27.530 68.664 19.959
27.821 69.273 19.633
28.299 68.341 19.775
27.723 69.096 22.438
27.495 70.132 15.501
28.036 69.318 15.717
28.174 69.881 17.682
27.973 70.242 19.321
27.596 69.837 22.070
28.171 69.514 22.212
28.125 70.102 21.873
27.850 71.085 15.244
28.368 70.861 17.922
27.917 71.266 19.000
27.308 70.440 21.780
27.871 71.084 21.479
28.183 72.018 15.303
28.042 71.544 18.217
27.366 71.900 18.576
28.231 71.592 18.493
27.435 71.856 18.912
27.596 72.238 21.254
28.498 72.754 15.586
27.505 73.181 21.007
28.217 72.565 20.943
28.392 73.137 20.588
28.184 73.467 16.067
28.246 74.032 16.639
27.708 73.785 20.426
28.538 73.652 20.086
27.932 74.112 19.797
27.985 74.353 17.102
27.834 74.510 17.890
27.674 74.448 18.953
28.684 65.973 21.664
28.774 65.902 22.005
29.031 66.043 22.202
29.085 67.309 16.363
29.342 67.195 16.060
29.618 66.983 15.942
29.486 66.993 16.267
28.552 66.843 20.686
29.233 66.290 21.294
28.879 66.469 22.626
29.117 67.014 23.036
29.247 67.244 16.275
28.761 67.796 16.365
28.507 67.881 16.852
29.078 67.439 16.636
28.933 68.064 17.078
28.822 67.478 20.075
29.391 67.462 23.084
28.752 68.241 22.825
28.479 68.632 15.889
29.007 68.957 17.475
28.831 69.165 19.302
29.112 68.066 19.642
28.596 68.982 22.457
29.412 68.569 22.460
28.886 69.395 22.103
28.644 70.121 15.264
28.818 69.163 15.467
29.214 69.902 17.726
28.852 70.510 18.807
29.038 70.143 21.574
28.943 71.200 15.197
29.393 70.580 17.917
28.676 71.228 18.582
29.039 71.194 18.324
29.081 70.985 18.490
28.823 71.025 21.233
29.568 70.622 21.120
29.192 71.390 20.957
29.321 72.082 15.507
28.822 71.230 18.116
28.463 71.790 21.091
29.073 72.238 20.677
29.157 72.759 15.807
28.756 73.084 15.851
29.236 73.148 16.285
29.140 73.057 20.212
28.594 74.130 17.067
28.964 73.696 16.812
29.060 73.940 17.419
29.050 73.511 19.886
28.741 73.892 19.430
28.599 74.242 17.642
28.639 74.176 18.489
29.131 65.978 21.859
29.708 67.244 15.661
30.194 67.389 15.229
30.242 66.947 15.480
30.199 66.600 15.858
29.982 66.825 16.295
29.627 66.918 20.422
30.363 66.577 21.159
29.651 66.275 22.032
29.814 66.678 22.678
29.809 67.054 23.026
29.801 67.780 15.368
30.562 67.927 14.904
29.393 67.445 16.031
29.287 67.232 16.437
29.491 67.457 16.658
29.878 68.099 17.274
29.537 67.506 19.859
29.936 68.190 19.420
29.974 67.352 19.926
29.945 67.286 23.019
29.884 67.721 22.782
29.965 68.424 15.079
29.249 68.363 15.581
29.817 69.342 15.074
30.011 68.969 17.658
29.651 69.617 18.807
30.197 68.133 22.338
29.926 68.969 21.890
29.657 70.444 15.095
30.120 69.724 17.890
29.520 70.552 18.425
30.047 70.152 18.261
29.983 69.933 18.490
30.067 69.728 21.333
30.076 71.184 15.285
29.969 70.288 18.019
29.531 70.789 18.125
30.260 70.253 20.982
29.993 71.193 20.695
30.441 71.821 15.758
29.945 72.311 20.172
30.031 72.485 16.199
29.943 72.924 16.752
29.564 73.203 19.709
30.110 72.719 19.774
30.109 72.988 19.336
29.626 73.280 16.948
29.283 73.848 18.110
29.690 73.458 17.636
29.444 73.621 18.957
29.983 73.279 18.577
30.450 66.272 15.961
30.729 66.243 15.775
30.751 66.109 15.900
30.669 66.253 16.065
30.832 67.242 15.030
31.096 66.653 15.423
31.009 66.491 16.355
30.557 67.189 20.114
31.316 67.229 19.931
31.207 66.870 20.660
31.097 66.694 21.375
30.578 66.633 22.057
30.325 67.061 22.695
30.896 66.989 22.212
31.293 67.678 14.738
30.889 67.178 17.015
30.882 68.106 17.733
30.931 67.899 19.331
31.125 68.427 18.674
31.728 67.569 19.281
30.643 67.493 22.362
31.220 67.333 21.791
30.806 68.075 21.867
30.531 68.672 14.816
31.383 68.404 14.692
30.740 68.861 17.965
30.435 69.145 18.646
30.812 69.091 18.323
30.859 68.867 21.352
30.934 69.182 14.816
30.837 70.146 15.076
30.690 69.274 18.077
30.416 69.680 18.157
30.678 69.630 21.071
31.191 69.286 20.962
30.936 70.176 20.695
31.253 71.078 15.595
30.835 71.343 20.210
31.276 71.673 16.217
30.674 72.083 16.163
30.932 72.137 16.685
30.589 72.262 19.739
31.048 71.728 19.858
31.107 71.991 19.462
30.216 72.962 17.426
30.562 72.547 17.076
30.448 72.879 18.255
30.879 72.472 17.937
30.604 72.638 19.062
31.063 72.281 18.770
31.156 66.275 15.898
31.604 67.204 14.908
31.954 66.929 15.214
31.909 66.649 15.718
31.743 66.532 16.290
31.471 66.662 16.645
32.029 66.945 16.961
31.702 67.117 20.226
31.635 67.116 21.007
31.190 66.849 21.753
31.943 67.795 14.714
32.118 67.505 18.181
31.345 68.180 18.338
32.413 67.472 19.355
32.146 67.336 20.108
32.160 67.596 20.595
31.612 67.983 21.169
32.163 68.377 14.726
31.016 68.780 18.247
31.513 68.719 21.015
31.872 68.492 20.858
31.848 69.251 20.572
31.992 69.195 14.954
31.980 70.250 15.376
31.595 70.438 20.235
32.228 70.761 15.961
31.741 71.257 16.025
32.060 71.236 16.558
31.477 71.286 19.819
31.969 70.683 19.854
31.924 71.115 19.509
31.284 72.075 17.548
31.689 71.664 17.075
31.506 71.904 18.441
31.970 71.481 18.029
31.564 71.660 19.209
32.037 71.266 18.916
32.221 67.363 14.960
32.586 67.272 15.514
32.498 66.977 16.325
32.586 67.973 15.005
33.043 67.969 15.620
33.128 67.646 16.331
32.957 67.475 17.354
33.086 67.647 18.354
32.916 67.653 19.074
32.674 67.730 19.927
32.327 68.266 20.499
32.917 68.270 19.973
32.508 68.567 14.901
32.890 68.737 15.400
32.745 68.994 19.986
33.211 68.563 19.621
33.233 69.052 19.425
32.522 70.274 15.676
32.679 69.696 15.536
32.873 70.137 16.137
32.897 69.802 19.337
33.355 69.360 18.922
33.171 69.928 18.583
32.284 69.953 19.966
32.411 71.047 17.471
32.727 70.610 16.794
32.620 70.667 18.553
33.037 70.288 17.765
32.343 70.598 19.422
33.366 68.442 16.253
33.498 68.150 17.174
33.472 68.019 18.119
33.355 67.941 18.835
33.199 68.071 19.456
33.230 69.322 16.184
33.551 68.956 17.088
33.636 68.604 17.893
33.486 68.600 18.859
33.264 69.822 16.994
33.477 69.382 18.055
3 2 1 0
3 0 3 2
3 6 5 4
3 4 7 6
3 1 8 0
3 8 9 0
3 9 10 0
3 11 3 0
3 11 0 10
3 11 10 5
3 10 4 5
3 10 12 4
3 7 4 13
3 4 14 13
3 4 12 14
3 14 15 13
3 9 16 10
3 18 17 16
3 17 10 16
3 17 12 10
3 20 14 19
3 14 17 19
3 14 12 17
3 14 20 15
3 18 21 17
3 21 22 17
3 22 23 17
3 24 19 17
3 24 17 23
3 23 25 24
3 22 26 23
3 23 26 25
3 29 28 27
3 31 30 27
3 27 30 29
3 31 32 30
3 27 28 2
3 28 1 2
3 28 33 1
3 27 2 3
3 34 27 3
3 31 27 34
3 32 36 35
3 36 32 6
3 31 6 32
3 6 31 5
3 34 5 31
3 7 36 6
3 8 1 37
3 1 38 37
3 1 33 38
3 11 34 3
3 9 8 37
3 36 39 35
3 5 34 11
3 39 36 7
3 13 39 7
3 40 39 13
3 13 15 40
3 40 15 41
3 38 42 37
3 42 44 43
3 42 43 16
3 37 42 16
3 9 37 16
3 43 18 16
3 19 45 20
3 41 15 46
3 15 45 46
3 45 47 46
3 15 20 45
3 47 48 46
3 44 49 43
3 49 51 50
3 49 50 21
3 43 49 21
3 18 43 21
3 24 45 19
3 22 21 50
3 45 24 25
3 52 45 25
3 47 45 52
3 48 47 53
3 53 47 52
3 51 54 50
3 50 54 22
3 54 26 22
3 54 55 26
3 25 26 52
3 26 56 52
3 26 55 56
3 52 56 53
3 59 58 57
3 57 60 59
3 63 62 61
3 65 64 61
3 61 64 63
3 65 66 64
3 69 68 67
3 71 70 67
3 70 57 67
3 58 69 67
3 58 67 57
3 57 70 60
3 61 62 29
3 62 28 29
3 62 72 28
3 61 29 30
3 61 30 65
3 30 32 65
3 32 66 65
3 32 73 66
3 67 68 74
3 74 68 75
3 71 67 76
3 76 67 74
3 72 33 28
3 77 33 72
3 35 73 32
3 35 78 73
3 74 75 79
3 79 75 80
3 76 74 81
3 81 74 79
3 77 38 33
3 82 38 77
3 83 78 35
3 83 35 39
3 85 83 84
3 83 40 84
3 83 39 40
3 41 84 40
3 79 80 86
3 86 80 87
3 81 79 88
3 88 79 86
3 42 38 89
3 38 90 89
3 38 82 90
3 89 44 42
3 91 85 84
3 91 84 41
3 46 91 41
3 92 91 46
3 93 86 48
3 86 92 48
3 92 46 48
3 86 87 92
3 88 86 94
3 86 95 94
3 86 93 95
3 95 96 94
3 90 97 89
3 97 99 98
3 97 98 49
3 89 97 49
3 44 89 49
3 98 51 49
3 53 100 93
3 53 93 48
3 102 95 101
3 95 100 101
3 95 93 100
3 95 102 96
3 99 103 98
3 98 103 51
3 103 54 51
3 103 104 54
3 54 105 55
3 104 105 54
3 55 106 56
3 105 106 55
3 53 56 100
3 56 107 100
3 56 106 107
3 100 107 101
3 110 109 108
3 112 111 108
3 108 111 110
3 112 113 111
3 116 115 114
3 114 117 116
3 120 119 118
3 120 118 109
3 109 118 108
3 118 58 108
3 58 59 108
3 108 59 60
3 121 108 60
3 112 108 121
3 113 112 122
3 122 112 121
3 123 62 63
3 123 63 124
3 63 125 124
3 63 64 125
3 64 115 125
3 115 64 114
3 66 114 64
3 114 66 126
3 127 126 66
3 114 126 117
3 118 119 69
3 119 68 69
3 119 128 68
3 58 118 69
3 70 71 129
3 129 130 70
3 70 130 60
3 130 131 60
3 131 121 60
3 121 131 122
3 133 132 123
3 132 62 123
3 132 72 62
3 133 123 124
3 73 127 66
3 73 134 127
3 137 136 135
3 128 137 135
3 75 128 135
3 68 128 75
3 76 138 129
3 76 129 71
3 130 129 139
3 139 129 138
3 132 77 72
3 140 77 132
3 78 134 73
3 78 141 134
3 135 136 142
3 142 136 143
3 142 80 75
3 142 75 135
3 81 144 138
3 81 138 76
3 139 138 145
3 145 138 144
3 140 82 77
3 146 82 140
3 78 83 147
3 148 78 147
3 141 78 148
3 85 147 83
3 142 143 149
3 149 143 150
3 149 87 80
3 149 80 142
3 152 151 144
3 81 152 144
3 88 152 81
3 144 151 145
3 146 90 82
3 153 90 146
3 154 148 147
3 154 147 85
3 91 154 85
3 155 154 91
3 92 149 150
3 155 92 150
3 91 92 155
3 149 92 87
3 88 94 156
3 157 88 156
3 152 88 157
3 96 156 94
3 153 158 90
3 90 158 97
3 99 97 158
3 99 158 159
3 162 161 160
3 160 161 157
3 160 157 156
3 101 160 156
3 102 101 156
3 102 156 96
3 159 163 99
3 99 163 103
3 103 164 104
3 163 164 103
3 104 165 105
3 164 165 104
3 105 166 106
3 165 166 105
3 160 107 162
3 107 166 162
3 107 106 166
3 107 160 101
3 169 168 167
3 167 170 169
3 173 172 171
3 173 171 168
3 168 171 167
3 171 109 167
3 109 110 167
3 174 170 167
3 110 174 167
3 111 174 110
3 111 113 174
3 174 113 175
3 176 115 116
3 117 176 116
3 171 172 120
3 172 119 120
3 172 177 119
3 171 120 109
3 180 179 178
3 179 175 178
3 175 122 178
3 175 113 122
3 182 181 125
3 125 181 124
3 125 115 182
3 176 182 115
3 182 176 183
3 126 183 176
3 183 126 127
3 126 176 117
3 186 185 184
3 177 186 184
3 128 177 184
3 119 177 128
3 180 178 131
3 130 180 131
3 187 180 130
3 131 178 122
3 189 188 133
3 133 188 132
3 133 124 181
3 133 181 189
3 134 183 127
3 134 190 183
3 184 185 137
3 185 136 137
3 185 191 136
3 184 137 128
3 194 193 192
3 193 187 192
3 187 139 192
3 187 130 139
3 188 140 132
3 195 140 188
3 141 190 134
3 141 196 190
3 191 143 136
3 197 143 191
3 194 192 198
3 194 198 199
3 145 198 139
3 139 198 192
3 195 146 140
3 200 146 195
3 148 202 201
3 196 148 201
3 141 148 196
3 204 203 202
3 202 203 201
3 197 203 204
3 150 197 204
3 143 197 150
3 199 198 151
3 152 199 151
3 205 199 152
3 151 198 145
3 200 153 146
3 206 153 200
3 154 202 148
3 202 154 155
3 202 155 204
3 204 155 150
3 209 208 207
3 208 205 207
3 205 157 207
3 205 152 157
3 206 210 153
3 153 210 158
3 159 158 210
3 159 210 211
3 214 213 212
3 212 213 209
3 212 209 207
3 162 212 207
3 161 162 207
3 161 207 157
3 211 215 159
3 159 215 163
3 163 216 164
3 215 216 163
3 164 217 165
3 216 217 164
3 212 166 214
3 166 217 214
3 166 165 217
3 166 212 162
3 219 218 169
3 169 218 168
3 169 170 219
3 219 170 220
3 223 222 221
3 221 224 223
3 226 225 173
3 173 225 172
3 173 168 218
3 173 218 226
3 227 220 170
3 227 170 174
3 174 175 227
3 227 175 228
3 222 229 221
3 229 230 221
3 230 231 221
3 232 224 221
3 232 221 231
3 231 233 232
3 225 177 172
3 234 177 225
3 236 235 179
3 236 179 180
3 175 179 228
3 228 179 235
3 231 230 182
3 230 181 182
3 230 237 181
3 182 183 231
3 183 233 231
3 183 238 233
3 240 239 186
3 186 239 185
3 186 177 234
3 186 234 240
3 243 242 241
3 242 236 241
3 236 187 241
3 236 180 187
3 245 244 189
3 189 244 188
3 189 181 237
3 189 237 245
3 190 238 183
3 190 246 238
3 239 191 185
3 247 191 239
3 243 241 193
3 194 243 193
3 248 243 194
3 193 241 187
3 244 195 188
3 249 195 244
3 196 246 190
3 196 250 246
3 253 252 251
3 247 253 251
3 197 247 251
3 191 247 197
3 256 255 254
3 255 248 254
3 248 199 254
3 248 194 199
3 249 200 195
3 257 200 249
3 258 250 196
3 258 196 201
3 203 251 252
3 258 203 252
3 201 203 258
3 251 203 197
3 256 254 259
3 256 259 260
3 205 259 199
3 199 259 254
3 262 206 261
3 206 257 261
3 206 200 257
3 263 262 261
3 260 259 208
3 209 260 208
3 264 260 209
3 208 259 205
3 262 210 206
3 266 265 211
3 266 211 210
3 263 266 210
3 262 263 210
3 267 265 266
3 269 268 213
3 269 213 214
3 209 213 264
3 264 213 268
3 265 215 211
3 267 270 265
3 270 215 265
3 270 216 215
3 216 271 217
3 270 271 216
3 214 217 269
3 269 217 271
3 272 218 219
3 220 272 219
3 275 274 273
3 222 223 273
3 223 275 273
3 223 276 275
3 223 224 276
3 276 224 277
3 279 278 226
3 226 278 225
3 226 218 272
3 280 226 272
3 279 226 280
3 280 272 220
3 227 280 220
3 281 280 227
3 227 228 281
3 281 228 282
3 273 274 283
3 283 274 284
3 285 229 222
3 273 285 222
3 283 285 273
3 287 286 232
3 287 230 286
3 230 287 285
3 277 285 287
3 285 277 229
3 286 229 277
3 277 224 286
3 286 224 232
3 230 229 286
3 232 233 287
3 287 233 288
3 291 290 289
3 278 291 289
3 234 278 289
3 225 278 234
3 293 292 235
3 293 235 236
3 228 235 282
3 282 235 292
3 284 294 283
3 296 295 294
3 295 283 294
3 295 285 283
3 295 237 230
3 295 230 285
3 238 288 233
3 238 297 288
3 289 290 240
3 290 239 240
3 290 298 239
3 289 240 234
3 300 299 242
3 300 242 243
3 236 242 293
3 293 242 299
3 295 296 245
3 296 244 245
3 296 301 244
3 295 245 237
3 246 297 238
3 246 302 297
3 305 304 303
3 298 305 303
3 247 298 303
3 239 298 247
3 248 300 243
3 248 306 300
3 301 249 244
3 307 249 301
3 250 309 308
3 302 250 308
3 246 250 302
3 308 309 304
3 304 309 303
3 309 252 303
3 252 253 303
3 303 253 247
3 311 310 255
3 311 255 256
3 248 255 306
3 306 255 310
3 307 257 249
3 312 257 307
3 258 309 250
3 309 258 252
3 260 311 256
3 260 313 311
3 312 314 257
3 257 314 261
3 263 261 314
3 263 314 315
3 318 317 316
3 317 313 316
3 313 264 316
3 313 260 264
3 315 319 263
3 263 319 266
3 321 320 267
3 266 321 267
3 319 321 266
3 323 322 320
3 323 320 321
3 322 323 318
3 322 318 316
3 269 322 316
3 268 269 316
3 268 316 264
3 320 270 267
3 270 320 271
3 271 320 322
3 271 322 269
3 326 325 324
3 324 327 326
3 329 328 275
3 275 328 274
3 276 324 325
3 329 276 325
3 275 276 329
3 276 277 324
3 277 327 324
3 277 330 327
3 333 332 331
3 278 279 331
3 279 333 331
3 279 334 333
3 335 279 280
3 335 334 279
3 337 335 336
3 335 281 336
3 335 280 281
3 282 336 281
3 328 284 274
3 338 284 328
3 339 330 277
3 339 277 287
3 287 288 339
3 339 288 340
3 343 342 341
3 343 341 332
3 332 341 331
3 341 290 331
3 290 291 331
3 331 291 278
3 346 345 344
3 344 345 337
3 344 337 336
3 293 344 336
3 292 293 336
3 292 336 282
3 294 284 347
3 284 348 347
3 284 338 348
3 347 296 294
3 297 340 288
3 297 349 340
3 341 342 350
3 350 342 351
3 350 298 290
3 350 290 341
3 346 344 299
3 300 346 299
3 352 346 300
3 299 344 293
3 348 353 347
3 296 347 353
3 354 296 353
3 301 296 354
3 302 356 355
3 349 302 355
3 297 302 349
3 355 356 351
3 351 356 350
3 356 304 350
3 304 305 350
3 350 305 298
3 359 358 357
3 358 352 357
3 352 306 357
3 352 300 306
3 354 307 301
3 360 307 354
3 308 356 302
3 356 308 304
3 359 357 310
3 311 359 310
3 361 359 311
3 310 357 306
3 363 312 362
3 312 360 362
3 312 307 360
3 364 363 362
3 367 366 365
3 366 361 365
3 361 313 365
3 361 311 313
3 363 314 312
3 369 368 315
3 369 315 314
3 364 369 314
3 363 364 314
3 371 370 368
3 371 368 369
3 373 372 370
3 373 370 371
3 372 373 367
3 372 367 365
3 318 372 365
3 317 318 365
3 317 365 313
3 368 319 315
3 319 368 321
3 321 368 370
3 321 370 323
3 323 370 372
3 323 372 318
3 374 325 326
3 327 374 326
3 376 375 329
3 329 375 328
3 329 325 374
3 377 329 374
3 376 329 377
3 327 330 374
3 330 378 374
3 378 377 374
3 378 330 379
3 379 380 378
3 381 332 333
3 334 382 333
3 333 382 381
3 335 383 334
3 334 383 382
3 337 383 335
3 375 338 328
3 384 338 375
3 339 379 330
3 386 385 340
3 340 385 339
3 385 380 339
3 380 379 339
3 342 343 386
3 343 385 386
3 343 387 385
3 343 332 381
3 388 343 381
3 387 343 388
3 388 381 382
3 388 382 389
3 346 390 345
3 390 382 345
3 382 383 345
3 390 389 382
3 345 383 337
3 384 348 338
3 391 348 384
3 349 392 386
3 349 386 340
3 392 351 342
3 392 342 386
3 395 394 393
3 394 390 393
3 390 352 393
3 390 346 352
3 391 396 348
3 348 396 353
3 354 353 396
3 354 396 397
3 355 392 349
3 392 355 351
3 395 393 358
3 359 395 358
3 398 395 359
3 358 393 352
3 400 360 399
3 360 397 399
3 360 354 397
3 401 400 399
3 404 403 402
3 403 398 402
3 398 361 402
3 398 359 361
3 400 362 360
3 406 405 364
3 406 364 362
3 401 406 362
3 400 401 362
3 408 407 405
3 408 405 406
3 410 409 407
3 410 407 408
3 409 410 404
3 409 404 402
3 367 409 402
3 366 367 402
3 366 402 361
3 405 369 364
3 369 405 371
3 371 405 407
3 371 407 373
3 373 407 409
3 373 409 367
3 411 375 376
3 377 412 376
3 376 412 411
3 378 413 377
3 377 413 412
3 380 413 378
3 414 384 411
3 411 384 375
3 412 416 415
3 414 412 415
3 411 412 414
3 416 412 413
3 416 413 417
3 417 413 380
3 385 417 380
3 418 417 385
3 419 385 387
3 419 418 385
3 420 387 388
3 420 419 387
3 422 420 421
3 420 389 421
3 420 388 389
3 390 421 389
3 423 391 414
3 414 391 384
3 414 415 424
3 414 424 423
3 427 426 425
3 425 426 422
3 425 422 421
3 395 425 421
3 394 395 421
3 394 421 390
3 423 396 391
3 429 428 397
3 429 397 396
3 424 429 396
3 423 424 396
3 430 428 429
3 433 432 431
3 431 432 427
3 425 431 427
3 434 431 425
3 398 434 395
3 395 434 425
3 428 399 397
3 436 435 401
3 436 401 399
3 430 436 399
3 428 430 399
3 438 437 435
3 438 435 436
3 437 438 433
3 431 437 433
3 439 437 431
3 404 439 403
3 439 434 403
3 439 431 434
3 403 434 398
3 435 406 401
3 406 435 408
3 408 435 437
3 408 437 410
3 410 437 439
3 410 439 404
3 440 415 416
3 417 441 416
3 416 441 440
3 418 442 417
3 417 442 441
3 419 443 418
3 418 443 442
3 420 444 419
3 419 444 443
3 422 444 420
3 445 424 440
3 440 424 415
3 446 440 441
3 445 440 446
3 447 441 442
3 446 441 447
3 448 442 443
3 447 442 448
3 427 448 426
3 448 444 426
3 448 443 444
3 426 444 422
3 445 429 424
3 429 445 430
3 445 449 430
3 445 446 449
3 450 446 447
3 449 446 450
3 433 450 432
3 450 448 432
3 450 447 448
3 432 448 427
3 449 436 430
3 436 449 438
3 438 449 450
3 438 450 433
