ply
format ascii 1.0
comment None
element vertex 648
property float x
property float y
property float z
element face 1304
property list uchar int vertex_indices
end_header
49.055 65.319 35.716
49.051 65.365 35.586
49.106 65.247 35.881
49.239 65.383 36.210
49.018 66.172 34.509
49.230 66.619 34.070
49.141 66.098 34.478
49.049 65.702 35.061
49.010 65.714 35.174
49.116 65.500 35.766
49.101 65.771 35.299
49.046 66.873 34.156
49.331 67.385 33.882
48.980 66.503 34.667
49.129 66.193 35.127
49.099 67.526 34.078
48.991 67.299 34.450
49.098 67.972 34.414
49.043 67.115 35.073
49.065 67.913 34.899
49.266 65.430 36.006
49.980 65.536 39.295
49.988 65.398 38.802
50.230 65.141 39.240
50.370 65.165 39.500
49.390 66.413 34.252
49.263 66.014 34.979
49.262 65.922 35.867
49.644 65.787 35.987
49.423 66.051 35.470
49.718 65.601 36.780
49.424 65.893 37.094
49.896 65.556 37.996
49.679 66.000 38.627
49.715 66.216 39.456
50.314 65.432 39.666
49.886 65.973 39.869
50.075 65.704 40.233
49.750 67.156 33.907
49.748 66.558 34.412
49.568 66.276 35.085
49.196 66.028 35.380
49.231 66.707 35.760
49.314 66.894 37.086
49.455 66.921 38.316
49.571 66.922 39.320
49.681 66.885 40.076
49.853 66.412 40.494
49.340 68.171 34.112
49.820 68.157 33.798
49.179 68.217 35.862
49.288 68.063 37.059
49.407 68.021 38.223
49.521 67.907 39.232
49.599 67.688 39.913
49.750 67.178 40.677
49.713 67.921 40.558
49.832 67.706 41.018
49.706 69.062 34.176
50.337 69.128 33.717
49.298 68.911 35.016
49.293 69.399 36.200
49.322 69.235 37.060
49.435 69.152 38.087
49.565 69.023 39.104
49.685 68.720 40.046
49.846 68.794 40.734
49.893 68.357 41.057
50.005 69.790 34.088
49.664 70.133 34.877
50.088 70.561 34.253
49.426 70.143 35.964
49.418 70.176 36.984
49.475 70.016 37.815
49.658 70.177 38.747
49.797 69.830 39.734
49.956 69.589 40.493
49.830 71.178 34.994
50.250 71.473 34.277
49.603 71.003 35.871
49.521 70.845 36.729
49.640 70.950 37.777
49.837 71.036 38.684
49.975 70.754 39.408
50.082 70.398 40.111
49.938 71.878 34.990
50.206 72.345 34.564
49.768 71.781 35.745
49.700 71.590 36.796
49.830 71.703 37.646
49.892 71.506 38.251
49.986 72.436 35.388
49.930 72.325 36.336
49.941 72.133 37.178
50.935 63.511 42.326
51.292 63.602 41.830
51.416 63.047 42.386
51.203 62.945 42.756
50.948 63.266 42.929
51.232 62.824 43.334
50.714 64.287 41.448
50.825 64.502 40.652
51.137 64.125 41.197
50.642 64.175 42.273
50.757 63.879 42.869
50.941 63.561 43.482
50.361 65.225 38.930
50.661 64.891 39.832
50.747 65.101 39.565
50.463 65.095 40.241
50.366 65.134 41.290
50.482 64.892 42.037
50.625 64.700 42.790
50.831 64.468 43.503
49.993 66.184 35.510
50.334 66.087 36.434
50.409 65.756 37.782
50.654 65.542 39.012
50.576 65.192 39.455
51.065 65.578 39.688
50.121 65.956 40.982
50.332 65.830 41.873
50.564 65.651 42.675
50.817 65.459 43.440
50.279 67.175 34.118
50.337 66.742 34.793
50.677 66.621 35.627
50.953 66.673 36.361
50.954 66.483 37.213
51.066 66.333 38.234
51.274 66.266 39.031
49.930 67.013 41.089
50.229 66.911 41.753
50.575 66.762 42.589
50.878 66.505 43.364
50.628 68.154 33.787
50.914 67.549 34.337
51.111 67.263 35.130
51.221 67.100 35.903
50.133 68.051 41.537
50.628 68.043 42.451
51.138 67.787 43.439
50.897 69.016 33.589
50.182 69.235 41.211
50.622 69.124 42.032
50.975 69.072 42.680
51.115 68.668 43.092
50.390 69.991 33.796
50.999 69.800 33.556
50.351 70.336 40.738
50.816 70.282 41.621
51.338 70.066 42.603
50.629 70.673 33.771
51.393 70.824 33.420
50.135 71.506 38.888
50.491 71.296 39.901
50.846 71.108 40.891
51.372 71.267 41.624
51.390 70.800 42.137
50.803 71.391 33.698
50.642 72.132 33.882
50.167 72.095 37.990
50.647 72.162 38.866
51.167 72.220 39.747
51.064 71.766 40.410
51.305 71.674 41.011
50.312 73.059 34.872
50.580 72.916 34.098
50.249 73.016 35.835
50.343 72.773 36.994
50.700 72.713 37.979
50.998 72.699 38.551
51.190 72.595 39.072
50.750 73.679 34.310
51.236 73.902 33.734
50.981 73.373 33.713
50.663 73.750 35.203
50.856 74.076 34.637
50.773 73.575 36.299
51.100 73.424 37.376
51.273 73.136 38.218
51.307 74.356 34.288
51.750 61.238 44.804
52.343 61.034 44.314
52.217 60.620 44.849
51.967 60.724 45.281
51.707 62.009 43.960
52.277 61.960 43.406
52.576 61.480 43.792
51.455 62.023 44.828
51.706 61.162 45.468
51.535 61.796 45.433
51.771 61.590 45.983
51.600 63.222 42.152
51.989 63.029 42.502
51.795 62.524 42.994
51.198 63.106 44.099
51.339 62.672 44.658
51.448 62.780 45.470
51.773 62.430 46.174
51.360 64.608 40.736
51.693 64.097 41.500
51.883 63.566 42.042
51.080 64.164 44.229
51.336 63.724 45.034
51.617 63.766 45.858
51.788 63.319 46.244
51.216 65.084 40.100
51.869 65.218 40.689
52.267 64.905 41.387
51.112 65.258 44.202
51.447 65.002 45.005
51.766 64.694 45.800
51.683 65.562 40.255
52.275 65.906 40.684
52.369 65.512 41.037
51.188 66.298 44.079
51.597 66.157 44.850
52.103 65.928 45.727
51.483 67.270 36.808
51.436 67.006 37.751
51.694 67.136 38.630
51.928 66.872 39.573
51.967 66.226 40.151
51.254 67.126 43.938
51.696 67.216 44.584
52.239 67.062 45.317
51.375 68.252 34.105
51.589 67.981 34.770
51.731 67.809 35.831
51.995 68.036 36.853
51.938 67.804 37.825
52.095 67.882 38.656
52.106 67.632 39.128
51.541 67.747 44.160
51.946 68.025 44.576
52.273 67.847 44.999
51.581 69.100 33.761
51.976 68.665 34.418
52.173 68.511 35.291
52.304 68.540 36.324
52.423 68.624 37.437
52.384 68.397 38.414
51.453 69.474 43.183
51.634 68.962 43.676
51.815 68.446 44.184
51.743 70.023 33.490
51.730 70.038 43.208
52.217 69.987 43.767
52.175 70.636 33.377
51.651 71.224 42.134
52.043 71.127 42.646
52.087 70.560 43.208
51.283 71.847 33.395
52.139 71.542 33.146
51.346 72.172 40.267
51.544 72.134 40.707
51.965 72.079 41.450
51.998 71.650 42.078
51.806 72.485 33.083
52.382 73.038 32.815
52.432 72.285 32.864
51.097 72.722 33.507
51.423 72.954 38.794
51.938 72.988 39.552
51.808 72.574 40.283
52.062 72.505 40.892
51.651 73.449 33.233
52.517 73.971 32.872
51.111 74.312 34.964
51.269 74.255 35.770
51.494 74.084 36.770
51.750 73.966 37.495
51.779 73.676 38.053
51.927 73.403 38.752
51.906 74.383 33.497
51.976 74.842 34.161
51.926 74.846 35.160
52.122 74.688 36.411
52.310 74.433 37.376
52.934 59.644 46.551
53.340 59.509 46.016
53.433 58.860 46.715
53.242 59.109 47.040
52.568 60.192 45.580
52.818 60.454 44.766
53.181 60.030 45.274
52.511 60.334 46.426
53.042 59.648 47.139
52.824 60.229 47.051
53.148 60.046 47.455
53.252 61.018 44.364
52.098 60.921 46.050
52.569 60.988 46.936
53.180 60.896 47.569
52.800 61.836 43.504
53.161 61.582 43.854
52.321 61.973 46.795
52.967 61.769 47.451
52.251 62.674 42.848
52.646 62.399 43.216
52.390 63.340 46.935
53.259 62.958 47.642
52.366 64.228 41.971
52.541 63.669 42.482
52.679 63.051 42.908
52.151 64.317 46.532
52.750 64.377 47.130
53.116 63.948 47.445
52.702 64.763 41.954
53.149 64.643 42.555
52.294 65.297 46.349
52.862 65.265 46.912
53.399 64.863 47.337
52.573 65.873 41.042
52.739 65.735 41.355
52.985 65.370 41.910
52.778 66.078 46.440
53.397 66.085 46.846
53.416 65.561 47.159
52.260 66.800 40.115
52.514 66.668 40.508
52.779 66.330 41.028
53.287 66.702 46.427
52.815 66.915 45.978
52.350 68.136 39.009
52.458 67.856 39.506
52.566 67.331 40.103
52.501 68.665 44.829
53.035 68.019 45.519
52.326 69.249 34.184
52.543 69.082 34.866
52.659 69.041 35.785
52.718 69.086 36.729
52.818 69.175 37.450
52.801 68.975 38.191
52.729 68.548 39.027
52.290 69.298 44.306
52.925 69.541 44.792
53.269 69.119 45.178
52.443 69.943 33.756
52.858 69.652 34.458
53.019 69.521 35.305
53.057 69.485 36.223
53.042 69.459 36.990
52.760 69.932 44.411
53.335 70.112 44.737
53.388 69.752 45.020
53.026 71.052 33.441
52.462 71.058 43.196
52.928 70.916 43.674
53.063 70.443 44.242
52.797 71.844 32.955
53.002 72.571 32.752
53.243 71.921 32.979
52.360 72.075 42.006
52.820 71.977 42.504
52.872 71.469 43.114
52.944 73.368 32.667
52.328 72.999 40.206
52.524 72.922 40.701
52.627 72.698 41.319
52.748 72.433 41.894
53.245 73.947 32.681
52.293 74.133 37.969
52.558 73.958 38.616
52.765 73.678 39.387
53.106 73.403 40.290
53.276 73.114 41.150
52.577 74.666 33.133
53.070 74.556 32.858
52.499 74.989 33.692
52.564 75.208 34.522
52.755 75.312 35.325
52.808 75.187 36.131
53.191 74.982 37.274
53.181 74.504 38.277
53.451 74.184 39.186
53.054 75.000 33.300
53.161 75.258 34.071
53.303 75.406 35.045
54.009 55.465 47.514
53.990 55.548 47.497
54.001 55.336 47.500
54.014 55.367 47.500
53.988 55.979 47.512
53.965 56.086 47.457
54.032 55.519 47.511
54.035 55.891 47.527
54.056 55.875 47.503
53.909 56.890 47.464
53.901 57.021 47.325
54.013 56.688 47.538
54.077 56.516 47.506
53.661 58.225 47.289
53.838 58.081 46.990
53.927 57.798 47.544
54.087 57.516 47.521
53.710 58.869 46.517
53.982 58.703 46.745
53.372 59.350 47.434
53.772 58.999 47.616
54.067 58.669 47.584
53.481 60.409 44.917
53.722 59.983 45.615
53.899 59.388 46.305
53.584 60.132 47.739
54.013 59.795 47.706
53.732 60.771 44.805
53.983 60.631 45.380
53.710 61.032 47.875
53.956 60.626 47.840
53.324 62.175 43.756
53.726 61.790 44.397
53.971 61.268 45.007
54.046 61.278 47.789
53.724 61.997 47.816
53.441 63.086 43.603
53.969 62.716 44.450
53.881 62.958 48.043
53.893 63.396 48.027
54.100 63.253 48.119
53.240 63.796 43.069
53.854 64.022 43.716
54.153 63.695 44.397
54.161 63.507 47.917
53.860 64.046 47.597
53.681 64.464 43.275
54.087 64.689 43.756
54.281 64.449 44.242
53.992 65.031 47.219
53.295 66.410 41.644
53.631 65.779 42.507
53.925 65.185 43.280
53.622 65.849 47.100
53.791 65.563 47.146
53.100 67.272 40.799
53.705 67.415 41.485
53.949 66.800 42.273
53.473 67.399 46.111
53.943 66.821 46.436
53.844 66.059 46.906
53.074 68.254 39.883
53.658 68.206 40.741
54.011 68.007 41.410
54.129 67.569 41.937
53.712 68.018 45.871
53.946 67.659 46.086
53.183 69.491 37.691
53.378 69.264 38.848
53.670 68.925 39.935
53.970 68.804 40.539
54.094 68.477 41.065
54.036 68.084 45.877
53.934 68.713 45.482
53.100 70.230 34.068
53.462 70.150 34.826
53.382 69.859 35.747
53.511 69.926 36.703
53.703 69.950 37.798
54.097 70.099 38.679
53.974 69.569 39.469
54.081 69.240 40.143
53.584 69.979 44.998
53.743 69.653 45.116
53.489 70.629 34.098
53.830 70.744 34.465
53.942 70.634 34.981
54.203 70.884 35.376
53.823 70.340 35.687
53.989 70.450 36.363
54.041 70.438 37.080
54.184 70.462 37.826
53.367 70.799 44.134
53.744 70.540 44.434
53.778 70.100 44.875
53.508 72.418 32.887
53.667 71.891 33.285
53.801 71.271 33.914
54.222 70.791 35.913
53.302 71.859 43.002
53.688 71.545 43.397
53.667 71.023 43.963
53.528 73.186 32.777
53.869 72.625 33.122
53.237 72.843 41.693
53.504 72.588 42.193
53.752 72.163 42.781
53.737 73.875 32.816
53.594 74.424 32.841
54.004 74.190 33.094
53.588 73.914 39.823
54.186 73.799 40.297
54.097 73.384 40.976
53.930 73.014 41.691
53.463 74.845 33.064
53.912 74.698 33.286
53.317 75.428 35.848
53.660 75.354 36.692
54.043 75.251 37.503
54.180 74.939 38.197
54.191 74.516 38.999
54.241 74.181 39.702
53.635 75.086 33.627
53.978 75.221 34.663
54.064 75.377 35.973
54.409 75.325 37.112
54.000 55.565 47.478
54.002 56.194 47.416
54.032 55.682 47.480
54.018 57.103 47.284
54.064 56.347 47.440
54.090 58.095 47.114
54.114 57.275 47.388
54.193 59.200 46.900
54.176 58.369 47.352
54.204 60.218 46.299
54.338 60.113 47.038
54.235 59.492 47.406
54.345 61.350 46.117
54.390 60.861 46.893
54.258 60.623 47.511
54.317 62.279 45.445
54.523 62.309 46.527
54.339 61.818 47.293
54.447 63.418 45.337
54.569 63.128 46.376
54.513 62.811 47.150
54.232 62.913 47.801
54.556 64.520 45.065
54.598 64.141 46.189
54.411 63.648 47.248
54.481 65.303 44.217
54.720 65.283 45.021
54.725 65.325 45.823
54.384 64.696 46.879
54.321 66.195 43.283
54.680 66.086 44.062
54.874 65.995 44.814
54.984 66.152 45.497
54.824 65.992 46.031
54.791 66.339 46.137
54.364 65.854 46.602
54.463 67.281 42.669
54.863 66.868 43.820
55.056 66.657 44.674
55.058 66.409 45.076
54.899 67.385 45.597
54.603 66.817 46.134
54.929 66.750 45.815
54.435 68.199 41.798
54.919 67.986 42.836
55.119 67.645 43.711
55.127 67.196 44.332
54.408 67.811 45.834
54.888 68.112 45.363
54.409 69.027 40.881
54.923 68.940 41.845
55.177 68.732 42.690
55.211 68.287 43.328
54.656 68.776 45.218
55.048 68.624 44.932
54.982 69.397 44.571
54.293 70.007 39.340
54.474 69.786 40.033
54.890 69.663 40.958
55.181 69.658 41.654
55.258 69.334 42.289
54.327 69.850 44.779
54.906 70.211 44.171
54.250 71.343 34.691
54.397 70.946 36.518
54.584 71.047 37.406
54.609 70.863 38.340
54.700 70.574 39.360
55.010 70.405 40.405
55.217 70.174 41.210
54.450 70.953 43.881
55.103 70.687 43.633
55.053 71.283 43.238
54.238 72.291 33.842
54.763 72.364 34.818
54.667 71.586 35.751
54.875 71.617 36.797
55.026 71.727 37.518
54.961 71.503 38.057
55.059 72.412 42.168
55.424 72.103 41.855
55.313 72.580 41.531
54.596 71.900 42.958
55.269 71.717 42.552
54.136 73.412 33.292
54.767 73.325 34.277
55.126 73.102 35.007
55.158 72.694 35.655
55.194 72.395 36.539
55.229 72.218 37.284
54.798 73.002 41.515
55.283 72.882 40.974
54.918 73.458 40.580
54.345 72.609 42.279
54.427 74.258 33.807
55.192 73.640 34.939
54.982 74.140 34.700
55.298 74.036 35.352
54.775 73.958 40.028
54.156 74.892 33.930
54.621 74.764 34.652
55.108 74.555 35.449
54.556 75.196 37.812
54.851 74.944 38.167
54.870 74.597 38.707
54.863 74.232 39.425
54.692 75.062 35.610
54.833 75.137 36.646
54.952 75.051 37.562
54.981 66.404 45.781
55.101 66.958 45.145
55.241 67.988 44.166
55.133 67.970 44.962
55.348 69.164 43.213
55.243 68.843 44.297
55.405 70.195 42.151
55.437 70.035 43.013
55.283 69.906 43.722
55.138 71.593 38.992
55.234 71.292 40.073
55.368 70.935 41.091
55.481 71.352 41.927
55.384 70.788 42.917
55.339 72.380 38.243
55.428 72.447 39.259
55.408 72.088 39.859
55.459 72.069 40.935
55.354 73.504 35.575
55.426 73.307 36.440
55.466 73.065 37.457
55.516 73.307 38.371
55.468 73.156 39.124
55.409 72.886 40.096
55.395 74.163 36.203
55.489 73.961 37.240
55.516 73.804 38.038
55.346 73.962 38.846
55.228 73.684 39.747
55.149 74.791 36.223
55.277 74.671 37.044
55.282 74.499 38.026
3 2 1 0
3 0 3 2
3 6 5 4
3 8 7 4
3 4 7 6
3 10 9 8
3 9 0 8
3 1 7 8
3 1 8 0
3 0 9 3
3 4 5 11
3 11 5 12
3 4 13 8
3 4 11 13
3 10 8 14
3 14 8 13
3 12 15 11
3 17 16 15
3 16 11 15
3 16 13 11
3 14 13 18
3 18 13 16
3 17 19 16
3 16 19 18
3 20 1 2
3 3 20 2
3 23 22 21
3 21 24 23
3 25 5 6
3 7 26 6
3 6 26 25
3 20 28 27
3 29 27 28
3 27 29 26
3 27 26 10
3 7 10 26
3 10 7 9
3 1 9 7
3 9 1 20
3 9 20 27
3 28 20 30
3 3 30 20
3 30 3 31
3 9 31 3
3 31 9 27
3 33 32 31
3 31 32 30
3 32 33 22
3 33 21 22
3 33 34 21
3 24 21 35
3 21 36 35
3 21 34 36
3 36 37 35
3 39 38 25
3 38 5 25
3 38 12 5
3 39 25 26
3 39 26 40
3 14 41 10
3 14 26 41
3 26 14 40
3 42 40 14
3 40 42 29
3 41 29 42
3 42 27 41
3 41 27 10
3 26 29 41
3 27 43 31
3 27 42 43
3 31 44 33
3 31 43 44
3 33 45 34
3 33 44 45
3 34 46 36
3 34 45 46
3 37 36 47
3 47 36 46
3 15 12 48
3 12 49 48
3 12 38 49
3 48 17 15
3 18 50 42
3 18 42 14
3 42 51 43
3 42 50 51
3 43 52 44
3 43 51 52
3 44 53 45
3 44 52 53
3 45 54 46
3 45 53 54
3 47 46 55
3 46 56 55
3 46 54 56
3 56 57 55
3 48 49 58
3 58 49 59
3 60 19 17
3 48 60 17
3 58 60 48
3 50 18 19
3 60 50 19
3 61 50 60
3 50 62 51
3 50 61 62
3 51 63 52
3 51 62 63
3 52 64 53
3 52 63 64
3 53 65 54
3 53 64 65
3 67 56 66
3 56 65 66
3 56 54 65
3 56 67 57
3 59 68 58
3 70 69 68
3 69 58 68
3 69 60 58
3 60 71 61
3 60 69 71
3 61 72 62
3 61 71 72
3 62 73 63
3 62 72 73
3 63 74 64
3 63 73 74
3 64 75 65
3 64 74 75
3 66 65 76
3 76 65 75
3 69 70 77
3 77 70 78
3 69 79 71
3 69 77 79
3 71 80 72
3 71 79 80
3 72 81 73
3 72 80 81
3 83 74 82
3 74 81 82
3 74 73 81
3 74 83 75
3 75 83 84
3 75 84 76
3 77 78 85
3 85 78 86
3 77 87 79
3 77 85 87
3 79 88 80
3 79 87 88
3 90 81 89
3 81 88 89
3 81 80 88
3 81 90 82
3 86 91 85
3 85 91 87
3 87 91 92
3 87 92 88
3 88 92 93
3 88 93 89
3 96 95 94
3 98 97 94
3 94 97 96
3 98 99 97
3 102 101 100
3 102 100 95
3 100 94 95
3 100 103 94
3 94 104 98
3 94 103 104
3 99 98 105
3 105 98 104
3 106 22 23
3 108 106 107
3 106 23 107
3 24 109 107
3 24 107 23
3 107 109 101
3 109 100 101
3 109 110 100
3 100 111 103
3 100 110 111
3 103 112 104
3 103 111 112
3 105 104 113
3 113 104 112
3 114 29 28
3 30 115 28
3 28 115 114
3 32 116 30
3 30 116 115
3 22 106 32
3 106 116 32
3 106 117 116
3 119 118 108
3 119 109 118
3 109 119 35
3 117 35 119
3 35 117 24
3 118 24 117
3 117 106 118
3 118 106 108
3 109 24 118
3 109 35 37
3 120 109 37
3 110 109 120
3 110 121 111
3 110 120 121
3 111 122 112
3 111 121 122
3 113 112 123
3 123 112 122
3 124 38 39
3 40 125 39
3 39 125 124
3 29 114 40
3 114 125 40
3 114 126 125
3 115 128 127
3 126 115 127
3 114 115 126
3 128 115 116
3 128 116 129
3 129 116 117
3 129 117 130
3 130 117 119
3 47 131 120
3 47 120 37
3 120 132 121
3 120 131 132
3 121 133 122
3 121 132 133
3 123 122 134
3 134 122 133
3 136 135 124
3 135 38 124
3 135 49 38
3 136 124 125
3 136 125 137
3 137 125 126
3 137 126 138
3 138 126 127
3 55 131 47
3 131 55 57
3 139 131 57
3 132 131 139
3 132 140 133
3 132 139 140
3 134 133 141
3 141 133 140
3 135 59 49
3 142 59 135
3 66 143 67
3 139 57 67
3 143 139 67
3 144 139 143
3 146 140 145
3 140 144 145
3 140 139 144
3 140 146 141
3 68 59 147
3 59 148 147
3 59 142 148
3 147 70 68
3 76 149 143
3 76 143 66
3 143 150 144
3 143 149 150
3 145 144 151
3 151 144 150
3 147 148 152
3 152 148 153
3 152 78 70
3 152 70 147
3 82 154 83
3 155 84 83
3 155 83 154
3 149 76 84
3 155 149 84
3 156 149 155
3 158 150 157
3 150 156 157
3 150 149 156
3 150 158 151
3 153 159 152
3 78 152 159
3 160 78 159
3 86 78 160
3 89 161 90
3 154 82 90
3 161 154 90
3 162 154 161
3 164 155 163
3 155 162 163
3 155 154 162
3 155 164 156
3 156 164 165
3 156 165 157
3 91 86 166
3 86 167 166
3 86 160 167
3 168 92 91
3 168 91 166
3 169 93 92
3 169 92 168
3 161 89 93
3 169 161 93
3 170 161 169
3 172 162 171
3 162 170 171
3 162 161 170
3 162 172 163
3 175 174 173
3 177 176 173
3 176 166 173
3 167 175 173
3 167 173 166
3 166 176 168
3 168 176 178
3 168 178 169
3 169 178 179
3 169 179 170
3 170 179 180
3 170 180 171
3 174 181 173
3 173 181 177
3 184 183 182
3 182 185 184
3 188 187 186
3 188 186 183
3 186 182 183
3 186 189 182
3 185 182 190
3 182 191 190
3 182 189 191
3 191 192 190
3 193 95 96
3 193 96 194
3 96 195 194
3 96 97 195
3 196 186 99
3 186 195 99
3 195 97 99
3 186 187 195
3 186 197 189
3 186 196 197
3 189 198 191
3 189 197 198
3 192 191 199
3 199 191 198
3 200 101 102
3 201 200 102
3 201 102 95
3 202 201 95
3 193 202 95
3 202 193 194
3 105 203 196
3 105 196 99
3 196 204 197
3 196 203 204
3 206 198 205
3 198 204 205
3 198 197 204
3 198 206 199
3 207 108 107
3 101 200 107
3 200 207 107
3 200 208 207
3 200 201 209
3 200 209 208
3 113 210 203
3 113 203 105
3 203 211 204
3 203 210 211
3 205 204 212
3 212 204 211
3 213 119 207
3 207 119 108
3 208 215 214
3 213 208 214
3 207 208 213
3 215 208 209
3 123 216 210
3 123 210 113
3 210 217 211
3 210 216 217
3 212 211 218
3 218 211 217
3 219 127 128
3 129 220 128
3 128 220 219
3 130 221 129
3 129 221 220
3 222 221 130
3 222 130 119
3 223 222 119
3 213 223 119
3 223 213 214
3 134 224 216
3 134 216 123
3 216 225 217
3 216 224 225
3 218 217 226
3 226 217 225
3 227 135 136
3 137 228 136
3 136 228 227
3 138 229 137
3 137 229 228
3 127 219 138
3 219 229 138
3 219 230 229
3 231 219 220
3 230 219 231
3 221 233 232
3 231 221 232
3 220 221 231
3 233 221 222
3 141 234 224
3 141 224 134
3 236 225 235
3 225 234 235
3 225 224 234
3 225 236 226
3 238 237 227
3 237 135 227
3 237 142 135
3 238 227 228
3 238 228 239
3 239 228 229
3 239 229 240
3 240 229 230
3 240 230 241
3 241 230 231
3 241 231 242
3 242 231 232
3 145 243 146
3 243 244 146
3 146 244 141
3 244 245 141
3 245 234 141
3 234 245 235
3 237 148 142
3 246 148 237
3 151 247 243
3 151 243 145
3 244 243 248
3 248 243 247
3 246 153 148
3 249 153 246
3 157 250 158
3 250 251 158
3 158 251 151
3 251 252 151
3 252 247 151
3 247 252 248
3 159 153 253
3 153 254 253
3 153 249 254
3 253 160 159
3 163 255 164
3 256 165 164
3 256 164 255
3 256 257 165
3 165 257 157
3 257 258 157
3 258 250 157
3 250 258 251
3 261 260 259
3 261 259 254
3 259 253 254
3 259 262 253
3 262 167 160
3 262 160 253
3 171 263 172
3 263 264 172
3 172 264 163
3 264 265 163
3 265 255 163
3 255 265 256
3 256 265 266
3 256 266 257
3 259 260 267
3 267 260 268
3 267 174 175
3 262 267 175
3 259 267 262
3 167 262 175
3 176 177 269
3 270 178 176
3 270 176 269
3 271 179 178
3 271 178 270
3 179 271 272
3 273 179 272
3 180 179 273
3 171 180 263
3 180 274 263
3 180 273 274
3 263 274 264
3 268 275 267
3 267 275 174
3 275 181 174
3 275 276 181
3 177 181 269
3 181 277 269
3 181 276 277
3 269 277 270
3 270 277 278
3 270 278 271
3 271 278 279
3 271 279 272
3 282 281 280
3 280 283 282
3 286 285 284
3 286 284 281
3 284 280 281
3 284 287 280
3 283 280 288
3 280 289 288
3 280 287 289
3 289 290 288
3 284 285 184
3 285 183 184
3 285 291 183
3 284 184 185
3 292 284 185
3 287 284 292
3 287 293 289
3 287 292 293
3 290 289 294
3 294 289 293
3 296 295 188
3 188 295 187
3 188 183 291
3 188 291 296
3 190 292 185
3 292 190 192
3 297 292 192
3 293 292 297
3 294 293 298
3 298 293 297
3 299 194 195
3 300 299 195
3 187 300 195
3 295 300 187
3 199 301 297
3 199 297 192
3 298 297 302
3 302 297 301
3 303 201 202
3 304 303 202
3 304 202 194
3 305 304 194
3 299 305 194
3 305 299 300
3 205 306 206
3 301 199 206
3 306 301 206
3 307 301 306
3 302 301 308
3 308 301 307
3 309 209 303
3 303 209 201
3 303 304 310
3 303 310 309
3 212 311 306
3 212 306 205
3 306 312 307
3 306 311 312
3 308 307 313
3 313 307 312
3 314 214 215
3 315 314 215
3 315 215 209
3 316 315 209
3 309 316 209
3 316 309 310
3 218 317 311
3 218 311 212
3 319 312 318
3 312 317 318
3 312 311 317
3 312 319 313
3 320 222 223
3 321 320 223
3 321 223 214
3 322 321 214
3 314 322 214
3 322 314 315
3 324 323 317
3 218 324 317
3 226 324 218
3 317 323 318
3 325 232 233
3 326 325 233
3 326 233 222
3 327 326 222
3 320 327 222
3 327 320 321
3 235 328 236
3 328 329 236
3 329 226 236
3 329 324 226
3 330 237 238
3 239 331 238
3 238 331 330
3 240 332 239
3 239 332 331
3 241 333 240
3 240 333 332
3 333 241 334
3 241 335 334
3 241 242 335
3 242 232 325
3 336 242 325
3 335 242 336
3 336 325 326
3 244 337 245
3 328 235 245
3 337 328 245
3 338 328 337
3 329 328 339
3 339 328 338
3 341 340 330
3 340 237 330
3 340 246 237
3 341 330 331
3 341 331 342
3 342 331 332
3 342 332 343
3 343 332 333
3 343 333 344
3 344 333 334
3 248 345 337
3 248 337 244
3 347 338 346
3 338 345 346
3 338 337 345
3 338 347 339
3 340 249 246
3 348 249 340
3 251 349 252
3 349 350 252
3 252 350 248
3 350 351 248
3 351 345 248
3 345 351 346
3 354 353 352
3 348 354 352
3 254 348 352
3 249 348 254
3 257 355 258
3 355 356 258
3 258 356 251
3 356 357 251
3 357 349 251
3 349 357 350
3 352 353 261
3 353 260 261
3 353 358 260
3 352 261 254
3 264 359 265
3 360 266 265
3 360 265 359
3 360 361 266
3 266 361 257
3 361 362 257
3 362 355 257
3 355 362 356
3 358 268 260
3 363 268 358
3 272 364 273
3 365 274 273
3 365 273 364
3 365 366 274
3 274 366 264
3 366 367 264
3 367 359 264
3 359 367 360
3 360 367 368
3 360 368 361
3 275 268 369
3 268 370 369
3 268 363 370
3 371 276 275
3 371 275 369
3 372 277 276
3 372 276 371
3 277 372 373
3 374 277 373
3 278 277 374
3 278 375 279
3 374 375 278
3 272 279 364
3 279 376 364
3 279 375 376
3 364 376 365
3 365 376 377
3 365 377 366
3 370 378 369
3 369 378 371
3 371 378 379
3 371 379 372
3 372 379 380
3 372 380 373
3 383 382 381
3 381 384 383
3 381 382 385
3 385 382 386
3 384 381 387
3 381 388 387
3 381 385 388
3 388 389 387
3 385 386 390
3 390 386 391
3 385 392 388
3 385 390 392
3 389 388 393
3 393 388 392
3 390 391 394
3 394 391 395
3 390 396 392
3 390 394 396
3 393 392 397
3 397 392 396
3 398 281 282
3 399 398 395
3 282 395 398
3 395 282 394
3 283 394 282
3 394 283 400
3 394 401 396
3 394 400 401
3 397 396 402
3 402 396 401
3 403 285 286
3 404 403 286
3 404 286 281
3 405 404 281
3 398 405 281
3 283 288 400
3 398 399 405
3 400 288 290
3 406 400 290
3 401 400 406
3 402 401 407
3 407 401 406
3 408 291 403
3 403 291 285
3 403 404 409
3 403 409 408
3 294 410 406
3 294 406 290
3 407 406 411
3 411 406 410
3 412 295 296
3 413 412 296
3 413 296 291
3 414 413 291
3 408 414 291
3 414 408 409
3 416 415 410
3 294 416 410
3 298 416 294
3 410 415 411
3 417 300 412
3 412 300 295
3 412 413 418
3 412 418 417
3 302 420 419
3 416 302 419
3 298 302 416
3 420 421 419
3 422 304 305
3 300 417 305
3 417 422 305
3 417 423 422
3 417 418 424
3 417 424 423
3 426 425 420
3 302 426 420
3 308 426 302
3 420 425 421
3 427 310 422
3 422 310 304
3 423 429 428
3 427 423 428
3 422 423 427
3 429 423 424
3 313 426 308
3 313 430 426
3 431 315 316
3 432 431 316
3 432 316 310
3 433 432 310
3 427 433 310
3 433 427 428
3 318 434 319
3 434 435 319
3 435 313 319
3 435 430 313
3 436 321 322
3 315 431 322
3 431 436 322
3 431 437 436
3 431 432 438
3 431 438 437
3 324 439 323
3 439 440 323
3 323 440 318
3 440 441 318
3 441 434 318
3 434 441 435
3 442 326 327
3 321 436 327
3 436 442 327
3 436 443 442
3 437 445 444
3 443 437 444
3 436 437 443
3 445 437 438
3 329 446 439
3 329 439 324
3 440 439 447
3 447 439 446
3 448 334 335
3 336 449 335
3 335 449 448
3 326 442 336
3 442 449 336
3 442 450 449
3 443 452 451
3 450 443 451
3 442 443 450
3 452 443 444
3 454 453 446
3 329 454 446
3 339 454 329
3 446 453 447
3 455 340 341
3 342 456 341
3 341 456 455
3 343 457 342
3 342 457 456
3 344 458 343
3 343 458 457
3 334 448 344
3 448 458 344
3 448 459 458
3 449 461 460
3 459 449 460
3 448 449 459
3 461 449 450
3 461 450 462
3 462 450 451
3 346 463 347
3 463 464 347
3 464 339 347
3 464 454 339
3 465 348 455
3 455 348 340
3 456 467 466
3 465 456 466
3 455 456 465
3 469 468 467
3 456 469 467
3 457 469 456
3 458 471 470
3 469 458 470
3 457 458 469
3 471 458 459
3 471 459 472
3 472 459 460
3 350 473 351
3 473 474 351
3 351 474 346
3 474 475 346
3 475 463 346
3 463 475 464
3 476 353 354
3 477 476 354
3 477 354 348
3 478 477 348
3 465 478 348
3 478 465 466
3 479 468 469
3 479 469 470
3 356 480 357
3 480 481 357
3 357 481 350
3 481 482 350
3 482 473 350
3 473 482 474
3 484 483 476
3 483 353 476
3 483 358 353
3 484 476 477
3 361 485 362
3 485 486 362
3 362 486 356
3 486 487 356
3 487 480 356
3 480 487 481
3 489 363 488
3 363 483 488
3 363 358 483
3 490 489 488
3 366 491 367
3 367 491 492
3 493 367 492
3 368 367 493
3 361 368 485
3 368 494 485
3 368 493 494
3 485 494 486
3 495 370 489
3 489 370 363
3 489 490 496
3 489 496 495
3 373 497 374
3 498 375 374
3 498 374 497
3 375 498 499
3 500 375 499
3 376 375 500
3 376 501 377
3 500 501 376
3 366 377 491
3 377 502 491
3 377 501 502
3 491 502 492
3 495 378 370
3 496 503 495
3 503 378 495
3 503 379 378
3 379 504 380
3 503 504 379
3 373 380 497
3 380 505 497
3 380 504 505
3 497 505 498
3 498 505 506
3 498 506 499
3 507 382 383
3 384 507 383
3 508 386 507
3 507 386 382
3 387 509 384
3 509 507 384
3 509 508 507
3 389 509 387
3 510 391 508
3 508 391 386
3 511 508 509
3 510 508 511
3 393 511 389
3 389 511 509
3 512 395 510
3 510 395 391
3 513 510 511
3 512 510 513
3 397 513 393
3 393 513 511
3 514 399 512
3 512 399 395
3 515 512 513
3 514 512 515
3 402 515 397
3 397 515 513
3 516 404 405
3 399 514 405
3 514 516 405
3 514 517 516
3 518 514 515
3 517 514 518
3 407 518 402
3 402 518 515
3 519 409 516
3 516 409 404
3 520 516 517
3 519 516 520
3 521 517 518
3 520 517 521
3 411 521 407
3 407 521 518
3 522 413 414
3 409 519 414
3 519 522 414
3 519 523 522
3 524 519 520
3 523 519 524
3 416 524 415
3 524 521 415
3 524 520 521
3 415 521 411
3 525 418 522
3 522 418 413
3 526 522 523
3 525 522 526
3 527 523 524
3 526 523 527
3 419 528 416
3 528 524 416
3 528 527 524
3 421 528 419
3 529 424 525
3 525 424 418
3 530 525 526
3 529 525 530
3 531 526 527
3 530 526 531
3 426 531 425
3 531 528 425
3 531 527 528
3 425 528 421
3 532 428 429
3 424 529 429
3 529 532 429
3 529 533 532
3 534 529 530
3 533 529 534
3 535 530 531
3 534 530 535
3 430 535 426
3 426 535 531
3 536 432 433
3 428 532 433
3 532 536 433
3 532 537 536
3 538 532 533
3 537 532 538
3 534 540 539
3 538 534 539
3 533 534 538
3 542 541 540
3 534 542 540
3 535 542 534
3 435 542 430
3 430 542 535
3 543 438 536
3 536 438 432
3 544 536 537
3 543 536 544
3 538 546 545
3 544 538 545
3 537 538 544
3 549 548 547
3 539 546 538
3 548 549 541
3 548 541 542
3 440 548 542
3 441 440 542
3 441 542 435
3 550 444 445
3 438 543 445
3 543 550 445
3 543 551 550
3 544 553 552
3 551 544 552
3 543 544 551
3 553 544 545
3 547 548 554
3 547 554 555
3 447 554 440
3 440 554 548
3 556 451 452
3 444 550 452
3 550 556 452
3 550 557 556
3 551 559 558
3 557 551 558
3 550 551 557
3 559 551 552
3 562 561 560
3 560 561 555
3 560 555 554
3 454 560 554
3 453 454 554
3 453 554 447
3 563 460 461
3 462 564 461
3 461 564 563
3 451 556 462
3 556 564 462
3 556 565 564
3 557 567 566
3 565 557 566
3 556 557 565
3 567 557 558
3 562 560 568
3 562 568 569
3 464 568 454
3 454 568 560
3 570 466 467
3 468 570 467
3 571 470 471
3 472 572 471
3 471 572 571
3 573 572 472
3 573 472 460
3 574 573 460
3 563 574 460
3 574 563 564
3 574 564 575
3 575 564 565
3 575 565 576
3 576 565 566
3 579 578 577
3 577 578 569
3 577 569 568
3 474 577 568
3 475 474 568
3 475 568 464
3 580 477 478
3 466 570 478
3 570 580 478
3 570 581 580
3 479 582 468
3 582 570 468
3 582 581 570
3 470 571 479
3 571 582 479
3 571 583 582
3 572 585 584
3 583 572 584
3 571 572 583
3 585 572 573
3 588 587 586
3 590 589 586
3 590 586 587
3 589 590 579
3 589 579 577
3 481 589 577
3 482 481 577
3 482 577 474
3 591 483 484
3 477 580 484
3 580 591 484
3 580 592 591
3 581 594 593
3 592 581 593
3 580 581 592
3 594 581 582
3 594 582 595
3 595 582 583
3 595 583 596
3 596 583 584
3 599 598 597
3 597 598 588
3 586 597 588
3 600 597 586
3 486 600 487
3 600 589 487
3 600 586 589
3 487 589 481
3 591 488 483
3 488 591 490
3 591 601 490
3 591 592 601
3 592 593 602
3 603 592 602
3 601 592 603
3 604 603 602
3 599 597 493
3 492 599 493
3 605 599 492
3 493 597 494
3 494 597 600
3 494 600 486
3 606 496 601
3 601 496 490
3 607 601 603
3 606 601 607
3 603 604 608
3 603 608 607
3 499 609 500
3 500 609 610
3 611 500 610
3 501 500 611
3 501 612 502
3 611 612 501
3 492 502 605
3 605 502 612
3 606 503 496
3 503 606 504
3 504 606 607
3 608 613 607
3 613 504 607
3 613 505 504
3 505 614 506
3 613 614 505
3 499 506 609
3 506 615 609
3 506 614 615
3 609 615 610
3 616 539 540
3 541 616 540
3 617 545 546
3 546 539 617
3 539 616 617
3 549 547 617
3 549 617 616
3 549 616 541
3 618 552 553
3 545 617 553
3 617 618 553
3 617 619 618
3 555 619 547
3 547 619 617
3 620 558 559
3 552 618 559
3 618 620 559
3 618 621 620
3 562 621 561
3 621 619 561
3 621 618 619
3 561 619 555
3 622 566 567
3 558 620 567
3 620 622 567
3 620 623 622
3 624 620 621
3 623 620 624
3 569 624 562
3 562 624 621
3 625 573 574
3 575 626 574
3 574 626 625
3 576 627 575
3 575 627 626
3 566 622 576
3 622 627 576
3 622 628 627
3 629 622 623
3 628 622 629
3 579 629 578
3 629 624 578
3 629 623 624
3 578 624 569
3 630 584 585
3 573 625 585
3 625 630 585
3 625 631 630
3 632 625 626
3 631 625 632
3 633 626 627
3 632 626 633
3 588 633 587
3 633 628 587
3 633 627 628
3 587 628 590
3 590 628 629
3 590 629 579
3 634 593 594
3 595 635 594
3 594 635 634
3 596 636 595
3 595 636 635
3 584 630 596
3 630 636 596
3 630 637 636
3 638 630 631
3 637 630 638
3 639 631 632
3 638 631 639
3 599 639 598
3 639 633 598
3 639 632 633
3 598 633 588
3 634 602 593
3 602 634 604
3 634 640 604
3 634 635 640
3 641 635 636
3 640 635 641
3 642 636 637
3 641 636 642
3 643 637 638
3 642 637 643
3 644 638 639
3 643 638 644
3 605 644 599
3 599 644 639
3 645 608 640
3 640 608 604
3 646 640 641
3 645 640 646
3 647 641 642
3 646 641 647
3 610 647 611
3 647 643 611
3 647 642 643
3 611 643 612
3 612 643 644
3 612 644 605
3 645 613 608
3 613 645 614
3 614 645 646
3 614 646 615
3 615 646 647
3 615 647 610
