ply
format ascii 1.0
comment None
element vertex 889
property float x
property float y
property float z
element face 1778
property list uchar int vertex_indices
end_header
51.169 43.962 36.388
51.392 44.317 35.856
51.489 43.744 35.944
51.288 43.658 36.753
51.124 43.939 36.823
51.285 43.792 37.169
51.249 44.279 36.548
51.343 44.128 37.128
51.682 44.267 35.099
52.023 44.245 34.502
51.959 43.758 35.100
52.054 43.253 35.862
51.750 43.281 36.661
51.724 43.491 37.387
51.622 43.901 37.520
52.356 43.814 38.032
52.086 44.761 34.344
52.607 45.199 33.559
52.424 44.560 33.924
51.832 44.866 35.169
51.687 44.822 36.144
51.874 45.079 35.571
51.568 44.522 36.902
51.981 44.374 37.565
52.559 45.414 34.245
52.280 45.288 35.294
52.398 42.897 36.578
52.663 42.918 35.881
53.231 42.657 36.408
52.964 42.751 37.236
52.230 43.041 37.307
52.757 42.999 37.796
52.337 43.287 37.845
53.040 43.371 38.275
52.471 43.955 34.393
52.652 43.317 35.102
53.446 43.964 38.759
52.914 44.892 33.408
52.976 44.321 33.789
52.079 45.197 35.860
52.194 45.168 36.375
52.139 44.910 37.011
52.582 44.795 37.700
52.834 45.100 37.387
52.901 44.419 38.229
52.908 45.887 33.053
53.189 46.286 32.491
53.299 45.621 32.800
53.259 45.727 34.355
53.140 45.900 33.568
53.053 45.559 35.135
52.770 45.391 36.086
53.338 44.908 37.982
53.088 46.467 32.352
53.457 46.889 31.870
53.216 46.560 32.212
53.166 46.268 32.774
53.148 46.548 32.327
53.325 46.797 32.076
52.935 56.400 28.576
52.992 56.233 27.743
53.193 55.786 28.556
53.089 56.082 29.024
52.850 57.020 27.954
52.829 56.968 27.251
53.032 56.476 29.060
52.978 56.973 28.697
53.357 56.778 29.245
52.940 58.210 25.502
53.165 58.335 24.905
53.011 57.904 25.252
52.945 57.564 25.718
52.856 57.922 26.133
52.862 57.247 26.511
52.917 57.882 27.061
53.008 57.688 28.120
53.033 58.110 27.632
53.255 57.417 28.787
53.115 58.718 25.219
53.267 58.868 24.850
53.068 58.587 25.916
53.230 58.658 26.560
53.358 58.484 27.284
53.555 59.291 25.013
53.480 59.072 25.929
53.338 42.871 35.520
54.344 42.522 36.054
53.978 42.539 37.106
53.550 42.911 37.905
54.108 43.492 38.669
53.286 43.675 34.335
53.301 43.182 34.920
53.972 43.954 39.211
53.949 44.163 39.226
54.111 44.095 39.392
53.646 44.712 33.301
53.513 44.152 33.766
52.668 45.241 36.824
54.241 44.172 39.239
53.987 44.461 38.744
53.494 46.479 32.157
53.973 46.602 31.714
54.039 46.046 32.158
54.229 45.329 32.679
53.891 45.949 34.062
53.547 46.145 33.290
53.958 45.750 35.046
53.825 45.577 36.044
53.660 45.304 37.185
54.212 44.983 38.145
53.812 46.991 31.518
54.178 47.368 31.058
54.301 46.952 31.268
53.230 46.476 32.424
53.503 46.725 32.238
53.805 46.471 32.775
54.022 47.517 31.257
54.530 47.881 30.638
53.995 47.329 31.793
54.264 47.801 31.310
54.609 48.225 30.860
53.399 55.438 27.834
53.655 55.161 27.214
53.848 54.913 27.812
53.709 55.185 28.586
53.301 55.813 26.906
53.551 55.834 26.090
53.725 55.310 26.565
53.452 55.720 29.167
53.246 56.210 29.309
53.707 56.090 29.546
53.303 57.401 25.029
53.676 57.440 24.351
53.777 56.850 24.630
53.646 56.327 25.339
53.166 56.645 26.041
52.958 56.542 26.891
53.943 56.676 29.585
53.503 58.055 24.373
53.904 58.290 23.827
53.784 57.743 24.068
53.234 58.185 27.919
53.458 57.947 28.441
53.919 57.487 29.082
53.542 58.851 24.360
53.876 59.013 23.825
54.154 58.774 27.180
53.755 58.999 26.514
53.762 58.393 27.907
54.065 58.129 28.503
54.004 59.587 23.974
53.966 59.875 24.483
54.261 60.061 24.117
54.033 59.839 24.875
54.165 59.514 25.576
54.271 60.085 24.463
54.114 43.087 34.893
55.038 43.210 34.449
55.326 42.612 35.344
55.256 42.291 36.164
55.259 42.224 36.931
54.657 42.731 37.826
55.138 43.194 38.317
54.328 43.909 33.857
55.129 44.189 33.418
55.467 43.628 33.842
54.264 43.964 39.224
54.851 43.997 38.814
54.607 44.662 33.137
55.007 45.080 32.687
55.413 44.595 33.001
54.974 44.702 38.515
54.589 46.403 31.624
55.009 45.672 32.142
54.110 46.180 33.538
54.612 46.075 34.085
54.959 45.894 34.898
54.940 45.669 35.973
54.691 45.483 36.855
55.060 45.183 37.806
54.656 47.364 30.797
55.012 46.807 31.088
55.024 46.759 33.103
54.623 47.126 32.448
54.959 46.339 33.707
54.912 47.737 30.411
54.712 47.638 31.935
54.816 48.079 31.445
54.947 48.582 30.228
55.285 48.708 29.815
55.010 48.196 30.135
55.057 48.605 30.925
55.289 48.996 30.441
55.523 49.366 29.707
54.792 54.096 27.029
55.036 54.003 26.252
55.207 53.635 26.819
55.269 53.527 27.899
54.478 54.441 28.345
55.225 53.879 29.131
54.838 54.473 29.593
55.268 54.120 29.860
54.754 55.030 25.082
55.245 54.886 24.588
55.208 54.539 25.017
55.128 54.274 25.540
54.655 54.540 26.053
54.160 54.758 26.956
54.173 55.232 29.415
55.162 54.467 30.120
54.865 55.033 30.055
55.442 54.719 30.289
54.789 55.734 24.295
55.073 56.104 23.688
55.306 55.343 24.071
54.197 56.040 24.782
54.083 55.356 25.787
54.483 55.978 29.905
55.280 55.505 30.243
54.246 57.036 23.955
54.883 57.037 23.225
54.583 56.901 29.644
55.170 56.344 30.047
54.462 57.938 23.264
54.913 58.361 22.672
54.839 57.669 22.911
54.317 57.926 28.850
54.930 57.645 29.027
54.579 58.130 28.576
55.371 56.960 29.677
54.302 58.976 23.309
54.815 59.295 22.729
55.104 58.847 26.904
54.538 59.163 26.397
54.725 58.447 27.878
54.559 59.755 23.214
54.464 60.050 23.694
54.888 60.106 23.269
54.885 59.805 25.141
54.901 60.035 24.656
54.480 59.987 24.804
54.975 59.459 25.771
54.858 60.150 24.033
55.859 41.961 37.219
55.906 41.929 36.966
56.029 41.840 37.168
56.025 41.951 37.288
55.964 42.994 34.450
56.469 42.506 35.198
56.045 42.198 36.307
55.884 42.455 37.537
56.076 43.466 38.188
55.840 44.065 33.330
56.478 43.459 33.679
55.838 44.350 38.506
55.842 44.965 32.506
56.050 44.426 32.940
55.716 44.866 38.322
56.412 44.685 38.239
56.048 45.062 37.930
55.485 46.150 31.500
56.034 45.498 31.901
55.287 46.094 34.410
55.834 45.986 34.976
56.265 45.719 35.872
55.912 45.371 37.056
55.415 47.268 30.531
55.891 46.537 30.955
55.266 47.048 32.877
55.739 46.991 33.201
55.965 46.669 33.744
56.118 46.251 34.505
55.311 47.844 30.152
55.581 48.276 29.814
55.970 47.624 30.056
55.117 47.935 31.852
55.355 47.716 32.226
55.799 47.370 32.819
55.816 49.015 29.382
55.420 48.935 30.803
55.584 48.741 31.193
55.827 48.301 31.852
55.911 50.052 28.937
56.270 50.073 28.483
56.110 49.499 28.921
56.029 50.301 29.360
56.006 49.814 30.036
56.071 49.373 30.745
56.076 51.007 28.148
56.221 51.315 27.550
56.469 50.633 27.923
56.143 51.040 28.765
56.430 50.935 29.237
56.568 50.580 29.726
55.979 52.111 27.315
56.232 52.311 26.578
56.353 51.717 27.040
56.060 51.811 28.241
56.318 51.724 28.703
56.573 51.458 29.027
55.907 53.017 26.193
56.212 53.276 25.514
56.431 52.688 25.991
55.576 53.080 27.017
55.818 52.663 28.004
56.291 52.373 28.726
55.705 54.009 25.147
56.172 54.150 24.569
56.414 53.611 24.995
55.416 53.651 26.104
55.888 53.219 28.949
55.691 53.836 29.742
55.492 54.231 30.152
55.947 54.245 30.134
55.739 54.704 24.316
55.755 55.324 23.745
56.336 54.562 24.067
56.004 54.989 30.262
55.635 56.187 23.131
55.889 55.926 30.179
55.323 57.242 22.671
55.937 56.926 22.313
55.759 56.566 22.679
55.653 56.530 30.027
55.983 56.396 30.048
56.016 56.720 29.768
55.696 57.977 22.035
56.392 57.968 21.460
56.238 57.313 21.861
55.088 58.126 28.413
55.826 57.849 28.448
55.552 58.239 27.978
56.107 57.230 29.119
56.113 58.867 21.501
56.665 59.040 21.096
56.711 58.514 21.052
55.374 59.071 22.162
55.288 59.152 26.248
56.242 58.886 26.234
55.641 59.321 25.765
55.810 58.491 27.301
56.452 59.474 21.453
55.823 59.626 21.885
56.242 59.872 21.874
55.213 59.831 22.586
55.443 59.613 25.304
55.480 59.902 24.595
55.797 60.019 22.274
55.564 60.142 23.024
55.714 60.081 23.767
56.158 42.023 37.055
56.929 42.823 34.340
57.459 42.512 34.997
56.945 42.361 35.857
56.805 42.442 36.849
56.650 42.862 37.578
57.088 42.835 37.305
56.450 44.016 33.146
56.654 44.382 32.704
57.157 43.731 33.106
57.431 43.107 33.684
57.140 43.380 37.621
56.699 44.121 38.170
56.713 44.916 32.147
56.923 44.506 38.064
56.881 44.862 37.683
56.496 45.829 31.346
56.665 45.336 31.755
56.510 45.996 35.221
57.272 45.858 35.658
56.972 46.167 35.035
57.254 45.585 36.182
57.247 45.245 36.792
56.488 46.798 30.475
56.574 46.267 30.891
57.280 46.578 34.488
56.724 47.170 33.516
56.538 48.144 29.545
56.779 47.312 29.985
56.717 47.647 33.007
56.325 47.938 32.508
56.352 48.941 29.123
56.641 49.345 28.751
57.039 48.634 29.065
57.197 48.562 32.315
56.725 49.130 31.483
56.930 49.856 28.273
56.946 49.740 30.973
56.960 50.251 30.436
56.599 51.098 27.404
57.201 50.437 27.692
57.178 50.887 29.979
57.044 51.311 29.542
56.733 52.002 26.491
56.742 51.453 26.989
56.967 51.789 29.236
56.665 51.989 28.972
56.724 53.020 25.445
56.997 52.457 25.895
56.756 52.425 29.105
56.754 53.892 24.511
57.044 53.312 24.979
56.603 52.917 29.273
56.349 53.607 29.701
56.713 54.264 30.052
56.597 55.170 23.411
57.145 54.266 24.002
56.810 55.271 30.075
56.370 56.073 22.689
57.078 56.040 22.393
57.336 55.455 22.868
56.486 56.172 29.921
57.017 55.780 29.894
57.140 56.121 29.648
56.594 56.625 22.111
56.857 57.249 21.602
57.385 56.562 21.947
56.672 56.652 29.472
57.295 56.465 29.294
57.125 56.907 28.941
57.028 57.905 21.136
57.010 57.491 28.274
56.418 58.066 27.738
57.119 58.791 20.869
57.164 58.352 20.855
56.261 59.433 25.107
57.534 58.950 25.208
57.058 59.433 24.414
57.372 58.551 26.188
56.891 58.334 26.930
57.078 59.243 21.163
56.303 60.025 22.395
56.958 59.657 21.832
56.360 59.997 23.187
56.973 59.812 22.616
56.362 59.795 24.084
57.249 59.612 23.473
57.644 42.717 34.222
58.062 42.874 33.819
58.210 42.638 34.473
58.026 42.529 35.126
57.759 42.590 35.936
57.535 42.883 36.902
58.001 42.923 36.478
57.635 44.211 32.392
58.192 43.364 33.150
58.074 43.476 36.898
57.435 44.180 37.669
58.100 44.147 37.213
57.389 45.078 31.627
58.252 45.059 31.227
58.443 44.433 31.765
57.771 44.647 37.280
58.359 44.421 36.975
58.227 44.873 36.746
57.450 45.880 30.845
58.234 46.057 30.388
58.673 45.425 30.758
57.587 46.148 35.222
58.033 45.875 35.623
58.084 45.434 36.195
57.482 46.649 30.213
57.566 47.312 29.740
58.424 46.583 29.973
58.526 46.730 34.606
57.983 47.224 33.989
58.259 46.213 35.147
57.630 47.942 29.329
57.178 48.036 32.834
57.588 47.708 33.338
57.604 49.014 28.633
57.801 48.370 29.005
58.422 48.903 32.543
57.934 49.301 31.987
58.088 48.285 32.965
57.837 49.627 28.102
57.370 50.083 30.904
57.781 49.896 31.360
57.060 51.032 27.222
57.295 51.422 26.783
57.794 50.779 27.184
58.197 50.077 27.633
57.478 51.232 29.940
57.899 51.096 30.413
57.886 50.479 30.893
57.446 51.950 26.227
57.087 52.240 29.287
57.432 51.997 29.574
57.767 51.664 29.953
57.424 52.747 25.427
57.460 52.326 25.839
57.057 52.691 29.395
57.504 52.621 29.640
57.570 53.542 24.561
57.552 53.106 25.002
57.187 53.331 29.738
57.913 54.192 30.029
57.857 54.686 23.462
57.946 53.996 24.036
57.662 55.419 29.796
58.618 54.891 29.851
58.336 55.524 29.562
57.904 55.925 22.398
58.409 55.335 22.880
57.780 56.011 29.413
58.453 55.943 29.221
57.846 56.462 29.005
57.750 57.406 21.397
58.292 56.592 21.950
57.947 56.932 28.483
57.472 58.026 20.945
57.589 58.463 20.805
57.879 58.046 21.006
58.289 57.407 27.744
57.486 57.875 27.406
57.598 58.879 20.942
57.862 58.630 20.855
58.169 58.678 21.184
57.763 59.259 24.176
58.686 58.918 24.275
58.112 59.277 23.512
58.563 58.639 25.262
58.109 58.501 25.853
58.003 58.169 26.590
57.726 59.184 21.469
57.944 59.351 22.498
58.697 42.923 33.793
58.823 42.796 34.435
58.513 42.725 35.185
58.408 42.984 36.020
58.822 43.023 35.519
58.781 43.795 32.393
59.405 43.358 33.138
58.934 43.562 35.956
58.529 43.989 36.768
58.847 44.406 36.403
59.243 44.686 31.289
59.256 44.096 31.864
58.707 44.984 36.317
59.111 45.887 30.292
59.669 45.251 30.722
58.779 45.253 36.061
58.799 45.642 35.650
58.656 47.266 29.498
59.474 46.462 29.863
58.899 47.221 34.206
59.444 46.780 34.529
59.162 46.185 35.033
58.359 47.919 29.147
58.545 48.346 28.818
59.234 47.712 29.094
59.645 47.369 34.068
58.811 47.795 33.624
58.786 48.929 28.333
58.775 49.404 32.281
59.238 49.187 32.586
59.328 48.588 33.025
58.619 49.513 27.934
59.003 49.781 27.625
59.450 49.266 27.894
59.507 49.680 32.307
58.790 49.891 31.896
58.328 51.360 26.531
59.008 50.440 27.142
58.413 50.912 30.900
58.930 50.676 31.385
58.126 52.180 25.798
58.972 52.340 25.484
59.210 51.793 25.984
58.067 52.404 29.977
58.543 51.977 30.419
58.889 51.406 30.906
58.305 52.897 25.040
59.194 53.248 24.588
59.411 52.741 25.059
57.965 53.119 29.959
58.945 53.063 30.388
58.476 53.549 24.363
58.848 54.207 23.788
59.198 53.711 24.162
59.190 54.143 30.187
58.913 54.859 23.276
59.343 54.725 29.938
59.163 55.310 29.576
59.020 56.099 22.433
59.477 55.472 22.916
59.067 55.908 29.109
58.585 56.397 28.780
58.610 57.199 21.697
59.041 56.782 22.040
58.951 56.842 28.230
58.023 58.376 20.946
58.514 57.985 21.405
58.335 57.800 27.100
59.096 57.643 27.085
58.807 57.960 26.621
59.297 57.247 27.633
58.750 58.524 21.595
58.706 59.062 23.240
59.453 58.764 23.525
59.059 58.807 22.529
59.608 58.684 24.272
59.359 58.565 24.974
58.950 58.288 25.888
58.485 58.915 21.787
59.267 43.043 34.015
59.200 43.113 34.879
59.596 43.747 32.307
60.083 44.217 31.810
60.264 43.736 32.593
60.129 43.508 33.209
59.956 43.494 34.009
59.671 43.718 35.090
59.405 44.157 35.744
59.911 44.351 35.222
60.159 44.795 31.200
59.321 44.902 35.799
59.985 44.924 35.208
60.088 45.803 30.278
60.572 45.289 30.804
59.653 45.514 35.264
60.249 45.292 34.855
60.075 46.063 34.670
59.907 47.058 29.457
60.528 46.408 29.893
60.187 46.847 34.267
59.597 48.203 28.674
60.308 47.614 29.041
60.326 47.339 33.924
60.065 47.908 33.538
60.022 48.676 28.222
60.458 48.545 33.039
60.143 49.250 32.639
59.891 49.757 27.463
60.484 49.142 27.787
60.243 49.888 32.309
59.817 50.351 31.959
59.697 51.113 26.524
60.375 50.419 26.982
59.851 50.903 31.662
59.973 52.283 25.505
60.344 51.692 26.033
59.472 52.219 30.887
59.914 51.530 31.370
60.043 53.196 24.683
60.172 52.768 25.056
59.932 52.857 30.876
60.346 52.400 31.210
59.689 54.136 23.872
59.924 53.707 24.242
60.522 52.965 31.057
60.126 53.537 30.643
60.012 54.945 23.413
60.526 54.384 23.875
59.639 54.860 29.879
60.000 54.416 30.180
60.066 56.208 22.691
60.321 55.744 22.992
59.367 56.257 28.756
59.828 55.630 29.299
59.983 54.995 29.810
59.308 57.435 21.968
59.788 56.837 22.367
59.463 56.965 27.979
59.877 56.648 28.308
59.827 57.085 27.752
60.018 56.102 28.871
59.336 58.230 22.079
60.212 57.664 22.557
60.260 57.477 27.001
59.607 57.946 26.352
58.972 58.658 21.927
60.054 58.363 23.008
60.188 58.519 23.928
60.039 58.501 24.636
60.022 58.268 25.408
60.732 44.165 32.151
60.855 44.020 32.621
60.639 43.843 33.257
60.596 44.069 34.018
60.971 44.291 33.567
60.194 43.990 34.610
61.027 44.922 31.640
61.110 44.416 32.336
60.870 44.592 34.024
60.753 45.347 34.237
60.445 44.618 34.630
60.963 45.865 30.389
61.241 45.526 30.911
60.725 46.292 34.102
61.082 47.111 29.539
61.388 46.462 30.100
60.684 46.938 33.948
61.072 46.617 33.646
60.889 47.344 33.501
60.666 48.122 28.606
61.189 47.721 29.046
60.829 48.010 33.232
61.134 48.629 28.146
61.146 48.324 32.890
61.083 48.915 32.615
61.112 49.723 27.408
61.285 49.082 27.759
60.639 50.307 32.118
61.023 49.724 32.306
61.045 51.186 26.487
61.548 50.532 26.975
61.335 50.450 31.971
60.648 50.994 31.787
61.002 52.226 25.697
61.220 51.789 26.058
61.019 51.985 31.480
60.687 53.138 24.839
60.858 52.733 25.244
60.927 52.681 31.276
61.475 52.675 31.280
61.027 53.212 31.002
61.000 53.876 24.408
61.413 53.343 24.927
60.956 53.986 30.531
61.131 55.177 23.619
61.350 54.693 23.968
60.574 54.631 30.117
61.199 54.602 30.146
60.632 55.124 29.733
60.751 56.310 22.918
61.066 55.936 23.280
60.623 55.715 29.217
60.712 56.978 22.801
61.227 56.700 23.134
60.337 56.997 27.811
60.748 56.608 28.284
60.491 56.231 28.735
60.943 57.636 22.979
60.405 57.955 26.000
61.203 57.756 25.832
60.773 58.114 25.346
61.473 57.329 26.803
61.038 57.031 27.624
60.734 58.012 23.066
60.797 58.228 23.636
60.709 58.281 24.554
61.157 44.426 32.972
61.395 44.980 32.484
61.380 45.087 33.081
61.149 44.874 33.579
61.624 46.085 30.654
61.691 45.810 31.312
61.672 45.787 32.137
62.006 46.299 31.665
61.527 45.613 32.836
61.239 45.768 33.516
61.818 47.014 29.983
61.918 46.630 30.423
61.947 46.566 32.163
61.918 47.293 32.337
61.531 46.590 32.914
61.594 48.167 28.705
62.069 47.851 29.535
61.400 47.672 32.923
61.747 48.257 32.377
61.645 48.878 27.940
61.965 49.319 27.768
62.088 48.727 28.322
62.151 48.303 28.854
61.749 49.171 32.129
62.173 50.143 27.403
61.733 49.879 31.982
62.111 51.183 26.721
62.380 50.768 27.095
61.993 50.373 31.688
61.730 51.258 31.559
61.691 52.197 25.892
62.002 51.826 26.294
61.769 52.142 31.390
61.937 52.896 25.561
62.214 52.401 25.995
61.937 52.565 31.210
61.872 53.252 30.813
61.846 53.974 24.681
62.085 53.638 25.059
61.649 54.127 30.406
61.785 55.265 23.874
62.144 54.837 24.397
61.709 54.527 30.122
61.536 55.135 29.607
61.798 55.898 23.710
62.226 55.674 24.075
61.266 56.006 28.873
61.862 55.609 29.122
62.046 55.999 28.627
61.387 57.386 23.367
61.779 56.750 23.646
61.838 56.941 27.493
62.320 56.806 27.395
62.245 57.035 26.848
61.540 56.560 28.179
62.240 56.502 27.898
61.153 57.901 23.375
61.808 57.426 23.987
61.374 57.908 24.060
61.255 58.006 24.913
61.850 57.587 24.840
62.060 57.340 25.923
62.092 46.571 31.050
62.260 47.285 30.512
62.338 47.252 31.224
62.180 46.928 31.706
62.516 48.065 30.410
62.459 47.907 31.093
62.236 47.696 31.758
62.527 49.237 28.088
62.713 49.077 28.479
62.630 48.715 29.051
62.764 48.754 30.017
63.054 49.209 29.511
62.606 48.711 30.918
62.262 48.554 31.668
62.716 49.851 27.878
62.928 49.526 28.303
63.093 49.479 30.035
63.133 50.221 30.291
62.826 49.539 30.676
62.316 49.557 31.502
62.763 51.218 27.011
63.124 50.924 27.615
62.573 50.617 31.081
63.113 51.259 30.405
62.757 51.737 26.727
63.197 51.586 27.139
62.423 52.057 30.984
63.119 52.171 30.339
62.485 52.730 25.981
62.793 52.467 26.418
62.782 53.001 30.378
63.358 52.683 29.883
63.194 53.529 29.680
62.431 54.262 24.892
62.626 53.801 25.474
62.824 53.214 26.084
62.331 54.163 30.025
63.009 54.346 29.399
62.652 54.737 24.814
62.908 54.588 25.292
62.515 55.177 29.110
63.186 54.727 28.852
63.081 55.265 28.432
62.368 56.426 24.251
62.662 55.780 24.560
62.853 55.204 24.942
62.776 56.461 27.195
63.227 55.982 26.831
63.077 56.417 26.370
62.695 55.890 28.206
63.188 55.629 27.628
62.158 57.110 24.303
62.813 56.378 24.891
62.509 56.967 25.096
62.689 56.866 26.165
62.995 56.482 25.607
63.114 49.497 28.900
63.284 50.258 28.427
63.421 50.214 29.128
63.287 49.847 29.603
63.603 51.113 28.362
63.599 50.956 29.013
63.431 50.693 29.711
63.370 52.233 27.030
63.639 51.872 27.515
63.787 51.717 28.065
64.010 52.367 28.330
63.809 51.796 28.752
63.540 51.775 29.637
63.513 53.191 27.036
63.857 52.537 27.522
63.747 52.844 28.989
64.024 52.900 28.250
63.234 54.216 26.218
63.576 54.196 27.250
63.958 52.986 27.777
63.783 53.567 28.067
63.485 53.980 28.906
63.209 55.204 25.731
63.401 55.165 26.830
63.474 54.686 28.041
63.059 55.886 25.248
63.257 55.919 26.082
63.978 52.235 27.873
64.077 52.625 27.958
3 2 1 0
3 4 3 0
3 0 3 2
3 4 5 3
3 1 6 0
3 0 6 4
3 4 6 7
3 4 7 5
3 10 9 8
3 1 2 8
3 2 10 8
3 2 11 10
3 12 2 3
3 12 11 2
3 14 13 5
3 13 3 5
3 13 12 3
3 14 15 13
3 18 17 16
3 18 16 9
3 16 8 9
3 16 19 8
3 8 19 1
3 19 20 1
3 20 6 1
3 19 21 20
3 6 22 7
3 20 22 6
3 5 7 14
3 7 23 14
3 7 22 23
3 14 23 15
3 17 24 16
3 16 24 19
3 19 24 25
3 19 25 21
3 28 27 26
3 30 29 26
3 26 29 28
3 32 31 30
3 30 31 29
3 32 33 31
3 35 34 10
3 10 34 9
3 11 26 27
3 35 11 27
3 10 11 35
3 26 11 12
3 26 12 30
3 30 12 13
3 30 13 32
3 13 15 32
3 15 33 32
3 15 36 33
3 38 37 18
3 18 37 17
3 18 9 34
3 18 34 38
3 21 39 20
3 20 39 40
3 41 20 40
3 22 20 41
3 41 43 42
3 23 41 42
3 22 41 23
3 42 44 23
3 44 15 23
3 44 36 15
3 47 46 45
3 24 49 48
3 49 24 45
3 17 45 24
3 45 17 47
3 37 47 17
3 24 50 25
3 48 50 24
3 21 25 39
3 25 51 39
3 25 50 51
3 39 51 40
3 43 52 42
3 42 52 44
3 55 54 53
3 57 56 53
3 56 45 53
3 46 55 53
3 46 53 45
3 45 56 49
3 54 58 53
3 53 58 57
3 61 60 59
3 59 62 61
3 59 60 63
3 63 60 64
3 62 59 65
3 59 66 65
3 59 63 66
3 66 67 65
3 70 69 68
3 72 71 68
3 68 71 70
3 74 73 72
3 72 73 71
3 76 75 74
3 75 63 74
3 64 73 74
3 64 74 63
3 63 75 66
3 66 75 77
3 66 77 67
3 68 69 78
3 78 69 79
3 68 80 72
3 68 78 80
3 82 74 81
3 74 80 81
3 74 72 80
3 74 82 76
3 79 83 78
3 78 83 80
3 80 83 84
3 80 84 81
3 86 85 28
3 28 85 27
3 87 28 29
3 87 86 28
3 88 29 31
3 88 87 29
3 31 33 88
3 88 33 89
3 91 90 35
3 35 90 34
3 35 27 85
3 35 85 91
3 36 93 92
3 89 36 92
3 33 36 89
3 93 94 92
3 96 95 38
3 38 95 37
3 38 34 90
3 38 90 96
3 40 97 41
3 97 43 41
3 99 98 93
3 36 99 93
3 44 99 36
3 93 98 94
3 102 101 100
3 46 47 100
3 47 102 100
3 47 103 102
3 48 49 104
3 105 104 49
3 95 47 37
3 47 95 103
3 48 106 50
3 104 106 48
3 50 107 51
3 106 107 50
3 40 51 97
3 51 108 97
3 51 107 108
3 97 108 43
3 108 52 43
3 108 109 52
3 44 52 99
3 99 52 109
3 112 111 110
3 112 110 101
3 101 110 100
3 110 54 100
3 54 55 100
3 114 113 57
3 114 55 113
3 55 114 100
3 115 100 114
3 100 115 46
3 113 46 115
3 115 56 113
3 113 56 57
3 55 46 113
3 49 56 105
3 105 56 115
3 110 111 116
3 116 111 117
3 110 116 54
3 116 118 54
3 118 58 54
3 116 119 118
3 57 58 114
3 114 58 118
3 117 120 116
3 116 120 119
3 123 122 121
3 121 124 123
3 127 126 125
3 127 125 122
3 122 125 121
3 125 60 121
3 60 61 121
3 129 128 62
3 62 128 61
3 128 124 61
3 124 121 61
3 129 130 128
3 133 132 131
3 135 134 131
3 131 134 133
3 134 135 126
3 135 125 126
3 135 136 125
3 136 64 60
3 136 60 125
3 65 129 62
3 65 67 129
3 67 130 129
3 67 137 130
3 140 139 138
3 140 138 132
3 132 138 131
3 138 69 131
3 69 70 131
3 131 70 71
3 131 71 135
3 135 71 73
3 135 73 136
3 64 136 73
3 75 76 141
3 142 77 75
3 142 75 141
3 142 143 77
3 143 67 77
3 143 137 67
3 138 139 144
3 144 139 145
3 144 79 69
3 144 69 138
3 147 146 82
3 147 82 81
3 76 82 141
3 82 148 141
3 82 146 148
3 141 148 142
3 142 148 149
3 142 149 143
3 145 150 144
3 150 152 151
3 150 151 83
3 144 150 83
3 79 144 83
3 83 151 153
3 154 83 153
3 84 83 154
3 81 84 147
3 147 84 154
3 152 155 151
3 151 155 153
3 158 157 156
3 85 86 156
3 86 158 156
3 86 159 158
3 160 86 87
3 160 159 86
3 161 87 88
3 161 160 87
3 88 89 161
3 161 89 162
3 165 164 163
3 165 163 157
3 157 163 156
3 163 90 156
3 90 91 156
3 156 91 85
3 89 92 166
3 167 89 166
3 162 89 167
3 94 166 92
3 170 169 168
3 170 168 164
3 164 168 163
3 168 95 163
3 95 96 163
3 163 96 90
3 167 166 98
3 99 167 98
3 171 167 99
3 98 166 94
3 173 172 102
3 102 172 101
3 103 168 169
3 173 103 169
3 102 103 173
3 95 168 103
3 104 105 174
3 104 174 175
3 176 104 175
3 106 104 176
3 106 177 107
3 176 177 106
3 107 178 108
3 177 178 107
3 108 179 109
3 178 179 108
3 99 109 171
3 171 109 179
3 181 180 112
3 112 180 111
3 112 101 172
3 112 172 181
3 183 182 115
3 183 115 114
3 105 115 174
3 115 184 174
3 115 182 184
3 174 184 175
3 180 117 111
3 185 117 180
3 187 186 118
3 187 118 119
3 114 118 183
3 183 118 186
3 190 189 188
3 120 192 191
3 192 120 188
3 117 188 120
3 188 117 190
3 185 190 117
3 119 120 187
3 187 120 191
3 189 193 188
3 188 193 192
3 196 195 194
3 198 197 194
3 194 197 196
3 200 199 198
3 198 199 197
3 200 201 199
3 204 203 202
3 206 205 202
3 202 205 204
3 205 206 195
3 206 194 195
3 206 207 194
3 207 122 123
3 198 207 123
3 194 207 198
3 198 123 124
3 208 198 124
3 200 198 208
3 201 200 209
3 200 210 209
3 200 208 210
3 210 211 209
3 214 213 212
3 214 212 203
3 212 202 203
3 212 215 202
3 202 216 206
3 202 215 216
3 216 126 127
3 207 216 127
3 206 216 207
3 207 127 122
3 128 208 124
3 208 128 130
3 217 208 130
3 210 208 217
3 211 210 218
3 218 210 217
3 212 213 219
3 219 213 220
3 219 132 133
3 215 219 133
3 212 219 215
3 215 133 134
3 215 134 216
3 216 134 126
3 137 221 217
3 137 217 130
3 218 217 222
3 222 217 221
3 225 224 223
3 225 223 220
3 220 223 219
3 223 139 219
3 139 140 219
3 219 140 132
3 228 227 226
3 227 229 221
3 143 227 221
3 137 143 221
3 226 227 143
3 221 229 222
3 223 224 230
3 230 224 231
3 230 145 139
3 230 139 223
3 233 232 146
3 233 146 147
3 146 234 148
3 232 234 146
3 226 149 228
3 149 234 228
3 149 148 234
3 149 226 143
3 231 235 230
3 235 237 236
3 235 236 150
3 230 235 150
3 145 230 150
3 152 150 236
3 240 239 238
3 154 153 240
3 238 154 240
3 241 154 238
3 147 154 233
3 233 154 241
3 237 242 236
3 239 240 242
3 240 155 242
3 152 236 242
3 152 242 155
3 155 240 153
3 245 244 243
3 243 246 245
3 248 247 158
3 158 247 157
3 249 158 159
3 249 248 158
3 160 243 244
3 249 160 244
3 159 160 249
3 250 246 243
3 160 250 243
3 161 250 160
3 161 162 250
3 250 162 251
3 253 252 165
3 165 252 164
3 165 157 247
3 165 247 253
3 167 251 162
3 167 254 251
3 256 255 170
3 170 255 169
3 170 164 252
3 170 252 256
3 259 258 257
3 258 254 257
3 254 171 257
3 254 167 171
3 261 260 173
3 173 260 172
3 173 169 255
3 173 255 261
3 175 262 176
3 176 262 263
3 264 176 263
3 177 176 264
3 177 265 178
3 264 265 177
3 257 179 259
3 179 265 259
3 179 178 265
3 179 257 171
3 267 266 181
3 181 266 180
3 181 172 260
3 181 260 267
3 183 268 182
3 182 268 269
3 270 182 269
3 184 182 270
3 175 184 262
3 184 271 262
3 184 270 271
3 262 271 263
3 274 273 272
3 266 274 272
3 185 266 272
3 180 266 185
3 187 275 186
3 275 276 186
3 186 276 183
3 276 277 183
3 277 268 183
3 268 277 269
3 272 273 190
3 273 189 190
3 273 278 189
3 185 272 190
3 191 192 279
3 279 280 191
3 191 280 187
3 280 281 187
3 281 275 187
3 275 281 276
3 284 283 282
3 282 285 193
3 278 282 193
3 189 278 193
3 282 278 284
3 285 286 193
3 193 286 192
3 286 287 192
3 287 279 192
3 279 287 280
3 290 289 288
3 290 288 283
3 288 282 283
3 288 291 282
3 293 285 292
3 285 291 292
3 285 282 291
3 285 293 286
3 296 295 294
3 296 294 289
3 294 288 289
3 294 297 288
3 299 291 298
3 291 297 298
3 291 288 297
3 291 299 292
3 302 301 300
3 302 300 295
3 300 294 295
3 300 303 294
3 294 304 297
3 294 303 304
3 298 297 305
3 305 297 304
3 308 307 306
3 308 306 301
3 306 300 301
3 306 309 300
3 309 195 196
3 303 309 196
3 300 309 303
3 303 196 197
3 303 197 304
3 310 305 304
3 197 310 304
3 199 310 197
3 312 311 201
3 311 199 201
3 311 310 199
3 312 313 311
3 316 315 314
3 316 314 307
3 307 314 306
3 314 203 306
3 203 204 306
3 306 204 205
3 306 205 309
3 309 205 195
3 209 312 201
3 209 211 312
3 211 313 312
3 211 317 313
3 314 315 214
3 315 213 214
3 315 318 213
3 314 214 203
3 218 317 211
3 218 319 317
3 322 321 320
3 318 322 320
3 220 318 320
3 213 318 220
3 325 324 323
3 324 319 323
3 319 222 323
3 319 218 222
3 328 327 326
3 328 326 321
3 321 326 320
3 326 224 320
3 224 225 320
3 320 225 220
3 331 330 329
3 227 228 329
3 330 227 329
3 332 227 330
3 323 229 325
3 229 332 325
3 229 227 332
3 229 323 222
3 335 334 333
3 335 333 327
3 333 326 327
3 333 336 326
3 336 231 224
3 336 224 326
3 339 338 337
3 232 233 337
3 338 232 337
3 340 232 338
3 329 234 331
3 234 340 331
3 234 232 340
3 234 329 228
3 334 341 333
3 343 342 341
3 342 333 341
3 342 336 333
3 344 235 231
3 336 344 231
3 342 344 336
3 344 237 235
3 346 345 238
3 346 238 239
3 337 241 339
3 241 345 339
3 241 238 345
3 241 337 233
3 343 347 342
3 342 347 344
3 344 347 348
3 344 348 237
3 348 242 237
3 348 349 242
3 239 242 346
3 346 242 349
3 350 244 245
3 246 350 245
3 352 351 248
3 248 351 247
3 353 248 249
3 353 352 248
3 249 244 350
3 354 249 350
3 353 249 354
3 356 354 355
3 355 354 250
3 354 350 250
3 350 246 250
3 251 355 250
3 359 358 357
3 252 253 357
3 253 359 357
3 253 360 359
3 253 247 351
3 253 351 360
3 361 356 355
3 355 251 361
3 251 362 361
3 251 254 362
3 357 358 256
3 358 255 256
3 358 363 255
3 357 256 252
3 365 364 258
3 365 258 259
3 254 258 362
3 362 258 364
3 367 366 261
3 261 366 260
3 261 255 363
3 261 363 367
3 370 369 368
3 264 263 368
3 369 264 368
3 371 264 369
3 264 372 265
3 371 372 264
3 259 265 365
3 365 265 372
3 374 373 267
3 267 373 266
3 267 260 366
3 267 366 374
3 376 375 270
3 376 270 269
3 368 271 370
3 271 375 370
3 271 270 375
3 271 368 263
3 378 377 274
3 274 377 273
3 274 266 373
3 274 373 378
3 380 379 277
3 380 277 276
3 269 277 376
3 376 277 379
3 383 382 381
3 377 383 381
3 278 377 381
3 273 377 278
3 385 384 281
3 385 281 280
3 276 281 380
3 380 281 384
3 381 382 284
3 382 283 284
3 382 386 283
3 381 284 278
3 388 387 287
3 388 287 286
3 280 287 385
3 385 287 387
3 390 389 290
3 290 389 289
3 290 283 386
3 290 386 390
3 392 391 293
3 392 293 292
3 286 293 388
3 388 293 391
3 394 393 296
3 296 393 295
3 296 289 389
3 296 389 394
3 396 395 299
3 396 299 298
3 292 299 392
3 392 299 395
3 398 397 302
3 302 397 301
3 302 295 393
3 302 393 398
3 305 396 298
3 305 399 396
3 401 400 308
3 308 400 307
3 308 301 397
3 308 397 401
3 402 399 305
3 402 305 310
3 403 310 311
3 403 402 310
3 311 313 403
3 403 313 404
3 406 405 316
3 316 405 315
3 316 307 400
3 316 400 406
3 317 404 313
3 317 407 404
3 410 409 408
3 405 410 408
3 318 405 408
3 315 405 318
3 413 412 411
3 412 407 411
3 407 319 411
3 407 317 319
3 416 415 414
3 416 414 409
3 409 414 408
3 414 321 408
3 321 322 408
3 408 322 318
3 419 418 417
3 417 418 413
3 417 413 411
3 325 417 411
3 324 325 411
3 324 411 319
3 414 415 328
3 415 327 328
3 415 420 327
3 414 328 321
3 422 421 330
3 422 330 331
3 417 332 419
3 332 421 419
3 332 330 421
3 332 417 325
3 424 423 335
3 335 423 334
3 335 327 420
3 335 420 424
3 427 426 425
3 338 339 425
3 426 338 425
3 428 338 426
3 338 429 340
3 428 429 338
3 331 340 422
3 422 340 429
3 423 430 334
3 334 430 341
3 432 431 343
3 341 432 343
3 430 432 341
3 434 433 431
3 434 431 432
3 436 435 433
3 436 433 434
3 435 436 427
3 435 427 425
3 346 435 425
3 345 346 425
3 345 425 339
3 431 347 343
3 347 431 348
3 348 431 433
3 348 433 349
3 349 433 435
3 349 435 346
3 439 438 437
3 351 352 437
3 352 439 437
3 352 440 439
3 441 352 353
3 441 440 352
3 443 441 442
3 441 354 442
3 441 353 354
3 356 442 354
3 445 444 359
3 359 444 358
3 360 437 438
3 445 360 438
3 359 360 445
3 437 360 351
3 446 443 442
3 448 446 447
3 447 446 361
3 446 442 361
3 442 356 361
3 362 447 361
3 451 450 449
3 444 451 449
3 363 444 449
3 358 444 363
3 454 453 452
3 452 453 448
3 452 448 447
3 365 452 447
3 364 365 447
3 364 447 362
3 457 456 455
3 457 455 450
3 450 455 449
3 455 366 449
3 366 367 449
3 449 367 363
3 370 458 369
3 369 458 459
3 460 369 459
3 371 369 460
3 452 372 454
3 372 460 454
3 372 371 460
3 372 452 365
3 463 462 461
3 463 461 456
3 456 461 455
3 461 373 455
3 373 374 455
3 455 374 366
3 465 464 375
3 465 375 376
3 370 375 458
3 375 466 458
3 375 464 466
3 458 466 459
3 461 462 378
3 462 377 378
3 462 467 377
3 461 378 373
3 380 468 379
3 468 469 379
3 469 376 379
3 469 465 376
3 471 470 383
3 383 470 382
3 383 377 467
3 383 467 471
3 473 472 384
3 473 384 385
3 380 384 468
3 384 474 468
3 384 472 474
3 468 474 469
3 470 386 382
3 475 386 470
3 388 476 387
3 476 477 387
3 477 385 387
3 477 473 385
3 480 479 478
3 389 390 478
3 390 480 478
3 390 481 480
3 390 386 475
3 390 475 481
3 392 482 391
3 482 483 391
3 391 483 388
3 483 484 388
3 484 476 388
3 476 484 477
3 478 479 394
3 479 393 394
3 479 485 393
3 478 394 389
3 396 486 395
3 486 487 395
3 395 487 392
3 487 488 392
3 488 482 392
3 482 488 483
3 490 489 398
3 398 489 397
3 398 393 485
3 398 485 490
3 399 491 486
3 399 486 396
3 487 486 492
3 492 486 491
3 494 493 401
3 401 493 400
3 401 397 489
3 401 489 494
3 402 491 399
3 495 492 491
3 402 495 491
3 403 495 402
3 403 404 495
3 495 404 496
3 498 497 406
3 406 497 405
3 406 400 493
3 406 493 498
3 501 500 499
3 500 496 499
3 496 407 499
3 496 404 407
3 503 502 410
3 410 502 409
3 410 405 497
3 410 497 503
3 506 505 504
3 504 505 501
3 504 501 499
3 413 504 499
3 412 413 499
3 412 499 407
3 508 507 416
3 416 507 415
3 416 409 502
3 416 502 508
3 506 504 418
3 419 506 418
3 509 506 419
3 418 504 413
3 512 511 510
3 507 512 510
3 420 507 510
3 415 507 420
3 514 513 421
3 514 421 422
3 419 421 509
3 509 421 513
3 516 515 511
3 515 423 511
3 424 510 511
3 424 511 423
3 424 420 510
3 515 516 517
3 520 519 518
3 426 427 518
3 519 426 518
3 521 426 519
3 426 522 428
3 521 522 426
3 428 523 429
3 522 523 428
3 422 429 514
3 514 429 523
3 515 430 423
3 517 524 515
3 524 430 515
3 524 432 430
3 432 525 434
3 524 525 432
3 518 436 520
3 436 525 520
3 436 434 525
3 436 518 427
3 527 526 439
3 439 526 438
3 528 439 440
3 528 527 439
3 530 528 529
3 528 441 529
3 528 440 441
3 443 529 441
3 532 531 445
3 445 531 444
3 445 438 526
3 445 526 532
3 533 530 529
3 535 533 534
3 534 533 446
3 533 529 446
3 529 443 446
3 448 534 446
3 537 536 451
3 451 536 450
3 451 444 531
3 451 531 537
3 535 534 453
3 454 535 453
3 538 535 454
3 453 534 448
3 540 539 457
3 457 539 456
3 457 450 536
3 457 536 540
3 542 541 460
3 542 460 459
3 454 460 538
3 538 460 541
3 544 543 463
3 463 543 462
3 463 456 539
3 463 539 544
3 465 545 464
3 464 545 546
3 547 464 546
3 466 464 547
3 459 466 542
3 542 466 547
3 550 549 548
3 543 550 548
3 467 543 548
3 462 543 467
3 552 551 545
3 465 552 545
3 469 552 465
3 545 551 546
3 548 549 471
3 549 470 471
3 549 553 470
3 548 471 467
3 473 554 472
3 472 554 555
3 556 472 555
3 474 472 556
3 469 474 552
3 552 474 556
3 559 558 557
3 553 559 557
3 475 553 557
3 470 553 475
3 561 560 554
3 473 561 554
3 477 561 473
3 554 560 555
3 563 562 480
3 480 562 479
3 481 557 558
3 563 481 558
3 480 481 563
3 557 481 475
3 483 564 484
3 564 565 484
3 565 477 484
3 565 561 477
3 568 567 566
3 562 568 566
3 485 562 566
3 479 562 485
3 487 569 488
3 569 570 488
3 488 570 483
3 570 571 483
3 571 564 483
3 564 571 565
3 574 573 572
3 574 572 567
3 567 572 566
3 572 489 566
3 489 490 566
3 566 490 485
3 492 575 569
3 492 569 487
3 570 569 576
3 576 569 575
3 579 578 577
3 579 577 573
3 573 577 572
3 577 493 572
3 493 494 572
3 572 494 489
3 495 575 492
3 495 496 575
3 496 576 575
3 496 580 576
3 577 578 498
3 578 497 498
3 578 581 497
3 577 498 493
3 583 582 500
3 583 500 501
3 496 500 580
3 580 500 582
3 585 584 503
3 503 584 502
3 503 497 581
3 503 581 585
3 587 586 505
3 587 505 506
3 501 505 583
3 583 505 586
3 589 588 508
3 508 588 507
3 508 502 584
3 508 584 589
3 509 587 506
3 509 590 587
3 591 511 512
3 592 591 512
3 507 592 512
3 588 592 507
3 595 594 593
3 513 514 593
3 594 513 593
3 596 513 594
3 509 513 590
3 590 513 596
3 591 516 511
3 517 516 591
3 592 517 591
3 597 517 592
3 600 599 598
3 519 520 598
3 599 519 598
3 601 519 599
3 519 602 521
3 601 602 519
3 521 603 522
3 602 603 521
3 593 523 595
3 523 603 595
3 523 522 603
3 523 593 514
3 597 604 517
3 517 604 524
3 598 525 600
3 525 604 600
3 525 524 604
3 525 598 520
3 605 526 527
3 528 606 527
3 527 606 605
3 530 606 528
3 609 608 607
3 531 532 607
3 532 609 607
3 532 610 609
3 532 526 605
3 611 532 605
3 610 532 611
3 611 605 606
3 611 606 612
3 614 612 613
3 613 612 533
3 612 606 533
3 606 530 533
3 535 613 533
3 607 608 537
3 608 536 537
3 608 615 536
3 607 537 531
3 614 613 616
3 614 616 617
3 538 616 535
3 535 616 613
3 619 618 540
3 540 618 539
3 540 536 615
3 540 615 619
3 622 621 620
3 620 621 617
3 620 617 616
3 542 620 616
3 541 542 616
3 541 616 538
3 624 623 544
3 544 623 543
3 544 539 618
3 544 618 624
3 622 620 547
3 546 622 547
3 625 622 546
3 547 620 542
3 627 626 550
3 550 626 549
3 550 543 623
3 550 623 627
3 629 628 551
3 629 551 552
3 546 551 625
3 625 551 628
3 626 553 549
3 630 553 626
3 632 631 556
3 632 556 555
3 552 556 629
3 629 556 631
3 634 633 559
3 559 633 558
3 559 553 630
3 559 630 634
3 636 635 560
3 636 560 561
3 555 560 632
3 632 560 635
3 638 637 563
3 563 637 562
3 563 558 633
3 563 633 638
3 565 636 561
3 565 639 636
3 641 640 568
3 568 640 567
3 568 562 637
3 568 637 641
3 570 642 571
3 642 643 571
3 643 565 571
3 643 639 565
3 645 644 574
3 574 644 573
3 574 567 640
3 574 640 645
3 576 646 642
3 576 642 570
3 643 642 647
3 647 642 646
3 648 578 579
3 649 648 579
3 573 649 579
3 644 649 573
3 651 650 646
3 576 651 646
3 580 651 576
3 646 650 647
3 653 652 648
3 652 578 648
3 652 581 578
3 653 648 649
3 583 654 582
3 654 655 582
3 655 580 582
3 655 651 580
3 657 656 585
3 585 656 584
3 585 581 652
3 585 652 657
3 587 658 586
3 658 659 586
3 586 659 583
3 659 660 583
3 660 654 583
3 654 660 655
3 661 588 589
3 662 661 589
3 584 662 589
3 656 662 584
3 665 664 663
3 664 666 658
3 590 664 658
3 587 590 658
3 663 664 590
3 658 666 659
3 667 592 661
3 661 592 588
3 661 662 668
3 661 668 667
3 670 669 594
3 670 594 595
3 663 596 665
3 596 669 665
3 596 594 669
3 596 663 590
3 671 597 667
3 667 597 592
3 672 599 600
3 667 672 600
3 671 667 600
3 672 667 668
3 599 673 601
3 672 673 599
3 601 674 602
3 673 674 601
3 602 675 603
3 674 675 602
3 595 603 670
3 670 603 675
3 671 604 597
3 604 671 600
3 676 608 609
3 676 609 677
3 609 678 677
3 609 610 678
3 680 678 679
3 678 611 679
3 678 610 611
3 612 681 611
3 611 681 679
3 614 681 612
3 683 682 676
3 682 608 676
3 682 615 608
3 683 676 677
3 684 680 679
3 686 685 684
3 679 686 684
3 681 686 679
3 617 686 614
3 614 686 681
3 688 687 619
3 619 687 618
3 619 615 682
3 619 682 688
3 685 686 621
3 622 685 621
3 689 685 622
3 621 686 617
3 691 690 624
3 624 690 623
3 624 618 687
3 624 687 691
3 694 693 692
3 693 689 692
3 689 625 692
3 689 622 625
3 696 695 627
3 627 695 626
3 627 623 690
3 627 690 696
3 694 692 628
3 629 694 628
3 697 694 629
3 628 692 625
3 695 630 626
3 698 630 695
3 700 699 631
3 700 631 632
3 629 631 697
3 697 631 699
3 702 701 634
3 634 701 633
3 634 630 698
3 634 698 702
3 636 703 635
3 703 704 635
3 704 632 635
3 704 700 632
3 706 705 638
3 638 705 637
3 638 633 701
3 638 701 706
3 708 707 703
3 636 708 703
3 639 708 636
3 703 707 704
3 710 709 641
3 641 709 640
3 641 637 705
3 641 705 710
3 643 708 639
3 643 711 708
3 712 644 645
3 713 712 645
3 640 713 645
3 709 713 640
3 716 715 714
3 715 711 714
3 711 647 714
3 711 643 647
3 718 717 712
3 717 644 712
3 717 649 644
3 718 712 713
3 716 714 650
3 651 716 650
3 719 716 651
3 650 714 647
3 721 720 653
3 653 720 652
3 653 649 717
3 653 717 721
3 724 723 722
3 723 719 722
3 719 655 722
3 719 651 655
3 725 656 657
3 726 725 657
3 652 726 657
3 720 726 652
3 724 722 660
3 659 724 660
3 727 724 659
3 660 722 655
3 729 728 725
3 728 656 725
3 728 662 656
3 729 725 726
3 665 730 664
3 664 730 731
3 732 664 731
3 666 664 732
3 659 666 727
3 727 666 732
3 728 668 662
3 733 668 728
3 736 735 734
3 669 670 734
3 735 669 734
3 737 669 735
3 665 669 730
3 669 738 730
3 669 737 738
3 730 738 731
3 733 739 668
3 668 739 672
3 672 740 673
3 739 740 672
3 673 741 674
3 740 741 673
3 734 675 736
3 675 741 736
3 675 674 741
3 675 734 670
3 742 677 678
3 680 742 678
3 743 682 683
3 677 742 683
3 742 743 683
3 742 744 743
3 684 745 680
3 745 742 680
3 745 744 742
3 685 745 684
3 747 746 688
3 688 746 687
3 747 688 682
3 748 747 682
3 743 748 682
3 747 748 749
3 750 743 744
3 748 743 750
3 751 744 745
3 750 744 751
3 689 751 685
3 685 751 745
3 753 752 691
3 691 752 690
3 691 687 746
3 691 746 753
3 754 749 748
3 756 755 754
3 748 756 754
3 750 756 748
3 694 756 693
3 756 751 693
3 756 750 751
3 693 751 689
3 757 695 696
3 758 757 696
3 690 758 696
3 752 758 690
3 755 756 759
3 755 759 760
3 697 759 694
3 694 759 756
3 763 762 761
3 764 763 757
3 763 698 757
3 698 695 757
3 763 761 698
3 764 757 758
3 760 759 699
3 700 760 699
3 765 760 700
3 699 759 697
3 761 762 702
3 762 701 702
3 762 766 701
3 761 702 698
3 704 765 700
3 704 767 765
3 769 768 706
3 706 768 705
3 706 701 766
3 706 766 769
3 771 770 707
3 771 707 708
3 704 707 767
3 767 707 770
3 772 709 710
3 773 772 710
3 705 773 710
3 768 773 705
3 711 771 708
3 711 774 771
3 776 775 772
3 775 709 772
3 775 713 709
3 776 772 773
3 778 777 715
3 778 715 716
3 711 715 774
3 774 715 777
3 780 779 718
3 718 779 717
3 718 713 775
3 718 775 780
3 719 778 716
3 719 781 778
3 782 720 721
3 783 782 721
3 717 783 721
3 779 783 717
3 785 784 723
3 785 723 724
3 719 723 781
3 781 723 784
3 787 786 782
3 786 720 782
3 786 726 720
3 787 782 783
3 790 789 788
3 789 785 788
3 785 727 788
3 785 724 727
3 791 728 729
3 792 791 729
3 726 792 729
3 786 792 726
3 795 794 793
3 797 796 793
3 797 793 794
3 796 797 790
3 796 790 788
3 731 796 788
3 732 731 788
3 732 788 727
3 798 733 791
3 791 733 728
3 791 792 799
3 800 791 799
3 798 791 800
3 802 801 800
3 802 800 799
3 735 736 801
3 802 735 801
3 803 735 802
3 793 737 795
3 737 803 795
3 737 735 803
3 737 793 738
3 738 793 796
3 738 796 731
3 798 739 733
3 739 798 740
3 740 798 800
3 740 800 741
3 741 800 801
3 741 801 736
3 804 746 747
3 749 804 747
3 805 752 753
3 746 804 753
3 804 805 753
3 804 806 805
3 754 807 749
3 807 804 749
3 807 806 804
3 755 807 754
3 808 758 805
3 805 758 752
3 809 805 806
3 808 805 809
3 810 806 807
3 809 806 810
3 760 810 755
3 755 810 807
3 811 762 763
3 811 763 812
3 763 813 812
3 763 764 813
3 813 764 758
3 814 813 758
3 808 814 758
3 813 814 815
3 816 808 809
3 814 808 816
3 817 809 810
3 816 809 817
3 765 817 760
3 760 817 810
3 819 818 811
3 818 762 811
3 818 766 762
3 819 811 812
3 820 815 814
3 822 821 820
3 814 822 820
3 816 822 814
3 823 816 817
3 822 816 823
3 767 823 765
3 765 823 817
3 824 768 769
3 825 824 769
3 766 825 769
3 818 825 766
3 821 822 826
3 821 826 827
3 771 826 770
3 826 823 770
3 826 822 823
3 770 823 767
3 829 828 824
3 828 768 824
3 828 773 768
3 829 824 825
3 827 826 830
3 827 830 831
3 774 830 771
3 771 830 826
3 832 775 776
3 833 832 776
3 773 833 776
3 828 833 773
3 836 835 834
3 834 835 831
3 834 831 830
3 778 834 830
3 777 778 830
3 777 830 774
3 837 779 780
3 838 837 780
3 838 780 775
3 839 838 775
3 832 839 775
3 839 832 833
3 836 834 840
3 836 840 841
3 781 840 778
3 778 840 834
3 842 783 837
3 837 783 779
3 837 838 843
3 837 843 842
3 846 845 844
3 844 845 841
3 844 841 840
3 785 844 840
3 784 785 840
3 784 840 781
3 847 786 787
3 848 847 787
3 848 787 783
3 849 848 783
3 842 849 783
3 849 842 843
3 852 851 850
3 854 853 850
3 854 850 851
3 853 854 846
3 853 846 844
3 790 853 844
3 789 790 844
3 789 844 785
3 855 792 847
3 847 792 786
3 847 848 856
3 857 847 856
3 855 847 857
3 859 858 857
3 859 857 856
3 858 859 852
3 858 852 850
3 795 858 850
3 794 795 850
3 794 850 797
3 797 850 853
3 797 853 790
3 855 799 792
3 799 855 802
3 802 855 857
3 802 857 803
3 803 857 858
3 803 858 795
3 860 812 813
3 815 860 813
3 861 818 819
3 812 860 819
3 860 861 819
3 860 862 861
3 820 863 815
3 863 860 815
3 863 862 860
3 821 863 820
3 864 825 861
3 861 825 818
3 865 861 862
3 864 861 865
3 866 862 863
3 865 862 866
3 827 866 821
3 821 866 863
3 867 828 829
3 868 867 829
3 868 829 825
3 869 868 825
3 864 869 825
3 871 870 869
3 864 871 869
3 865 871 864
3 872 865 866
3 871 865 872
3 831 872 827
3 827 872 866
3 873 833 867
3 867 833 828
3 867 868 874
3 867 874 873
3 870 871 875
3 870 875 876
3 836 875 835
3 875 872 835
3 875 871 872
3 835 872 831
3 877 838 839
3 833 873 839
3 873 877 839
3 873 878 877
3 873 874 879
3 880 873 879
3 878 873 880
3 880 879 876
3 875 880 876
3 881 880 875
3 841 881 836
3 836 881 875
3 882 843 877
3 877 843 838
3 883 877 878
3 882 877 883
3 884 878 880
3 883 878 884
3 846 884 845
3 884 881 845
3 884 880 881
3 845 881 841
3 885 848 849
3 843 882 849
3 882 885 849
3 882 886 885
3 852 886 851
3 886 883 851
3 886 882 883
3 851 883 854
3 854 883 884
3 854 884 846
3 885 856 848
3 856 885 859
3 859 885 886
3 859 886 852
3 887 868 869
3 870 887 869
3 888 874 887
3 887 874 868
3 876 888 870
3 870 888 887
3 888 879 874
3 879 888 876
