ply
format ascii 1.0
comment None
element vertex 271
property float x
property float y
property float z
element face 538
property list uchar int vertex_indices
end_header
44.973 64.670 43.183
44.976 64.713 43.073
44.970 64.577 43.308
44.971 64.609 43.269
45.021 65.839 41.105
45.031 66.079 40.677
45.024 65.834 41.060
45.009 65.469 41.706
45.005 65.440 41.833
44.990 65.023 42.514
44.987 65.017 42.603
44.981 64.887 42.869
44.977 64.773 43.037
45.029 66.235 40.561
45.033 66.295 40.404
45.017 65.938 41.117
45.003 65.514 41.827
44.995 65.314 42.212
44.987 65.032 42.655
45.029 66.526 40.228
45.019 66.606 40.371
45.017 66.978 39.942
45.011 66.003 41.198
45.006 65.695 41.646
44.997 65.348 42.160
44.989 68.293 39.225
44.989 68.363 38.769
44.996 67.960 39.066
45.003 67.634 39.429
45.002 67.674 39.761
45.011 66.881 40.244
45.000 67.791 39.699
45.012 66.161 40.996
44.983 68.979 38.786
44.989 69.280 38.348
44.988 68.745 38.499
44.977 69.152 39.444
44.981 68.873 39.780
44.987 68.645 39.766
44.987 69.885 38.587
44.997 70.088 38.203
44.977 69.939 39.334
44.969 70.096 40.141
44.972 69.743 40.207
44.999 70.919 38.472
45.012 71.214 38.081
44.985 70.722 39.111
44.977 71.261 40.024
44.964 70.662 40.712
44.966 71.337 40.788
44.965 71.420 40.970
45.018 72.060 38.318
45.030 72.327 37.980
44.995 71.877 39.361
44.988 72.035 39.940
44.982 71.851 40.154
44.978 72.265 40.656
44.981 72.095 40.410
44.971 72.208 41.028
45.038 73.017 38.092
45.043 73.116 37.950
45.020 72.893 38.889
44.986 72.280 40.195
44.995 72.687 40.011
44.995 73.221 40.458
44.982 72.915 40.922
45.048 73.551 38.062
45.039 73.609 38.515
45.046 73.839 38.416
45.019 73.565 39.502
45.009 73.683 40.117
44.995 73.396 40.620
45.037 73.915 38.915
45.024 73.874 39.514
46.577 61.700 41.042
46.581 61.697 41.028
46.703 61.293 41.472
46.709 61.264 41.515
46.359 62.427 40.243
46.263 62.758 39.863
46.496 61.991 40.694
46.446 62.125 40.592
46.573 61.706 41.047
46.138 63.163 39.434
46.061 63.421 39.151
46.116 63.243 39.338
46.175 63.030 39.595
46.291 62.635 40.037
46.438 62.146 40.574
46.093 63.306 39.286
46.172 63.035 39.596
46.288 62.646 40.027
44.976 64.722 43.045
45.029 66.067 40.730
45.015 65.663 41.401
44.994 65.140 42.322
44.979 64.796 42.952
45.028 66.415 40.366
45.020 65.992 40.989
45.007 65.514 41.747
44.992 65.141 42.427
45.017 66.524 40.458
45.008 65.751 41.503
44.993 68.397 38.850
45.005 67.530 39.557
44.992 69.341 38.458
44.989 69.093 39.002
44.992 68.450 39.384
45.002 70.496 38.339
44.990 70.071 38.988
44.982 69.657 39.711
45.015 71.639 38.346
44.999 71.063 38.910
44.983 71.195 39.908
44.970 70.772 40.520
45.030 72.704 38.360
45.002 72.073 39.347
44.976 71.991 40.668
45.043 73.495 38.327
45.021 73.153 39.143
44.995 72.648 40.101
44.986 72.893 40.747
45.034 73.798 38.986
45.010 73.504 39.972
46.691 61.343 41.404
46.798 60.982 41.806
46.746 61.161 41.600
46.791 60.998 41.798
46.840 60.843 41.959
46.378 62.386 40.259
46.519 61.920 40.766
46.638 61.524 41.199
46.622 61.550 41.208
46.774 61.057 41.729
46.094 63.310 39.272
46.234 62.852 39.763
46.428 62.184 40.529
46.476 62.033 40.680
46.335 62.496 40.182
46.193 62.972 39.653
46.799 60.981 41.803
46.420 62.244 40.419
46.617 61.584 41.146
46.369 62.399 40.268
54.062 47.133 41.912
54.386 46.996 41.725
54.095 47.116 41.891
54.085 47.121 41.901
54.254 47.054 41.809
55.452 46.524 41.066
55.946 46.303 40.733
55.990 46.257 40.689
55.469 46.497 41.052
54.913 46.758 41.406
55.192 46.620 41.239
55.586 46.481 40.989
55.020 46.729 41.348
55.418 46.562 41.114
54.411 46.976 41.711
54.305 47.027 41.782
54.756 46.847 41.520
54.686 46.868 41.568
56.506 46.018 40.287
56.615 45.929 40.192
55.981 46.240 40.699
55.895 46.286 40.786
56.215 46.187 40.555
55.856 46.362 40.846
54.701 46.850 41.553
55.363 46.557 41.158
55.278 46.619 41.220
57.494 45.447 39.254
57.696 45.373 38.923
57.815 45.269 38.773
57.533 45.407 39.256
57.168 45.618 39.681
57.260 45.558 39.623
57.158 45.660 39.647
57.446 45.536 39.330
56.768 45.840 40.103
56.220 46.150 40.587
56.997 45.787 39.870
56.774 45.917 40.135
55.847 46.353 40.861
56.538 46.024 40.353
58.402 45.055 37.782
58.849 45.017 37.195
58.647 44.901 37.536
58.197 45.078 38.168
58.074 45.184 38.286
57.877 45.228 38.765
57.427 45.475 39.441
57.643 45.379 39.191
58.431 45.125 37.722
58.041 45.233 38.358
57.797 45.350 38.840
57.263 45.601 39.691
56.824 45.850 40.130
57.117 45.714 39.867
57.446 45.553 39.394
57.190 45.693 39.746
58.946 44.703 37.265
59.197 44.777 36.929
59.359 44.538 36.872
59.141 44.632 37.097
59.346 44.983 36.673
58.478 44.934 37.862
57.960 45.231 38.659
58.368 45.036 37.990
58.871 45.130 37.112
59.350 45.188 36.595
58.778 45.090 37.288
58.290 45.135 38.036
57.616 45.449 39.204
57.510 45.491 39.393
59.195 45.177 36.757
59.607 44.626 36.602
59.948 44.704 36.306
59.749 44.505 36.540
59.531 44.458 36.749
59.561 44.560 36.694
59.773 44.977 36.323
60.365 45.058 35.871
58.799 44.921 37.397
59.375 44.763 36.790
60.426 45.471 35.630
60.876 45.953 35.080
60.692 45.445 35.472
60.023 45.463 35.919
59.568 45.106 36.424
59.329 45.032 36.698
59.565 44.905 36.522
59.734 45.052 36.322
60.696 46.053 35.145
61.150 46.637 34.511
60.542 46.028 35.270
59.859 45.398 36.087
61.044 46.655 34.575
60.149 44.746 36.156
59.802 44.525 36.496
60.694 45.283 35.556
60.883 45.646 35.246
60.633 45.198 35.637
60.397 44.992 35.892
60.393 45.150 35.825
59.922 44.825 36.294
61.185 46.480 34.580
60.622 45.920 35.279
60.200 45.287 35.886
60.593 45.512 35.515
61.425 47.112 34.042
61.617 47.570 33.621
61.508 47.258 33.897
60.958 46.512 34.723
61.471 47.342 33.866
61.308 47.066 34.158
60.909 45.701 35.204
60.684 45.373 35.524
60.900 45.940 35.083
61.644 47.622 33.573
61.466 47.208 33.961
61.162 46.672 34.492
61.458 47.283 33.924
61.702 47.813 33.398
61.758 47.937 33.277
61.724 47.837 33.370
61.573 47.556 33.667
61.677 47.776 33.444
61.748 47.925 33.292
61.608 47.576 33.633
61.713 47.830 33.385
3 2 1 0
3 0 3 2
3 6 5 4
3 8 7 4
3 4 7 6
3 10 9 8
3 8 9 7
3 9 10 1
3 10 0 1
3 10 11 0
3 3 0 12
3 12 0 11
3 4 5 13
3 13 5 14
3 4 15 8
3 4 13 15
3 8 16 10
3 8 15 16
3 10 17 11
3 10 16 17
3 12 11 18
3 18 11 17
3 14 19 13
3 21 20 19
3 20 13 19
3 20 15 13
3 15 22 16
3 15 20 22
3 24 17 23
3 17 22 23
3 17 16 22
3 17 24 18
3 27 26 25
3 29 28 25
3 25 28 27
3 31 30 29
3 30 20 29
3 21 28 29
3 21 29 20
3 20 30 22
3 22 30 32
3 22 32 23
3 35 34 33
3 35 33 26
3 33 25 26
3 33 36 25
3 25 37 29
3 25 36 37
3 31 29 38
3 38 29 37
3 33 34 39
3 39 34 40
3 33 41 36
3 33 39 41
3 36 42 37
3 36 41 42
3 38 37 43
3 43 37 42
3 39 40 44
3 44 40 45
3 39 46 41
3 39 44 46
3 41 47 42
3 41 46 47
3 43 42 48
3 42 49 48
3 42 47 49
3 49 50 48
3 44 45 51
3 51 45 52
3 44 53 46
3 44 51 53
3 55 47 54
3 47 53 54
3 47 46 53
3 57 56 55
3 56 47 55
3 56 49 47
3 50 49 58
3 58 49 56
3 51 52 59
3 59 52 60
3 51 61 53
3 51 59 61
3 54 53 62
3 53 63 62
3 53 61 63
3 62 63 57
3 63 56 57
3 63 64 56
3 58 56 65
3 65 56 64
3 60 66 59
3 68 67 66
3 67 59 66
3 67 61 59
3 61 69 63
3 61 67 69
3 71 64 70
3 64 69 70
3 64 63 69
3 64 71 65
3 68 72 67
3 67 72 69
3 69 72 73
3 69 73 70
3 76 75 74
3 74 77 76
3 80 79 78
3 80 78 75
3 78 74 75
3 78 81 74
3 77 74 82
3 82 74 81
3 85 84 83
3 85 83 79
3 83 78 79
3 83 86 78
3 78 87 81
3 78 86 87
3 82 81 88
3 88 81 87
3 84 89 83
3 83 89 86
3 86 89 90
3 86 90 87
3 87 90 91
3 87 91 88
3 92 1 2
3 3 92 2
3 93 5 6
3 7 94 6
3 6 94 93
3 9 95 7
3 7 95 94
3 1 92 9
3 92 95 9
3 92 96 95
3 12 96 3
3 3 96 92
3 97 14 93
3 93 14 5
3 98 93 94
3 97 93 98
3 99 94 95
3 98 94 99
3 100 95 96
3 99 95 100
3 18 100 12
3 12 100 96
3 97 19 14
3 19 97 21
3 97 101 21
3 97 98 101
3 102 98 99
3 101 98 102
3 23 102 24
3 102 100 24
3 102 99 100
3 24 100 18
3 103 26 27
3 28 104 27
3 27 104 103
3 28 21 104
3 21 101 104
3 30 31 104
3 30 104 101
3 30 101 32
3 32 101 102
3 32 102 23
3 105 34 35
3 26 103 35
3 103 105 35
3 103 106 105
3 107 103 104
3 106 103 107
3 38 107 31
3 31 107 104
3 108 40 105
3 105 40 34
3 109 105 106
3 108 105 109
3 110 106 107
3 109 106 110
3 43 110 38
3 38 110 107
3 111 45 108
3 108 45 40
3 112 108 109
3 111 108 112
3 113 109 110
3 112 109 113
3 48 114 43
3 114 110 43
3 114 113 110
3 50 114 48
3 115 52 111
3 111 52 45
3 116 111 112
3 115 111 116
3 54 116 55
3 116 113 55
3 116 112 113
3 55 113 57
3 113 117 57
3 113 114 117
3 58 117 50
3 50 117 114
3 118 60 115
3 115 60 52
3 119 115 116
3 118 115 119
3 62 120 54
3 120 116 54
3 120 119 116
3 57 117 62
3 117 120 62
3 117 121 120
3 65 121 58
3 58 121 117
3 118 66 60
3 66 118 68
3 118 122 68
3 118 119 122
3 123 119 120
3 122 119 123
3 70 123 71
3 123 121 71
3 123 120 121
3 71 121 65
3 122 72 68
3 72 122 73
3 73 122 123
3 73 123 70
3 124 75 76
3 126 124 125
3 124 76 125
3 77 127 125
3 77 125 76
3 127 128 125
3 130 129 80
3 80 129 79
3 80 75 124
3 131 80 124
3 130 80 131
3 126 131 124
3 133 127 132
3 77 132 127
3 132 77 82
3 127 133 128
3 134 84 85
3 135 134 85
3 79 135 85
3 129 135 79
3 138 137 136
3 137 132 136
3 132 88 136
3 132 82 88
3 134 89 84
3 135 139 134
3 139 89 134
3 139 90 89
3 136 91 138
3 91 139 138
3 91 90 139
3 91 136 88
3 140 126 125
3 128 140 125
3 141 129 130
3 131 142 130
3 130 142 141
3 131 126 142
3 126 140 142
3 133 132 142
3 133 142 140
3 133 140 128
3 143 135 141
3 141 135 129
3 138 143 137
3 143 142 137
3 143 141 142
3 137 142 132
3 143 139 135
3 139 143 138
3 146 145 144
3 144 147 146
3 145 148 144
3 144 148 147
3 151 150 149
3 153 152 149
3 149 152 151
3 153 154 152
3 150 155 149
3 157 156 155
3 156 149 155
3 156 153 149
3 146 158 145
3 158 153 145
3 153 156 145
3 153 158 154
3 146 147 158
3 158 147 159
3 157 160 156
3 156 160 145
3 160 148 145
3 160 161 148
3 147 148 159
3 159 148 161
3 163 162 151
3 151 162 150
3 164 151 152
3 164 163 151
3 152 154 164
3 164 154 165
3 162 166 150
3 150 166 155
3 157 155 166
3 157 166 167
3 154 158 168
3 169 154 168
3 165 154 169
3 159 168 158
3 167 170 157
3 157 170 160
3 168 161 169
3 161 170 169
3 161 160 170
3 161 168 159
3 173 172 171
3 175 174 171
3 171 174 173
3 175 176 174
3 171 172 177
3 177 172 178
3 177 162 163
3 175 177 163
3 171 177 175
3 179 176 175
3 163 179 175
3 164 179 163
3 164 165 179
3 179 165 180
3 178 181 177
3 177 181 162
3 181 166 162
3 181 182 166
3 184 183 167
3 166 184 167
3 182 184 166
3 184 180 183
3 180 169 183
3 180 165 169
3 183 170 167
3 170 183 169
3 187 186 185
3 189 188 185
3 185 188 187
3 172 173 189
3 173 188 189
3 173 190 188
3 192 190 191
3 190 174 191
3 190 173 174
3 176 191 174
3 186 193 185
3 185 193 189
3 189 193 194
3 172 189 194
3 195 172 194
3 178 172 195
3 196 192 191
3 198 196 197
3 197 196 179
3 196 191 179
3 191 176 179
3 180 197 179
3 195 199 178
3 178 199 181
3 181 200 182
3 199 200 181
3 197 184 198
3 184 200 198
3 184 182 200
3 184 197 180
3 203 202 201
3 201 204 203
3 201 202 187
3 202 186 187
3 202 205 186
3 206 204 201
3 187 206 201
3 188 206 187
3 208 206 207
3 206 190 207
3 206 188 190
3 192 207 190
3 193 186 209
3 186 210 209
3 186 205 210
3 193 209 211
3 212 193 211
3 194 193 212
3 207 213 195
3 212 207 195
3 194 212 195
3 208 207 212
3 196 214 192
3 214 207 192
3 214 213 207
3 198 214 196
3 210 215 209
3 209 215 211
3 213 199 195
3 199 213 200
3 200 213 214
3 200 214 198
3 218 217 216
3 202 203 216
3 203 218 216
3 203 219 218
3 203 204 219
3 219 204 220
3 216 217 221
3 221 217 222
3 221 205 202
3 221 202 216
3 204 206 223
3 224 204 223
3 220 204 224
3 208 223 206
3 227 226 225
3 227 225 222
3 225 221 222
3 225 228 221
3 205 229 210
3 205 230 229
3 230 205 231
3 221 231 205
3 231 221 232
3 229 232 221
3 221 228 229
3 229 228 210
3 230 232 229
3 230 231 224
3 230 224 223
3 211 230 223
3 212 211 223
3 212 223 208
3 225 226 233
3 233 226 234
3 236 228 235
3 228 233 235
3 228 225 233
3 232 230 236
3 230 215 236
3 210 228 236
3 210 236 215
3 215 230 211
3 234 237 233
3 233 237 235
3 238 217 218
3 219 239 218
3 218 239 238
3 220 239 219
3 242 241 240
3 243 242 238
3 242 222 238
3 222 217 238
3 242 240 222
3 245 244 243
3 238 245 243
3 239 245 238
3 224 245 220
3 220 245 239
3 240 241 227
3 241 226 227
3 241 246 226
3 222 240 227
3 249 248 247
3 248 249 244
3 248 244 245
3 232 248 245
3 231 232 245
3 231 245 224
3 252 251 250
3 246 252 250
3 234 246 250
3 226 246 234
3 247 248 236
3 235 247 236
3 253 247 235
3 236 248 232
3 251 254 250
3 250 254 234
3 254 237 234
3 254 255 237
3 235 237 253
3 253 237 255
3 256 241 242
3 243 257 242
3 242 257 256
3 244 257 243
3 258 246 256
3 256 246 241
3 247 258 249
3 258 257 249
3 258 256 257
3 249 257 244
3 260 259 252
3 252 259 251
3 260 252 246
3 261 260 246
3 258 261 246
3 260 261 262
3 253 261 247
3 247 261 258
3 265 264 263
3 254 267 266
3 267 254 263
3 251 263 254
3 263 251 265
3 259 265 251
3 261 255 262
3 255 266 262
3 255 254 266
3 255 261 253
3 264 268 263
3 263 268 267
3 269 259 260
3 262 269 260
3 270 264 265
3 265 259 270
3 259 269 270
3 266 267 270
3 266 270 269
3 266 269 262
3 270 268 264
3 268 270 267
