ply
format ascii 1.0
comment None
element vertex 251
property float x
property float y
property float z
element face 514
property list uchar int vertex_indices
end_header
57.622 55.975 29.751
57.642 56.059 29.673
57.791 55.673 29.932
57.898 55.546 29.994
57.339 56.739 29.244
57.451 57.187 28.849
57.523 56.515 29.349
57.604 56.091 29.662
57.325 56.663 29.306
57.119 57.799 28.503
57.282 58.268 28.114
57.516 57.867 28.321
57.155 57.310 28.859
57.079 57.935 28.409
57.127 58.260 28.161
58.026 55.445 30.026
58.243 55.386 29.987
58.365 55.093 30.181
58.255 55.168 30.163
57.839 56.009 29.635
57.902 56.534 29.185
58.302 55.803 29.618
58.042 55.526 29.953
57.960 57.220 28.627
57.498 56.342 29.497
57.468 56.667 29.248
57.785 56.090 29.591
57.904 58.200 27.991
58.224 57.739 28.171
57.391 57.455 28.662
57.449 58.048 28.217
57.624 58.322 27.991
58.499 55.244 30.002
58.498 55.054 30.160
58.405 55.270 30.019
58.626 56.506 28.901
58.615 55.697 29.581
58.201 55.646 29.790
58.527 57.168 28.420
58.179 56.113 29.415
57.856 56.743 29.039
58.963 58.002 27.839
59.000 57.500 28.000
58.081 57.422 28.437
58.290 58.002 28.044
58.629 58.180 27.848
58.618 55.378 29.846
58.851 56.141 29.133
58.502 55.755 29.581
59.500 57.000 28.000
60.110 57.220 27.797
59.445 56.767 28.385
59.426 56.828 28.399
58.597 56.622 28.828
59.893 57.972 27.535
60.477 58.132 26.976
60.489 57.780 27.225
59.500 58.000 28.000
60.118 57.773 27.620
60.000 57.500 28.000
60.054 57.987 27.405
60.029 59.820 22.156
60.028 59.826 22.132
60.139 59.785 22.286
60.213 59.775 22.382
60.289 59.798 22.340
60.163 57.126 27.884
60.995 58.354 26.262
61.407 58.654 25.563
61.410 57.990 26.194
61.117 57.263 27.130
60.921 57.351 27.395
60.588 59.626 22.892
60.536 59.704 22.618
61.091 59.441 23.284
61.126 59.306 23.758
61.004 59.433 23.731
61.381 58.998 24.799
61.223 58.981 25.102
61.159 58.413 26.223
61.341 58.938 25.378
61.206 57.776 26.947
60.208 59.802 22.265
60.647 59.753 22.570
60.625 59.700 22.812
61.093 59.635 23.188
61.349 59.451 23.857
61.412 59.196 24.789
61.051 59.691 22.897
61.924 45.359 33.226
61.990 45.240 32.627
62.284 45.066 32.832
62.244 45.124 33.487
62.001 45.326 33.759
62.203 45.243 33.896
61.861 45.701 32.647
62.109 45.732 31.971
62.049 45.353 32.223
61.786 45.740 33.230
61.917 45.713 33.678
62.084 45.458 33.983
62.043 46.464 32.134
61.890 46.256 33.135
62.078 47.056 32.697
62.166 46.211 33.697
62.205 45.751 33.951
62.153 46.754 33.339
61.682 56.891 27.132
62.085 56.789 26.820
62.141 56.637 26.999
62.121 56.782 27.042
61.782 58.850 24.319
62.399 58.750 24.092
62.655 58.194 24.721
62.136 58.020 25.390
61.656 58.609 25.287
62.107 57.288 26.267
61.916 57.278 26.963
61.081 59.619 23.051
61.670 59.332 23.525
61.442 58.812 25.474
61.598 58.993 25.065
61.874 58.573 25.532
62.035 57.814 26.431
61.167 59.669 22.909
61.367 59.599 23.146
61.799 59.440 23.365
61.414 59.587 23.342
61.732 59.446 23.873
61.640 59.298 24.432
61.646 59.556 23.397
62.251 45.118 32.306
62.456 45.360 31.841
62.751 45.080 32.257
62.809 45.074 33.057
62.506 45.175 33.694
62.918 45.387 33.535
62.585 46.033 31.321
62.414 45.453 33.939
62.718 46.001 33.703
62.440 47.164 31.214
63.052 46.825 30.340
62.810 46.465 30.738
62.121 47.219 32.048
62.539 46.662 33.517
62.822 47.916 30.376
63.432 48.085 29.831
63.390 47.200 29.933
62.465 48.255 31.146
62.403 47.942 32.082
62.524 47.289 33.005
63.002 48.027 32.550
62.948 48.912 30.123
63.265 48.965 29.814
62.630 48.833 30.699
62.618 49.024 31.424
62.781 48.764 32.057
63.207 49.747 29.886
62.887 49.658 30.559
63.190 50.367 30.031
63.029 49.675 31.273
62.874 49.241 31.770
63.274 50.390 30.477
62.598 56.485 26.781
63.007 56.415 26.506
62.965 56.343 26.667
62.819 56.512 26.763
62.951 57.321 25.594
63.380 57.316 25.413
63.393 57.003 25.734
63.202 56.684 26.126
62.724 56.724 26.366
62.608 56.876 26.821
62.901 58.431 24.322
63.193 57.902 24.912
62.722 57.445 26.368
62.486 57.264 26.702
62.891 57.070 26.549
62.570 58.882 23.927
63.044 58.441 24.335
62.553 58.950 24.327
62.071 59.072 24.577
62.636 58.521 24.996
62.675 57.921 25.810
62.497 59.069 23.924
62.115 59.315 23.858
63.254 45.412 31.441
63.436 45.168 32.281
63.395 45.277 32.959
63.922 45.499 32.422
63.355 46.011 30.581
64.016 45.948 30.345
63.907 45.629 30.847
63.477 45.799 33.145
64.083 46.179 32.500
63.715 46.447 30.030
64.006 46.994 29.832
64.228 46.303 30.125
63.322 46.851 33.049
64.116 46.952 32.404
64.072 47.728 29.795
64.333 47.112 29.868
64.410 47.402 30.080
63.760 47.820 32.380
64.299 47.473 31.877
64.056 48.440 31.665
63.719 49.053 29.774
64.222 48.177 30.070
63.359 49.010 31.894
63.854 49.367 31.407
63.602 50.413 29.570
63.860 50.827 29.429
63.872 50.079 29.673
63.342 50.484 29.730
63.936 49.899 30.940
63.865 50.490 30.517
63.566 50.047 31.039
63.806 51.221 29.303
63.994 51.453 29.208
63.615 51.110 29.615
63.688 50.871 30.181
63.993 51.900 29.003
64.114 52.044 28.927
63.998 51.985 29.052
63.880 51.511 29.516
64.166 52.364 28.713
64.188 52.376 28.733
64.140 52.353 28.740
64.207 52.501 28.637
63.163 56.471 26.467
63.410 57.308 25.558
63.355 56.824 26.079
63.088 56.752 26.498
63.131 57.896 25.285
63.151 57.269 26.047
62.936 58.540 24.476
64.006 45.450 31.567
64.407 46.010 30.857
64.344 45.824 31.808
64.473 46.765 30.257
64.609 46.657 30.862
64.488 46.597 31.629
64.434 47.711 30.844
64.120 49.283 30.178
64.147 49.157 30.963
64.019 50.686 29.675
64.055 50.149 30.375
64.067 51.540 29.288
63.976 51.112 29.798
64.086 51.961 29.090
64.162 52.366 28.760
3 2 1 0
3 0 3 2
3 6 5 4
3 8 7 4
3 7 0 4
3 1 6 4
3 1 4 0
3 0 7 3
3 11 10 9
3 13 12 9
3 12 4 9
3 5 11 9
3 5 9 4
3 4 12 8
3 10 14 9
3 9 14 13
3 17 16 15
3 15 18 17
3 21 20 19
3 21 19 16
3 16 19 15
3 19 1 15
3 1 2 15
3 2 3 15
3 3 18 15
3 3 22 18
3 19 20 6
3 20 5 6
3 20 23 5
3 25 24 8
3 25 6 24
3 6 25 19
3 26 19 25
3 19 26 1
3 24 1 26
3 26 7 24
3 24 7 8
3 6 1 24
3 3 7 22
3 22 7 26
3 28 27 11
3 11 27 10
3 12 13 29
3 30 29 13
3 23 11 5
3 11 23 28
3 8 12 25
3 25 12 29
3 27 31 10
3 10 31 14
3 13 14 30
3 30 14 31
3 33 32 17
3 17 32 16
3 17 18 33
3 33 18 34
3 36 35 21
3 21 35 20
3 21 16 32
3 21 32 36
3 22 34 18
3 22 37 34
3 35 23 20
3 38 23 35
3 40 39 26
3 40 26 25
3 22 26 37
3 37 26 39
3 42 41 28
3 28 41 27
3 29 30 43
3 44 43 30
3 38 28 23
3 28 38 42
3 25 29 40
3 40 29 43
3 41 45 27
3 27 45 31
3 30 31 44
3 44 31 45
3 46 32 33
3 34 46 33
3 47 35 36
3 32 46 36
3 46 47 36
3 46 48 47
3 37 48 34
3 34 48 46
3 51 50 49
3 35 49 38
3 49 35 51
3 47 51 35
3 51 47 52
3 53 52 47
3 40 53 39
3 53 48 39
3 53 47 48
3 39 48 37
3 56 55 54
3 57 42 49
3 42 57 41
3 54 41 57
3 58 54 57
3 54 58 56
3 59 56 58
3 56 59 50
3 49 50 59
3 57 49 59
3 57 59 49
3 52 49 59
3 49 52 53
3 49 53 38
3 43 38 53
3 38 43 42
3 44 42 43
3 42 44 57
3 42 57 49
3 43 53 40
3 55 60 54
3 58 57 60
3 57 45 60
3 41 54 60
3 41 60 45
3 45 57 44
3 63 62 61
3 61 64 63
3 62 65 61
3 61 65 64
3 66 50 51
3 52 66 51
3 69 68 67
3 55 56 67
3 56 69 67
3 56 70 69
3 56 50 70
3 66 70 50
3 70 66 71
3 59 71 66
3 71 59 58
3 59 66 52
3 74 73 72
3 76 75 72
3 72 75 74
3 78 77 76
3 76 77 75
3 80 79 78
3 79 67 78
3 68 77 78
3 68 78 67
3 67 79 55
3 79 60 55
3 79 81 60
3 58 60 71
3 71 60 81
3 82 62 63
3 83 82 73
3 63 73 82
3 73 63 72
3 64 72 63
3 72 64 84
3 86 76 85
3 76 84 85
3 76 72 84
3 76 86 78
3 78 86 87
3 78 87 80
3 82 65 62
3 82 83 65
3 83 88 65
3 84 64 65
3 84 65 88
3 84 88 85
3 91 90 89
3 93 92 89
3 89 92 91
3 93 94 92
3 97 96 95
3 97 95 90
3 95 89 90
3 95 98 89
3 89 99 93
3 89 98 99
3 94 93 100
3 100 93 99
3 96 101 95
3 103 102 101
3 102 95 101
3 102 98 95
3 105 99 104
3 99 102 104
3 99 98 102
3 99 105 100
3 103 106 102
3 102 106 104
3 109 108 107
3 107 110 109
3 113 112 111
3 115 114 111
3 111 114 113
3 68 69 115
3 69 114 115
3 69 116 114
3 70 107 108
3 116 70 108
3 69 70 116
3 70 71 107
3 71 110 107
3 71 117 110
3 118 73 74
3 112 119 111
3 119 74 111
3 74 75 111
3 74 119 118
3 111 75 77
3 111 77 115
3 121 120 80
3 121 77 120
3 77 121 115
3 122 115 121
3 115 122 68
3 120 68 122
3 122 79 120
3 120 79 80
3 77 68 120
3 79 123 81
3 122 123 79
3 71 81 117
3 117 81 123
3 124 83 118
3 118 83 73
3 126 125 119
3 125 127 119
3 86 119 127
3 119 86 118
3 85 118 86
3 118 85 125
3 125 124 118
3 126 124 125
3 125 85 127
3 86 127 128
3 129 86 128
3 87 86 129
3 80 87 121
3 121 87 129
3 124 88 83
3 124 126 88
3 126 130 88
3 127 85 88
3 127 88 130
3 127 130 128
3 133 132 131
3 90 91 131
3 91 133 131
3 91 134 133
3 136 134 135
3 134 92 135
3 134 91 92
3 94 135 92
3 131 132 97
3 132 96 97
3 132 137 96
3 131 97 90
3 136 135 138
3 136 138 139
3 100 138 94
3 94 138 135
3 142 141 140
3 140 143 101
3 137 140 101
3 96 137 101
3 140 137 142
3 143 103 101
3 139 138 105
3 104 139 105
3 144 139 104
3 105 138 100
3 147 146 145
3 147 145 141
3 145 140 141
3 145 148 140
3 140 149 143
3 140 148 149
3 143 149 103
3 149 150 103
3 150 106 103
3 149 151 150
3 104 106 144
3 144 106 150
3 145 146 152
3 152 146 153
3 145 154 148
3 145 152 154
3 148 155 149
3 148 154 155
3 151 149 156
3 156 149 155
3 153 157 152
3 159 158 157
3 158 152 157
3 158 154 152
3 161 155 160
3 155 158 160
3 155 154 158
3 155 161 156
3 159 162 158
3 158 162 160
3 165 164 163
3 163 166 165
3 169 168 167
3 171 170 167
3 167 170 169
3 170 171 164
3 164 171 163
3 171 108 163
3 108 109 163
3 109 110 163
3 110 166 163
3 110 172 166
3 173 112 113
3 168 174 167
3 174 113 167
3 113 114 167
3 113 174 173
3 167 114 116
3 167 116 171
3 108 171 116
3 177 176 175
3 177 172 176
3 172 117 176
3 172 110 117
3 179 178 173
3 178 112 173
3 178 119 112
3 182 181 180
3 174 179 173
3 122 121 181
3 182 122 181
3 183 122 182
3 176 123 175
3 123 183 175
3 123 122 183
3 123 176 117
3 185 126 184
3 126 178 184
3 126 119 178
3 185 184 180
3 185 180 181
3 128 185 181
3 129 128 181
3 129 181 121
3 185 130 126
3 130 185 128
3 187 186 133
3 133 186 132
3 189 187 188
3 187 134 188
3 187 133 134
3 136 188 134
3 192 191 190
3 186 192 190
3 137 186 190
3 132 186 137
3 189 188 193
3 189 193 194
3 139 193 136
3 136 193 188
3 197 196 195
3 197 195 191
3 191 195 190
3 195 141 190
3 141 142 190
3 190 142 137
3 194 193 198
3 194 198 199
3 144 198 139
3 139 198 193
3 201 200 196
3 200 146 196
3 147 195 196
3 147 196 146
3 147 141 195
3 200 201 202
3 205 204 203
3 203 204 199
3 203 199 198
3 151 203 198
3 150 151 198
3 150 198 144
3 207 206 200
3 206 146 200
3 206 153 146
3 207 200 202
3 205 203 208
3 205 208 209
3 156 208 151
3 151 208 203
3 212 211 210
3 210 213 157
3 206 210 157
3 153 206 157
3 210 206 212
3 159 157 213
3 216 215 214
3 216 214 209
3 216 209 208
3 160 216 208
3 161 160 208
3 161 208 156
3 210 211 217
3 217 211 218
3 210 219 213
3 210 217 219
3 215 216 220
3 162 220 216
3 220 162 219
3 159 219 162
3 219 159 213
3 162 216 160
3 217 218 221
3 221 218 222
3 224 219 223
3 219 221 223
3 219 217 221
3 219 224 220
3 221 222 225
3 225 222 226
3 223 221 227
3 227 221 225
3 226 228 225
3 225 228 227
3 229 164 165
3 166 229 165
3 230 168 169
3 170 231 169
3 169 231 230
3 164 229 170
3 229 231 170
3 229 232 231
3 172 232 166
3 166 232 229
3 233 174 230
3 230 174 168
3 234 230 231
3 233 230 234
3 175 234 177
3 234 232 177
3 234 231 232
3 177 232 172
3 235 178 179
3 179 174 235
3 174 233 235
3 182 180 235
3 182 235 233
3 182 233 183
3 183 233 234
3 183 234 175
3 235 184 178
3 184 235 180
3 236 186 187
3 189 236 187
3 237 191 192
3 186 236 192
3 236 237 192
3 236 238 237
3 194 238 189
3 189 238 236
3 239 196 197
3 191 237 197
3 237 239 197
3 237 240 239
3 241 237 238
3 240 237 241
3 199 241 194
3 194 241 238
3 239 201 196
3 201 239 202
3 239 242 202
3 239 240 242
3 205 242 204
3 242 241 204
3 242 240 241
3 204 241 199
3 243 206 207
3 202 242 207
3 242 243 207
3 242 244 243
3 209 244 205
3 205 244 242
3 245 211 212
3 206 243 212
3 243 245 212
3 243 246 245
3 215 246 214
3 246 244 214
3 246 243 244
3 214 244 209
3 247 218 245
3 245 218 211
3 248 245 246
3 247 245 248
3 220 248 215
3 215 248 246
3 249 222 247
3 247 222 218
3 223 249 224
3 249 248 224
3 249 247 248
3 224 248 220
3 250 226 249
3 249 226 222
3 227 250 223
3 223 250 249
3 250 228 226
3 228 250 227
