ply
format ascii 1.0
comment None
element vertex 314
property float x
property float y
property float z
element face 624
property list uchar int vertex_indices
end_header
51.694 62.389 34.233
52.040 61.857 33.559
52.129 61.536 34.092
51.930 61.889 34.675
51.759 62.765 33.536
52.235 62.653 33.004
52.188 62.083 33.160
51.491 63.284 34.220
51.705 62.434 34.956
51.524 63.232 34.972
51.721 62.822 35.486
51.898 63.359 33.242
51.619 63.950 33.855
52.099 64.143 33.306
51.501 64.149 34.735
51.682 63.455 35.714
51.676 64.164 35.570
51.952 63.966 36.210
51.857 64.806 33.818
52.492 65.102 33.506
51.689 65.080 34.526
51.770 65.037 35.364
52.267 64.955 36.295
52.034 65.547 34.171
52.506 65.847 34.093
51.953 65.846 34.698
51.951 65.773 35.176
52.161 65.675 35.753
52.351 66.124 34.600
52.472 61.191 33.599
52.957 60.906 33.391
52.847 60.780 33.694
52.678 60.903 34.109
52.773 61.469 36.390
52.673 61.159 35.505
53.236 60.639 36.020
53.230 60.911 36.698
52.531 61.476 33.202
52.866 61.891 32.916
53.088 61.221 33.070
52.380 61.300 34.764
52.132 62.021 35.552
52.391 62.321 36.502
53.234 61.316 37.203
52.847 62.197 37.222
53.242 61.852 37.674
52.939 62.660 32.770
52.046 63.079 36.239
52.495 62.965 36.981
53.196 62.416 37.833
53.000 63.199 37.668
53.636 62.838 38.226
52.440 63.369 32.918
53.047 64.217 32.969
52.528 64.035 37.002
53.210 64.178 37.739
53.470 63.662 38.123
52.903 64.891 33.048
53.053 64.996 32.982
53.164 64.801 32.955
52.703 64.860 36.959
53.034 64.745 37.331
53.188 65.213 33.303
53.073 65.775 33.908
52.240 66.190 35.052
52.441 66.177 35.555
52.723 65.896 36.154
53.144 65.394 36.865
52.947 66.229 34.494
52.849 66.402 35.172
53.007 66.338 35.807
53.453 60.306 33.957
54.349 60.074 33.413
54.247 59.565 33.888
54.013 59.516 34.557
53.617 59.970 34.879
54.129 59.451 35.613
53.567 60.104 35.536
53.899 60.015 36.372
53.636 60.727 33.249
53.725 61.318 32.945
54.477 60.732 33.065
53.055 60.587 34.925
53.623 60.516 36.828
53.429 60.841 37.043
53.734 60.806 37.409
53.889 62.110 32.799
53.660 61.422 37.826
53.532 62.056 38.045
54.167 61.854 38.349
53.633 62.831 32.720
53.104 63.285 32.751
53.887 63.432 32.805
54.403 62.937 38.598
54.149 64.045 32.986
53.705 64.221 38.107
53.984 63.686 38.384
53.268 64.983 33.024
53.916 64.819 33.249
54.225 64.394 38.153
53.719 64.870 37.617
53.530 66.141 34.379
54.011 65.621 34.009
54.031 66.148 34.709
54.150 65.597 36.844
53.472 66.097 36.290
53.541 66.390 34.959
53.559 66.407 35.645
54.676 58.403 35.067
54.886 58.117 34.373
55.154 57.582 34.948
55.035 57.990 35.692
54.554 58.859 34.267
55.087 59.139 33.501
55.099 58.305 33.835
54.320 59.011 34.981
54.802 58.441 35.845
54.487 58.830 35.549
54.743 58.836 36.307
55.393 60.095 33.122
54.599 59.421 36.858
54.317 60.146 37.409
55.273 59.448 38.030
54.854 60.240 38.176
55.353 60.036 38.565
54.654 61.413 32.916
55.255 60.882 33.008
54.279 60.861 38.008
55.048 60.941 38.599
55.067 62.053 32.905
54.833 62.059 38.661
54.644 62.770 32.841
55.014 63.476 33.030
55.018 62.857 38.708
54.758 63.338 38.739
54.937 63.329 38.772
54.988 64.227 33.297
54.905 63.592 38.667
54.596 63.800 38.506
55.061 64.788 33.737
54.534 65.182 33.753
55.003 65.274 34.316
54.765 64.403 38.103
54.537 64.947 37.619
54.181 66.223 35.396
54.656 65.794 34.933
54.097 66.137 36.078
54.808 65.683 36.027
54.928 65.234 36.968
55.708 56.797 34.023
56.102 56.944 33.597
56.143 56.418 33.945
55.937 56.448 34.517
55.475 56.982 34.487
55.720 56.823 35.247
55.388 57.497 34.012
55.956 58.003 33.360
55.554 57.421 36.007
55.334 58.146 36.611
56.263 57.451 37.213
55.906 58.214 37.689
56.405 57.953 38.060
56.320 59.175 33.044
55.272 58.776 37.308
56.337 58.406 38.416
55.788 58.731 38.085
56.050 58.992 38.602
56.196 59.997 33.041
55.848 59.582 38.763
55.697 60.229 38.894
56.279 59.872 39.007
55.607 61.470 33.007
56.158 60.733 33.086
55.641 60.813 38.901
55.964 60.470 38.999
55.883 62.027 33.050
56.528 61.694 33.230
55.881 60.913 38.927
55.625 61.756 38.660
55.706 62.556 33.034
55.382 62.973 32.992
56.339 62.304 33.200
55.551 63.073 38.329
55.948 62.485 38.271
56.143 63.052 37.792
55.110 63.384 38.628
56.058 63.053 33.267
55.886 63.757 33.490
55.791 63.909 37.530
56.278 63.556 37.280
56.295 63.986 36.675
55.148 63.881 38.262
55.721 64.315 33.761
55.454 65.195 35.303
55.885 64.630 34.503
55.606 64.810 36.545
56.210 64.460 35.646
55.183 64.613 37.562
56.617 56.000 34.379
56.757 56.305 33.697
57.237 55.810 34.133
57.417 55.514 35.011
56.513 56.107 35.405
57.243 55.716 36.034
56.807 56.158 36.457
57.238 55.935 36.711
57.074 57.030 33.189
56.211 56.713 36.250
57.089 56.314 37.021
56.712 56.668 36.960
57.285 57.018 37.449
56.949 58.177 32.983
56.804 57.789 38.087
56.622 58.081 38.393
56.811 58.328 38.548
57.068 58.816 32.869
57.412 59.006 32.890
57.508 58.519 32.923
56.564 58.822 38.812
56.305 59.251 38.942
56.624 59.270 38.986
57.063 59.288 32.927
56.887 59.990 33.088
56.839 60.369 38.651
56.564 60.135 38.945
56.788 59.694 38.894
57.099 60.953 33.322
56.300 60.795 38.790
56.776 61.118 38.329
57.290 61.702 33.530
56.441 62.027 38.062
56.994 61.628 37.800
56.971 62.271 37.367
56.329 62.628 33.238
56.978 62.492 33.586
56.692 63.093 37.037
57.174 62.656 36.762
57.118 63.163 36.260
56.426 63.960 34.140
56.729 63.315 33.840
56.694 63.994 35.014
57.110 63.453 34.600
56.778 63.734 35.996
57.209 63.372 35.484
57.974 55.175 35.236
57.980 55.246 34.914
58.165 55.143 35.108
58.185 55.259 35.380
57.585 56.185 33.609
57.832 55.625 34.405
57.873 55.445 35.803
57.634 55.786 36.574
57.430 56.177 37.048
57.823 56.259 36.960
57.729 56.549 33.111
57.984 56.635 33.090
58.008 56.431 33.356
58.006 56.914 37.122
57.785 56.912 33.048
57.730 57.728 33.123
57.287 58.140 38.171
57.940 57.959 37.461
57.736 58.972 33.043
57.939 58.543 33.205
57.621 58.989 38.049
58.095 59.036 37.393
57.029 58.970 38.676
57.513 59.479 33.086
57.651 60.250 33.438
57.850 60.111 37.485
58.307 59.571 36.863
58.262 60.318 36.613
57.260 59.811 38.394
57.763 61.175 33.743
57.989 61.162 36.610
58.339 60.797 35.980
58.194 61.589 35.617
57.669 61.016 37.325
57.279 60.844 37.937
57.730 61.969 33.904
57.847 62.125 35.950
58.029 62.256 35.216
57.450 61.836 37.014
57.701 62.463 34.106
57.431 62.901 34.274
57.645 62.824 35.146
57.918 62.484 34.619
57.459 62.716 36.093
58.254 55.493 34.964
58.270 56.263 34.195
58.508 56.091 35.151
58.322 55.748 35.762
58.041 55.812 36.403
58.169 56.988 33.441
58.528 57.192 34.217
58.649 56.868 35.007
58.572 56.579 35.862
58.272 56.350 36.543
58.364 58.236 33.864
58.703 57.877 34.883
58.688 57.582 35.809
58.409 57.275 36.650
58.054 59.336 33.507
58.455 59.396 34.200
58.649 58.968 34.861
58.709 58.543 35.626
58.467 58.528 36.596
58.222 60.395 34.127
58.540 59.920 34.813
58.539 59.730 35.838
58.135 61.475 34.313
58.387 60.891 35.074
58.020 62.130 34.327
58.192 61.881 34.842
3 2 1 0
3 0 3 2
3 6 5 4
3 6 4 1
3 4 0 1
3 4 7 0
3 3 0 8
3 0 9 8
3 0 7 9
3 9 10 8
3 5 11 4
3 13 12 11
3 12 4 11
3 12 7 4
3 7 14 9
3 7 12 14
3 10 9 15
3 9 16 15
3 9 14 16
3 16 17 15
3 12 13 18
3 18 13 19
3 12 20 14
3 12 18 20
3 14 21 16
3 14 20 21
3 17 16 22
3 22 16 21
3 18 19 23
3 23 19 24
3 26 20 25
3 20 23 25
3 20 18 23
3 20 26 21
3 21 26 27
3 21 27 22
3 24 28 23
3 23 28 25
3 31 30 29
3 29 32 31
3 35 34 33
3 33 36 35
3 39 38 37
3 39 37 30
3 30 37 29
3 37 1 29
3 1 2 29
3 41 40 3
3 3 40 2
3 40 32 2
3 32 29 2
3 40 41 34
3 41 33 34
3 41 42 33
3 36 33 43
3 33 44 43
3 33 42 44
3 44 45 43
3 37 38 6
3 38 5 6
3 38 46 5
3 37 6 1
3 8 41 3
3 41 8 10
3 47 41 10
3 42 41 47
3 42 48 44
3 42 47 48
3 45 44 49
3 44 50 49
3 44 48 50
3 50 51 49
3 46 52 5
3 5 52 11
3 13 11 52
3 13 52 53
3 15 47 10
3 47 15 17
3 54 47 17
3 48 47 54
3 56 50 55
3 50 54 55
3 50 48 54
3 50 56 51
3 59 58 57
3 53 59 57
3 19 53 57
3 13 53 19
3 22 60 54
3 22 54 17
3 55 54 61
3 61 54 60
3 58 62 57
3 19 57 62
3 63 19 62
3 24 19 63
3 25 64 26
3 65 27 26
3 65 26 64
3 65 66 27
3 27 66 22
3 66 67 22
3 67 60 22
3 60 67 61
3 63 68 24
3 24 68 28
3 25 28 64
3 28 69 64
3 28 68 69
3 64 69 65
3 65 69 70
3 65 70 66
3 73 72 71
3 75 74 71
3 71 74 73
3 77 76 75
3 75 76 74
3 77 78 76
3 81 80 79
3 81 79 72
3 72 79 71
3 79 30 71
3 30 31 71
3 71 31 32
3 82 71 32
3 75 71 82
3 82 34 35
3 77 82 35
3 75 82 77
3 84 83 36
3 36 83 35
3 83 78 35
3 78 77 35
3 84 85 83
3 79 80 39
3 80 38 39
3 80 86 38
3 79 39 30
3 40 82 32
3 82 40 34
3 43 84 36
3 88 87 45
3 45 87 43
3 87 85 43
3 85 84 43
3 88 89 87
3 91 46 90
3 46 86 90
3 46 38 86
3 92 91 90
3 49 88 45
3 49 51 88
3 51 89 88
3 51 93 89
3 91 52 46
3 53 52 91
3 92 53 91
3 94 53 92
3 55 95 56
3 95 96 56
3 96 51 56
3 96 93 51
3 97 58 59
3 98 97 59
3 53 98 59
3 94 98 53
3 100 99 95
3 55 100 95
3 61 100 55
3 95 99 96
3 97 62 58
3 102 101 63
3 102 63 62
3 98 102 62
3 97 98 62
3 103 101 102
3 105 104 67
3 105 67 66
3 61 67 100
3 100 67 104
3 101 68 63
3 103 106 101
3 106 68 101
3 106 69 68
3 69 107 70
3 106 107 69
3 66 70 105
3 105 70 107
3 110 109 108
3 108 111 110
3 114 113 112
3 114 112 109
3 112 108 109
3 112 115 108
3 111 108 116
3 108 117 116
3 108 115 117
3 117 118 116
3 112 113 73
3 113 72 73
3 113 119 72
3 112 73 74
3 112 74 115
3 115 74 76
3 115 76 117
3 121 120 78
3 78 120 76
3 120 118 76
3 118 117 76
3 123 122 121
3 121 122 120
3 123 124 122
3 126 125 81
3 81 125 80
3 81 72 119
3 81 119 126
3 83 121 78
3 121 83 85
3 127 121 85
3 123 121 127
3 124 123 128
3 128 123 127
3 125 86 80
3 129 86 125
3 87 127 85
3 87 89 127
3 89 128 127
3 89 130 128
3 129 131 86
3 86 131 90
3 92 90 131
3 92 131 132
3 93 134 133
3 130 93 133
3 89 93 130
3 134 135 133
3 132 94 92
3 136 94 132
3 138 137 134
3 93 138 134
3 96 138 93
3 134 137 135
3 140 98 139
3 98 136 139
3 98 94 136
3 141 140 139
3 143 142 99
3 143 99 100
3 96 99 138
3 138 99 142
3 140 102 98
3 145 144 103
3 145 103 102
3 141 145 102
3 140 141 102
3 147 146 144
3 147 144 145
3 104 105 146
3 147 104 146
3 148 104 147
3 100 104 143
3 143 104 148
3 144 106 103
3 106 144 107
3 107 144 146
3 107 146 105
3 151 150 149
3 153 152 149
3 149 152 151
3 153 154 152
3 149 150 155
3 155 150 156
3 155 109 110
3 153 155 110
3 149 155 153
3 158 157 111
3 111 157 110
3 157 154 110
3 154 153 110
3 160 159 158
3 158 159 157
3 160 161 159
3 155 156 114
3 156 113 114
3 156 162 113
3 155 114 109
3 116 158 111
3 158 116 118
3 163 158 118
3 160 158 163
3 161 160 164
3 160 165 164
3 160 163 165
3 165 166 164
3 162 119 113
3 167 119 162
3 120 163 118
3 163 120 122
3 163 122 165
3 169 168 124
3 124 168 122
3 168 166 122
3 166 165 122
3 169 170 168
3 171 125 126
3 172 171 126
3 119 172 126
3 167 172 119
3 128 173 169
3 128 169 124
3 170 169 174
3 174 169 173
3 175 129 171
3 171 129 125
3 171 172 176
3 171 176 175
3 178 177 173
3 128 178 173
3 130 178 128
3 173 177 174
3 180 131 179
3 131 129 179
3 179 129 175
3 181 179 175
3 175 176 181
3 131 180 132
3 184 183 182
3 185 182 133
3 182 178 133
3 178 130 133
3 178 182 183
3 135 185 133
3 179 186 180
3 132 180 186
3 187 132 186
3 136 132 187
3 190 189 188
3 188 189 184
3 182 188 184
3 191 188 182
3 138 191 137
3 191 185 137
3 191 182 185
3 137 185 135
3 187 192 136
3 136 192 139
3 194 193 141
3 139 194 141
3 192 194 139
3 196 195 193
3 196 193 194
3 195 196 190
3 188 195 190
3 197 195 188
3 143 197 142
3 197 191 142
3 197 188 191
3 142 191 138
3 193 145 141
3 145 193 147
3 147 193 195
3 147 195 148
3 148 195 197
3 148 197 143
3 200 199 198
3 202 201 198
3 198 201 200
3 204 203 202
3 202 203 201
3 204 205 203
3 198 199 151
3 199 150 151
3 199 206 150
3 198 151 152
3 198 152 202
3 202 152 154
3 207 202 154
3 204 202 207
3 205 204 208
3 204 209 208
3 204 207 209
3 209 210 208
3 206 156 150
3 211 156 206
3 157 207 154
3 207 157 159
3 207 159 209
3 213 212 161
3 161 212 159
3 212 210 159
3 210 209 159
3 213 214 212
3 217 216 215
3 211 217 215
3 162 211 215
3 156 211 162
3 164 213 161
3 219 218 166
3 166 218 164
3 218 214 164
3 214 213 164
3 219 220 218
3 216 221 215
3 162 215 221
3 222 162 221
3 167 162 222
3 219 166 168
3 225 224 223
3 224 225 170
3 225 220 170
3 219 168 170
3 219 170 220
3 222 172 167
3 226 172 222
3 223 224 227
3 223 227 228
3 174 227 170
3 170 227 224
3 226 176 172
3 229 176 226
3 232 231 230
3 230 231 228
3 230 228 227
3 178 230 227
3 177 178 227
3 177 227 174
3 233 179 181
3 234 233 181
3 176 234 181
3 229 234 176
3 237 236 235
3 235 236 232
3 235 232 230
3 184 235 230
3 183 184 230
3 183 230 178
3 233 186 179
3 239 238 187
3 239 187 186
3 234 239 186
3 233 234 186
3 241 240 238
3 241 238 239
3 243 242 240
3 243 240 241
3 242 243 237
3 242 237 235
3 190 242 235
3 189 190 235
3 189 235 184
3 238 192 187
3 192 238 194
3 194 238 240
3 194 240 196
3 196 240 242
3 196 242 190
3 246 245 244
3 244 247 246
3 249 248 200
3 200 248 199
3 201 244 245
3 249 201 245
3 200 201 249
3 250 247 244
3 201 250 244
3 203 250 201
3 252 251 205
3 251 203 205
3 251 250 203
3 252 253 251
3 256 255 254
3 248 256 254
3 206 248 254
3 199 248 206
3 208 252 205
3 208 210 252
3 210 253 252
3 210 257 253
3 255 258 254
3 206 254 258
3 259 206 258
3 211 206 259
3 210 212 260
3 261 210 260
3 257 210 261
3 214 260 212
3 263 262 217
3 217 262 216
3 217 211 259
3 217 259 263
3 261 260 264
3 261 264 265
3 218 266 214
3 266 260 214
3 266 264 260
3 220 266 218
3 262 267 216
3 216 267 221
3 222 221 267
3 222 267 268
3 271 270 269
3 269 270 265
3 264 269 265
3 272 269 264
3 223 272 225
3 272 266 225
3 272 264 266
3 225 266 220
3 268 226 222
3 273 226 268
3 276 275 274
3 274 275 271
3 269 274 271
3 277 274 269
3 278 269 272
3 277 269 278
3 228 278 223
3 223 278 272
3 273 229 226
3 279 229 273
3 276 274 280
3 276 280 281
3 282 274 277
3 280 274 282
3 232 282 231
3 282 278 231
3 282 277 278
3 231 278 228
3 284 234 283
3 234 279 283
3 234 229 279
3 286 285 284
3 286 284 283
3 285 286 281
3 280 285 281
3 287 285 280
3 237 287 236
3 287 282 236
3 287 280 282
3 236 282 232
3 284 239 234
3 239 284 241
3 241 284 285
3 241 285 243
3 243 285 287
3 243 287 237
3 288 245 246
3 247 288 246
3 289 248 249
3 245 288 249
3 288 289 249
3 288 290 289
3 250 291 247
3 291 288 247
3 291 290 288
3 251 292 250
3 250 292 291
3 253 292 251
3 293 255 256
3 248 289 256
3 289 293 256
3 289 294 293
3 295 289 290
3 294 289 295
3 296 290 291
3 295 290 296
3 297 291 292
3 296 291 297
3 257 297 253
3 253 297 292
3 293 258 255
3 258 293 259
3 293 298 259
3 293 294 298
3 299 294 295
3 298 294 299
3 300 295 296
3 299 295 300
3 301 296 297
3 300 296 301
3 261 301 257
3 257 301 297
3 302 262 263
3 259 298 263
3 298 302 263
3 298 303 302
3 304 298 299
3 303 298 304
3 305 299 300
3 304 299 305
3 306 300 301
3 305 300 306
3 265 306 261
3 261 306 301
3 302 267 262
3 267 302 268
3 302 307 268
3 302 303 307
3 308 303 304
3 307 303 308
3 309 304 305
3 308 304 309
3 271 309 270
3 309 306 270
3 309 305 306
3 270 306 265
3 310 273 307
3 307 273 268
3 311 307 308
3 310 307 311
3 276 311 275
3 311 309 275
3 311 308 309
3 275 309 271
3 312 279 310
3 310 279 273
3 313 310 311
3 312 310 313
3 281 313 276
3 276 313 311
3 312 283 279
3 283 312 286
3 286 312 313
3 286 313 281
