ply
format ascii 1.0
comment None
element vertex 882
property float x
property float y
property float z
element face 1760
property list uchar int vertex_indices
end_header
44.919 55.510 40.032
44.925 55.270 39.423
44.991 54.869 39.778
45.028 55.069 40.387
44.888 56.077 39.402
44.954 56.241 38.450
44.943 55.490 38.831
44.895 56.188 40.153
44.989 55.816 40.676
44.912 57.006 38.817
44.993 57.022 38.055
44.884 56.986 39.768
44.957 56.703 40.608
45.136 58.021 37.219
45.258 58.323 36.718
45.243 57.732 36.795
45.112 57.379 37.372
45.004 57.922 38.012
44.905 57.784 39.061
44.908 57.792 39.773
44.945 57.462 40.331
45.131 58.548 37.241
45.237 58.763 36.791
45.054 58.800 37.768
44.972 58.619 38.576
44.938 58.363 39.381
45.217 59.223 37.050
45.966 52.394 36.356
46.137 52.643 35.569
46.503 51.979 35.740
46.405 51.563 36.645
45.821 52.210 37.309
46.120 51.535 37.676
45.726 52.176 38.301
46.024 51.585 38.621
45.738 52.223 39.239
45.998 51.737 39.388
45.703 53.202 36.150
45.974 53.361 35.393
45.539 52.995 37.070
45.457 52.884 38.050
45.453 52.951 39.091
45.854 52.202 39.925
45.592 53.018 40.229
45.940 52.501 40.740
45.741 53.311 41.347
46.030 52.848 41.542
45.594 54.156 35.956
45.951 54.007 35.230
45.362 53.848 36.903
45.250 53.682 37.872
45.241 53.597 38.768
45.214 54.134 39.968
45.464 54.118 41.211
45.917 53.403 41.995
45.743 54.113 42.157
46.007 53.723 42.466
45.846 54.876 35.378
46.465 54.986 34.807
46.264 54.225 34.907
45.461 55.122 36.136
45.266 54.782 36.872
45.151 54.432 37.666
45.056 54.574 38.803
45.212 55.221 41.170
45.531 55.066 42.101
46.001 54.241 42.768
45.876 54.931 42.793
46.319 54.575 43.208
45.975 55.672 35.180
45.583 55.992 35.846
45.910 56.511 35.267
45.259 55.789 36.801
45.065 55.390 37.869
45.134 56.407 41.326
45.411 56.124 42.077
45.773 55.904 42.786
46.233 55.563 43.316
45.594 56.962 35.808
45.839 57.446 35.368
45.312 56.909 36.599
45.089 56.472 37.536
45.112 57.497 41.104
45.369 57.179 41.965
45.736 56.968 42.702
46.200 56.638 43.304
45.468 57.824 36.123
45.748 58.365 35.511
45.055 58.397 40.269
45.259 58.375 41.208
45.371 57.994 41.763
45.734 58.042 42.479
46.263 57.768 43.214
45.422 58.792 36.268
45.699 59.140 35.662
45.106 59.541 38.070
45.061 59.202 39.260
45.218 59.345 40.131
45.382 59.125 40.939
45.619 58.810 41.862
45.962 58.830 42.546
46.179 58.530 42.952
45.492 59.655 36.283
45.324 60.213 37.165
45.662 60.511 36.295
45.251 60.393 38.037
45.245 60.150 38.865
45.288 59.902 39.689
45.606 60.021 40.579
45.866 59.688 41.567
46.116 59.413 42.330
45.574 61.040 37.018
45.851 61.208 36.427
45.413 60.883 37.683
45.549 61.024 38.582
45.659 60.687 39.738
45.997 60.722 40.642
46.289 60.490 41.415
46.500 60.054 42.197
45.885 61.600 36.974
45.783 61.556 37.778
46.337 62.143 37.353
45.960 61.703 38.641
46.145 61.542 39.495
46.321 61.233 40.431
46.387 62.151 38.319
46.577 50.961 37.287
46.989 50.826 36.644
46.921 50.574 37.136
46.852 50.474 37.705
46.414 50.994 38.146
46.771 50.494 38.627
46.369 51.161 39.208
46.852 50.596 39.596
46.593 51.235 40.230
46.999 50.750 40.391
46.562 52.305 35.211
46.904 52.368 34.910
47.061 51.877 35.215
47.152 51.284 35.834
46.170 51.775 40.105
46.896 51.241 40.966
46.458 52.053 41.263
47.228 51.503 41.907
46.792 52.395 42.322
47.202 52.091 42.596
46.438 52.815 35.027
46.988 52.894 34.712
46.283 53.043 42.234
47.059 52.540 42.849
46.745 53.075 42.872
47.328 52.790 43.235
46.374 53.499 34.895
46.965 53.836 34.617
46.332 53.764 42.885
46.958 53.779 43.406
47.231 54.636 34.543
46.881 54.968 43.696
46.309 55.974 34.877
47.042 55.753 34.612
46.747 56.127 43.725
46.390 56.955 34.808
47.224 57.025 34.477
46.847 57.253 43.718
46.596 58.047 34.487
46.896 58.552 34.131
47.122 57.981 34.232
46.104 57.950 34.969
46.775 57.994 43.582
46.602 59.053 34.343
47.009 59.178 33.998
46.110 58.908 34.977
46.410 59.143 42.893
46.784 58.634 43.372
46.826 59.807 34.214
47.140 59.733 33.937
46.379 59.887 34.818
45.882 59.855 35.547
46.621 59.685 42.717
47.068 59.460 43.168
47.139 60.250 34.128
46.863 60.743 34.710
47.557 60.856 34.374
46.206 60.868 35.627
46.449 61.006 41.070
46.827 60.988 41.580
47.146 60.673 42.185
47.208 60.094 42.788
47.258 61.496 34.866
46.876 61.797 35.598
47.417 62.047 35.249
46.286 61.772 36.425
46.390 62.014 39.057
46.722 62.040 39.631
46.985 61.817 40.376
47.095 61.397 41.227
47.416 62.526 35.938
46.954 62.616 36.768
47.485 63.021 36.642
47.183 62.740 37.904
47.177 63.019 37.301
47.147 62.391 39.148
47.290 63.129 37.050
47.532 49.446 39.155
47.636 49.209 38.357
47.849 48.872 38.858
47.922 48.914 39.480
47.422 50.124 37.026
48.181 49.949 36.216
48.059 49.492 36.769
47.757 49.337 37.553
47.251 49.859 38.199
47.130 50.064 39.125
47.858 49.295 39.991
47.459 50.039 40.191
48.329 49.379 40.995
47.915 50.177 41.318
48.442 49.848 41.735
47.662 50.577 36.124
47.873 50.911 35.566
48.474 50.405 35.574
47.345 50.735 41.085
48.312 50.344 42.104
47.731 50.758 41.774
47.953 51.041 42.391
47.670 52.091 34.793
47.765 51.389 35.206
47.665 51.700 42.721
47.431 52.241 42.985
48.073 51.984 43.287
47.833 52.915 34.530
47.955 52.966 43.707
47.942 53.840 34.465
47.543 54.073 43.866
48.004 54.847 34.526
47.500 54.789 44.003
47.373 55.550 44.010
48.072 54.879 44.192
48.042 55.941 34.620
47.403 56.494 44.025
48.116 55.760 44.240
47.961 56.849 34.583
47.579 57.286 44.029
48.230 56.705 44.250
47.338 58.623 34.068
47.770 57.800 34.383
48.321 57.640 44.171
47.454 58.117 43.827
47.435 59.414 33.956
48.005 58.976 34.268
47.688 59.063 43.619
47.407 60.055 33.989
47.844 60.004 34.151
47.912 59.827 43.325
48.167 60.718 34.421
47.365 61.152 41.876
47.874 61.040 42.310
48.158 60.555 42.863
47.667 61.719 34.832
48.172 61.558 34.757
47.289 62.209 39.971
47.711 62.146 40.507
47.984 61.860 41.167
48.011 61.424 41.872
47.943 62.265 35.362
47.971 62.794 36.237
47.897 63.109 36.836
48.063 62.988 37.840
47.493 63.159 37.419
48.318 62.769 38.949
48.122 62.418 40.009
47.580 63.239 37.052
48.955 48.207 36.493
49.270 48.384 35.937
49.541 47.930 35.902
49.290 47.520 36.688
48.638 48.060 37.360
48.980 47.444 37.765
48.528 47.945 38.252
48.930 47.489 38.804
48.391 48.271 39.258
49.253 47.539 39.984
48.826 48.214 40.401
49.312 47.877 40.780
48.904 48.686 36.231
48.397 48.799 36.940
48.729 49.274 36.129
48.101 48.621 38.078
48.290 48.776 40.172
49.311 48.261 41.218
48.737 48.682 40.886
49.126 48.851 41.561
48.845 49.808 35.701
49.046 49.453 42.049
48.674 49.916 42.121
48.918 50.038 42.488
48.351 50.929 35.224
48.553 51.328 34.868
49.069 50.629 35.034
49.313 50.008 35.233
48.622 50.648 42.736
48.260 51.272 42.930
49.060 50.966 43.308
48.742 52.023 34.565
49.000 51.867 43.796
48.876 52.948 34.440
48.745 52.655 44.005
48.345 53.456 44.057
49.228 52.805 44.208
48.992 53.969 34.490
48.005 54.246 44.104
48.901 53.858 44.286
49.079 55.026 34.688
48.979 54.856 44.403
48.838 55.796 34.828
48.560 56.407 34.818
49.178 56.097 35.024
49.102 55.865 44.468
48.499 57.202 34.772
49.208 56.674 35.121
49.290 56.979 44.450
48.558 58.145 34.691
49.244 57.506 35.161
49.138 57.930 44.294
48.582 58.619 44.010
48.700 59.005 34.667
49.326 58.539 35.173
48.533 59.433 43.721
48.546 59.962 34.556
49.129 59.476 34.978
48.911 60.059 43.465
48.672 61.032 34.794
49.335 60.688 43.070
48.726 61.146 42.484
48.657 61.723 35.006
48.436 62.099 35.186
48.781 62.052 35.400
48.319 62.200 40.768
48.804 62.052 41.202
49.059 61.661 41.830
48.494 62.436 35.814
47.911 63.161 37.243
48.626 62.735 37.004
48.939 62.801 38.402
48.953 62.884 38.998
49.231 62.830 39.005
49.001 62.833 39.270
49.174 62.566 39.732
48.991 62.292 40.645
49.150 62.886 39.179
49.545 46.955 37.259
49.810 46.989 36.451
50.261 46.552 36.755
49.943 46.576 37.747
49.431 46.949 38.270
50.189 46.496 38.791
49.491 47.013 39.246
49.989 46.788 39.662
49.638 47.060 39.843
50.120 47.049 40.362
49.758 48.362 35.463
50.295 48.407 35.017
50.198 47.938 35.261
50.004 47.337 35.780
49.873 47.580 40.985
49.560 47.900 41.163
49.908 47.963 41.528
49.972 48.802 35.165
50.514 48.709 34.794
49.346 48.809 35.700
49.958 48.466 42.000
49.489 48.946 42.053
49.845 49.072 42.456
50.322 49.194 34.830
49.510 49.370 35.376
49.928 49.670 34.968
49.587 49.663 42.744
49.266 50.246 42.961
50.113 49.982 43.303
49.699 50.984 34.625
49.904 50.135 34.813
50.112 50.828 43.822
49.859 51.991 34.445
49.812 51.553 44.058
49.368 52.145 44.097
50.152 51.899 44.260
50.013 53.058 34.451
50.050 52.837 44.403
50.251 54.142 34.605
49.988 53.838 44.524
50.132 54.938 34.867
50.062 54.852 44.646
49.627 55.555 35.000
49.939 56.103 35.302
50.311 55.948 44.738
50.125 56.854 35.616
50.126 56.875 44.620
49.967 57.793 35.657
49.529 58.512 44.226
50.163 57.776 44.457
50.004 58.568 35.733
50.211 58.728 44.241
49.633 59.380 43.919
49.280 60.446 35.243
49.777 59.449 35.575
49.836 60.195 43.513
49.062 61.490 35.346
49.913 60.313 35.884
49.679 61.230 36.074
50.124 61.411 36.873
50.404 60.565 36.664
50.509 61.233 37.362
50.375 60.662 43.105
49.815 61.196 42.540
49.076 62.072 36.031
49.586 62.007 36.873
50.166 61.815 37.577
50.300 61.578 41.781
49.587 62.003 41.244
49.569 62.390 37.871
49.280 62.779 39.277
49.654 62.511 38.991
49.984 62.281 39.797
49.807 62.215 40.518
50.897 46.191 39.124
50.802 46.102 38.524
51.359 45.940 38.777
51.554 46.093 39.466
50.257 46.835 35.985
50.543 46.990 35.473
50.927 46.568 35.757
51.119 46.132 36.634
50.655 46.183 37.707
50.870 46.519 39.915
50.918 46.859 40.721
50.998 48.308 34.644
50.690 47.461 35.083
50.712 47.233 41.162
50.557 47.684 41.650
50.351 48.019 41.905
51.020 48.065 42.257
50.845 48.898 34.547
51.028 49.065 34.407
51.144 48.895 34.407
50.663 48.730 42.687
50.275 49.297 42.937
51.066 49.191 43.236
50.801 49.308 34.510
50.398 49.636 34.688
50.790 49.907 34.479
51.292 49.894 43.759
50.836 50.985 34.424
50.984 50.617 44.073
50.444 51.158 44.136
51.107 51.113 44.277
50.971 52.065 34.427
51.088 51.905 44.439
51.210 53.278 34.534
51.064 52.853 44.585
50.917 53.975 34.561
50.872 54.231 34.622
51.059 54.125 34.583
51.074 53.851 44.740
50.994 54.531 34.822
51.233 54.192 34.657
51.162 54.812 44.909
50.871 55.353 35.257
50.851 56.121 35.707
51.112 55.485 44.968
51.055 55.994 44.914
51.492 55.649 45.027
51.165 56.606 36.150
50.688 57.344 36.129
51.292 57.122 36.511
51.589 56.188 44.918
50.885 56.781 44.725
50.527 58.149 36.170
51.121 57.767 36.628
51.198 57.688 44.517
50.440 59.057 36.206
50.968 58.593 36.717
50.635 59.244 44.071
51.069 58.599 44.281
50.255 59.815 36.133
50.856 59.286 36.762
50.604 59.721 36.547
50.921 59.945 37.141
51.363 59.391 43.963
50.752 59.946 43.640
50.684 61.480 38.209
50.877 60.740 37.619
51.109 60.948 38.384
51.378 60.505 42.905
50.808 61.093 42.477
50.175 62.074 38.381
51.009 61.370 38.953
50.503 61.920 39.228
50.508 61.930 40.277
51.064 61.451 39.810
50.301 61.900 41.027
50.997 61.485 40.957
51.107 61.282 41.834
51.494 45.851 37.406
51.817 45.835 36.621
52.438 45.608 37.173
51.998 45.727 38.228
51.210 45.916 38.138
51.983 45.850 39.023
52.434 45.969 39.582
51.043 46.991 35.116
51.507 47.438 34.659
51.729 46.724 35.016
51.867 46.113 35.785
52.028 46.303 40.159
51.677 46.667 40.741
51.411 46.994 41.203
52.266 46.962 41.373
52.177 48.171 34.259
51.582 47.420 41.783
52.258 47.885 42.495
51.108 49.231 34.378
51.535 49.080 34.350
51.699 48.495 42.927
52.155 49.029 43.465
51.739 50.046 34.371
52.532 49.639 43.890
51.853 51.078 34.432
51.832 50.374 44.146
52.015 51.074 44.380
52.024 52.113 34.509
52.075 51.962 44.550
52.236 52.930 34.608
52.114 52.975 44.706
51.279 53.936 34.596
52.011 53.932 34.794
52.120 53.980 44.911
51.675 54.705 35.072
52.257 54.519 35.116
52.189 55.022 35.464
51.915 54.626 45.060
51.422 56.131 36.011
51.660 55.713 35.809
51.997 56.122 36.314
51.653 55.142 45.065
52.110 55.559 45.028
51.691 57.371 36.954
51.804 56.730 36.655
52.167 56.961 37.091
52.142 56.221 44.871
51.875 57.014 44.631
51.569 58.284 37.302
52.173 57.621 37.560
51.964 58.204 44.242
51.249 59.228 37.332
52.006 58.430 37.930
51.739 59.217 38.115
52.114 58.895 38.442
51.777 58.968 44.082
51.329 60.159 38.090
52.032 59.450 38.805
51.776 60.111 39.068
52.118 59.793 39.376
51.947 59.428 43.801
51.697 59.892 43.493
51.369 60.850 39.084
52.013 60.251 39.892
51.611 60.847 40.166
51.610 60.971 41.380
52.065 60.421 40.791
51.458 60.930 42.194
52.016 60.427 42.006
52.059 60.104 42.891
52.374 45.735 36.282
52.689 45.853 35.680
53.236 45.557 36.364
53.338 45.426 37.321
53.009 45.525 38.076
52.731 45.714 38.902
53.360 45.876 39.531
52.559 47.183 34.343
52.717 46.312 34.941
53.058 46.204 40.186
52.711 46.576 40.813
53.350 46.963 41.428
52.962 47.798 33.995
53.592 47.926 33.866
53.513 47.390 33.919
52.841 47.382 41.997
53.393 47.867 42.605
53.167 48.375 34.056
52.645 49.181 34.306
52.811 48.379 43.081
53.228 48.968 43.540
52.690 50.239 34.493
53.537 49.691 43.876
52.800 51.224 34.603
52.816 50.336 44.195
52.954 51.182 44.403
53.008 52.222 34.692
53.038 52.166 44.548
52.841 53.099 34.731
53.179 53.349 44.658
53.181 53.568 34.915
52.831 54.082 44.919
52.449 54.479 45.056
52.905 54.534 44.958
53.038 54.274 35.254
53.059 54.916 35.795
52.160 54.921 45.105
52.608 54.989 45.022
52.561 55.490 36.064
52.774 55.866 36.586
52.636 56.457 44.575
52.425 55.949 44.894
52.723 55.622 44.837
52.457 56.414 36.882
52.651 56.871 37.447
52.607 57.523 44.180
52.666 57.436 37.978
52.423 58.237 38.371
52.730 58.494 39.159
52.919 57.695 38.620
53.065 58.022 39.299
52.671 58.410 43.787
53.033 57.895 43.666
53.049 58.450 43.326
52.352 59.148 39.145
52.944 58.568 39.734
52.686 59.179 40.016
52.987 58.827 40.293
52.770 59.076 43.176
53.135 58.695 42.814
52.981 59.149 42.435
52.294 59.004 43.798
52.318 59.820 40.047
52.874 59.237 40.792
52.530 59.800 41.109
52.567 59.715 42.408
52.928 59.283 41.630
52.289 59.606 43.324
53.430 45.845 35.339
54.406 45.552 35.942
54.120 45.373 37.047
53.934 45.411 37.953
53.682 45.607 38.789
54.300 45.878 39.454
53.581 46.648 34.283
53.458 46.157 34.745
53.922 46.150 40.050
53.871 46.578 40.745
54.221 47.055 41.382
54.422 47.723 33.804
54.211 47.103 33.870
54.015 47.474 42.019
54.297 48.013 42.627
54.092 48.326 34.028
53.554 49.642 34.639
53.723 48.906 34.334
54.318 49.253 34.773
53.809 48.417 43.103
54.139 49.099 43.447
53.549 50.512 34.825
54.481 49.963 35.282
54.416 50.034 43.661
53.618 51.414 34.893
54.159 50.863 35.201
53.698 50.534 44.128
53.779 51.463 44.283
53.755 52.103 34.930
54.329 51.802 35.339
53.852 52.439 44.357
53.600 52.813 34.908
54.039 52.395 35.079
53.970 53.230 44.305
53.757 53.391 35.062
53.528 53.780 35.086
53.871 53.783 35.358
53.310 54.296 44.706
53.831 53.996 44.331
53.455 55.252 36.479
53.780 54.433 35.863
53.983 55.422 37.295
54.415 54.500 36.693
54.465 55.033 37.528
53.697 54.996 44.224
54.135 54.529 43.895
54.096 55.204 43.625
53.124 55.025 44.750
53.213 56.106 37.241
54.248 55.519 37.903
53.782 56.153 38.093
54.213 55.798 38.418
53.783 56.123 43.483
54.200 55.574 43.075
54.093 56.157 42.646
53.241 55.868 44.345
53.135 56.880 38.048
53.981 56.285 38.839
53.487 57.128 39.089
53.690 57.291 40.323
54.001 56.512 39.649
53.801 57.219 41.408
54.079 56.554 40.697
53.791 56.985 42.525
54.119 56.413 41.774
53.584 57.029 43.237
53.223 56.993 43.829
53.259 58.125 40.090
53.468 58.012 41.124
53.565 57.787 42.012
53.372 57.858 42.959
53.146 58.743 40.975
53.261 58.575 42.004
54.253 46.036 34.785
55.105 46.151 34.475
55.307 45.751 35.203
55.425 45.510 36.154
55.074 45.417 36.978
54.698 45.392 37.746
54.699 45.591 38.633
55.060 45.943 39.355
54.625 46.593 34.114
55.069 47.195 33.811
55.634 46.616 34.137
54.895 46.440 40.147
54.726 46.940 40.955
55.470 47.299 40.757
55.527 47.778 33.802
54.907 47.532 41.587
54.721 47.846 42.220
54.856 48.236 42.556
55.106 48.231 34.076
54.701 48.729 34.487
55.207 49.116 35.242
54.584 48.583 42.972
54.841 49.312 43.146
55.299 49.617 35.923
55.033 50.149 35.942
55.411 50.012 36.368
55.031 50.074 43.176
54.780 50.853 35.788
55.225 50.508 36.323
54.313 50.933 43.951
54.891 51.003 43.418
54.907 51.686 35.963
54.470 51.899 43.906
54.956 51.994 43.345
54.273 52.938 35.367
54.825 52.421 35.841
54.830 53.161 35.962
55.097 52.823 36.278
54.768 52.879 43.446
55.118 52.519 42.907
55.049 53.287 42.645
54.341 52.809 44.035
54.413 53.765 35.871
55.076 53.312 36.437
54.828 53.718 36.323
54.994 53.821 36.918
54.754 53.900 43.006
54.962 53.988 42.309
54.369 53.720 43.808
54.568 55.217 38.306
54.816 54.501 37.589
54.676 55.240 39.277
54.943 54.560 38.518
54.710 55.223 40.306
54.985 54.592 39.536
54.723 55.050 41.363
54.989 54.535 40.581
54.735 54.627 42.314
54.983 54.320 41.563
54.426 54.743 43.185
54.326 55.831 39.064
54.382 55.886 40.002
54.418 55.811 41.068
54.413 55.518 42.231
55.701 46.067 34.616
56.048 45.885 35.065
56.097 45.700 35.810
56.081 45.676 36.937
55.528 45.625 38.020
55.448 45.823 38.880
55.954 46.044 38.722
56.009 47.318 33.853
56.488 46.900 34.218
56.287 46.300 34.630
55.712 46.322 39.467
55.701 46.806 40.109
55.999 47.307 40.242
56.367 47.820 33.853
55.577 48.168 41.431
56.045 48.144 40.623
55.190 48.215 42.111
56.063 48.139 34.082
55.808 48.489 34.734
56.025 48.706 35.568
55.917 49.004 41.308
56.181 49.057 40.709
55.545 48.953 42.023
55.128 48.776 42.622
55.789 49.107 35.977
55.630 50.431 36.930
55.875 49.530 36.648
56.034 49.920 37.378
56.065 49.645 41.093
56.022 50.276 41.041
55.753 50.050 41.812
55.338 49.603 42.632
55.270 51.285 36.577
55.631 51.308 37.462
55.914 50.610 37.720
55.858 51.635 40.300
56.098 50.881 39.759
55.959 51.411 39.446
55.810 51.140 41.288
56.083 50.637 40.429
55.593 51.076 42.129
55.366 50.579 42.701
55.172 52.220 36.441
55.422 52.164 37.256
55.833 51.266 38.095
55.638 52.106 38.279
55.710 52.251 39.479
55.901 51.439 38.755
55.621 52.526 40.453
55.617 52.191 41.216
55.558 51.790 41.924
55.298 51.676 42.702
55.244 53.031 36.969
55.392 53.036 37.986
55.461 53.099 39.060
55.455 53.170 40.129
55.417 53.051 41.109
55.342 52.634 42.087
55.154 53.819 37.758
55.225 53.868 38.761
55.238 53.900 39.817
55.221 53.820 40.848
55.179 53.574 41.796
56.624 46.070 35.364
56.766 45.964 36.283
56.858 46.178 37.189
57.202 46.314 36.590
56.363 46.119 38.016
56.713 47.466 34.009
56.983 47.139 34.421
56.894 46.624 34.853
57.239 46.598 37.116
57.263 47.099 37.158
56.906 47.006 37.958
56.366 46.756 39.013
56.096 46.901 39.764
56.848 47.827 34.003
56.931 47.988 37.359
57.288 47.402 36.667
57.019 47.901 36.370
56.818 48.074 38.365
56.644 47.788 39.056
56.330 47.567 39.805
56.654 48.039 34.047
56.622 48.135 34.513
56.444 48.635 36.420
56.689 48.160 35.459
56.403 49.142 37.386
56.628 48.926 38.211
56.598 48.832 39.031
56.393 48.713 39.931
56.256 49.951 38.129
56.432 49.649 38.814
56.321 49.888 39.644
56.220 49.730 40.489
56.027 50.791 38.329
56.163 50.602 38.980
57.186 46.475 35.764
57.079 47.573 34.359
57.244 47.111 35.083
57.398 46.911 35.777
57.388 46.822 36.443
56.958 47.924 34.273
57.084 47.747 34.869
57.274 47.416 35.814
3 2 1 0
3 0 3 2
3 6 5 4
3 6 4 1
3 4 0 1
3 4 7 0
3 3 0 8
3 8 0 7
3 4 5 9
3 9 5 10
3 4 11 7
3 4 9 11
3 8 7 12
3 12 7 11
3 15 14 13
3 17 16 13
3 13 16 15
3 16 17 10
3 17 9 10
3 17 18 9
3 20 11 19
3 11 18 19
3 11 9 18
3 11 20 12
3 13 14 21
3 21 14 22
3 24 17 23
3 17 21 23
3 17 13 21
3 17 24 18
3 18 24 25
3 18 25 19
3 22 26 21
3 21 26 23
3 29 28 27
3 31 30 27
3 27 30 29
3 33 32 31
3 31 32 30
3 35 34 33
3 33 34 32
3 35 36 34
3 27 28 37
3 37 28 38
3 27 39 31
3 27 37 39
3 31 40 33
3 31 39 40
3 33 41 35
3 33 40 41
3 36 35 42
3 35 43 42
3 35 41 43
3 45 44 43
3 43 44 42
3 45 46 44
3 37 38 47
3 47 38 48
3 37 49 39
3 37 47 49
3 39 50 40
3 39 49 50
3 40 51 41
3 40 50 51
3 41 52 43
3 41 51 52
3 43 53 45
3 43 52 53
3 46 45 54
3 45 55 54
3 45 53 55
3 55 56 54
3 59 58 57
3 59 57 48
3 57 47 48
3 57 60 47
3 47 61 49
3 47 60 61
3 49 62 50
3 49 61 62
3 50 63 51
3 50 62 63
3 63 1 2
3 52 63 2
3 51 63 52
3 52 2 3
3 64 52 3
3 53 52 64
3 53 65 55
3 53 64 65
3 56 55 66
3 55 67 66
3 55 65 67
3 67 68 66
3 58 69 57
3 71 70 69
3 70 57 69
3 70 60 57
3 60 72 61
3 60 70 72
3 61 73 62
3 61 72 73
3 73 5 6
3 63 73 6
3 62 73 63
3 63 6 1
3 8 74 64
3 8 64 3
3 64 75 65
3 64 74 75
3 65 76 67
3 65 75 76
3 68 67 77
3 77 67 76
3 70 71 78
3 78 71 79
3 70 80 72
3 70 78 80
3 72 81 73
3 72 80 81
3 81 10 5
3 81 5 73
3 12 82 74
3 12 74 8
3 74 83 75
3 74 82 83
3 75 84 76
3 75 83 84
3 77 76 85
3 85 76 84
3 78 79 86
3 86 79 87
3 86 14 15
3 80 86 15
3 78 86 80
3 80 15 16
3 80 16 81
3 81 16 10
3 19 88 20
3 82 12 20
3 88 82 20
3 89 82 88
3 82 90 83
3 82 89 90
3 83 91 84
3 83 90 91
3 85 84 92
3 92 84 91
3 86 87 93
3 93 87 94
3 93 22 14
3 93 14 86
3 23 95 24
3 96 25 24
3 96 24 95
3 88 19 25
3 96 88 25
3 97 88 96
3 88 98 89
3 88 97 98
3 89 99 90
3 89 98 99
3 101 91 100
3 91 99 100
3 91 90 99
3 91 101 92
3 94 102 93
3 102 104 103
3 102 103 26
3 93 102 26
3 22 93 26
3 95 23 26
3 103 95 26
3 105 95 103
3 95 106 96
3 95 105 106
3 96 107 97
3 96 106 107
3 97 108 98
3 97 107 108
3 98 109 99
3 98 108 109
3 100 99 110
3 110 99 109
3 103 104 111
3 111 104 112
3 103 113 105
3 103 111 113
3 105 114 106
3 105 113 114
3 106 115 107
3 106 114 115
3 117 108 116
3 108 115 116
3 108 107 115
3 108 117 109
3 109 117 118
3 109 118 110
3 112 119 111
3 121 120 119
3 120 111 119
3 120 113 111
3 123 114 122
3 114 120 122
3 114 113 120
3 114 123 115
3 115 123 124
3 115 124 116
3 121 125 120
3 120 125 122
3 128 127 126
3 130 129 126
3 126 129 128
3 132 131 130
3 130 131 129
3 134 133 132
3 132 133 131
3 134 135 133
3 138 137 136
3 28 29 136
3 29 138 136
3 29 139 138
3 30 126 127
3 139 30 127
3 29 30 139
3 126 30 32
3 126 32 130
3 130 32 34
3 130 34 132
3 132 34 36
3 140 132 36
3 134 132 140
3 135 134 141
3 134 142 141
3 134 140 142
3 144 143 142
3 142 143 141
3 144 145 143
3 136 137 146
3 146 137 147
3 146 38 28
3 146 28 136
3 42 140 36
3 140 42 44
3 140 44 142
3 142 44 46
3 148 142 46
3 144 142 148
3 145 144 149
3 144 150 149
3 144 148 150
3 150 151 149
3 146 147 152
3 152 147 153
3 152 48 38
3 152 38 146
3 54 148 46
3 148 54 56
3 154 148 56
3 150 148 154
3 151 150 155
3 155 150 154
3 152 153 59
3 153 58 59
3 153 156 58
3 152 59 48
3 66 154 56
3 66 68 154
3 68 155 154
3 68 157 155
3 69 58 158
3 58 159 158
3 58 156 159
3 158 71 69
3 77 157 68
3 77 160 157
3 158 159 161
3 161 159 162
3 161 79 71
3 161 71 158
3 85 160 77
3 85 163 160
3 166 165 164
3 166 164 162
3 164 161 162
3 164 167 161
3 167 87 79
3 167 79 161
3 92 163 85
3 92 168 163
3 164 165 169
3 169 165 170
3 164 171 167
3 164 169 171
3 171 94 87
3 171 87 167
3 100 172 101
3 172 173 101
3 173 92 101
3 173 168 92
3 169 170 174
3 174 170 175
3 169 176 171
3 169 174 176
3 177 102 94
3 171 177 94
3 176 177 171
3 177 104 102
3 110 178 172
3 110 172 100
3 173 172 179
3 179 172 178
3 175 180 174
3 182 181 180
3 181 174 180
3 181 176 174
3 176 183 177
3 176 181 183
3 183 112 104
3 183 104 177
3 116 184 117
3 117 184 185
3 186 117 185
3 118 117 186
3 110 118 178
3 118 187 178
3 118 186 187
3 178 187 179
3 182 188 181
3 190 189 188
3 189 181 188
3 189 183 181
3 191 119 112
3 183 191 112
3 189 191 183
3 191 121 119
3 122 192 123
3 123 192 193
3 194 123 193
3 124 123 194
3 116 124 184
3 124 195 184
3 124 194 195
3 184 195 185
3 190 196 189
3 198 197 196
3 197 189 196
3 197 191 189
3 191 197 121
3 197 199 121
3 199 125 121
3 197 200 199
3 122 125 192
3 125 201 192
3 125 199 201
3 192 201 193
3 198 202 197
3 197 202 200
3 205 204 203
3 203 206 205
3 209 208 207
3 211 210 207
3 207 210 209
3 210 211 204
3 211 203 204
3 211 212 203
3 206 203 213
3 203 214 213
3 203 212 214
3 216 215 214
3 214 215 213
3 216 217 215
3 220 219 218
3 220 218 208
3 208 218 207
3 218 127 207
3 127 128 207
3 207 128 129
3 207 129 211
3 211 129 131
3 211 131 212
3 212 131 133
3 212 133 214
3 214 133 135
3 221 214 135
3 216 214 221
3 217 216 222
3 216 223 222
3 216 221 223
3 223 224 222
3 226 225 138
3 138 225 137
3 139 218 219
3 226 139 219
3 138 139 226
3 218 139 127
3 141 221 135
3 221 141 143
3 221 143 223
3 228 227 145
3 145 227 143
3 227 224 143
3 224 223 143
3 228 229 227
3 225 147 137
3 230 147 225
3 149 228 145
3 149 151 228
3 151 229 228
3 151 231 229
3 230 153 147
3 232 153 230
3 155 231 151
3 155 233 231
3 232 156 153
3 234 156 232
3 157 236 235
3 233 157 235
3 155 157 233
3 236 237 235
3 234 159 156
3 238 159 234
3 160 239 236
3 160 236 157
3 237 236 240
3 240 236 239
3 238 162 159
3 241 162 238
3 163 242 239
3 163 239 160
3 240 239 243
3 243 239 242
3 244 165 166
3 245 244 166
3 162 245 166
3 241 245 162
3 247 246 242
3 163 247 242
3 168 247 163
3 242 246 243
3 248 170 244
3 244 170 165
3 244 245 249
3 244 249 248
3 173 247 168
3 173 250 247
3 251 175 248
3 248 175 170
3 248 249 252
3 248 252 251
3 179 250 173
3 179 253 250
3 251 180 175
3 182 180 251
3 252 182 251
3 254 182 252
3 185 255 186
3 186 255 256
3 257 186 256
3 187 186 257
3 179 187 253
3 253 187 257
3 188 182 258
3 182 259 258
3 182 254 259
3 258 190 188
3 193 260 194
3 194 260 261
3 262 194 261
3 195 194 262
3 185 195 255
3 195 263 255
3 195 262 263
3 255 263 256
3 259 264 258
3 258 264 190
3 264 196 190
3 264 265 196
3 198 196 265
3 198 265 266
3 268 267 199
3 268 199 200
3 199 269 201
3 267 269 199
3 193 201 260
3 201 270 260
3 201 269 270
3 260 270 261
3 266 271 198
3 198 271 202
3 200 202 268
3 268 202 271
3 274 273 272
3 276 275 272
3 272 275 274
3 278 277 276
3 276 277 275
3 280 279 278
3 278 279 277
3 282 281 280
3 280 281 279
3 282 283 281
3 273 284 272
3 286 285 284
3 285 272 284
3 285 276 272
3 276 287 278
3 276 285 287
3 287 204 205
3 280 287 205
3 278 287 280
3 280 205 206
3 288 280 206
3 282 280 288
3 283 282 289
3 282 290 289
3 282 288 290
3 290 291 289
3 285 286 209
3 286 208 209
3 286 292 208
3 285 209 210
3 285 210 287
3 287 210 204
3 213 288 206
3 288 213 215
3 288 215 290
3 294 293 217
3 217 293 215
3 293 291 215
3 291 290 215
3 294 295 293
3 298 297 296
3 219 220 296
3 220 298 296
3 220 299 298
3 220 208 292
3 220 292 299
3 222 294 217
3 301 300 224
3 224 300 222
3 300 295 222
3 295 294 222
3 301 302 300
3 296 297 226
3 297 225 226
3 297 303 225
3 296 226 219
3 227 301 224
3 227 229 301
3 229 302 301
3 229 304 302
3 303 230 225
3 305 230 303
3 231 307 306
3 304 231 306
3 229 231 304
3 307 308 306
3 305 232 230
3 309 232 305
3 233 310 307
3 233 307 231
3 308 307 311
3 311 307 310
3 309 234 232
3 312 234 309
3 235 310 233
3 235 237 310
3 237 311 310
3 237 313 311
3 315 238 314
3 238 312 314
3 238 234 312
3 316 315 314
3 240 313 237
3 240 317 313
3 318 241 315
3 315 241 238
3 315 316 319
3 315 319 318
3 243 317 240
3 243 320 317
3 321 245 318
3 318 245 241
3 318 319 322
3 318 322 321
3 324 323 246
3 324 246 247
3 243 246 320
3 320 246 323
3 325 249 321
3 321 249 245
3 321 322 326
3 321 326 325
3 250 324 247
3 250 327 324
3 329 328 325
3 328 249 325
3 328 252 249
3 329 325 326
3 253 327 250
3 253 330 327
3 328 254 252
3 331 254 328
3 333 332 257
3 333 257 256
3 253 257 330
3 330 257 332
3 335 259 334
3 259 331 334
3 259 254 331
3 336 335 334
3 261 337 262
3 262 337 338
3 339 262 338
3 263 262 339
3 256 263 333
3 333 263 339
3 335 264 259
3 336 340 335
3 340 264 335
3 340 265 264
3 342 341 266
3 265 342 266
3 340 342 265
3 267 268 341
3 342 267 341
3 343 267 342
3 343 345 344
3 269 343 344
3 267 343 269
3 269 344 346
3 347 269 346
3 270 269 347
3 261 270 337
3 270 348 337
3 270 347 348
3 337 348 338
3 341 271 266
3 271 341 268
3 345 349 344
3 344 349 346
3 352 351 350
3 354 353 350
3 350 353 352
3 356 355 354
3 354 355 353
3 358 357 356
3 356 357 355
3 358 359 357
3 362 361 360
3 273 274 360
3 274 362 360
3 274 363 362
3 275 350 351
3 363 275 351
3 274 275 363
3 350 275 277
3 350 277 354
3 354 277 279
3 354 279 356
3 356 279 281
3 356 281 358
3 365 364 283
3 283 364 281
3 364 359 281
3 359 358 281
3 365 366 364
3 360 361 367
3 367 361 368
3 369 284 273
3 360 369 273
3 367 369 360
3 369 286 284
3 289 365 283
3 371 370 291
3 291 370 289
3 370 366 289
3 366 365 289
3 371 372 370
3 368 373 367
3 375 374 373
3 374 367 373
3 374 369 367
3 374 292 286
3 374 286 369
3 293 371 291
3 377 376 295
3 295 376 293
3 376 372 293
3 372 371 293
3 377 378 376
3 380 379 298
3 298 379 297
3 299 374 375
3 380 299 375
3 298 299 380
3 374 299 292
3 300 377 295
3 300 302 377
3 302 378 377
3 302 381 378
3 379 303 297
3 382 303 379
3 304 384 383
3 381 304 383
3 302 304 381
3 384 385 383
3 382 305 303
3 386 305 382
3 306 384 304
3 306 308 384
3 308 385 384
3 308 387 385
3 386 309 305
3 388 309 386
3 311 387 308
3 311 389 387
3 388 312 309
3 390 312 388
3 313 389 311
3 313 391 389
3 390 392 312
3 312 392 314
3 316 314 392
3 316 392 393
3 317 391 313
3 317 394 391
3 393 319 316
3 395 319 393
3 320 394 317
3 320 396 394
3 395 322 319
3 397 322 395
3 324 398 323
3 398 399 323
3 399 320 323
3 399 396 320
3 397 326 322
3 400 326 397
3 402 401 398
3 324 402 398
3 327 402 324
3 398 401 399
3 403 328 329
3 404 403 329
3 326 404 329
3 400 404 326
3 330 402 327
3 330 405 402
3 406 331 403
3 403 331 328
3 403 404 407
3 408 403 407
3 406 403 408
3 410 409 408
3 410 408 407
3 411 409 410
3 413 412 332
3 413 332 333
3 330 332 405
3 405 332 412
3 406 334 331
3 334 406 336
3 406 414 336
3 406 408 414
3 415 408 409
3 414 408 415
3 409 411 416
3 409 416 415
3 418 417 339
3 418 339 338
3 333 339 413
3 413 339 417
3 414 340 336
3 340 414 342
3 342 414 415
3 416 419 415
3 419 342 415
3 419 343 342
3 421 420 345
3 343 421 345
3 419 421 343
3 347 346 420
3 421 347 420
3 422 347 421
3 347 423 348
3 422 423 347
3 338 348 418
3 418 348 423
3 420 349 345
3 349 420 346
3 426 425 424
3 424 427 426
3 430 429 428
3 351 352 428
3 352 430 428
3 352 431 430
3 432 352 353
3 432 431 352
3 355 424 425
3 432 355 425
3 353 355 432
3 433 427 424
3 355 433 424
3 357 433 355
3 357 359 433
3 433 359 434
3 436 435 362
3 362 435 361
3 363 428 429
3 436 363 429
3 362 363 436
3 428 363 351
3 437 434 359
3 437 359 364
3 439 438 366
3 438 364 366
3 438 437 364
3 439 440 438
3 443 442 441
3 435 443 441
3 368 435 441
3 361 435 368
3 370 439 366
3 445 444 372
3 372 444 370
3 444 440 370
3 440 439 370
3 445 446 444
3 442 447 441
3 447 449 448
3 447 448 373
3 441 447 373
3 368 441 373
3 448 375 373
3 376 445 372
3 376 378 445
3 378 446 445
3 378 450 446
3 448 449 380
3 449 379 380
3 449 451 379
3 448 380 375
3 381 453 452
3 450 381 452
3 378 381 450
3 453 454 452
3 451 382 379
3 455 382 451
3 383 453 381
3 383 385 453
3 385 454 453
3 385 456 454
3 455 386 382
3 457 386 455
3 387 456 385
3 387 458 456
3 460 388 459
3 388 457 459
3 388 386 457
3 461 460 459
3 389 458 387
3 389 462 458
3 464 463 460
3 463 388 460
3 463 390 388
3 464 460 461
3 391 462 389
3 391 465 462
3 463 466 390
3 390 466 392
3 393 392 466
3 393 466 467
3 394 469 468
3 465 394 468
3 391 394 465
3 469 470 468
3 472 395 471
3 395 467 471
3 395 393 467
3 473 472 471
3 475 474 469
3 394 475 469
3 396 475 394
3 469 474 470
3 476 397 472
3 472 397 395
3 472 473 477
3 472 477 476
3 399 475 396
3 399 478 475
3 479 400 476
3 476 400 397
3 476 477 480
3 476 480 479
3 402 481 401
3 481 482 401
3 482 399 401
3 482 478 399
3 483 404 479
3 479 404 400
3 479 480 484
3 485 479 484
3 483 479 485
3 486 485 484
3 488 487 481
3 402 488 481
3 405 488 402
3 481 487 482
3 483 407 404
3 407 483 410
3 410 483 485
3 490 489 411
3 490 411 410
3 486 490 410
3 485 486 410
3 491 489 490
3 493 492 412
3 493 412 413
3 405 412 488
3 488 412 492
3 494 416 489
3 489 416 411
3 489 491 495
3 496 489 495
3 494 489 496
3 498 497 496
3 498 496 495
3 500 499 497
3 500 497 498
3 417 418 499
3 500 417 499
3 501 417 500
3 413 417 493
3 493 417 501
3 494 419 416
3 419 494 421
3 421 494 496
3 421 496 422
3 422 496 497
3 422 497 423
3 423 497 499
3 423 499 418
3 504 503 502
3 506 505 502
3 502 505 504
3 425 426 506
3 426 505 506
3 426 507 505
3 426 427 507
3 507 427 508
3 511 510 509
3 429 430 509
3 430 511 509
3 430 512 511
3 431 502 503
3 512 431 503
3 430 431 512
3 502 431 432
3 502 432 506
3 506 432 425
3 513 508 427
3 513 427 433
3 515 514 434
3 514 433 434
3 514 513 433
3 515 516 514
3 509 510 436
3 510 435 436
3 510 517 435
3 509 436 429
3 437 515 434
3 518 516 515
3 437 518 515
3 438 518 437
3 438 440 518
3 518 440 519
3 520 442 443
3 521 520 443
3 435 521 443
3 517 521 435
3 522 519 440
3 522 440 444
3 444 446 522
3 522 446 523
3 520 447 442
3 449 447 520
3 521 449 520
3 524 449 521
3 450 523 446
3 450 525 523
3 524 451 449
3 526 451 524
3 527 525 450
3 527 450 452
3 452 454 527
3 527 454 528
3 526 455 451
3 529 455 526
3 456 528 454
3 456 530 528
3 529 457 455
3 531 457 529
3 458 530 456
3 458 532 530
3 459 457 533
3 457 534 533
3 457 531 534
3 533 461 459
3 462 532 458
3 462 535 532
3 537 536 534
3 536 463 534
3 464 533 534
3 464 534 463
3 464 461 533
3 536 537 538
3 465 535 462
3 465 539 535
3 536 466 463
3 541 540 467
3 541 467 466
3 538 541 466
3 536 538 466
3 542 540 541
3 543 539 465
3 543 465 468
3 468 470 543
3 543 470 544
3 540 471 467
3 546 545 473
3 546 473 471
3 542 546 471
3 540 542 471
3 547 545 546
3 549 548 474
3 549 474 475
3 470 474 544
3 544 474 548
3 550 477 545
3 545 477 473
3 545 547 551
3 545 551 550
3 478 549 475
3 478 552 549
3 553 480 550
3 550 480 477
3 550 551 554
3 555 550 554
3 553 550 555
3 556 555 554
3 482 552 478
3 482 557 552
3 553 484 480
3 484 553 486
3 553 558 486
3 553 555 558
3 555 556 559
3 560 555 559
3 558 555 560
3 561 560 559
3 563 562 487
3 563 487 488
3 482 487 557
3 557 487 562
3 558 490 486
3 490 558 491
3 558 564 491
3 558 560 564
3 560 561 565
3 566 560 565
3 564 560 566
3 568 567 566
3 568 566 565
3 570 569 567
3 570 567 568
3 492 493 569
3 570 492 569
3 571 492 570
3 488 492 563
3 563 492 571
3 564 495 491
3 495 564 498
3 498 564 566
3 498 566 500
3 500 566 567
3 500 567 501
3 501 567 569
3 501 569 493
3 574 573 572
3 503 504 572
3 504 574 572
3 504 575 574
3 576 504 505
3 576 575 504
3 577 505 507
3 577 576 505
3 507 508 577
3 577 508 578
3 580 579 511
3 511 579 510
3 512 572 573
3 580 512 573
3 511 512 580
3 572 512 503
3 581 578 508
3 581 508 513
3 582 513 514
3 582 581 513
3 514 516 582
3 582 516 583
3 586 585 584
3 579 586 584
3 517 579 584
3 510 579 517
3 587 583 516
3 587 516 518
3 518 519 587
3 587 519 588
3 585 589 584
3 517 584 589
3 590 517 589
3 521 517 590
3 591 588 519
3 591 519 522
3 522 523 591
3 591 523 592
3 590 524 521
3 593 524 590
3 525 592 523
3 525 594 592
3 593 526 524
3 595 526 593
3 596 594 525
3 596 525 527
3 527 528 596
3 596 528 597
3 595 529 526
3 598 529 595
3 530 597 528
3 530 599 597
3 598 531 529
3 600 531 598
3 532 599 530
3 532 601 599
3 600 534 531
3 602 534 600
3 535 604 603
3 601 535 603
3 532 535 601
3 604 605 603
3 602 606 534
3 534 606 537
3 538 537 606
3 538 606 607
3 539 608 604
3 539 604 535
3 605 604 609
3 609 604 608
3 607 610 538
3 538 610 541
3 542 541 610
3 542 610 611
3 608 539 543
3 614 613 612
3 613 614 544
3 614 609 544
3 608 543 544
3 608 544 609
3 611 615 542
3 542 615 546
3 547 546 615
3 547 615 616
3 612 613 548
3 549 612 548
3 617 612 549
3 548 613 544
3 619 551 618
3 551 616 618
3 551 547 616
3 621 620 619
3 621 619 618
3 622 620 621
3 625 624 623
3 624 617 623
3 617 552 623
3 617 549 552
3 619 554 551
3 554 619 556
3 619 626 556
3 619 620 626
3 620 622 627
3 628 620 627
3 626 620 628
3 629 628 627
3 632 631 630
3 630 631 625
3 623 630 625
3 633 630 623
3 557 633 552
3 552 633 623
3 626 559 556
3 559 626 561
3 626 634 561
3 626 628 634
3 628 629 635
3 636 628 635
3 634 628 636
3 638 637 636
3 638 636 635
3 637 638 632
3 630 637 632
3 639 637 630
3 563 639 562
3 639 633 562
3 639 630 633
3 562 633 557
3 634 565 561
3 565 634 568
3 568 634 636
3 568 636 570
3 570 636 637
3 570 637 571
3 571 637 639
3 571 639 563
3 641 640 574
3 574 640 573
3 642 574 575
3 642 641 574
3 643 575 576
3 643 642 575
3 644 576 577
3 644 643 576
3 577 578 644
3 644 578 645
3 647 646 580
3 580 646 579
3 580 573 640
3 580 640 647
3 648 645 578
3 648 578 581
3 649 581 582
3 649 648 581
3 582 583 649
3 649 583 650
3 652 651 586
3 586 651 585
3 586 579 646
3 586 646 652
3 653 650 583
3 653 583 587
3 587 588 653
3 653 588 654
3 651 655 585
3 585 655 589
3 657 656 590
3 589 657 590
3 655 657 589
3 658 656 657
3 659 654 588
3 659 588 591
3 591 592 659
3 659 592 660
3 661 593 656
3 656 593 590
3 656 658 662
3 656 662 661
3 594 660 592
3 594 663 660
3 664 595 661
3 661 595 593
3 661 662 665
3 661 665 664
3 666 663 594
3 666 594 596
3 596 597 666
3 666 597 667
3 668 598 664
3 664 598 595
3 664 665 669
3 664 669 668
3 599 667 597
3 599 670 667
3 672 671 668
3 671 598 668
3 671 600 598
3 672 668 669
3 601 670 599
3 601 673 670
3 675 602 674
3 602 671 674
3 602 600 671
3 676 675 674
3 601 603 677
3 678 601 677
3 673 601 678
3 605 677 603
3 675 606 602
3 680 679 607
3 680 607 606
3 676 680 606
3 675 676 606
3 682 681 679
3 682 679 680
3 683 681 682
3 686 685 684
3 684 685 678
3 677 684 678
3 687 684 677
3 609 687 605
3 605 687 677
3 679 610 607
3 610 679 611
3 679 688 611
3 679 681 688
3 681 683 689
3 690 681 689
3 688 681 690
3 691 690 689
3 694 693 692
3 692 693 686
3 684 692 686
3 695 692 684
3 612 695 614
3 695 687 614
3 695 684 687
3 614 687 609
3 688 615 611
3 615 688 616
3 688 696 616
3 688 690 696
3 690 691 697
3 698 690 697
3 696 690 698
3 700 699 698
3 700 698 697
3 702 701 699
3 702 699 700
3 704 703 701
3 704 701 702
3 703 704 694
3 692 703 694
3 705 703 692
3 706 692 695
3 705 692 706
3 617 706 612
3 612 706 695
3 696 618 616
3 618 696 621
3 621 696 698
3 621 698 622
3 698 707 622
3 698 699 707
3 708 699 701
3 707 699 708
3 709 701 703
3 708 701 709
3 710 703 705
3 709 703 710
3 625 710 624
3 710 706 624
3 710 705 706
3 624 706 617
3 707 627 622
3 627 707 629
3 707 711 629
3 707 708 711
3 712 708 709
3 711 708 712
3 632 712 631
3 712 710 631
3 712 709 710
3 631 710 625
3 711 635 629
3 635 711 638
3 638 711 712
3 638 712 632
3 715 714 713
3 640 641 713
3 641 715 713
3 641 716 715
3 717 641 642
3 717 716 641
3 718 642 643
3 718 717 642
3 719 643 644
3 719 718 643
3 644 645 719
3 719 645 720
3 723 722 721
3 723 721 714
3 714 721 713
3 721 646 713
3 646 647 713
3 713 647 640
3 724 720 645
3 724 645 648
3 726 724 725
3 724 649 725
3 724 648 649
3 650 725 649
3 721 722 652
3 722 651 652
3 722 727 651
3 721 652 646
3 728 726 725
3 728 725 650
3 653 728 650
3 729 728 653
3 653 654 729
3 729 654 730
3 727 731 651
3 651 731 655
3 655 732 657
3 731 732 655
3 658 657 732
3 658 732 733
3 734 730 654
3 734 654 659
3 659 660 734
3 734 660 735
3 737 662 736
3 662 733 736
3 662 658 733
3 738 737 736
3 663 735 660
3 663 739 735
3 741 740 737
3 740 662 737
3 740 665 662
3 741 737 738
3 663 666 742
3 743 663 742
3 739 663 743
3 667 742 666
3 740 669 665
3 744 669 740
3 743 742 745
3 743 745 746
3 670 745 667
3 667 745 742
3 747 671 672
3 669 744 748
3 747 669 748
3 749 747 748
3 672 669 747
3 750 749 748
3 753 752 751
3 751 752 746
3 745 751 746
3 754 751 745
3 673 754 670
3 670 754 745
3 747 674 671
3 674 747 676
3 747 755 676
3 747 749 755
3 749 750 756
3 757 749 756
3 755 749 757
3 758 757 756
3 753 751 759
3 753 759 760
3 761 751 754
3 759 751 761
3 678 761 673
3 673 761 754
3 755 680 676
3 680 755 682
3 682 755 757
3 763 762 683
3 763 683 682
3 758 763 682
3 757 758 682
3 765 764 762
3 765 762 763
3 767 766 764
3 767 764 765
3 769 768 766
3 769 766 767
3 771 770 768
3 771 768 769
3 770 771 760
3 759 770 760
3 772 770 759
3 686 772 685
3 772 761 685
3 772 759 761
3 685 761 678
3 762 689 683
3 689 762 691
3 762 773 691
3 762 764 773
3 774 764 766
3 773 764 774
3 775 766 768
3 774 766 775
3 776 768 770
3 775 768 776
3 694 776 693
3 776 772 693
3 776 770 772
3 693 772 686
3 773 697 691
3 697 773 700
3 700 773 774
3 700 774 702
3 702 774 775
3 702 775 704
3 704 775 776
3 704 776 694
3 777 714 715
3 777 715 778
3 715 779 778
3 715 716 779
3 780 716 717
3 780 779 716
3 781 717 718
3 781 780 717
3 783 781 782
3 781 719 782
3 781 718 719
3 720 782 719
3 785 784 723
3 723 784 722
3 723 714 777
3 786 723 777
3 785 723 786
3 786 777 778
3 787 783 782
3 787 782 720
3 724 787 720
3 788 787 724
3 724 726 788
3 788 726 789
3 784 727 722
3 790 727 784
3 726 728 791
3 792 726 791
3 789 726 792
3 729 793 728
3 728 793 791
3 730 793 729
3 790 794 727
3 727 794 731
3 731 795 732
3 794 795 731
3 733 732 795
3 733 795 796
3 792 791 797
3 792 797 798
3 799 791 793
3 797 791 799
3 734 800 730
3 800 793 730
3 800 799 793
3 735 800 734
3 796 801 733
3 733 801 736
3 803 802 738
3 736 803 738
3 801 803 736
3 804 802 803
3 805 798 797
3 807 806 805
3 797 807 805
3 799 807 797
3 808 799 800
3 807 799 808
3 739 808 735
3 735 808 800
3 809 740 741
3 738 802 741
3 802 809 741
3 802 810 809
3 802 804 811
3 802 811 810
3 814 813 812
3 816 815 812
3 816 812 813
3 815 816 806
3 807 815 806
3 817 815 807
3 818 807 808
3 817 807 818
3 743 818 739
3 739 818 808
3 819 744 809
3 809 744 740
3 820 809 810
3 819 809 820
3 810 811 821
3 822 810 821
3 820 810 822
3 824 823 822
3 824 822 821
3 823 824 814
3 812 823 814
3 825 823 812
3 826 812 815
3 825 812 826
3 827 815 817
3 826 815 827
3 828 817 818
3 827 817 828
3 746 828 743
3 743 828 818
3 819 748 744
3 748 819 750
3 819 829 750
3 819 820 829
3 830 820 822
3 829 820 830
3 831 822 823
3 830 822 831
3 832 823 825
3 831 823 832
3 833 825 826
3 832 825 833
3 834 826 827
3 833 826 834
3 753 834 752
3 834 828 752
3 834 827 828
3 752 828 746
3 829 756 750
3 756 829 758
3 829 835 758
3 829 830 835
3 836 830 831
3 835 830 836
3 837 831 832
3 836 831 837
3 838 832 833
3 837 832 838
3 839 833 834
3 838 833 839
3 760 839 753
3 753 839 834
3 835 763 758
3 763 835 765
3 765 835 836
3 765 836 767
3 767 836 837
3 767 837 769
3 769 837 838
3 769 838 771
3 771 838 839
3 771 839 760
3 841 840 779
3 779 840 778
3 843 841 842
3 841 780 842
3 841 779 780
3 781 844 780
3 780 844 842
3 783 844 781
3 846 845 785
3 785 845 784
3 847 785 786
3 847 846 785
3 786 778 840
3 786 840 847
3 848 843 842
3 850 849 848
3 842 850 848
3 844 850 842
3 787 851 783
3 851 844 783
3 851 850 844
3 788 852 787
3 787 852 851
3 789 852 788
3 845 790 784
3 853 790 845
3 856 855 854
3 854 855 849
3 850 854 849
3 857 854 850
3 858 850 851
3 857 850 858
3 859 851 852
3 858 851 859
3 792 859 789
3 789 859 852
3 853 860 790
3 790 860 794
3 794 861 795
3 860 861 794
3 863 862 796
3 795 863 796
3 861 863 795
3 862 863 856
3 854 862 856
3 864 862 854
3 865 854 857
3 864 854 865
3 866 857 858
3 865 857 866
3 867 858 859
3 866 858 867
3 798 867 792
3 792 867 859
3 862 801 796
3 801 862 803
3 803 862 864
3 803 864 804
3 864 868 804
3 864 865 868
3 869 865 866
3 868 865 869
3 870 866 867
3 869 866 870
3 805 871 798
3 871 867 798
3 871 870 867
3 806 871 805
3 872 811 868
3 868 811 804
3 873 868 869
3 872 868 873
3 814 873 813
3 873 870 813
3 873 869 870
3 813 870 816
3 816 870 871
3 816 871 806
3 872 821 811
3 821 872 824
3 824 872 873
3 824 873 814
3 874 840 841
3 843 874 841
3 875 845 846
3 847 876 846
3 846 876 875
3 840 874 847
3 874 876 847
3 874 877 876
3 848 878 843
3 878 874 843
3 878 877 874
3 849 878 848
3 879 853 875
3 875 853 845
3 880 875 876
3 879 875 880
3 881 876 877
3 880 876 881
3 856 881 855
3 881 878 855
3 881 877 878
3 855 878 849
3 879 860 853
3 860 879 861
3 861 879 880
3 861 880 863
3 863 880 881
3 863 881 856
