ply
format ascii 1.0
comment None
element vertex 792
property float x
property float y
property float z
element face 1592
property list uchar int vertex_indices
end_header
44.692 52.383 31.339
44.867 52.205 30.417
45.354 51.767 30.877
45.097 51.837 32.064
44.622 52.440 32.477
44.963 52.018 33.010
44.671 52.512 33.215
44.949 52.298 33.576
44.726 52.727 30.441
45.011 52.602 29.766
44.861 52.353 30.013
44.541 53.037 31.253
44.500 53.059 32.063
44.613 53.104 32.991
44.890 52.877 33.676
45.082 53.278 29.926
44.775 53.569 30.857
45.031 53.786 30.382
44.579 53.583 31.684
44.704 53.925 32.540
45.075 53.862 33.614
45.135 54.320 30.826
44.879 54.325 31.669
45.151 54.749 31.378
44.978 54.757 32.406
45.029 54.642 33.029
45.272 55.202 31.828
45.284 52.147 29.830
45.882 52.137 29.275
46.115 51.672 30.061
46.191 51.347 30.997
45.937 51.351 31.847
45.693 51.516 32.828
45.481 51.874 33.575
45.367 52.417 33.984
46.008 51.953 34.023
46.118 52.931 28.384
46.462 53.360 27.963
46.611 52.770 28.117
46.227 52.432 28.676
45.580 52.791 29.118
45.422 53.146 34.144
46.093 52.536 34.331
46.001 53.518 28.577
45.588 53.684 29.338
45.326 54.010 30.056
45.706 54.350 29.702
45.530 53.718 34.191
46.208 53.445 34.475
45.571 54.693 30.365
45.431 55.022 31.083
45.780 55.302 30.662
45.355 55.478 32.726
45.469 54.967 33.548
45.816 54.314 34.156
45.698 55.698 31.281
45.624 56.099 31.982
45.965 56.470 31.306
45.707 56.419 32.633
45.803 55.920 33.337
45.873 57.097 31.923
46.117 57.119 31.246
45.885 57.042 32.618
45.955 56.646 33.093
46.068 57.745 31.352
46.370 58.105 30.882
46.325 57.450 30.915
45.892 58.035 31.806
45.952 57.675 32.403
46.010 58.613 31.324
46.400 58.944 30.836
45.862 58.703 31.803
45.927 58.356 32.208
46.059 59.377 31.140
46.436 59.916 30.787
45.897 59.368 31.602
46.030 60.021 31.296
46.588 51.955 29.235
47.167 51.565 30.063
46.842 51.303 30.743
47.029 51.079 31.710
46.693 51.109 32.679
46.489 51.411 33.566
46.978 51.785 34.209
46.925 53.131 27.697
47.309 52.693 28.002
46.969 52.307 28.579
47.036 52.595 34.567
46.475 54.239 28.134
46.944 53.782 27.428
46.028 54.311 29.040
47.194 53.350 34.712
46.927 54.627 27.407
47.413 54.971 26.802
47.208 54.275 26.969
46.754 55.143 28.082
46.428 55.084 28.905
46.029 55.093 29.856
46.218 55.310 34.039
46.916 54.372 34.585
47.093 55.422 27.475
46.966 55.747 28.093
46.774 55.776 28.742
47.061 56.223 28.500
46.497 55.983 29.714
46.079 55.901 30.603
46.462 56.445 33.761
47.216 55.625 34.503
46.931 56.470 29.212
46.730 56.765 29.934
46.365 56.752 30.615
46.724 57.480 30.342
46.162 57.253 33.072
46.720 57.409 33.673
47.469 56.805 34.433
46.872 58.362 30.428
46.285 58.228 32.954
46.864 58.081 33.678
47.287 57.665 34.136
47.038 59.259 30.444
45.997 59.160 32.306
46.336 59.163 33.008
46.780 58.794 33.542
46.958 59.955 30.432
46.039 60.327 32.015
46.263 60.015 32.886
46.709 59.684 33.518
46.305 61.060 31.144
46.937 60.708 30.352
46.226 61.412 32.120
46.379 61.157 33.014
46.672 60.598 33.590
46.767 61.639 30.377
47.255 62.003 29.989
47.311 61.455 29.925
46.541 62.007 30.865
46.500 62.190 31.707
46.553 62.131 32.826
46.789 61.362 33.823
46.852 62.049 33.772
47.312 61.806 34.349
47.006 62.326 30.422
46.813 62.544 31.016
47.040 62.915 31.629
46.937 62.839 32.575
47.405 63.240 32.276
47.104 62.785 33.635
47.474 62.709 34.551
47.612 63.291 33.267
47.654 63.205 34.322
47.731 50.878 32.630
48.051 50.937 32.028
48.646 50.838 32.630
48.377 50.832 33.243
47.467 50.979 33.332
48.048 50.971 33.710
47.406 51.207 33.851
48.042 51.284 34.090
47.522 51.924 29.314
48.243 51.619 30.241
47.905 51.217 31.137
47.992 51.884 34.453
47.583 53.209 27.417
48.201 52.633 28.009
47.869 52.280 28.646
48.021 52.679 34.713
47.429 53.807 26.988
47.685 54.263 26.652
48.071 53.620 26.886
48.034 53.643 34.822
47.984 54.797 26.362
48.113 54.775 34.869
47.539 55.868 27.014
48.000 55.521 26.370
47.264 56.150 27.832
48.324 55.954 34.983
48.165 56.375 26.616
47.737 56.617 27.492
48.243 56.931 27.176
47.427 56.927 28.673
47.040 57.094 29.612
48.317 56.847 34.981
48.139 57.236 28.007
48.029 57.705 29.004
47.355 57.775 29.734
47.934 58.207 29.674
47.403 58.396 34.122
48.047 57.707 34.672
47.499 58.576 30.116
48.169 58.696 29.905
47.337 59.320 34.047
48.177 58.925 34.536
47.722 59.128 30.180
47.729 59.888 30.146
47.221 60.269 34.057
47.866 59.930 34.372
47.742 60.871 29.886
47.117 61.036 34.117
47.856 61.025 34.465
47.954 61.876 29.664
47.799 61.399 29.701
48.077 62.356 34.782
47.775 62.452 30.014
47.596 62.934 30.792
47.605 63.260 31.620
48.121 63.324 31.306
47.856 63.001 35.077
47.783 63.185 34.942
47.948 63.231 35.141
48.194 63.444 32.278
48.272 63.463 33.315
48.067 63.397 34.001
48.112 63.275 34.718
48.806 51.012 31.989
49.278 50.900 32.560
49.296 50.836 33.142
48.788 50.953 33.728
48.932 51.301 34.174
48.497 51.978 29.465
49.230 51.771 30.295
49.170 51.349 31.301
48.981 51.918 34.540
48.588 52.987 27.405
49.154 52.508 28.045
48.922 52.248 28.802
49.031 52.802 34.770
48.471 54.179 26.442
49.044 53.416 26.858
49.115 53.896 34.890
48.775 55.020 26.060
49.216 55.139 35.034
48.665 55.923 26.027
49.302 56.158 25.880
49.343 55.620 25.756
49.073 55.976 35.253
48.877 56.545 35.270
49.314 56.374 35.347
48.940 56.527 26.245
48.637 56.881 26.731
49.347 56.963 26.700
48.800 57.282 35.145
49.294 56.922 35.309
48.885 57.292 27.433
48.759 57.733 28.460
48.635 58.245 29.337
49.380 58.104 28.901
48.797 58.135 34.932
49.293 57.628 35.137
49.206 58.421 29.371
48.950 58.810 29.710
48.287 59.209 30.023
48.903 59.537 29.884
48.943 58.953 34.732
49.344 58.390 34.875
48.595 60.380 29.810
49.487 59.236 34.475
48.770 60.101 34.491
48.486 61.250 29.595
49.417 61.426 29.463
49.371 60.690 29.612
48.736 61.472 34.511
48.814 61.883 29.424
49.080 62.155 29.373
49.394 61.941 29.377
48.821 62.310 34.516
48.742 62.345 29.630
48.572 62.835 30.193
48.470 63.189 30.761
49.259 63.079 30.568
48.098 63.049 35.049
48.524 62.904 34.628
48.926 63.351 31.354
49.024 63.423 32.180
48.761 63.448 32.891
48.760 63.247 33.804
49.488 51.059 32.164
49.797 50.937 32.697
49.965 50.845 33.152
49.743 50.894 33.674
49.888 51.205 34.219
49.270 52.023 29.596
49.936 51.930 30.043
50.221 51.622 31.067
50.082 51.167 32.116
50.243 50.924 32.800
50.004 51.889 34.588
49.702 52.715 27.512
49.819 52.382 28.072
49.789 52.233 28.599
49.768 52.096 29.330
50.111 52.935 34.763
49.665 54.019 26.369
49.989 53.167 26.912
50.275 54.165 34.770
49.822 54.929 25.882
50.074 55.354 34.839
49.923 55.921 25.774
49.990 55.455 25.688
49.565 55.929 35.175
49.644 56.576 35.215
50.016 56.455 26.254
50.141 56.941 26.825
49.652 57.215 35.110
49.822 57.287 27.309
49.600 57.669 28.093
50.248 57.981 28.668
49.670 57.901 34.878
49.800 58.540 29.327
49.561 59.072 29.693
50.327 59.092 29.531
49.688 58.523 34.632
49.702 59.461 29.747
49.470 59.988 29.746
49.623 60.206 34.106
49.998 59.569 33.900
50.095 60.286 33.649
49.885 58.870 34.255
50.222 60.807 29.560
50.046 60.194 29.632
49.916 60.980 33.732
50.266 60.605 33.401
50.391 61.084 33.154
49.330 60.948 34.228
49.446 62.212 29.493
50.255 61.750 29.609
50.038 61.672 33.463
49.826 62.331 33.462
49.449 61.820 34.052
49.786 62.546 29.991
50.038 62.898 30.601
49.190 62.660 34.061
49.512 62.895 33.401
49.690 63.157 31.032
49.647 63.224 31.727
49.459 63.197 32.702
50.413 50.779 33.228
50.585 50.688 33.760
50.973 50.869 34.327
50.639 52.211 28.190
51.476 52.233 27.711
51.747 51.937 28.264
51.277 51.905 29.024
50.434 52.051 29.169
50.841 51.879 30.153
50.249 52.011 29.692
51.116 51.812 30.904
50.819 51.777 30.993
50.909 51.545 31.493
50.670 51.273 31.933
50.667 50.940 32.608
51.042 51.886 34.676
50.737 52.639 27.341
50.818 53.281 26.756
51.648 52.638 27.216
51.033 51.749 31.214
51.246 53.160 34.669
50.931 54.264 26.254
50.886 53.938 34.638
50.771 54.247 34.612
50.949 54.126 34.580
50.458 55.057 25.817
50.611 55.496 25.814
50.998 54.985 25.971
50.943 54.302 34.549
50.861 54.810 34.488
50.568 55.951 25.993
51.243 55.518 26.183
51.131 56.044 26.461
50.006 56.240 34.883
50.556 55.923 34.429
50.560 57.106 27.275
51.122 56.586 27.014
51.174 57.034 27.602
50.660 57.304 33.722
51.227 56.839 33.501
51.071 57.669 33.202
50.288 56.869 34.395
50.794 56.538 33.974
49.916 56.863 34.920
50.592 57.456 27.919
51.273 57.732 28.603
50.605 58.133 33.431
50.993 58.372 33.012
50.262 57.795 34.056
49.959 57.471 34.675
50.768 58.382 29.117
51.171 58.836 29.360
50.690 58.871 33.166
51.212 59.076 32.789
50.264 58.780 33.747
49.955 58.222 34.404
50.125 59.693 29.670
50.940 59.781 29.574
50.592 59.961 33.150
51.484 60.045 32.449
51.208 60.848 29.680
50.975 61.161 32.441
51.770 60.906 31.948
51.342 61.675 31.773
51.449 61.587 29.878
50.691 62.252 32.022
51.204 62.208 31.262
50.380 61.911 32.868
50.994 62.158 30.021
50.379 62.811 31.265
50.876 62.484 30.557
50.109 62.903 32.065
50.058 62.651 32.752
51.967 49.477 33.779
52.154 49.304 33.437
52.403 49.032 33.778
52.436 49.170 34.126
51.712 49.967 33.147
52.054 50.218 32.600
52.333 49.551 33.014
51.362 50.161 33.772
52.030 49.879 34.344
51.409 50.941 32.228
52.154 51.509 31.529
52.376 50.779 32.123
51.025 50.545 33.148
51.929 50.862 34.718
52.382 52.184 27.754
52.471 51.830 28.348
52.017 51.778 28.811
51.915 51.818 29.686
51.624 51.787 30.714
51.348 51.605 31.360
52.023 51.903 34.801
51.781 53.285 26.805
52.342 52.732 27.229
52.289 52.766 34.627
51.987 53.893 26.642
51.240 54.103 34.508
52.148 53.780 34.368
51.170 55.225 26.008
51.735 54.753 26.410
51.706 54.717 34.211
52.486 54.613 34.046
52.123 55.222 33.916
51.664 56.051 26.887
52.108 55.376 26.894
52.155 56.034 27.379
51.426 55.781 33.926
52.254 55.729 33.667
51.459 57.230 28.087
52.079 56.648 27.899
52.060 57.238 28.489
51.630 57.271 33.114
52.085 56.483 33.363
51.995 57.692 28.850
52.359 57.268 32.973
51.689 58.102 32.835
51.618 58.215 29.088
52.052 58.796 29.431
52.079 59.046 32.503
52.158 59.963 29.761
52.346 59.971 32.140
52.076 60.942 29.937
52.505 60.759 31.689
51.876 61.561 31.406
52.241 61.450 30.216
51.729 61.934 30.122
52.102 61.874 30.365
51.750 62.030 30.851
51.647 62.151 30.376
52.682 49.011 33.457
53.087 48.831 34.053
52.939 49.273 34.584
52.744 49.987 32.512
53.069 49.253 32.969
52.799 50.055 34.906
53.052 51.359 31.885
53.234 50.606 32.076
52.775 51.002 35.027
52.808 51.955 28.106
53.038 51.994 28.540
52.580 51.787 28.981
52.589 51.865 29.676
52.941 51.927 29.309
52.545 51.950 30.699
53.086 51.952 31.791
53.039 52.222 31.471
53.331 52.312 32.147
52.882 51.972 34.852
52.547 53.294 27.063
52.914 52.734 27.546
53.093 52.296 28.027
53.074 52.121 30.008
53.256 52.369 31.036
53.314 52.456 31.862
53.149 53.070 34.255
52.563 54.055 26.942
53.102 53.499 27.462
52.911 54.031 34.103
52.435 54.652 26.879
52.985 54.450 27.408
53.216 54.625 33.835
52.772 55.235 33.751
52.620 56.049 27.855
53.034 55.345 27.866
52.965 56.132 28.281
52.928 55.889 33.453
52.594 57.404 28.920
52.762 56.778 28.579
53.274 56.955 29.065
52.995 56.590 33.157
52.280 57.979 29.133
53.002 57.892 29.374
53.129 57.168 32.930
52.855 57.998 32.696
53.033 58.957 29.768
53.073 59.014 32.365
52.963 59.761 29.998
52.711 60.446 30.116
53.403 59.920 30.369
53.203 59.873 32.016
52.538 60.975 30.190
53.029 60.766 30.599
53.260 60.531 31.567
52.473 61.397 31.109
52.145 61.878 30.640
52.534 61.482 30.646
53.454 48.765 33.498
54.219 48.568 34.087
53.818 48.903 34.711
53.657 49.512 35.138
54.387 49.184 35.253
53.837 49.693 32.408
53.784 48.967 33.017
53.555 50.326 35.320
54.498 49.872 35.641
53.862 51.224 31.823
53.970 50.540 31.915
53.496 51.187 35.221
54.106 50.639 35.514
53.021 51.916 28.956
54.024 51.909 32.138
53.626 52.579 32.863
53.919 52.202 32.847
54.027 52.249 33.740
53.560 51.979 34.846
54.080 51.295 35.298
53.428 52.989 27.987
53.530 52.600 28.534
53.482 52.344 29.278
53.827 52.546 30.414
53.757 52.620 31.190
54.208 52.667 31.095
53.640 52.714 31.930
53.758 52.991 32.720
53.742 52.417 34.141
53.645 53.034 33.468
54.014 51.842 34.885
53.529 53.865 27.970
53.839 53.466 28.548
54.125 52.832 31.695
54.015 53.062 32.310
54.033 53.443 33.010
53.660 53.522 33.647
53.489 53.978 33.849
53.431 54.530 27.942
53.792 54.572 28.503
53.934 54.526 33.545
53.583 55.245 33.542
53.342 56.343 28.766
53.598 55.644 28.647
53.865 56.253 29.166
53.877 56.001 33.260
53.875 57.131 29.525
53.662 56.714 33.055
54.417 56.537 33.046
53.844 57.269 32.853
53.768 58.082 29.807
53.970 58.089 32.579
53.754 58.764 30.052
53.468 59.326 30.111
54.167 59.054 30.493
54.021 58.995 32.274
54.017 59.846 30.995
53.960 59.738 31.968
53.605 60.419 31.272
53.007 60.996 31.046
53.920 60.101 31.698
54.220 48.632 33.409
54.616 48.909 32.888
55.211 48.476 33.575
55.170 48.468 34.340
54.740 48.752 34.856
55.203 49.322 35.508
54.971 49.378 32.321
55.089 49.732 35.967
55.017 50.003 35.986
55.219 49.861 36.104
54.454 50.941 31.669
54.786 50.175 31.850
55.275 50.020 35.961
54.849 50.604 35.595
54.842 51.819 31.523
54.847 52.335 32.144
55.085 50.837 31.529
55.462 52.610 32.731
54.974 52.222 33.128
54.285 51.915 34.574
54.722 51.914 34.083
54.420 51.438 35.165
54.858 51.377 34.998
53.961 53.069 29.071
54.422 53.174 29.837
54.851 52.717 30.812
55.130 53.338 30.273
54.718 52.641 31.592
55.304 52.644 31.889
55.189 52.773 31.638
54.377 54.073 29.293
54.781 53.862 29.766
55.038 53.679 30.008
54.682 53.242 32.240
54.562 54.129 33.080
55.474 53.981 32.741
53.954 53.946 33.464
54.228 55.284 29.182
54.916 54.343 29.747
54.854 55.028 29.677
55.387 54.670 30.004
55.061 54.522 33.074
54.621 55.094 33.265
54.645 56.203 29.709
55.487 55.587 30.070
54.756 55.884 33.169
54.576 57.404 30.024
55.486 56.675 30.279
55.180 56.233 33.002
54.961 57.089 32.759
54.317 58.276 30.195
55.277 57.942 30.686
54.974 58.103 32.415
54.855 59.008 31.119
54.818 58.991 32.093
54.651 59.475 31.444
54.262 59.866 31.560
54.389 59.659 31.880
54.824 59.343 31.785
55.855 48.768 32.741
56.376 48.327 33.403
56.018 48.413 34.126
55.620 48.707 34.852
55.963 49.134 35.210
55.886 49.559 31.951
55.347 49.750 35.942
55.765 49.940 35.505
55.577 50.298 31.576
55.945 50.888 31.370
56.257 50.053 31.548
55.450 50.831 35.253
55.781 52.060 31.342
55.596 52.464 33.217
55.752 52.268 33.582
55.721 51.777 34.144
55.410 51.369 34.758
55.680 53.192 30.583
55.852 52.643 31.072
55.275 52.452 31.330
55.447 52.947 31.917
55.899 53.198 32.648
56.260 52.625 33.328
55.168 54.102 29.958
55.763 53.950 30.270
56.326 53.988 32.847
56.140 54.936 30.306
55.404 54.812 33.049
56.153 54.871 32.874
56.349 55.877 30.465
55.424 55.512 33.066
56.029 56.098 32.743
56.456 56.854 30.784
55.964 57.218 32.419
56.432 57.558 31.227
55.696 58.398 31.429
56.334 57.950 31.615
55.813 58.107 32.112
55.138 59.039 31.563
56.008 58.249 31.807
55.440 58.729 31.843
57.005 48.176 33.294
56.848 48.360 32.958
57.179 48.168 33.123
57.226 48.181 33.285
56.985 48.932 32.308
57.076 48.431 33.734
56.453 48.737 34.643
56.567 49.310 35.053
56.741 49.552 31.751
57.080 50.077 31.471
57.324 49.371 31.830
56.625 49.913 35.095
57.108 49.525 34.806
57.164 50.167 34.699
57.025 51.113 31.118
56.273 50.809 34.870
57.146 50.922 34.455
56.653 51.956 30.978
56.256 52.095 33.883
56.666 51.568 34.249
56.886 53.295 30.681
57.012 52.375 30.829
57.262 52.604 33.445
56.932 53.450 32.994
56.837 52.119 33.816
56.737 54.302 30.505
56.922 54.344 32.803
57.077 55.052 30.618
57.017 55.237 32.574
57.299 55.913 30.859
56.954 56.406 32.212
57.165 56.638 31.041
56.872 57.045 31.083
57.174 56.923 31.376
56.589 57.368 32.037
56.386 57.866 31.872
56.759 57.475 31.661
57.358 48.425 33.015
57.596 49.106 32.079
57.932 49.511 31.864
57.861 48.933 32.519
57.823 48.731 33.275
57.668 48.890 33.890
58.172 49.237 33.505
57.164 48.988 34.466
58.046 50.357 31.333
57.704 49.548 34.235
58.337 50.020 33.603
57.931 51.011 30.992
58.304 51.385 30.928
58.444 50.806 31.091
57.786 50.506 34.144
58.355 50.988 33.525
57.534 51.669 30.876
58.033 52.377 30.855
57.601 51.634 33.848
58.329 51.884 33.291
58.139 53.312 30.891
58.484 52.888 30.955
58.756 53.321 31.175
57.683 53.179 33.080
57.984 52.542 33.261
57.752 54.139 30.796
58.613 53.769 31.127
58.084 53.153 32.922
57.827 54.067 32.533
58.006 54.885 30.952
57.700 55.481 32.082
57.980 55.523 31.124
57.610 56.281 31.685
58.016 55.709 31.670
57.955 55.994 31.479
57.696 56.179 31.252
57.113 56.932 31.798
58.466 49.394 32.359
58.292 49.097 32.913
58.610 49.889 31.824
58.857 49.812 32.262
59.028 50.323 32.379
58.666 49.690 32.877
58.740 51.062 31.108
58.800 50.563 31.438
58.808 50.561 32.983
59.095 51.164 32.384
58.729 51.706 31.063
58.988 51.187 31.321
58.784 51.554 32.888
59.034 52.140 32.244
58.753 52.541 31.076
58.988 53.071 31.245
58.537 52.771 32.631
58.939 52.989 31.932
58.521 54.114 31.040
58.861 53.667 31.149
58.903 53.568 31.213
58.944 53.454 31.439
58.641 53.813 31.685
58.794 53.945 31.289
58.599 54.320 31.142
58.414 54.768 31.315
58.210 54.948 31.775
58.131 55.578 31.409
58.989 50.224 31.920
59.125 50.959 31.804
59.072 51.958 31.405
59.183 51.752 31.892
59.099 52.715 31.622
58.907 53.645 31.253
3 2 1 0
3 4 3 0
3 0 3 2
3 6 5 4
3 4 5 3
3 6 7 5
3 10 9 8
3 10 8 1
3 8 0 1
3 8 11 0
3 0 12 4
3 0 11 12
3 4 13 6
3 4 12 13
3 7 6 14
3 14 6 13
3 9 15 8
3 17 16 15
3 16 8 15
3 16 11 8
3 11 18 12
3 11 16 18
3 12 19 13
3 12 18 19
3 14 13 20
3 20 13 19
3 17 21 16
3 23 22 21
3 22 16 21
3 22 18 16
3 25 19 24
3 19 22 24
3 19 18 22
3 19 25 20
3 23 26 22
3 22 26 24
3 29 28 27
3 1 2 27
3 2 29 27
3 2 30 29
3 31 2 3
3 31 30 2
3 32 3 5
3 32 31 3
3 34 33 7
3 33 5 7
3 33 32 5
3 34 35 33
3 38 37 36
3 40 39 36
3 36 39 38
3 39 40 28
3 28 40 27
3 40 9 27
3 9 10 27
3 27 10 1
3 14 41 34
3 14 34 7
3 35 34 42
3 42 34 41
3 37 43 36
3 36 43 40
3 40 43 44
3 44 46 45
3 44 45 15
3 40 44 15
3 9 40 15
3 45 17 15
3 20 47 41
3 20 41 14
3 42 41 48
3 48 41 47
3 46 49 45
3 49 51 50
3 49 50 21
3 45 49 21
3 17 45 21
3 50 23 21
3 24 52 25
3 52 53 25
3 25 53 20
3 53 54 20
3 54 47 20
3 47 54 48
3 51 55 50
3 55 57 56
3 55 56 26
3 50 55 26
3 23 50 26
3 52 24 26
3 56 52 26
3 58 52 56
3 53 52 59
3 59 52 58
3 56 57 60
3 60 57 61
3 63 58 62
3 58 60 62
3 58 56 60
3 58 63 59
3 66 65 64
3 66 64 61
3 64 60 61
3 64 67 60
3 62 60 68
3 68 60 67
3 64 65 69
3 69 65 70
3 72 67 71
3 67 69 71
3 67 64 69
3 67 72 68
3 69 70 73
3 73 70 74
3 71 69 75
3 75 69 73
3 74 76 73
3 73 76 75
3 78 77 29
3 29 77 28
3 79 29 30
3 79 78 29
3 80 30 31
3 80 79 30
3 81 31 32
3 81 80 31
3 82 32 33
3 82 81 32
3 33 35 82
3 82 35 83
3 85 84 38
3 38 84 37
3 86 38 39
3 86 85 38
3 39 28 77
3 39 77 86
3 42 83 35
3 42 87 83
3 43 37 88
3 37 89 88
3 37 84 89
3 90 44 43
3 90 43 88
3 90 46 44
3 48 87 42
3 48 91 87
3 94 93 92
3 94 92 89
3 92 88 89
3 92 95 88
3 88 96 90
3 88 95 96
3 97 49 46
3 90 97 46
3 96 97 90
3 97 51 49
3 53 98 54
3 98 99 54
3 99 48 54
3 99 91 48
3 93 100 92
3 92 100 95
3 95 100 101
3 103 102 101
3 102 95 101
3 102 96 95
3 96 104 97
3 96 102 104
3 105 55 51
3 97 105 51
3 104 105 97
3 105 57 55
3 59 106 98
3 59 98 53
3 99 98 107
3 107 98 106
3 103 108 102
3 102 108 104
3 104 108 109
3 111 110 109
3 110 104 109
3 110 105 104
3 110 61 57
3 110 57 105
3 62 112 63
3 106 59 63
3 112 106 63
3 113 106 112
3 107 106 114
3 114 106 113
3 110 111 66
3 111 65 66
3 111 115 65
3 110 66 61
3 68 116 112
3 68 112 62
3 118 113 117
3 113 116 117
3 113 112 116
3 113 118 114
3 115 70 65
3 119 70 115
3 71 120 72
3 116 68 72
3 120 116 72
3 121 116 120
3 117 116 122
3 122 116 121
3 119 74 70
3 123 74 119
3 75 124 120
3 75 120 71
3 120 125 121
3 120 124 125
3 122 121 126
3 126 121 125
3 76 74 127
3 74 128 127
3 74 123 128
3 124 75 76
3 127 124 76
3 129 124 127
3 124 130 125
3 124 129 130
3 126 125 131
3 131 125 130
3 134 133 132
3 134 132 128
3 132 127 128
3 132 135 127
3 127 136 129
3 127 135 136
3 129 137 130
3 129 136 137
3 131 130 138
3 130 139 138
3 130 137 139
3 139 140 138
3 133 141 132
3 132 141 135
3 135 141 142
3 135 142 136
3 136 142 143
3 145 144 143
3 144 136 143
3 144 137 136
3 137 146 139
3 137 144 146
3 140 139 147
3 147 139 146
3 145 148 144
3 144 148 146
3 146 148 149
3 146 149 147
3 152 151 150
3 154 153 150
3 150 153 152
3 156 155 154
3 154 155 153
3 156 157 155
3 159 158 78
3 78 158 77
3 160 78 79
3 160 159 78
3 80 150 151
3 160 80 151
3 79 80 160
3 150 80 81
3 150 81 154
3 154 81 82
3 154 82 156
3 82 83 156
3 83 157 156
3 83 161 157
3 163 162 85
3 85 162 84
3 164 85 86
3 164 163 85
3 86 77 158
3 86 158 164
3 87 161 83
3 87 165 161
3 168 167 166
3 162 168 166
3 89 162 166
3 84 162 89
3 91 165 87
3 91 169 165
3 166 167 94
3 167 93 94
3 167 170 93
3 166 94 89
3 99 169 91
3 99 171 169
3 100 93 172
3 93 173 172
3 93 170 173
3 174 101 100
3 174 100 172
3 174 103 101
3 107 171 99
3 107 175 171
3 173 176 172
3 178 177 176
3 177 172 176
3 177 174 172
3 179 108 103
3 174 179 103
3 177 179 174
3 180 109 108
3 180 108 179
3 180 111 109
3 114 175 107
3 114 181 175
3 178 182 177
3 177 182 179
3 179 182 183
3 185 184 183
3 184 179 183
3 184 180 179
3 184 115 111
3 184 111 180
3 117 186 118
3 186 187 118
3 187 114 118
3 187 181 114
3 184 185 188
3 188 185 189
3 188 119 115
3 188 115 184
3 122 190 186
3 122 186 117
3 187 186 191
3 191 186 190
3 189 192 188
3 119 188 192
3 193 119 192
3 123 119 193
3 126 194 190
3 126 190 122
3 191 190 195
3 195 190 194
3 193 128 123
3 196 128 193
3 131 197 194
3 131 194 126
3 195 194 198
3 198 194 197
3 200 199 134
3 134 199 133
3 134 128 196
3 134 196 200
3 138 197 131
3 138 140 197
3 140 198 197
3 140 201 198
3 199 202 133
3 133 202 141
3 141 203 142
3 202 203 141
3 203 205 204
3 143 203 204
3 142 203 143
3 204 145 143
3 147 207 206
3 201 147 206
3 140 147 201
3 207 208 206
3 205 209 204
3 204 209 145
3 209 148 145
3 209 210 148
3 148 211 149
3 210 211 148
3 147 149 207
3 149 212 207
3 149 211 212
3 207 212 208
3 214 213 152
3 152 213 151
3 215 152 153
3 215 214 152
3 216 153 155
3 216 215 153
3 155 157 216
3 216 157 217
3 219 218 159
3 159 218 158
3 220 159 160
3 220 219 159
3 160 151 213
3 160 213 220
3 161 217 157
3 161 221 217
3 223 222 163
3 163 222 162
3 224 163 164
3 224 223 163
3 164 158 218
3 164 218 224
3 165 221 161
3 165 225 221
3 227 226 168
3 168 226 167
3 168 162 222
3 168 222 227
3 169 225 165
3 169 228 225
3 226 170 167
3 229 170 226
3 171 228 169
3 171 230 228
3 233 232 231
3 229 233 231
3 173 229 231
3 170 229 173
3 175 235 234
3 230 175 234
3 171 175 230
3 235 236 234
3 232 237 231
3 237 239 238
3 237 238 176
3 231 237 176
3 173 231 176
3 238 178 176
3 181 240 235
3 181 235 175
3 236 235 241
3 241 235 240
3 239 242 238
3 238 242 178
3 242 182 178
3 242 243 182
3 243 245 244
3 183 243 244
3 182 243 183
3 244 185 183
3 187 246 240
3 187 240 181
3 241 240 247
3 247 240 246
3 245 248 244
3 189 185 244
3 249 189 244
3 248 249 244
3 189 249 250
3 251 250 249
3 191 252 246
3 191 246 187
3 247 246 253
3 253 246 252
3 250 192 189
3 193 192 250
3 251 193 250
3 254 193 251
3 256 255 252
3 191 256 252
3 195 256 191
3 252 255 253
3 259 258 257
3 254 259 257
3 196 254 257
3 193 254 196
3 198 256 195
3 198 260 256
3 263 262 261
3 263 261 258
3 258 261 257
3 261 199 257
3 199 200 257
3 257 200 196
3 201 260 198
3 201 264 260
3 262 265 261
3 261 265 199
3 265 202 199
3 265 266 202
3 266 268 267
3 203 266 267
3 202 266 203
3 267 205 203
3 201 206 269
3 270 201 269
3 264 201 270
3 208 269 206
3 268 271 267
3 267 271 205
3 271 209 205
3 271 272 209
3 209 273 210
3 272 273 209
3 210 274 211
3 273 274 210
3 269 212 270
3 212 274 270
3 212 211 274
3 212 269 208
3 275 213 214
3 215 276 214
3 214 276 275
3 276 215 277
3 215 278 277
3 215 216 278
3 216 217 278
3 278 217 279
3 280 218 219
3 280 219 281
3 219 282 281
3 219 220 282
3 220 213 275
3 283 220 275
3 282 220 283
3 283 275 276
3 283 276 284
3 284 276 277
3 221 279 217
3 221 285 279
3 287 286 223
3 223 286 222
3 288 223 224
3 288 287 223
3 224 218 280
3 289 224 280
3 288 224 289
3 289 280 281
3 225 285 221
3 225 290 285
3 292 291 227
3 227 291 226
3 227 222 286
3 227 286 292
3 228 290 225
3 228 293 290
3 291 229 226
3 294 229 291
3 230 293 228
3 230 295 293
3 297 296 233
3 233 296 232
3 233 229 294
3 233 294 297
3 298 295 230
3 298 230 234
3 234 236 298
3 298 236 299
3 296 300 232
3 232 300 237
3 239 237 300
3 239 300 301
3 241 299 236
3 241 302 299
3 301 303 239
3 239 303 242
3 242 304 243
3 303 304 242
3 245 243 304
3 245 304 305
3 247 302 241
3 247 306 302
3 305 307 245
3 245 307 248
3 307 309 308
3 249 307 308
3 248 307 249
3 308 251 249
3 253 306 247
3 253 310 306
3 309 311 308
3 251 308 311
3 312 251 311
3 254 251 312
3 315 314 313
3 255 256 313
3 314 255 313
3 316 255 314
3 253 255 310
3 310 255 316
3 318 317 259
3 259 317 258
3 259 254 312
3 259 312 318
3 321 320 319
3 319 320 315
3 313 319 315
3 322 319 313
3 260 322 256
3 256 322 313
3 323 262 263
3 324 323 263
3 258 324 263
3 317 324 258
3 325 321 319
3 327 326 325
3 319 327 325
3 322 327 319
3 264 327 260
3 260 327 322
3 323 265 262
3 324 328 323
3 328 265 323
3 328 266 265
3 268 266 328
3 268 328 329
3 326 327 330
3 326 330 331
3 270 330 264
3 264 330 327
3 329 332 268
3 268 332 271
3 271 333 272
3 332 333 271
3 272 334 273
3 333 334 272
3 330 274 331
3 274 334 331
3 274 273 334
3 274 330 270
3 336 335 278
3 278 335 277
3 278 279 336
3 336 279 337
3 340 339 338
3 342 341 338
3 338 341 340
3 344 343 342
3 342 343 341
3 344 281 343
3 281 282 343
3 346 345 343
3 346 343 282
3 346 282 347
3 282 348 347
3 282 283 348
3 349 283 284
3 349 348 283
3 284 277 335
3 284 335 349
3 285 337 279
3 285 350 337
3 353 352 351
3 353 351 339
3 339 351 338
3 351 286 338
3 286 287 338
3 338 287 288
3 338 288 342
3 342 288 289
3 342 289 344
3 346 354 345
3 281 344 289
3 354 346 347
3 290 350 285
3 290 355 350
3 351 352 292
3 352 291 292
3 352 356 291
3 351 292 286
3 293 358 357
3 355 293 357
3 290 293 355
3 358 359 357
3 362 361 360
3 356 362 360
3 294 356 360
3 291 356 294
3 364 363 358
3 293 364 358
3 295 364 293
3 358 363 359
3 366 365 361
3 365 296 361
3 297 360 361
3 297 361 296
3 297 294 360
3 365 366 367
3 295 298 368
3 369 295 368
3 364 295 369
3 299 368 298
3 365 300 296
3 371 370 301
3 371 301 300
3 367 371 300
3 365 367 300
3 372 370 371
3 375 374 373
3 377 376 373
3 377 373 374
3 376 377 369
3 368 376 369
3 378 376 368
3 302 378 299
3 299 378 368
3 370 303 301
3 372 379 370
3 379 303 370
3 379 304 303
3 305 304 379
3 305 379 380
3 375 373 381
3 375 381 382
3 383 373 376
3 381 373 383
3 384 376 378
3 383 376 384
3 306 384 302
3 302 384 378
3 380 385 305
3 305 385 307
3 309 307 385
3 309 385 386
3 382 381 387
3 382 387 388
3 389 381 383
3 387 381 389
3 390 383 384
3 389 383 390
3 310 390 306
3 306 390 384
3 311 309 391
3 309 392 391
3 309 386 392
3 391 312 311
3 388 387 393
3 388 393 394
3 315 393 314
3 393 389 314
3 393 387 389
3 314 389 316
3 316 389 390
3 316 390 310
3 391 392 318
3 392 317 318
3 392 395 317
3 391 318 312
3 398 397 396
3 396 397 394
3 396 394 393
3 321 396 393
3 320 321 393
3 320 393 315
3 395 324 317
3 399 324 395
3 398 396 400
3 398 400 401
3 325 402 321
3 402 396 321
3 402 400 396
3 326 402 325
3 399 403 324
3 324 403 328
3 405 404 329
3 328 405 329
3 403 405 328
3 404 405 401
3 400 404 401
3 406 404 400
3 407 400 402
3 406 400 407
3 331 407 326
3 326 407 402
3 404 332 329
3 332 404 333
3 333 404 406
3 333 406 334
3 334 406 407
3 334 407 331
3 410 409 408
3 408 411 410
3 414 413 412
3 414 412 409
3 412 408 409
3 412 415 408
3 411 408 416
3 416 408 415
3 419 418 417
3 419 417 413
3 417 412 413
3 417 420 412
3 420 335 336
3 415 420 336
3 412 420 415
3 336 337 415
3 337 416 415
3 337 421 416
3 423 422 340
3 340 422 339
3 424 340 341
3 424 423 340
3 425 341 343
3 425 424 341
3 427 426 345
3 426 343 345
3 426 425 343
3 426 427 418
3 418 427 417
3 427 347 417
3 347 348 417
3 417 348 349
3 417 349 420
3 420 349 335
3 350 421 337
3 350 428 421
3 430 429 353
3 353 429 352
3 353 339 422
3 353 422 430
3 354 427 345
3 427 354 347
3 355 428 350
3 355 431 428
3 429 356 352
3 432 356 429
3 355 357 433
3 434 355 433
3 431 355 434
3 359 433 357
3 435 361 362
3 436 435 362
3 356 436 362
3 432 436 356
3 439 438 437
3 437 438 434
3 437 434 433
3 364 437 433
3 363 364 433
3 363 433 359
3 435 366 361
3 441 440 367
3 441 367 366
3 436 441 366
3 435 436 366
3 442 440 441
3 439 437 443
3 439 443 444
3 369 443 364
3 364 443 437
3 440 371 367
3 446 445 372
3 446 372 371
3 442 446 371
3 440 442 371
3 447 445 446
3 375 448 374
3 449 444 443
3 374 449 443
3 377 374 443
3 449 374 448
3 377 443 369
3 445 379 372
3 380 379 445
3 447 380 445
3 450 380 447
3 452 451 448
3 375 452 448
3 382 452 375
3 448 451 449
3 450 453 380
3 380 453 385
3 386 385 453
3 386 453 454
3 388 452 382
3 388 455 452
3 454 392 386
3 456 392 454
3 394 455 388
3 394 457 455
3 456 395 392
3 458 395 456
3 460 459 397
3 460 397 398
3 394 397 457
3 457 397 459
3 462 399 461
3 399 458 461
3 399 395 458
3 463 462 461
3 401 460 398
3 401 464 460
3 462 403 399
3 463 465 462
3 465 403 462
3 465 405 403
3 401 405 464
3 464 405 465
3 467 466 410
3 410 466 409
3 410 411 467
3 467 411 468
3 470 469 414
3 414 469 413
3 414 409 466
3 414 466 470
3 416 468 411
3 416 471 468
3 473 472 419
3 419 472 418
3 419 413 469
3 419 469 473
3 421 471 416
3 421 474 471
3 475 422 423
3 475 423 476
3 423 477 476
3 423 424 477
3 479 477 478
3 477 425 478
3 477 424 425
3 426 480 425
3 425 480 478
3 418 472 481
3 480 418 481
3 482 480 481
3 426 418 480
3 483 482 481
3 428 474 421
3 428 484 474
3 485 429 430
3 486 485 430
3 486 430 422
3 487 486 422
3 475 487 422
3 487 475 476
3 488 479 478
3 488 478 480
3 488 480 489
3 489 480 482
3 489 482 490
3 490 482 483
3 431 484 428
3 431 491 484
3 492 432 485
3 485 432 429
3 485 486 493
3 485 493 492
3 434 491 431
3 434 494 491
3 495 436 492
3 492 436 432
3 492 493 496
3 492 496 495
3 498 497 438
3 498 438 439
3 434 438 494
3 494 438 497
3 495 441 436
3 500 499 442
3 500 442 441
3 496 500 441
3 495 496 441
3 501 499 500
3 444 498 439
3 444 502 498
3 499 446 442
3 504 503 447
3 504 447 446
3 501 504 446
3 499 501 446
3 505 503 504
3 449 502 444
3 449 506 502
3 507 450 503
3 503 450 447
3 503 505 508
3 503 508 507
3 510 509 451
3 510 451 452
3 449 451 506
3 506 451 509
3 507 453 450
3 454 453 507
3 508 454 507
3 511 454 508
3 455 510 452
3 455 512 510
3 514 456 513
3 456 511 513
3 456 454 511
3 515 514 513
3 457 512 455
3 457 516 512
3 517 458 514
3 514 458 456
3 514 515 518
3 514 518 517
3 520 519 459
3 520 459 460
3 457 459 516
3 516 459 519
3 517 461 458
3 522 521 463
3 522 463 461
3 518 522 461
3 517 518 461
3 522 520 521
3 520 464 521
3 520 460 464
3 521 465 463
3 465 521 464
3 524 523 467
3 467 523 466
3 526 525 468
3 525 467 468
3 525 524 467
3 526 527 525
3 529 528 470
3 470 528 469
3 470 466 523
3 470 523 529
3 471 530 526
3 471 526 468
3 527 526 531
3 531 526 530
3 533 532 473
3 473 532 472
3 473 469 528
3 473 528 533
3 474 534 530
3 474 530 471
3 531 530 535
3 535 530 534
3 536 476 477
3 479 536 477
3 532 537 472
3 472 537 481
3 539 538 483
3 481 539 483
3 537 539 481
3 540 538 539
3 484 541 534
3 484 534 474
3 535 534 542
3 542 534 541
3 543 486 487
3 544 543 487
3 544 487 476
3 545 544 476
3 536 545 476
3 545 536 479
3 488 545 479
3 546 545 488
3 548 546 547
3 546 489 547
3 546 488 489
3 490 549 489
3 489 549 547
3 483 538 490
3 538 549 490
3 538 550 549
3 538 540 551
3 552 538 551
3 550 538 552
3 551 553 541
3 491 551 541
3 484 491 541
3 552 551 491
3 541 553 542
3 554 493 543
3 543 493 486
3 543 544 555
3 543 555 554
3 556 548 547
3 556 547 549
3 556 549 557
3 557 549 550
3 557 550 558
3 558 550 552
3 558 552 559
3 552 491 559
3 491 560 559
3 491 494 560
3 561 496 554
3 554 496 493
3 554 555 562
3 554 562 561
3 564 563 497
3 564 497 498
3 494 497 560
3 560 497 563
3 561 500 496
3 566 565 501
3 566 501 500
3 562 566 500
3 561 562 500
3 567 565 566
3 502 564 498
3 502 568 564
3 565 504 501
3 505 504 565
3 567 505 565
3 569 505 567
3 572 571 570
3 571 568 570
3 568 506 570
3 568 502 506
3 569 508 505
3 573 508 569
3 572 570 509
3 510 572 509
3 574 572 510
3 509 570 506
3 576 511 575
3 511 573 575
3 511 508 573
3 577 576 575
3 512 574 510
3 512 578 574
3 576 513 511
3 515 513 576
3 577 515 576
3 579 515 577
3 516 578 512
3 516 580 578
3 582 518 581
3 518 579 581
3 518 515 579
3 519 520 582
3 581 519 582
3 583 519 581
3 516 519 580
3 580 519 583
3 582 522 518
3 522 582 520
3 586 585 584
3 523 524 584
3 524 586 584
3 524 587 586
3 588 524 525
3 588 587 524
3 525 527 588
3 588 527 589
3 584 585 529
3 585 528 529
3 585 590 528
3 584 529 523
3 531 592 591
3 589 531 591
3 527 531 589
3 592 593 591
3 594 532 533
3 595 594 533
3 528 595 533
3 590 595 528
3 597 596 592
3 531 597 592
3 535 597 531
3 592 596 593
3 599 537 598
3 537 532 598
3 598 532 594
3 600 598 594
3 594 595 600
3 602 599 601
3 599 602 537
3 539 537 602
3 604 603 540
3 539 604 540
3 602 604 539
3 606 605 603
3 606 603 604
3 606 597 605
3 597 542 605
3 597 535 542
3 607 544 545
3 546 608 545
3 545 608 607
3 610 608 609
3 608 546 609
3 548 611 609
3 548 609 546
3 613 612 611
3 612 599 611
3 598 609 611
3 598 611 599
3 599 612 601
3 603 551 540
3 551 603 553
3 553 603 605
3 553 605 542
3 614 555 607
3 607 555 544
3 608 616 615
3 614 608 615
3 607 608 614
3 548 556 611
3 608 610 616
3 617 613 611
3 556 617 611
3 557 617 556
3 619 617 618
3 617 558 618
3 617 557 558
3 559 620 558
3 558 620 618
3 560 620 559
3 621 562 614
3 614 562 555
3 614 615 622
3 623 614 622
3 621 614 623
3 624 623 622
3 625 619 618
3 564 626 563
3 626 618 563
3 618 620 563
3 626 625 618
3 563 620 560
3 621 566 562
3 566 621 567
3 621 627 567
3 621 623 627
3 623 624 628
3 623 628 627
3 568 626 564
3 568 629 626
3 630 569 627
3 627 569 567
3 627 628 631
3 627 631 630
3 633 632 571
3 633 571 572
3 568 571 629
3 629 571 632
3 634 573 630
3 630 573 569
3 630 631 635
3 630 635 634
3 574 633 572
3 574 636 633
3 634 575 573
3 577 575 634
3 635 577 634
3 637 577 635
3 578 636 574
3 578 638 636
3 640 579 639
3 579 637 639
3 579 577 637
3 642 641 640
3 642 640 639
3 642 638 641
3 638 580 641
3 638 578 580
3 640 581 579
3 581 640 583
3 583 640 641
3 583 641 580
3 644 643 586
3 586 643 585
3 645 586 587
3 645 644 586
3 646 587 588
3 646 645 587
3 588 589 646
3 646 589 647
3 643 590 585
3 648 590 643
3 589 591 649
3 650 589 649
3 647 589 650
3 593 649 591
3 653 652 651
3 648 653 651
3 595 648 651
3 590 648 595
3 650 649 596
3 597 650 596
3 654 650 597
3 596 649 593
3 651 652 600
3 652 598 600
3 652 655 598
3 595 651 600
3 602 601 656
3 602 656 657
3 658 602 657
3 604 602 658
3 604 659 606
3 658 659 604
3 597 606 654
3 654 606 659
3 661 660 609
3 609 660 610
3 655 662 598
3 655 612 662
3 612 655 663
3 661 663 655
3 663 661 613
3 662 613 661
3 661 609 662
3 662 609 598
3 612 613 662
3 663 664 612
3 612 664 601
3 664 665 601
3 665 656 601
3 656 665 657
3 666 615 616
3 667 666 616
3 610 667 616
3 660 667 610
3 617 663 613
3 617 619 663
3 619 664 663
3 619 668 664
3 666 622 615
3 624 622 666
3 667 624 666
3 669 624 667
3 619 625 670
3 671 619 670
3 668 619 671
3 626 670 625
3 669 628 624
3 672 628 669
3 671 670 673
3 671 673 674
3 629 673 626
3 626 673 670
3 672 631 628
3 675 631 672
3 674 673 632
3 633 674 632
3 676 674 633
3 632 673 629
3 678 635 677
3 635 675 677
3 635 631 675
3 679 678 677
3 636 676 633
3 636 680 676
3 681 637 678
3 678 637 635
3 678 679 682
3 683 678 682
3 681 678 683
3 682 680 683
3 680 638 683
3 680 636 638
3 681 639 637
3 639 681 642
3 642 681 683
3 642 683 638
3 686 685 684
3 684 687 686
3 684 685 644
3 685 643 644
3 685 688 643
3 689 687 684
3 644 689 684
3 645 689 644
3 690 645 646
3 690 689 645
3 646 647 690
3 690 647 691
3 694 693 692
3 688 694 692
3 648 688 692
3 643 688 648
3 697 696 695
3 696 691 695
3 691 650 695
3 691 647 650
3 692 693 653
3 693 652 653
3 693 698 652
3 692 653 648
3 697 695 699
3 697 699 700
3 654 699 650
3 650 699 695
3 698 655 652
3 701 655 698
3 657 702 658
3 703 700 699
3 658 703 699
3 659 658 699
3 703 658 702
3 659 699 654
3 705 704 661
3 661 704 660
3 661 655 701
3 661 701 705
3 707 706 665
3 707 665 664
3 657 665 702
3 665 708 702
3 665 706 708
3 702 708 703
3 704 667 660
3 709 667 704
3 668 707 664
3 668 710 707
3 709 669 667
3 711 669 709
3 671 710 668
3 671 712 710
3 711 672 669
3 713 672 711
3 674 712 671
3 674 714 712
3 716 675 715
3 675 713 715
3 675 672 713
3 717 716 715
3 676 714 674
3 676 718 714
3 716 677 675
3 720 719 679
3 720 679 677
3 717 720 677
3 716 717 677
3 720 718 719
3 718 680 719
3 718 676 680
3 719 682 679
3 682 719 680
3 721 685 686
3 687 721 686
3 724 723 722
3 725 724 721
3 724 688 721
3 688 685 721
3 724 722 688
3 727 725 726
3 726 725 689
3 725 721 689
3 721 687 689
3 690 728 689
3 689 728 726
3 691 728 690
3 722 723 694
3 723 693 694
3 723 729 693
3 722 694 688
3 727 726 730
3 727 730 731
3 697 730 696
3 730 728 696
3 730 726 728
3 696 728 691
3 734 733 732
3 729 734 732
3 698 729 732
3 693 729 698
3 731 730 735
3 731 735 736
3 700 735 697
3 697 735 730
3 732 733 737
3 737 733 738
3 737 701 698
3 737 698 732
3 736 735 739
3 736 739 740
3 703 739 700
3 700 739 735
3 742 741 738
3 741 704 738
3 705 737 738
3 705 738 704
3 705 701 737
3 741 742 743
3 707 744 706
3 745 740 739
3 706 745 739
3 708 706 739
3 745 706 744
3 708 739 703
3 747 746 741
3 746 704 741
3 746 709 704
3 747 741 743
3 749 748 744
3 707 749 744
3 710 749 707
3 744 748 745
3 746 711 709
3 750 711 746
3 712 749 710
3 712 751 749
3 750 713 711
3 752 713 750
3 755 754 753
3 754 751 753
3 751 714 753
3 751 712 714
3 752 756 713
3 713 756 715
3 753 757 717
3 756 753 717
3 715 756 717
3 755 753 756
3 718 757 714
3 714 757 753
3 757 720 717
3 720 757 718
3 758 723 724
3 725 759 724
3 724 759 758
3 727 759 725
3 761 760 758
3 760 723 758
3 760 729 723
3 763 762 761
3 758 763 761
3 759 763 758
3 731 763 727
3 727 763 759
3 764 733 734
3 765 764 734
3 729 765 734
3 760 765 729
3 762 763 766
3 762 766 767
3 736 766 731
3 731 766 763
3 769 768 764
3 768 733 764
3 768 738 733
3 769 764 765
3 767 766 770
3 767 770 771
3 740 770 736
3 736 770 766
3 768 772 738
3 738 772 742
3 743 742 772
3 743 772 773
3 771 770 774
3 771 774 775
3 745 774 740
3 740 774 770
3 777 776 747
3 747 776 746
3 773 778 743
3 778 779 743
3 780 743 779
3 743 780 747
3 781 747 780
3 747 781 778
3 778 777 747
3 773 777 778
3 778 781 779
3 780 779 775
3 780 775 774
3 749 780 774
3 748 749 774
3 748 774 745
3 783 750 782
3 750 776 782
3 750 746 776
3 783 782 781
3 780 783 781
3 784 783 780
3 751 784 749
3 749 784 780
3 785 752 783
3 783 752 750
3 755 785 754
3 785 784 754
3 785 783 784
3 754 784 751
3 785 756 752
3 756 785 755
3 786 760 761
3 762 786 761
3 787 765 786
3 786 765 760
3 767 787 762
3 762 787 786
3 788 768 769
3 765 787 769
3 787 788 769
3 787 789 788
3 771 789 767
3 767 789 787
3 788 772 768
3 772 788 773
3 788 790 773
3 788 789 790
3 775 790 771
3 771 790 789
3 791 776 777
3 777 773 791
3 773 790 791
3 779 781 791
3 779 791 790
3 779 790 775
3 791 782 776
3 782 791 781
