ply
format ascii 1.0
comment None
element vertex 348
property float x
property float y
property float z
element face 700
property list uchar int vertex_indices
end_header
52.843 59.486 27.180
53.160 59.464 26.699
53.401 59.111 27.095
53.179 59.038 27.711
52.796 59.387 27.769
53.078 59.169 28.226
52.865 59.851 26.573
53.054 60.174 26.105
53.359 59.765 26.198
52.623 60.058 26.943
52.640 59.843 27.543
52.847 59.669 28.184
52.759 60.346 26.408
53.145 60.685 25.880
52.667 60.536 26.746
52.701 60.448 27.298
52.796 60.233 27.906
52.896 60.820 26.332
53.745 59.310 26.507
54.172 58.883 26.966
53.777 58.767 27.569
53.793 58.641 28.448
53.360 59.364 28.971
53.905 58.651 29.555
53.779 59.258 29.896
54.199 58.711 30.385
53.606 60.265 25.550
54.142 59.649 25.813
53.169 60.230 28.609
53.758 60.114 29.631
54.235 59.504 30.595
54.047 61.098 24.230
54.412 60.941 23.545
54.293 60.735 24.014
54.130 60.513 24.629
53.646 60.970 25.116
52.986 61.014 26.842
53.248 61.034 27.856
53.691 60.945 28.929
54.178 60.907 29.618
54.598 60.433 30.363
54.328 61.574 23.614
53.956 61.610 24.649
54.368 62.042 24.124
53.510 61.431 25.898
53.591 61.650 27.005
53.820 61.791 27.733
54.042 61.679 28.451
54.264 61.415 29.170
54.426 62.184 25.149
54.246 62.127 26.402
54.267 62.144 27.341
54.478 58.039 29.293
54.607 58.082 28.524
55.227 57.649 28.986
55.379 57.412 30.057
54.465 58.128 30.055
54.837 58.091 30.694
54.550 59.150 26.305
55.133 58.732 26.713
54.720 58.385 27.671
54.614 58.786 31.020
54.754 60.628 22.978
54.946 60.506 22.627
54.901 60.417 22.787
54.979 60.331 22.972
54.227 60.042 25.174
54.643 60.048 24.652
54.776 59.694 25.196
54.952 59.344 25.728
54.672 59.307 31.185
54.726 59.804 31.005
55.205 59.436 31.338
54.931 60.811 22.513
55.292 60.910 22.157
55.282 60.488 22.370
54.647 61.171 22.909
54.824 60.301 23.730
55.528 60.848 30.418
54.934 61.327 29.700
55.330 60.132 30.988
55.026 61.221 22.383
54.900 61.721 22.777
54.637 62.064 23.462
55.104 62.216 23.125
54.301 62.091 27.975
54.621 62.105 28.386
54.753 61.846 28.938
55.010 62.418 24.020
55.393 62.670 25.104
55.122 62.509 26.072
54.999 62.420 27.024
54.979 62.310 27.900
56.009 56.903 30.277
56.150 56.908 29.974
56.557 56.743 30.301
56.090 56.997 30.607
55.172 57.908 28.267
55.574 57.989 27.842
55.986 57.588 28.449
56.085 57.184 29.357
55.611 57.543 30.900
55.274 58.264 31.230
56.113 57.777 31.283
55.291 59.019 26.101
55.606 59.125 25.642
56.252 58.711 26.102
55.966 58.262 27.205
55.044 58.901 31.368
55.857 58.702 31.445
55.088 60.334 22.680
55.373 59.663 24.489
55.375 59.393 25.227
56.020 59.585 31.313
55.779 60.652 21.955
55.717 60.303 22.238
55.509 60.121 22.801
55.643 59.783 23.593
56.457 60.995 30.277
55.823 61.408 29.867
56.229 60.334 30.889
55.733 61.417 21.964
55.475 62.039 22.569
56.081 62.066 22.255
55.180 62.160 28.568
55.662 61.874 29.162
55.985 62.492 23.195
55.803 62.758 24.355
55.839 62.863 24.952
56.235 62.914 24.803
55.919 62.847 25.340
56.086 62.724 25.941
55.914 62.552 26.851
55.703 62.438 27.574
55.951 62.234 28.357
56.119 62.917 25.166
56.866 56.822 29.749
57.423 56.706 30.229
56.873 56.856 30.719
56.308 57.192 31.011
56.972 57.296 31.109
56.218 57.858 27.813
56.760 57.582 28.175
57.085 57.177 28.930
56.861 58.059 31.362
56.161 59.122 24.990
56.897 58.986 24.306
57.417 58.680 25.146
57.435 58.455 26.185
57.125 58.238 26.905
56.928 57.885 27.621
56.804 58.947 31.395
56.416 60.117 22.075
57.151 60.421 21.405
57.437 59.835 21.848
57.068 59.537 22.507
56.327 59.626 23.022
57.150 59.148 23.376
56.250 59.354 23.960
56.900 59.727 31.179
56.475 60.818 21.444
56.785 61.039 21.110
57.042 60.856 21.122
57.334 61.019 29.952
56.595 61.584 29.556
57.253 60.316 30.670
56.622 61.330 21.343
56.514 61.797 21.753
57.337 61.658 21.496
56.447 61.979 28.958
57.024 61.806 29.090
56.952 62.039 28.550
57.035 62.309 22.309
57.184 62.735 23.252
56.753 62.854 24.210
56.746 62.928 24.939
57.132 62.767 25.885
56.390 62.876 25.497
56.972 62.558 26.743
56.738 62.332 27.689
56.431 62.934 25.170
57.895 56.846 29.616
58.317 56.784 30.090
57.879 56.938 30.650
57.765 57.545 31.073
57.643 57.496 28.269
58.337 57.159 29.013
57.663 58.382 31.224
57.573 58.805 24.081
57.966 58.867 23.439
58.525 58.621 24.236
58.500 58.482 25.371
58.152 58.426 25.976
58.338 58.182 26.873
57.935 57.854 27.607
57.549 59.193 31.217
57.803 60.212 21.421
58.137 59.813 21.740
58.044 59.290 22.515
57.546 59.714 31.053
57.899 59.402 31.053
58.018 59.711 30.768
57.094 61.163 21.117
57.769 60.907 21.251
57.356 61.482 29.412
58.044 61.053 29.461
57.679 61.624 28.918
58.191 60.287 30.145
58.393 61.660 21.586
57.786 61.905 28.212
58.051 62.201 22.007
58.346 62.752 22.842
57.969 62.896 23.932
56.842 62.901 25.343
57.626 62.862 25.083
57.958 62.726 25.836
58.130 62.509 26.518
57.863 62.233 27.409
59.111 57.059 29.588
58.976 56.993 30.150
58.510 57.241 30.693
59.106 57.400 30.360
59.022 58.042 27.343
59.145 58.179 27.046
59.458 58.070 27.437
59.363 57.913 27.712
58.758 57.484 28.445
59.266 57.325 29.235
58.471 57.866 30.854
59.054 58.161 30.426
58.608 58.851 23.187
59.119 59.166 22.632
59.409 58.760 23.410
59.523 58.576 24.310
59.326 58.481 25.206
59.186 58.358 26.362
58.823 57.847 27.693
58.340 58.874 30.873
58.989 58.870 30.418
58.474 60.320 21.478
58.858 59.740 21.979
58.661 59.453 30.442
59.095 59.188 30.209
59.012 59.686 29.928
58.808 61.035 21.472
58.759 60.450 29.509
58.766 61.134 28.691
59.131 61.631 21.711
58.866 62.074 27.202
59.744 61.934 26.841
59.103 62.332 26.546
58.598 61.790 27.885
59.567 61.398 27.734
59.137 62.295 22.275
59.074 62.923 22.711
59.388 62.881 22.765
59.083 63.045 22.995
59.187 62.887 23.624
58.740 62.841 24.623
58.914 62.622 25.687
59.270 63.085 22.858
59.570 57.348 29.091
60.022 57.583 28.683
59.723 57.179 29.444
59.994 57.378 29.371
59.600 57.188 29.832
59.753 58.235 27.239
59.972 57.998 27.835
60.395 58.370 27.555
59.462 57.657 28.252
59.880 57.839 29.325
59.705 57.294 29.545
59.490 57.539 29.817
59.793 59.092 22.822
60.095 58.927 23.232
60.138 58.770 23.918
60.208 58.656 24.987
60.051 58.509 26.089
60.271 58.500 27.130
59.458 58.735 29.859
59.961 58.908 29.213
59.308 60.450 21.756
59.892 59.808 22.389
59.572 59.893 29.161
60.184 59.452 28.788
60.146 60.015 28.579
59.538 61.224 21.801
59.969 60.749 22.123
59.829 60.606 28.417
60.278 60.283 28.265
60.331 60.663 27.835
59.537 61.743 21.962
60.088 61.629 22.443
59.678 62.300 26.211
60.416 61.937 26.075
59.937 62.402 25.637
60.509 61.257 26.968
59.397 63.003 23.050
59.846 62.542 23.096
59.932 62.661 23.819
59.871 62.588 24.681
60.115 57.426 29.095
60.557 58.344 27.521
60.439 58.029 28.122
60.333 57.917 28.708
60.626 58.249 28.060
60.286 59.284 22.895
60.670 59.233 23.520
60.748 59.015 24.408
60.833 58.955 25.196
60.651 58.750 25.984
60.542 58.540 26.867
60.597 58.529 27.383
60.712 58.534 27.612
60.569 58.602 27.947
60.784 59.013 27.410
60.328 58.712 28.717
60.703 59.801 22.974
61.101 59.817 23.541
61.155 59.575 24.207
61.128 59.318 24.913
60.567 59.692 28.057
60.994 59.844 27.278
60.638 60.682 22.741
61.113 60.326 23.298
60.857 60.463 27.308
61.180 60.268 26.809
61.078 60.778 26.659
60.804 61.457 23.019
60.554 61.991 23.151
60.968 61.733 23.535
60.469 62.241 25.299
60.964 61.754 25.242
60.701 62.166 24.690
61.043 61.236 26.018
60.532 62.264 23.882
60.706 58.356 27.695
61.131 59.300 25.808
60.849 58.789 26.965
61.359 60.381 24.073
61.363 59.961 25.109
61.349 59.836 25.894
61.176 59.648 26.620
61.188 61.055 23.536
61.393 61.030 24.183
61.349 60.948 24.981
61.326 60.413 26.026
61.140 61.619 24.277
3 2 1 0
3 4 3 0
3 0 3 2
3 4 5 3
3 8 7 6
3 8 6 1
3 6 0 1
3 6 9 0
3 0 10 4
3 0 9 10
3 5 4 11
3 11 4 10
3 6 7 12
3 12 7 13
3 15 9 14
3 9 12 14
3 9 6 12
3 9 15 10
3 10 15 16
3 10 16 11
3 13 17 12
3 12 17 14
3 19 18 2
3 2 18 1
3 20 2 3
3 20 19 2
3 22 21 5
3 21 3 5
3 21 20 3
3 24 23 22
3 22 23 21
3 24 25 23
3 27 26 8
3 8 26 7
3 8 1 18
3 8 18 27
3 11 28 22
3 11 22 5
3 22 29 24
3 22 28 29
3 25 24 30
3 30 24 29
3 33 32 31
3 35 34 31
3 31 34 33
3 26 34 35
3 13 26 35
3 7 26 13
3 14 36 15
3 37 16 15
3 37 15 36
3 28 11 16
3 37 28 16
3 38 28 37
3 40 29 39
3 29 38 39
3 29 28 38
3 29 40 30
3 32 41 31
3 43 42 41
3 42 31 41
3 42 35 31
3 44 17 13
3 35 44 13
3 42 44 35
3 36 14 17
3 44 36 17
3 45 36 44
3 47 37 46
3 37 45 46
3 37 36 45
3 37 47 38
3 38 47 48
3 38 48 39
3 43 49 42
3 42 49 44
3 44 49 50
3 44 50 45
3 45 50 51
3 45 51 46
3 54 53 52
3 56 55 52
3 52 55 54
3 56 57 55
3 59 58 19
3 19 58 18
3 60 19 20
3 60 59 19
3 21 52 53
3 60 21 53
3 20 21 60
3 52 21 23
3 52 23 56
3 23 25 56
3 25 57 56
3 25 61 57
3 64 63 62
3 62 65 64
3 68 67 66
3 26 27 66
3 27 68 66
3 27 69 68
3 27 18 58
3 27 58 69
3 30 71 70
3 61 30 70
3 25 30 61
3 71 72 70
3 75 74 73
3 75 73 63
3 73 62 63
3 73 76 62
3 33 77 32
3 77 62 32
3 62 76 32
3 62 77 65
3 34 66 67
3 77 34 67
3 33 34 77
3 66 34 26
3 79 78 40
3 79 40 39
3 30 40 71
3 40 80 71
3 40 78 80
3 71 80 72
3 74 81 73
3 73 81 76
3 76 81 82
3 82 84 83
3 82 83 41
3 76 82 41
3 32 76 41
3 83 43 41
3 46 85 47
3 47 85 86
3 87 47 86
3 48 47 87
3 39 48 79
3 79 48 87
3 84 88 83
3 83 88 43
3 88 49 43
3 88 89 49
3 49 90 50
3 89 90 49
3 50 91 51
3 90 91 50
3 46 51 85
3 51 92 85
3 51 91 92
3 85 92 86
3 95 94 93
3 93 96 95
3 99 98 97
3 53 54 97
3 54 99 97
3 54 100 99
3 55 93 94
3 100 55 94
3 54 55 100
3 102 101 57
3 57 101 55
3 101 96 55
3 96 93 55
3 102 103 101
3 106 105 104
3 58 59 104
3 59 106 104
3 59 107 106
3 60 97 98
3 107 60 98
3 59 60 107
3 97 60 53
3 61 108 102
3 61 102 57
3 103 102 109
3 109 102 108
3 110 63 64
3 65 110 64
3 112 111 68
3 68 111 67
3 69 104 105
3 112 69 105
3 68 69 112
3 104 69 58
3 70 108 61
3 70 72 108
3 72 109 108
3 72 113 109
3 115 114 75
3 75 114 74
3 75 63 110
3 116 75 110
3 115 75 116
3 116 110 65
3 77 116 65
3 117 116 77
3 77 67 111
3 77 111 117
3 119 118 78
3 119 78 79
3 78 120 80
3 118 120 78
3 72 80 113
3 113 80 120
3 114 121 74
3 74 121 81
3 121 123 122
3 82 121 122
3 81 121 82
3 122 84 82
3 86 124 87
3 124 125 87
3 125 79 87
3 125 119 79
3 123 126 122
3 122 126 84
3 126 88 84
3 126 127 88
3 127 129 128
3 89 127 128
3 88 127 89
3 89 128 130
3 131 89 130
3 90 89 131
3 90 132 91
3 131 132 90
3 91 133 92
3 132 133 91
3 86 92 124
3 92 134 124
3 92 133 134
3 124 134 125
3 129 135 128
3 128 135 130
3 137 136 95
3 95 136 94
3 139 138 96
3 138 95 96
3 138 137 95
3 139 140 138
3 141 98 99
3 141 99 142
3 99 143 142
3 99 100 143
3 100 94 136
3 100 136 143
3 101 139 96
3 101 103 139
3 103 140 139
3 103 144 140
3 147 146 145
3 105 106 145
3 106 147 145
3 106 148 147
3 149 106 107
3 149 148 106
3 107 98 141
3 150 107 141
3 149 107 150
3 150 141 142
3 109 144 103
3 109 151 144
3 154 153 152
3 156 155 152
3 152 155 154
3 158 157 156
3 156 157 155
3 157 158 146
3 146 158 145
3 158 111 145
3 111 112 145
3 145 112 105
3 113 151 109
3 113 159 151
3 162 161 160
3 162 160 153
3 153 160 152
3 160 114 152
3 114 115 152
3 152 115 116
3 152 116 156
3 156 116 117
3 156 117 158
3 158 117 111
3 164 163 118
3 164 118 119
3 118 165 120
3 163 165 118
3 113 120 159
3 159 120 165
3 161 166 160
3 166 168 167
3 166 167 121
3 160 166 121
3 114 160 121
3 167 123 121
3 171 170 169
3 170 164 169
3 164 125 169
3 164 119 125
3 168 172 167
3 167 172 123
3 172 126 123
3 172 173 126
3 126 174 127
3 173 174 126
3 129 127 174
3 129 174 175
3 177 176 131
3 177 131 130
3 131 178 132
3 176 178 131
3 132 179 133
3 178 179 132
3 169 134 171
3 134 179 171
3 134 133 179
3 134 169 125
3 175 180 129
3 129 180 135
3 130 135 177
3 177 135 180
3 182 181 137
3 137 181 136
3 183 137 138
3 183 182 137
3 138 140 183
3 183 140 184
3 186 185 143
3 143 185 142
3 143 136 181
3 143 181 186
3 144 184 140
3 144 187 184
3 190 189 188
3 146 147 188
3 147 190 188
3 147 191 190
3 192 147 148
3 192 191 147
3 193 148 149
3 193 192 148
3 194 149 150
3 194 193 149
3 150 142 185
3 150 185 194
3 151 187 144
3 151 195 187
3 197 196 154
3 154 196 153
3 198 154 155
3 198 197 154
3 157 188 189
3 198 157 189
3 155 157 198
3 188 157 146
3 201 200 199
3 200 195 199
3 195 159 199
3 195 151 159
3 202 161 162
3 203 202 162
3 153 203 162
3 196 203 153
3 206 205 204
3 163 164 204
3 205 163 204
3 207 163 205
3 199 165 201
3 165 207 201
3 165 163 207
3 165 199 159
3 202 166 161
3 168 166 202
3 203 168 202
3 208 168 203
3 206 204 170
3 171 206 170
3 209 206 171
3 170 204 164
3 208 210 168
3 168 210 172
3 172 211 173
3 210 211 172
3 173 212 174
3 211 212 173
3 214 213 175
3 174 214 175
3 212 214 174
3 176 177 213
3 214 176 213
3 215 176 214
3 176 216 178
3 215 216 176
3 178 217 179
3 216 217 178
3 171 179 209
3 209 179 217
3 213 180 175
3 180 213 177
3 219 218 182
3 182 218 181
3 221 219 220
3 219 183 220
3 219 182 183
3 184 220 183
3 224 223 222
3 222 225 224
3 227 226 186
3 186 226 185
3 186 181 218
3 186 218 227
3 221 220 228
3 221 228 229
3 187 228 184
3 184 228 220
3 232 231 230
3 189 190 230
3 190 232 230
3 190 233 232
3 234 190 191
3 234 233 190
3 235 191 192
3 235 234 191
3 193 222 223
3 235 193 223
3 192 193 235
3 236 225 222
3 193 236 222
3 194 236 193
3 194 185 226
3 194 226 236
3 229 228 237
3 229 237 238
3 195 237 187
3 187 237 228
3 240 239 197
3 197 239 196
3 198 230 231
3 240 198 231
3 197 198 240
3 230 198 189
3 243 242 241
3 241 242 238
3 241 238 237
3 201 241 237
3 200 201 237
3 200 237 195
3 239 203 196
3 244 203 239
3 246 245 205
3 246 205 206
3 241 207 243
3 207 245 243
3 207 205 245
3 207 241 201
3 244 208 203
3 247 208 244
3 250 249 248
3 252 251 248
3 252 248 249
3 252 246 251
3 246 209 251
3 246 206 209
3 247 253 208
3 208 253 210
3 253 255 254
3 211 253 254
3 210 253 211
3 211 254 256
3 257 211 256
3 212 211 257
3 212 258 214
3 257 258 212
3 214 259 215
3 258 259 214
3 248 216 250
3 216 259 250
3 216 215 259
3 216 248 217
3 217 248 251
3 217 251 209
3 255 260 254
3 254 260 256
3 263 262 261
3 261 218 263
3 218 219 263
3 265 264 263
3 265 263 219
3 221 265 219
3 266 223 224
3 268 266 267
3 266 224 267
3 225 269 267
3 225 267 224
3 267 269 262
3 262 269 261
3 269 226 261
3 226 227 261
3 264 271 270
3 271 261 270
3 227 270 261
3 270 227 272
3 218 272 227
3 272 218 271
3 271 265 272
3 264 265 271
3 271 218 261
3 229 272 221
3 221 272 265
3 274 273 232
3 232 273 231
3 275 232 233
3 275 274 232
3 276 233 234
3 276 275 233
3 277 234 235
3 277 276 234
3 235 223 266
3 278 235 266
3 277 235 278
3 225 236 269
3 266 268 278
3 269 236 226
3 270 272 279
3 270 279 280
3 238 279 229
3 229 279 272
3 281 239 240
3 282 281 240
3 231 282 240
3 273 282 231
3 285 284 283
3 283 284 280
3 283 280 279
3 243 283 279
3 242 243 279
3 242 279 238
3 286 244 281
3 281 244 239
3 281 282 287
3 281 287 286
3 290 289 288
3 288 289 285
3 288 285 283
3 246 288 283
3 245 246 283
3 245 283 243
3 291 247 286
3 286 247 244
3 286 287 292
3 286 292 291
3 295 294 293
3 249 250 293
3 294 249 293
3 296 249 294
3 288 252 290
3 252 296 290
3 252 249 296
3 252 288 246
3 291 253 247
3 298 297 255
3 298 255 253
3 292 298 253
3 291 292 253
3 257 256 297
3 298 257 297
3 299 257 298
3 257 300 258
3 299 300 257
3 293 259 295
3 259 300 295
3 259 258 300
3 259 293 250
3 297 260 255
3 260 297 256
3 301 262 263
3 264 301 263
3 303 302 267
3 267 302 268
3 303 267 262
3 304 303 262
3 301 304 262
3 303 304 305
3 270 304 264
3 264 304 301
3 306 273 274
3 275 307 274
3 274 307 306
3 276 308 275
3 275 308 307
3 308 276 309
3 276 310 309
3 276 277 310
3 311 277 278
3 311 310 277
3 302 312 268
3 312 313 268
3 314 268 313
3 268 314 278
3 315 278 314
3 278 315 312
3 312 311 278
3 302 311 312
3 312 315 313
3 314 313 305
3 304 314 305
3 316 314 304
3 280 316 270
3 270 316 304
3 317 282 306
3 306 282 273
3 307 319 318
3 317 307 318
3 306 307 317
3 319 307 308
3 319 308 320
3 320 308 309
3 315 314 321
3 315 321 322
3 285 321 284
3 321 316 284
3 321 314 316
3 284 316 280
3 324 323 317
3 323 282 317
3 323 287 282
3 324 317 318
3 327 326 325
3 325 326 322
3 325 322 321
3 290 325 321
3 289 290 321
3 289 321 285
3 329 292 328
3 292 323 328
3 292 287 323
3 330 329 328
3 333 332 331
3 294 295 331
3 332 294 331
3 334 294 332
3 325 296 327
3 296 334 327
3 296 294 334
3 296 325 290
3 329 298 292
3 330 335 329
3 335 298 329
3 335 299 298
3 331 300 333
3 300 335 333
3 300 299 335
3 300 331 295
3 336 302 303
3 305 336 303
3 337 309 310
3 311 338 310
3 310 338 337
3 311 302 338
3 302 336 338
3 313 315 338
3 313 338 336
3 313 336 305
3 339 318 319
3 320 340 319
3 319 340 339
3 309 337 320
3 337 340 320
3 337 341 340
3 342 337 338
3 341 337 342
3 322 342 315
3 315 342 338
3 343 323 324
3 318 339 324
3 339 343 324
3 339 344 343
3 345 339 340
3 344 339 345
3 346 340 341
3 345 340 346
3 327 346 326
3 346 342 326
3 346 341 342
3 326 342 322
3 343 328 323
3 328 343 330
3 343 347 330
3 343 344 347
3 333 347 332
3 347 345 332
3 347 344 345
3 332 345 334
3 334 345 346
3 334 346 327
3 347 335 330
3 335 347 333
