ply
format ascii 1.0
comment None
element vertex 22
property float x
property float y
property float z
element face 40
property list uchar int vertex_indices
end_header
59.550 62.030 31.814
59.567 62.015 31.804
59.564 62.018 31.806
59.570 62.013 31.803
59.546 62.033 31.817
59.568 62.014 31.804
59.550 62.029 31.814
59.546 62.032 31.816
59.597 61.990 31.787
59.631 61.963 31.767
59.624 61.968 31.771
59.608 61.982 31.781
59.615 61.975 31.776
59.643 61.952 31.760
59.643 61.952 31.760
59.584 62.002 31.795
59.634 61.960 31.765
59.606 61.983 31.782
59.564 62.018 31.806
59.636 61.958 31.764
59.640 61.955 31.762
59.620 61.972 31.774
3 2 1 0
3 0 3 2
3 0 1 4
3 4 1 5
3 3 0 6
3 6 0 4
3 5 7 4
3 4 7 6
3 10 9 8
3 8 11 10
3 14 13 12
3 14 12 9
3 9 12 8
3 12 1 8
3 1 2 8
3 2 3 8
3 3 11 8
3 3 15 11
3 13 16 12
3 5 1 12
3 17 5 12
3 16 17 12
3 5 17 18
3 17 15 18
3 15 6 18
3 15 3 6
3 18 7 5
3 7 18 6
3 19 9 10
3 11 19 10
3 20 13 14
3 9 19 14
3 19 20 14
3 19 21 20
3 15 21 11
3 11 21 19
3 20 16 13
3 16 20 17
3 17 20 21
3 17 21 15
