ply
format ascii 1.0
comment None
element vertex 924
property float x
property float y
property float z
element face 1844
property list uchar int vertex_indices
end_header
50.890 65.400 30.890
50.902 65.221 30.316
51.232 64.981 30.550
51.396 65.033 31.214
50.796 65.684 30.386
51.235 66.020 29.964
51.018 65.390 30.029
50.688 66.045 30.978
51.170 65.408 31.538
50.922 65.879 31.548
51.353 65.724 32.036
50.809 66.392 30.575
50.685 66.613 31.116
50.804 66.489 31.587
50.833 67.023 31.549
51.342 66.382 32.308
51.079 67.009 32.067
51.207 65.078 30.110
51.543 65.366 29.835
51.913 64.921 30.255
51.773 64.788 30.879
52.101 64.817 31.528
51.925 65.895 29.589
51.844 65.255 32.040
51.972 65.837 32.670
51.253 66.997 30.323
52.022 66.808 29.662
50.923 67.145 31.047
52.237 66.476 33.243
51.672 67.281 32.851
52.357 67.177 33.619
51.740 67.679 30.160
52.529 67.990 29.739
51.365 68.002 30.944
51.255 67.798 31.974
51.736 68.136 32.936
52.187 67.873 33.563
51.889 68.551 30.483
51.615 68.879 31.119
51.493 68.776 31.739
51.731 69.401 31.556
51.683 68.788 32.588
52.225 68.806 33.522
51.814 69.510 32.232
52.034 69.462 32.950
52.546 65.418 29.655
53.017 64.857 30.222
52.698 64.657 31.045
52.821 64.692 31.839
52.652 66.194 29.362
52.537 64.938 32.197
52.926 65.365 32.999
52.506 65.918 33.187
53.019 66.026 33.660
53.269 67.068 29.179
53.090 66.696 34.118
52.763 67.519 34.106
53.268 67.262 34.516
53.261 67.906 29.339
52.632 68.235 34.080
53.131 67.876 34.523
52.501 69.113 30.262
53.321 68.697 29.662
51.998 69.422 30.974
52.633 68.724 34.083
53.012 68.598 34.450
53.048 69.618 30.196
52.563 70.111 30.854
53.347 70.360 30.540
52.145 70.123 31.732
52.278 70.173 32.717
52.516 69.809 33.519
52.792 69.234 34.125
52.841 70.801 31.032
52.599 70.847 31.499
52.865 71.151 31.341
52.623 70.908 32.322
52.995 70.864 33.423
53.129 71.478 31.855
53.117 71.490 32.719
53.467 65.232 29.732
53.866 64.892 30.147
53.944 64.588 30.897
53.775 64.554 31.922
53.255 64.837 32.488
54.086 64.749 32.871
53.551 64.987 32.976
53.970 65.097 33.431
53.717 66.043 29.269
54.365 65.364 29.781
53.907 65.589 34.035
53.487 66.125 34.133
53.871 66.187 34.590
54.015 66.737 28.890
54.420 66.935 28.765
54.511 66.573 28.928
53.713 66.811 34.813
53.611 67.468 34.917
54.004 67.038 35.290
54.075 67.167 28.863
53.982 67.814 29.152
53.527 68.250 34.932
53.960 67.707 35.408
54.321 68.671 29.529
53.472 69.305 34.794
53.997 68.668 35.467
53.775 69.516 29.947
54.170 70.054 30.230
53.115 70.087 34.174
53.707 70.353 34.764
54.288 69.953 35.524
53.291 71.113 31.114
54.223 70.794 30.752
53.447 70.789 34.251
53.873 71.023 34.635
54.190 70.820 35.073
53.895 71.566 31.434
53.790 71.990 32.023
54.450 72.057 31.878
53.629 71.992 32.625
53.624 71.762 33.399
53.740 71.396 34.132
54.302 72.320 32.546
54.299 72.281 33.347
54.705 64.848 30.413
55.108 64.477 31.104
54.720 64.378 31.681
55.128 64.372 32.676
54.864 64.784 33.651
54.422 65.156 33.902
54.829 65.126 34.414
54.822 65.347 37.992
54.953 65.148 37.452
55.035 64.777 37.885
55.005 64.739 38.473
54.855 65.288 38.630
55.033 64.943 39.072
54.983 66.163 29.413
55.523 65.406 30.129
54.558 65.613 34.942
54.318 66.304 35.393
54.915 65.472 35.860
54.654 66.070 36.324
55.005 65.279 36.774
54.742 65.835 37.249
54.695 65.914 37.820
54.746 65.949 38.388
54.956 65.631 39.138
54.750 66.939 28.816
55.006 66.752 29.024
54.332 67.029 35.972
54.567 66.625 36.781
54.649 66.662 37.657
54.774 66.684 38.456
54.895 66.357 38.963
54.575 67.304 28.877
54.983 67.791 29.267
54.262 67.976 35.954
54.548 67.697 36.803
54.714 67.597 37.645
54.798 67.277 38.202
55.211 68.622 29.665
54.522 68.944 36.230
54.799 68.755 36.955
54.803 68.259 37.423
54.644 69.374 29.884
55.078 69.919 30.292
54.736 69.831 36.174
55.163 69.850 36.818
55.230 70.637 30.736
54.404 71.526 34.824
54.741 71.066 35.496
55.023 70.570 36.108
55.017 71.395 31.299
55.149 72.056 31.898
54.328 72.007 34.130
54.909 72.098 34.762
55.123 71.809 35.346
55.010 72.391 32.419
55.053 72.525 33.223
55.152 72.424 34.222
55.529 72.263 35.140
55.660 62.345 39.202
55.942 62.131 38.606
55.875 61.787 39.028
55.864 61.681 39.478
55.690 62.162 39.784
55.894 61.825 40.086
55.642 63.111 38.447
56.086 62.959 37.701
56.005 62.529 38.174
55.469 63.190 39.302
55.586 62.838 39.864
55.823 62.479 40.375
55.972 64.139 33.153
56.124 63.939 32.682
56.519 63.811 33.280
56.309 64.075 33.623
55.714 63.796 37.416
56.117 63.795 36.640
56.141 63.383 37.196
55.289 64.164 38.114
55.275 64.114 39.057
55.493 63.811 39.943
55.814 63.396 40.614
55.550 64.788 30.684
56.111 64.459 31.210
55.786 64.150 31.900
55.750 64.367 33.639
55.702 64.550 34.583
55.289 64.964 35.321
55.995 64.286 35.698
55.492 64.609 36.436
55.242 64.615 37.350
55.378 65.109 39.948
55.832 64.466 40.796
56.038 66.244 29.861
56.591 65.737 30.332
56.377 65.028 30.709
55.234 66.324 39.687
55.903 65.432 40.947
55.798 66.341 40.677
56.417 66.143 41.502
55.020 67.156 28.992
55.557 66.987 29.406
55.126 67.331 39.053
55.660 67.271 40.140
56.063 67.225 40.853
56.288 66.876 41.253
55.978 67.867 29.745
55.069 68.250 38.227
55.365 68.268 38.952
55.782 68.322 39.653
56.299 68.042 40.631
55.839 68.656 29.900
55.377 69.177 29.954
56.080 69.117 30.227
55.153 69.120 37.579
55.373 69.091 38.164
55.759 69.150 38.806
56.346 69.266 39.601
56.310 68.760 40.124
55.998 69.930 30.585
55.471 69.850 37.466
55.747 69.812 38.017
56.439 70.172 38.562
56.390 69.795 39.079
55.826 70.543 30.841
55.520 70.905 30.979
56.198 70.825 31.287
55.403 71.450 35.928
55.804 71.102 36.575
55.959 70.550 37.393
56.360 70.550 37.990
55.591 72.250 32.296
55.962 71.702 31.928
56.184 72.137 32.543
55.657 71.988 35.689
55.943 71.792 36.099
55.829 72.467 32.996
55.908 72.567 33.956
56.057 72.465 34.902
56.120 72.196 35.677
56.560 60.362 39.383
56.864 60.500 38.561
56.951 59.806 38.954
56.836 59.618 39.693
56.553 60.268 40.249
56.818 59.709 40.477
56.275 61.294 38.886
56.793 61.215 38.160
56.214 61.136 39.991
56.728 60.212 40.922
56.579 60.998 41.028
56.905 60.549 41.477
56.458 62.079 37.937
56.988 62.188 37.276
57.045 61.591 37.631
56.253 62.015 40.875
56.989 61.167 41.798
56.865 61.950 41.742
57.438 61.688 42.320
56.794 63.447 32.910
57.183 63.062 32.589
57.335 62.761 33.183
57.074 63.300 33.563
56.599 62.968 37.002
57.031 63.065 36.341
57.166 62.547 36.768
56.141 62.965 41.058
56.712 63.042 41.766
57.480 62.827 42.362
56.625 63.657 32.318
56.869 63.954 31.756
57.185 63.395 32.177
56.805 63.727 33.937
56.387 64.100 34.258
57.006 63.581 34.747
56.513 63.968 35.155
57.089 63.339 35.628
56.603 63.614 36.078
56.402 64.027 41.564
56.886 63.869 42.107
57.232 63.616 42.307
57.094 64.601 31.217
56.341 65.124 41.535
56.952 64.381 42.178
56.885 64.961 42.060
57.425 64.757 42.397
56.773 66.336 30.154
57.272 66.153 30.455
57.380 65.407 30.807
56.831 65.676 41.953
57.477 65.672 42.257
56.570 66.955 29.954
57.140 66.649 30.251
56.477 67.506 41.224
56.844 67.071 41.619
57.117 66.381 41.981
56.969 67.594 30.204
56.406 68.351 30.072
56.963 68.417 30.402
56.641 67.918 41.134
56.864 67.719 41.375
56.796 69.163 30.598
56.572 69.122 40.061
56.739 68.804 40.417
56.989 68.244 40.991
56.722 69.694 30.807
56.359 70.201 30.898
57.137 69.874 31.218
56.726 70.163 38.941
56.868 69.914 39.289
57.008 69.405 39.902
57.207 70.498 31.697
56.480 71.297 37.024
56.751 71.086 37.587
56.979 70.838 38.150
57.303 70.466 38.651
56.761 71.142 31.908
56.551 72.228 33.060
57.031 71.597 32.697
57.052 72.079 33.497
57.219 71.575 36.912
56.545 71.826 36.343
57.425 71.270 37.658
56.580 72.417 33.738
56.695 72.426 34.654
56.719 72.262 35.552
57.746 57.324 38.485
57.968 57.455 37.538
57.944 56.717 37.850
57.902 56.504 38.696
57.709 57.218 39.488
58.009 56.478 39.719
57.891 57.234 40.457
58.192 56.652 40.511
57.959 58.303 32.250
58.401 58.374 31.755
58.155 57.893 32.099
58.041 57.838 32.503
57.830 58.411 32.697
57.965 58.044 33.042
57.710 58.194 38.213
58.060 58.367 37.290
57.489 58.073 39.267
57.566 58.024 40.354
58.298 57.317 41.201
57.924 58.079 41.346
58.267 57.953 41.752
57.891 59.163 32.404
58.294 59.368 31.830
57.795 58.872 32.959
57.878 58.497 33.203
57.778 59.092 37.846
58.151 59.161 37.112
57.302 59.032 38.912
57.183 58.967 40.192
57.543 58.933 41.281
58.195 58.429 41.981
58.011 59.039 42.027
58.449 58.959 42.292
57.990 59.683 32.106
57.978 60.244 32.352
57.821 60.029 32.926
57.803 59.368 33.039
57.882 59.812 33.435
57.959 60.075 37.252
58.325 60.189 36.480
58.323 59.560 36.642
57.372 59.848 38.223
57.130 59.820 41.282
57.728 59.949 42.190
58.375 60.052 42.562
57.850 61.034 32.885
58.233 61.300 32.323
57.895 60.636 33.526
58.097 61.007 36.540
58.221 61.366 35.674
58.369 60.585 35.960
57.798 60.916 37.155
57.363 60.820 37.729
57.387 60.716 42.142
58.020 60.481 42.745
57.804 60.654 42.647
57.995 60.819 42.865
57.711 62.168 32.719
58.239 62.261 32.275
57.756 61.785 33.523
57.893 61.991 36.015
58.006 62.109 35.321
57.529 61.730 36.942
57.941 61.196 42.703
58.092 62.159 42.645
57.667 62.870 32.305
57.789 63.449 31.954
58.172 62.869 32.125
57.564 62.616 33.902
57.351 63.143 34.329
57.814 62.442 34.660
57.582 62.812 35.272
57.446 62.631 36.178
58.205 63.097 42.623
57.705 64.112 31.588
57.267 64.164 42.386
57.893 64.022 42.519
58.168 64.815 31.300
58.084 65.137 42.422
57.812 66.048 30.729
58.172 65.619 30.997
58.207 66.038 42.203
57.144 67.004 30.222
57.641 66.811 30.521
57.400 67.008 41.889
57.742 66.557 42.089
57.596 68.509 30.813
57.690 67.691 30.623
58.373 67.748 31.057
57.829 67.201 41.785
57.403 67.658 41.482
57.313 69.214 30.936
58.213 68.808 31.426
57.633 68.316 40.939
57.371 68.889 40.450
57.904 69.809 31.798
57.687 69.391 39.870
57.556 69.920 39.297
57.773 70.363 32.074
57.415 70.892 32.209
57.616 71.047 32.606
57.966 70.589 32.548
57.912 71.023 33.119
57.574 71.002 38.077
58.139 70.775 37.911
57.913 71.198 37.676
58.138 70.235 38.589
57.261 72.131 34.312
57.637 71.629 33.753
57.346 72.093 35.301
57.910 71.631 34.828
57.205 71.963 36.102
57.878 71.606 36.059
57.923 71.390 37.085
58.662 54.252 37.364
58.800 54.066 36.520
58.993 53.625 36.990
59.165 53.529 37.828
58.799 54.158 38.424
59.197 53.739 38.635
59.017 54.147 39.095
59.390 53.907 39.138
58.688 55.201 35.320
59.060 54.842 34.557
59.007 54.510 35.145
58.909 54.303 35.754
58.531 54.879 36.409
58.343 55.066 37.286
58.411 54.923 38.180
58.686 54.862 39.273
59.256 54.506 39.708
58.733 56.325 33.158
59.179 56.019 32.316
59.218 55.501 32.906
59.106 55.283 33.644
58.681 55.975 34.384
58.501 56.178 35.294
58.392 55.879 36.069
58.269 55.629 36.849
58.127 55.842 37.790
58.215 55.699 38.970
58.965 55.178 40.093
58.520 55.898 40.160
59.133 55.786 40.655
58.841 56.339 40.872
59.240 56.413 41.046
58.627 57.186 32.085
59.223 57.009 31.376
59.358 56.392 31.669
58.266 57.429 33.078
58.429 57.134 34.026
58.466 56.983 35.002
58.364 56.849 35.905
58.165 56.568 36.909
58.519 56.627 40.863
58.953 57.177 41.326
58.986 57.707 31.304
59.484 58.027 30.897
59.591 57.329 30.979
58.163 58.251 33.852
58.404 57.940 34.833
58.414 57.796 35.713
58.241 57.630 36.614
58.619 57.868 41.794
58.450 58.321 42.080
58.793 58.575 42.143
59.000 58.374 31.173
59.045 59.088 31.333
57.944 59.111 33.554
58.203 59.169 34.271
58.375 58.872 34.873
58.453 58.595 35.537
58.355 58.689 36.402
58.898 59.448 42.364
58.208 59.957 31.961
58.802 59.908 31.673
58.107 60.014 34.155
58.340 59.659 34.862
58.434 59.612 35.770
58.978 60.331 42.482
58.453 60.524 31.992
59.163 60.551 31.751
58.049 61.132 34.251
58.306 60.599 35.111
58.208 60.804 42.834
58.665 61.287 42.637
58.791 61.061 31.998
59.039 61.712 32.074
57.902 61.968 34.246
58.120 61.648 34.894
58.766 62.596 42.551
58.482 63.176 31.977
58.888 62.608 32.075
58.709 63.642 42.482
58.687 63.845 31.746
59.014 63.162 31.950
58.664 64.612 42.356
59.092 64.665 31.542
58.708 65.523 42.162
58.362 66.306 30.924
58.960 65.590 31.309
58.751 66.318 41.852
59.086 65.864 41.742
59.112 66.411 41.429
58.271 67.059 30.855
59.011 66.760 31.266
58.841 67.085 41.213
59.245 66.748 40.916
59.173 67.314 40.525
58.294 66.855 41.813
59.164 67.700 31.562
58.830 68.008 40.329
59.262 67.703 39.899
59.148 68.272 39.527
58.172 67.743 41.185
59.235 68.371 32.051
58.702 69.320 32.302
59.302 68.850 32.626
58.791 68.839 39.506
59.179 68.684 38.962
58.936 69.310 38.694
58.140 68.750 40.257
58.230 70.035 32.339
59.128 69.361 32.990
58.609 70.154 33.158
58.935 70.331 34.305
59.251 69.639 33.737
59.332 69.878 34.506
58.301 69.565 39.253
58.673 69.877 38.444
58.330 70.984 34.080
59.122 70.325 35.040
58.594 70.965 35.269
58.480 71.086 36.471
59.020 70.494 35.857
58.301 71.087 37.281
58.798 70.556 36.947
58.719 70.226 37.808
59.672 53.167 36.185
60.046 53.208 35.694
60.100 52.946 36.243
59.924 52.892 36.846
59.429 53.135 37.042
59.771 52.883 37.421
59.573 53.069 37.743
59.829 52.976 37.819
59.533 53.870 35.177
60.091 53.913 34.354
60.535 53.485 35.109
59.177 53.607 36.248
59.831 53.462 38.423
59.819 54.157 39.455
59.629 54.867 33.188
59.693 55.282 32.517
60.138 54.771 32.856
60.261 54.295 33.576
59.580 54.451 34.018
59.722 54.676 40.020
59.430 55.130 40.326
59.919 55.161 40.288
59.779 55.754 31.914
59.713 55.778 40.654
59.408 56.047 40.911
59.842 56.591 31.210
59.812 56.108 31.518
59.596 56.322 40.962
59.597 56.974 41.101
60.090 57.667 30.740
60.140 57.064 30.864
59.049 58.088 41.805
59.590 58.041 41.398
59.426 58.609 30.950
60.055 58.411 30.767
59.276 58.870 41.974
59.801 59.197 41.525
59.763 59.011 30.996
60.069 59.820 31.388
59.406 59.849 42.107
59.879 60.237 41.581
59.795 60.721 31.699
59.340 61.098 31.878
60.063 61.316 31.896
59.401 60.860 42.188
59.884 61.265 41.576
59.949 62.248 32.059
59.365 61.950 42.180
59.867 62.291 41.500
59.502 62.856 32.011
59.576 63.391 31.920
60.095 62.930 32.041
59.377 63.142 42.048
59.863 63.121 41.370
59.715 64.126 31.795
59.653 64.031 41.456
60.036 63.484 40.863
59.994 64.240 40.569
59.164 64.121 42.125
59.833 65.023 31.688
59.692 65.004 40.916
59.948 64.969 40.217
59.233 65.032 41.776
59.830 66.021 31.677
59.771 65.810 40.094
60.024 65.313 39.672
59.965 65.906 39.317
59.410 65.970 41.055
59.775 66.950 31.769
59.855 67.264 38.304
60.100 66.855 37.930
60.004 67.555 37.478
59.776 66.685 39.225
60.035 66.370 38.623
59.478 66.883 40.114
59.715 67.517 31.878
59.514 67.843 31.866
59.776 67.858 32.223
59.707 68.152 37.824
59.887 68.220 37.070
59.495 67.846 38.983
59.538 68.965 33.282
59.692 68.372 32.721
59.656 69.226 34.278
59.946 68.465 33.555
59.739 69.243 35.289
60.077 68.540 34.564
59.677 69.206 36.223
60.056 68.570 35.553
59.581 68.952 37.189
59.949 68.487 36.409
59.361 68.819 38.217
59.421 69.864 35.176
59.357 69.906 36.081
59.241 69.805 37.008
59.115 69.579 37.873
60.456 53.085 35.941
60.457 52.968 36.640
60.225 53.020 37.513
60.623 53.837 34.216
61.091 54.150 33.850
61.118 53.739 34.533
61.255 53.567 35.214
61.115 53.353 36.153
60.877 53.222 37.141
60.895 53.611 38.062
60.540 54.144 39.068
61.398 54.421 38.666
60.446 55.195 32.306
60.770 54.604 33.037
60.934 54.940 39.470
61.545 55.297 39.043
60.247 54.740 39.834
60.398 55.947 31.567
61.139 56.283 31.431
61.239 55.595 32.077
61.165 55.622 39.580
61.126 56.342 39.679
60.492 55.712 40.129
60.555 56.617 31.062
60.646 57.254 30.799
61.085 56.875 31.053
60.636 56.868 40.200
61.156 57.262 39.574
60.040 56.505 40.704
60.657 57.928 30.724
60.722 57.999 40.096
61.178 58.042 39.400
60.149 57.481 40.770
60.670 58.504 30.795
60.331 58.964 30.932
61.044 58.928 31.142
61.000 58.902 39.538
61.394 58.443 38.951
61.390 59.233 38.749
60.589 58.954 40.301
60.209 58.541 40.858
61.244 59.670 31.490
61.003 59.965 39.336
61.380 60.272 38.521
60.649 59.773 40.145
60.265 59.552 40.897
60.399 60.677 31.681
61.135 60.405 31.708
60.949 60.974 39.250
61.241 61.354 38.584
60.638 60.741 40.042
60.293 60.532 40.856
60.846 61.011 31.847
61.035 61.633 32.101
60.861 61.946 39.236
61.134 62.368 38.616
60.591 61.701 39.963
60.275 61.530 40.789
60.394 63.524 32.029
60.964 62.703 32.236
60.742 62.928 39.238
61.013 63.410 38.574
60.554 62.504 39.830
60.235 62.584 40.652
60.574 64.402 32.013
61.248 63.691 32.335
60.597 64.031 39.087
60.893 64.233 38.457
60.342 63.459 40.016
60.611 65.387 32.062
61.395 64.715 32.465
60.634 65.030 38.404
60.958 64.625 38.162
61.027 65.119 37.741
60.405 64.741 39.059
60.215 64.572 39.681
60.531 66.434 32.308
61.234 65.702 32.602
60.727 66.031 37.432
61.083 65.650 37.276
61.098 66.156 36.718
60.328 66.106 38.106
60.220 65.417 38.985
60.135 67.296 32.301
61.184 66.414 33.086
60.658 67.174 33.132
60.861 67.332 34.160
61.164 66.847 33.719
61.303 66.835 34.487
60.644 67.096 36.340
61.102 66.697 36.007
60.918 67.165 35.529
60.321 66.920 37.310
60.131 67.839 32.904
60.391 67.872 33.852
60.993 67.229 34.903
60.537 67.762 35.081
60.275 67.971 35.983
60.177 67.744 36.722
61.440 53.976 34.332
61.611 53.892 34.852
61.712 53.769 35.652
61.788 53.775 36.414
61.545 53.686 37.224
61.609 53.980 38.006
61.960 54.142 37.651
61.163 55.001 32.666
61.496 54.726 33.388
61.798 54.425 34.346
62.059 54.309 35.344
62.093 54.146 36.103
61.904 54.391 38.141
61.959 55.012 38.368
61.669 56.162 31.849
61.887 55.862 32.375
61.766 55.348 32.871
61.522 55.980 39.235
61.955 56.033 38.536
61.200 57.525 30.964
61.668 56.946 31.500
61.584 56.738 39.075
61.983 57.250 38.343
61.109 58.198 30.906
61.718 58.105 31.413
61.540 57.680 38.932
61.815 58.454 38.302
61.847 59.149 31.663
61.746 59.495 38.104
61.855 59.992 31.872
61.750 60.176 37.928
62.007 59.829 37.670
62.021 60.499 37.530
61.780 60.608 32.005
61.396 60.969 31.962
61.872 61.180 32.303
61.642 60.893 37.990
61.963 61.352 37.496
61.836 62.026 32.546
61.549 61.837 38.028
61.897 62.282 37.469
61.888 62.969 32.712
61.455 62.879 38.013
61.837 63.308 37.352
61.963 63.906 32.829
61.306 64.125 37.862
61.778 64.213 37.150
61.984 64.623 32.921
61.782 65.252 32.933
62.142 64.930 33.283
61.470 65.179 37.022
61.953 64.622 36.636
61.876 65.237 36.270
61.618 65.863 33.163
61.991 65.507 33.534
61.715 66.229 34.957
62.064 65.730 34.822
61.930 66.019 34.494
61.528 66.028 36.016
62.005 65.518 35.499
61.666 66.226 33.936
61.277 66.762 35.328
62.137 54.276 36.941
62.203 55.332 33.935
62.357 55.086 35.078
62.398 54.893 36.201
62.403 54.998 37.130
62.199 54.676 37.711
62.146 56.548 32.269
62.351 56.107 33.159
62.633 56.163 34.109
62.651 55.958 34.884
62.652 55.908 35.880
62.551 55.824 36.893
62.316 55.500 37.754
62.287 57.537 32.153
62.613 57.125 33.007
62.793 56.884 33.904
62.870 56.806 34.789
62.835 56.700 35.572
62.736 57.153 36.597
62.380 56.624 37.635
62.378 58.614 32.192
62.742 58.175 32.985
62.932 57.830 33.878
62.986 57.542 34.631
62.983 57.755 35.644
62.919 58.208 36.472
62.755 58.150 36.946
62.692 58.603 37.128
62.411 58.057 37.501
62.392 59.622 32.316
62.780 59.249 33.041
62.994 58.890 33.939
63.063 58.521 34.944
63.054 58.630 35.808
63.015 58.424 36.130
62.730 59.538 36.839
62.542 59.057 37.240
62.776 58.996 36.933
62.157 59.129 37.667
62.265 60.506 32.388
62.707 60.303 33.088
62.966 59.991 33.999
63.061 59.625 34.917
63.050 59.323 35.721
62.374 59.899 37.233
62.695 60.263 36.696
62.469 61.395 33.014
62.863 61.123 33.999
62.952 60.759 35.117
63.000 60.156 35.741
62.401 60.891 36.947
62.732 60.814 36.431
62.383 62.374 33.094
62.798 62.361 33.896
62.841 61.954 34.972
62.884 60.775 35.966
62.656 61.558 36.155
62.256 61.742 36.991
62.550 63.222 33.456
62.914 62.930 33.865
62.964 62.910 34.135
62.935 63.216 34.194
62.807 63.104 34.758
62.605 62.779 35.844
62.272 62.578 36.766
62.335 64.248 33.386
62.885 63.236 33.924
62.661 63.870 34.181
62.583 64.057 35.082
62.548 63.669 35.657
62.216 63.705 36.527
62.321 64.885 33.886
62.340 64.938 34.815
62.263 64.578 35.842
62.102 65.610 34.242
62.848 58.622 36.828
62.946 58.984 36.424
62.915 59.822 36.314
62.878 60.408 36.259
62.999 63.046 34.013
3 2 1 0
3 0 3 2
3 6 5 4
3 6 4 1
3 4 0 1
3 4 7 0
3 3 0 8
3 0 9 8
3 0 7 9
3 9 10 8
3 5 11 4
3 4 11 7
3 7 11 12
3 14 13 12
3 13 7 12
3 13 9 7
3 10 9 15
3 15 9 13
3 14 16 13
3 13 16 15
3 19 18 17
3 1 2 17
3 2 19 17
3 2 20 19
3 2 3 20
3 20 3 21
3 17 18 6
3 18 5 6
3 18 22 5
3 17 6 1
3 23 21 3
3 23 3 8
3 8 10 23
3 23 10 24
3 11 5 25
3 5 26 25
3 5 22 26
3 27 12 11
3 27 11 25
3 27 14 12
3 15 29 28
3 24 15 28
3 10 15 24
3 29 30 28
3 25 26 31
3 31 26 32
3 25 33 27
3 25 31 33
3 34 16 14
3 27 34 14
3 33 34 27
3 29 15 16
3 34 29 16
3 35 29 34
3 30 29 36
3 36 29 35
3 32 37 31
3 31 37 33
3 33 37 38
3 40 39 38
3 39 33 38
3 39 34 33
3 34 41 35
3 34 39 41
3 36 35 42
3 42 35 41
3 40 43 39
3 39 43 41
3 41 43 44
3 41 44 42
3 46 45 19
3 19 45 18
3 47 19 20
3 47 46 19
3 20 21 47
3 47 21 48
3 45 22 18
3 49 22 45
3 50 48 21
3 50 21 23
3 52 51 24
3 51 23 24
3 51 50 23
3 52 53 51
3 49 26 22
3 54 26 49
3 28 52 24
3 56 55 30
3 30 55 28
3 55 53 28
3 53 52 28
3 56 57 55
3 54 32 26
3 58 32 54
3 36 59 56
3 36 56 30
3 57 56 60
3 60 56 59
3 37 32 61
3 32 62 61
3 32 58 62
3 63 38 37
3 63 37 61
3 63 40 38
3 42 64 59
3 42 59 36
3 60 59 65
3 65 59 64
3 62 66 61
3 68 67 66
3 67 61 66
3 67 63 61
3 69 43 40
3 63 69 40
3 67 69 63
3 70 44 43
3 70 43 69
3 70 71 44
3 44 71 42
3 71 72 42
3 72 64 42
3 64 72 65
3 68 73 67
3 75 74 73
3 74 67 73
3 74 69 67
3 69 76 70
3 69 74 76
3 71 70 77
3 77 70 76
3 75 78 74
3 74 78 76
3 76 78 79
3 76 79 77
3 80 45 46
3 80 46 81
3 46 82 81
3 46 47 82
3 84 83 48
3 83 47 48
3 83 82 47
3 86 85 84
3 84 85 83
3 86 87 85
3 89 88 80
3 88 45 80
3 88 49 45
3 89 80 81
3 50 84 48
3 84 50 51
3 84 51 86
3 91 90 53
3 53 90 51
3 90 87 51
3 87 86 51
3 91 92 90
3 95 94 93
3 88 95 93
3 54 88 93
3 49 88 54
3 55 91 53
3 97 96 57
3 57 96 55
3 96 92 55
3 92 91 55
3 97 98 96
3 94 99 93
3 54 93 99
3 100 54 99
3 58 54 100
3 60 101 97
3 60 97 57
3 98 97 102
3 102 97 101
3 100 62 58
3 103 62 100
3 65 104 101
3 65 101 60
3 102 101 105
3 105 101 104
3 103 106 62
3 62 106 66
3 68 66 106
3 68 106 107
3 71 108 72
3 104 65 72
3 108 104 72
3 109 104 108
3 105 104 110
3 110 104 109
3 73 68 111
3 68 112 111
3 68 107 112
3 111 75 73
3 77 113 108
3 77 108 71
3 115 109 114
3 109 113 114
3 109 108 113
3 109 115 110
3 112 116 111
3 116 118 117
3 116 117 78
3 111 116 78
3 75 111 78
3 119 79 78
3 119 78 117
3 119 120 79
3 79 120 77
3 120 121 77
3 121 113 77
3 113 121 114
3 118 122 117
3 117 122 119
3 119 122 123
3 119 123 120
3 125 124 82
3 82 124 81
3 126 82 83
3 126 125 82
3 127 83 85
3 127 126 83
3 129 128 87
3 128 85 87
3 128 127 85
3 129 130 128
3 133 132 131
3 135 134 131
3 131 134 133
3 135 136 134
3 138 137 89
3 89 137 88
3 89 81 124
3 89 124 138
3 90 129 87
3 140 139 92
3 92 139 90
3 139 130 90
3 130 129 90
3 142 141 140
3 140 141 139
3 144 143 142
3 142 143 141
3 143 144 132
3 144 131 132
3 144 145 131
3 131 146 135
3 131 145 146
3 136 135 147
3 147 135 146
3 149 148 95
3 95 148 94
3 95 88 137
3 95 137 149
3 96 140 92
3 140 96 98
3 150 140 98
3 142 140 150
3 142 151 144
3 142 150 151
3 144 152 145
3 144 151 152
3 154 146 153
3 146 152 153
3 146 145 152
3 146 154 147
3 148 155 94
3 94 155 99
3 100 99 155
3 100 155 156
3 102 157 150
3 102 150 98
3 150 158 151
3 150 157 158
3 160 152 159
3 152 158 159
3 152 151 158
3 152 160 153
3 156 103 100
3 161 103 156
3 105 162 157
3 105 157 102
3 164 158 163
3 158 162 163
3 158 157 162
3 158 164 159
3 161 165 103
3 103 165 106
3 107 106 165
3 107 165 166
3 110 167 162
3 110 162 105
3 163 162 168
3 168 162 167
3 166 112 107
3 169 112 166
3 114 170 115
3 170 171 115
3 115 171 110
3 171 172 110
3 172 167 110
3 167 172 168
3 169 173 112
3 112 173 116
3 118 116 173
3 118 173 174
3 120 175 121
3 170 114 121
3 175 170 121
3 176 170 175
3 171 170 177
3 177 170 176
3 174 178 118
3 118 178 122
3 122 179 123
3 178 179 122
3 120 123 175
3 123 180 175
3 123 179 180
3 175 180 176
3 176 180 181
3 176 181 177
3 184 183 182
3 186 185 182
3 182 185 184
3 186 187 185
3 190 189 188
3 190 188 183
3 188 182 183
3 188 191 182
3 182 192 186
3 182 191 192
3 187 186 193
3 193 186 192
3 196 195 194
3 194 197 196
3 200 199 198
3 200 198 189
3 198 188 189
3 198 201 188
3 188 202 191
3 188 201 202
3 191 203 192
3 191 202 203
3 193 192 204
3 204 192 203
3 205 124 125
3 205 125 206
3 125 207 206
3 125 126 207
3 127 194 195
3 207 127 195
3 126 127 207
3 208 197 194
3 127 208 194
3 128 208 127
3 210 209 130
3 209 128 130
3 209 208 128
3 212 211 210
3 210 211 209
3 211 212 199
3 212 198 199
3 212 213 198
3 213 132 133
3 201 213 133
3 198 213 201
3 201 133 134
3 201 134 202
3 202 134 136
3 214 202 136
3 203 202 214
3 204 203 215
3 215 203 214
3 217 216 138
3 138 216 137
3 138 124 205
3 218 138 205
3 217 138 218
3 218 205 206
3 139 210 130
3 210 139 141
3 210 141 212
3 212 141 143
3 212 143 213
3 213 143 132
3 147 219 214
3 147 214 136
3 215 214 220
3 214 221 220
3 214 219 221
3 221 222 220
3 223 148 149
3 224 223 149
3 137 224 149
3 216 224 137
3 153 225 154
3 219 147 154
3 225 219 154
3 226 219 225
3 228 221 227
3 221 226 227
3 221 219 226
3 221 228 222
3 223 155 148
3 156 155 223
3 224 156 223
3 229 156 224
3 159 230 160
3 225 153 160
3 230 225 160
3 231 225 230
3 225 232 226
3 225 231 232
3 227 226 233
3 233 226 232
3 235 161 234
3 161 229 234
3 161 156 229
3 236 235 234
3 163 237 164
3 230 159 164
3 237 230 164
3 238 230 237
3 230 239 231
3 230 238 239
3 241 232 240
3 232 239 240
3 232 231 239
3 232 241 233
3 235 165 161
3 166 165 235
3 236 166 235
3 242 166 236
3 168 243 237
3 168 237 163
3 237 244 238
3 237 243 244
3 246 239 245
3 239 244 245
3 239 238 244
3 239 246 240
3 248 169 247
3 169 242 247
3 169 166 242
3 249 248 247
3 171 250 172
3 250 251 172
3 172 251 168
3 251 252 168
3 252 243 168
3 243 252 244
3 244 252 253
3 244 253 245
3 248 173 169
3 255 254 174
3 255 174 173
3 249 255 173
3 248 249 173
3 256 254 255
3 177 257 250
3 177 250 171
3 251 250 258
3 258 250 257
3 254 178 174
3 256 259 254
3 259 178 254
3 259 179 178
3 179 260 180
3 259 260 179
3 180 261 181
3 260 261 180
3 177 181 257
3 181 262 257
3 181 261 262
3 257 262 258
3 265 264 263
3 267 266 263
3 263 266 265
3 267 268 266
3 263 264 269
3 269 264 270
3 263 271 267
3 263 269 271
3 268 267 272
3 267 273 272
3 267 271 273
3 273 274 272
3 277 276 275
3 277 275 270
3 270 275 269
3 275 183 269
3 183 184 269
3 269 184 185
3 269 185 271
3 271 185 187
3 278 271 187
3 273 271 278
3 274 273 279
3 273 280 279
3 273 278 280
3 280 281 279
3 284 283 282
3 282 285 284
3 288 287 286
3 288 286 276
3 276 286 275
3 286 189 275
3 189 190 275
3 275 190 183
3 193 289 278
3 193 278 187
3 278 290 280
3 278 289 290
3 281 280 291
3 291 280 290
3 294 293 292
3 294 292 283
3 283 292 282
3 292 195 282
3 195 196 282
3 296 295 197
3 197 295 196
3 295 285 196
3 285 282 196
3 298 297 296
3 296 297 295
3 300 299 298
3 298 299 297
3 299 300 287
3 287 300 286
3 300 199 286
3 199 200 286
3 286 200 189
3 204 301 289
3 204 289 193
3 303 290 302
3 290 301 302
3 290 289 301
3 290 303 291
3 292 293 207
3 293 206 207
3 293 304 206
3 292 207 195
3 208 296 197
3 296 208 209
3 296 209 298
3 298 209 211
3 298 211 300
3 300 211 199
3 215 305 301
3 215 301 204
3 302 301 306
3 301 307 306
3 301 305 307
3 307 308 306
3 309 216 217
3 309 217 310
3 217 311 310
3 217 218 311
3 218 206 304
3 218 304 311
3 220 305 215
3 305 220 222
3 312 305 222
3 307 305 312
3 308 307 313
3 313 307 312
3 315 314 309
3 314 216 309
3 314 224 216
3 315 309 310
3 227 316 228
3 316 317 228
3 228 317 222
3 317 318 222
3 318 312 222
3 312 318 313
3 320 229 319
3 229 314 319
3 229 224 314
3 321 320 319
3 233 322 316
3 233 316 227
3 317 316 323
3 323 316 322
3 320 234 229
3 236 234 320
3 321 236 320
3 324 236 321
3 240 325 241
3 325 326 241
3 241 326 233
3 326 327 233
3 327 322 233
3 322 327 323
3 329 242 328
3 242 324 328
3 242 236 324
3 330 329 328
3 245 331 246
3 331 332 246
3 246 332 240
3 332 333 240
3 333 325 240
3 325 333 326
3 329 247 242
3 249 247 329
3 330 249 329
3 334 249 330
3 251 335 252
3 336 253 252
3 336 252 335
3 336 337 253
3 253 337 245
3 337 338 245
3 338 331 245
3 331 338 332
3 334 339 249
3 249 339 255
3 341 340 256
3 255 341 256
3 339 341 255
3 342 340 341
3 344 343 335
3 251 344 335
3 258 344 251
3 335 343 336
3 336 343 345
3 336 345 337
3 340 259 256
3 342 346 340
3 346 259 340
3 346 260 259
3 260 347 261
3 346 347 260
3 261 348 262
3 347 348 261
3 258 262 344
3 344 262 348
3 351 350 349
3 353 352 349
3 349 352 351
3 355 354 353
3 353 354 352
3 355 356 354
3 359 358 357
3 361 360 357
3 357 360 359
3 361 362 360
3 349 350 363
3 363 350 364
3 349 365 353
3 349 363 365
3 353 366 355
3 353 365 366
3 356 355 367
3 355 368 367
3 355 366 368
3 368 369 367
3 357 358 370
3 370 358 371
3 373 361 372
3 361 370 372
3 361 357 370
3 361 373 362
3 363 364 374
3 374 364 375
3 363 376 365
3 363 374 376
3 365 377 366
3 365 376 377
3 366 378 368
3 366 377 378
3 369 368 379
3 368 380 379
3 368 378 380
3 380 381 379
3 371 382 370
3 382 383 370
3 383 384 370
3 385 372 370
3 385 370 384
3 384 386 385
3 389 388 387
3 389 387 375
3 387 374 375
3 387 390 374
3 390 264 265
3 376 390 265
3 374 390 376
3 376 265 266
3 376 266 377
3 377 266 268
3 391 377 268
3 378 377 391
3 378 392 380
3 378 391 392
3 381 380 393
3 393 380 392
3 384 383 394
3 394 383 395
3 386 384 396
3 396 384 394
3 399 398 397
3 399 397 388
3 397 387 388
3 397 400 387
3 387 401 390
3 387 400 401
3 401 270 264
3 401 264 390
3 272 391 268
3 391 272 274
3 402 391 274
3 392 391 402
3 393 392 403
3 392 404 403
3 392 402 404
3 404 405 403
3 394 395 406
3 406 395 407
3 396 394 408
3 408 394 406
3 397 398 409
3 409 398 410
3 397 411 400
3 397 409 411
3 411 276 277
3 401 411 277
3 400 411 401
3 401 277 270
3 279 402 274
3 404 402 412
3 402 281 412
3 281 413 412
3 281 402 279
3 404 412 405
3 416 415 414
3 416 414 407
3 407 414 406
3 414 283 406
3 283 284 406
3 418 417 285
3 285 417 284
3 417 408 284
3 408 406 284
3 420 419 418
3 418 419 417
3 419 420 410
3 420 409 410
3 420 421 409
3 421 287 288
3 411 421 288
3 409 421 411
3 411 288 276
3 291 413 281
3 291 422 413
3 414 415 294
3 415 293 294
3 415 423 293
3 414 294 283
3 295 418 285
3 418 295 297
3 418 297 420
3 420 297 299
3 420 299 421
3 421 299 287
3 302 424 303
3 424 425 303
3 425 291 303
3 425 422 291
3 423 304 293
3 426 304 423
3 306 424 302
3 306 308 424
3 308 425 424
3 308 427 425
3 429 428 311
3 311 428 310
3 311 304 426
3 311 426 429
3 313 427 308
3 313 430 427
3 431 314 315
3 432 431 315
3 310 432 315
3 428 432 310
3 317 433 318
3 433 434 318
3 434 313 318
3 434 430 313
3 431 319 314
3 436 435 321
3 436 321 319
3 432 436 319
3 431 432 319
3 437 435 436
3 439 438 433
3 317 439 433
3 323 439 317
3 433 438 434
3 440 324 435
3 435 324 321
3 435 437 441
3 435 441 440
3 443 442 327
3 443 327 326
3 323 327 439
3 439 327 442
3 440 328 324
3 330 328 440
3 441 330 440
3 444 330 441
3 446 445 333
3 446 333 332
3 326 333 443
3 443 333 445
3 448 334 447
3 334 444 447
3 334 330 444
3 450 449 448
3 450 448 447
3 451 449 450
3 454 453 452
3 338 337 452
3 453 338 452
3 455 338 453
3 332 338 446
3 446 338 455
3 448 339 334
3 339 448 341
3 341 448 449
3 457 456 342
3 457 342 341
3 451 457 341
3 449 451 341
3 459 458 456
3 459 456 457
3 461 460 458
3 461 458 459
3 343 344 460
3 461 343 460
3 462 343 461
3 452 345 454
3 345 462 454
3 345 343 462
3 345 452 337
3 456 346 342
3 346 456 347
3 347 456 458
3 347 458 348
3 348 458 460
3 348 460 344
3 465 464 463
3 467 466 463
3 463 466 465
3 469 468 467
3 467 468 466
3 469 470 468
3 473 472 471
3 475 474 471
3 471 474 473
3 474 475 464
3 475 463 464
3 475 476 463
3 463 477 467
3 463 476 477
3 467 478 469
3 467 477 478
3 470 469 479
3 479 469 478
3 482 481 480
3 484 483 480
3 480 483 482
3 483 484 472
3 484 471 472
3 484 485 471
3 471 486 475
3 471 485 486
3 475 487 476
3 475 486 487
3 476 488 477
3 476 487 488
3 477 489 478
3 477 488 489
3 479 478 490
3 478 491 490
3 478 489 491
3 493 492 491
3 491 492 490
3 493 494 492
3 497 496 495
3 497 495 481
3 495 480 481
3 495 498 480
3 480 499 484
3 480 498 499
3 484 500 485
3 484 499 500
3 485 501 486
3 485 500 501
3 486 502 487
3 486 501 502
3 502 350 351
3 488 502 351
3 487 502 488
3 488 351 352
3 488 352 489
3 489 352 354
3 489 354 491
3 491 354 356
3 503 491 356
3 493 491 503
3 494 493 504
3 504 493 503
3 507 506 505
3 507 505 496
3 496 505 495
3 505 358 495
3 358 359 495
3 495 359 360
3 495 360 498
3 498 360 362
3 508 498 362
3 499 498 508
3 499 509 500
3 499 508 509
3 500 510 501
3 500 509 510
3 501 511 502
3 501 510 511
3 511 364 350
3 511 350 502
3 367 503 356
3 513 512 369
3 369 512 367
3 512 504 367
3 504 503 367
3 513 514 512
3 506 515 505
3 358 505 515
3 516 358 515
3 371 358 516
3 372 517 373
3 508 362 373
3 517 508 373
3 518 508 517
3 508 519 509
3 508 518 519
3 509 520 510
3 509 519 520
3 510 521 511
3 510 520 521
3 521 375 364
3 521 364 511
3 379 513 369
3 379 381 513
3 381 514 513
3 381 522 514
3 382 371 523
3 371 524 523
3 371 516 524
3 385 517 372
3 383 382 523
3 517 385 386
3 525 517 386
3 518 517 525
3 518 526 519
3 518 525 526
3 519 527 520
3 519 526 527
3 527 388 389
3 521 527 389
3 520 527 521
3 521 389 375
3 393 522 381
3 393 528 522
3 523 524 529
3 529 524 530
3 529 395 383
3 529 383 523
3 396 531 525
3 396 525 386
3 525 532 526
3 525 531 532
3 532 398 399
3 527 532 399
3 526 532 527
3 527 399 388
3 393 403 533
3 534 393 533
3 528 393 534
3 405 533 403
3 530 535 529
3 395 529 535
3 536 395 535
3 407 395 536
3 408 537 531
3 408 531 396
3 531 538 532
3 531 537 538
3 538 410 398
3 538 398 532
3 534 533 412
3 413 534 412
3 539 534 413
3 412 533 405
3 540 415 416
3 541 540 416
3 407 541 416
3 536 541 407
3 417 537 408
3 537 417 419
3 537 419 538
3 538 419 410
3 422 539 413
3 422 542 539
3 544 543 540
3 543 415 540
3 543 423 415
3 544 540 541
3 425 542 422
3 425 545 542
3 543 426 423
3 546 426 543
3 427 545 425
3 427 547 545
3 548 428 429
3 549 548 429
3 426 549 429
3 546 549 426
3 552 551 550
3 551 547 550
3 547 430 550
3 547 427 430
3 553 432 548
3 548 432 428
3 548 549 554
3 548 554 553
3 557 556 555
3 555 556 552
3 550 555 552
3 558 555 550
3 434 558 430
3 430 558 550
3 553 436 432
3 437 436 553
3 554 437 553
3 559 437 554
3 562 561 560
3 560 561 557
3 555 560 557
3 563 560 555
3 439 563 438
3 563 558 438
3 563 555 558
3 438 558 434
3 565 441 564
3 441 559 564
3 441 437 559
3 566 565 564
3 569 568 567
3 567 568 562
3 560 567 562
3 570 567 560
3 443 570 442
3 570 563 442
3 570 560 563
3 442 563 439
3 571 444 565
3 565 444 441
3 565 566 572
3 573 565 572
3 571 565 573
3 575 574 573
3 575 573 572
3 576 574 575
3 569 567 577
3 569 577 578
3 446 577 445
3 577 570 445
3 577 567 570
3 445 570 443
3 571 447 444
3 447 571 450
3 450 571 573
3 450 573 451
3 573 579 451
3 573 574 579
3 574 576 580
3 581 574 580
3 579 574 581
3 583 582 581
3 583 581 580
3 585 584 582
3 585 582 583
3 453 454 584
3 585 453 584
3 586 453 585
3 577 455 578
3 455 586 578
3 455 453 586
3 455 577 446
3 579 457 451
3 457 579 459
3 459 579 581
3 459 581 461
3 461 581 582
3 461 582 462
3 462 582 584
3 462 584 454
3 589 588 587
3 591 590 587
3 587 590 589
3 593 592 591
3 591 592 590
3 593 594 592
3 597 596 595
3 597 595 588
3 595 587 588
3 595 598 587
3 598 464 465
3 591 598 465
3 587 598 591
3 591 465 466
3 591 466 593
3 599 594 593
3 466 599 593
3 468 599 466
3 468 470 599
3 599 470 600
3 603 602 601
3 605 604 601
3 601 604 603
3 604 605 596
3 596 605 595
3 605 472 595
3 472 473 595
3 595 473 474
3 595 474 598
3 598 474 464
3 479 607 606
3 600 479 606
3 470 479 600
3 607 608 606
3 601 602 482
3 602 481 482
3 602 609 481
3 601 482 483
3 601 483 605
3 605 483 472
3 490 607 479
3 490 492 607
3 492 610 607
3 610 608 607
3 492 611 610
3 494 611 492
3 613 612 497
3 497 612 496
3 497 481 609
3 497 609 613
3 614 610 611
3 611 494 614
3 494 615 614
3 494 504 615
3 617 616 507
3 507 616 506
3 507 496 612
3 507 612 617
3 504 512 618
3 619 504 618
3 615 504 619
3 514 618 512
3 515 506 620
3 506 621 620
3 506 616 621
3 620 516 515
3 619 618 622
3 619 622 623
3 522 622 514
3 514 622 618
3 621 624 620
3 516 620 624
3 625 516 624
3 524 516 625
3 623 622 626
3 623 626 627
3 528 626 522
3 522 626 622
3 629 530 628
3 530 625 628
3 530 524 625
3 630 629 628
3 627 626 631
3 627 631 632
3 534 631 528
3 528 631 626
3 629 535 530
3 536 535 629
3 630 536 629
3 633 536 630
3 632 631 634
3 632 634 635
3 539 634 534
3 534 634 631
3 638 637 636
3 633 638 636
3 541 633 636
3 536 633 541
3 635 634 639
3 635 639 640
3 542 639 539
3 539 639 634
3 636 637 544
3 637 543 544
3 637 641 543
3 636 544 541
3 644 643 642
3 642 643 640
3 639 642 640
3 645 642 639
3 545 645 542
3 542 645 639
3 641 546 543
3 646 546 641
3 644 642 647
3 644 647 648
3 649 642 645
3 647 642 649
3 547 649 545
3 545 649 645
3 646 549 546
3 650 549 646
3 653 652 651
3 651 652 648
3 647 651 648
3 654 651 647
3 552 654 551
3 654 649 551
3 654 647 649
3 551 649 547
3 650 554 549
3 655 554 650
3 658 657 656
3 660 659 656
3 660 656 657
3 659 660 653
3 651 659 653
3 661 659 651
3 557 661 556
3 661 654 556
3 661 651 654
3 556 654 552
3 663 559 662
3 559 655 662
3 559 554 655
3 664 663 662
3 658 656 665
3 658 665 666
3 667 656 659
3 665 656 667
3 562 667 561
3 667 661 561
3 667 659 661
3 561 661 557
3 663 564 559
3 669 668 566
3 669 566 564
3 664 669 564
3 663 664 564
3 671 670 668
3 671 668 669
3 673 672 670
3 673 670 671
3 675 674 672
3 675 672 673
3 677 676 674
3 677 674 675
3 676 677 666
3 665 676 666
3 678 676 665
3 569 678 568
3 678 667 568
3 678 665 667
3 568 667 562
3 668 572 566
3 572 668 575
3 575 668 670
3 575 670 576
3 670 679 576
3 670 672 679
3 680 672 674
3 679 672 680
3 681 674 676
3 680 674 681
3 682 676 678
3 681 676 682
3 578 682 569
3 569 682 678
3 679 580 576
3 580 679 583
3 583 679 680
3 583 680 585
3 585 680 681
3 585 681 586
3 586 681 682
3 586 682 578
3 683 588 589
3 590 684 589
3 589 684 683
3 592 685 590
3 590 685 684
3 594 685 592
3 688 687 686
3 596 597 686
3 597 688 686
3 597 689 688
3 597 588 683
3 690 597 683
3 689 597 690
3 690 683 684
3 690 684 691
3 691 684 685
3 691 685 692
3 694 692 693
3 693 692 599
3 692 685 599
3 685 594 599
3 600 693 599
3 696 695 603
3 603 695 602
3 604 686 687
3 696 604 687
3 603 604 696
3 686 604 596
3 694 693 697
3 694 697 698
3 606 699 600
3 699 693 600
3 699 697 693
3 608 699 606
3 702 701 700
3 695 702 700
3 609 695 700
3 602 695 609
3 703 698 697
3 705 704 703
3 697 705 703
3 699 705 697
3 610 705 608
3 608 705 699
3 708 707 706
3 708 706 701
3 701 706 700
3 706 612 700
3 612 613 700
3 700 613 609
3 704 705 709
3 704 709 710
3 614 711 610
3 711 705 610
3 711 709 705
3 615 711 614
3 706 707 617
3 707 616 617
3 707 712 616
3 706 617 612
3 710 709 713
3 710 713 714
3 715 709 711
3 713 709 715
3 619 715 615
3 615 715 711
3 717 621 716
3 621 712 716
3 621 616 712
3 718 717 716
3 721 720 719
3 719 720 714
3 713 719 714
3 722 719 713
3 723 713 715
3 722 713 723
3 623 723 619
3 619 723 715
3 717 624 621
3 625 624 717
3 718 625 717
3 724 625 718
3 721 719 725
3 721 725 726
3 727 719 722
3 725 719 727
3 728 722 723
3 727 722 728
3 627 728 623
3 623 728 723
3 628 625 729
3 625 730 729
3 625 724 730
3 729 630 628
3 726 725 731
3 726 731 732
3 733 725 727
3 731 725 733
3 734 727 728
3 733 727 734
3 632 734 627
3 627 734 728
3 730 735 729
3 630 729 735
3 736 630 735
3 633 630 736
3 732 731 737
3 732 737 738
3 739 731 733
3 737 731 739
3 740 733 734
3 739 733 740
3 635 740 632
3 632 740 734
3 741 637 638
3 742 741 638
3 633 742 638
3 736 742 633
3 738 737 743
3 738 743 744
3 745 737 739
3 743 737 745
3 746 739 740
3 745 739 746
3 640 746 635
3 635 746 740
3 747 641 741
3 741 641 637
3 741 742 748
3 741 748 747
3 744 743 749
3 744 749 750
3 751 743 745
3 749 743 751
3 644 751 643
3 751 746 643
3 751 745 746
3 643 746 640
3 752 646 747
3 747 646 641
3 747 748 753
3 747 753 752
3 756 755 754
3 754 755 750
3 749 754 750
3 757 754 749
3 758 749 751
3 757 749 758
3 648 758 644
3 644 758 751
3 759 650 752
3 752 650 646
3 752 753 760
3 752 760 759
3 763 762 761
3 761 762 756
3 754 761 756
3 764 761 754
3 765 754 757
3 764 754 765
3 653 765 652
3 765 758 652
3 765 757 758
3 652 758 648
3 766 655 759
3 759 655 650
3 759 760 767
3 768 759 767
3 766 759 768
3 770 769 768
3 770 768 767
3 771 769 770
3 774 773 772
3 772 773 763
3 761 772 763
3 775 772 761
3 658 775 657
3 775 764 657
3 775 761 764
3 657 764 660
3 660 764 765
3 660 765 653
3 766 662 655
3 662 766 664
3 766 776 664
3 766 768 776
3 777 768 769
3 776 768 777
3 769 771 778
3 779 769 778
3 777 769 779
3 779 778 774
3 772 779 774
3 780 779 772
3 781 772 775
3 780 772 781
3 666 781 658
3 658 781 775
3 776 669 664
3 669 776 671
3 671 776 777
3 671 777 673
3 673 777 779
3 673 779 675
3 675 779 780
3 675 780 677
3 677 780 781
3 677 781 666
3 782 687 688
3 689 783 688
3 688 783 782
3 690 784 689
3 689 784 783
3 784 690 785
3 690 786 785
3 690 691 786
3 788 786 787
3 786 692 787
3 786 691 692
3 694 787 692
3 789 695 696
3 790 789 696
3 790 696 687
3 791 790 687
3 782 791 687
3 791 782 783
3 791 783 792
3 792 783 784
3 792 784 793
3 793 784 785
3 794 788 787
3 787 694 794
3 694 795 794
3 694 698 795
3 797 796 702
3 702 796 701
3 702 695 789
3 798 702 789
3 797 702 798
3 798 789 790
3 698 703 799
3 800 698 799
3 795 698 800
3 704 799 703
3 801 707 708
3 802 801 708
3 701 802 708
3 796 802 701
3 800 799 803
3 800 803 804
3 710 803 704
3 704 803 799
3 805 712 801
3 801 712 707
3 801 802 806
3 801 806 805
3 804 803 807
3 804 807 808
3 714 807 710
3 710 807 803
3 805 716 712
3 718 716 805
3 806 718 805
3 809 718 806
3 808 807 720
3 721 808 720
3 810 808 721
3 720 807 714
3 809 724 718
3 811 724 809
3 814 813 812
3 813 810 812
3 810 726 812
3 810 721 726
3 816 730 815
3 730 811 815
3 730 724 811
3 817 816 815
3 814 812 818
3 814 818 819
3 732 818 726
3 726 818 812
3 816 735 730
3 736 735 816
3 817 736 816
3 820 736 817
3 819 818 821
3 819 821 822
3 738 821 732
3 732 821 818
3 820 742 736
3 823 742 820
3 822 821 824
3 822 824 825
3 744 824 738
3 738 824 821
3 823 748 742
3 826 748 823
3 825 824 827
3 825 827 828
3 750 827 744
3 744 827 824
3 830 753 829
3 753 826 829
3 753 748 826
3 831 830 829
3 834 833 832
3 832 833 828
3 832 828 827
3 756 832 827
3 755 756 827
3 755 827 750
3 835 760 830
3 830 760 753
3 830 831 836
3 830 836 835
3 839 838 837
3 841 840 837
3 841 837 838
3 840 841 834
3 840 834 832
3 763 840 832
3 762 763 832
3 762 832 756
3 835 767 760
3 836 842 835
3 842 767 835
3 842 770 767
3 837 843 771
3 842 837 771
3 770 842 771
3 839 837 842
3 774 843 773
3 843 840 773
3 843 837 840
3 773 840 763
3 843 778 771
3 778 843 774
3 844 785 786
3 788 844 786
3 845 790 791
3 792 846 791
3 791 846 845
3 793 847 792
3 792 847 846
3 785 844 793
3 844 847 793
3 844 848 847
3 794 849 788
3 849 844 788
3 849 848 844
3 795 849 794
3 850 796 797
3 798 851 797
3 797 851 850
3 790 845 798
3 845 851 798
3 845 852 851
3 853 845 846
3 852 845 853
3 854 846 847
3 853 846 854
3 855 847 848
3 854 847 855
3 856 848 849
3 855 848 856
3 800 856 795
3 795 856 849
3 857 802 850
3 850 802 796
3 858 850 851
3 857 850 858
3 859 851 852
3 858 851 859
3 860 852 853
3 859 852 860
3 861 853 854
3 860 853 861
3 862 854 855
3 861 854 862
3 863 855 856
3 862 855 863
3 804 863 800
3 800 863 856
3 864 806 857
3 857 806 802
3 865 857 858
3 864 857 865
3 866 858 859
3 865 858 866
3 867 859 860
3 866 859 867
3 868 860 861
3 867 860 868
3 862 870 869
3 868 862 869
3 861 862 868
3 872 871 870
3 862 872 870
3 863 872 862
3 808 872 804
3 804 872 863
3 873 809 864
3 864 809 806
3 874 864 865
3 873 864 874
3 875 865 866
3 874 865 875
3 876 866 867
3 875 866 876
3 868 878 877
3 876 868 877
3 867 868 876
3 881 880 879
3 869 878 868
3 880 881 871
3 872 880 871
3 882 880 872
3 810 882 808
3 808 882 872
3 883 811 873
3 873 811 809
3 884 873 874
3 883 873 884
3 885 874 875
3 884 874 885
3 886 875 876
3 885 875 886
3 876 877 887
3 876 887 886
3 879 880 888
3 879 888 889
3 814 888 813
3 888 882 813
3 888 880 882
3 813 882 810
3 883 815 811
3 815 883 817
3 883 890 817
3 883 884 890
3 891 884 885
3 890 884 891
3 892 885 886
3 891 885 892
3 886 887 893
3 886 893 892
3 889 888 894
3 889 894 895
3 819 894 814
3 814 894 888
3 896 820 890
3 890 820 817
3 897 890 891
3 896 890 897
3 898 891 892
3 897 891 898
3 892 893 899
3 900 892 899
3 898 892 900
3 900 899 895
3 894 900 895
3 901 900 894
3 822 901 819
3 819 901 894
3 902 823 896
3 896 823 820
3 897 904 903
3 902 897 903
3 896 897 902
3 906 905 904
3 897 906 904
3 898 906 897
3 907 898 900
3 906 898 907
3 908 900 901
3 907 900 908
3 825 908 822
3 822 908 901
3 909 826 902
3 902 826 823
3 902 903 910
3 911 902 910
3 909 902 911
3 911 910 905
3 906 911 905
3 912 911 906
3 913 906 907
3 912 906 913
3 914 907 908
3 913 907 914
3 828 914 825
3 825 914 908
3 909 829 826
3 829 909 831
3 909 915 831
3 909 911 915
3 916 911 912
3 915 911 916
3 917 912 913
3 916 912 917
3 834 917 833
3 917 914 833
3 917 913 914
3 833 914 828
3 918 836 915
3 915 836 831
3 839 918 838
3 918 916 838
3 918 915 916
3 838 916 841
3 841 916 917
3 841 917 834
3 918 842 836
3 842 918 839
3 919 869 870
3 871 919 870
3 920 877 878
3 878 869 920
3 869 919 920
3 881 879 920
3 881 920 919
3 881 919 871
3 921 887 920
3 920 887 877
3 889 921 879
3 879 921 920
3 922 893 921
3 921 893 887
3 895 922 889
3 889 922 921
3 922 899 893
3 899 922 895
3 923 903 904
3 905 923 904
3 923 910 903
3 910 923 905
