ply
format ascii 1.0
comment None
element vertex 194
property float x
property float y
property float z
element face 384
property list uchar int vertex_indices
end_header
48.015 66.139 34.065
48.147 66.302 33.449
48.250 65.987 33.891
48.032 65.960 34.289
47.980 66.195 34.354
48.017 65.991 34.435
47.964 66.745 34.030
47.955 66.981 33.440
48.115 66.720 34.411
48.101 66.206 34.457
47.888 67.964 33.869
47.867 68.085 33.109
47.931 67.448 33.057
48.038 67.405 34.308
47.990 67.848 34.305
47.808 68.513 33.458
47.821 69.067 33.809
47.954 69.329 34.457
48.098 68.343 34.490
48.157 69.127 34.753
47.846 69.690 34.164
47.969 70.313 34.449
48.112 70.217 34.875
48.149 69.664 34.869
48.382 70.060 35.049
48.119 70.798 34.892
48.143 71.034 34.630
48.412 70.840 35.081
48.298 71.235 34.924
48.775 66.302 31.171
49.150 66.215 30.390
49.357 65.923 30.923
48.946 65.926 31.805
48.505 66.206 32.195
48.755 65.966 32.943
48.336 66.203 32.832
49.316 66.205 33.420
48.662 66.167 33.912
48.201 66.041 34.308
48.912 66.830 30.354
49.406 66.989 29.688
49.338 66.433 29.931
48.481 66.980 31.215
48.349 66.698 31.845
48.135 66.716 32.706
49.190 66.857 34.111
48.462 66.592 34.389
48.998 67.677 30.014
49.597 67.805 29.520
48.522 67.729 30.930
48.118 67.638 32.171
48.791 67.146 34.463
48.103 67.778 34.449
48.431 67.648 34.565
49.107 68.296 29.844
48.730 68.636 30.567
49.028 68.752 30.039
48.262 68.780 31.798
47.917 68.860 32.988
48.418 68.795 34.804
48.332 69.453 34.944
48.687 69.556 35.001
49.071 69.379 30.462
48.585 69.811 31.562
48.928 70.056 31.082
48.153 69.896 32.800
47.907 69.836 33.727
48.818 70.443 35.106
48.959 70.698 31.697
48.562 70.914 32.732
48.886 71.252 32.373
48.195 70.830 33.864
48.874 71.193 35.079
49.069 71.714 32.879
48.706 71.660 33.674
49.087 72.076 33.522
48.521 71.586 34.503
48.656 71.521 34.951
49.312 72.276 34.054
48.888 71.909 34.677
49.500 66.113 30.159
49.832 66.500 29.781
49.884 66.052 30.396
49.862 65.870 31.130
49.476 65.805 31.959
49.443 65.890 32.784
49.865 65.923 32.430
49.910 67.127 29.463
49.825 66.141 32.973
50.065 66.849 33.427
50.245 67.643 29.421
49.156 67.782 34.517
49.939 67.854 34.127
49.439 68.683 29.774
50.248 68.502 29.553
49.673 68.811 34.621
50.556 69.140 34.193
48.943 68.713 34.802
49.827 69.405 30.050
49.395 70.156 30.798
50.299 70.283 30.546
50.035 69.703 34.689
50.006 70.579 34.782
49.356 69.833 34.933
49.611 70.899 31.333
49.295 71.371 32.060
49.732 71.389 31.740
49.383 70.974 34.981
50.058 71.632 34.671
49.927 71.851 32.259
49.568 72.256 33.177
50.086 72.358 32.792
49.332 71.883 34.763
49.912 72.241 34.598
50.269 72.683 33.243
50.041 72.860 33.876
50.461 73.050 33.587
49.946 72.636 34.305
50.395 73.056 33.914
50.310 66.404 30.120
50.413 66.183 30.870
50.141 65.980 31.757
50.492 67.048 29.720
50.824 66.723 30.390
50.942 66.580 31.036
51.179 66.862 31.522
50.725 66.393 31.655
50.379 66.374 32.525
50.946 67.996 29.652
51.038 66.916 32.212
50.773 67.079 32.911
50.880 68.008 33.414
51.006 68.771 29.643
51.460 69.301 33.441
50.669 69.383 29.862
51.120 69.994 30.210
50.509 70.150 34.494
51.146 70.242 33.982
50.283 71.192 31.345
51.242 70.797 30.819
50.672 71.007 34.400
51.420 71.345 33.737
50.972 71.654 31.618
50.706 72.279 32.391
51.637 72.072 31.872
50.754 71.817 34.261
50.426 72.434 34.314
51.310 72.583 32.604
50.842 72.961 33.214
51.294 72.847 33.055
50.450 72.915 34.111
50.840 73.072 33.523
50.752 73.041 33.817
51.217 67.458 30.175
51.320 67.149 30.918
51.582 68.145 30.107
51.809 68.023 30.836
51.572 67.617 31.790
51.267 67.584 32.647
51.564 68.713 29.908
52.024 68.720 30.462
52.255 68.762 31.056
52.435 69.197 31.510
52.120 68.556 31.669
51.751 68.536 32.617
51.416 69.385 29.945
51.779 70.107 30.431
52.321 69.301 32.169
52.065 69.511 32.832
51.950 70.373 33.174
52.046 70.773 30.873
52.116 71.271 32.979
51.887 71.426 31.271
52.450 71.866 31.590
51.109 72.284 33.848
51.809 72.013 33.151
52.105 72.266 32.037
51.268 72.737 33.424
52.033 72.355 32.523
50.807 72.797 33.944
52.013 69.419 30.355
52.383 69.388 30.967
52.380 70.267 30.979
52.546 69.989 31.733
52.377 70.001 32.493
52.482 71.189 31.277
52.646 70.947 31.692
52.465 70.735 32.405
52.771 71.700 31.677
52.822 71.969 31.632
52.687 72.017 31.960
52.476 71.629 32.319
52.624 72.133 31.845
52.871 72.001 31.709
3 2 1 0
3 4 3 0
3 0 3 2
3 4 5 3
3 0 1 6
3 6 1 7
3 9 4 8
3 4 6 8
3 4 0 6
3 4 9 5
3 12 11 10
3 14 13 10
3 13 6 10
3 7 12 10
3 7 10 6
3 6 13 8
3 11 15 10
3 15 16 10
3 16 17 10
3 18 14 10
3 18 10 17
3 17 19 18
3 16 20 17
3 20 21 17
3 21 22 17
3 23 19 17
3 23 17 22
3 22 24 23
3 22 21 25
3 25 21 26
3 24 22 27
3 27 22 25
3 26 28 25
3 25 28 27
3 31 30 29
3 33 32 29
3 29 32 31
3 35 34 33
3 33 34 32
3 35 1 34
3 1 2 34
3 37 36 34
3 37 34 2
3 3 38 2
3 2 38 37
3 5 38 3
3 41 40 39
3 41 39 30
3 39 29 30
3 39 42 29
3 29 43 33
3 29 42 43
3 33 44 35
3 33 43 44
3 44 1 35
3 1 44 7
3 36 37 45
3 46 45 37
3 8 46 9
3 46 38 9
3 46 37 38
3 9 38 5
3 39 40 47
3 47 40 48
3 39 49 42
3 39 47 49
3 42 50 43
3 42 49 50
3 50 11 12
3 44 50 12
3 43 50 44
3 46 51 45
3 52 13 14
3 44 12 7
3 51 46 53
3 46 8 53
3 13 52 53
3 13 53 8
3 48 54 47
3 56 55 54
3 55 47 54
3 55 49 47
3 49 57 50
3 49 55 57
3 58 15 11
3 50 58 11
3 57 58 50
3 18 52 14
3 16 15 58
3 60 59 19
3 19 59 18
3 59 53 18
3 53 52 18
3 60 61 59
3 56 62 55
3 64 63 62
3 63 55 62
3 63 57 55
3 57 65 58
3 57 63 65
3 66 20 16
3 58 66 16
3 65 66 58
3 23 60 19
3 21 20 66
3 23 24 60
3 24 61 60
3 24 67 61
3 64 68 63
3 70 69 68
3 69 63 68
3 69 65 63
3 65 71 66
3 65 69 71
3 71 26 21
3 71 21 66
3 27 67 24
3 27 72 67
3 70 73 69
3 75 74 73
3 74 69 73
3 74 71 69
3 76 28 26
3 71 76 26
3 74 76 71
3 76 77 28
3 77 27 28
3 77 72 27
3 75 78 74
3 74 78 76
3 76 78 79
3 76 79 77
3 82 81 80
3 30 31 80
3 31 82 80
3 31 83 82
3 84 31 32
3 84 83 31
3 86 84 85
3 84 34 85
3 84 32 34
3 36 85 34
3 80 81 41
3 81 40 41
3 81 87 40
3 80 41 30
3 88 86 85
3 85 36 88
3 36 89 88
3 36 45 89
3 87 48 40
3 90 48 87
3 45 51 91
3 92 45 91
3 89 45 92
3 53 91 51
3 54 48 93
3 48 94 93
3 48 90 94
3 93 56 54
3 92 91 95
3 92 95 96
3 59 97 53
3 97 91 53
3 97 95 91
3 61 97 59
3 94 98 93
3 98 100 99
3 98 99 62
3 93 98 62
3 56 93 62
3 99 64 62
3 101 96 95
3 103 102 101
3 95 103 101
3 97 103 95
3 67 103 61
3 61 103 97
3 100 104 99
3 104 106 105
3 104 105 68
3 99 104 68
3 64 99 68
3 105 70 68
3 102 103 107
3 102 107 108
3 72 107 67
3 67 107 103
3 106 109 105
3 109 111 110
3 109 110 73
3 105 109 73
3 70 105 73
3 110 75 73
3 108 107 112
3 108 112 113
3 77 112 72
3 72 112 107
3 111 114 110
3 114 116 115
3 114 115 78
3 110 114 78
3 75 110 78
3 117 113 112
3 78 117 112
3 79 78 112
3 117 78 115
3 79 112 77
3 116 118 115
3 115 118 117
3 119 81 82
3 83 120 82
3 82 120 119
3 84 121 83
3 83 121 120
3 86 121 84
3 123 122 119
3 122 81 119
3 122 87 81
3 123 119 120
3 123 120 124
3 126 125 124
3 120 126 124
3 121 126 120
3 88 127 86
3 127 121 86
3 127 126 121
3 89 127 88
3 122 90 87
3 128 90 122
3 129 125 126
3 129 126 127
3 129 127 130
3 127 89 130
3 89 131 130
3 89 92 131
3 128 94 90
3 132 94 128
3 96 131 92
3 96 133 131
3 132 134 94
3 94 134 98
3 100 98 134
3 100 134 135
3 96 101 136
3 137 96 136
3 133 96 137
3 102 136 101
3 104 100 138
3 100 139 138
3 100 135 139
3 138 106 104
3 137 136 140
3 137 140 141
3 108 140 102
3 102 140 136
3 139 142 138
3 142 144 143
3 142 143 109
3 138 142 109
3 106 138 109
3 143 111 109
3 145 141 140
3 140 108 145
3 108 146 145
3 108 113 146
3 144 147 143
3 147 149 148
3 147 148 114
3 143 147 114
3 111 143 114
3 148 116 114
3 117 146 113
3 117 150 146
3 149 151 148
3 148 151 116
3 151 118 116
3 151 152 118
3 117 118 150
3 150 118 152
3 153 122 123
3 124 154 123
3 123 154 153
3 125 154 124
3 155 128 153
3 153 128 122
3 156 153 154
3 155 153 156
3 129 157 125
3 157 154 125
3 157 156 154
3 130 158 129
3 129 158 157
3 131 158 130
3 160 159 155
3 159 128 155
3 159 132 128
3 160 155 156
3 160 156 161
3 163 162 161
3 156 163 161
3 157 163 156
3 164 157 158
3 163 157 164
3 133 164 131
3 131 164 158
3 159 165 132
3 132 165 134
3 135 134 165
3 135 165 166
3 167 162 163
3 167 163 164
3 167 164 168
3 164 133 168
3 133 169 168
3 133 137 169
3 166 139 135
3 170 139 166
3 141 169 137
3 141 171 169
3 170 172 139
3 139 172 142
3 144 142 172
3 144 172 173
3 141 145 174
3 175 141 174
3 171 141 175
3 146 174 145
3 173 176 144
3 144 176 147
3 178 177 149
3 147 178 149
3 176 178 147
3 177 178 175
3 174 177 175
3 179 177 174
3 150 179 146
3 146 179 174
3 177 151 149
3 151 177 152
3 152 177 179
3 152 179 150
3 180 159 160
3 161 181 160
3 160 181 180
3 162 181 161
3 180 165 159
3 165 180 166
3 180 182 166
3 180 181 182
3 167 183 162
3 183 181 162
3 183 182 181
3 168 184 167
3 167 184 183
3 169 184 168
3 185 170 182
3 182 170 166
3 186 182 183
3 185 182 186
3 187 183 184
3 186 183 187
3 171 187 169
3 169 187 184
3 185 172 170
3 185 186 188
3 173 185 188
3 189 173 188
3 185 173 172
3 191 190 188
3 186 191 188
3 187 191 186
3 175 191 171
3 171 191 187
3 189 192 173
3 173 192 176
3 191 178 190
3 178 192 190
3 178 176 192
3 178 191 175
3 193 189 188
3 190 193 188
3 193 192 189
3 192 193 190
