ply
format ascii 1.0
comment None
element vertex 42
property float x
property float y
property float z
element face 72
property list uchar int vertex_indices
end_header
43.000 63.000 28.281
43.000 63.000 28.281
43.000 63.000 28.281
43.000 63.000 28.281
43.000 63.000 28.281
43.000 63.000 28.281
43.000 63.000 28.281
43.000 63.000 28.281
43.000 63.000 28.281
43.000 63.000 28.281
43.000 63.000 28.281
43.000 63.000 28.281
43.000 65.000 26.000
43.000 65.000 26.000
43.000 65.000 26.000
43.000 65.000 26.000
43.000 65.000 26.000
43.000 63.000 28.281
43.000 63.000 28.281
43.000 63.000 28.281
43.000 63.000 28.281
43.000 63.000 28.281
43.000 65.000 26.000
43.000 63.000 28.281
47.000 63.000 28.281
47.000 63.000 28.281
47.000 63.000 28.281
47.000 63.000 28.281
47.000 63.000 28.281
47.000 63.000 28.281
47.000 63.000 28.281
47.000 63.000 28.281
47.000 63.000 28.281
47.000 63.000 28.281
47.000 63.000 28.281
47.000 63.000 28.281
47.000 63.000 28.281
47.000 63.000 28.281
47.000 63.000 28.281
47.000 63.000 28.281
47.000 63.000 28.281
47.000 63.000 28.281
3 2 1 0
3 0 3 2
3 1 4 0
3 0 4 3
3 6 5 2
3 2 5 1
3 8 7 3
3 7 2 3
3 7 6 2
3 8 9 7
3 5 10 1
3 1 10 4
3 3 4 8
3 4 11 8
3 4 10 11
3 8 11 9
3 14 13 12
3 12 15 14
3 13 16 12
3 12 16 15
3 18 17 6
3 6 17 5
3 20 18 19
3 18 7 19
3 18 6 7
3 9 19 7
3 17 21 5
3 5 21 10
3 19 11 20
3 11 21 20
3 11 10 21
3 11 19 9
3 22 13 14
3 15 22 14
3 22 16 13
3 16 22 15
3 23 17 18
3 20 23 18
3 23 21 17
3 21 23 20
3 26 25 24
3 24 27 26
3 25 28 24
3 24 28 27
3 30 29 26
3 26 29 25
3 32 31 27
3 31 26 27
3 31 30 26
3 32 33 31
3 29 34 25
3 25 34 28
3 27 28 32
3 28 35 32
3 28 34 35
3 32 35 33
3 37 36 30
3 30 36 29
3 39 37 38
3 37 31 38
3 37 30 31
3 33 38 31
3 36 40 29
3 29 40 34
3 38 35 39
3 35 40 39
3 35 34 40
3 35 38 33
3 41 36 37
3 39 41 37
3 41 40 36
3 40 41 39
