ply
format ascii 1.0
comment None
element vertex 334
property float x
property float y
property float z
element face 664
property list uchar int vertex_indices
end_header
31.147 55.203 34.446
31.325 55.347 33.873
31.358 54.972 34.271
31.327 54.935 34.679
31.000 55.834 33.994
31.294 55.874 33.425
31.238 55.202 35.159
30.967 55.668 35.019
31.147 55.649 35.927
30.858 56.283 36.027
31.082 55.993 36.626
31.015 56.361 36.969
31.228 56.193 37.167
31.098 56.436 33.296
31.359 57.193 32.926
31.494 56.433 33.002
30.869 56.558 33.817
30.784 56.446 34.734
30.712 56.824 35.526
30.746 56.957 36.224
30.912 56.926 37.018
30.813 57.493 36.671
31.262 56.722 37.608
31.007 57.192 33.428
30.830 57.229 34.193
30.745 57.211 34.971
30.934 57.537 37.335
30.953 57.986 37.123
31.172 57.413 37.773
31.158 59.263 34.729
31.191 59.341 34.594
31.118 59.023 34.595
31.110 59.077 34.943
31.117 57.964 37.651
31.183 59.395 34.942
31.600 55.095 34.052
31.600 54.940 34.579
31.758 55.008 34.307
31.491 55.019 35.087
31.804 55.189 35.189
31.856 55.817 33.569
31.872 55.236 34.101
31.608 55.451 35.839
31.403 55.873 36.712
31.575 56.348 37.433
31.750 57.118 32.727
31.949 56.636 32.935
30.759 57.470 35.756
31.663 56.822 37.940
31.561 57.307 38.143
31.953 57.189 38.159
31.285 58.082 33.250
31.903 58.209 32.746
31.004 57.933 33.864
30.949 58.265 34.888
30.933 58.202 36.274
31.557 58.161 38.189
31.958 57.689 38.345
31.552 59.107 33.215
31.980 59.375 32.804
31.204 58.959 34.067
31.160 59.221 35.721
31.251 58.763 37.311
31.559 58.886 38.136
32.257 58.347 38.534
31.956 58.991 38.565
32.258 58.835 38.787
31.757 60.044 33.182
32.216 60.167 32.787
31.460 59.910 33.868
31.297 59.816 34.860
31.324 59.991 35.753
31.439 59.999 36.738
31.696 59.630 37.989
32.341 59.935 38.588
32.402 59.196 38.767
31.962 60.814 33.152
32.401 60.954 32.829
31.673 60.741 33.763
31.498 60.576 34.509
31.517 60.769 35.640
31.658 60.891 36.752
31.787 60.551 37.610
31.961 60.259 38.215
32.141 61.357 33.127
31.922 61.444 33.616
32.202 61.814 33.344
31.732 61.422 34.572
31.760 61.671 35.554
31.764 61.471 36.297
32.169 62.296 34.016
31.948 62.175 35.063
32.008 55.258 34.675
32.185 55.575 34.200
32.463 55.779 34.780
32.330 55.839 35.737
31.945 56.086 36.810
32.305 57.412 32.793
32.523 56.762 33.286
32.683 56.270 34.152
32.952 56.368 35.246
32.975 56.526 36.157
33.160 56.890 36.624
32.658 56.673 36.957
32.065 56.733 37.670
32.658 58.258 32.707
33.224 57.796 33.197
33.271 57.400 37.127
33.174 57.857 37.791
32.569 57.524 37.972
32.723 59.339 32.631
33.262 58.704 32.807
33.101 58.460 38.193
32.593 58.843 38.695
33.098 59.430 38.509
32.781 60.411 32.639
33.108 60.392 38.697
33.112 61.257 32.693
32.050 61.537 37.218
32.286 60.926 38.235
32.692 60.739 38.754
32.823 61.332 38.622
32.883 61.043 38.860
32.514 61.614 32.963
32.564 62.208 33.221
32.108 62.332 36.165
32.375 62.318 37.103
32.797 62.149 37.934
33.459 61.924 38.549
33.176 61.273 38.782
32.757 62.931 33.418
33.455 63.009 32.948
33.086 62.486 32.984
32.448 63.149 34.114
32.277 62.981 35.061
32.407 63.107 35.962
32.781 63.166 36.901
33.485 63.230 37.924
33.523 62.647 38.321
33.206 63.577 33.233
32.775 63.638 33.740
33.095 64.005 33.474
32.620 63.768 34.536
32.737 63.827 35.692
33.353 64.269 36.731
33.440 63.842 37.405
32.961 64.253 33.985
33.014 64.583 34.850
33.241 64.658 35.818
33.137 57.027 33.758
33.467 57.055 34.671
33.458 57.079 35.996
33.620 57.505 33.923
33.978 57.710 34.497
33.995 57.698 35.423
33.857 57.817 36.543
33.600 58.086 37.453
34.055 58.372 36.970
33.598 59.377 32.759
34.157 58.916 33.296
34.042 58.121 33.897
33.824 58.653 37.623
33.613 59.006 38.063
33.980 59.031 37.687
33.671 60.344 32.644
34.233 59.737 32.892
33.999 59.492 37.858
33.812 60.204 38.315
33.813 61.253 32.621
33.092 60.914 38.833
33.871 61.218 38.521
32.988 61.973 32.864
33.878 62.238 32.685
34.071 62.050 38.552
33.938 62.959 32.709
34.014 62.717 32.625
34.082 62.885 32.622
33.818 63.054 38.324
34.173 62.748 38.469
34.083 63.771 32.940
33.408 63.978 33.223
34.212 63.064 32.666
33.687 64.255 37.362
34.094 64.050 37.836
34.133 63.438 38.265
33.485 64.449 33.499
33.286 64.881 34.139
33.374 65.184 34.639
33.543 65.301 34.300
33.528 65.211 35.349
33.981 65.143 36.438
34.013 64.634 37.249
34.002 65.660 34.728
34.105 65.656 35.645
34.423 58.310 34.859
34.313 58.336 36.066
34.555 58.677 34.102
34.852 58.889 34.718
34.751 58.891 35.643
34.368 58.997 36.943
34.591 60.330 32.826
35.133 59.918 33.334
35.049 59.304 34.106
35.196 59.392 35.158
34.994 59.516 36.249
34.656 59.744 37.201
34.377 60.083 37.811
34.873 60.343 37.420
34.661 61.228 32.673
35.223 60.634 32.916
34.490 60.655 37.983
34.975 60.767 37.600
34.768 62.079 32.623
34.991 61.316 37.861
34.807 62.239 38.312
34.193 62.764 32.614
34.801 62.888 32.641
34.805 62.910 38.406
35.502 63.990 32.706
34.469 63.805 38.214
34.760 63.439 38.334
34.158 64.757 33.299
34.954 64.760 33.045
33.905 65.234 33.871
34.402 65.021 37.146
34.788 64.674 37.592
34.854 64.048 38.075
34.624 65.297 33.466
34.789 65.840 34.044
34.801 66.148 34.739
35.357 66.274 34.450
34.678 66.064 35.403
34.739 65.785 36.205
34.968 65.330 37.005
35.508 66.361 35.122
35.329 66.159 35.852
35.512 59.781 33.960
35.652 59.839 34.649
35.574 60.080 35.837
35.147 60.077 36.744
35.591 61.173 32.822
36.024 60.790 33.220
36.066 60.280 34.015
36.261 60.473 35.132
36.015 60.696 36.106
36.062 61.189 36.672
35.458 60.747 36.969
35.684 62.030 32.671
36.191 61.451 32.892
35.743 61.547 37.355
35.436 61.959 37.888
35.885 62.123 37.606
36.000 63.133 32.608
35.559 62.439 37.990
35.378 63.030 38.160
36.334 63.862 32.614
36.277 64.401 32.684
36.820 64.228 32.762
35.351 63.704 38.116
36.014 63.485 37.732
35.570 64.224 37.796
35.902 64.860 32.890
36.577 64.804 32.854
35.671 64.904 37.396
35.553 65.513 33.393
35.680 66.077 33.965
36.577 65.839 33.678
35.678 65.396 37.093
35.700 65.795 36.551
36.213 66.348 34.484
36.219 66.447 35.096
36.219 66.236 35.721
36.797 60.936 33.776
36.794 60.700 34.457
36.919 60.976 35.152
37.153 60.939 34.676
36.501 61.119 35.969
36.536 61.949 32.822
36.860 61.614 33.201
37.416 61.349 34.979
37.538 61.770 35.467
37.086 61.718 35.899
36.367 61.887 36.895
36.597 62.600 32.702
37.017 62.311 32.930
37.592 62.419 35.908
37.461 63.184 36.530
36.852 62.879 36.904
36.063 62.668 37.618
36.777 63.416 32.686
37.312 63.722 32.995
37.156 63.545 36.909
36.573 64.154 37.250
36.401 65.274 33.129
37.207 64.923 33.224
36.377 65.216 36.989
37.082 64.719 36.852
37.072 65.267 36.630
37.548 65.768 33.751
36.672 65.761 36.382
37.332 65.519 36.168
37.151 65.985 35.693
37.191 66.216 34.218
36.941 66.331 34.988
37.277 61.106 34.308
37.430 61.642 33.817
37.719 61.663 34.466
37.795 61.916 35.119
38.022 62.209 34.711
37.138 62.927 32.868
37.547 62.709 33.373
38.031 62.630 35.299
37.865 63.236 35.996
38.176 63.489 35.376
37.833 64.080 33.513
37.943 63.972 35.994
38.120 64.439 35.464
37.463 63.948 36.621
37.954 65.146 33.729
37.628 64.791 36.250
37.822 65.421 35.488
38.032 65.774 33.950
37.611 66.038 35.099
37.806 66.094 34.093
37.699 66.180 34.540
37.930 62.347 34.134
38.114 63.389 34.045
38.196 62.939 34.691
38.227 64.512 34.121
38.292 63.940 34.729
38.215 65.422 34.214
38.236 64.956 34.778
38.072 65.949 34.260
38.049 65.750 34.716
3 2 1 0
3 0 3 2
3 0 1 4
3 4 1 5
3 3 0 6
3 0 7 6
3 0 4 7
3 9 8 7
3 7 8 6
3 11 10 9
3 9 10 8
3 11 12 10
3 15 14 13
3 15 13 5
3 13 4 5
3 13 16 4
3 4 17 7
3 4 16 17
3 19 9 18
3 9 17 18
3 9 7 17
3 21 20 19
3 20 9 19
3 20 11 9
3 12 11 22
3 22 11 20
3 14 23 13
3 13 23 16
3 16 23 24
3 16 24 17
3 17 24 25
3 17 25 18
3 20 21 26
3 26 21 27
3 22 20 28
3 28 20 26
3 31 30 29
3 29 32 31
3 27 33 26
3 26 33 28
3 30 34 29
3 29 34 32
3 35 1 2
3 37 35 36
3 35 2 36
3 3 38 36
3 3 36 2
3 38 39 36
3 41 40 35
3 40 1 35
3 40 5 1
3 3 6 38
3 35 37 41
3 42 39 38
3 6 42 38
3 8 42 6
3 43 8 10
3 43 42 8
3 10 12 43
3 43 12 44
3 46 45 15
3 15 45 14
3 15 5 40
3 15 40 46
3 18 47 19
3 47 21 19
3 22 49 48
3 44 22 48
3 12 22 44
3 49 50 48
3 23 14 51
3 14 52 51
3 14 45 52
3 53 24 23
3 53 23 51
3 54 25 24
3 54 24 53
3 47 18 25
3 54 47 25
3 55 47 54
3 55 27 21
3 55 21 47
3 28 56 49
3 28 49 22
3 50 49 57
3 57 49 56
3 51 52 58
3 58 52 59
3 51 60 53
3 51 58 60
3 60 30 31
3 54 60 31
3 53 60 54
3 54 31 32
3 61 54 32
3 55 54 61
3 62 33 27
3 55 62 27
3 61 62 55
3 56 28 33
3 62 56 33
3 63 56 62
3 57 56 64
3 56 65 64
3 56 63 65
3 65 66 64
3 58 59 67
3 67 59 68
3 58 69 60
3 58 67 69
3 70 34 30
3 60 70 30
3 69 70 60
3 61 32 34
3 70 61 34
3 71 61 70
3 61 72 62
3 61 71 72
3 62 73 63
3 62 72 73
3 75 65 74
3 65 73 74
3 65 63 73
3 65 75 66
3 67 68 76
3 76 68 77
3 67 78 69
3 67 76 78
3 69 79 70
3 69 78 79
3 70 80 71
3 70 79 80
3 82 72 81
3 72 80 81
3 72 71 80
3 72 82 73
3 73 82 83
3 73 83 74
3 77 84 76
3 86 85 84
3 85 76 84
3 85 78 76
3 78 87 79
3 78 85 87
3 89 80 88
3 80 87 88
3 80 79 87
3 80 89 81
3 86 90 85
3 85 90 87
3 87 90 91
3 87 91 88
3 92 37 36
3 39 92 36
3 93 40 41
3 37 92 41
3 92 93 41
3 92 94 93
3 42 95 39
3 95 92 39
3 95 94 92
3 43 96 42
3 42 96 95
3 44 96 43
3 97 45 46
3 98 97 46
3 98 46 40
3 99 98 40
3 93 99 40
3 99 93 94
3 99 94 100
3 100 94 95
3 100 95 101
3 103 102 101
3 95 103 101
3 96 103 95
3 48 104 44
3 104 96 44
3 104 103 96
3 50 104 48
3 105 52 97
3 97 52 45
3 97 98 106
3 97 106 105
3 107 102 103
3 109 108 107
3 103 109 107
3 104 109 103
3 57 109 50
3 50 109 104
3 111 110 105
3 110 52 105
3 110 59 52
3 111 105 106
3 112 108 109
3 114 112 113
3 113 112 64
3 112 109 64
3 109 57 64
3 66 113 64
3 110 68 59
3 115 68 110
3 114 113 75
3 74 114 75
3 116 114 74
3 75 113 66
3 115 77 68
3 117 77 115
3 81 118 82
3 119 83 82
3 119 82 118
3 116 74 120
3 74 119 120
3 119 121 120
3 74 83 119
3 121 122 120
3 117 123 77
3 77 123 84
3 86 84 123
3 86 123 124
3 88 125 89
3 118 81 89
3 125 118 89
3 126 118 125
3 118 127 119
3 118 126 127
3 129 121 128
3 121 127 128
3 121 119 127
3 121 129 122
3 132 131 130
3 130 133 90
3 124 130 90
3 86 124 90
3 130 124 132
3 134 91 90
3 134 90 133
3 125 88 91
3 134 125 91
3 135 125 134
3 125 136 126
3 125 135 136
3 138 127 137
3 127 136 137
3 127 126 136
3 127 138 128
3 131 139 130
3 141 140 139
3 140 130 139
3 140 133 130
3 133 142 134
3 133 140 142
3 134 143 135
3 134 142 143
3 145 136 144
3 136 143 144
3 136 135 143
3 136 145 137
3 141 146 140
3 140 146 142
3 142 146 147
3 142 147 143
3 143 147 148
3 143 148 144
3 149 98 99
3 100 150 99
3 99 150 149
3 101 151 100
3 100 151 150
3 102 151 101
3 152 106 149
3 149 106 98
3 150 154 153
3 152 150 153
3 149 150 152
3 154 150 151
3 154 151 155
3 157 155 156
3 156 155 107
3 155 151 107
3 151 102 107
3 108 156 107
3 158 110 111
3 159 158 111
3 159 111 106
3 160 159 106
3 152 160 106
3 160 152 153
3 161 157 156
3 163 161 162
3 162 161 112
3 161 156 112
3 156 108 112
3 114 162 112
3 165 164 158
3 164 110 158
3 164 115 110
3 165 158 159
3 166 163 162
3 162 114 166
3 114 167 166
3 114 116 167
3 164 117 115
3 168 117 164
3 116 120 169
3 170 116 169
3 167 116 170
3 122 169 120
3 123 117 171
3 117 172 171
3 117 168 172
3 171 124 123
3 170 169 129
3 128 170 129
3 173 170 128
3 129 169 122
3 175 174 172
3 174 131 172
3 132 171 172
3 132 172 131
3 132 124 171
3 174 175 176
3 137 177 138
3 177 178 138
3 178 128 138
3 178 173 128
3 180 139 179
3 139 131 179
3 179 131 174
3 181 179 174
3 174 176 181
3 139 180 141
3 144 182 145
3 182 183 145
3 145 183 137
3 183 184 137
3 184 177 137
3 177 184 178
3 179 185 180
3 180 185 141
3 185 146 141
3 185 186 146
3 186 188 187
3 147 186 187
3 146 186 147
3 189 148 147
3 189 147 187
3 189 190 148
3 148 190 144
3 190 191 144
3 191 182 144
3 182 191 183
3 188 192 187
3 187 192 189
3 189 192 193
3 189 193 190
3 194 153 154
3 155 195 154
3 154 195 194
3 157 195 155
3 196 159 160
3 153 194 160
3 194 196 160
3 194 197 196
3 198 194 195
3 197 194 198
3 161 199 157
3 199 195 157
3 199 198 195
3 163 199 161
3 200 164 165
3 201 200 165
3 201 165 159
3 202 201 159
3 196 202 159
3 202 196 197
3 202 197 203
3 203 197 198
3 203 198 204
3 204 198 199
3 204 199 205
3 207 205 206
3 206 205 166
3 205 199 166
3 199 163 166
3 167 206 166
3 209 208 200
3 208 164 200
3 208 168 164
3 209 200 201
3 207 206 210
3 207 210 211
3 170 210 167
3 167 210 206
3 208 172 168
3 212 172 208
3 213 211 210
3 210 170 213
3 170 214 213
3 170 173 214
3 175 172 215
3 172 216 215
3 172 212 216
3 215 176 175
3 178 214 173
3 178 217 214
3 215 216 181
3 216 179 181
3 216 218 179
3 215 181 176
3 183 219 184
3 219 220 184
3 220 178 184
3 220 217 178
3 185 179 221
3 179 222 221
3 179 218 222
3 223 186 185
3 223 185 221
3 223 188 186
3 190 224 191
3 224 225 191
3 191 225 183
3 225 226 183
3 226 219 183
3 219 226 220
3 222 227 221
3 221 227 223
3 223 227 228
3 228 230 229
3 228 229 192
3 223 228 192
3 188 223 192
3 231 193 192
3 231 192 229
3 231 232 193
3 193 232 190
3 232 233 190
3 233 224 190
3 224 233 225
3 230 234 229
3 229 234 231
3 231 234 235
3 231 235 232
3 236 201 202
3 203 237 202
3 202 237 236
3 204 238 203
3 203 238 237
3 205 239 204
3 204 239 238
3 207 239 205
3 240 208 209
3 241 240 209
3 241 209 201
3 242 241 201
3 236 242 201
3 242 236 237
3 242 237 243
3 243 237 238
3 243 238 244
3 246 245 244
3 238 246 244
3 239 246 238
3 211 246 207
3 207 246 239
3 248 247 240
3 247 208 240
3 247 212 208
3 248 240 241
3 249 245 246
3 251 249 250
3 250 249 213
3 249 246 213
3 246 211 213
3 214 250 213
3 247 216 212
3 252 216 247
3 253 251 250
3 250 214 253
3 214 254 253
3 214 217 254
3 256 218 255
3 218 252 255
3 218 216 252
3 257 256 255
3 260 259 258
3 259 254 258
3 254 220 258
3 254 217 220
3 262 261 256
3 261 218 256
3 261 222 218
3 262 256 257
3 260 258 226
3 225 260 226
3 263 260 225
3 226 258 220
3 261 264 222
3 222 264 227
3 264 266 265
3 228 264 265
3 227 264 228
3 265 230 228
3 268 267 233
3 268 233 232
3 225 233 263
3 263 233 267
3 266 269 265
3 265 269 230
3 269 234 230
3 269 270 234
3 234 271 235
3 270 271 234
3 232 235 268
3 268 235 271
3 273 272 242
3 242 272 241
3 275 273 274
3 273 243 274
3 273 242 243
3 244 276 243
3 243 276 274
3 245 276 244
3 277 247 248
3 278 277 248
3 241 278 248
3 272 278 241
3 279 275 274
3 281 280 279
3 274 281 279
3 276 281 274
3 249 282 245
3 282 276 245
3 282 281 276
3 251 282 249
3 284 283 277
3 283 247 277
3 283 252 247
3 284 277 278
3 285 280 281
3 287 286 285
3 281 287 285
3 282 287 281
3 253 288 251
3 288 282 251
3 288 287 282
3 254 288 253
3 283 289 252
3 252 289 255
3 257 255 289
3 257 289 290
3 291 286 287
3 260 292 259
3 292 287 259
3 287 288 259
3 292 291 287
3 259 288 254
3 293 261 262
3 294 293 262
3 257 294 262
3 290 294 257
3 297 296 295
3 296 292 295
3 292 263 295
3 292 260 263
3 293 264 261
3 266 264 293
3 294 266 293
3 298 266 294
3 301 300 299
3 299 300 297
3 299 297 295
3 268 299 295
3 267 268 295
3 267 295 263
3 298 302 266
3 266 302 269
3 269 303 270
3 302 303 269
3 299 271 301
3 271 303 301
3 271 270 303
3 271 299 268
3 304 272 273
3 275 304 273
3 306 305 304
3 305 272 304
3 305 278 272
3 308 306 307
3 307 306 279
3 306 304 279
3 304 275 279
3 280 307 279
3 309 283 284
3 310 309 284
3 278 310 284
3 305 310 278
3 311 308 307
3 313 311 312
3 312 311 285
3 311 307 285
3 307 280 285
3 286 312 285
3 309 289 283
3 290 289 309
3 310 290 309
3 314 290 310
3 313 312 315
3 313 315 316
3 291 317 286
3 317 312 286
3 317 315 312
3 292 317 291
3 314 294 290
3 318 294 314
3 316 315 319
3 316 319 320
3 297 319 296
3 319 317 296
3 319 315 317
3 296 317 292
3 318 298 294
3 321 298 318
3 320 319 300
3 301 320 300
3 322 320 301
3 300 319 297
3 321 323 298
3 298 323 302
3 302 324 303
3 323 324 302
3 301 303 322
3 322 303 324
3 325 305 306
3 308 325 306
3 326 310 325
3 325 310 305
3 311 327 308
3 327 325 308
3 327 326 325
3 313 327 311
3 328 314 326
3 326 314 310
3 329 326 327
3 328 326 329
3 316 329 313
3 313 329 327
3 330 318 328
3 328 318 314
3 331 328 329
3 330 328 331
3 320 331 316
3 316 331 329
3 332 321 330
3 330 321 318
3 333 330 331
3 332 330 333
3 322 333 320
3 320 333 331
3 332 323 321
3 323 332 324
3 324 332 333
3 324 333 322
