ply
format ascii 1.0
comment None
element vertex 192
property float x
property float y
property float z
element face 388
property list uchar int vertex_indices
end_header
37.676 70.677 31.089
37.967 70.705 30.686
38.124 69.994 30.671
37.806 70.088 31.164
37.668 71.311 31.103
38.134 71.211 30.668
37.647 70.552 31.506
37.608 71.175 31.603
37.863 70.733 32.054
37.792 71.896 31.151
38.230 71.837 30.836
37.710 71.874 31.688
37.936 71.601 32.250
38.006 72.297 31.237
37.960 72.423 31.722
38.471 72.655 31.697
38.231 72.419 32.430
38.489 72.877 32.348
38.778 67.226 31.228
39.027 66.958 30.552
39.137 66.401 30.871
39.263 66.271 31.729
38.813 67.147 31.958
39.106 66.907 32.429
38.787 67.943 30.558
39.372 67.927 29.934
39.253 67.171 30.155
38.430 68.232 31.271
38.533 67.945 31.883
38.857 67.648 32.518
38.817 69.039 30.199
39.539 68.705 29.723
38.220 69.175 31.012
38.257 68.958 31.805
38.638 68.631 32.519
39.181 69.323 29.864
38.806 70.114 30.204
37.920 69.915 31.668
38.388 69.865 32.479
39.074 71.081 30.482
38.421 71.062 32.740
38.821 71.865 30.864
38.377 72.267 31.116
39.046 72.291 31.344
38.572 71.975 32.905
39.305 72.744 32.029
39.074 72.629 33.176
38.766 72.937 32.865
39.302 73.062 33.259
39.028 73.045 32.435
39.206 73.168 32.999
39.830 65.106 30.479
39.947 65.256 30.131
40.105 65.025 30.295
40.172 64.904 30.775
39.807 65.038 31.024
40.088 64.880 31.282
39.925 65.076 31.566
40.257 65.069 31.784
39.709 65.528 30.257
40.012 65.879 29.990
39.492 65.619 30.820
39.652 65.412 31.476
40.091 65.618 32.345
39.451 66.285 30.280
39.787 66.927 29.885
39.655 66.479 32.796
39.406 67.289 33.046
40.013 66.943 33.474
40.123 67.842 29.675
39.237 68.209 33.123
40.080 67.844 33.666
40.069 68.689 29.589
39.139 69.250 33.137
39.813 68.751 33.555
39.643 69.337 29.743
39.953 69.945 30.050
39.172 70.397 33.217
40.043 69.650 33.614
40.147 70.733 30.439
39.198 71.519 33.297
40.231 70.867 33.694
39.880 71.520 30.998
39.957 72.239 31.800
39.148 72.180 33.295
39.983 72.280 33.579
40.155 72.661 32.535
39.588 73.023 32.601
40.042 72.987 33.028
39.975 72.890 33.582
39.754 73.137 33.459
40.448 72.854 33.748
39.626 73.168 33.019
39.936 73.157 33.450
40.205 65.303 30.088
40.481 65.171 30.411
40.602 65.042 30.927
40.482 64.988 31.409
40.869 65.406 32.357
40.520 65.728 30.089
40.859 65.634 30.455
40.876 65.373 30.813
40.979 65.751 33.375
40.500 66.278 33.540
41.226 66.066 34.125
41.052 66.471 34.191
41.512 66.352 34.470
40.512 66.712 29.902
40.929 66.205 30.284
40.737 67.103 34.008
41.330 66.829 34.344
40.760 67.613 29.817
40.589 68.394 29.705
41.066 68.071 30.047
40.892 67.981 34.066
41.476 67.694 34.196
40.268 69.098 29.719
40.871 69.029 30.127
41.384 68.535 34.146
40.840 68.870 33.911
40.782 70.019 30.428
41.242 69.724 33.762
40.724 70.627 30.633
40.413 71.000 30.688
40.813 70.979 31.085
41.165 70.627 33.964
40.828 71.603 33.926
41.545 70.949 34.078
40.531 72.233 32.231
40.935 71.570 31.972
40.966 72.199 32.728
40.562 72.531 33.773
41.211 72.026 33.985
40.165 72.968 33.483
40.692 72.616 33.405
40.516 72.856 33.690
41.008 72.574 33.808
40.450 72.982 33.701
40.990 65.388 31.498
41.312 66.163 31.102
41.643 65.984 32.571
41.600 65.757 33.430
41.894 65.901 33.341
41.582 65.862 34.093
41.690 66.052 34.521
41.818 66.245 34.637
41.889 66.085 34.670
41.183 67.139 30.352
41.650 67.244 31.194
41.865 66.921 32.120
42.032 66.138 33.390
42.068 66.775 33.236
42.134 66.330 33.785
41.951 66.219 34.587
41.831 66.743 34.369
41.516 68.229 30.804
41.913 67.964 31.906
42.061 67.683 32.821
42.099 66.761 33.951
42.034 67.926 33.767
41.427 69.381 30.920
41.823 68.870 31.673
41.952 68.980 33.021
41.637 69.268 34.076
42.038 69.124 33.767
42.138 68.846 33.935
41.951 68.954 34.078
41.234 70.273 31.034
41.783 69.833 31.952
42.069 69.867 32.958
42.009 69.594 33.600
41.630 69.298 33.813
41.727 69.847 33.965
41.971 70.133 34.087
41.408 70.697 31.682
41.845 70.718 32.629
41.878 71.253 34.043
41.454 72.123 33.280
41.640 71.618 32.931
41.885 71.748 33.470
41.649 71.962 33.943
41.564 72.151 33.681
42.007 65.988 33.781
41.886 65.913 34.090
41.895 66.010 34.473
42.041 66.233 34.238
42.189 69.428 33.869
42.205 70.194 33.515
42.208 69.885 33.952
42.096 71.110 33.413
42.188 70.702 33.870
42.012 71.526 33.805
3 2 1 0
3 0 3 2
3 0 1 4
3 4 1 5
3 3 0 6
3 0 7 6
3 0 4 7
3 7 8 6
3 4 5 9
3 9 5 10
3 4 11 7
3 4 9 11
3 8 7 12
3 12 7 11
3 10 13 9
3 15 14 13
3 14 9 13
3 14 11 9
3 12 11 16
3 16 11 14
3 15 17 14
3 14 17 16
3 20 19 18
3 22 21 18
3 18 21 20
3 22 23 21
3 26 25 24
3 26 24 19
3 24 18 19
3 24 27 18
3 18 28 22
3 18 27 28
3 23 22 29
3 29 22 28
3 24 25 30
3 30 25 31
3 24 32 27
3 24 30 32
3 27 33 28
3 27 32 33
3 29 28 34
3 34 28 33
3 31 35 30
3 36 1 2
3 30 36 2
3 32 30 2
3 35 36 30
3 32 2 3
3 37 32 3
3 33 32 37
3 34 33 38
3 38 33 37
3 36 5 1
3 39 5 36
3 6 37 3
3 6 8 37
3 8 38 37
3 8 40 38
3 42 10 41
3 10 39 41
3 10 5 39
3 43 42 41
3 12 40 8
3 12 44 40
3 42 13 10
3 15 13 42
3 43 15 42
3 45 15 43
3 16 47 46
3 44 16 46
3 12 16 44
3 47 48 46
3 45 49 15
3 15 49 17
3 16 17 47
3 17 50 47
3 17 49 50
3 47 50 48
3 53 52 51
3 55 54 51
3 51 54 53
3 57 56 55
3 55 56 54
3 57 58 56
3 51 52 59
3 59 52 60
3 51 61 55
3 51 59 61
3 55 62 57
3 55 61 62
3 58 57 63
3 63 57 62
3 59 60 64
3 64 60 65
3 64 19 20
3 61 64 20
3 59 64 61
3 61 20 21
3 61 21 62
3 67 66 23
3 23 66 21
3 66 63 21
3 63 62 21
3 67 68 66
3 64 65 26
3 65 25 26
3 65 69 25
3 64 26 19
3 29 70 67
3 29 67 23
3 68 67 71
3 71 67 70
3 69 31 25
3 72 31 69
3 34 73 70
3 34 70 29
3 71 70 74
3 74 70 73
3 72 75 31
3 31 75 35
3 36 35 75
3 36 75 76
3 38 77 73
3 38 73 34
3 74 73 78
3 78 73 77
3 76 39 36
3 79 39 76
3 40 80 77
3 40 77 38
3 78 77 81
3 81 77 80
3 79 82 39
3 39 82 41
3 43 41 82
3 43 82 83
3 44 84 80
3 44 80 40
3 81 80 85
3 85 80 84
3 87 45 86
3 45 83 86
3 45 43 83
3 44 46 84
3 87 86 88
3 90 89 48
3 48 89 46
3 89 85 46
3 85 84 46
3 90 91 89
3 87 49 45
3 88 92 87
3 92 49 87
3 92 50 49
3 48 50 90
3 50 93 90
3 50 92 93
3 90 93 91
3 94 52 53
3 54 95 53
3 53 95 94
3 95 54 96
3 54 97 96
3 54 56 97
3 56 58 97
3 97 58 98
3 99 60 94
3 94 60 52
3 95 101 100
3 99 95 100
3 94 95 99
3 101 95 96
3 63 103 102
3 98 63 102
3 58 63 98
3 105 104 103
3 103 104 102
3 105 106 104
3 108 107 99
3 107 60 99
3 107 65 60
3 108 99 100
3 66 103 63
3 103 66 68
3 109 103 68
3 105 103 109
3 106 105 110
3 110 105 109
3 112 69 111
3 69 107 111
3 69 65 107
3 113 112 111
3 71 114 109
3 71 109 68
3 110 109 115
3 115 109 114
3 116 72 112
3 112 72 69
3 112 113 117
3 112 117 116
3 119 118 114
3 71 119 114
3 74 119 71
3 114 118 115
3 116 75 72
3 76 75 116
3 117 76 116
3 120 76 117
3 78 119 74
3 78 121 119
3 123 79 122
3 79 120 122
3 79 76 120
3 124 123 122
3 81 126 125
3 121 81 125
3 78 81 121
3 126 127 125
3 123 82 79
3 129 128 83
3 129 83 82
3 124 129 82
3 123 124 82
3 130 128 129
3 85 131 126
3 85 126 81
3 127 126 132
3 132 126 131
3 128 86 83
3 134 133 88
3 134 88 86
3 130 134 86
3 128 130 86
3 136 135 134
3 135 131 134
3 85 134 131
3 134 85 133
3 89 133 85
3 133 89 135
3 135 137 133
3 136 137 135
3 135 89 131
3 137 136 91
3 136 132 91
3 131 89 91
3 131 91 132
3 133 92 88
3 92 133 93
3 93 133 137
3 93 137 91
3 138 96 97
3 98 138 97
3 139 100 101
3 96 138 101
3 138 139 101
3 138 140 139
3 140 138 98
3 141 140 98
3 102 141 98
3 142 140 141
3 143 102 104
3 143 141 102
3 145 144 106
3 144 104 106
3 144 143 104
3 145 146 144
3 147 107 108
3 100 139 108
3 139 147 108
3 139 148 147
3 149 139 140
3 148 139 149
3 140 142 150
3 151 140 150
3 149 140 151
3 152 151 150
3 154 153 145
3 106 154 145
3 110 154 106
3 145 153 146
3 147 111 107
3 111 147 113
3 147 155 113
3 147 148 155
3 156 148 149
3 155 148 156
3 157 149 151
3 156 149 157
3 151 152 158
3 159 151 158
3 157 151 159
3 158 154 159
3 154 115 159
3 154 110 115
3 160 117 155
3 155 117 113
3 161 155 156
3 160 155 161
3 162 156 157
3 161 156 162
3 163 118 119
3 165 164 159
3 162 159 164
3 159 162 157
3 165 159 166
3 159 115 166
3 118 163 166
3 118 166 115
3 167 120 160
3 160 120 117
3 168 160 161
3 167 160 168
3 162 170 169
3 168 162 169
3 161 162 168
3 121 171 119
3 121 162 171
3 162 121 170
3 172 170 121
3 170 172 164
3 171 164 172
3 172 163 171
3 171 163 119
3 162 164 171
3 166 163 173
3 173 163 172
3 167 122 120
3 122 167 124
3 167 174 124
3 167 168 174
3 168 169 175
3 168 175 174
3 125 172 121
3 125 127 172
3 127 173 172
3 127 176 173
3 174 129 124
3 178 177 130
3 178 130 129
3 175 178 129
3 174 175 129
3 179 177 178
3 132 176 127
3 132 180 176
3 177 134 130
3 179 181 177
3 181 134 177
3 181 136 134
3 132 136 180
3 180 136 181
3 182 142 141
3 143 183 141
3 141 183 182
3 144 184 143
3 143 184 183
3 146 184 144
3 182 150 142
3 150 182 152
3 182 185 152
3 182 183 185
3 154 185 153
3 185 184 153
3 185 183 184
3 153 184 146
3 185 158 152
3 158 185 154
3 186 164 165
3 166 186 165
3 187 169 170
3 164 186 170
3 186 187 170
3 186 188 187
3 173 188 166
3 166 188 186
3 189 175 187
3 187 175 169
3 190 187 188
3 189 187 190
3 176 190 173
3 173 190 188
3 189 178 175
3 178 189 179
3 189 191 179
3 189 190 191
3 180 191 176
3 176 191 190
3 191 181 179
3 181 191 180
