ply
format ascii 1.0
comment None
element vertex 22
property float x
property float y
property float z
element face 40
property list uchar int vertex_indices
end_header
29.986 62.775 31.001
29.995 62.787 31.000
29.988 62.777 31.001
29.991 62.782 31.000
29.994 62.786 31.000
30.001 62.795 31.000
29.994 62.786 31.000
30.006 62.802 31.000
30.010 62.810 31.000
30.015 62.816 31.000
30.008 62.805 31.000
30.027 62.834 31.000
30.032 62.841 31.000
30.027 62.833 31.000
30.035 62.846 30.999
30.007 62.804 31.000
30.021 62.824 31.000
30.018 62.821 31.000
30.025 62.830 31.000
30.032 62.841 31.000
30.035 62.845 30.999
30.027 62.834 31.000
3 2 1 0
3 0 3 2
3 1 4 0
3 0 4 3
3 6 5 2
3 2 5 1
3 2 3 6
3 6 3 7
3 4 1 8
3 1 9 8
3 1 5 9
3 8 10 4
3 10 3 4
3 10 7 3
3 8 9 11
3 11 9 12
3 10 8 13
3 13 8 11
3 12 14 11
3 11 14 13
3 15 5 6
3 7 15 6
3 17 16 15
3 16 5 15
3 16 9 5
3 15 7 17
3 7 18 17
3 7 10 18
3 20 12 19
3 12 16 19
3 12 9 16
3 19 18 20
3 18 13 20
3 18 10 13
3 20 14 12
3 14 20 13
3 21 16 17
3 18 21 17
3 21 19 16
3 19 21 18
