ply
format ascii 1.0
comment None
element vertex 228
property float x
property float y
property float z
element face 448
property list uchar int vertex_indices
end_header
27.027 47.464 34.071
27.004 47.539 34.016
27.219 47.157 34.240
27.214 47.114 34.304
26.945 47.636 33.978
26.977 47.606 33.985
27.094 47.361 34.161
26.966 47.613 33.995
28.100 45.798 35.367
28.011 46.055 34.976
28.521 45.595 35.464
28.584 45.386 36.010
28.230 45.529 35.899
28.525 45.303 36.442
27.600 46.506 34.730
27.659 46.598 34.584
27.940 45.975 35.437
28.331 45.465 36.344
27.183 47.280 34.157
27.471 46.890 34.429
27.463 46.732 34.648
27.918 46.270 35.144
28.399 45.671 36.170
27.119 47.376 34.129
27.399 46.930 34.467
28.337 45.901 35.106
28.910 45.488 35.577
29.231 45.279 36.183
29.101 45.209 36.918
28.699 45.246 37.034
29.115 45.201 37.593
28.920 45.245 37.651
29.388 45.260 38.134
28.082 46.229 34.993
28.863 45.634 35.550
28.657 45.358 37.036
28.966 45.310 37.632
29.199 45.288 38.053
27.673 46.610 34.689
28.795 45.694 35.969
29.094 45.430 37.137
29.447 45.323 36.012
29.876 45.199 36.540
29.966 45.197 37.187
29.775 45.248 37.966
29.940 45.346 38.602
29.430 45.416 36.144
29.967 45.257 36.587
29.342 45.347 37.945
29.760 45.366 38.489
29.782 45.381 36.969
29.968 45.409 38.087
30.344 45.208 37.094
30.568 45.247 37.671
30.490 45.303 38.167
30.534 45.432 38.918
30.441 45.487 39.164
30.847 45.572 39.531
30.919 45.616 39.679
31.111 45.656 39.813
30.360 45.275 37.203
30.700 45.296 37.736
30.385 45.484 38.919
30.927 45.617 39.528
31.423 45.763 40.027
30.511 45.376 37.895
30.931 45.559 39.036
31.585 45.808 40.001
30.887 45.371 38.347
30.938 45.464 38.906
31.359 45.693 39.770
30.926 45.426 38.441
31.259 45.585 39.234
31.800 45.828 40.054
32.229 46.019 40.534
32.130 46.004 40.526
32.077 45.994 40.496
32.847 46.303 41.018
31.743 45.823 39.968
32.455 46.133 40.690
32.383 46.079 40.606
32.821 46.266 40.977
32.904 46.312 41.056
33.453 46.569 41.386
33.229 46.463 41.215
33.296 46.503 41.271
33.568 46.629 41.442
33.760 46.723 41.536
33.934 46.809 41.625
33.770 46.728 41.527
34.009 46.848 41.653
33.327 46.496 41.309
33.476 46.569 41.404
33.849 46.758 41.586
33.686 46.675 41.492
33.912 46.797 41.614
34.150 46.922 41.715
33.908 46.796 41.590
34.133 46.914 41.700
33.717 46.686 41.522
34.048 46.864 41.666
34.200 46.948 41.734
34.290 46.997 41.767
34.296 47.001 41.770
34.248 46.975 41.746
34.343 47.027 41.788
41.968 61.926 40.834
42.059 61.940 40.121
42.250 61.668 40.983
42.136 61.660 41.709
42.021 61.958 41.598
42.390 61.839 42.523
42.222 62.590 38.842
42.340 62.790 38.464
42.411 62.670 38.565
42.242 62.258 39.310
42.035 62.428 39.753
42.035 62.442 40.837
42.012 62.693 40.118
42.241 62.339 41.792
42.363 63.039 38.841
42.167 62.954 39.659
42.750 61.462 43.242
42.857 61.284 43.158
42.983 61.311 43.421
43.219 61.598 43.625
42.261 61.893 40.030
42.489 62.184 39.666
42.578 61.939 40.491
42.701 61.684 41.448
42.626 61.471 42.373
42.642 61.735 43.234
43.020 61.917 43.517
42.516 62.998 38.304
42.701 63.217 38.229
42.695 63.032 38.467
42.616 62.629 39.056
42.272 63.060 40.324
42.564 63.009 41.300
42.785 62.719 42.311
42.764 62.137 43.094
42.684 63.382 38.399
42.728 63.677 38.831
42.949 63.861 38.724
42.614 63.618 39.568
42.819 63.679 40.527
43.204 63.604 41.297
43.149 63.287 41.674
43.143 64.399 39.321
43.168 64.385 39.994
43.377 64.243 40.712
43.270 61.492 43.208
42.909 62.640 40.013
43.061 62.213 41.201
43.168 61.761 42.238
43.721 61.926 42.924
43.671 62.279 43.831
43.742 61.855 43.755
43.852 61.825 43.471
44.064 62.323 43.959
42.899 63.509 38.547
43.018 63.331 39.230
43.202 63.317 40.034
43.374 63.292 41.075
43.604 62.509 42.105
43.374 62.836 43.182
44.010 62.449 42.854
44.082 62.175 43.313
44.003 63.139 43.706
44.134 62.732 43.987
43.276 64.230 39.303
43.414 64.068 40.158
43.654 64.331 40.849
43.730 63.782 41.680
43.969 63.107 42.412
43.588 63.289 41.847
43.496 63.801 41.893
43.992 64.017 42.916
44.263 63.719 43.504
44.294 63.230 43.819
43.625 65.345 39.881
43.677 65.349 39.686
43.696 64.847 40.290
43.515 64.708 40.261
43.726 64.972 40.772
43.984 64.951 41.848
44.233 64.984 42.330
44.303 64.309 42.998
43.888 66.149 39.597
43.992 66.419 39.555
43.949 66.132 39.697
43.873 66.105 39.764
43.940 66.038 40.189
44.059 65.767 41.044
44.197 65.597 41.670
44.012 66.537 39.559
43.998 66.490 39.701
44.064 66.653 39.671
44.065 66.529 39.969
44.123 66.304 40.494
44.209 66.024 41.144
44.073 66.672 39.758
44.000 71.000 42.000
44.000 71.000 42.000
44.000 71.000 42.000
44.000 71.000 42.000
44.000 71.000 42.000
44.133 62.236 43.699
44.246 62.873 43.211
44.298 62.822 43.801
44.030 64.777 41.327
44.188 63.864 42.440
44.362 63.688 43.282
44.030 65.802 40.324
44.222 65.537 41.283
44.304 64.771 42.274
44.061 66.459 39.770
44.128 66.360 40.155
44.195 66.155 40.716
44.280 65.634 41.631
44.120 66.564 40.016
44.000 71.000 42.000
45.000 72.000 40.000
45.000 72.000 40.000
45.000 72.000 40.000
45.000 72.000 40.000
45.000 72.000 40.000
45.000 72.000 40.000
3 2 1 0
3 0 3 2
3 0 1 4
3 4 1 5
3 3 0 6
3 6 0 4
3 5 7 4
3 4 7 6
3 10 9 8
3 12 11 8
3 8 11 10
3 12 13 11
3 8 9 14
3 14 9 15
3 8 16 12
3 8 14 16
3 13 12 17
3 17 12 16
3 18 1 2
3 19 18 15
3 2 15 18
3 15 2 14
3 3 14 2
3 14 3 20
3 22 16 21
3 16 20 21
3 16 14 20
3 16 22 17
3 23 5 18
3 18 5 1
3 6 20 3
3 20 6 24
3 23 24 6
3 24 23 19
3 18 19 23
3 20 24 21
3 23 7 5
3 7 23 6
3 25 9 10
3 25 10 26
3 10 27 26
3 10 11 27
3 29 28 13
3 28 11 13
3 28 27 11
3 31 30 29
3 29 30 28
3 31 32 30
3 33 15 25
3 25 15 9
3 25 26 34
3 25 34 33
3 17 35 29
3 17 29 13
3 37 31 36
3 31 35 36
3 31 29 35
3 31 37 32
3 38 19 33
3 33 19 15
3 39 22 21
3 33 39 21
3 38 33 21
3 39 33 34
3 17 22 35
3 22 40 35
3 22 39 40
3 35 40 36
3 38 24 19
3 24 38 21
3 41 26 27
3 41 27 42
3 27 43 42
3 27 28 43
3 44 28 30
3 44 43 28
3 30 32 44
3 44 32 45
3 46 34 41
3 41 34 26
3 41 42 47
3 41 47 46
3 36 48 37
3 48 49 37
3 49 32 37
3 49 45 32
3 46 39 34
3 47 50 46
3 50 39 46
3 50 40 39
3 36 40 48
3 40 51 48
3 40 50 51
3 48 51 49
3 52 42 43
3 52 43 53
3 43 54 53
3 43 44 54
3 56 55 45
3 55 44 45
3 55 54 44
3 58 57 56
3 56 57 55
3 58 59 57
3 60 47 52
3 52 47 42
3 52 53 61
3 52 61 60
3 49 62 56
3 49 56 45
3 56 63 58
3 56 62 63
3 59 58 64
3 64 58 63
3 60 50 47
3 61 65 60
3 65 50 60
3 65 51 50
3 49 51 62
3 51 66 62
3 51 65 66
3 62 66 63
3 63 66 67
3 63 67 64
3 68 53 54
3 55 69 54
3 54 69 68
3 57 70 55
3 55 70 69
3 59 70 57
3 71 61 68
3 68 61 53
3 72 68 69
3 71 68 72
3 70 74 73
3 72 70 73
3 69 70 72
3 59 64 70
3 64 75 70
3 75 74 70
3 75 64 76
3 76 77 75
3 71 65 61
3 65 71 66
3 66 71 72
3 73 78 72
3 78 66 72
3 78 67 66
3 64 67 76
3 67 79 76
3 67 78 79
3 76 79 77
3 80 73 74
3 80 74 81
3 74 82 81
3 74 75 82
3 75 77 82
3 82 77 83
3 80 78 73
3 79 78 80
3 84 79 80
3 81 84 80
3 85 79 84
3 83 77 86
3 77 85 86
3 85 87 86
3 77 79 85
3 87 88 86
3 84 89 85
3 85 89 87
3 87 89 90
3 87 90 88
3 92 91 82
3 82 91 81
3 82 83 92
3 92 83 93
3 91 84 81
3 94 84 91
3 95 93 83
3 95 83 86
3 86 88 95
3 95 88 96
3 94 97 84
3 84 97 89
3 89 98 90
3 97 98 89
3 88 90 96
3 96 90 98
3 99 91 92
3 93 99 92
3 100 94 99
3 99 94 91
3 100 99 93
3 101 100 93
3 95 101 93
3 102 100 101
3 95 96 101
3 101 96 103
3 100 97 94
3 102 104 100
3 104 97 100
3 104 98 97
3 96 98 103
3 103 98 104
3 105 102 101
3 103 105 101
3 105 104 102
3 104 105 103
3 108 107 106
3 110 109 106
3 106 109 108
3 110 111 109
3 114 113 112
3 116 115 112
3 112 115 114
3 118 117 116
3 117 106 116
3 107 115 116
3 107 116 106
3 106 117 110
3 110 117 119
3 110 119 111
3 113 120 112
3 112 120 116
3 116 120 121
3 116 121 118
3 124 123 122
3 122 125 124
3 128 127 126
3 107 108 126
3 108 128 126
3 108 129 128
3 130 108 109
3 130 129 108
3 131 122 111
3 122 130 111
3 130 109 111
3 122 123 130
3 125 122 132
3 132 122 131
3 135 134 133
3 113 114 133
3 114 135 133
3 114 136 135
3 115 126 127
3 136 115 127
3 114 115 136
3 107 126 115
3 117 118 137
3 138 119 117
3 138 117 137
3 138 139 119
3 119 139 111
3 139 140 111
3 140 131 111
3 131 140 132
3 134 141 133
3 141 143 142
3 141 142 120
3 133 141 120
3 113 133 120
3 144 121 120
3 144 120 142
3 137 118 121
3 144 137 121
3 145 137 144
3 147 138 146
3 138 145 146
3 138 137 145
3 138 147 139
3 143 148 142
3 142 148 144
3 144 148 149
3 144 149 145
3 145 149 150
3 145 150 146
3 151 123 124
3 125 151 124
3 152 127 128
3 129 153 128
3 128 153 152
3 130 154 129
3 129 154 153
3 123 151 130
3 151 154 130
3 151 155 154
3 132 156 125
3 157 125 156
3 125 157 151
3 158 151 157
3 151 158 155
3 156 159 157
3 160 134 135
3 136 161 135
3 135 161 160
3 127 152 136
3 152 161 136
3 152 162 161
3 163 152 153
3 162 152 163
3 164 153 154
3 163 153 164
3 165 140 139
3 167 166 155
3 164 155 166
3 155 164 154
3 158 167 155
3 165 132 140
3 132 165 156
3 168 156 165
3 159 156 169
3 169 156 168
3 160 141 134
3 141 160 143
3 160 170 143
3 160 161 170
3 171 161 162
3 170 161 171
3 163 173 172
3 171 163 172
3 162 163 171
3 173 175 174
3 173 176 175
3 176 173 146
3 163 146 173
3 146 163 147
3 175 147 163
3 163 164 175
3 175 164 174
3 176 147 175
3 166 174 164
3 176 139 147
3 139 176 165
3 177 165 176
3 179 168 178
3 168 177 178
3 168 165 177
3 168 179 169
3 170 148 143
3 148 180 149
3 180 148 181
3 170 181 148
3 181 170 182
3 171 182 170
3 149 183 150
3 183 171 150
3 172 150 171
3 150 172 184
3 182 184 172
3 184 182 183
3 183 180 184
3 149 180 183
3 183 182 171
3 176 146 150
3 184 176 150
3 185 176 184
3 187 177 186
3 177 185 186
3 177 176 185
3 177 187 178
3 190 189 188
3 190 188 181
3 188 180 181
3 188 191 180
3 180 192 184
3 180 191 192
3 184 193 185
3 184 192 193
3 186 185 194
3 194 185 193
3 189 195 188
3 197 196 195
3 196 188 195
3 196 191 188
3 199 192 198
3 192 196 198
3 192 191 196
3 192 199 193
3 193 199 200
3 193 200 194
3 197 201 196
3 196 201 198
3 204 203 202
3 202 205 204
3 203 206 202
3 202 206 205
3 207 158 157
3 159 207 157
3 208 166 167
3 158 207 167
3 207 208 167
3 207 209 208
3 169 209 159
3 159 209 207
3 210 172 173
3 174 211 173
3 173 211 210
3 166 208 174
3 208 211 174
3 208 212 211
3 178 212 179
3 212 209 179
3 212 208 209
3 179 209 169
3 213 181 182
3 172 210 182
3 210 213 182
3 210 214 213
3 215 210 211
3 214 210 215
3 186 215 187
3 215 212 187
3 215 211 212
3 187 212 178
3 216 189 190
3 181 213 190
3 213 216 190
3 213 217 216
3 218 213 214
3 217 213 218
3 219 214 215
3 218 214 219
3 194 219 186
3 186 219 215
3 216 195 189
3 195 216 197
3 216 220 197
3 216 217 220
3 198 220 199
3 220 218 199
3 220 217 218
3 199 218 200
3 200 218 219
3 200 219 194
3 220 201 197
3 201 220 198
3 221 203 204
3 205 221 204
3 224 223 222
3 222 225 224
3 221 206 203
3 206 221 205
3 223 226 222
3 222 226 225
3 227 223 224
3 225 227 224
3 227 226 223
3 226 227 225
