ply
format ascii 1.0
comment None
element vertex 791
property float x
property float y
property float z
element face 1586
property list uchar int vertex_indices
end_header
30.124 52.185 31.942
30.278 52.093 31.718
30.182 51.757 31.945
30.155 51.924 32.174
30.225 52.552 31.794
30.441 52.602 31.567
30.361 52.641 32.208
30.506 53.219 31.703
30.606 50.450 32.545
30.843 50.725 32.070
31.132 50.017 32.482
30.863 49.950 32.880
30.603 50.315 32.964
30.904 50.017 33.280
30.343 51.257 32.253
30.559 51.485 31.805
30.451 50.954 32.829
30.732 50.611 33.368
30.781 52.104 31.512
30.343 51.858 32.614
30.749 51.536 33.290
30.955 53.053 31.359
30.475 52.463 32.627
30.669 52.277 32.935
30.649 53.743 31.414
30.746 54.036 31.331
30.931 53.798 31.293
30.718 53.947 31.670
31.010 53.799 32.175
30.978 52.982 32.723
30.775 54.160 31.468
31.261 54.552 31.786
31.564 49.455 33.274
32.200 49.121 32.864
32.307 48.733 33.343
32.298 48.778 34.053
31.888 49.433 34.382
32.371 49.015 34.731
31.432 50.366 32.029
31.972 49.789 32.408
31.287 50.173 33.964
32.427 49.496 35.194
31.910 50.131 34.882
32.507 50.204 35.588
31.478 51.291 31.648
32.031 50.510 31.913
31.060 50.976 33.857
31.653 50.959 34.566
32.209 50.708 35.271
31.491 52.289 31.357
31.406 51.673 33.971
31.985 51.688 34.545
32.359 51.338 35.134
31.858 52.894 31.251
32.208 52.304 34.000
31.339 52.430 33.349
31.126 54.246 31.394
31.725 53.736 31.284
31.798 53.128 32.993
31.874 53.839 32.695
31.973 54.911 31.531
31.865 55.331 31.964
32.097 55.056 32.514
32.127 55.800 31.844
32.467 56.050 31.619
32.314 55.997 32.230
32.458 56.369 31.977
32.653 48.380 33.721
33.037 48.292 33.654
32.891 48.233 33.848
32.908 48.391 34.099
32.658 48.821 32.964
32.909 48.511 33.330
32.947 48.747 34.706
32.669 49.044 35.073
33.182 49.226 35.400
32.806 49.366 32.594
33.333 48.917 32.946
32.941 49.807 35.823
32.942 50.291 36.033
33.289 50.108 36.206
32.442 51.134 31.721
33.004 50.428 32.191
33.194 50.472 36.226
32.993 50.875 35.831
32.665 52.276 31.395
33.109 51.521 31.893
33.043 51.621 35.384
32.692 51.968 34.790
32.688 53.200 31.222
32.173 52.829 33.347
32.835 52.722 33.511
32.949 53.312 32.751
33.467 52.462 34.206
33.029 53.949 31.367
32.803 54.432 32.919
32.823 55.259 31.292
32.865 55.179 33.050
32.783 55.662 32.976
33.312 55.572 33.298
32.903 56.146 31.364
33.134 56.045 33.103
32.731 56.098 32.715
32.726 56.743 31.873
32.848 56.685 31.596
33.083 56.861 32.374
33.214 57.345 31.834
33.235 48.300 33.883
33.789 48.561 33.518
33.798 48.528 34.259
33.775 48.874 34.982
34.218 49.365 35.512
33.859 49.711 32.621
34.120 49.086 32.982
33.553 49.696 35.968
33.705 50.050 36.242
33.966 50.503 32.472
33.349 50.647 36.226
33.551 50.396 36.306
33.510 52.530 31.966
33.892 51.476 32.559
34.081 52.541 33.992
34.411 52.365 33.688
33.924 52.432 33.667
33.437 52.081 35.088
34.521 52.714 34.260
33.993 51.625 35.662
33.768 50.787 36.114
33.467 53.091 31.098
34.086 53.378 30.780
34.019 52.909 31.050
34.251 53.101 31.483
33.533 53.292 31.799
33.528 52.463 33.126
34.189 52.474 35.008
33.770 53.621 31.162
34.302 54.115 30.491
33.472 53.359 31.311
33.888 53.509 32.073
33.707 54.033 32.979
33.522 54.624 30.983
33.943 55.123 30.692
33.508 54.850 33.317
34.035 55.277 33.653
33.376 55.697 31.062
34.006 56.096 30.789
33.329 56.492 32.950
33.706 56.030 33.356
33.371 56.792 31.330
34.201 57.372 31.056
33.589 56.866 32.816
33.996 56.579 33.149
33.607 57.788 31.580
33.613 58.066 31.857
33.748 58.284 31.735
33.884 57.852 32.173
34.130 57.202 32.708
34.117 58.525 31.856
34.267 48.515 33.880
34.798 48.658 34.081
34.793 48.909 34.737
35.326 49.460 35.152
34.687 49.566 32.869
34.874 49.047 33.250
34.651 48.656 33.667
34.071 49.842 36.029
34.753 49.974 35.752
35.011 50.593 32.813
35.369 49.675 33.005
34.099 50.297 36.158
34.739 50.819 35.861
34.710 51.800 33.178
34.112 52.129 33.235
35.002 52.356 33.678
35.109 52.766 33.962
35.009 51.623 35.750
34.746 53.343 30.326
35.212 52.893 30.654
35.507 52.802 31.457
34.860 53.214 34.850
35.005 53.184 34.210
35.001 52.485 35.468
34.840 53.765 30.022
35.116 53.888 29.697
35.150 53.520 29.780
35.010 53.123 32.141
34.660 53.580 32.923
34.395 54.295 33.649
35.126 53.413 33.640
34.882 53.861 34.317
35.114 54.063 34.790
35.419 53.457 35.221
34.821 54.225 29.982
34.633 55.111 30.207
34.776 54.783 34.213
35.265 54.663 34.620
35.630 54.236 34.941
34.811 56.365 30.361
35.247 55.256 34.211
34.582 55.828 33.684
35.169 57.404 30.516
34.814 56.636 33.194
34.091 58.321 31.523
34.898 58.449 31.095
35.124 57.260 32.760
34.706 57.796 32.421
34.597 58.926 31.593
34.726 58.981 31.832
35.215 59.373 31.639
34.860 58.466 32.079
35.321 59.060 31.849
35.381 48.896 33.694
36.067 49.158 33.750
35.682 48.940 34.213
36.098 49.129 34.418
35.706 49.108 34.663
35.819 49.357 33.336
36.117 50.057 33.058
36.598 49.661 33.527
36.247 49.508 34.632
35.925 50.302 35.253
36.421 50.995 32.858
35.607 51.186 35.637
35.593 51.816 33.182
35.438 52.488 33.617
35.808 52.454 33.311
35.782 51.960 35.595
35.875 53.097 29.233
36.047 53.400 28.651
36.337 52.783 28.888
36.100 52.668 29.869
35.448 53.158 29.803
36.171 52.505 30.888
36.216 52.493 31.622
35.408 52.898 33.744
35.658 52.881 33.340
35.963 52.872 35.465
35.554 53.731 29.252
36.007 54.119 28.573
35.812 52.750 32.068
35.591 52.965 32.800
36.175 53.744 35.208
35.721 54.601 29.030
36.065 54.662 28.588
35.207 54.471 29.604
36.350 54.536 34.764
35.701 54.884 34.541
36.183 55.295 28.752
35.473 55.510 29.577
36.275 56.192 29.189
35.675 55.336 34.188
35.608 55.933 33.676
35.631 56.620 29.905
36.277 56.887 29.603
35.540 56.712 33.104
35.926 57.318 30.039
35.855 58.112 30.413
35.898 57.089 32.791
35.740 57.788 32.391
35.173 59.282 31.359
35.814 59.240 30.878
35.977 58.598 31.978
35.860 59.980 31.345
36.200 60.285 30.935
36.196 59.406 31.649
36.335 60.068 31.471
36.221 60.805 31.176
36.578 61.272 30.881
36.545 60.694 31.341
36.540 61.333 31.161
36.375 49.289 34.095
36.935 50.307 33.129
37.185 50.077 33.512
36.932 49.799 34.054
36.748 49.991 34.590
37.149 50.126 34.272
37.228 50.822 32.877
37.059 50.552 34.618
36.553 51.300 35.259
36.306 51.954 32.829
37.139 51.528 32.380
36.667 52.287 35.401
36.394 53.157 28.274
36.881 53.273 27.796
36.667 52.763 28.344
36.833 52.426 28.811
36.802 52.313 29.534
36.843 52.201 30.476
36.875 52.081 31.480
36.360 52.338 32.303
36.024 52.538 32.945
36.969 53.237 35.319
36.420 53.806 28.079
37.114 54.366 27.467
37.007 54.090 35.056
36.504 54.725 28.151
37.287 55.361 27.729
36.226 55.260 34.173
36.901 54.988 34.365
36.906 55.408 33.947
37.090 54.611 34.726
36.788 55.550 28.258
36.630 55.880 28.630
36.933 55.965 28.389
36.583 55.849 33.598
37.459 55.828 33.589
37.013 56.329 33.162
37.014 56.349 28.653
36.765 56.779 29.183
36.254 56.494 33.144
36.797 57.062 32.687
36.818 57.501 29.594
36.791 58.592 30.118
36.899 57.895 32.177
36.523 59.599 30.548
37.022 58.611 31.810
36.868 60.412 30.495
37.228 59.124 31.600
37.060 59.886 31.480
37.151 61.443 30.431
37.299 60.640 31.376
36.800 61.829 31.015
37.160 62.181 30.693
37.181 61.559 31.228
37.186 62.254 30.987
37.419 50.471 33.225
37.487 50.418 33.797
37.742 50.938 33.006
37.958 50.887 33.599
37.739 50.909 34.191
37.381 51.180 34.758
38.055 51.505 34.455
37.303 52.424 28.333
37.757 52.399 27.855
38.061 52.028 28.394
38.085 51.881 29.154
37.395 52.082 29.304
38.191 51.738 30.094
37.487 51.941 30.225
38.246 51.631 31.075
37.529 51.824 31.156
38.098 51.448 32.164
37.464 51.714 31.760
38.315 51.198 33.212
37.365 51.810 35.056
38.042 52.130 34.888
37.480 52.937 27.513
37.909 53.358 27.018
38.232 52.703 27.391
37.522 52.568 35.216
38.450 52.779 35.013
37.454 53.730 27.137
38.213 54.109 26.685
37.820 53.185 35.230
37.938 53.887 35.153
37.743 54.463 26.901
38.039 55.256 27.075
37.398 55.315 34.073
37.588 54.989 34.455
37.795 54.556 34.859
37.316 56.016 28.130
38.167 56.169 27.698
38.180 56.076 33.498
37.849 56.577 33.000
38.183 55.592 34.084
38.298 55.077 34.609
37.720 56.576 28.316
37.396 56.939 28.855
37.910 56.969 28.551
37.735 57.318 32.458
37.993 57.420 28.919
37.522 57.943 29.499
38.032 57.886 29.255
37.992 57.948 32.013
37.897 58.400 29.592
37.332 59.329 30.106
37.786 58.588 31.681
38.404 58.315 31.726
38.071 59.039 31.559
37.480 59.992 30.150
38.123 60.058 29.928
37.941 59.472 29.933
38.008 59.936 31.471
37.495 60.733 30.174
38.239 60.932 29.854
37.979 60.858 31.415
37.673 61.455 30.089
37.827 62.216 30.150
38.012 61.696 31.354
37.533 62.666 30.824
37.916 62.831 30.492
37.854 62.454 31.137
38.116 62.994 30.842
38.188 51.163 33.851
38.238 52.181 27.924
38.604 51.913 28.313
38.920 51.701 29.016
39.043 51.570 30.007
39.093 51.491 31.001
39.068 51.445 31.991
38.956 51.429 32.949
38.675 51.481 33.779
38.882 52.053 34.449
38.698 53.462 26.792
39.218 52.777 27.199
39.023 52.164 27.875
39.398 52.700 34.764
38.835 54.111 26.523
38.413 53.440 35.159
39.232 53.406 35.041
38.321 54.826 26.654
39.156 54.826 26.482
38.775 53.920 35.128
39.043 54.760 35.010
38.797 55.360 26.675
39.175 56.058 27.082
38.578 56.510 33.261
38.691 56.184 33.757
38.882 56.031 34.220
38.962 55.598 34.609
38.375 56.904 28.243
39.228 56.809 27.799
39.070 56.754 33.561
38.881 57.296 32.708
39.126 56.474 34.064
39.006 57.390 28.470
38.583 57.885 29.051
39.513 57.913 28.836
38.802 57.879 31.988
39.282 57.824 32.125
38.995 58.396 31.771
38.816 58.439 29.354
38.150 58.932 29.739
38.833 59.208 29.666
38.741 59.201 31.604
39.132 60.125 29.724
38.873 59.993 31.655
38.878 60.872 29.662
38.690 61.143 31.601
38.170 61.732 29.839
38.799 61.488 29.603
38.642 62.156 31.518
38.776 62.349 29.616
38.669 62.944 30.010
38.934 63.131 31.314
38.803 63.283 30.566
39.187 51.790 28.498
39.742 51.623 28.983
40.137 51.463 29.901
40.049 51.366 30.970
40.033 51.348 31.938
39.912 51.449 32.864
39.527 51.692 33.689
40.017 52.216 34.308
39.507 53.320 26.789
40.026 52.952 27.055
40.238 52.367 27.667
39.958 51.844 28.410
40.421 53.114 34.800
39.572 54.050 26.529
40.315 53.538 26.752
39.882 53.819 35.054
39.352 54.075 35.097
39.850 54.442 35.107
40.100 54.789 26.436
39.900 55.267 35.149
39.744 55.258 35.119
39.842 55.002 35.131
39.495 55.626 26.630
40.307 55.524 26.576
39.447 56.470 34.596
39.922 55.413 35.140
39.969 55.729 35.069
40.113 56.103 26.872
40.379 56.750 27.484
39.440 57.283 33.517
39.503 57.101 34.179
39.737 57.261 34.748
40.056 57.079 35.066
40.042 57.390 28.222
40.541 57.937 28.788
39.555 58.172 32.052
39.651 57.864 32.510
39.711 57.721 33.201
39.843 57.786 33.977
40.041 58.128 33.604
39.867 57.774 34.607
39.997 57.733 34.977
39.809 58.496 29.278
40.013 59.174 29.654
39.841 58.389 32.340
39.458 58.905 31.923
40.130 58.318 34.048
40.120 58.319 34.466
40.325 58.754 34.241
40.204 58.286 34.888
39.958 59.748 29.771
39.835 60.221 29.708
40.461 59.938 29.825
39.588 59.644 32.030
39.399 60.513 31.969
39.884 60.013 32.386
40.492 58.882 34.618
39.640 60.955 29.537
40.281 60.450 29.684
39.292 61.572 31.970
39.871 60.931 32.501
39.554 61.959 29.323
40.257 62.426 29.082
40.546 61.670 29.289
39.334 62.586 31.939
39.846 62.038 32.532
39.617 62.682 29.239
39.302 62.982 29.557
39.861 63.110 29.341
39.580 63.306 31.975
39.899 62.974 32.503
39.829 63.401 30.004
39.759 63.692 31.013
39.842 63.761 31.786
40.464 64.069 31.717
40.088 63.634 32.447
40.444 64.058 32.386
40.701 51.591 29.169
41.473 51.422 30.130
41.142 51.291 31.078
40.878 51.251 31.861
41.154 51.282 32.860
40.632 51.690 33.641
41.156 52.223 34.260
41.049 53.019 27.210
41.529 52.362 27.854
41.079 51.899 28.446
41.566 52.832 34.628
40.730 54.348 26.572
41.155 53.740 26.838
40.510 54.068 35.058
41.444 53.824 34.929
40.821 55.087 26.516
40.024 55.284 35.146
40.907 54.358 35.098
40.410 54.882 35.139
41.303 55.634 26.722
41.195 56.084 35.145
40.647 55.992 35.197
40.885 55.403 35.148
41.114 56.264 27.063
41.403 56.858 27.620
40.580 56.616 35.202
41.234 57.123 35.105
41.246 57.404 28.231
41.315 57.936 28.876
40.045 58.360 33.004
40.575 57.403 35.222
40.404 57.992 35.147
41.018 58.416 29.371
40.885 58.961 29.774
39.992 59.145 32.538
40.300 59.122 33.286
40.276 58.674 33.729
40.908 58.375 35.084
41.243 58.831 34.875
40.680 58.701 34.965
40.595 59.411 29.863
41.222 59.598 30.005
40.305 60.130 33.121
40.641 59.562 34.043
41.193 59.471 34.626
40.572 60.900 29.556
41.163 60.323 29.847
40.362 61.464 33.204
40.843 60.936 33.911
41.360 60.561 34.421
40.962 62.314 29.101
41.575 61.925 29.345
41.422 61.147 29.607
40.364 62.575 33.163
40.907 62.158 33.897
41.454 61.707 34.449
40.190 62.902 29.098
40.793 62.802 29.079
40.349 63.322 32.994
40.910 63.234 33.687
41.541 62.816 34.533
40.492 63.188 29.340
41.073 63.408 29.882
40.883 63.806 30.959
41.092 64.125 31.924
40.613 63.808 33.035
41.084 63.855 33.518
41.622 63.571 34.141
40.853 64.229 32.344
40.946 64.133 32.939
41.868 51.143 33.273
41.876 51.076 33.012
42.063 51.034 33.235
42.155 51.151 33.324
41.847 51.643 29.284
42.585 51.527 30.223
42.273 51.341 31.196
41.919 51.197 32.335
41.872 51.543 33.614
42.206 52.240 34.241
42.014 52.864 27.565
42.517 52.467 28.087
42.191 51.991 28.576
42.365 53.000 34.604
41.561 54.256 26.807
42.076 53.711 27.256
42.422 53.804 34.762
41.584 54.993 26.739
42.113 54.577 27.040
41.137 54.682 35.099
41.891 54.954 34.941
41.918 55.622 26.904
41.982 56.240 34.886
41.806 56.046 27.042
41.795 57.060 27.927
42.128 56.527 27.664
42.085 57.230 28.340
42.022 57.163 34.777
41.629 58.054 29.152
41.859 57.728 28.834
42.117 58.022 29.454
40.892 57.874 35.163
41.654 58.130 34.817
41.233 59.147 29.966
41.616 58.690 29.840
41.926 59.089 30.147
42.027 59.203 34.490
42.106 59.725 30.232
42.103 60.311 34.447
42.249 60.577 30.096
41.944 61.261 34.577
41.615 62.623 29.258
42.338 62.233 29.535
42.436 61.501 29.837
42.125 62.299 34.740
41.195 63.077 29.326
42.313 62.714 29.562
41.856 63.085 29.663
42.568 62.969 30.004
41.941 63.002 35.019
41.851 63.274 34.862
42.022 63.235 35.077
42.031 63.415 30.567
41.361 64.124 32.683
41.858 63.785 31.924
41.396 64.001 33.401
41.961 63.751 33.324
42.087 63.553 34.124
42.125 63.319 34.674
42.164 51.083 33.064
42.860 51.806 29.408
43.456 51.766 30.299
43.243 51.547 31.183
42.948 51.413 32.183
42.551 51.344 33.099
42.855 51.821 33.722
43.041 52.437 34.194
42.755 53.113 27.833
43.271 52.737 28.418
43.091 52.206 28.794
43.117 53.226 34.434
42.925 53.832 27.803
42.995 54.236 34.536
42.345 55.325 27.177
42.741 54.660 27.589
42.829 55.430 34.518
42.227 55.925 27.202
42.798 55.489 27.685
42.546 55.907 27.518
42.825 56.117 28.094
42.717 56.578 34.441
42.369 57.480 28.913
42.645 56.879 28.555
42.804 57.317 29.311
42.598 57.585 34.337
42.821 57.804 29.866
42.599 58.504 34.190
42.459 58.431 30.080
42.913 58.885 30.532
42.769 59.172 34.034
43.173 58.825 33.695
43.231 59.479 33.641
43.127 59.852 30.713
42.709 59.796 34.109
43.156 60.096 33.786
43.096 60.916 30.533
42.802 60.451 34.124
42.624 61.272 34.335
42.882 62.039 29.925
43.127 61.654 30.314
42.730 62.110 34.358
42.826 62.513 29.876
43.040 62.751 30.299
42.152 63.006 34.990
42.482 62.789 34.547
42.811 63.086 30.578
42.720 63.260 31.387
42.653 63.314 32.580
42.546 63.191 33.824
43.626 52.111 29.634
43.992 52.092 30.427
43.937 51.885 31.163
43.758 51.726 32.059
43.478 51.736 33.030
43.506 52.109 33.725
43.983 52.272 33.336
43.451 53.493 28.390
43.750 53.029 28.811
43.735 52.579 29.140
43.684 52.694 33.953
44.160 52.998 33.465
43.344 54.447 28.318
43.905 53.494 28.993
43.848 54.245 29.092
44.117 53.804 29.474
43.711 53.574 34.065
44.167 53.962 33.473
43.154 55.388 28.266
43.605 55.280 29.068
44.161 54.341 29.776
44.035 55.130 29.905
44.279 54.694 30.298
43.623 54.676 34.042
44.098 55.088 33.364
43.214 56.349 29.017
43.722 56.170 29.877
44.264 55.260 30.591
44.095 55.973 30.587
44.316 55.660 31.048
43.536 55.972 33.877
44.067 56.058 33.202
43.309 57.137 29.886
43.798 57.048 30.640
44.205 56.470 31.239
43.838 57.014 33.296
44.206 56.624 32.742
44.177 57.474 32.583
43.237 57.031 33.946
43.202 57.932 30.368
43.674 58.080 30.935
44.065 57.364 31.296
43.912 57.959 32.979
44.143 58.349 32.439
43.338 57.988 33.639
43.670 58.927 31.072
43.734 58.961 33.012
44.088 59.082 32.255
43.793 59.516 31.251
43.686 60.345 31.380
43.867 59.981 32.381
44.039 59.432 31.737
43.543 60.020 33.262
43.519 61.536 31.127
43.717 61.116 32.154
43.590 60.879 33.064
43.216 60.723 33.753
43.260 62.246 30.469
43.467 62.311 31.256
43.539 62.064 32.050
43.462 61.808 32.999
43.177 61.560 33.784
43.200 62.780 30.932
43.230 62.780 31.854
43.162 62.648 32.907
42.997 62.402 33.829
44.173 52.619 30.140
44.323 52.383 31.113
44.265 52.163 31.975
44.076 52.015 32.677
44.113 53.200 29.532
44.388 53.305 30.381
44.493 53.065 31.097
44.507 52.805 31.965
44.350 52.535 32.750
44.331 53.976 30.200
44.513 53.888 31.083
44.567 53.653 31.943
44.459 53.338 32.772
44.417 54.829 30.983
44.509 54.665 31.853
44.436 54.362 32.710
44.398 55.705 31.645
44.349 55.629 32.541
44.282 56.932 31.978
44.097 58.143 31.534
44.257 57.926 32.075
44.042 58.953 31.476
44.198 58.660 31.892
3 2 1 0
3 0 3 2
3 0 1 4
3 4 1 5
3 3 0 6
3 6 0 4
3 5 7 4
3 4 7 6
3 10 9 8
3 12 11 8
3 8 11 10
3 12 13 11
3 8 9 14
3 14 9 15
3 8 16 12
3 8 14 16
3 13 12 17
3 17 12 16
3 14 15 2
3 15 1 2
3 15 18 1
3 14 2 3
3 19 14 3
3 16 14 19
3 17 16 20
3 20 16 19
3 18 5 1
3 21 5 18
3 6 22 19
3 6 19 3
3 20 19 23
3 23 19 22
3 26 25 24
3 24 27 7
3 21 24 7
3 5 21 7
3 24 21 26
3 27 28 7
3 7 28 6
3 28 29 6
3 29 22 6
3 22 29 23
3 25 30 24
3 24 30 27
3 27 30 31
3 27 31 28
3 34 33 32
3 36 35 32
3 32 35 34
3 36 37 35
3 38 9 10
3 33 39 32
3 39 10 32
3 10 11 32
3 10 39 38
3 32 11 13
3 40 32 13
3 36 32 40
3 37 36 41
3 36 42 41
3 36 40 42
3 42 43 41
3 45 44 38
3 44 9 38
3 44 15 9
3 45 38 39
3 17 46 40
3 17 40 13
3 40 47 42
3 40 46 47
3 43 42 48
3 48 42 47
3 44 18 15
3 49 18 44
3 20 50 46
3 20 46 17
3 52 47 51
3 47 50 51
3 47 46 50
3 47 52 48
3 49 21 18
3 53 21 49
3 55 54 50
3 20 55 50
3 23 55 20
3 50 54 51
3 56 25 26
3 57 56 26
3 21 57 26
3 53 57 21
3 59 58 29
3 59 29 28
3 23 29 55
3 55 29 58
3 56 30 25
3 31 30 56
3 60 31 56
3 57 60 56
3 61 31 60
3 61 62 31
3 62 28 31
3 62 59 28
3 61 60 63
3 63 60 64
3 62 61 65
3 65 61 63
3 64 66 63
3 63 66 65
3 69 68 67
3 67 70 69
3 71 33 34
3 68 72 67
3 72 34 67
3 34 35 67
3 34 72 71
3 74 73 37
3 37 73 35
3 73 70 35
3 70 67 35
3 74 75 73
3 77 76 71
3 76 33 71
3 76 39 33
3 77 71 72
3 41 74 37
3 79 78 43
3 43 78 41
3 78 75 41
3 75 74 41
3 79 80 78
3 81 44 45
3 82 81 45
3 39 82 45
3 76 82 39
3 84 83 79
3 43 84 79
3 48 84 43
3 79 83 80
3 86 85 81
3 85 44 81
3 85 49 44
3 86 81 82
3 88 87 52
3 88 52 51
3 48 52 84
3 84 52 87
3 85 53 49
3 89 53 85
3 92 91 90
3 54 55 90
3 91 54 90
3 93 54 91
3 51 54 88
3 88 54 93
3 89 57 53
3 94 57 89
3 92 90 58
3 59 92 58
3 95 92 59
3 58 90 55
3 94 60 57
3 96 60 94
3 62 98 97
3 95 62 97
3 59 62 95
3 98 99 97
3 96 64 60
3 100 64 96
3 102 101 98
3 62 102 98
3 65 102 62
3 98 101 99
3 66 64 103
3 64 104 103
3 64 100 104
3 103 105 66
3 105 65 66
3 105 102 65
3 104 106 103
3 103 106 105
3 107 68 69
3 70 107 69
3 109 108 107
3 108 68 107
3 108 72 68
3 109 107 70
3 73 109 70
3 110 109 73
3 73 75 110
3 110 75 111
3 113 112 77
3 77 112 76
3 77 72 108
3 77 108 113
3 114 111 75
3 114 75 78
3 78 80 114
3 114 80 115
3 112 82 76
3 116 82 112
3 84 117 83
3 117 118 83
3 118 80 83
3 118 115 80
3 119 85 86
3 120 119 86
3 82 120 86
3 116 120 82
3 123 122 121
3 124 87 88
3 125 121 122
3 124 126 87
3 87 126 84
3 126 127 84
3 127 117 84
3 117 127 118
3 130 129 128
3 85 128 89
3 128 85 130
3 119 130 85
3 130 119 131
3 132 131 119
3 133 91 92
3 119 133 92
3 132 119 92
3 133 119 120
3 121 93 123
3 93 133 123
3 93 91 133
3 121 125 93
3 125 134 93
3 124 88 93
3 124 93 134
3 124 134 126
3 128 129 135
3 135 129 136
3 89 137 94
3 137 132 94
3 138 94 132
3 94 138 135
3 131 135 138
3 135 131 137
3 137 128 135
3 89 128 137
3 137 131 132
3 132 92 138
3 92 139 138
3 92 95 139
3 135 136 140
3 140 136 141
3 140 96 94
3 140 94 135
3 142 139 95
3 142 95 97
3 97 99 142
3 142 99 143
3 140 141 144
3 144 141 145
3 144 100 96
3 144 96 140
3 102 146 101
3 146 147 101
3 147 99 101
3 147 143 99
3 144 145 148
3 148 145 149
3 148 104 100
3 148 100 144
3 105 150 146
3 105 146 102
3 147 146 151
3 151 146 150
3 149 152 148
3 152 154 153
3 152 153 106
3 148 152 106
3 104 148 106
3 153 155 106
3 106 155 105
3 155 156 105
3 156 150 105
3 150 156 151
3 154 157 153
3 153 157 155
3 158 108 109
3 158 109 159
3 109 160 159
3 109 110 160
3 110 111 160
3 160 111 161
3 162 112 113
3 163 162 113
3 163 113 108
3 164 163 108
3 158 164 108
3 164 158 159
3 111 114 165
3 166 111 165
3 161 111 166
3 115 165 114
3 168 167 162
3 167 112 162
3 167 116 112
3 168 162 163
3 166 165 169
3 166 169 170
3 118 169 115
3 115 169 165
3 172 120 171
3 120 167 171
3 120 116 167
3 122 123 172
3 171 122 172
3 173 122 171
3 125 122 173
3 125 173 174
3 170 169 127
3 126 170 127
3 175 170 126
3 127 169 118
3 177 176 130
3 130 176 129
3 130 131 177
3 177 131 178
3 172 133 120
3 133 172 123
3 134 125 179
3 125 180 179
3 125 174 180
3 179 181 134
3 181 126 134
3 181 175 126
3 184 183 182
3 176 184 182
3 136 176 182
3 129 176 136
3 185 178 131
3 185 131 138
3 187 186 139
3 186 138 139
3 186 185 138
3 189 188 187
3 187 188 186
3 188 189 180
3 189 179 180
3 189 190 179
3 181 179 191
3 191 179 190
3 183 192 182
3 136 182 192
3 193 136 192
3 141 136 193
3 142 187 139
3 187 142 143
3 194 187 143
3 189 187 194
3 196 190 195
3 190 194 195
3 190 189 194
3 190 196 191
3 193 145 141
3 197 145 193
3 199 198 194
3 143 199 194
3 147 199 143
3 194 198 195
3 197 149 145
3 200 149 197
3 151 199 147
3 151 201 199
3 152 149 202
3 149 203 202
3 149 200 203
3 202 154 152
3 205 204 156
3 205 156 155
3 151 156 201
3 201 156 204
3 203 206 202
3 206 208 207
3 206 207 157
3 202 206 157
3 154 202 157
3 207 209 157
3 209 155 157
3 209 205 155
3 208 210 207
3 207 210 209
3 213 212 211
3 211 159 213
3 159 160 213
3 215 214 213
3 215 213 160
3 161 215 160
3 218 217 216
3 218 216 212
3 212 216 211
3 216 163 211
3 163 164 211
3 215 219 214
3 159 211 164
3 215 161 219
3 161 220 219
3 161 166 220
3 216 217 168
3 217 167 168
3 217 221 167
3 216 168 163
3 170 220 166
3 170 222 220
3 221 223 167
3 167 223 171
3 223 225 224
3 173 223 224
3 171 223 173
3 224 174 173
3 175 222 170
3 175 226 222
3 229 228 227
3 231 230 227
3 227 230 229
3 176 177 231
3 177 230 231
3 177 232 230
3 177 178 232
3 232 178 233
3 224 225 234
3 234 225 235
3 234 180 174
3 234 174 224
3 181 226 175
3 181 236 226
3 227 228 237
3 237 228 238
3 237 183 184
3 231 237 184
3 227 237 231
3 231 184 176
3 239 233 178
3 239 178 185
3 240 185 186
3 240 239 185
3 188 234 235
3 240 188 235
3 186 188 240
3 234 188 180
3 191 236 181
3 191 241 236
3 237 238 242
3 242 238 243
3 244 192 183
3 237 244 183
3 242 244 237
3 244 193 192
3 246 245 196
3 246 196 195
3 191 196 241
3 241 196 245
3 243 247 242
3 249 248 247
3 248 242 247
3 248 244 242
3 248 197 193
3 248 193 244
3 251 250 198
3 251 198 199
3 195 198 246
3 246 198 250
3 248 249 252
3 252 249 253
3 252 200 197
3 252 197 248
3 201 251 199
3 201 254 251
3 253 255 252
3 200 252 255
3 256 200 255
3 203 200 256
3 258 257 204
3 258 204 205
3 201 204 254
3 254 204 257
3 206 203 259
3 203 260 259
3 203 256 260
3 259 208 206
3 209 258 205
3 209 261 258
3 259 260 262
3 262 260 263
3 259 262 208
3 262 264 208
3 264 210 208
3 262 265 264
3 209 210 261
3 261 210 264
3 262 263 266
3 266 263 267
3 265 262 268
3 268 262 266
3 267 269 266
3 266 269 268
3 270 212 213
3 214 270 213
3 272 271 218
3 218 271 217
3 218 212 270
3 273 218 270
3 272 218 273
3 275 273 274
3 274 273 219
3 273 270 219
3 270 214 219
3 220 274 219
3 271 221 217
3 276 221 271
3 277 275 274
3 274 220 277
3 220 278 277
3 220 222 278
3 223 221 279
3 221 280 279
3 221 276 280
3 279 225 223
3 226 278 222
3 226 281 278
3 284 283 282
3 228 229 282
3 229 284 282
3 229 285 284
3 286 229 230
3 286 285 229
3 287 230 232
3 287 286 230
3 289 288 233
3 288 232 233
3 288 287 232
3 288 289 280
3 289 279 280
3 289 290 279
3 290 235 225
3 290 225 279
3 236 281 226
3 236 291 281
3 282 283 292
3 292 283 293
3 292 238 228
3 292 228 282
3 239 289 233
3 289 239 240
3 289 240 290
3 290 240 235
3 241 291 236
3 241 294 291
3 292 293 295
3 295 293 296
3 295 243 238
3 295 238 292
3 299 298 297
3 245 246 297
3 298 245 297
3 300 245 298
3 241 245 294
3 294 245 300
3 296 301 295
3 301 303 302
3 301 302 247
3 295 301 247
3 243 295 247
3 302 249 247
3 306 305 304
3 304 305 299
3 304 299 297
3 251 304 297
3 250 251 297
3 250 297 246
3 303 307 302
3 249 302 307
3 308 249 307
3 253 249 308
3 306 304 309
3 306 309 310
3 254 309 251
3 251 309 304
3 308 311 253
3 253 311 255
3 256 255 311
3 256 311 312
3 310 309 257
3 258 310 257
3 313 310 258
3 257 309 254
3 312 260 256
3 314 260 312
3 261 313 258
3 261 315 313
3 314 263 260
3 316 263 314
3 318 317 264
3 318 264 265
3 261 264 315
3 315 264 317
3 316 267 263
3 319 267 316
3 268 318 265
3 268 320 318
3 269 267 321
3 267 322 321
3 267 319 322
3 321 323 269
3 323 268 269
3 323 320 268
3 322 324 321
3 321 324 323
3 325 271 272
3 273 326 272
3 272 326 325
3 275 326 273
3 327 276 325
3 325 276 271
3 326 329 328
3 327 326 328
3 325 326 327
3 331 329 330
3 330 329 277
3 329 326 277
3 326 275 277
3 278 330 277
3 334 333 332
3 336 335 332
3 332 335 334
3 338 337 336
3 336 337 335
3 340 339 338
3 338 339 337
3 342 341 340
3 340 341 339
3 343 341 327
3 341 280 327
3 280 276 327
3 341 342 280
3 343 327 328
3 331 330 344
3 331 344 345
3 281 344 278
3 278 344 330
3 348 347 346
3 348 346 333
3 333 346 332
3 346 283 332
3 283 284 332
3 332 284 285
3 332 285 336
3 336 285 286
3 336 286 338
3 338 286 287
3 338 287 340
3 340 287 288
3 340 288 342
3 342 288 280
3 345 344 349
3 345 349 350
3 291 349 281
3 281 349 344
3 346 347 351
3 351 347 352
3 351 293 283
3 351 283 346
3 353 350 349
3 349 291 353
3 291 354 353
3 291 294 354
3 352 355 351
3 293 351 355
3 356 293 355
3 296 293 356
3 299 357 298
3 358 300 298
3 358 298 357
3 358 359 300
3 359 294 300
3 359 354 294
3 301 296 360
3 296 361 360
3 296 356 361
3 360 303 301
3 363 362 305
3 363 305 306
3 299 305 357
3 305 364 357
3 305 362 364
3 357 364 358
3 358 364 365
3 358 365 359
3 361 366 360
3 366 368 367
3 366 367 307
3 360 366 307
3 303 360 307
3 367 308 307
3 310 363 306
3 310 369 363
3 368 370 367
3 370 372 371
3 370 371 311
3 367 370 311
3 308 367 311
3 371 312 311
3 313 369 310
3 313 373 369
3 372 374 371
3 312 371 374
3 375 312 374
3 314 312 375
3 378 377 376
3 377 373 376
3 373 315 376
3 373 313 315
3 381 380 379
3 375 381 379
3 316 375 379
3 314 375 316
3 378 376 317
3 318 378 317
3 382 378 318
3 317 376 315
3 379 380 383
3 383 380 384
3 383 319 316
3 383 316 379
3 320 382 318
3 320 385 382
3 384 386 383
3 319 383 386
3 387 319 386
3 322 319 387
3 323 385 320
3 323 388 385
3 324 322 389
3 322 390 389
3 322 387 390
3 389 391 324
3 391 323 324
3 391 388 323
3 390 392 389
3 389 392 391
3 393 328 329
3 331 393 329
3 394 333 334
3 394 334 395
3 334 396 395
3 334 335 396
3 397 335 337
3 397 396 335
3 398 337 339
3 398 397 337
3 399 339 341
3 399 398 339
3 400 341 343
3 400 399 341
3 343 328 393
3 401 343 393
3 400 343 401
3 393 331 401
3 331 402 401
3 331 345 402
3 404 403 348
3 348 403 347
3 348 333 394
3 405 348 394
3 404 348 405
3 405 394 395
3 350 402 345
3 350 406 402
3 403 352 347
3 407 352 403
3 350 353 408
3 409 350 408
3 406 350 409
3 354 408 353
3 355 352 410
3 352 411 410
3 352 407 411
3 410 356 355
3 412 409 408
3 408 354 412
3 354 413 412
3 354 359 413
3 411 414 410
3 356 410 414
3 415 356 414
3 361 356 415
3 363 416 362
3 417 364 362
3 417 362 416
3 364 417 418
3 419 364 418
3 365 364 419
3 359 365 413
3 413 365 419
3 366 361 420
3 361 421 420
3 361 415 421
3 420 368 366
3 423 422 416
3 363 423 416
3 369 423 363
3 416 422 417
3 417 422 424
3 417 424 418
3 421 425 420
3 425 427 426
3 425 426 370
3 420 425 370
3 368 420 370
3 426 372 370
3 430 429 428
3 429 423 428
3 423 373 428
3 423 369 373
3 427 431 426
3 431 433 432
3 431 432 374
3 426 431 374
3 372 426 374
3 432 375 374
3 430 428 377
3 378 430 377
3 434 430 378
3 377 428 373
3 432 433 381
3 433 380 381
3 433 435 380
3 432 381 375
3 382 434 378
3 382 436 434
3 435 384 380
3 437 384 435
3 385 436 382
3 385 438 436
3 386 384 439
3 384 440 439
3 384 437 440
3 439 387 386
3 388 438 385
3 388 441 438
3 440 442 439
3 387 439 442
3 443 387 442
3 390 387 443
3 391 441 388
3 391 444 441
3 443 445 390
3 390 445 392
3 391 392 444
3 444 392 445
3 446 395 396
3 446 396 447
3 396 448 447
3 396 397 448
3 449 397 398
3 449 448 397
3 450 398 399
3 450 449 398
3 451 399 400
3 451 450 399
3 452 400 401
3 452 451 400
3 401 402 452
3 452 402 453
3 454 403 404
3 454 404 455
3 404 456 455
3 404 405 456
3 405 395 446
3 457 405 446
3 456 405 457
3 457 446 447
3 406 453 402
3 406 458 453
3 460 459 454
3 459 403 454
3 459 407 403
3 460 454 455
3 409 462 461
3 458 409 461
3 406 409 458
3 462 463 461
3 459 411 407
3 464 411 459
3 462 409 412
3 467 466 465
3 466 467 413
3 467 463 413
3 462 412 413
3 462 413 463
3 414 411 468
3 411 469 468
3 411 464 469
3 468 415 414
3 419 418 470
3 466 471 465
3 471 466 472
3 466 413 472
3 419 470 472
3 419 472 413
3 469 473 468
3 415 468 473
3 474 415 473
3 421 415 474
3 423 475 422
3 476 424 422
3 476 422 475
3 470 418 424
3 476 470 424
3 477 470 476
3 472 470 478
3 478 470 477
3 474 479 421
3 421 479 425
3 427 425 479
3 427 479 480
3 430 481 429
3 481 482 429
3 429 482 423
3 482 483 423
3 483 475 423
3 485 484 483
3 484 475 483
3 484 476 475
3 476 486 477
3 476 484 486
3 478 477 487
3 487 477 486
3 480 488 427
3 427 488 431
3 433 431 488
3 433 488 489
3 491 490 481
3 430 491 481
3 434 491 430
3 481 490 482
3 485 492 484
3 494 493 492
3 493 484 492
3 493 486 484
3 487 486 495
3 495 486 493
3 497 435 496
3 435 489 496
3 435 433 489
3 498 497 496
3 436 500 499
3 491 436 499
3 434 436 491
3 500 501 499
3 494 502 493
3 493 502 495
3 504 503 497
3 503 435 497
3 503 437 435
3 504 497 498
3 438 505 500
3 438 500 436
3 501 500 506
3 506 500 505
3 509 508 507
3 503 509 507
3 440 503 507
3 437 503 440
3 441 510 505
3 441 505 438
3 506 505 511
3 511 505 510
3 508 512 507
3 512 514 513
3 512 513 442
3 507 512 442
3 440 507 442
3 513 443 442
3 444 515 510
3 444 510 441
3 511 510 516
3 516 510 515
3 514 517 513
3 513 517 443
3 517 445 443
3 517 518 445
3 445 518 444
3 518 519 444
3 519 515 444
3 519 518 520
3 516 515 521
3 521 515 519
3 520 522 519
3 519 522 521
3 524 523 448
3 448 523 447
3 525 448 449
3 525 524 448
3 526 449 450
3 526 525 449
3 527 450 451
3 527 526 450
3 528 451 452
3 528 527 451
3 452 453 528
3 528 453 529
3 531 530 456
3 456 530 455
3 532 456 457
3 532 531 456
3 457 447 523
3 457 523 532
3 458 529 453
3 458 533 529
3 535 534 460
3 460 534 459
3 460 455 530
3 460 530 535
3 458 461 536
3 537 458 536
3 533 458 537
3 463 536 461
3 534 464 459
3 538 464 534
3 467 465 539
3 536 540 537
3 540 536 541
3 536 463 541
3 467 539 541
3 467 541 463
3 538 469 464
3 542 469 538
3 539 465 471
3 545 544 543
3 544 545 472
3 545 541 472
3 539 471 472
3 539 472 541
3 542 546 469
3 469 546 473
3 474 473 546
3 474 546 547
3 543 544 548
3 543 548 549
3 478 548 472
3 472 548 544
3 547 550 474
3 474 550 479
3 480 479 550
3 480 550 551
3 482 552 483
3 552 485 483
3 553 549 548
3 548 478 553
3 478 554 553
3 478 487 554
3 551 555 480
3 480 555 488
3 489 488 555
3 489 555 556
3 491 557 490
3 552 482 490
3 557 552 490
3 558 552 557
3 559 492 485
3 552 559 485
3 558 559 552
3 494 492 559
3 562 561 560
3 560 554 562
3 554 495 562
3 554 487 495
3 556 563 489
3 489 563 496
3 498 496 563
3 498 563 564
3 499 557 491
3 557 499 501
3 565 557 501
3 558 557 565
3 558 566 559
3 558 565 566
3 561 562 567
3 502 567 562
3 567 502 566
3 494 566 502
3 566 494 559
3 502 562 495
3 568 503 504
3 569 568 504
3 498 569 504
3 564 569 498
3 506 570 565
3 506 565 501
3 565 571 566
3 565 570 571
3 567 566 572
3 572 566 571
3 574 573 509
3 509 573 508
3 509 503 568
3 575 509 568
3 574 509 575
3 575 568 569
3 511 576 570
3 511 570 506
3 570 577 571
3 570 576 577
3 572 571 578
3 578 571 577
3 512 508 579
3 508 580 579
3 508 573 580
3 579 514 512
3 516 581 576
3 516 576 511
3 576 582 577
3 576 581 582
3 578 577 583
3 583 577 582
3 580 584 579
3 579 584 514
3 584 517 514
3 584 585 517
3 517 586 518
3 585 586 517
3 520 518 586
3 520 586 587
3 521 588 581
3 521 581 516
3 590 582 589
3 582 588 589
3 582 581 588
3 582 590 583
3 587 591 520
3 520 591 522
3 521 522 588
3 522 592 588
3 522 591 592
3 588 592 589
3 595 594 593
3 593 596 595
3 598 597 524
3 524 597 523
3 599 524 525
3 599 598 524
3 600 525 526
3 600 599 525
3 527 593 594
3 600 527 594
3 526 527 600
3 601 596 593
3 527 601 593
3 528 601 527
3 528 529 601
3 601 529 602
3 604 603 531
3 531 603 530
3 605 531 532
3 605 604 531
3 532 523 597
3 532 597 605
3 533 602 529
3 533 606 602
3 607 534 535
3 608 607 535
3 530 608 535
3 603 608 530
3 537 606 533
3 537 609 606
3 611 610 607
3 610 534 607
3 610 538 534
3 611 607 608
3 537 540 612
3 613 537 612
3 609 537 613
3 541 612 540
3 610 542 538
3 614 542 610
3 613 612 545
3 543 613 545
3 615 613 543
3 545 612 541
3 614 616 542
3 542 616 546
3 618 617 547
3 546 618 547
3 616 618 546
3 619 617 618
3 549 615 543
3 549 620 615
3 617 550 547
3 622 621 551
3 622 551 550
3 619 622 550
3 617 619 550
3 623 621 622
3 549 553 624
3 625 549 624
3 620 549 625
3 554 624 553
3 621 555 551
3 627 626 556
3 627 556 555
3 623 627 555
3 621 623 555
3 628 626 627
3 625 624 560
3 561 625 560
3 629 625 561
3 560 624 554
3 626 563 556
3 564 563 626
3 628 564 626
3 630 564 628
3 567 629 561
3 567 631 629
3 630 569 564
3 632 569 630
3 572 631 567
3 572 633 631
3 634 573 574
3 634 574 635
3 574 636 635
3 574 575 636
3 575 569 632
3 575 632 636
3 578 633 572
3 578 637 633
3 638 580 634
3 634 580 573
3 634 635 639
3 640 634 639
3 638 634 640
3 641 640 639
3 583 643 642
3 637 583 642
3 578 583 637
3 643 644 642
3 638 584 580
3 584 638 585
3 585 638 640
3 641 645 640
3 645 585 640
3 645 586 585
3 647 646 587
3 586 647 587
3 645 647 586
3 649 648 646
3 649 646 647
3 590 589 648
3 649 590 648
3 650 590 649
3 583 590 643
3 590 651 643
3 590 650 651
3 643 651 644
3 646 591 587
3 591 646 592
3 592 646 648
3 592 648 589
3 652 594 595
3 596 652 595
3 654 653 598
3 598 653 597
3 655 598 599
3 655 654 598
3 656 599 600
3 656 655 599
3 600 594 652
3 657 600 652
3 656 600 657
3 657 652 596
3 601 657 596
3 658 657 601
3 601 602 658
3 658 602 659
3 661 660 604
3 604 660 603
3 662 604 605
3 662 661 604
3 605 597 653
3 605 653 662
3 606 659 602
3 606 663 659
3 660 608 603
3 664 608 660
3 609 663 606
3 609 665 663
3 666 610 611
3 667 666 611
3 608 667 611
3 664 667 608
3 613 665 609
3 613 668 665
3 669 614 666
3 666 614 610
3 666 667 670
3 671 666 670
3 669 666 671
3 672 671 670
3 615 668 613
3 615 673 668
3 669 616 614
3 616 669 618
3 618 669 671
3 675 674 619
3 675 619 618
3 672 675 618
3 671 672 618
3 676 674 675
3 620 673 615
3 620 677 673
3 674 622 619
3 623 622 674
3 676 623 674
3 678 623 676
3 625 677 620
3 625 679 677
3 678 680 623
3 623 680 627
3 628 627 680
3 628 680 681
3 684 683 682
3 683 679 682
3 679 629 682
3 679 625 629
3 681 630 628
3 685 630 681
3 684 682 686
3 684 686 687
3 631 686 629
3 629 686 682
3 685 632 630
3 688 632 685
3 689 687 686
3 686 631 689
3 631 690 689
3 631 633 690
3 692 691 636
3 636 691 635
3 636 632 688
3 636 688 692
3 637 690 633
3 637 693 690
3 691 694 635
3 635 694 639
3 641 639 694
3 641 694 695
3 637 642 696
3 697 637 696
3 693 637 697
3 644 696 642
3 695 698 641
3 641 698 645
3 645 699 647
3 698 699 645
3 647 700 649
3 699 700 647
3 649 701 650
3 700 701 649
3 696 651 697
3 651 701 697
3 651 650 701
3 651 696 644
3 703 702 654
3 654 702 653
3 704 654 655
3 704 703 654
3 705 655 656
3 705 704 655
3 706 656 657
3 706 705 656
3 708 706 707
3 706 658 707
3 706 657 658
3 659 707 658
3 709 660 661
3 709 661 710
3 661 711 710
3 661 662 711
3 662 653 702
3 662 702 711
3 708 707 712
3 708 712 713
3 663 712 659
3 659 712 707
3 714 664 709
3 709 664 660
3 709 710 715
3 716 709 715
3 714 709 716
3 717 716 715
3 713 712 718
3 713 718 719
3 665 718 663
3 663 718 712
3 720 667 714
3 714 667 664
3 721 714 716
3 720 714 721
3 716 717 722
3 723 716 722
3 721 716 723
3 724 723 722
3 719 718 725
3 719 725 726
3 668 725 665
3 665 725 718
3 720 670 667
3 670 720 672
3 720 727 672
3 720 721 727
3 728 721 723
3 727 721 728
3 723 724 729
3 730 723 729
3 728 723 730
3 731 730 729
3 726 725 732
3 726 732 733
3 673 732 668
3 668 732 725
3 727 675 672
3 675 727 676
3 727 734 676
3 727 728 734
3 735 728 730
3 734 728 735
3 730 731 736
3 730 736 735
3 739 738 737
3 737 738 733
3 732 737 733
3 740 737 732
3 677 740 673
3 673 740 732
3 741 678 734
3 734 678 676
3 735 743 742
3 741 735 742
3 734 735 741
3 743 735 736
3 739 737 744
3 739 744 745
3 746 737 740
3 744 737 746
3 679 746 677
3 677 746 740
3 741 680 678
3 681 680 741
3 742 681 741
3 747 681 742
3 745 744 748
3 745 748 749
3 684 748 683
3 748 746 683
3 748 744 746
3 683 746 679
3 751 685 750
3 685 747 750
3 685 681 747
3 753 752 751
3 753 751 750
3 752 753 749
3 748 752 749
3 754 752 748
3 687 754 684
3 684 754 748
3 755 688 751
3 751 688 685
3 756 751 752
3 755 751 756
3 757 752 754
3 756 752 757
3 689 758 687
3 758 754 687
3 758 757 754
3 690 758 689
3 759 691 692
3 688 755 692
3 755 759 692
3 755 760 759
3 761 755 756
3 760 755 761
3 762 756 757
3 761 756 762
3 763 757 758
3 762 757 763
3 693 763 690
3 690 763 758
3 759 694 691
3 694 759 695
3 759 764 695
3 759 760 764
3 765 760 761
3 764 760 765
3 766 761 762
3 765 761 766
3 767 762 763
3 766 762 767
3 697 767 693
3 693 767 763
3 764 698 695
3 698 764 699
3 699 764 765
3 699 765 700
3 700 765 766
3 700 766 701
3 701 766 767
3 701 767 697
3 768 702 703
3 704 769 703
3 703 769 768
3 705 770 704
3 704 770 769
3 706 771 705
3 705 771 770
3 708 771 706
3 772 710 711
3 702 768 711
3 768 772 711
3 768 773 772
3 774 768 769
3 773 768 774
3 775 769 770
3 774 769 775
3 776 770 771
3 775 770 776
3 713 776 708
3 708 776 771
3 772 715 710
3 715 772 717
3 772 777 717
3 772 773 777
3 778 773 774
3 777 773 778
3 779 774 775
3 778 774 779
3 780 775 776
3 779 775 780
3 719 780 713
3 713 780 776
3 777 722 717
3 722 777 724
3 777 781 724
3 777 778 781
3 782 778 779
3 781 778 782
3 783 779 780
3 782 779 783
3 726 783 719
3 719 783 780
3 781 729 724
3 729 781 731
3 781 784 731
3 781 782 784
3 785 782 783
3 784 782 785
3 733 785 726
3 726 785 783
3 786 736 784
3 784 736 731
3 739 786 738
3 786 785 738
3 786 784 785
3 738 785 733
3 787 742 743
3 736 786 743
3 786 787 743
3 786 788 787
3 745 788 739
3 739 788 786
3 789 747 787
3 787 747 742
3 790 787 788
3 789 787 790
3 749 790 745
3 745 790 788
3 789 750 747
3 750 789 753
3 753 789 790
3 753 790 749
