ply
format ascii 1.0
comment None
element vertex 912
property float x
property float y
property float z
element face 1828
property list uchar int vertex_indices
end_header
25.826 49.274 30.101
25.994 49.222 29.668
25.949 48.910 30.088
25.973 49.032 30.382
25.815 49.890 29.935
25.773 50.020 29.287
25.952 49.666 30.493
25.757 51.291 28.149
26.062 51.347 27.607
26.163 50.834 27.909
25.963 50.486 28.368
25.772 50.721 29.603
25.641 50.652 29.044
26.210 50.781 30.511
25.756 52.063 27.550
25.971 52.438 26.935
26.308 51.748 27.129
25.619 52.108 28.203
25.673 50.829 28.643
25.739 51.648 29.005
26.069 51.607 29.885
26.018 52.114 29.590
25.670 53.032 27.239
25.958 53.227 26.485
25.602 52.764 27.865
25.771 52.955 28.578
26.226 52.888 29.464
25.638 54.092 26.942
25.737 54.028 26.292
25.734 53.824 27.888
25.995 53.960 28.615
26.167 53.648 29.051
25.643 54.732 26.434
25.914 54.850 25.901
25.770 54.349 26.054
25.626 54.871 26.938
25.860 55.067 27.558
26.313 54.970 28.487
25.794 55.440 26.285
25.805 55.577 26.904
25.979 56.088 26.505
26.271 56.204 27.635
26.308 55.782 28.091
26.187 56.437 27.023
26.707 47.654 31.175
26.981 47.456 30.542
27.212 46.965 30.975
27.139 46.892 31.636
26.427 48.406 30.276
27.018 48.237 29.585
27.275 47.659 29.989
26.432 48.482 31.215
26.776 47.553 31.854
26.625 48.216 31.806
26.822 47.939 32.273
26.593 48.831 29.337
26.940 49.158 28.811
27.346 48.614 29.079
26.253 49.238 30.991
26.646 49.101 31.792
26.954 48.702 32.409
26.257 49.685 28.820
26.965 49.606 28.457
26.272 50.097 31.013
26.767 50.146 31.675
27.387 49.843 32.460
26.747 50.984 27.499
26.674 50.233 28.108
25.765 50.286 28.800
26.648 50.765 31.269
27.313 51.191 31.775
27.379 50.697 32.141
26.623 52.349 26.507
27.145 51.551 26.924
26.383 52.421 29.979
26.816 52.119 30.571
27.045 51.583 31.183
26.518 53.055 26.026
26.896 53.331 25.647
27.251 52.718 25.950
26.581 52.923 29.948
27.006 52.958 30.300
26.201 53.911 25.814
26.965 53.922 25.296
26.417 54.407 29.015
26.807 54.060 29.503
26.937 53.456 29.951
26.510 54.866 25.284
27.079 55.134 24.670
27.134 54.429 24.935
26.658 54.933 28.990
26.929 54.795 29.269
26.622 56.073 24.925
27.070 55.863 24.268
26.163 55.898 25.832
26.532 56.278 28.115
26.909 56.118 28.481
27.167 55.451 29.039
26.862 56.623 24.277
27.172 56.905 23.770
27.152 56.307 23.907
26.717 57.131 24.855
26.538 56.944 25.613
26.443 56.888 26.517
26.863 57.122 27.464
26.870 56.714 28.063
26.981 57.413 24.259
27.340 57.648 23.675
26.967 57.792 24.809
26.896 57.730 25.424
26.915 57.663 26.193
27.020 57.606 26.883
27.410 58.216 24.410
27.777 45.398 33.282
28.138 44.980 32.613
28.154 44.649 33.181
28.055 44.740 33.756
27.822 45.345 33.940
28.066 44.989 34.280
27.629 46.055 32.334
28.064 45.634 31.723
28.268 45.198 31.997
27.549 46.308 33.275
27.723 46.072 33.872
27.996 45.713 34.408
27.661 46.964 30.463
27.936 46.223 31.217
27.063 47.239 32.340
27.380 47.107 33.036
27.667 46.989 33.743
28.082 46.729 34.383
27.753 47.983 29.442
28.180 47.333 29.879
27.168 48.018 32.815
27.698 48.009 33.520
28.040 47.562 34.082
27.795 49.248 28.544
28.242 48.500 28.989
27.579 48.985 33.054
28.118 48.796 33.552
28.363 48.255 33.966
27.388 49.846 28.171
27.636 50.385 27.765
28.030 49.840 28.112
27.854 49.677 32.964
28.263 49.446 33.265
27.639 50.992 27.284
27.645 51.148 32.143
28.022 50.893 32.384
28.338 50.151 32.853
27.666 52.038 26.415
28.172 51.405 26.892
27.557 52.385 31.126
28.027 52.133 31.613
27.994 51.550 32.054
27.798 53.306 25.414
28.244 52.529 25.945
28.199 52.829 31.249
27.820 53.082 30.810
27.530 53.947 25.016
27.796 54.451 24.686
28.076 53.831 24.985
27.504 54.166 29.953
27.739 53.717 30.352
27.672 55.247 24.256
28.338 54.508 30.163
27.778 54.999 29.602
27.463 55.856 23.921
27.601 56.333 23.608
28.144 55.617 23.854
27.972 55.787 29.257
27.786 56.261 28.872
27.661 57.097 23.244
27.243 57.146 28.000
27.661 56.909 28.353
27.615 57.741 23.166
27.992 57.988 22.811
27.790 57.521 22.915
27.290 58.224 25.172
27.450 58.250 25.884
27.557 58.093 26.679
27.590 57.810 27.336
27.692 57.459 27.874
27.792 58.404 23.498
27.989 58.878 24.287
28.104 58.803 25.283
28.281 58.521 26.356
28.318 58.179 27.115
28.558 44.168 33.527
28.661 44.366 32.845
29.124 43.931 33.198
29.319 43.557 34.001
28.540 44.292 34.341
29.219 43.703 34.922
28.793 44.309 35.032
29.255 44.035 35.472
28.742 44.695 32.231
28.433 45.082 34.857
28.982 44.732 35.465
28.623 45.382 31.500
28.701 44.952 31.836
28.423 46.119 34.879
28.891 45.624 35.356
28.723 46.603 30.431
28.865 45.894 30.983
28.558 46.870 34.815
29.033 46.581 35.145
28.708 47.883 29.390
29.205 47.289 29.829
28.853 47.127 34.882
28.669 47.552 34.497
28.762 48.980 28.674
29.239 48.494 29.005
28.985 48.265 34.139
28.859 48.929 33.667
28.521 50.155 27.886
28.897 49.612 28.280
28.967 49.690 33.194
28.649 50.745 27.435
29.430 50.228 27.872
29.103 50.214 32.857
28.891 50.797 32.536
28.752 51.919 26.433
29.300 51.341 26.940
28.383 51.936 31.954
28.687 51.574 32.165
28.776 52.961 25.595
29.298 52.464 25.991
28.612 53.344 31.093
28.990 52.937 31.396
28.846 52.185 31.818
28.498 54.081 24.804
28.795 53.544 25.171
29.104 53.603 31.100
28.897 53.999 30.704
28.749 54.691 24.423
29.079 54.014 24.858
29.172 54.763 30.259
28.884 55.214 29.858
28.468 56.307 23.291
29.193 55.395 23.860
28.442 56.222 29.105
28.654 55.767 29.431
28.285 57.276 22.717
28.923 57.362 22.277
29.145 56.688 22.716
29.132 56.327 29.054
28.568 56.717 28.694
28.609 58.076 22.240
29.097 58.428 21.795
29.279 57.805 21.883
28.245 57.835 27.642
28.633 57.384 28.090
28.846 58.798 22.069
29.447 59.050 21.751
28.431 58.842 22.751
28.387 59.237 23.684
28.585 59.402 24.569
29.085 59.414 25.300
29.099 58.944 26.039
29.273 58.419 26.833
28.991 57.931 27.509
29.048 59.404 22.315
28.915 59.648 23.118
28.993 59.800 24.006
29.188 59.780 24.714
29.933 43.027 34.313
30.193 43.233 33.869
30.383 42.876 34.365
30.276 42.831 34.722
29.647 44.310 32.558
29.773 43.706 33.272
29.815 43.129 34.837
30.077 43.406 35.846
29.607 44.345 35.977
30.244 44.056 36.519
29.310 44.896 31.811
30.189 45.242 31.588
30.018 44.782 31.996
29.418 45.194 35.878
30.081 44.888 36.470
29.458 45.478 31.254
29.741 46.170 30.726
30.162 45.725 31.131
29.505 46.002 35.648
29.857 45.584 36.115
29.727 46.827 30.217
29.301 47.275 34.854
30.049 46.775 35.258
29.896 47.457 34.689
30.109 46.095 35.926
29.786 47.960 29.418
30.267 47.426 29.863
29.438 47.853 34.422
30.147 47.858 34.241
29.637 48.424 33.928
29.692 49.132 28.654
30.310 48.653 29.051
29.720 49.176 33.339
30.073 49.761 28.280
29.506 49.848 32.999
29.887 49.656 32.959
29.786 50.281 32.588
29.900 50.805 27.437
30.500 50.330 27.895
29.422 51.272 32.199
29.867 51.910 26.470
30.442 51.380 26.970
29.268 51.858 31.968
29.659 51.673 31.935
29.720 52.238 31.615
29.736 53.111 25.521
30.375 52.504 26.006
29.792 53.070 31.269
29.561 53.681 25.112
29.756 54.151 24.803
30.366 53.642 25.179
29.364 53.858 30.979
29.565 53.569 31.123
29.960 54.725 24.384
29.651 55.226 29.988
29.993 54.686 30.374
29.811 54.022 30.822
29.678 55.917 23.327
30.318 55.244 23.931
30.514 55.486 29.793
29.590 55.828 29.473
29.664 57.093 22.204
30.200 56.385 22.761
29.724 56.340 29.007
29.661 56.865 28.450
29.696 58.340 21.583
30.105 57.631 21.768
29.852 57.919 27.313
30.514 57.862 27.158
30.266 58.305 26.835
29.528 57.526 27.819
30.394 57.394 27.667
30.104 58.850 21.497
30.001 58.832 26.364
29.843 59.335 25.776
29.594 59.682 22.063
30.231 59.519 21.761
29.480 59.961 22.679
29.496 60.101 23.534
29.605 60.054 24.381
29.746 59.778 25.114
30.073 60.045 22.333
30.065 60.256 23.122
30.118 60.233 24.009
30.157 60.029 24.745
30.721 42.966 34.239
31.068 42.776 34.943
31.135 42.984 34.372
30.454 42.851 35.348
31.134 42.700 35.920
30.624 42.869 35.901
30.974 42.930 36.451
30.155 43.957 32.956
30.568 43.717 33.340
31.088 43.330 33.928
30.993 43.487 37.021
30.723 44.375 37.074
31.288 44.061 37.577
30.466 44.998 31.908
30.617 44.781 32.253
30.845 44.337 32.830
30.659 45.044 36.971
31.340 44.817 37.581
30.599 46.182 30.887
30.920 45.836 31.313
31.138 45.388 31.861
30.953 45.424 37.045
30.462 45.633 36.491
30.819 46.899 30.401
31.445 46.491 30.953
31.301 46.867 35.052
30.561 47.357 34.587
30.910 46.303 36.012
31.067 48.188 29.529
31.093 47.589 29.941
30.669 47.713 34.146
30.610 48.243 33.644
30.852 49.358 28.685
31.206 48.871 29.094
30.472 49.223 32.911
31.198 48.437 33.059
31.305 48.960 32.553
30.979 49.943 28.278
30.713 49.882 32.298
31.469 49.513 32.051
31.034 50.308 31.839
30.993 50.882 27.476
31.474 50.416 27.977
30.232 51.097 31.912
31.024 51.036 31.458
30.962 51.975 26.477
31.499 51.465 26.999
30.580 51.859 31.357
31.057 51.604 31.161
31.182 52.211 30.844
30.873 53.086 25.581
31.394 52.562 25.995
30.436 52.755 31.120
31.213 53.306 30.572
30.756 54.199 24.797
31.401 53.646 25.187
30.252 53.537 30.944
30.725 54.161 30.561
30.992 54.734 24.394
31.101 54.884 30.204
30.937 55.681 23.457
31.192 55.133 24.036
30.425 56.253 29.002
31.369 55.954 29.402
31.339 56.453 28.690
31.429 55.435 29.911
30.658 56.921 22.208
31.305 56.278 22.798
30.739 56.806 28.224
31.341 56.796 28.095
31.290 57.178 27.689
30.531 58.253 21.502
31.101 57.546 21.771
31.069 57.686 27.201
30.872 58.109 26.864
30.906 58.936 21.523
30.460 59.149 26.041
30.917 58.700 26.400
31.200 59.586 21.866
30.829 59.176 25.977
30.565 59.597 25.454
30.670 59.981 22.142
30.691 60.238 22.782
30.730 60.271 23.672
30.728 60.054 24.582
31.844 43.107 34.592
31.967 42.781 35.243
32.028 42.642 36.013
31.786 42.740 36.836
31.369 42.962 36.994
31.762 43.065 37.457
31.694 44.048 33.475
31.828 43.579 33.989
31.731 43.575 37.818
31.813 44.190 38.055
32.371 43.735 38.318
31.786 45.130 32.480
31.782 44.650 32.963
31.906 44.641 38.111
32.408 44.399 38.433
32.095 46.203 31.519
32.053 45.721 32.008
31.045 45.858 36.728
31.526 45.573 37.300
32.220 45.106 38.064
32.013 47.139 30.623
32.290 46.799 31.032
31.306 47.428 34.145
32.258 46.925 34.441
32.109 47.292 33.793
32.108 46.726 35.098
32.070 46.505 35.869
31.647 46.109 36.709
31.562 47.914 29.848
31.785 47.603 30.161
31.616 47.801 33.437
32.490 47.557 33.233
31.928 48.209 32.828
31.707 49.304 28.924
31.991 48.886 29.317
32.277 48.301 29.833
32.029 48.803 32.262
31.838 49.888 28.522
32.455 49.528 29.019
31.973 49.316 31.902
31.814 50.077 31.521
31.945 50.981 27.559
32.327 50.540 28.114
31.604 51.219 30.979
32.233 50.523 30.968
32.294 51.127 30.494
32.031 52.119 26.449
32.383 51.553 27.110
31.877 51.874 30.413
32.453 51.674 29.954
32.186 52.228 29.954
31.821 53.083 25.584
32.123 52.666 25.928
31.797 52.626 30.248
32.313 52.650 29.760
31.970 54.312 24.702
32.474 53.564 25.231
32.280 53.293 29.895
32.016 54.280 30.203
31.702 54.839 24.308
31.984 55.258 23.900
32.297 54.810 24.311
31.961 55.095 30.111
31.934 55.792 23.327
31.692 56.241 29.102
32.035 56.121 29.404
32.249 55.689 29.849
31.745 56.882 22.255
32.399 56.298 22.851
31.619 56.951 27.916
31.819 56.774 28.297
32.127 56.480 28.962
31.542 58.241 21.558
32.173 57.558 21.839
31.480 58.140 26.806
31.805 57.663 27.285
32.128 57.224 27.895
32.073 58.977 21.709
31.261 59.211 25.859
31.973 58.756 26.324
31.827 59.307 25.668
32.188 58.151 26.934
32.173 59.658 22.272
31.373 60.031 22.496
31.438 60.184 23.360
32.255 59.983 23.103
31.442 60.041 24.322
32.267 59.973 24.087
31.344 59.682 25.184
32.189 59.643 25.103
32.358 42.921 35.140
32.618 42.785 35.685
32.861 42.658 36.392
32.772 42.672 37.064
32.460 42.898 37.660
32.244 43.240 37.995
32.879 43.286 38.272
32.229 43.872 33.882
32.526 43.618 34.315
33.059 43.214 35.185
33.423 42.885 36.240
33.207 43.961 38.735
32.260 44.989 32.875
32.559 44.739 33.244
33.059 44.241 33.926
33.097 44.753 38.740
32.558 46.060 31.908
32.784 45.827 32.255
33.073 45.386 32.848
32.714 46.417 36.380
33.424 46.301 36.432
32.935 46.475 35.863
33.024 46.252 36.921
33.306 45.475 38.308
32.280 45.820 37.475
32.810 47.249 30.843
33.075 46.909 31.260
33.334 46.451 31.832
33.288 46.728 34.225
32.868 47.052 33.752
32.919 46.598 35.071
32.386 46.254 36.808
32.902 47.812 30.431
33.654 47.523 30.945
33.485 47.306 33.112
32.877 48.121 32.491
33.006 49.113 29.570
33.393 48.551 30.098
32.604 49.081 31.801
33.521 48.548 31.823
33.237 49.207 31.396
32.726 50.163 28.665
33.100 49.793 29.165
32.691 49.811 31.207
33.354 49.686 30.899
32.830 50.393 30.636
32.685 51.119 27.730
32.917 50.730 28.291
32.881 50.987 30.021
32.857 52.106 26.730
32.954 51.633 27.355
32.912 51.516 29.479
32.694 52.167 29.407
32.477 53.004 25.660
32.706 52.611 26.082
32.798 52.803 29.298
33.107 52.415 28.801
33.296 52.844 28.728
32.968 54.107 24.822
33.388 53.713 25.158
33.076 53.147 25.641
33.221 53.368 29.246
32.818 53.861 29.814
33.566 53.968 29.571
32.735 55.068 24.069
32.994 54.642 24.415
33.085 54.357 29.965
33.067 55.104 30.107
33.000 55.647 23.555
33.285 55.088 24.039
33.115 55.802 30.027
32.854 56.253 29.643
32.855 56.990 22.332
33.476 56.475 22.912
32.809 56.680 29.136
32.531 56.924 28.580
32.601 58.225 21.659
33.195 57.676 21.938
33.265 57.463 28.396
32.716 57.853 27.516
33.133 58.726 21.760
32.341 59.204 25.815
32.745 58.962 26.240
32.988 58.520 26.908
33.076 59.270 22.148
33.179 59.701 22.922
33.205 59.866 23.900
33.143 59.710 24.916
32.984 59.344 25.736
33.367 42.717 36.901
33.505 42.782 37.451
33.226 42.920 37.883
33.688 43.364 38.439
33.353 43.748 34.584
34.007 43.614 35.115
34.393 43.321 36.067
34.101 43.014 37.193
34.180 43.900 38.948
33.858 44.456 39.170
34.549 44.328 39.323
33.726 45.030 33.500
34.440 44.712 34.121
34.208 44.086 34.592
33.760 44.971 39.061
34.411 44.765 39.373
33.959 46.129 32.452
34.570 45.714 33.196
34.424 46.046 36.317
33.759 46.354 35.569
32.931 46.017 37.432
33.925 45.916 37.453
34.290 45.527 38.483
34.260 45.204 39.051
34.127 47.131 31.461
34.613 46.761 32.028
33.570 46.878 33.685
33.958 46.683 33.904
34.195 46.457 34.456
34.097 48.212 30.659
34.578 47.669 31.165
34.278 47.266 32.817
33.936 47.793 32.369
34.216 46.901 33.355
33.706 49.013 29.978
33.925 48.711 30.254
34.356 48.270 31.624
33.820 49.021 31.221
33.292 50.493 28.948
33.620 49.609 29.694
33.820 49.498 30.691
33.435 50.192 30.219
33.195 51.355 28.099
33.302 51.132 28.757
33.584 50.177 29.686
33.280 50.908 29.385
33.345 52.114 27.312
33.365 51.917 27.984
33.204 51.743 28.708
33.413 52.725 26.351
33.741 52.702 27.041
34.127 53.124 27.433
33.529 52.488 28.005
33.870 54.375 24.683
33.975 53.844 25.184
33.763 53.378 25.669
33.820 53.168 28.404
34.024 53.664 28.962
34.242 54.073 29.360
33.658 54.851 24.236
33.905 55.352 23.883
34.097 54.923 24.215
33.977 54.556 29.832
34.128 55.165 30.113
34.091 56.104 23.407
33.425 56.080 30.014
33.989 55.826 30.141
34.029 57.301 22.485
34.299 56.728 22.991
33.199 57.007 28.975
33.445 56.734 29.487
33.730 56.379 29.917
33.473 58.237 21.771
33.909 57.919 22.026
34.354 57.796 28.740
33.992 58.240 27.889
34.021 57.205 29.241
33.789 58.611 21.871
33.732 58.966 22.070
34.405 58.755 22.307
33.880 58.751 27.096
33.474 59.023 26.440
34.161 59.332 22.785
34.218 59.699 23.795
34.190 59.722 24.845
34.046 59.428 25.907
33.867 43.028 37.921
34.992 43.811 35.329
35.692 43.628 36.233
35.226 43.423 37.233
34.610 43.448 38.235
35.053 44.004 38.995
35.178 44.512 39.363
34.756 45.258 33.810
35.493 45.173 34.383
35.404 44.415 34.735
34.887 44.943 39.338
35.254 46.491 32.639
35.587 45.977 33.301
35.505 45.561 33.986
35.520 45.675 35.917
34.787 46.075 35.229
35.166 45.676 37.129
35.035 45.497 38.139
34.998 45.217 38.924
35.143 47.295 31.694
35.489 46.899 32.258
34.480 46.644 33.716
35.099 46.524 33.556
34.808 46.785 33.243
35.233 46.104 34.325
34.828 47.947 31.122
35.051 47.689 31.336
34.731 47.046 32.884
34.782 47.487 32.301
34.117 48.938 30.381
34.650 48.288 31.105
34.207 48.949 30.870
34.976 47.834 31.706
33.890 49.583 30.247
34.078 53.208 26.430
34.272 54.103 25.072
34.418 53.830 25.666
34.769 53.747 26.846
34.615 53.676 28.192
35.324 54.148 27.769
34.572 53.914 28.934
34.860 53.970 28.757
34.406 55.253 24.041
34.516 54.932 24.385
34.712 54.530 25.023
35.132 54.342 25.952
35.441 54.322 26.868
34.939 54.419 29.290
34.655 54.911 29.912
34.802 55.451 30.078
34.602 55.791 23.788
34.783 55.419 24.111
34.934 56.052 30.068
34.632 57.087 22.897
35.063 56.795 23.453
34.093 56.782 29.744
34.520 56.481 29.992
34.071 58.329 21.976
34.596 58.127 22.387
34.954 57.584 22.865
34.686 58.161 28.512
35.023 58.025 28.861
35.066 57.511 29.320
34.672 56.974 29.701
35.079 58.653 22.679
34.240 59.086 26.751
34.721 58.830 27.458
35.305 58.434 28.393
35.131 59.087 23.027
35.207 59.486 23.806
35.244 59.681 24.806
35.197 59.582 25.847
35.056 59.268 26.778
36.035 43.985 35.456
36.721 43.860 36.212
36.328 43.688 37.173
35.812 43.794 38.260
35.724 44.183 39.027
36.377 44.215 38.641
36.128 44.891 34.571
36.274 44.342 35.017
35.859 44.471 39.178
35.538 44.820 39.192
35.819 46.468 32.792
35.985 46.009 33.404
36.043 45.513 34.003
35.894 45.378 34.349
36.033 45.420 35.002
35.527 45.685 34.731
35.871 45.675 34.334
36.316 45.305 35.992
36.117 45.320 36.855
35.828 45.307 37.726
35.895 45.005 38.518
35.684 47.034 32.111
35.810 46.812 32.379
35.707 46.732 32.504
35.646 46.626 32.846
35.282 46.913 32.666
35.660 46.957 32.362
35.722 46.167 33.675
35.202 47.693 31.537
35.594 47.218 31.996
35.355 47.366 32.066
35.133 54.096 28.543
35.095 55.300 24.532
35.530 55.148 25.333
35.777 54.853 26.370
36.037 54.884 27.624
35.680 54.586 28.641
35.686 54.999 29.365
36.025 54.973 29.025
35.199 55.072 29.781
35.188 55.972 24.054
35.745 56.015 24.661
36.040 55.834 25.289
36.133 55.516 25.962
36.265 55.322 26.775
36.248 55.503 29.211
36.365 56.394 29.513
35.604 55.728 29.789
35.699 56.640 24.112
36.324 56.994 24.686
36.257 56.383 25.071
35.497 56.735 29.771
36.256 56.999 29.576
35.386 58.307 22.933
35.702 57.867 23.411
36.032 57.445 24.001
35.556 57.999 29.041
36.071 57.575 29.341
35.592 58.816 23.143
36.013 58.607 23.539
36.337 58.643 28.368
35.755 58.995 27.660
36.075 58.202 28.887
36.014 59.161 23.883
36.175 59.533 24.834
36.204 59.619 25.804
36.210 59.391 26.868
36.680 44.114 35.471
36.749 44.477 35.125
37.111 44.160 35.795
37.281 43.998 36.449
37.096 43.872 37.063
36.766 43.910 37.868
36.972 44.166 38.092
36.600 45.035 34.708
36.143 44.614 38.910
36.642 44.523 38.329
35.945 46.311 33.155
36.164 45.719 33.975
36.465 45.304 34.792
36.713 45.092 35.589
36.803 44.958 36.498
36.631 44.854 37.557
35.839 46.798 32.474
36.190 55.052 28.640
36.519 56.301 25.729
36.619 55.968 26.580
36.645 55.722 27.478
36.616 55.642 28.474
36.702 56.051 29.114
36.969 56.301 28.780
36.621 56.858 25.290
36.911 57.008 25.803
36.983 56.735 26.432
37.042 56.497 27.245
36.889 56.584 29.156
36.770 57.215 29.228
36.399 58.288 24.035
36.715 57.944 24.643
36.999 57.617 25.409
37.296 57.533 26.316
37.326 57.209 27.006
36.784 58.093 28.844
37.211 57.716 28.766
37.336 58.252 28.437
36.543 58.865 24.191
36.957 58.674 24.740
36.602 59.058 27.759
37.078 58.713 28.175
36.911 59.227 24.980
37.005 59.523 25.820
36.950 59.511 26.548
37.225 59.199 27.358
37.104 44.555 35.491
37.356 44.289 36.247
37.381 44.120 36.987
37.228 44.029 37.577
36.916 44.913 35.288
37.149 44.692 35.987
37.222 44.511 36.844
37.158 44.335 37.626
37.039 56.360 28.117
37.366 57.173 27.778
37.193 57.026 28.655
37.215 58.374 25.259
37.565 58.411 26.092
37.653 58.110 27.177
37.492 57.850 28.174
37.438 58.919 25.533
37.795 59.038 26.192
37.916 58.883 26.731
37.906 58.863 27.229
37.785 59.137 27.256
37.607 58.649 27.761
37.561 59.315 25.974
37.606 59.392 26.678
37.897 59.251 26.539
37.954 59.188 26.938
3 2 1 0
3 0 3 2
3 0 1 4
3 4 1 5
3 3 0 6
3 6 0 4
3 9 8 7
3 7 10 9
3 4 5 11
3 11 5 12
3 6 4 13
3 13 4 11
3 16 15 14
3 16 14 8
3 14 7 8
3 14 17 7
3 10 7 18
3 7 19 18
3 7 17 19
3 21 20 19
3 20 11 19
3 12 18 19
3 12 19 11
3 11 20 13
3 14 15 22
3 22 15 23
3 14 24 17
3 14 22 24
3 17 25 19
3 17 24 25
3 21 19 26
3 26 19 25
3 22 23 27
3 27 23 28
3 22 29 24
3 22 27 29
3 31 25 30
3 25 29 30
3 25 24 29
3 25 31 26
3 34 33 32
3 34 32 28
3 32 27 28
3 32 35 27
3 27 36 29
3 27 35 36
3 30 29 37
3 37 29 36
3 33 38 32
3 40 39 38
3 39 32 38
3 39 35 32
3 42 36 41
3 36 39 41
3 36 35 39
3 36 42 37
3 40 43 39
3 39 43 41
3 46 45 44
3 44 47 46
3 50 49 48
3 50 48 45
3 48 44 45
3 48 51 44
3 47 44 52
3 44 53 52
3 44 51 53
3 53 54 52
3 57 56 55
3 57 55 49
3 49 55 48
3 55 1 48
3 1 2 48
3 48 2 3
3 58 48 3
3 51 48 58
3 51 59 53
3 51 58 59
3 54 53 60
3 60 53 59
3 55 56 61
3 61 56 62
3 61 5 1
3 61 1 55
3 6 63 58
3 6 58 3
3 58 64 59
3 58 63 64
3 60 59 65
3 65 59 64
3 67 66 9
3 9 66 8
3 68 61 10
3 61 67 10
3 67 9 10
3 61 62 67
3 68 12 5
3 68 5 61
3 13 69 63
3 13 63 6
3 71 64 70
3 64 69 70
3 64 63 69
3 64 71 65
3 73 72 16
3 16 72 15
3 16 8 66
3 16 66 73
3 18 68 10
3 12 68 18
3 20 21 74
3 74 75 20
3 20 75 13
3 75 76 13
3 76 69 13
3 69 76 70
3 79 78 77
3 72 79 77
3 23 72 77
3 15 72 23
3 26 80 74
3 26 74 21
3 75 74 81
3 81 74 80
3 77 78 82
3 82 78 83
3 82 28 23
3 82 23 77
3 30 84 31
3 84 85 31
3 31 85 26
3 85 86 26
3 86 80 26
3 80 86 81
3 89 88 87
3 89 87 83
3 83 87 82
3 87 33 82
3 33 34 82
3 82 34 28
3 37 90 84
3 37 84 30
3 85 84 91
3 91 84 90
3 87 88 92
3 92 88 93
3 94 38 33
3 87 94 33
3 92 94 87
3 94 40 38
3 41 95 42
3 95 96 42
3 42 96 37
3 96 97 37
3 97 90 37
3 90 97 91
3 100 99 98
3 100 98 93
3 98 92 93
3 98 101 92
3 92 102 94
3 92 101 102
3 103 43 40
3 94 103 40
3 102 103 94
3 103 104 43
3 43 104 41
3 104 105 41
3 105 95 41
3 95 105 96
3 98 99 106
3 106 99 107
3 109 101 108
3 101 106 108
3 101 98 106
3 101 109 102
3 102 109 110
3 102 110 103
3 103 110 111
3 103 111 104
3 107 112 106
3 106 112 108
3 115 114 113
3 117 116 113
3 113 116 115
3 117 118 116
3 121 120 119
3 121 119 114
3 119 113 114
3 119 122 113
3 113 123 117
3 113 122 123
3 118 117 124
3 124 117 123
3 126 125 46
3 46 125 45
3 127 119 47
3 119 126 47
3 126 46 47
3 119 120 126
3 119 128 122
3 119 127 128
3 122 129 123
3 122 128 129
3 124 123 130
3 130 123 129
3 132 131 50
3 50 131 49
3 50 45 125
3 50 125 132
3 52 127 47
3 127 52 54
3 133 127 54
3 128 127 133
3 128 134 129
3 128 133 134
3 130 129 135
3 135 129 134
3 137 136 57
3 57 136 56
3 57 49 131
3 57 131 137
3 60 138 133
3 60 133 54
3 140 134 139
3 134 138 139
3 134 133 138
3 134 140 135
3 143 142 141
3 136 143 141
3 62 136 141
3 56 136 62
3 65 144 138
3 65 138 60
3 139 138 145
3 145 138 144
3 141 142 67
3 142 66 67
3 142 146 66
3 141 67 62
3 70 147 71
3 147 148 71
3 71 148 65
3 148 149 65
3 149 144 65
3 144 149 145
3 151 150 73
3 73 150 72
3 73 66 146
3 73 146 151
3 75 152 76
3 152 153 76
3 76 153 70
3 153 154 70
3 154 147 70
3 147 154 148
3 156 155 79
3 79 155 78
3 79 72 150
3 79 150 156
3 158 157 152
3 75 158 152
3 81 158 75
3 152 157 153
3 161 160 159
3 155 161 159
3 83 155 159
3 78 155 83
3 85 162 86
3 162 163 86
3 163 81 86
3 163 158 81
3 159 160 89
3 160 88 89
3 160 164 88
3 159 89 83
3 166 165 162
3 85 166 162
3 91 166 85
3 162 165 163
3 169 168 167
3 164 169 167
3 93 164 167
3 88 164 93
3 171 170 97
3 171 97 96
3 91 97 166
3 166 97 170
3 167 168 100
3 168 99 100
3 168 172 99
3 167 100 93
3 104 173 105
3 173 174 105
3 174 96 105
3 174 171 96
3 177 176 175
3 172 177 175
3 107 172 175
3 99 172 107
3 108 178 109
3 179 110 109
3 179 109 178
3 180 111 110
3 180 110 179
3 180 181 111
3 111 181 104
3 181 182 104
3 182 173 104
3 173 182 174
3 176 183 175
3 175 183 107
3 183 112 107
3 183 184 112
3 108 112 178
3 112 185 178
3 112 184 185
3 178 185 179
3 179 185 186
3 179 186 180
3 180 186 187
3 180 187 181
3 190 189 188
3 192 191 188
3 188 191 190
3 194 193 192
3 192 193 191
3 194 195 193
3 188 189 115
3 189 114 115
3 189 196 114
3 188 115 116
3 188 116 192
3 192 116 118
3 197 192 118
3 194 192 197
3 195 194 198
3 198 194 197
3 200 199 121
3 121 199 120
3 121 114 196
3 121 196 200
3 124 201 197
3 124 197 118
3 198 197 202
3 202 197 201
3 204 203 126
3 126 203 125
3 126 120 199
3 126 199 204
3 130 205 201
3 130 201 124
3 202 201 206
3 206 201 205
3 208 207 132
3 132 207 131
3 132 125 203
3 132 203 208
3 210 209 205
3 130 210 205
3 135 210 130
3 205 209 206
3 212 211 137
3 137 211 136
3 137 131 207
3 137 207 212
3 214 213 140
3 214 140 139
3 135 140 210
3 210 140 213
3 215 142 143
3 216 215 143
3 136 216 143
3 211 216 136
3 145 214 139
3 145 217 214
3 219 218 215
3 218 142 215
3 218 146 142
3 219 215 216
3 221 220 149
3 221 149 148
3 145 149 217
3 217 149 220
3 223 222 151
3 151 222 150
3 151 146 218
3 151 218 223
3 153 224 154
3 224 225 154
3 225 148 154
3 225 221 148
3 227 226 156
3 156 226 155
3 156 150 222
3 156 222 227
3 158 228 157
3 228 229 157
3 157 229 153
3 229 230 153
3 230 224 153
3 224 230 225
3 231 160 161
3 232 231 161
3 155 232 161
3 226 232 155
3 234 233 228
3 158 234 228
3 163 234 158
3 228 233 229
3 236 235 231
3 235 160 231
3 235 164 160
3 236 231 232
3 238 237 165
3 238 165 166
3 163 165 234
3 234 165 237
3 240 239 169
3 169 239 168
3 169 164 235
3 169 235 240
3 171 241 170
3 241 242 170
3 242 166 170
3 242 238 166
3 245 244 243
3 239 245 243
3 172 239 243
3 168 239 172
3 247 246 241
3 171 247 241
3 174 247 171
3 241 246 242
3 250 249 248
3 250 248 244
3 244 248 243
3 248 176 243
3 176 177 243
3 243 177 172
3 181 251 182
3 251 252 182
3 252 174 182
3 252 247 174
3 248 249 253
3 253 249 254
3 255 183 176
3 248 255 176
3 253 255 248
3 256 184 183
3 256 183 255
3 257 185 184
3 257 184 256
3 185 257 258
3 259 185 258
3 186 185 259
3 186 260 187
3 259 260 186
3 181 187 251
3 187 261 251
3 187 260 261
3 251 261 252
3 254 262 253
3 253 262 255
3 255 262 263
3 255 263 256
3 256 263 264
3 256 264 257
3 257 264 265
3 257 265 258
3 268 267 266
3 266 269 268
3 271 270 190
3 190 270 189
3 191 266 267
3 271 191 267
3 190 191 271
3 272 269 266
3 191 272 266
3 193 272 191
3 274 273 195
3 273 193 195
3 273 272 193
3 274 275 273
3 278 277 276
3 270 278 276
3 196 270 276
3 189 270 196
3 198 279 274
3 198 274 195
3 275 274 280
3 280 274 279
3 283 282 281
3 283 281 277
3 277 281 276
3 281 199 276
3 199 200 276
3 276 200 196
3 202 284 279
3 202 279 198
3 280 279 285
3 285 279 284
3 281 282 204
3 282 203 204
3 282 286 203
3 281 204 199
3 289 288 287
3 288 290 284
3 206 288 284
3 202 206 284
3 287 288 206
3 284 290 285
3 292 291 208
3 208 291 207
3 208 203 286
3 208 286 292
3 295 294 293
3 293 294 289
3 293 289 287
3 210 293 287
3 209 210 287
3 209 287 206
3 297 296 212
3 212 296 211
3 212 207 291
3 212 291 297
3 295 293 213
3 214 295 213
3 298 295 214
3 213 293 210
3 296 216 211
3 299 216 296
3 302 301 300
3 301 298 300
3 298 217 300
3 298 214 217
3 304 303 219
3 219 303 218
3 219 216 299
3 219 299 304
3 302 300 220
3 221 302 220
3 305 302 221
3 220 300 217
3 307 306 223
3 223 306 222
3 223 218 303
3 223 303 307
3 310 309 308
3 309 305 308
3 305 225 308
3 305 221 225
3 312 311 227
3 227 311 226
3 227 222 306
3 227 306 312
3 310 308 230
3 229 310 230
3 313 310 229
3 230 308 225
3 316 315 314
3 311 316 314
3 232 311 314
3 226 311 232
3 234 317 233
3 317 318 233
3 318 229 233
3 318 313 229
3 314 315 236
3 315 235 236
3 315 319 235
3 314 236 232
3 238 320 237
3 320 321 237
3 237 321 234
3 321 322 234
3 322 317 234
3 317 322 318
3 324 323 240
3 240 323 239
3 240 235 319
3 240 319 324
3 326 325 320
3 238 326 320
3 242 326 238
3 320 325 321
3 328 327 245
3 245 327 244
3 245 239 323
3 245 323 328
3 330 329 246
3 330 246 247
3 242 246 326
3 326 246 329
3 332 331 250
3 250 331 249
3 250 244 327
3 250 327 332
3 335 334 333
3 337 336 333
3 337 333 334
3 337 330 336
3 330 252 336
3 330 247 252
3 331 254 249
3 338 254 331
3 340 339 259
3 340 259 258
3 333 260 335
3 260 339 335
3 260 259 339
3 260 333 261
3 261 333 336
3 261 336 252
3 262 254 341
3 254 342 341
3 254 338 342
3 343 263 262
3 343 262 341
3 344 264 263
3 344 263 343
3 345 265 264
3 345 264 344
3 345 346 265
3 346 258 265
3 346 340 258
3 342 347 341
3 341 347 343
3 343 347 348
3 343 348 344
3 344 348 349
3 344 349 345
3 345 349 350
3 345 350 346
3 351 267 268
3 353 351 352
3 351 268 352
3 269 354 352
3 269 352 268
3 356 355 354
3 354 355 352
3 356 357 355
3 358 270 271
3 359 358 271
3 359 271 267
3 360 359 267
3 351 360 267
3 269 272 354
3 351 353 360
3 354 272 273
3 354 273 356
3 362 361 275
3 275 361 273
3 361 357 273
3 357 356 273
3 362 363 361
3 364 277 278
3 365 364 278
3 365 278 270
3 366 365 270
3 358 366 270
3 366 358 359
3 280 367 362
3 280 362 275
3 363 362 368
3 368 362 367
3 369 282 283
3 370 369 283
3 370 283 277
3 371 370 277
3 364 371 277
3 371 364 365
3 373 372 367
3 280 373 367
3 285 373 280
3 367 372 368
3 375 374 369
3 374 282 369
3 374 286 282
3 375 369 370
3 377 376 288
3 377 288 289
3 288 378 290
3 376 378 288
3 285 290 373
3 373 290 378
3 380 379 292
3 292 379 291
3 292 286 374
3 292 374 380
3 382 381 294
3 382 294 295
3 289 294 377
3 377 294 381
3 384 383 297
3 297 383 296
3 297 291 379
3 297 379 384
3 387 386 385
3 386 382 385
3 382 298 385
3 382 295 298
3 383 299 296
3 388 299 383
3 391 390 389
3 389 390 387
3 389 387 385
3 302 389 385
3 301 302 385
3 301 385 298
3 393 392 304
3 304 392 303
3 304 299 388
3 304 388 393
3 391 389 394
3 391 394 395
3 305 394 302
3 302 394 389
3 397 396 307
3 307 396 306
3 307 303 392
3 307 392 397
3 400 399 398
3 398 399 395
3 398 395 394
3 310 398 394
3 309 310 394
3 309 394 305
3 402 401 312
3 312 401 311
3 312 306 396
3 312 396 402
3 400 398 403
3 400 403 404
3 313 403 310
3 310 403 398
3 406 405 316
3 316 405 315
3 316 311 401
3 316 401 406
3 404 403 407
3 404 407 408
3 318 407 313
3 313 407 403
3 405 319 315
3 409 319 405
3 408 407 322
3 321 408 322
3 410 408 321
3 322 407 318
3 412 411 324
3 324 411 323
3 324 319 409
3 324 409 412
3 415 414 413
3 325 326 413
3 414 325 413
3 416 325 414
3 321 325 410
3 410 325 416
3 418 417 328
3 328 417 327
3 328 323 411
3 328 411 418
3 421 420 419
3 419 420 415
3 419 415 413
3 330 419 413
3 329 330 413
3 329 413 326
3 423 422 332
3 332 422 331
3 332 327 417
3 332 417 423
3 425 424 334
3 425 334 335
3 419 337 421
3 337 424 421
3 337 334 424
3 337 419 330
3 422 338 331
3 426 338 422
3 340 427 339
3 427 428 339
3 428 335 339
3 428 425 335
3 426 342 338
3 429 342 426
3 431 430 427
3 340 431 427
3 346 431 340
3 427 430 428
3 429 432 342
3 342 432 347
3 347 433 348
3 432 433 347
3 348 434 349
3 433 434 348
3 349 435 350
3 434 435 349
3 346 350 431
3 431 350 435
3 437 436 352
3 352 436 353
3 438 352 355
3 438 437 352
3 440 439 357
3 439 355 357
3 439 438 355
3 440 441 439
3 443 442 360
3 360 442 359
3 360 353 436
3 360 436 443
3 361 440 357
3 445 444 363
3 363 444 361
3 444 441 361
3 441 440 361
3 445 446 444
3 448 447 366
3 366 447 365
3 366 359 442
3 366 442 448
3 368 449 445
3 368 445 363
3 446 445 450
3 450 445 449
3 452 451 371
3 371 451 370
3 371 365 447
3 371 447 452
3 373 453 372
3 453 454 372
3 372 454 368
3 454 455 368
3 455 449 368
3 449 455 450
3 457 456 375
3 375 456 374
3 375 370 451
3 375 451 457
3 460 459 458
3 376 377 458
3 459 376 458
3 461 376 459
3 376 462 378
3 461 462 376
3 373 378 453
3 378 463 453
3 378 462 463
3 453 463 454
3 464 379 380
3 465 464 380
3 374 465 380
3 456 465 374
3 468 467 466
3 466 467 460
3 466 460 458
3 382 466 458
3 381 382 458
3 381 458 377
3 469 383 384
3 470 469 384
3 470 384 379
3 471 470 379
3 464 471 379
3 471 464 465
3 468 466 386
3 387 468 386
3 472 468 387
3 386 466 382
3 474 473 469
3 473 383 469
3 473 388 383
3 474 469 470
3 476 475 390
3 476 390 391
3 387 390 472
3 472 390 475
3 478 477 393
3 393 477 392
3 393 388 473
3 393 473 478
3 481 480 479
3 480 476 479
3 476 395 479
3 476 391 395
3 483 482 397
3 397 482 396
3 397 392 477
3 397 477 483
3 486 485 484
3 484 485 481
3 484 481 479
3 400 484 479
3 399 400 479
3 399 479 395
3 488 487 402
3 402 487 401
3 402 396 482
3 402 482 488
3 486 484 489
3 486 489 490
3 404 489 400
3 400 489 484
3 492 491 406
3 406 491 405
3 406 401 487
3 406 487 492
3 493 490 489
3 489 404 493
3 404 494 493
3 404 408 494
3 497 496 495
3 491 497 495
3 409 491 495
3 405 491 409
3 410 494 408
3 410 498 494
3 495 496 412
3 496 411 412
3 496 499 411
3 495 412 409
3 415 500 414
3 414 500 501
3 502 414 501
3 416 414 502
3 410 416 498
3 498 416 502
3 504 503 418
3 418 503 417
3 418 411 499
3 418 499 504
3 421 505 420
3 505 506 420
3 420 506 415
3 506 507 415
3 507 500 415
3 500 507 501
3 509 508 423
3 423 508 422
3 423 417 503
3 423 503 509
3 425 510 424
3 510 511 424
3 424 511 421
3 511 512 421
3 512 505 421
3 505 512 506
3 508 426 422
3 513 426 508
3 516 515 514
3 515 517 510
3 428 515 510
3 425 428 510
3 514 515 428
3 510 517 511
3 519 429 518
3 429 513 518
3 429 426 513
3 521 520 519
3 521 519 518
3 523 522 520
3 523 520 521
3 525 524 522
3 525 522 523
3 524 525 516
3 524 516 514
3 431 524 514
3 430 431 514
3 430 514 428
3 519 432 429
3 432 519 433
3 433 519 520
3 433 520 434
3 434 520 522
3 434 522 435
3 435 522 524
3 435 524 431
3 526 436 437
3 438 527 437
3 437 527 526
3 527 438 528
3 438 529 528
3 438 439 529
3 531 530 441
3 530 439 441
3 530 529 439
3 531 532 530
3 533 442 443
3 534 533 443
3 534 443 436
3 535 534 436
3 526 535 436
3 535 526 527
3 535 527 536
3 536 527 528
3 444 531 441
3 444 446 531
3 446 532 531
3 446 537 532
3 538 447 448
3 539 538 448
3 539 448 442
3 540 539 442
3 533 540 442
3 540 533 534
3 450 537 446
3 450 541 537
3 542 451 452
3 543 542 452
3 543 452 447
3 544 543 447
3 538 544 447
3 544 538 539
3 547 546 545
3 548 545 546
3 550 549 455
3 550 455 454
3 450 455 541
3 541 455 549
3 551 456 457
3 552 551 457
3 552 457 451
3 553 552 451
3 542 553 451
3 553 542 543
3 555 554 459
3 555 459 460
3 459 556 461
3 554 556 459
3 545 462 547
3 462 556 547
3 462 461 556
3 548 557 545
3 557 462 545
3 557 463 462
3 454 463 550
3 550 463 557
3 559 558 551
3 558 456 551
3 558 465 456
3 559 551 552
3 561 560 467
3 561 467 468
3 460 467 555
3 555 467 560
3 563 562 471
3 471 562 470
3 471 465 558
3 471 558 563
3 566 565 564
3 565 561 564
3 561 472 564
3 561 468 472
3 568 567 474
3 474 567 473
3 474 470 562
3 474 562 568
3 571 570 569
3 569 570 566
3 569 566 564
3 476 569 564
3 475 476 564
3 475 564 472
3 573 572 478
3 478 572 477
3 478 473 567
3 478 567 573
3 571 569 480
3 481 571 480
3 574 571 481
3 480 569 476
3 576 575 483
3 483 575 482
3 483 477 572
3 483 572 576
3 578 577 485
3 578 485 486
3 481 485 574
3 574 485 577
3 579 487 488
3 580 579 488
3 482 580 488
3 575 580 482
3 583 582 581
3 582 578 581
3 578 490 581
3 578 486 490
3 585 584 492
3 492 584 491
3 492 487 579
3 586 492 579
3 585 492 586
3 586 579 580
3 587 583 581
3 589 587 588
3 588 587 493
3 587 581 493
3 581 490 493
3 494 588 493
3 590 496 497
3 591 590 497
3 491 591 497
3 584 591 491
3 592 589 588
3 588 494 592
3 494 593 592
3 494 498 593
3 595 594 590
3 594 496 590
3 594 499 496
3 595 590 591
3 597 596 502
3 597 502 501
3 498 502 593
3 593 502 596
3 599 598 504
3 504 598 503
3 504 499 594
3 504 594 599
3 601 600 507
3 601 507 506
3 501 507 597
3 597 507 600
3 603 602 509
3 509 602 508
3 509 503 598
3 509 598 603
3 605 604 512
3 605 512 511
3 506 512 601
3 601 512 604
3 602 513 508
3 606 513 602
3 516 607 515
3 515 607 608
3 609 515 608
3 517 515 609
3 511 517 605
3 605 517 609
3 606 610 513
3 513 610 518
3 518 611 521
3 610 611 518
3 521 612 523
3 611 612 521
3 523 613 525
3 612 613 523
3 516 525 607
3 525 614 607
3 525 613 614
3 607 614 608
3 615 528 529
3 615 529 616
3 529 617 616
3 529 530 617
3 530 532 617
3 617 532 618
3 619 534 535
3 619 535 620
3 535 621 620
3 535 536 621
3 536 528 615
3 622 536 615
3 621 536 622
3 622 615 616
3 537 624 623
3 618 537 623
3 532 537 618
3 624 625 623
3 627 626 540
3 540 626 539
3 540 534 619
3 628 540 619
3 627 540 628
3 628 619 620
3 541 629 624
3 541 624 537
3 625 624 630
3 630 624 629
3 632 631 544
3 544 631 543
3 544 539 626
3 544 626 632
3 634 633 546
3 634 546 547
3 636 635 548
3 546 636 548
3 633 636 546
3 549 550 635
3 636 549 635
3 637 549 636
3 541 549 629
3 549 638 629
3 549 637 638
3 629 638 630
3 640 639 553
3 553 639 552
3 553 543 631
3 553 631 640
3 555 641 554
3 554 641 642
3 643 554 642
3 556 554 643
3 547 556 634
3 634 556 643
3 635 557 548
3 557 635 550
3 645 644 559
3 559 644 558
3 559 552 639
3 559 639 645
3 647 646 560
3 647 560 561
3 555 560 641
3 560 648 641
3 560 646 648
3 641 648 642
3 650 649 563
3 563 649 562
3 563 558 644
3 563 644 650
3 652 651 565
3 652 565 566
3 561 565 647
3 647 565 651
3 653 567 568
3 654 653 568
3 562 654 568
3 649 654 562
3 656 655 570
3 656 570 571
3 566 570 652
3 652 570 655
3 657 572 573
3 567 653 573
3 653 657 573
3 653 658 657
3 653 654 659
3 660 653 659
3 658 653 660
3 659 656 660
3 656 574 660
3 656 571 574
3 661 575 576
3 572 657 576
3 657 661 576
3 657 662 661
3 663 657 658
3 662 657 663
3 578 663 577
3 663 660 577
3 663 658 660
3 577 660 574
3 665 664 661
3 664 575 661
3 664 580 575
3 667 666 665
3 661 667 665
3 662 667 661
3 583 667 582
3 667 663 582
3 667 662 663
3 582 663 578
3 669 668 585
3 585 668 584
3 670 585 586
3 670 669 585
3 586 580 664
3 586 664 670
3 671 666 667
3 671 667 583
3 587 671 583
3 672 671 587
3 587 589 672
3 672 589 673
3 676 675 674
3 668 676 674
3 591 668 674
3 584 668 591
3 677 673 589
3 677 589 592
3 592 593 677
3 677 593 678
3 674 675 595
3 675 594 595
3 675 679 594
3 674 595 591
3 597 680 596
3 680 681 596
3 681 593 596
3 681 678 593
3 683 682 599
3 599 682 598
3 599 594 679
3 599 679 683
3 601 684 600
3 684 685 600
3 600 685 597
3 685 686 597
3 686 680 597
3 680 686 681
3 688 687 603
3 603 687 602
3 603 598 682
3 603 682 688
3 690 689 604
3 690 604 605
3 601 604 684
3 604 691 684
3 604 689 691
3 684 691 685
3 693 606 692
3 606 687 692
3 606 602 687
3 694 693 692
3 696 695 609
3 696 609 608
3 605 609 690
3 690 609 695
3 693 610 606
3 694 697 693
3 697 610 693
3 697 611 610
3 611 698 612
3 697 698 611
3 612 699 613
3 698 699 612
3 613 700 614
3 699 700 613
3 608 614 696
3 696 614 700
3 701 616 617
3 618 701 617
3 703 702 621
3 621 702 620
3 704 621 622
3 704 703 621
3 622 616 701
3 705 622 701
3 704 622 705
3 705 701 618
3 623 705 618
3 706 705 623
3 623 625 706
3 706 625 707
3 708 626 627
3 708 627 709
3 627 710 709
3 627 628 710
3 628 620 702
3 628 702 710
3 630 707 625
3 630 711 707
3 713 712 632
3 632 712 631
3 632 626 708
3 714 632 708
3 713 632 714
3 714 708 709
3 716 715 633
3 716 633 634
3 633 717 636
3 715 717 633
3 636 718 637
3 717 718 636
3 637 719 638
3 718 719 637
3 630 638 711
3 711 638 719
3 721 720 640
3 640 720 639
3 640 631 712
3 640 712 721
3 724 723 722
3 643 642 722
3 723 643 722
3 725 643 723
3 634 643 716
3 716 643 725
3 727 726 645
3 645 726 644
3 645 639 720
3 645 720 727
3 729 728 646
3 729 646 647
3 722 648 724
3 648 728 724
3 648 646 728
3 648 722 642
3 730 649 650
3 644 726 731
3 730 644 731
3 732 730 731
3 650 644 730
3 651 652 732
3 731 651 732
3 733 651 731
3 647 651 729
3 729 651 733
3 734 654 730
3 730 654 649
3 656 734 655
3 734 732 655
3 734 730 732
3 655 732 652
3 734 659 654
3 659 734 656
3 735 664 665
3 666 735 665
3 736 668 669
3 670 737 669
3 669 737 736
3 664 735 670
3 735 737 670
3 735 738 737
3 738 735 666
3 739 738 666
3 671 739 666
3 740 738 739
3 742 739 741
3 739 672 741
3 739 671 672
3 673 741 672
3 743 675 676
3 744 743 676
3 744 676 668
3 745 744 668
3 736 745 668
3 745 736 737
3 745 737 746
3 746 737 738
3 746 738 747
3 747 738 740
3 748 742 741
3 748 741 673
3 677 748 673
3 749 748 677
3 677 678 749
3 749 678 750
3 752 751 743
3 751 675 743
3 751 679 675
3 752 743 744
3 681 750 678
3 681 753 750
3 754 682 683
3 755 754 683
3 679 755 683
3 751 755 679
3 685 756 686
3 756 757 686
3 757 681 686
3 757 753 681
3 758 687 688
3 759 758 688
3 759 688 682
3 760 759 682
3 754 760 682
3 760 754 755
3 690 761 689
3 689 761 762
3 763 689 762
3 691 689 763
3 685 691 756
3 691 764 756
3 691 763 764
3 756 764 757
3 758 692 687
3 694 692 758
3 759 694 758
3 765 694 759
3 696 766 695
3 766 767 695
3 695 767 690
3 767 768 690
3 768 761 690
3 761 768 762
3 765 769 694
3 694 769 697
3 697 770 698
3 769 770 697
3 698 771 699
3 770 771 698
3 699 772 700
3 771 772 699
3 696 700 766
3 700 773 766
3 700 772 773
3 766 773 767
3 775 774 703
3 703 774 702
3 776 703 704
3 776 775 703
3 777 704 705
3 777 776 704
3 779 777 778
3 777 706 778
3 777 705 706
3 707 778 706
3 781 780 710
3 710 780 709
3 710 702 774
3 710 774 781
3 782 779 778
3 778 707 782
3 707 783 782
3 707 711 783
3 785 784 713
3 713 784 712
3 786 713 714
3 786 785 713
3 780 787 709
3 787 788 709
3 789 709 788
3 709 789 714
3 790 714 789
3 714 790 787
3 787 786 714
3 780 786 787
3 787 790 788
3 715 716 789
3 788 715 789
3 791 715 788
3 715 792 717
3 791 792 715
3 717 793 718
3 792 793 717
3 718 794 719
3 793 794 718
3 711 719 783
3 783 719 794
3 796 795 721
3 721 795 720
3 784 797 712
3 797 798 712
3 799 712 798
3 712 799 721
3 800 721 799
3 721 800 797
3 797 796 721
3 784 796 797
3 797 800 798
3 723 724 799
3 798 723 799
3 801 723 798
3 789 725 790
3 725 801 790
3 725 723 801
3 725 789 716
3 802 726 727
3 720 795 803
3 802 720 803
3 804 802 803
3 727 720 802
3 804 803 800
3 804 800 799
3 729 804 799
3 728 729 799
3 728 799 724
3 802 731 726
3 731 802 733
3 733 802 804
3 733 804 729
3 805 740 739
3 742 805 739
3 806 744 745
3 746 807 745
3 745 807 806
3 747 808 746
3 746 808 807
3 809 808 747
3 809 747 740
3 810 809 740
3 805 810 740
3 812 810 811
3 811 810 748
3 810 805 748
3 805 742 748
3 749 813 748
3 748 813 811
3 750 813 749
3 814 751 752
3 744 806 752
3 806 814 752
3 806 815 814
3 807 817 816
3 815 807 816
3 806 807 815
3 817 807 808
3 817 808 818
3 818 808 809
3 819 812 811
3 821 820 819
3 811 821 819
3 813 821 811
3 753 821 750
3 750 821 813
3 822 755 814
3 814 755 751
3 815 824 823
3 822 815 823
3 814 815 822
3 824 815 816
3 820 821 825
3 820 825 826
3 757 825 753
3 753 825 821
3 827 759 760
3 828 827 760
3 828 760 755
3 829 828 755
3 822 829 755
3 829 822 823
3 762 830 763
3 831 826 825
3 763 831 825
3 764 763 825
3 831 763 830
3 764 825 757
3 832 765 827
3 827 765 759
3 827 828 833
3 827 833 832
3 835 834 768
3 835 768 767
3 762 768 830
3 768 836 830
3 768 834 836
3 830 836 831
3 832 769 765
3 833 837 832
3 837 769 832
3 837 770 769
3 770 838 771
3 837 838 770
3 771 839 772
3 838 839 771
3 772 840 773
3 839 840 772
3 767 773 835
3 835 773 840
3 843 842 841
3 774 775 841
3 775 843 841
3 775 844 843
3 845 775 776
3 845 844 775
3 846 776 777
3 846 845 776
3 777 779 846
3 846 779 847
3 841 842 781
3 842 780 781
3 842 848 780
3 841 781 774
3 779 782 849
3 850 779 849
3 847 779 850
3 783 849 782
3 851 784 785
3 786 852 785
3 785 852 851
3 788 790 853
3 852 853 790
3 853 852 848
3 786 848 852
3 848 786 780
3 788 854 791
3 853 854 788
3 791 855 792
3 854 855 791
3 792 856 793
3 855 856 792
3 849 794 850
3 794 856 850
3 794 793 856
3 794 849 783
3 857 795 796
3 796 784 857
3 784 851 857
3 798 800 857
3 798 857 851
3 798 851 801
3 801 851 852
3 801 852 790
3 857 803 795
3 803 857 800
3 858 809 810
3 812 858 810
3 859 816 817
3 818 860 817
3 817 860 859
3 861 860 818
3 861 818 809
3 862 861 809
3 858 862 809
3 864 862 863
3 863 862 819
3 862 858 819
3 858 812 819
3 820 863 819
3 865 823 824
3 816 859 824
3 859 865 824
3 859 866 865
3 867 859 860
3 866 859 867
3 860 861 868
3 860 868 867
3 869 864 863
3 863 820 869
3 820 870 869
3 820 826 870
3 871 828 829
3 872 871 829
3 872 829 823
3 873 872 823
3 865 873 823
3 873 865 866
3 873 866 874
3 874 866 867
3 874 867 875
3 875 867 868
3 878 877 876
3 877 870 876
3 870 831 876
3 870 826 831
3 879 833 871
3 871 833 828
3 871 872 880
3 871 880 879
3 835 881 834
3 882 878 876
3 834 882 876
3 836 834 876
3 882 834 881
3 836 876 831
3 879 837 833
3 880 883 879
3 883 837 879
3 883 838 837
3 838 884 839
3 883 884 838
3 839 885 840
3 884 885 839
3 835 840 881
3 840 886 881
3 840 885 886
3 881 886 882
3 887 842 843
3 844 888 843
3 843 888 887
3 845 889 844
3 844 889 888
3 846 890 845
3 845 890 889
3 847 890 846
3 891 848 887
3 887 848 842
3 892 887 888
3 891 887 892
3 893 888 889
3 892 888 893
3 894 889 890
3 893 889 894
3 850 894 847
3 847 894 890
3 891 853 848
3 853 891 854
3 854 891 892
3 854 892 855
3 855 892 893
3 855 893 856
3 856 893 894
3 856 894 850
3 895 861 862
3 864 895 862
3 896 868 895
3 895 868 861
3 869 897 864
3 897 895 864
3 897 896 895
3 870 897 869
3 898 872 873
3 874 899 873
3 873 899 898
3 875 900 874
3 874 900 899
3 868 896 875
3 896 900 875
3 896 901 900
3 878 901 877
3 901 897 877
3 901 896 897
3 877 897 870
3 902 880 898
3 898 880 872
3 899 904 903
3 902 899 903
3 898 899 902
3 904 899 900
3 904 900 905
3 907 906 905
3 900 907 905
3 901 907 900
3 882 907 878
3 878 907 901
3 902 883 880
3 903 908 902
3 908 883 902
3 908 884 883
3 884 909 885
3 908 909 884
3 907 886 906
3 886 909 906
3 886 885 909
3 886 907 882
3 910 903 904
3 905 911 904
3 904 911 910
3 906 911 905
3 910 908 903
3 908 910 909
3 909 910 911
3 909 911 906
