ply
format ascii 1.0
comment None
element vertex 221
property float x
property float y
property float z
element face 458
property list uchar int vertex_indices
end_header
26.430 47.076 32.053
26.414 47.037 32.011
26.645 46.500 32.438
26.746 46.377 32.642
26.139 47.723 31.509
26.004 48.024 31.257
26.201 47.559 31.620
26.244 47.624 31.727
26.469 47.215 32.161
25.920 48.254 31.106
25.881 48.367 31.037
26.030 48.130 31.331
26.285 47.715 31.830
25.829 48.531 30.948
25.814 48.584 30.923
25.905 48.455 31.104
26.203 47.935 31.683
26.000 50.500 29.000
26.000 50.500 29.000
26.000 50.500 29.000
26.000 50.500 29.000
25.806 48.635 30.912
26.000 50.500 29.000
26.000 50.500 29.000
26.000 50.500 29.000
26.000 50.500 29.000
25.854 56.153 25.505
25.876 56.329 25.489
25.849 56.042 25.516
25.853 56.046 25.517
25.924 56.683 25.450
25.978 57.126 25.345
25.900 56.670 25.442
25.893 56.351 25.494
25.997 56.790 25.472
26.039 57.343 25.325
26.081 57.587 25.234
26.345 57.558 25.447
26.368 58.107 25.121
27.085 45.608 33.270
27.140 45.388 33.357
27.203 45.264 33.476
27.224 45.278 33.527
26.680 46.433 32.505
26.934 45.863 32.977
26.823 46.365 32.811
27.207 45.420 33.510
27.042 45.921 33.226
27.199 45.519 33.509
26.132 47.835 31.510
26.484 46.996 32.158
26.647 46.963 32.515
26.900 46.397 32.986
27.117 45.774 33.368
25.945 48.313 31.170
26.439 47.310 32.110
26.228 47.809 31.720
26.422 47.479 32.098
26.482 47.357 32.212
26.454 47.480 32.169
26.666 47.039 32.568
25.931 48.413 31.156
26.510 47.385 32.279
26.000 50.500 29.000
26.000 50.500 29.000
25.882 56.214 25.505
26.073 56.973 25.449
26.392 57.994 25.136
26.568 57.857 25.459
26.578 57.749 25.583
26.694 57.917 25.611
27.058 58.169 25.716
26.714 58.966 24.557
27.166 59.622 23.873
27.182 59.153 24.552
26.747 58.863 24.857
27.081 58.637 25.288
27.109 58.342 25.599
27.064 59.584 24.029
27.561 59.987 23.449
27.000 59.358 24.463
27.197 59.183 24.879
27.505 59.799 23.989
27.516 59.546 24.578
27.147 45.422 33.379
26.887 46.083 32.908
27.102 45.635 33.312
27.197 45.454 33.494
26.682 46.761 32.560
26.985 46.061 33.121
26.726 46.838 32.671
27.020 58.477 25.359
27.198 58.304 25.687
27.452 59.775 23.712
27.874 60.076 23.277
27.769 59.786 23.893
27.852 59.487 24.611
27.812 58.994 25.397
28.100 58.729 25.916
27.444 58.613 25.620
27.722 58.836 25.586
28.026 58.648 25.950
27.704 60.075 23.204
28.406 60.406 22.593
28.694 59.169 25.821
28.117 59.363 25.202
28.178 60.353 22.720
28.580 60.534 22.244
28.255 60.232 23.222
28.379 60.442 22.576
28.145 59.812 24.391
28.509 60.519 22.317
28.277 60.162 23.287
28.277 59.867 24.132
28.390 59.489 25.100
28.725 59.320 25.643
28.888 59.032 26.051
29.295 58.729 26.570
29.137 58.862 26.398
29.831 58.653 26.917
28.746 60.545 22.259
28.871 60.571 22.188
28.706 60.436 22.641
28.640 60.186 23.509
28.713 59.870 24.498
28.796 59.548 25.320
28.819 59.429 25.585
28.897 59.619 25.242
29.375 59.302 26.032
29.611 58.989 26.514
28.807 60.593 22.087
28.900 60.597 22.103
28.682 60.556 22.198
28.576 60.508 22.384
28.674 60.477 22.554
28.761 60.569 22.204
28.689 60.298 23.286
28.684 60.021 24.162
28.758 60.584 22.131
30.477 57.153 28.409
30.564 57.237 28.362
30.598 56.934 28.655
30.833 56.796 28.870
30.145 58.257 27.356
30.148 58.552 27.101
30.418 58.192 27.501
30.517 57.709 27.931
30.380 57.635 27.961
30.616 57.218 28.397
30.473 57.641 27.983
29.366 59.324 25.942
29.770 58.933 26.590
30.362 58.203 27.496
30.131 58.731 26.983
28.893 60.544 22.325
28.810 60.412 22.858
28.824 60.132 23.870
29.069 59.739 25.039
29.687 59.330 26.089
30.031 59.022 26.652
28.858 60.561 22.272
31.032 56.620 29.120
31.258 56.801 28.999
31.486 56.308 29.588
31.523 56.072 29.858
31.435 56.137 29.758
31.852 55.806 30.261
30.797 57.266 28.409
30.775 57.596 28.101
31.049 57.285 28.465
31.624 56.250 29.698
31.296 56.704 29.108
30.523 58.358 27.401
30.668 57.980 27.751
30.567 57.445 28.171
30.749 57.664 28.053
30.947 57.165 28.550
30.019 59.078 26.555
30.396 58.688 27.081
30.637 58.246 27.552
30.435 58.635 27.169
30.313 58.915 26.851
32.415 55.374 30.933
32.503 55.309 31.036
32.685 55.172 31.252
32.754 55.195 31.250
31.490 56.485 29.393
31.805 56.297 29.699
32.129 55.758 30.407
32.193 55.659 30.540
32.632 55.414 30.963
31.001 57.643 28.144
31.563 57.021 28.878
31.723 56.612 29.333
31.735 56.468 29.491
31.807 56.657 29.323
32.202 56.296 29.836
32.406 55.820 30.433
30.721 58.241 27.565
30.785 58.089 27.716
31.627 57.047 28.886
30.630 58.502 27.335
32.658 55.348 31.046
32.843 55.208 31.266
32.886 55.356 31.115
32.293 56.183 29.989
32.592 55.710 30.618
32.795 55.603 30.807
32.078 56.724 29.333
32.230 56.480 29.643
32.043 56.429 29.634
32.226 56.539 29.585
32.552 56.344 29.903
32.698 55.983 30.350
32.098 56.824 29.243
32.384 56.613 29.561
32.854 55.495 30.948
32.683 56.033 30.290
32.890 55.740 30.688
32.471 56.510 29.695
32.735 56.211 30.112
3 2 1 0
3 0 3 2
3 6 5 4
3 6 4 1
3 4 0 1
3 4 7 0
3 3 0 8
3 8 0 7
3 4 5 9
3 9 5 10
3 4 11 7
3 4 9 11
3 8 7 12
3 12 7 11
3 9 10 13
3 13 10 14
3 16 11 15
3 11 13 15
3 11 9 13
3 11 16 12
3 19 18 17
3 17 20 19
3 14 21 13
3 13 21 15
3 17 18 22
3 22 18 23
3 20 17 24
3 24 17 22
3 23 25 22
3 22 25 24
3 28 27 26
3 26 29 28
3 32 31 30
3 34 33 30
3 33 26 30
3 27 32 30
3 27 30 26
3 26 33 29
3 30 31 35
3 35 31 36
3 34 30 37
3 37 30 35
3 36 38 35
3 35 38 37
3 41 40 39
3 39 42 41
3 44 43 2
3 2 43 1
3 45 39 3
3 39 44 3
3 44 2 3
3 39 40 44
3 42 39 46
3 39 47 46
3 39 45 47
3 47 48 46
3 49 5 6
3 50 49 6
3 1 50 6
3 43 50 1
3 8 51 45
3 8 45 3
3 53 47 52
3 47 51 52
3 47 45 51
3 47 53 48
3 54 10 49
3 49 10 5
3 49 50 55
3 56 49 55
3 54 49 56
3 12 57 8
3 57 56 8
3 55 8 56
3 8 55 51
3 58 51 55
3 51 58 57
3 57 59 51
3 12 59 57
3 57 58 56
3 52 51 60
3 60 51 59
3 61 14 54
3 54 14 10
3 15 61 16
3 61 56 16
3 61 54 56
3 56 58 16
3 58 62 16
3 59 12 16
3 59 16 62
3 59 62 60
3 63 18 19
3 20 63 19
3 61 21 14
3 21 61 15
3 64 23 63
3 63 23 18
3 24 64 20
3 20 64 63
3 64 25 23
3 25 64 24
3 65 27 28
3 29 65 28
3 66 31 32
3 32 27 66
3 27 65 66
3 33 34 66
3 33 66 65
3 33 65 29
3 68 67 66
3 67 31 66
3 67 36 31
3 34 37 66
3 37 69 66
3 69 68 66
3 69 37 70
3 70 71 69
3 74 73 72
3 72 75 38
3 67 72 38
3 36 67 38
3 72 67 74
3 75 76 38
3 38 76 37
3 76 77 37
3 77 70 37
3 70 77 71
3 72 73 78
3 78 73 79
3 72 80 75
3 72 78 80
3 76 75 81
3 81 75 80
3 79 82 78
3 78 82 80
3 80 82 83
3 80 83 81
3 84 40 41
3 42 84 41
3 85 43 44
3 40 84 44
3 84 85 44
3 84 86 85
3 46 87 42
3 87 84 42
3 87 86 84
3 48 87 46
3 88 50 85
3 85 50 43
3 89 85 86
3 88 85 89
3 52 89 53
3 89 87 53
3 89 86 87
3 53 87 48
3 88 55 50
3 55 88 58
3 88 90 58
3 88 89 90
3 60 90 52
3 52 90 89
3 90 62 58
3 62 90 60
3 91 67 68
3 69 92 68
3 68 92 91
3 71 92 69
3 95 94 93
3 73 74 93
3 74 95 93
3 74 96 95
3 74 67 91
3 97 74 91
3 96 74 97
3 97 99 98
3 97 100 99
3 100 97 76
3 91 76 97
3 76 91 77
3 99 77 91
3 91 92 99
3 99 92 98
3 100 77 99
3 98 92 101
3 92 71 101
3 77 100 101
3 77 101 71
3 93 94 102
3 102 94 103
3 102 79 73
3 102 73 93
3 105 104 100
3 76 105 100
3 81 105 76
3 100 104 101
3 102 103 106
3 106 103 107
3 102 106 79
3 106 108 79
3 108 82 79
3 106 109 108
3 82 110 83
3 108 110 82
3 81 83 105
3 105 83 110
3 107 111 106
3 106 111 109
3 112 94 95
3 96 113 95
3 95 113 112
3 97 114 96
3 96 114 113
3 114 97 115
3 97 116 115
3 97 98 116
3 118 117 101
3 117 98 101
3 117 116 98
3 118 119 117
3 122 121 120
3 123 122 112
3 122 103 112
3 103 94 112
3 122 120 103
3 123 112 113
3 123 113 124
3 124 113 114
3 124 114 125
3 127 126 105
3 126 125 105
3 114 105 125
3 105 114 104
3 115 104 114
3 104 115 126
3 126 128 104
3 127 128 126
3 126 115 125
3 101 104 118
3 104 129 118
3 104 128 129
3 118 129 119
3 120 121 130
3 130 121 131
3 103 132 107
3 103 133 132
3 133 103 134
3 120 134 103
3 134 120 135
3 132 135 120
3 120 130 132
3 132 130 107
3 133 135 132
3 108 109 133
3 134 108 133
3 136 108 134
3 108 137 110
3 136 137 108
3 105 110 127
3 127 110 137
3 131 138 130
3 135 133 138
3 133 111 138
3 107 130 138
3 107 138 111
3 111 133 109
3 141 140 139
3 139 142 141
3 145 144 143
3 147 146 143
3 143 146 145
3 149 148 147
3 148 139 147
3 140 146 147
3 140 147 139
3 139 148 142
3 151 150 116
3 116 150 115
3 117 143 144
3 151 117 144
3 116 117 151
3 147 143 152
3 143 119 152
3 119 153 152
3 119 143 117
3 147 152 149
3 154 121 122
3 123 155 122
3 122 155 154
3 124 156 123
3 123 156 155
3 125 157 124
3 124 157 156
3 128 127 158
3 157 158 127
3 158 157 150
3 125 150 157
3 150 125 115
3 128 159 129
3 158 159 128
3 119 129 153
3 153 129 159
3 160 131 154
3 154 131 121
3 135 160 134
3 160 155 134
3 160 154 155
3 134 155 136
3 136 155 156
3 136 156 137
3 137 156 157
3 137 157 127
3 160 138 131
3 138 160 135
3 163 162 161
3 165 164 161
3 161 164 163
3 165 166 164
3 169 168 167
3 169 167 162
3 162 167 161
3 167 140 161
3 140 141 161
3 165 161 170
3 161 142 170
3 142 171 170
3 142 161 141
3 165 170 166
3 173 172 145
3 145 172 144
3 146 167 168
3 173 146 168
3 145 146 173
3 175 174 149
3 175 146 174
3 146 175 167
3 176 167 175
3 167 176 140
3 174 140 176
3 176 148 174
3 174 148 149
3 146 140 174
3 142 148 171
3 171 148 176
3 177 150 151
3 178 177 151
3 144 178 151
3 172 178 144
3 180 179 152
3 180 152 153
3 149 152 175
3 175 152 179
3 177 158 150
3 178 181 177
3 181 158 177
3 181 159 158
3 153 159 180
3 180 159 181
3 184 183 182
3 182 185 184
3 186 162 163
3 186 163 187
3 163 188 187
3 163 164 188
3 189 182 166
3 182 188 166
3 188 164 166
3 182 183 188
3 185 182 190
3 190 182 189
3 191 168 169
3 192 191 169
3 192 169 162
3 193 192 162
3 186 193 162
3 195 194 171
3 194 193 171
3 186 171 193
3 171 186 170
3 187 170 186
3 170 187 194
3 194 196 170
3 195 196 194
3 194 187 193
3 166 170 189
3 170 197 189
3 170 196 197
3 189 197 190
3 198 172 173
3 168 191 173
3 191 198 173
3 191 199 198
3 200 176 175
3 191 200 175
3 199 191 175
3 200 191 192
3 171 176 195
3 195 176 200
3 201 178 198
3 198 178 172
3 180 201 179
3 201 199 179
3 201 198 199
3 179 199 175
3 201 181 178
3 181 201 180
3 203 202 184
3 184 202 183
3 184 185 203
3 203 185 204
3 206 205 188
3 188 205 187
3 188 183 202
3 188 202 206
3 190 204 185
3 190 207 204
3 209 208 193
3 193 208 192
3 205 210 187
3 205 196 210
3 196 205 211
3 209 211 205
3 211 209 195
3 210 195 209
3 209 193 210
3 210 193 187
3 196 195 210
3 196 211 212
3 213 196 212
3 197 196 213
3 190 197 207
3 207 197 213
3 208 214 192
3 192 214 200
3 195 200 211
3 200 215 211
3 200 214 215
3 211 215 212
3 216 202 203
3 204 216 203
3 217 205 206
3 202 216 206
3 216 217 206
3 216 218 217
3 207 218 204
3 204 218 216
3 219 208 209
3 205 217 209
3 217 219 209
3 217 220 219
3 212 220 213
3 220 218 213
3 220 217 218
3 213 218 207
3 219 214 208
3 214 219 215
3 215 219 220
3 215 220 212
