ply
format ascii 1.0
comment None
element vertex 680
property float x
property float y
property float z
element face 1360
property list uchar int vertex_indices
end_header
34.273 54.770 47.768
34.288 54.829 47.759
34.249 54.708 47.766
34.276 54.777 47.763
34.338 54.959 47.768
34.343 55.007 47.764
34.374 55.033 47.750
34.416 55.205 47.767
34.445 55.334 47.752
34.503 55.403 47.742
34.569 55.675 47.746
34.078 67.494 45.018
33.998 67.541 44.476
34.103 67.040 44.831
34.201 67.091 45.277
34.043 68.106 44.811
33.918 68.161 44.226
34.395 67.763 45.499
34.011 68.993 44.348
33.846 69.207 43.462
33.881 68.510 43.738
34.297 68.731 45.068
34.254 69.298 44.830
33.869 70.368 42.325
34.022 70.636 41.780
33.951 69.982 41.898
33.826 69.794 42.322
34.017 69.936 43.792
33.831 69.879 43.158
34.411 69.958 44.586
34.001 70.946 42.298
34.149 71.313 41.889
33.803 70.046 42.711
34.059 70.733 43.063
34.357 70.699 43.966
34.528 71.290 43.635
34.257 71.509 42.465
34.441 71.551 43.080
34.294 54.835 47.750
34.365 55.081 47.735
34.472 55.389 47.680
34.371 55.061 47.717
34.416 55.177 47.712
34.349 54.995 47.749
34.505 55.558 47.703
34.677 56.055 47.578
34.377 55.116 47.745
34.453 55.267 47.719
34.607 55.620 47.678
34.792 56.774 47.595
34.981 57.087 47.341
34.732 56.385 47.717
34.828 56.317 47.662
34.981 57.998 47.419
35.311 58.281 46.807
34.960 57.737 47.698
35.113 57.525 47.689
34.952 59.193 47.236
35.093 59.407 46.498
34.995 58.979 47.702
35.225 58.737 47.805
34.710 60.374 47.096
34.859 60.176 46.284
34.858 60.143 47.730
35.173 59.900 47.949
34.590 61.127 46.501
34.820 61.273 45.529
34.940 60.480 45.730
34.485 61.401 47.356
34.656 61.197 47.814
35.015 60.981 48.087
34.496 62.254 46.259
34.719 62.109 45.349
34.427 62.137 47.179
34.532 62.087 47.835
34.844 61.921 48.165
34.593 63.140 45.593
34.874 63.458 44.614
34.894 62.523 44.796
34.468 63.254 46.506
34.441 62.906 47.022
34.608 62.978 47.688
34.751 62.603 48.119
34.594 64.428 45.287
34.813 64.373 44.403
34.542 64.132 46.289
34.646 63.857 47.136
35.059 63.823 47.698
34.986 63.132 48.033
34.609 65.359 44.472
34.899 65.353 43.645
34.957 64.777 43.856
34.472 65.463 45.405
34.552 65.153 46.103
34.745 64.950 46.820
35.112 64.775 47.336
34.636 66.084 43.671
35.027 66.243 42.714
34.978 65.647 43.248
34.413 66.139 44.357
34.319 66.344 45.059
34.491 66.057 45.936
34.733 65.851 46.578
35.141 65.786 47.031
34.449 67.106 43.082
34.819 67.160 42.282
34.230 66.836 44.174
34.414 66.863 45.763
34.716 66.636 46.394
34.964 66.378 46.771
34.445 68.010 42.207
34.834 68.118 41.437
34.947 67.601 41.711
34.177 67.820 42.958
34.029 67.757 43.659
34.665 67.256 46.093
35.007 67.131 46.466
34.988 66.746 46.679
34.549 68.771 41.398
34.915 69.055 40.661
34.908 68.436 41.079
34.067 69.190 42.067
33.974 68.534 42.961
34.550 69.410 45.094
34.911 68.723 45.499
35.005 67.784 46.029
34.315 69.960 41.172
34.698 69.985 40.304
33.816 69.429 42.760
34.710 69.879 44.996
35.009 69.651 45.199
34.618 71.395 39.283
34.834 71.264 38.561
34.991 70.705 38.960
34.867 70.403 39.624
34.470 70.978 40.308
34.258 71.168 41.246
34.638 71.121 44.049
34.771 70.804 44.367
35.018 70.305 44.826
34.622 72.372 37.463
34.929 71.994 36.717
34.951 71.691 37.315
34.917 71.506 37.881
34.571 72.134 38.477
34.470 72.309 39.251
34.477 72.071 39.960
34.433 71.878 40.748
34.533 72.104 41.688
34.700 72.047 42.683
34.872 71.804 43.366
35.012 71.384 43.976
34.609 73.329 35.501
34.817 73.576 34.673
34.879 72.844 34.974
34.878 72.445 35.760
34.547 73.039 36.534
34.414 73.270 37.357
34.451 73.127 38.076
34.504 73.047 38.926
34.528 72.840 39.660
34.733 72.889 40.579
35.002 72.907 41.507
35.146 72.593 42.289
35.152 72.217 42.989
34.619 74.104 35.230
34.885 74.261 34.601
34.507 73.983 36.089
34.452 73.930 37.004
34.437 73.825 37.730
34.651 73.999 38.497
34.825 73.658 39.569
35.174 73.676 40.332
35.374 73.412 41.078
34.837 74.629 35.035
34.740 74.658 35.728
35.130 75.008 35.307
34.704 74.654 36.645
34.688 74.573 37.646
34.959 74.758 38.328
35.294 74.494 39.014
35.392 74.094 39.824
35.273 75.195 36.142
35.147 75.155 37.173
35.102 75.098 37.891
34.550 55.539 47.635
34.841 56.296 47.476
34.622 55.655 47.627
35.296 57.337 47.163
34.930 56.405 47.511
35.715 58.440 46.343
35.974 58.619 46.151
35.790 58.183 46.627
35.712 57.918 47.024
35.858 58.383 47.177
35.353 57.466 47.418
35.659 58.955 45.998
36.287 59.212 45.717
35.548 58.500 47.587
35.983 59.207 47.346
35.861 59.541 45.204
36.077 59.925 44.572
36.346 59.621 44.898
35.281 59.748 45.701
35.591 59.573 47.787
36.028 60.171 47.535
35.458 60.435 44.860
36.080 60.481 44.081
35.519 60.647 47.984
35.998 61.202 47.705
35.701 61.208 44.013
36.130 61.752 43.360
36.111 60.976 43.679
35.122 61.610 44.685
35.372 61.670 48.129
35.871 62.265 47.821
35.411 62.540 43.893
35.933 62.723 43.112
35.192 62.566 48.160
35.631 63.364 47.795
35.658 63.528 43.140
36.080 63.969 42.449
36.032 63.225 42.791
35.164 63.915 43.797
35.662 64.514 47.480
35.374 64.924 42.988
35.942 64.991 42.163
35.609 65.453 47.257
35.686 65.900 41.999
36.126 65.993 41.417
36.151 65.426 41.690
35.601 66.101 47.077
35.883 65.883 47.102
36.007 66.419 46.780
35.845 66.711 41.291
36.198 67.139 40.648
36.328 66.347 40.984
35.288 66.915 41.809
35.363 66.690 46.792
35.814 67.124 46.542
35.397 67.873 40.963
36.073 68.036 40.203
35.460 67.456 46.392
35.857 67.552 46.287
35.780 68.185 45.843
35.595 68.854 40.013
36.133 68.960 39.430
36.077 68.547 39.845
35.586 69.307 45.320
35.864 70.242 38.113
36.052 70.450 37.467
36.443 69.958 37.790
36.390 69.429 38.642
35.517 69.861 39.122
35.099 69.616 39.922
35.433 70.000 45.045
35.467 71.054 37.269
35.923 70.896 36.492
35.980 70.673 37.070
35.252 70.741 38.307
35.583 70.493 44.701
35.334 70.947 44.398
35.609 72.140 34.023
36.012 71.956 33.483
35.914 71.677 33.912
35.872 71.507 34.497
35.326 72.062 34.967
35.865 71.231 35.488
35.373 71.578 36.095
35.502 71.345 44.052
35.507 71.809 43.517
35.743 72.882 33.412
36.474 73.145 32.770
36.283 72.320 33.000
35.199 72.902 34.248
35.414 73.085 41.779
35.776 72.772 42.279
35.576 72.373 42.847
35.889 73.737 33.112
35.355 73.964 33.855
35.983 74.452 33.200
35.853 73.552 41.100
35.813 73.831 40.499
35.863 73.246 41.593
35.784 74.789 33.719
36.327 75.026 33.354
35.366 74.826 34.495
36.086 74.831 38.690
35.460 75.080 38.341
36.128 74.277 39.576
36.323 75.295 34.058
35.895 75.342 35.228
35.890 75.462 36.033
35.925 75.438 36.770
35.631 75.338 37.678
36.182 58.690 46.371
36.015 58.376 46.785
36.421 59.216 46.363
36.208 58.893 46.822
36.579 60.155 44.319
36.739 59.864 45.132
36.694 59.902 46.124
37.088 60.434 45.500
36.371 59.644 46.892
36.535 60.878 43.625
36.998 61.156 43.516
36.952 60.685 43.948
36.951 60.787 46.343
37.257 61.006 45.825
36.498 60.555 47.005
36.765 61.703 43.084
37.146 62.468 42.563
37.210 61.705 43.234
37.120 61.424 46.356
37.050 62.216 46.534
36.609 61.623 47.087
36.466 62.782 42.615
36.925 63.081 42.070
36.443 62.828 47.267
36.985 63.289 46.562
36.690 63.724 41.878
37.092 63.835 41.443
37.002 63.428 41.748
36.343 64.005 47.186
36.941 64.435 46.463
36.857 64.488 41.318
37.206 65.017 40.756
37.172 64.311 41.107
36.387 64.681 41.758
36.275 65.332 46.951
36.936 65.351 46.314
36.567 65.475 41.176
36.858 66.323 40.449
36.667 66.176 46.351
37.185 65.782 45.862
37.076 66.632 45.699
36.657 67.435 40.055
36.366 67.243 46.127
36.956 67.419 45.555
36.510 68.235 39.698
37.023 68.022 39.378
36.895 67.710 39.699
36.651 68.045 45.509
37.090 67.788 45.263
37.176 68.362 44.864
36.701 68.677 39.175
37.038 68.767 38.684
37.083 68.383 39.060
36.430 69.036 45.118
37.032 69.233 44.598
36.394 70.352 36.986
36.920 70.011 36.538
36.856 69.811 37.334
36.961 69.343 37.997
36.668 69.886 44.495
37.138 69.651 44.271
37.112 70.294 43.800
35.984 69.989 44.848
36.386 71.214 33.876
36.830 71.052 33.277
36.969 70.672 33.690
36.905 70.492 34.470
36.377 70.877 34.961
36.907 70.264 35.512
36.408 70.607 36.009
36.110 70.944 44.063
36.802 71.234 43.349
36.542 71.621 33.119
37.017 72.038 32.675
37.073 71.252 32.891
36.264 72.040 42.941
36.948 71.702 42.800
36.799 72.231 42.368
37.347 72.884 32.509
36.431 73.316 41.157
37.014 72.893 41.224
37.030 73.215 40.718
36.365 72.771 42.030
36.941 72.592 41.730
36.371 74.060 32.812
37.205 73.954 32.594
36.552 73.770 40.312
37.018 73.570 40.213
36.961 73.869 39.727
36.711 74.736 32.902
37.568 75.017 32.726
36.408 75.318 37.444
37.396 74.983 37.066
36.749 75.383 36.725
36.041 75.217 38.093
36.786 74.924 38.035
37.021 74.319 38.848
37.159 75.398 33.290
37.049 75.523 33.953
37.015 75.492 34.726
36.631 75.473 35.903
37.073 60.479 44.616
37.357 61.332 44.054
37.356 61.042 45.102
37.622 62.333 43.251
37.670 62.170 44.195
37.543 61.853 44.960
37.366 61.633 45.779
37.291 63.261 41.781
37.670 63.470 41.627
37.621 62.940 42.280
37.904 63.017 42.785
37.893 62.799 43.298
37.867 62.910 43.928
37.684 62.790 44.889
37.410 62.541 45.774
37.515 64.064 41.097
37.937 64.358 40.818
37.881 63.907 41.285
38.025 63.244 43.346
38.022 63.559 43.907
38.056 64.081 44.074
37.824 63.901 44.711
37.433 63.626 45.714
37.798 64.878 40.416
38.244 65.560 39.773
38.173 64.869 40.413
37.973 64.764 44.423
38.140 64.434 43.799
38.140 64.955 43.876
37.757 64.813 44.987
37.431 64.825 45.632
37.615 65.799 40.033
38.116 66.216 39.461
38.007 65.463 44.302
37.949 66.275 44.326
37.640 65.738 45.061
37.379 67.016 39.643
38.235 66.706 39.305
37.479 67.183 44.950
37.951 67.090 44.212
37.546 67.871 38.911
37.907 67.929 38.329
38.131 67.313 38.721
37.776 67.933 44.276
38.155 67.453 43.753
38.139 68.291 43.563
37.444 69.217 37.167
37.815 69.079 36.408
38.030 68.609 36.969
37.976 68.290 37.689
37.490 68.612 38.149
37.578 69.130 44.024
38.110 69.148 43.311
37.828 69.980 33.290
38.076 70.161 32.902
38.228 69.653 33.169
38.083 69.507 33.677
37.487 70.063 33.927
37.972 69.359 34.534
37.419 69.855 34.998
37.898 69.203 35.557
37.404 69.640 36.046
37.831 70.060 43.150
38.288 69.597 42.803
38.202 70.220 42.533
37.404 70.589 33.158
37.813 71.051 32.666
37.856 71.005 42.321
38.245 70.556 42.171
38.188 71.098 41.677
37.355 71.032 42.973
37.979 72.040 32.482
37.586 72.217 41.312
38.121 71.693 41.142
38.062 72.217 40.583
37.290 71.822 42.262
38.292 73.162 32.565
37.537 73.121 40.161
38.024 72.699 40.034
38.001 73.074 39.557
37.991 74.297 32.594
37.562 73.661 39.323
37.969 73.434 39.102
37.878 73.773 38.688
38.234 74.931 32.729
37.602 75.311 35.452
38.249 75.096 35.103
37.848 75.376 34.699
37.359 75.255 36.253
38.252 74.787 36.003
38.239 74.435 36.949
37.797 74.316 37.866
37.746 75.587 32.858
38.018 75.510 32.743
37.954 75.625 33.117
37.722 75.497 33.922
37.981 75.740 32.811
37.970 63.587 41.976
38.230 64.488 41.213
38.215 64.189 42.191
38.111 63.688 42.787
38.133 63.890 43.494
38.541 65.482 40.194
38.530 65.258 41.198
38.396 64.925 42.050
38.243 64.614 43.086
38.567 66.204 39.066
38.870 66.382 38.774
38.720 65.983 39.323
38.793 66.222 39.503
38.640 66.124 39.792
38.729 65.989 40.802
38.595 65.759 41.892
38.400 65.598 42.826
38.193 65.564 43.681
38.741 66.848 38.331
39.041 67.147 37.907
39.054 66.736 38.443
38.545 66.636 38.994
38.515 66.291 39.294
38.808 66.440 39.938
38.937 66.593 40.899
39.048 67.222 41.307
38.780 66.695 41.829
38.539 66.371 42.632
38.267 66.532 43.521
38.918 68.012 36.143
39.126 68.067 35.248
39.631 67.744 35.850
39.337 67.549 37.220
38.594 67.785 37.315
38.332 67.454 38.200
38.842 67.784 42.114
39.108 68.116 41.461
38.496 67.391 42.933
38.600 69.164 33.430
38.667 69.573 32.990
39.192 68.905 33.350
39.005 68.643 33.798
38.523 68.910 34.114
39.058 68.331 34.469
38.529 68.615 35.152
38.294 68.555 36.246
38.858 68.718 42.025
39.048 69.154 41.429
38.512 68.683 42.743
38.656 70.266 32.714
38.571 69.916 42.006
38.916 70.103 41.208
38.691 71.141 32.564
38.545 71.160 40.965
38.996 70.609 40.667
38.858 71.311 40.280
38.859 71.995 32.573
38.463 72.220 39.923
38.932 71.715 39.729
38.793 72.310 39.299
39.288 72.533 32.892
39.020 73.321 32.856
39.451 73.094 33.224
38.419 73.031 38.963
38.905 72.579 38.791
38.824 73.008 38.360
38.678 74.098 32.829
39.226 73.647 33.191
38.857 74.087 36.455
39.335 73.739 35.980
39.012 74.227 35.678
38.651 73.857 37.315
39.263 73.444 36.802
38.455 73.560 38.136
39.037 73.198 37.698
38.672 74.777 32.998
38.350 75.349 32.983
38.763 74.919 33.361
38.798 74.645 35.019
38.401 75.141 34.375
38.107 75.688 32.838
38.416 75.273 33.590
40.000 66.000 37.000
40.000 66.000 37.000
40.000 66.000 37.000
40.000 66.000 37.000
39.091 66.554 39.043
40.000 66.000 37.000
39.362 67.153 38.419
39.387 67.142 39.282
39.170 66.852 39.855
39.091 66.868 40.558
39.693 68.161 34.028
40.270 68.105 33.806
40.437 67.677 34.245
40.098 67.667 34.884
39.523 67.914 34.842
40.398 67.776 35.838
39.954 67.787 36.980
39.746 67.692 38.057
39.917 68.134 38.622
39.654 67.816 39.102
39.444 67.716 39.977
39.247 67.496 40.700
39.315 69.506 32.990
39.864 68.721 33.435
39.862 68.494 39.184
39.890 69.104 39.316
39.616 68.844 39.900
39.330 68.471 40.760
39.405 70.346 32.833
40.029 69.504 33.256
39.732 69.926 39.506
40.032 69.575 38.929
40.022 70.392 38.706
39.498 69.794 40.084
39.270 69.670 40.649
39.436 71.260 32.791
40.165 70.568 33.334
39.663 71.020 39.051
39.969 71.178 38.404
39.285 70.752 39.943
39.405 71.870 32.784
39.911 71.715 33.279
39.697 71.874 38.252
40.088 71.562 37.857
40.003 72.053 37.467
39.222 71.855 39.077
39.626 73.394 33.948
39.845 72.553 33.588
39.909 73.088 34.981
40.155 72.562 34.502
39.761 73.098 36.032
40.234 72.491 35.555
39.620 72.672 37.323
40.119 72.345 36.619
39.232 72.554 38.262
39.104 74.247 33.439
39.357 74.045 34.066
39.424 73.861 34.954
38.970 74.625 34.079
40.000 66.000 37.000
40.778 67.371 34.779
41.002 67.156 34.545
41.026 67.094 34.627
41.035 67.290 34.755
40.646 67.888 33.976
40.914 67.582 34.364
40.949 67.825 35.254
40.777 68.439 36.196
40.391 68.278 36.993
40.096 68.179 37.886
40.525 68.566 33.743
40.835 68.068 34.066
41.190 68.911 35.133
41.089 68.667 35.596
41.128 68.271 35.004
40.967 69.329 36.299
40.626 69.107 37.087
40.332 68.771 37.786
40.089 68.810 38.615
40.652 69.578 33.777
41.183 69.481 35.656
41.083 70.021 36.162
41.040 70.580 36.153
40.759 70.268 36.902
40.334 69.683 38.050
40.755 70.414 33.934
40.591 71.213 34.068
40.968 70.700 34.399
40.794 71.217 36.208
41.094 70.832 35.693
40.985 71.176 35.355
40.595 71.049 37.048
40.325 70.862 37.790
40.290 71.982 34.054
40.935 71.143 34.762
40.623 71.762 35.068
40.478 71.936 36.125
40.374 71.626 37.065
41.069 67.207 34.562
41.079 67.683 34.697
41.017 68.634 34.426
41.031 69.938 34.393
41.197 69.645 35.033
41.189 70.243 35.635
41.133 70.581 35.028
3 2 1 0
3 0 3 2
3 0 1 4
3 4 1 5
3 3 0 6
3 6 0 4
3 4 5 7
3 7 5 8
3 6 4 9
3 9 4 7
3 8 10 7
3 7 10 9
3 13 12 11
3 11 14 13
3 11 12 15
3 15 12 16
3 14 11 17
3 17 11 15
3 20 19 18
3 22 21 18
3 21 15 18
3 16 20 18
3 16 18 15
3 15 21 17
3 25 24 23
3 23 26 25
3 18 19 27
3 27 19 28
3 22 18 29
3 29 18 27
3 23 24 30
3 30 24 31
3 26 23 32
3 23 33 32
3 23 30 33
3 35 34 33
3 34 27 33
3 28 32 33
3 28 33 27
3 27 34 29
3 31 36 30
3 30 36 33
3 33 36 37
3 33 37 35
3 38 1 2
3 3 38 2
3 41 40 39
3 1 39 5
3 39 1 41
3 38 41 1
3 41 38 42
3 43 42 38
3 6 43 3
3 3 43 38
3 39 40 44
3 44 40 45
3 5 46 8
3 46 43 8
3 47 8 43
3 8 47 44
3 42 44 47
3 44 42 46
3 46 39 44
3 5 39 46
3 46 42 43
3 43 6 47
3 6 48 47
3 6 9 48
3 44 45 49
3 49 45 50
3 51 10 8
3 44 51 8
3 49 51 44
3 51 52 10
3 52 9 10
3 52 48 9
3 49 50 53
3 53 50 54
3 49 55 51
3 49 53 55
3 52 51 56
3 56 51 55
3 53 54 57
3 57 54 58
3 53 59 55
3 53 57 59
3 56 55 60
3 60 55 59
3 57 58 61
3 61 58 62
3 57 63 59
3 57 61 63
3 60 59 64
3 64 59 63
3 67 66 65
3 67 65 62
3 65 61 62
3 65 68 61
3 61 69 63
3 61 68 69
3 64 63 70
3 70 63 69
3 65 66 71
3 71 66 72
3 65 73 68
3 65 71 73
3 68 74 69
3 68 73 74
3 70 69 75
3 75 69 74
3 78 77 76
3 78 76 72
3 76 71 72
3 76 79 71
3 71 80 73
3 71 79 80
3 73 81 74
3 73 80 81
3 75 74 82
3 82 74 81
3 76 77 83
3 83 77 84
3 76 85 79
3 76 83 85
3 79 86 80
3 79 85 86
3 88 81 87
3 81 86 87
3 81 80 86
3 81 88 82
3 91 90 89
3 91 89 84
3 89 83 84
3 89 92 83
3 83 93 85
3 83 92 93
3 85 94 86
3 85 93 94
3 87 86 95
3 95 86 94
3 98 97 96
3 98 96 90
3 96 89 90
3 96 99 89
3 89 100 92
3 89 99 100
3 92 101 93
3 92 100 101
3 93 102 94
3 93 101 102
3 95 94 103
3 103 94 102
3 96 97 104
3 104 97 105
3 96 106 99
3 96 104 106
3 106 12 13
3 100 106 13
3 99 106 100
3 100 13 14
3 107 100 14
3 101 100 107
3 101 108 102
3 101 107 108
3 103 102 109
3 109 102 108
3 112 111 110
3 112 110 105
3 110 104 105
3 110 113 104
3 104 114 106
3 104 113 114
3 114 16 12
3 114 12 106
3 17 115 107
3 17 107 14
3 117 108 116
3 108 115 116
3 108 107 115
3 108 117 109
3 120 119 118
3 120 118 111
3 118 110 111
3 118 121 110
3 110 122 113
3 110 121 122
3 122 19 20
3 114 122 20
3 113 122 114
3 16 114 20
3 21 22 123
3 123 124 21
3 21 124 17
3 124 125 17
3 125 115 17
3 115 125 116
3 118 119 126
3 126 119 127
3 126 24 25
3 121 126 25
3 118 126 121
3 121 25 26
3 128 121 26
3 122 121 128
3 128 28 19
3 128 19 122
3 29 129 123
3 29 123 22
3 124 123 130
3 130 123 129
3 133 132 131
3 135 134 131
3 131 134 133
3 134 135 127
3 135 126 127
3 135 136 126
3 136 31 24
3 136 24 126
3 32 128 26
3 28 128 32
3 34 35 137
3 137 138 34
3 34 138 29
3 138 139 29
3 139 129 29
3 129 139 130
3 142 141 140
3 144 143 140
3 140 143 142
3 143 144 132
3 144 131 132
3 144 145 131
3 131 146 135
3 131 145 146
3 135 147 136
3 135 146 147
3 148 36 31
3 136 148 31
3 147 148 136
3 149 37 36
3 149 36 148
3 149 150 37
3 37 150 35
3 150 151 35
3 151 137 35
3 137 151 138
3 154 153 152
3 156 155 152
3 152 155 154
3 155 156 141
3 156 140 141
3 156 157 140
3 140 158 144
3 140 157 158
3 144 159 145
3 144 158 159
3 145 160 146
3 145 159 160
3 146 161 147
3 146 160 161
3 163 148 162
3 148 161 162
3 148 147 161
3 148 163 149
3 149 163 164
3 149 164 150
3 152 153 165
3 165 153 166
3 152 167 156
3 152 165 167
3 156 168 157
3 156 167 168
3 157 169 158
3 157 168 169
3 158 170 159
3 158 169 170
3 159 171 160
3 159 170 171
3 173 161 172
3 161 171 172
3 161 160 171
3 161 173 162
3 166 174 165
3 176 175 174
3 175 165 174
3 175 167 165
3 167 177 168
3 167 175 177
3 168 178 169
3 168 177 178
3 180 170 179
3 170 178 179
3 170 169 178
3 170 180 171
3 171 180 181
3 171 181 172
3 176 182 175
3 175 182 177
3 177 182 183
3 177 183 178
3 178 183 184
3 178 184 179
3 185 40 41
3 42 185 41
3 186 45 185
3 185 45 40
3 47 187 42
3 187 185 42
3 187 186 185
3 48 187 47
3 188 50 186
3 186 50 45
3 189 186 187
3 188 186 189
3 52 189 48
3 48 189 187
3 192 191 190
3 193 192 188
3 192 54 188
3 54 50 188
3 192 190 54
3 195 194 193
3 188 195 193
3 189 195 188
3 56 195 52
3 52 195 189
3 190 191 196
3 196 191 197
3 196 58 54
3 196 54 190
3 194 195 198
3 194 198 199
3 60 198 56
3 56 198 195
3 202 201 200
3 202 200 197
3 200 196 197
3 200 203 196
3 203 62 58
3 203 58 196
3 199 198 204
3 199 204 205
3 64 204 60
3 60 204 198
3 200 201 206
3 206 201 207
3 206 66 67
3 203 206 67
3 200 206 203
3 203 67 62
3 205 204 208
3 205 208 209
3 70 208 64
3 64 208 204
3 212 211 210
3 212 210 207
3 210 206 207
3 210 213 206
3 213 72 66
3 213 66 206
3 209 208 214
3 209 214 215
3 75 214 70
3 70 214 208
3 210 211 216
3 216 211 217
3 216 77 78
3 213 216 78
3 210 216 213
3 213 78 72
3 215 214 218
3 215 218 219
3 82 218 75
3 75 218 214
3 222 221 220
3 222 220 217
3 220 216 217
3 220 223 216
3 223 84 77
3 223 77 216
3 219 218 88
3 87 219 88
3 224 219 87
3 88 218 82
3 220 221 225
3 225 221 226
3 225 90 91
3 223 225 91
3 220 225 223
3 223 91 84
3 95 224 87
3 95 227 224
3 230 229 228
3 230 228 226
3 226 228 225
3 228 97 225
3 97 98 225
3 225 98 90
3 233 232 231
3 232 227 231
3 227 103 231
3 227 95 103
3 236 235 234
3 236 234 229
3 234 228 229
3 234 237 228
3 237 105 97
3 237 97 228
3 233 231 238
3 233 238 239
3 109 238 103
3 103 238 231
3 234 235 240
3 240 235 241
3 240 111 112
3 237 240 112
3 234 240 237
3 237 112 105
3 244 243 242
3 242 243 239
3 242 239 238
3 116 242 238
3 117 116 238
3 117 238 109
3 247 246 245
3 247 245 241
3 241 245 240
3 245 119 240
3 119 120 240
3 240 120 111
3 244 242 125
3 124 244 125
3 248 244 124
3 125 242 116
3 251 250 249
3 253 252 249
3 249 252 251
3 252 253 246
3 253 245 246
3 253 254 245
3 254 127 119
3 254 119 245
3 130 248 124
3 130 255 248
3 258 257 256
3 258 256 250
3 256 249 250
3 256 259 249
3 259 132 133
3 253 259 133
3 249 259 253
3 253 133 134
3 253 134 254
3 254 134 127
3 261 260 139
3 261 139 138
3 130 139 255
3 255 139 260
3 264 263 262
3 266 265 262
3 262 265 264
3 268 267 266
3 266 267 265
3 267 268 257
3 257 268 256
3 268 141 256
3 141 142 256
3 256 142 143
3 256 143 259
3 259 143 132
3 270 269 151
3 270 151 150
3 138 151 261
3 261 151 269
3 273 272 271
3 273 271 263
3 271 262 263
3 271 274 262
3 274 153 154
3 266 274 154
3 262 274 266
3 266 154 155
3 266 155 268
3 268 155 141
3 162 275 163
3 163 275 276
3 277 163 276
3 164 163 277
3 150 164 270
3 270 164 277
3 272 278 271
3 280 279 278
3 279 271 278
3 279 274 271
3 279 166 153
3 279 153 274
3 282 281 173
3 282 173 172
3 162 173 275
3 173 283 275
3 173 281 283
3 275 283 276
3 279 280 284
3 284 280 285
3 286 174 166
3 279 286 166
3 284 286 279
3 286 176 174
3 288 287 180
3 288 180 179
3 180 289 181
3 287 289 180
3 172 181 282
3 282 181 289
3 285 290 284
3 284 290 286
3 286 290 291
3 286 291 176
3 291 182 176
3 291 292 182
3 182 293 183
3 292 293 182
3 183 294 184
3 293 294 183
3 179 184 288
3 288 184 294
3 295 191 192
3 193 296 192
3 192 296 295
3 194 296 193
3 297 197 295
3 295 197 191
3 298 295 296
3 297 295 298
3 199 298 194
3 194 298 296
3 300 299 202
3 202 299 201
3 300 202 197
3 301 300 197
3 297 301 197
3 300 301 302
3 303 297 298
3 301 297 303
3 205 303 199
3 199 303 298
3 306 305 304
3 299 306 304
3 207 299 304
3 201 299 207
3 302 301 307
3 302 307 308
3 309 301 303
3 307 301 309
3 209 309 205
3 205 309 303
3 312 311 310
3 312 310 305
3 305 310 304
3 310 211 304
3 211 212 304
3 304 212 207
3 313 308 307
3 315 314 313
3 307 315 313
3 309 315 307
3 215 315 209
3 209 315 309
3 310 311 316
3 316 311 317
3 316 217 211
3 316 211 310
3 314 315 318
3 314 318 319
3 219 318 215
3 215 318 315
3 322 321 320
3 322 320 317
3 317 320 316
3 320 221 316
3 221 222 316
3 316 222 217
3 319 318 323
3 319 323 324
3 224 323 219
3 219 323 318
3 327 326 325
3 327 325 321
3 325 320 321
3 325 328 320
3 328 226 221
3 328 221 320
3 324 323 329
3 324 329 330
3 227 329 224
3 224 329 323
3 325 326 331
3 331 326 332
3 331 229 230
3 328 331 230
3 325 331 328
3 328 230 226
3 335 334 333
3 333 334 330
3 333 330 329
3 233 333 329
3 232 233 329
3 232 329 227
3 331 332 236
3 332 235 236
3 332 336 235
3 331 236 229
3 335 333 337
3 335 337 338
3 239 337 233
3 233 337 333
3 341 340 339
3 336 341 339
3 241 336 339
3 235 336 241
3 344 343 342
3 342 343 338
3 342 338 337
3 244 342 337
3 243 244 337
3 243 337 239
3 347 346 345
3 347 345 340
3 340 345 339
3 345 246 339
3 246 247 339
3 339 247 241
3 344 342 348
3 344 348 349
3 248 348 244
3 244 348 342
3 352 351 350
3 250 251 350
3 251 352 350
3 251 353 352
3 252 345 346
3 353 252 346
3 251 252 353
3 345 252 246
3 356 355 354
3 354 355 349
3 348 354 349
3 357 354 348
3 255 357 248
3 248 357 348
3 360 359 358
3 362 361 358
3 358 361 360
3 364 363 362
3 362 363 361
3 363 364 351
3 351 364 350
3 364 257 350
3 257 258 350
3 350 258 250
3 356 354 365
3 356 365 366
3 261 365 260
3 365 357 260
3 365 354 357
3 260 357 255
3 369 368 367
3 369 367 359
3 359 367 358
3 367 263 358
3 263 264 358
3 358 264 265
3 358 265 362
3 362 265 267
3 362 267 364
3 364 267 257
3 372 371 370
3 370 371 366
3 370 366 365
3 270 370 365
3 269 270 365
3 269 365 261
3 367 368 273
3 368 272 273
3 368 373 272
3 367 273 263
3 376 375 374
3 378 377 374
3 378 374 375
3 377 378 372
3 377 372 370
3 276 377 370
3 277 276 370
3 277 370 270
3 278 272 379
3 272 380 379
3 272 373 380
3 379 280 278
3 383 382 381
3 381 382 376
3 381 376 374
3 282 381 374
3 281 282 374
3 281 374 283
3 283 374 377
3 283 377 276
3 379 380 384
3 384 380 385
3 384 285 280
3 384 280 379
3 388 387 386
3 390 389 386
3 390 386 387
3 287 288 389
3 390 287 389
3 391 287 390
3 381 289 383
3 289 391 383
3 289 287 391
3 289 381 282
3 385 392 384
3 384 392 285
3 392 290 285
3 392 393 290
3 290 394 291
3 393 394 290
3 291 395 292
3 394 395 291
3 386 293 388
3 293 395 388
3 293 292 395
3 293 386 294
3 294 386 389
3 294 389 288
3 396 299 300
3 302 396 300
3 397 305 306
3 299 396 306
3 396 397 306
3 396 398 397
3 308 398 302
3 302 398 396
3 399 311 312
3 305 397 312
3 397 399 312
3 397 400 399
3 401 397 398
3 400 397 401
3 313 402 308
3 402 398 308
3 402 401 398
3 314 402 313
3 405 404 403
3 311 403 317
3 403 311 405
3 399 405 311
3 405 399 406
3 407 406 399
3 408 399 400
3 407 399 408
3 409 400 401
3 408 400 409
3 410 401 402
3 409 401 410
3 319 410 314
3 314 410 402
3 413 412 411
3 413 411 404
3 404 411 403
3 411 321 403
3 321 322 403
3 407 414 406
3 317 403 322
3 414 407 408
3 414 408 415
3 417 416 415
3 408 417 415
3 409 417 408
3 418 409 410
3 417 409 418
3 324 418 319
3 319 418 410
3 421 420 419
3 421 419 412
3 412 419 411
3 419 326 411
3 326 327 411
3 411 327 321
3 424 423 422
3 422 423 416
3 417 422 416
3 425 422 417
3 426 417 418
3 425 417 426
3 330 426 324
3 324 426 418
3 419 420 427
3 427 420 428
3 427 332 326
3 427 326 419
3 429 424 422
3 431 430 429
3 422 431 429
3 425 431 422
3 335 431 334
3 431 426 334
3 431 425 426
3 334 426 330
3 427 428 432
3 432 428 433
3 432 336 332
3 432 332 427
3 430 431 434
3 430 434 435
3 338 434 335
3 335 434 431
3 438 437 436
3 438 436 433
3 433 436 432
3 436 340 432
3 340 341 432
3 432 341 336
3 441 440 439
3 439 440 435
3 439 435 434
3 344 439 434
3 343 344 434
3 343 434 338
3 444 443 442
3 446 445 442
3 442 445 444
3 445 446 437
3 437 446 436
3 446 346 436
3 346 347 436
3 436 347 340
3 441 439 447
3 441 447 448
3 349 447 344
3 344 447 439
3 451 450 449
3 453 452 449
3 449 452 451
3 455 454 453
3 453 454 452
3 457 456 455
3 455 456 454
3 456 457 443
3 443 457 442
3 457 351 442
3 351 352 442
3 442 352 353
3 442 353 446
3 446 353 346
3 460 459 458
3 458 459 448
3 458 448 447
3 356 458 447
3 355 356 447
3 355 447 349
3 449 450 461
3 461 450 462
3 461 359 360
3 453 461 360
3 449 461 453
3 453 360 361
3 453 361 455
3 455 361 363
3 455 363 457
3 457 363 351
3 465 464 463
3 463 464 460
3 458 463 460
3 466 463 458
3 366 466 356
3 356 466 458
3 461 462 369
3 462 368 369
3 462 467 368
3 461 369 359
3 470 469 468
3 468 469 465
3 463 468 465
3 471 468 463
3 372 471 371
3 471 466 371
3 471 463 466
3 371 466 366
3 467 373 368
3 472 373 467
3 475 474 473
3 473 474 470
3 473 470 468
3 376 473 468
3 375 376 468
3 375 468 378
3 378 468 471
3 378 471 372
3 472 380 373
3 476 380 472
3 479 478 477
3 477 478 475
3 477 475 473
3 383 477 473
3 382 383 473
3 382 473 376
3 476 385 380
3 480 385 476
3 483 482 481
3 485 484 481
3 485 481 482
3 387 388 484
3 485 387 484
3 486 387 485
3 387 487 390
3 486 487 387
3 477 391 479
3 391 487 479
3 391 390 487
3 391 477 383
3 392 385 488
3 385 489 488
3 385 480 489
3 392 488 490
3 491 392 490
3 393 392 491
3 481 394 483
3 394 491 483
3 394 393 491
3 394 481 395
3 395 481 484
3 395 484 388
3 489 492 488
3 488 492 490
3 493 404 405
3 406 493 405
3 494 412 413
3 404 493 413
3 493 494 413
3 493 495 494
3 414 496 406
3 496 493 406
3 496 495 493
3 415 497 414
3 414 497 496
3 416 497 415
3 498 420 421
3 412 494 421
3 494 498 421
3 494 499 498
3 500 494 495
3 499 494 500
3 501 495 496
3 500 495 501
3 424 501 423
3 501 497 423
3 501 496 497
3 423 497 416
3 504 503 502
3 420 502 428
3 502 420 504
3 498 504 420
3 504 498 505
3 506 505 498
3 507 498 499
3 506 498 507
3 508 499 500
3 507 499 508
3 509 500 501
3 508 500 509
3 429 510 424
3 510 501 424
3 510 509 501
3 430 510 429
3 513 512 511
3 513 511 503
3 511 502 503
3 511 514 502
3 428 515 433
3 515 506 433
3 516 433 506
3 433 516 514
3 505 514 516
3 514 505 515
3 515 502 514
3 428 502 515
3 515 505 506
3 516 506 507
3 516 507 517
3 519 518 517
3 507 519 517
3 508 519 507
3 520 508 509
3 519 508 520
3 521 509 510
3 520 509 521
3 435 521 430
3 430 521 510
3 524 523 522
3 526 525 522
3 522 525 524
3 525 526 512
3 526 511 512
3 526 527 511
3 527 437 438
3 514 527 438
3 511 527 514
3 514 438 433
3 518 519 528
3 518 528 529
3 530 519 520
3 528 519 530
3 441 530 440
3 530 521 440
3 530 520 521
3 440 521 435
3 533 532 531
3 535 534 531
3 531 534 533
3 537 536 535
3 535 536 534
3 536 537 523
3 537 522 523
3 537 538 522
3 538 443 444
3 526 538 444
3 522 538 526
3 526 444 445
3 526 445 527
3 527 445 437
3 529 528 539
3 529 539 540
3 541 528 530
3 539 528 541
3 448 541 441
3 441 541 530
3 531 532 451
3 532 450 451
3 532 542 450
3 531 451 452
3 531 452 535
3 535 452 454
3 535 454 537
3 537 454 456
3 537 456 538
3 538 456 443
3 540 539 543
3 540 543 544
3 460 543 459
3 543 541 459
3 543 539 541
3 459 541 448
3 542 462 450
3 545 462 542
3 548 547 546
3 546 547 544
3 546 544 543
3 465 546 543
3 464 465 543
3 464 543 460
3 545 467 462
3 549 467 545
3 552 551 550
3 550 551 548
3 550 548 546
3 470 550 546
3 469 470 546
3 469 546 465
3 554 472 553
3 472 549 553
3 472 467 549
3 555 554 553
3 558 557 556
3 556 557 552
3 556 552 550
3 475 556 550
3 474 475 550
3 474 550 470
3 560 559 554
3 559 472 554
3 559 476 472
3 560 554 555
3 563 562 561
3 565 564 561
3 565 561 562
3 567 566 564
3 567 564 565
3 566 567 558
3 566 558 556
3 479 566 556
3 478 479 556
3 478 556 475
3 569 480 568
3 480 559 568
3 480 476 559
3 570 569 568
3 572 571 482
3 572 482 483
3 561 485 563
3 485 571 563
3 485 482 571
3 485 561 486
3 486 561 564
3 486 564 487
3 487 564 566
3 487 566 479
3 573 489 569
3 569 489 480
3 574 491 490
3 569 574 490
3 573 569 490
3 574 569 570
3 483 491 572
3 572 491 574
3 573 492 489
3 492 573 490
3 577 576 575
3 575 578 577
3 579 503 504
3 505 579 504
3 576 580 575
3 581 512 513
3 580 578 575
3 503 579 513
3 579 581 513
3 579 582 581
3 516 583 505
3 583 579 505
3 583 582 579
3 517 584 516
3 516 584 583
3 518 584 517
3 587 586 585
3 589 588 585
3 585 588 587
3 523 524 589
3 524 588 589
3 524 590 588
3 591 524 525
3 591 590 524
3 525 512 581
3 592 525 581
3 591 525 592
3 594 593 592
3 581 594 592
3 582 594 581
3 595 582 583
3 594 582 595
3 596 583 584
3 595 583 596
3 529 596 518
3 518 596 584
3 597 532 533
3 586 598 585
3 598 533 585
3 533 534 585
3 533 598 597
3 585 534 536
3 585 536 589
3 589 536 523
3 599 593 594
3 601 600 599
3 594 601 599
3 595 601 594
3 602 595 596
3 601 595 602
3 540 602 529
3 529 602 596
3 603 542 597
3 597 542 532
3 597 598 604
3 597 604 603
3 607 606 605
3 605 606 600
3 601 605 600
3 608 605 601
3 609 601 602
3 608 601 609
3 544 609 540
3 540 609 602
3 610 545 603
3 603 545 542
3 603 604 611
3 603 611 610
3 607 605 612
3 607 612 613
3 614 605 608
3 612 605 614
3 548 614 547
3 614 609 547
3 614 608 609
3 547 609 544
3 615 549 610
3 610 549 545
3 610 611 616
3 610 616 615
3 619 618 617
3 617 618 613
3 612 617 613
3 620 617 612
3 552 620 551
3 620 614 551
3 620 612 614
3 551 614 548
3 615 553 549
3 622 621 555
3 622 555 553
3 616 622 553
3 615 616 553
3 624 623 621
3 624 621 622
3 626 625 623
3 626 623 624
3 628 627 625
3 628 625 626
3 627 628 619
3 617 627 619
3 629 627 617
3 558 629 557
3 629 620 557
3 629 617 620
3 557 620 552
3 630 559 560
3 555 621 560
3 621 630 560
3 621 631 630
3 632 621 623
3 631 621 632
3 563 632 562
3 632 625 562
3 632 623 625
3 562 625 565
3 565 625 627
3 565 627 567
3 567 627 629
3 567 629 558
3 630 568 559
3 568 630 570
3 630 633 570
3 630 631 633
3 572 633 571
3 633 632 571
3 633 631 632
3 571 632 563
3 633 574 570
3 574 633 572
3 634 576 577
3 578 634 577
3 637 636 635
3 635 638 637
3 634 580 576
3 580 634 578
3 639 586 587
3 636 640 635
3 640 587 635
3 587 588 635
3 587 640 639
3 588 590 635
3 590 641 635
3 641 638 635
3 590 642 641
3 591 643 590
3 590 643 642
3 592 644 591
3 591 644 643
3 593 644 592
3 646 645 639
3 645 586 639
3 645 598 586
3 649 648 647
3 640 646 639
3 648 649 641
3 642 648 641
3 650 648 642
3 651 642 643
3 650 642 651
3 652 643 644
3 651 643 652
3 599 653 593
3 653 644 593
3 653 652 644
3 600 653 599
3 645 604 598
3 654 604 645
3 655 647 648
3 655 648 650
3 655 650 656
3 658 657 656
3 650 658 656
3 651 658 650
3 659 651 652
3 658 651 659
3 607 659 606
3 659 653 606
3 659 652 653
3 606 653 600
3 661 611 660
3 611 654 660
3 611 604 654
3 662 661 660
3 665 664 663
3 663 664 657
3 658 663 657
3 666 663 658
3 667 658 659
3 666 658 667
3 613 667 607
3 607 667 659
3 668 616 661
3 661 616 611
3 661 662 669
3 670 661 669
3 668 661 670
3 670 669 665
3 663 670 665
3 671 670 663
3 672 663 666
3 671 663 672
3 619 672 618
3 672 667 618
3 672 666 667
3 618 667 613
3 668 622 616
3 622 668 624
3 624 668 670
3 624 670 626
3 626 670 671
3 626 671 628
3 628 671 672
3 628 672 619
3 673 636 637
3 638 673 637
3 674 640 673
3 673 640 636
3 641 674 638
3 638 674 673
3 675 645 646
3 646 640 675
3 640 674 675
3 649 647 675
3 649 675 674
3 649 674 641
3 676 654 675
3 675 654 645
3 655 677 647
3 677 675 647
3 677 676 675
3 656 678 655
3 655 678 677
3 657 678 656
3 676 660 654
3 660 676 662
3 676 679 662
3 676 677 679
3 665 679 664
3 679 678 664
3 679 677 678
3 664 678 657
3 679 669 662
3 669 679 665
