ply
format ascii 1.0
comment None
element vertex 381
property float x
property float y
property float z
element face 762
property list uchar int vertex_indices
end_header
27.971 61.011 24.378
28.015 61.319 24.036
28.401 60.851 24.046
28.182 60.733 24.670
27.966 60.964 24.768
28.301 60.711 25.264
27.920 61.362 24.524
28.067 61.171 25.103
29.243 59.337 27.724
29.204 59.376 27.480
29.409 59.029 27.880
29.608 59.069 28.301
28.822 60.173 26.065
29.070 59.992 25.746
29.319 59.741 26.298
29.154 59.640 26.940
29.006 59.965 27.099
29.349 59.559 27.725
29.255 59.756 27.425
28.333 61.490 23.409
28.740 61.743 22.560
29.147 60.871 23.015
29.090 60.442 24.066
28.810 60.321 25.007
28.553 61.099 26.003
28.954 60.834 26.928
29.138 60.301 27.325
28.335 62.253 23.101
28.722 62.497 22.400
28.106 61.999 24.013
28.192 61.822 24.994
28.683 62.320 25.722
29.137 61.880 26.699
28.567 62.948 22.934
28.822 62.986 22.438
28.342 62.762 23.630
28.544 62.929 24.628
29.130 63.225 25.642
29.113 62.730 26.218
29.126 63.451 22.716
28.807 63.480 23.653
29.385 63.932 23.332
28.947 63.724 24.418
29.031 63.642 24.970
29.479 64.101 24.096
29.909 58.348 28.779
29.996 58.070 28.540
30.239 57.847 28.823
30.351 57.907 29.333
29.499 59.211 27.644
29.845 58.500 28.146
29.834 58.839 28.854
30.207 58.743 29.420
29.510 59.867 25.583
29.970 59.537 26.239
29.599 59.438 27.121
29.289 59.441 27.419
29.496 60.105 27.658
29.919 60.003 28.306
30.036 59.425 28.877
29.348 61.353 22.047
29.919 61.510 21.378
30.150 60.716 21.898
30.031 60.358 22.866
29.790 60.251 23.722
29.650 60.060 24.702
29.300 60.995 27.318
29.821 61.177 27.699
30.077 60.769 28.065
29.257 62.052 21.841
30.070 62.332 21.252
29.614 61.692 27.333
30.201 61.950 27.586
30.490 61.513 27.997
29.342 62.884 21.982
30.156 63.074 21.603
29.407 63.122 26.209
29.575 62.803 26.601
29.853 62.353 27.119
29.902 63.554 22.219
29.750 63.930 22.847
30.504 64.044 22.691
29.336 64.013 24.739
29.616 63.860 25.333
30.051 63.439 26.185
30.155 64.264 23.497
30.233 64.379 24.257
29.955 64.227 24.803
30.855 57.440 29.913
31.173 57.067 29.720
31.436 56.970 30.158
31.317 57.370 30.564
30.345 57.938 28.423
31.062 57.428 29.053
30.500 58.127 29.948
30.918 57.842 30.410
30.249 58.708 27.544
30.316 58.231 28.021
30.471 58.616 29.982
30.969 58.572 30.436
30.404 59.675 25.488
30.556 59.419 26.157
30.483 59.166 26.729
30.439 60.198 28.853
30.766 59.878 29.468
30.724 59.160 29.993
30.525 61.077 21.079
31.190 61.117 20.705
31.031 60.574 21.199
30.989 60.209 21.805
30.750 60.111 22.533
30.615 60.005 23.462
30.508 59.895 24.438
30.931 60.612 29.044
30.879 61.054 28.535
30.613 61.664 20.825
31.433 61.814 20.541
31.149 61.818 28.147
30.952 62.188 27.780
30.834 62.235 20.775
30.834 62.828 21.143
30.192 62.937 26.866
30.627 62.608 27.323
30.924 63.555 21.886
31.405 64.115 22.656
31.263 63.738 26.150
30.513 64.049 25.478
30.974 63.196 26.842
31.079 64.361 23.318
30.932 64.453 24.066
30.789 64.364 24.794
31.686 56.855 29.695
32.152 56.708 30.194
31.938 57.014 30.652
31.815 57.434 30.963
32.480 57.330 31.043
31.022 58.060 28.001
31.924 58.232 27.572
32.246 57.601 28.379
32.238 56.967 29.232
32.191 57.793 31.207
31.558 58.017 30.920
31.334 59.271 26.166
31.994 59.458 25.647
32.412 59.197 26.207
32.191 58.744 26.889
31.203 58.684 27.135
31.939 58.951 30.972
31.699 60.083 21.524
31.903 60.581 20.868
32.508 60.009 21.382
32.411 59.697 22.158
31.563 59.851 22.321
32.326 59.573 23.081
31.452 59.779 23.236
32.281 59.557 24.053
31.388 59.740 24.210
32.266 59.534 25.038
31.317 59.625 25.155
31.111 59.723 30.021
31.486 59.466 30.449
31.833 61.217 20.519
31.311 61.013 28.981
31.521 60.772 29.373
31.819 60.289 30.056
32.140 61.659 20.488
31.607 62.272 27.965
31.829 61.909 28.363
32.037 61.439 28.972
31.397 62.486 20.753
32.129 62.348 20.678
32.380 62.496 27.967
31.643 62.771 27.470
31.813 63.070 21.250
32.016 63.748 22.172
32.125 64.147 22.885
32.426 63.845 25.969
31.497 64.164 25.396
32.058 63.372 26.794
31.765 64.345 23.242
31.725 64.428 23.879
31.627 64.389 24.640
32.391 56.654 29.768
32.877 56.581 30.096
32.826 56.842 30.619
33.364 57.359 30.991
32.911 58.189 27.604
33.515 57.620 28.424
33.039 57.134 28.979
33.087 56.721 29.610
32.430 58.451 31.300
32.989 57.965 31.297
32.577 59.404 25.720
33.022 59.209 26.121
33.236 58.793 26.808
32.771 59.182 31.311
33.423 58.855 31.447
32.646 60.409 20.936
33.172 60.102 21.337
33.309 59.676 22.065
33.233 59.458 23.000
33.205 59.393 23.970
33.183 59.377 24.908
33.141 59.329 25.649
33.352 59.539 31.394
32.842 59.959 30.905
32.543 61.070 20.677
33.110 60.626 20.998
32.848 60.755 30.275
32.491 61.105 29.678
32.727 61.876 20.697
33.393 61.707 29.299
32.862 62.135 28.539
32.764 62.475 20.834
32.535 62.853 21.043
33.013 62.803 21.199
33.393 62.656 27.978
32.763 63.001 27.401
32.815 63.285 21.768
32.394 64.261 23.578
32.927 63.857 22.947
32.428 64.284 24.448
33.201 64.038 24.142
32.260 64.193 25.161
33.157 63.984 25.239
33.397 63.704 26.104
33.111 63.432 26.731
33.297 56.561 29.982
33.619 56.711 29.893
33.471 56.670 30.303
33.842 56.863 30.496
33.558 56.916 30.671
34.188 58.233 27.773
34.476 57.710 28.635
33.977 57.168 29.382
34.103 57.296 30.671
34.136 58.209 31.149
33.671 59.055 26.316
34.080 58.740 26.944
34.156 58.972 31.420
33.705 59.917 21.752
34.093 59.712 22.311
34.103 59.504 23.012
34.166 59.365 23.965
34.166 59.270 24.932
34.111 59.157 25.862
33.622 59.888 31.316
34.072 59.560 31.419
33.381 61.361 21.118
33.733 60.477 21.472
33.366 61.232 29.982
33.740 60.797 30.531
34.137 60.232 31.104
33.249 62.277 21.110
34.229 61.192 21.898
33.874 62.105 21.687
34.477 62.047 22.356
34.579 61.880 29.244
33.965 62.284 28.608
34.247 61.365 29.948
33.506 62.821 21.712
34.167 62.737 22.382
34.377 62.694 27.945
33.762 63.070 27.338
33.673 63.330 22.569
34.038 63.619 23.757
34.051 63.776 24.902
34.074 63.657 25.835
34.020 63.396 26.636
34.013 56.941 30.167
34.817 58.001 28.344
35.049 57.900 28.738
34.901 57.668 29.321
34.673 57.480 30.114
34.707 57.808 30.679
35.064 57.893 30.412
34.364 58.917 26.622
34.809 58.652 27.332
35.280 58.341 28.344
35.138 58.424 30.696
34.803 59.196 31.179
34.171 60.090 21.964
34.521 59.943 22.439
34.704 59.751 22.982
35.123 59.625 23.983
35.197 59.365 24.994
35.161 59.184 25.921
35.062 58.966 26.729
34.715 59.906 31.225
34.219 60.504 21.854
34.635 60.502 22.365
34.836 60.282 31.036
34.827 60.740 30.578
34.876 62.546 23.151
35.049 61.474 22.924
35.408 62.167 23.537
35.337 61.871 29.092
34.924 62.282 28.568
35.293 61.353 29.771
34.364 63.163 23.122
35.534 62.595 24.053
34.896 63.152 23.903
35.462 63.024 24.601
35.296 62.567 27.856
34.651 63.020 27.248
34.929 63.410 24.829
34.718 63.513 25.585
34.897 63.249 26.460
35.370 58.061 29.134
35.346 58.079 29.926
35.655 58.830 27.668
35.969 58.807 28.508
35.832 58.601 29.309
35.754 58.806 30.202
35.504 59.189 30.742
35.956 59.536 30.330
34.904 60.115 22.829
35.379 60.166 23.536
35.915 60.044 24.343
36.247 59.745 25.154
36.190 59.394 26.004
36.109 59.216 26.970
35.380 59.994 30.807
36.007 60.148 30.276
35.151 60.596 23.018
35.627 60.939 23.608
35.999 60.533 24.149
35.696 60.674 30.257
36.181 60.529 29.884
35.981 61.008 29.710
35.702 62.200 23.905
35.711 61.715 23.763
36.013 62.046 24.331
35.907 61.490 29.160
35.683 62.048 28.538
35.655 63.041 25.207
36.154 62.440 25.046
36.086 62.747 25.701
35.323 62.877 27.176
35.827 62.515 27.449
35.767 62.763 26.800
35.985 62.177 27.952
35.504 63.116 25.860
36.377 59.258 28.073
36.323 59.255 29.024
36.141 59.192 29.770
36.593 60.449 24.926
37.109 60.074 25.627
37.184 59.732 26.160
36.906 59.524 26.731
37.016 59.736 27.527
37.204 60.290 27.902
36.745 59.994 28.540
36.347 59.913 29.640
36.232 61.231 24.389
36.806 61.121 25.110
37.345 60.623 25.711
36.920 60.893 28.122
37.334 60.621 27.744
37.293 61.018 27.436
36.424 60.790 29.130
36.496 61.720 24.897
36.985 61.530 25.631
36.555 61.924 27.377
37.206 61.480 26.963
36.856 61.978 26.637
36.311 61.590 28.419
36.281 62.523 26.401
36.660 62.188 25.975
37.688 60.081 26.127
37.836 59.903 26.477
37.601 59.874 26.861
37.535 60.343 27.354
37.888 60.251 26.896
37.869 60.374 26.239
37.630 60.869 26.252
37.654 60.828 26.864
37.985 60.376 26.583
37.253 61.511 26.400
38.023 60.102 26.442
38.009 60.045 26.678
3 2 1 0
3 4 3 0
3 0 3 2
3 4 5 3
3 1 6 0
3 0 6 4
3 4 6 7
3 4 7 5
3 10 9 8
3 8 11 10
3 14 13 12
3 16 15 12
3 12 15 14
3 18 17 16
3 17 8 16
3 9 15 16
3 9 16 8
3 8 17 11
3 21 20 19
3 1 2 19
3 2 21 19
3 2 22 21
3 23 2 3
3 23 22 2
3 24 12 5
3 12 23 5
3 23 3 5
3 12 13 23
3 26 16 25
3 16 24 25
3 16 12 24
3 16 26 18
3 19 20 27
3 27 20 28
3 29 6 1
3 19 29 1
3 27 29 19
3 30 7 6
3 30 6 29
3 24 5 7
3 30 24 7
3 31 24 30
3 25 24 32
3 32 24 31
3 27 28 33
3 33 28 34
3 27 35 29
3 27 33 35
3 29 36 30
3 29 35 36
3 38 31 37
3 31 36 37
3 31 30 36
3 31 38 32
3 34 39 33
3 41 40 39
3 40 33 39
3 40 35 33
3 43 36 42
3 36 40 42
3 36 35 40
3 36 43 37
3 41 44 40
3 40 44 42
3 47 46 45
3 45 48 47
3 50 49 10
3 10 49 9
3 51 45 11
3 45 50 11
3 50 10 11
3 45 46 50
3 48 45 52
3 52 45 51
3 54 53 14
3 14 53 13
3 55 14 15
3 55 54 14
3 49 56 9
3 49 17 56
3 17 49 57
3 55 57 49
3 57 55 18
3 56 18 55
3 55 15 56
3 56 15 9
3 17 18 56
3 57 58 17
3 17 58 11
3 58 59 11
3 59 51 11
3 51 59 52
3 62 61 60
3 20 21 60
3 21 62 60
3 21 63 62
3 64 21 22
3 64 63 21
3 65 22 23
3 65 64 22
3 23 13 53
3 23 53 65
3 25 66 26
3 57 18 26
3 66 57 26
3 67 57 66
3 58 57 68
3 68 57 67
3 60 61 69
3 69 61 70
3 69 28 20
3 69 20 60
3 32 71 66
3 32 66 25
3 73 67 72
3 67 71 72
3 67 66 71
3 67 73 68
3 69 70 74
3 74 70 75
3 74 34 28
3 74 28 69
3 37 76 38
3 76 77 38
3 38 77 32
3 77 78 32
3 78 71 32
3 71 78 72
3 75 79 74
3 79 81 80
3 79 80 39
3 74 79 39
3 34 74 39
3 80 41 39
3 42 82 43
3 82 83 43
3 43 83 37
3 83 84 37
3 84 76 37
3 76 84 77
3 81 85 80
3 80 85 41
3 85 44 41
3 85 86 44
3 42 44 82
3 44 87 82
3 44 86 87
3 82 87 83
3 90 89 88
3 88 91 90
3 93 92 47
3 47 92 46
3 94 88 48
3 88 93 48
3 93 47 48
3 88 89 93
3 91 88 95
3 95 88 94
3 97 96 50
3 50 96 49
3 50 46 92
3 50 92 97
3 52 98 94
3 52 94 48
3 95 94 99
3 99 94 98
3 101 100 54
3 54 100 53
3 102 54 55
3 102 101 54
3 55 49 96
3 55 96 102
3 58 103 59
3 103 104 59
3 59 104 52
3 104 105 52
3 105 98 52
3 98 105 99
3 108 107 106
3 61 62 106
3 62 108 106
3 62 109 108
3 110 62 63
3 110 109 62
3 111 63 64
3 111 110 63
3 112 64 65
3 112 111 64
3 65 53 100
3 65 100 112
3 114 113 103
3 58 114 103
3 68 114 58
3 103 113 104
3 106 107 115
3 115 107 116
3 115 70 61
3 115 61 106
3 118 117 73
3 118 73 72
3 68 73 114
3 114 73 117
3 116 119 115
3 70 115 119
3 120 70 119
3 75 70 120
3 77 121 78
3 121 122 78
3 122 72 78
3 122 118 72
3 120 123 75
3 75 123 79
3 81 79 123
3 81 123 124
3 126 125 84
3 126 84 83
3 77 84 121
3 84 127 121
3 84 125 127
3 121 127 122
3 124 128 81
3 81 128 85
3 85 129 86
3 128 129 85
3 86 130 87
3 129 130 86
3 83 87 126
3 126 87 130
3 132 131 90
3 90 131 89
3 134 133 91
3 133 90 91
3 133 132 90
3 134 135 133
3 138 137 136
3 92 93 136
3 93 138 136
3 93 139 138
3 93 89 131
3 93 131 139
3 141 140 134
3 91 141 134
3 95 141 91
3 134 140 135
3 144 143 142
3 146 145 142
3 142 145 144
3 145 146 137
3 137 146 136
3 146 96 136
3 96 97 136
3 136 97 92
3 99 141 95
3 99 147 141
3 150 149 148
3 152 151 148
3 148 151 150
3 154 153 152
3 152 153 151
3 156 155 154
3 154 155 153
3 158 157 156
3 156 157 155
3 157 158 143
3 143 158 142
3 158 100 142
3 100 101 142
3 142 101 102
3 142 102 146
3 146 102 96
3 104 159 105
3 159 160 105
3 160 99 105
3 160 147 99
3 148 149 108
3 149 107 108
3 149 161 107
3 148 108 109
3 148 109 152
3 152 109 110
3 152 110 154
3 154 110 111
3 154 111 156
3 156 111 112
3 156 112 158
3 158 112 100
3 114 162 113
3 162 163 113
3 113 163 104
3 163 164 104
3 164 159 104
3 159 164 160
3 161 116 107
3 165 116 161
3 118 166 117
3 166 167 117
3 117 167 114
3 167 168 114
3 168 162 114
3 162 168 163
3 119 116 169
3 116 170 169
3 116 165 170
3 169 120 119
3 172 171 166
3 118 172 166
3 122 172 118
3 166 171 167
3 170 173 169
3 169 173 120
3 173 123 120
3 173 174 123
3 124 123 174
3 124 174 175
3 177 176 125
3 177 125 126
3 125 178 127
3 176 178 125
3 122 127 172
3 172 127 178
3 175 179 124
3 124 179 128
3 128 180 129
3 179 180 128
3 129 181 130
3 180 181 129
3 126 130 177
3 177 130 181
3 182 131 132
3 182 132 183
3 132 184 183
3 132 133 184
3 133 135 184
3 184 135 185
3 187 186 138
3 138 186 137
3 188 138 139
3 188 187 138
3 139 131 182
3 189 139 182
3 188 139 189
3 140 141 190
3 182 183 189
3 190 191 140
3 191 135 140
3 191 185 135
3 192 143 144
3 192 144 193
3 144 194 193
3 144 145 194
3 145 137 186
3 145 186 194
3 147 195 190
3 147 190 141
3 191 190 196
3 196 190 195
3 197 149 150
3 197 150 198
3 150 199 198
3 150 151 199
3 200 151 153
3 200 199 151
3 201 153 155
3 201 200 153
3 202 155 157
3 202 201 155
3 157 143 192
3 203 157 192
3 202 157 203
3 203 192 193
3 205 204 195
3 147 205 195
3 160 205 147
3 195 204 196
3 207 206 197
3 206 149 197
3 206 161 149
3 207 197 198
3 209 208 164
3 209 164 163
3 160 164 205
3 205 164 208
3 206 165 161
3 210 165 206
3 212 211 168
3 212 168 167
3 163 168 209
3 209 168 211
3 214 170 213
3 170 210 213
3 170 165 210
3 215 214 213
3 217 216 171
3 217 171 172
3 167 171 212
3 212 171 216
3 214 173 170
3 215 218 214
3 218 173 214
3 218 174 173
3 220 219 175
3 174 220 175
3 218 220 174
3 222 221 219
3 222 219 220
3 224 223 221
3 224 221 222
3 176 177 223
3 224 176 223
3 225 176 224
3 176 226 178
3 225 226 176
3 172 178 217
3 217 178 226
3 219 179 175
3 179 219 180
3 180 219 221
3 180 221 181
3 181 221 223
3 181 223 177
3 229 228 227
3 227 183 229
3 183 184 229
3 231 230 229
3 231 229 184
3 185 231 184
3 233 232 187
3 187 232 186
3 234 187 188
3 234 233 187
3 189 227 228
3 234 189 228
3 188 189 234
3 231 235 230
3 183 227 189
3 231 185 235
3 185 236 235
3 185 191 236
3 238 237 194
3 194 237 193
3 194 186 232
3 194 232 238
3 196 236 191
3 196 239 236
3 241 240 199
3 199 240 198
3 242 199 200
3 242 241 199
3 243 200 201
3 243 242 200
3 244 201 202
3 244 243 201
3 245 202 203
3 245 244 202
3 203 193 237
3 203 237 245
3 205 246 204
3 246 247 204
3 247 196 204
3 247 239 196
3 248 206 207
3 249 248 207
3 198 249 207
3 240 249 198
3 209 250 208
3 250 251 208
3 208 251 205
3 251 252 205
3 252 246 205
3 246 252 247
3 253 210 248
3 248 210 206
3 248 249 254
3 255 248 254
3 253 248 255
3 256 255 254
3 258 257 211
3 258 211 212
3 209 211 250
3 211 259 250
3 211 257 259
3 250 259 251
3 253 213 210
3 213 253 215
3 253 260 215
3 253 255 260
3 255 256 261
3 255 261 260
3 263 262 216
3 263 216 217
3 212 216 258
3 258 216 262
3 260 218 215
3 261 264 260
3 264 218 260
3 264 220 218
3 220 265 222
3 264 265 220
3 222 266 224
3 265 266 222
3 224 267 225
3 266 267 224
3 225 268 226
3 267 268 225
3 217 226 263
3 263 226 268
3 269 228 229
3 230 269 229
3 270 232 233
3 270 233 271
3 233 272 271
3 233 234 272
3 234 228 269
3 273 234 269
3 272 234 273
3 275 273 274
3 274 273 235
3 273 269 235
3 269 230 235
3 236 274 235
3 276 237 238
3 277 276 238
3 277 238 232
3 278 277 232
3 270 278 232
3 278 270 271
3 279 275 274
3 274 236 279
3 236 280 279
3 236 239 280
3 281 240 241
3 281 241 282
3 241 283 282
3 241 242 283
3 284 242 243
3 284 283 242
3 285 243 244
3 285 284 243
3 286 244 245
3 286 285 244
3 245 237 276
3 287 245 276
3 286 245 287
3 287 276 277
3 247 280 239
3 247 288 280
3 289 249 281
3 281 249 240
3 281 282 290
3 281 290 289
3 292 291 252
3 292 252 251
3 247 252 288
3 288 252 291
3 289 254 249
3 294 293 256
3 294 256 254
3 290 294 254
3 289 290 254
3 295 293 294
3 297 296 257
3 297 257 258
3 257 298 259
3 296 298 257
3 251 259 292
3 292 259 298
3 299 261 293
3 293 261 256
3 293 295 300
3 301 293 300
3 299 293 301
3 302 301 300
3 304 303 262
3 304 262 263
3 258 262 297
3 297 262 303
3 299 264 261
3 264 299 265
3 265 299 301
3 302 305 301
3 305 265 301
3 305 266 265
3 266 306 267
3 305 306 266
3 267 307 268
3 306 307 267
3 263 268 304
3 304 268 307
3 308 271 272
3 273 309 272
3 272 309 308
3 275 309 273
3 311 310 278
3 278 310 277
3 278 271 308
3 312 278 308
3 311 278 312
3 312 308 309
3 312 309 313
3 315 313 314
3 314 313 279
3 313 309 279
3 309 275 279
3 280 314 279
3 316 282 283
3 284 317 283
3 283 317 316
3 317 284 318
3 284 319 318
3 284 285 319
3 320 285 286
3 320 319 285
3 321 286 287
3 321 320 286
3 287 277 310
3 287 310 321
3 315 314 322
3 315 322 323
3 288 322 280
3 280 322 314
3 324 290 316
3 316 290 282
3 317 326 325
3 324 317 325
3 316 317 324
3 326 317 318
3 329 328 327
3 327 328 323
3 327 323 322
3 292 327 322
3 291 292 322
3 291 322 288
3 324 294 290
3 331 330 295
3 331 295 294
3 325 331 294
3 324 325 294
3 332 330 331
3 334 333 296
3 334 296 297
3 327 298 329
3 298 333 329
3 298 296 333
3 298 327 292
3 330 300 295
3 336 335 302
3 336 302 300
3 332 336 300
3 330 332 300
3 337 335 336
3 340 339 338
3 303 304 338
3 339 303 338
3 341 303 339
3 297 303 334
3 334 303 341
3 335 305 302
3 337 342 335
3 342 305 335
3 342 306 305
3 338 307 340
3 307 342 340
3 307 306 342
3 307 338 304
3 343 310 311
3 312 344 311
3 311 344 343
3 313 345 312
3 312 345 344
3 315 345 313
3 346 318 319
3 346 319 347
3 319 348 347
3 319 320 348
3 349 320 321
3 349 348 320
3 321 310 343
3 350 321 343
3 349 321 350
3 352 351 350
3 343 352 350
3 344 352 343
3 353 344 345
3 352 344 353
3 323 353 315
3 315 353 345
3 354 325 326
3 318 346 326
3 346 354 326
3 346 355 354
3 346 347 356
3 346 356 355
3 359 358 357
3 357 358 351
3 352 357 351
3 360 357 352
3 329 360 328
3 360 353 328
3 360 352 353
3 328 353 323
3 354 331 325
3 331 354 332
3 354 361 332
3 354 355 361
3 355 356 362
3 355 362 361
3 365 364 363
3 363 364 359
3 357 363 359
3 366 363 357
3 334 366 333
3 366 360 333
3 366 357 360
3 333 360 329
3 361 336 332
3 368 367 337
3 368 337 336
3 362 368 336
3 361 362 336
3 367 368 365
3 367 365 363
3 340 367 363
3 339 340 363
3 339 363 341
3 341 363 366
3 341 366 334
3 367 342 337
3 342 367 340
3 370 369 348
3 348 369 347
3 371 348 349
3 371 370 348
3 373 371 372
3 371 350 372
3 371 349 350
3 351 372 350
3 375 356 374
3 356 369 374
3 356 347 369
3 377 376 375
3 377 375 374
3 376 377 373
3 376 373 372
3 359 376 372
3 358 359 372
3 358 372 351
3 378 362 375
3 375 362 356
3 365 378 364
3 378 376 364
3 378 375 376
3 364 376 359
3 378 368 362
3 368 378 365
3 379 369 370
3 371 380 370
3 370 380 379
3 373 380 371
3 379 374 369
3 374 379 377
3 377 379 380
3 377 380 373
