ply
format ascii 1.0
comment None
element vertex 870
property float x
property float y
property float z
element face 1736
property list uchar int vertex_indices
end_header
32.044 46.965 35.202
32.313 47.260 34.996
32.344 46.852 35.024
32.343 46.515 35.573
31.937 46.965 35.529
32.066 46.867 36.033
32.014 47.339 35.405
31.960 47.251 35.913
32.714 46.095 35.744
32.860 46.182 35.462
33.275 45.899 35.936
32.882 46.036 36.285
32.732 47.067 34.826
32.958 46.587 35.042
32.515 46.466 36.609
32.263 47.290 36.944
33.006 46.424 37.906
32.625 47.270 38.332
33.063 46.734 38.796
32.442 47.783 35.293
33.051 47.639 34.862
32.201 47.881 36.091
32.257 48.236 37.090
32.346 48.133 38.039
32.929 47.201 39.207
32.622 48.042 39.267
33.230 47.415 40.149
32.772 48.345 40.349
33.106 48.026 40.870
32.988 48.194 35.203
32.681 48.434 35.767
33.341 48.808 35.529
32.538 48.891 36.762
32.397 49.013 37.875
32.427 49.007 38.933
32.547 49.041 39.960
32.876 48.553 41.014
32.698 49.082 40.810
32.921 48.996 41.399
32.989 49.088 36.161
33.006 49.708 36.875
32.700 49.892 37.808
33.030 50.362 37.551
32.538 49.882 38.787
32.543 49.884 39.745
32.651 49.846 40.635
32.872 49.698 41.405
32.927 50.664 38.150
32.775 50.656 38.755
33.017 51.206 38.675
32.711 50.700 39.612
32.739 50.662 40.475
32.892 50.556 41.273
32.967 51.418 39.444
32.950 51.449 40.348
32.976 51.268 41.054
33.618 46.111 35.412
34.294 45.735 36.131
33.890 45.674 36.924
33.213 45.964 37.239
33.990 45.688 37.931
33.461 45.924 37.902
33.853 45.910 38.533
33.540 47.117 34.733
34.037 46.571 34.931
33.629 46.285 39.039
33.423 46.744 39.551
34.250 46.345 39.989
33.694 46.800 40.091
34.015 46.902 40.608
34.143 47.810 34.681
33.737 47.566 41.205
33.272 48.396 41.566
33.839 47.983 41.917
33.672 48.545 42.288
34.246 48.112 42.436
33.725 48.356 34.986
34.257 49.222 35.320
33.276 49.286 42.067
34.044 48.579 42.735
33.797 49.108 42.732
34.252 48.889 43.031
33.580 49.654 36.129
33.392 50.415 37.015
33.907 50.524 36.454
33.211 50.343 42.041
33.692 49.982 42.740
34.273 49.524 43.196
33.662 51.221 37.234
34.089 51.356 36.672
33.249 51.136 37.955
33.223 51.296 41.787
33.665 51.124 42.681
34.297 50.536 43.383
33.843 52.004 37.337
34.122 52.096 36.883
33.552 52.035 38.059
33.282 52.024 39.014
33.220 52.206 40.131
33.271 52.105 41.179
33.570 52.112 42.202
33.874 51.988 42.915
34.115 51.467 43.308
33.966 52.592 37.320
33.780 52.868 37.975
33.974 53.186 37.582
33.593 52.934 38.882
33.494 52.989 39.886
33.463 52.892 40.763
33.668 53.081 41.697
33.911 52.798 42.664
33.904 53.601 38.074
33.805 53.683 38.720
33.979 54.192 38.498
33.745 53.788 39.667
33.733 53.732 40.793
33.891 53.909 41.714
33.962 53.585 42.334
33.966 54.476 39.336
33.961 54.544 40.412
33.984 54.418 41.319
34.817 46.093 35.419
35.435 45.647 36.278
35.089 45.482 37.078
34.924 45.487 37.990
34.826 45.646 38.923
34.387 45.924 39.386
35.020 45.798 39.692
34.753 45.967 39.887
35.303 46.057 40.261
34.730 47.224 34.645
34.936 46.614 34.875
34.885 46.556 40.807
34.485 47.036 41.242
35.340 46.901 41.484
35.233 48.103 34.595
34.598 47.501 41.897
35.097 47.895 42.564
34.707 48.576 34.797
35.237 49.335 34.945
34.606 48.433 42.910
34.868 48.979 43.280
34.237 49.995 35.826
34.895 50.044 35.412
35.090 49.799 43.644
34.481 50.736 36.005
35.138 50.976 35.590
34.930 50.579 43.861
34.664 51.344 43.823
35.224 50.949 44.108
34.568 51.806 36.269
35.226 51.986 35.729
34.301 52.311 43.444
34.820 52.102 44.006
35.282 51.573 44.233
34.759 52.879 36.277
35.351 52.999 35.786
34.253 52.898 36.960
34.272 53.485 43.114
34.742 52.956 43.897
35.352 52.425 44.345
34.909 53.838 36.264
35.509 54.049 35.878
34.485 53.874 36.896
34.141 53.972 37.737
34.180 54.407 42.311
34.380 54.209 43.107
34.684 54.008 43.728
35.318 53.499 44.410
34.995 54.495 36.266
34.721 54.731 36.756
34.924 54.898 36.444
34.447 54.894 37.636
34.232 55.022 38.760
34.197 55.267 40.062
34.215 55.162 41.302
34.387 55.268 42.261
34.535 54.879 43.110
34.824 54.763 43.837
35.069 54.342 44.248
35.002 55.384 36.722
34.764 55.587 37.391
34.989 55.881 37.172
34.643 55.981 38.503
34.476 56.019 39.726
34.444 55.983 40.886
34.463 55.816 41.795
34.665 55.881 42.660
34.899 55.538 43.574
35.134 56.437 37.794
34.946 56.805 38.807
34.780 56.765 39.578
35.058 57.310 39.475
34.710 56.731 40.628
34.711 56.544 41.771
34.895 56.633 42.627
34.997 56.312 43.236
35.010 57.417 40.360
34.973 57.326 41.403
34.997 57.131 42.234
35.978 45.992 35.707
36.402 45.654 36.406
36.155 45.465 37.146
35.962 45.414 38.021
35.838 45.508 38.897
35.725 45.724 39.694
36.392 46.001 40.349
35.509 46.977 34.727
35.719 46.500 35.089
35.939 46.412 40.956
36.449 46.845 41.564
35.839 47.657 34.611
36.331 47.144 34.852
35.743 47.346 42.101
36.167 47.858 42.649
35.531 48.788 34.680
36.323 48.735 34.625
35.479 48.403 43.059
35.813 49.053 43.473
35.933 49.327 34.753
35.856 50.247 35.034
36.156 49.744 43.847
35.730 51.292 35.310
35.589 50.384 44.043
35.858 51.008 44.293
35.904 52.163 35.365
36.037 51.791 44.485
36.062 53.176 35.449
36.208 52.829 44.698
36.243 54.001 35.548
35.950 53.706 44.822
35.620 54.464 44.705
36.232 54.262 45.001
35.280 54.895 36.229
36.156 54.926 35.899
35.205 55.122 44.246
35.716 55.468 44.690
36.278 55.074 45.042
35.522 55.526 36.437
35.298 55.983 36.941
35.644 55.992 36.676
35.465 56.282 44.039
35.932 56.170 44.710
36.158 55.786 44.978
35.846 56.530 37.077
35.666 57.168 37.930
36.015 57.123 37.474
35.290 57.301 38.760
35.280 57.161 43.048
35.868 57.504 43.793
36.262 56.954 44.552
36.190 57.673 37.868
35.726 57.857 38.734
36.124 58.310 38.605
35.412 58.035 39.882
35.288 58.050 41.132
35.286 57.816 42.153
35.751 58.279 42.955
36.353 58.410 43.714
36.406 57.783 44.179
35.864 58.560 39.413
35.715 58.783 40.204
35.597 58.735 40.909
35.847 59.212 40.705
35.643 58.727 41.944
35.953 59.075 42.627
36.208 58.996 43.143
35.904 59.381 41.437
36.012 59.451 42.164
36.761 45.976 35.986
37.063 45.793 36.466
36.998 45.600 37.077
36.996 45.526 38.041
36.650 45.502 38.783
36.750 45.705 39.616
37.223 46.003 40.232
36.796 46.580 35.431
37.534 46.284 36.202
37.137 46.399 40.872
37.550 46.918 41.489
36.782 47.980 34.705
37.244 47.468 35.032
36.905 47.356 42.105
37.335 47.955 42.606
37.189 48.769 34.685
36.550 48.467 43.122
36.909 49.155 43.536
36.458 49.663 34.746
37.253 49.779 34.725
37.190 49.864 43.899
36.680 50.330 34.829
36.486 51.253 35.017
36.476 50.417 44.163
36.737 51.144 44.407
36.681 52.397 35.116
37.015 51.994 44.619
36.951 53.493 35.219
37.444 52.993 44.839
36.809 54.355 35.463
36.653 53.672 44.978
36.930 54.550 45.129
37.104 54.942 35.577
36.859 55.213 45.179
36.120 55.869 36.392
37.092 55.729 35.930
36.342 56.349 44.957
36.791 55.874 45.138
36.721 56.482 36.524
36.474 57.114 37.122
37.296 57.170 36.640
36.499 56.713 44.921
36.704 56.506 45.054
36.889 57.763 37.301
36.612 58.395 38.049
37.313 58.513 37.407
36.685 58.159 44.142
37.109 57.715 44.496
36.872 56.941 44.880
36.910 59.109 38.216
37.373 59.310 37.770
36.376 59.042 39.010
36.038 59.225 40.024
36.395 59.681 42.754
36.842 59.293 43.499
37.063 58.564 44.047
37.096 59.615 38.279
36.852 59.784 38.895
37.118 59.931 38.494
36.483 59.833 39.895
36.189 59.760 40.827
36.404 60.135 41.882
36.699 60.314 42.616
37.007 60.104 43.107
37.289 60.360 38.739
36.979 60.476 39.678
37.417 60.924 39.319
36.737 60.531 40.854
36.832 60.790 41.766
36.874 60.718 42.343
37.078 60.602 42.810
37.399 61.197 40.281
37.246 61.171 41.427
37.544 45.889 36.870
37.689 45.795 37.626
37.764 45.740 38.405
37.467 45.695 39.058
37.555 45.880 39.780
38.017 45.979 39.486
37.943 47.169 35.642
38.210 46.729 36.266
38.302 46.376 37.142
38.289 46.077 38.254
37.977 46.241 40.164
38.123 46.653 40.874
38.352 47.018 41.297
37.559 48.290 34.845
37.909 47.895 35.145
38.144 47.473 41.892
38.530 48.207 42.491
37.824 49.137 34.811
37.674 48.627 43.086
38.102 49.394 43.485
38.066 49.931 34.825
38.069 50.106 43.889
37.169 50.789 34.819
38.021 50.933 34.811
37.431 50.562 44.189
37.725 51.304 44.412
37.308 51.676 34.892
38.011 52.019 34.829
38.081 52.121 44.599
37.510 52.662 34.951
38.458 52.904 34.827
38.450 52.845 44.725
37.811 53.456 34.999
37.830 54.400 35.205
37.416 53.885 45.038
38.434 53.817 44.903
37.820 55.302 35.495
37.745 54.492 45.100
37.580 55.349 45.167
38.272 56.088 35.640
37.488 56.071 45.162
37.994 55.977 45.139
37.929 56.465 45.065
37.614 56.539 36.127
37.955 57.091 36.224
37.216 56.518 45.078
37.658 57.031 44.879
37.500 57.821 36.871
37.894 57.545 36.470
38.135 57.562 44.668
38.071 58.245 36.665
37.880 59.051 37.163
37.569 59.123 43.927
38.076 58.411 44.335
37.392 59.900 38.120
37.762 59.680 37.590
38.413 59.299 44.027
37.638 59.801 43.596
37.900 60.426 37.969
37.664 60.884 38.723
37.927 61.023 38.465
37.180 61.080 42.111
37.381 60.974 42.618
37.692 60.558 43.165
38.010 61.488 39.106
37.974 61.772 40.229
37.832 61.652 41.117
37.850 61.412 42.158
37.938 61.072 42.840
38.101 45.922 38.924
38.438 47.089 36.069
38.733 47.038 36.570
39.239 47.120 37.471
38.919 46.598 38.164
38.645 46.379 39.251
38.706 46.660 40.270
38.718 46.903 40.858
39.140 47.037 40.520
38.207 48.619 35.058
38.479 48.080 35.457
38.803 47.634 36.048
39.286 47.598 36.750
39.020 47.328 41.176
39.115 47.816 41.807
39.428 48.279 42.154
38.485 49.465 35.016
38.852 48.920 35.379
38.550 48.818 43.004
39.263 48.757 42.649
38.644 50.314 34.955
39.219 49.854 35.308
39.041 49.281 43.119
39.152 50.124 43.564
38.833 51.017 34.900
39.203 50.619 35.073
38.395 50.725 44.100
38.709 51.465 44.314
38.833 51.877 34.822
39.475 51.281 35.008
39.168 52.297 44.448
39.318 52.772 34.756
39.124 53.115 44.658
38.479 53.791 34.915
39.417 53.691 34.729
39.471 53.716 44.688
39.018 54.473 34.930
38.887 55.377 35.190
38.432 54.874 45.048
39.385 54.715 44.846
39.017 56.124 35.365
38.452 56.198 45.052
38.892 55.189 45.007
38.512 55.610 45.077
38.321 56.799 35.906
39.102 56.852 35.538
38.975 55.992 44.974
38.782 56.739 44.872
38.552 57.546 36.068
39.495 58.001 35.621
39.102 57.712 44.617
38.823 58.463 36.201
38.415 58.929 36.670
38.876 59.257 36.422
39.289 58.615 44.373
38.344 59.680 37.057
38.839 59.823 36.667
39.490 59.479 44.082
38.554 60.102 43.665
38.747 60.541 37.117
38.303 61.125 38.054
38.697 61.235 37.599
38.571 60.820 43.232
38.751 61.771 38.093
38.620 62.095 38.903
38.911 62.239 38.517
38.508 62.144 39.720
38.430 62.102 40.707
38.464 61.917 41.590
38.774 61.662 42.346
38.446 61.291 42.772
39.198 62.537 38.962
39.177 62.526 40.177
39.007 62.278 41.081
39.251 62.083 41.758
39.386 46.996 38.166
39.378 46.946 38.828
39.296 46.966 39.783
39.069 48.403 35.797
39.577 48.335 36.439
39.986 48.067 37.465
39.840 47.506 38.333
39.885 47.491 39.385
39.698 47.517 40.442
39.662 47.807 41.275
39.669 48.055 41.736
40.003 48.206 41.513
39.588 49.149 35.889
40.063 48.998 36.472
40.165 48.676 36.928
39.904 48.376 41.881
39.828 48.704 42.240
39.879 49.906 35.713
40.417 49.702 36.338
39.956 49.450 42.711
40.257 50.338 43.197
39.849 50.582 35.364
40.304 50.265 35.810
39.189 50.939 43.995
39.937 50.923 43.696
39.796 52.149 34.877
40.359 51.414 35.243
39.609 51.546 44.100
40.411 51.606 43.783
40.165 53.214 34.716
40.061 52.146 44.128
40.031 52.992 44.365
39.975 53.734 34.605
39.963 54.010 34.611
40.113 53.919 34.565
40.272 54.007 44.525
40.095 54.589 34.726
39.481 54.975 34.927
40.275 54.097 34.601
40.357 54.840 44.638
39.916 55.461 34.918
39.731 56.229 35.121
39.152 55.478 44.962
39.856 55.773 44.797
40.119 57.302 35.144
40.045 56.903 44.710
40.142 58.085 35.246
40.231 57.865 44.576
39.362 58.885 35.937
40.117 58.958 35.414
40.403 58.745 44.392
39.366 59.765 36.203
40.024 60.071 35.732
40.611 59.548 44.119
39.690 60.367 43.646
39.531 60.717 36.405
39.114 61.317 37.175
39.699 61.434 36.635
39.335 61.222 42.995
40.388 60.920 43.280
40.108 61.440 42.829
39.426 61.915 37.325
39.282 62.303 38.044
39.695 62.292 37.461
39.604 61.757 42.417
40.426 61.787 42.315
39.964 62.101 41.852
39.988 62.672 37.878
39.843 62.921 38.764
40.311 63.057 38.379
39.683 62.888 39.475
39.809 62.832 40.080
40.002 62.513 40.864
40.248 63.104 39.009
40.121 63.033 39.616
40.280 48.053 38.251
40.452 48.143 39.013
40.349 48.090 40.034
40.181 48.162 40.943
40.520 49.209 36.903
40.603 48.880 37.505
40.698 48.622 38.334
40.940 48.758 39.141
41.214 49.168 39.656
40.861 48.681 39.813
40.712 48.734 40.711
40.347 48.822 41.708
40.806 49.617 36.903
40.976 49.492 37.387
41.198 49.321 40.431
41.013 49.463 41.370
40.751 49.691 42.208
40.611 50.035 42.756
40.986 50.233 42.543
40.488 50.745 35.631
40.847 50.447 36.150
41.238 50.143 37.048
40.822 50.484 42.927
40.763 51.055 43.282
40.650 52.347 34.984
41.164 51.801 35.395
41.028 51.101 35.770
40.929 51.661 43.483
40.961 53.095 34.857
40.930 52.370 43.753
40.987 53.427 44.120
40.287 53.821 34.595
40.939 54.137 34.696
41.184 54.449 44.324
40.919 54.804 34.628
41.087 54.624 34.594
41.145 54.802 34.585
40.877 55.302 44.567
40.895 55.632 34.739
40.309 55.971 34.897
41.215 55.023 34.642
40.976 56.138 44.608
40.574 56.565 34.881
41.337 56.932 34.703
41.115 57.110 44.599
40.830 57.332 34.839
40.688 58.098 34.949
41.251 58.018 44.525
40.878 58.877 34.907
41.430 59.067 34.687
41.247 58.371 34.713
41.395 58.830 44.372
40.783 59.843 35.103
41.581 60.018 34.671
41.603 59.500 44.103
40.960 60.210 43.746
41.097 60.806 35.030
41.761 60.918 34.679
40.309 60.958 35.805
41.377 60.730 43.263
40.903 61.326 42.793
41.323 61.347 34.961
40.890 61.542 35.510
41.327 61.732 35.207
40.240 62.010 36.644
41.389 61.705 42.015
40.722 62.157 41.571
41.167 62.099 35.884
40.954 62.669 36.961
40.660 63.014 37.822
41.162 63.072 37.553
41.591 62.997 39.030
41.245 63.199 38.763
40.761 63.108 39.286
40.298 62.920 40.015
40.959 62.817 39.987
41.168 62.452 40.733
40.957 63.192 38.356
41.133 49.342 38.150
41.247 49.280 39.001
41.411 49.884 37.901
41.663 50.013 38.852
41.581 49.873 39.952
41.488 50.078 41.094
41.243 50.192 41.991
41.496 50.870 36.476
41.850 50.808 37.247
41.881 50.542 38.109
42.086 50.684 39.057
42.310 51.137 39.634
42.014 50.609 39.807
41.906 50.709 40.804
41.669 50.932 41.912
41.208 50.758 42.640
41.377 52.535 35.155
41.729 52.105 35.573
41.672 51.530 35.987
42.281 51.314 40.477
42.127 51.473 41.459
41.932 51.671 42.234
41.960 52.153 42.651
41.436 51.639 42.936
41.580 53.343 35.026
41.736 52.543 43.206
41.532 53.072 43.688
42.075 53.327 43.315
41.797 54.118 34.975
41.728 53.808 43.866
42.353 54.193 43.535
41.249 54.743 34.626
41.716 55.111 34.818
41.964 54.549 44.017
41.761 55.373 44.320
41.706 56.194 34.729
41.885 56.407 44.441
42.003 56.966 34.710
41.990 57.334 44.459
41.229 57.756 34.714
41.852 58.014 34.647
42.073 58.185 44.405
42.113 59.189 34.583
42.153 58.892 44.267
42.260 60.144 34.553
42.263 59.369 44.012
41.988 59.998 43.640
42.405 60.894 34.624
42.173 60.556 43.038
41.757 61.133 42.642
41.625 61.517 34.880
42.051 61.464 34.819
41.488 62.112 41.270
42.261 61.746 41.099
41.875 62.249 40.662
42.142 61.356 41.984
41.714 61.896 35.262
41.942 62.372 36.132
41.560 62.911 37.035
41.987 62.877 37.027
42.233 62.859 38.096
41.951 63.134 37.883
41.633 63.174 38.303
42.169 62.752 38.887
41.973 62.538 39.742
41.652 63.141 37.655
42.141 51.447 36.849
42.293 51.259 37.843
42.356 51.229 38.853
41.986 52.750 35.479
42.233 52.166 36.154
42.553 52.075 36.919
42.563 51.824 37.530
42.705 52.002 38.539
42.621 51.954 39.914
42.476 52.069 41.127
42.260 52.167 42.030
42.204 53.589 35.362
42.515 53.050 35.975
42.682 52.623 36.631
42.891 52.641 37.585
43.005 52.772 38.605
42.939 52.681 39.446
42.893 52.740 40.239
42.968 53.186 40.744
42.768 52.682 40.894
42.616 52.899 41.859
42.244 52.784 42.664
42.352 54.481 35.247
42.713 53.975 35.816
42.958 53.489 36.700
43.163 53.529 37.601
43.149 53.278 38.256
42.910 53.362 41.388
42.858 53.632 42.027
43.005 54.313 42.352
42.615 53.698 42.735
42.585 55.366 35.214
42.820 54.780 35.607
43.129 54.616 36.272
43.286 54.292 37.201
42.924 54.861 43.214
43.235 55.170 42.535
42.528 55.070 43.868
42.913 55.259 43.682
42.500 55.860 44.155
42.383 56.262 34.922
42.884 56.019 35.282
43.182 56.178 35.583
43.085 55.476 35.707
43.339 55.373 36.274
43.395 55.026 36.798
43.274 55.690 43.159
43.417 55.993 42.677
43.096 55.616 43.607
42.584 56.709 44.217
42.535 57.339 34.863
43.351 55.916 36.004
43.410 56.256 43.173
43.460 56.600 42.935
43.265 56.232 43.544
42.639 57.592 44.202
42.643 58.380 34.807
43.376 56.693 43.353
42.632 58.390 44.163
42.762 59.410 34.746
42.593 58.960 44.051
42.895 58.664 43.807
42.704 59.347 43.575
42.820 60.302 34.719
42.566 60.016 43.199
42.830 60.918 34.774
42.575 61.443 34.925
42.976 61.194 35.075
42.699 60.327 42.698
42.458 60.851 42.356
42.176 61.867 35.214
42.848 61.592 35.335
42.495 61.901 35.425
42.729 61.969 35.987
42.378 62.115 40.248
42.888 61.657 40.056
42.696 62.088 39.529
42.966 61.257 40.687
42.730 61.084 41.523
42.108 62.998 37.507
42.472 62.536 36.974
42.819 62.314 37.607
42.695 62.316 38.636
43.187 53.518 39.182
43.078 53.342 40.137
43.349 54.187 38.290
43.388 54.464 39.318
43.274 54.191 40.136
43.126 53.918 40.999
43.037 53.957 41.720
43.510 55.097 37.592
43.600 55.413 38.820
43.474 55.180 40.071
43.341 54.888 41.008
43.206 54.624 41.768
42.867 55.571 43.888
42.962 56.699 35.248
43.536 55.823 36.715
43.738 55.995 37.716
43.795 56.094 38.451
43.780 56.229 39.029
43.877 56.890 39.258
43.681 56.310 39.949
43.517 55.935 41.065
43.391 55.543 41.895
42.970 56.149 43.916
43.119 57.591 35.286
43.410 56.675 35.914
43.774 56.729 36.827
43.907 56.595 37.539
43.891 56.415 38.040
43.823 57.564 40.095
43.979 57.572 39.209
43.634 57.074 41.140
43.500 56.626 42.174
43.099 56.957 43.784
43.244 58.642 35.273
43.651 57.725 36.059
43.942 57.396 36.779
43.980 57.017 37.244
43.988 58.452 39.352
44.083 57.837 38.709
44.135 58.309 38.427
43.810 58.518 40.427
43.666 58.165 41.206
43.501 57.789 42.170
43.361 57.330 43.090
43.035 57.934 43.760
43.264 59.710 35.207
43.728 58.984 36.083
43.992 58.083 36.675
44.068 59.178 38.327
44.182 58.436 37.865
44.139 58.850 37.450
43.930 59.424 39.401
43.798 59.258 40.248
43.634 59.074 41.158
43.441 58.836 42.063
43.192 58.538 43.085
43.161 60.620 35.133
43.534 60.227 35.929
44.052 58.761 36.868
43.907 59.746 37.128
43.920 60.133 38.187
43.857 60.094 39.063
43.687 60.064 40.065
43.512 59.870 41.030
43.377 59.594 41.807
43.049 59.618 42.679
43.191 61.237 35.766
43.524 60.959 36.796
43.680 60.825 37.870
43.709 60.726 38.734
43.440 60.894 39.767
43.278 60.634 40.853
43.055 60.335 41.896
43.076 61.838 36.751
43.258 61.679 37.723
43.268 61.507 38.892
43.910 56.602 38.559
44.017 56.985 37.890
44.022 57.237 38.605
44.082 57.542 37.284
44.136 57.759 37.992
44.154 58.211 37.311
3 2 1 0
3 4 3 0
3 0 3 2
3 4 5 3
3 1 6 0
3 0 6 4
3 4 6 7
3 4 7 5
3 10 9 8
3 8 11 10
3 13 12 2
3 2 12 1
3 3 8 9
3 13 3 9
3 2 3 13
3 15 14 5
3 5 14 3
3 14 11 3
3 11 8 3
3 17 16 15
3 15 16 14
3 17 18 16
3 6 1 19
3 1 20 19
3 1 12 20
3 21 7 6
3 21 6 19
3 15 5 7
3 21 15 7
3 22 15 21
3 15 23 17
3 15 22 23
3 18 17 24
3 17 25 24
3 17 23 25
3 27 26 25
3 25 26 24
3 27 28 26
3 20 29 19
3 31 30 29
3 30 19 29
3 30 21 19
3 21 32 22
3 21 30 32
3 22 33 23
3 22 32 33
3 23 34 25
3 23 33 34
3 25 35 27
3 25 34 35
3 28 27 36
3 27 37 36
3 27 35 37
3 37 38 36
3 31 39 30
3 30 39 32
3 32 39 40
3 42 41 40
3 41 32 40
3 41 33 32
3 33 43 34
3 33 41 43
3 34 44 35
3 34 43 44
3 35 45 37
3 35 44 45
3 38 37 46
3 46 37 45
3 42 47 41
3 49 48 47
3 48 41 47
3 48 43 41
3 43 50 44
3 43 48 50
3 44 51 45
3 44 50 51
3 46 45 52
3 52 45 51
3 49 53 48
3 48 53 50
3 50 53 54
3 50 54 51
3 51 54 55
3 51 55 52
3 57 56 10
3 10 56 9
3 59 58 11
3 58 10 11
3 58 57 10
3 61 60 59
3 59 60 58
3 61 62 60
3 64 63 13
3 13 63 12
3 13 9 56
3 13 56 64
3 14 59 11
3 59 14 16
3 59 16 61
3 66 65 18
3 18 65 16
3 65 62 16
3 62 61 16
3 68 67 66
3 66 67 65
3 68 69 67
3 63 20 12
3 70 20 63
3 24 66 18
3 66 24 26
3 66 26 68
3 72 71 28
3 28 71 26
3 71 69 26
3 69 68 26
3 74 73 72
3 72 73 71
3 74 75 73
3 70 76 20
3 20 76 29
3 31 29 76
3 31 76 77
3 36 72 28
3 72 36 38
3 78 72 38
3 74 72 78
3 75 74 79
3 74 80 79
3 74 78 80
3 80 81 79
3 77 82 31
3 31 82 39
3 82 84 83
3 40 82 83
3 39 82 40
3 83 42 40
3 46 85 78
3 46 78 38
3 78 86 80
3 78 85 86
3 81 80 87
3 87 80 86
3 83 84 88
3 88 84 89
3 90 47 42
3 83 90 42
3 88 90 83
3 90 49 47
3 52 91 85
3 52 85 46
3 85 92 86
3 85 91 92
3 87 86 93
3 93 86 92
3 88 89 94
3 94 89 95
3 88 96 90
3 88 94 96
3 97 53 49
3 90 97 49
3 96 97 90
3 98 54 53
3 98 53 97
3 99 55 54
3 99 54 98
3 91 52 55
3 99 91 55
3 100 91 99
3 102 92 101
3 92 100 101
3 92 91 100
3 92 102 93
3 95 103 94
3 105 104 103
3 104 94 103
3 104 96 94
3 96 106 97
3 96 104 106
3 97 107 98
3 97 106 107
3 98 108 99
3 98 107 108
3 99 109 100
3 99 108 109
3 101 100 110
3 110 100 109
3 105 111 104
3 113 112 111
3 112 104 111
3 112 106 104
3 106 114 107
3 106 112 114
3 107 115 108
3 107 114 115
3 117 109 116
3 109 115 116
3 109 108 115
3 109 117 110
3 113 118 112
3 112 118 114
3 114 118 119
3 114 119 115
3 115 119 120
3 115 120 116
3 122 121 57
3 57 121 56
3 123 57 58
3 123 122 57
3 124 58 60
3 124 123 58
3 126 125 62
3 125 60 62
3 125 124 60
3 128 127 126
3 126 127 125
3 128 129 127
3 131 130 64
3 64 130 63
3 64 56 121
3 64 121 131
3 65 126 62
3 126 65 67
3 126 67 128
3 133 132 69
3 69 132 67
3 132 129 67
3 129 128 67
3 133 134 132
3 130 70 63
3 135 70 130
3 71 133 69
3 136 134 133
3 71 136 133
3 73 136 71
3 73 75 136
3 136 75 137
3 135 138 70
3 70 138 76
3 77 76 138
3 77 138 139
3 140 137 75
3 140 75 79
3 79 81 140
3 140 81 141
3 82 77 142
3 77 143 142
3 77 139 143
3 142 84 82
3 87 141 81
3 87 144 141
3 142 143 145
3 145 143 146
3 145 89 84
3 145 84 142
3 93 148 147
3 144 93 147
3 87 93 144
3 148 149 147
3 145 146 150
3 150 146 151
3 150 95 89
3 150 89 145
3 101 152 102
3 148 93 102
3 152 148 102
3 153 148 152
3 149 148 154
3 154 148 153
3 150 151 155
3 155 151 156
3 157 103 95
3 150 157 95
3 155 157 150
3 157 105 103
3 110 158 152
3 110 152 101
3 152 159 153
3 152 158 159
3 154 153 160
3 160 153 159
3 155 156 161
3 161 156 162
3 155 163 157
3 155 161 163
3 164 111 105
3 157 164 105
3 163 164 157
3 164 113 111
3 116 165 117
3 158 110 117
3 165 158 117
3 166 158 165
3 158 167 159
3 158 166 167
3 160 159 168
3 168 159 167
3 162 169 161
3 171 170 169
3 170 161 169
3 170 163 161
3 163 172 164
3 163 170 172
3 173 118 113
3 164 173 113
3 172 173 164
3 174 119 118
3 174 118 173
3 175 120 119
3 175 119 174
3 165 116 120
3 175 165 120
3 176 165 175
3 165 177 166
3 165 176 177
3 179 167 178
3 167 177 178
3 167 166 177
3 167 179 168
3 171 180 170
3 182 181 180
3 181 170 180
3 181 172 170
3 172 183 173
3 172 181 183
3 173 184 174
3 173 183 184
3 174 185 175
3 174 184 185
3 175 186 176
3 175 185 186
3 176 187 177
3 176 186 187
3 178 177 188
3 188 177 187
3 182 189 181
3 181 189 183
3 183 189 190
3 192 191 190
3 191 183 190
3 191 184 183
3 184 193 185
3 184 191 193
3 185 194 186
3 185 193 194
3 196 187 195
3 187 194 195
3 187 186 194
3 187 196 188
3 192 197 191
3 191 197 193
3 193 197 198
3 193 198 194
3 194 198 199
3 194 199 195
3 201 200 122
3 122 200 121
3 202 122 123
3 202 201 122
3 203 123 124
3 203 202 123
3 204 124 125
3 204 203 124
3 205 125 127
3 205 204 125
3 127 129 205
3 205 129 206
3 207 130 131
3 208 207 131
3 121 208 131
3 200 208 121
3 209 206 129
3 209 129 132
3 132 134 209
3 209 134 210
3 212 211 207
3 211 130 207
3 211 135 130
3 212 207 208
3 213 210 134
3 213 134 136
3 136 137 213
3 213 137 214
3 138 135 215
3 135 216 215
3 135 211 216
3 215 139 138
3 217 214 137
3 217 137 140
3 140 141 217
3 217 141 218
3 216 219 215
3 139 215 219
3 220 139 219
3 143 139 220
3 144 218 141
3 144 221 218
3 220 146 143
3 222 146 220
3 223 221 144
3 223 144 147
3 147 149 223
3 223 149 224
3 222 151 146
3 225 151 222
3 154 224 149
3 154 226 224
3 225 156 151
3 227 156 225
3 160 226 154
3 160 228 226
3 227 162 156
3 229 162 227
3 168 231 230
3 228 168 230
3 160 168 228
3 231 232 230
3 169 162 233
3 162 234 233
3 162 229 234
3 233 171 169
3 178 235 179
3 231 168 179
3 235 231 179
3 236 231 235
3 232 231 237
3 237 231 236
3 234 238 233
3 238 240 239
3 238 239 180
3 233 238 180
3 171 233 180
3 239 182 180
3 188 241 235
3 188 235 178
3 243 236 242
3 236 241 242
3 236 235 241
3 236 243 237
3 240 244 239
3 244 246 245
3 244 245 189
3 239 244 189
3 182 239 189
3 247 190 189
3 247 189 245
3 247 192 190
3 195 248 196
3 241 188 196
3 248 241 196
3 249 241 248
3 242 241 250
3 250 241 249
3 246 251 245
3 253 252 251
3 252 245 251
3 252 247 245
3 254 197 192
3 247 254 192
3 252 254 247
3 255 198 197
3 255 197 254
3 256 199 198
3 256 198 255
3 248 195 199
3 256 248 199
3 257 248 256
3 259 249 258
3 249 257 258
3 249 248 257
3 249 259 250
3 253 260 252
3 252 260 254
3 254 260 261
3 263 262 261
3 262 254 261
3 262 255 254
3 255 264 256
3 255 262 264
3 266 257 265
3 257 264 265
3 257 256 264
3 257 266 258
3 263 267 262
3 262 267 264
3 264 267 268
3 264 268 265
3 269 200 201
3 269 201 270
3 201 271 270
3 201 202 271
3 272 202 203
3 272 271 202
3 273 203 204
3 273 272 203
3 274 204 205
3 274 273 204
3 205 206 274
3 274 206 275
3 277 276 269
3 276 200 269
3 276 208 200
3 277 269 270
3 278 275 206
3 278 206 209
3 209 210 278
3 278 210 279
3 281 280 212
3 212 280 211
3 212 208 276
3 212 276 281
3 282 279 210
3 282 210 213
3 213 214 282
3 282 214 283
3 280 216 211
3 284 216 280
3 285 283 214
3 285 214 217
3 217 218 285
3 285 218 286
3 219 216 287
3 216 288 287
3 216 284 288
3 287 220 219
3 221 286 218
3 221 289 286
3 288 290 287
3 220 287 290
3 291 220 290
3 222 220 291
3 292 289 221
3 292 221 223
3 223 224 292
3 292 224 293
3 291 225 222
3 294 225 291
3 226 293 224
3 226 295 293
3 294 227 225
3 296 227 294
3 228 295 226
3 228 297 295
3 296 229 227
3 298 229 296
3 299 297 228
3 299 228 230
3 230 232 299
3 299 232 300
3 298 234 229
3 301 234 298
3 237 300 232
3 237 302 300
3 238 234 303
3 234 304 303
3 234 301 304
3 303 240 238
3 242 305 243
3 305 306 243
3 306 237 243
3 306 302 237
3 304 307 303
3 307 309 308
3 307 308 244
3 303 307 244
3 240 303 244
3 308 246 244
3 250 310 305
3 250 305 242
3 306 305 311
3 311 305 310
3 309 312 308
3 312 314 313
3 312 313 251
3 308 312 251
3 246 308 251
3 313 253 251
3 258 315 259
3 315 316 259
3 259 316 250
3 316 317 250
3 317 310 250
3 310 317 311
3 313 314 318
3 318 314 319
3 320 260 253
3 313 320 253
3 318 320 313
3 321 261 260
3 321 260 320
3 321 263 261
3 265 322 266
3 322 323 266
3 266 323 258
3 323 324 258
3 324 315 258
3 315 324 316
3 319 325 318
3 327 326 325
3 326 318 325
3 326 320 318
3 320 328 321
3 320 326 328
3 329 267 263
3 321 329 263
3 328 329 321
3 330 268 267
3 330 267 329
3 322 265 268
3 330 322 268
3 331 322 330
3 323 322 332
3 332 322 331
3 327 333 326
3 335 334 333
3 334 326 333
3 334 328 326
3 328 336 329
3 328 334 336
3 338 330 337
3 330 336 337
3 330 329 336
3 330 338 331
3 331 338 339
3 331 339 332
3 335 340 334
3 334 340 336
3 336 340 341
3 336 341 337
3 342 270 271
3 272 343 271
3 271 343 342
3 343 272 344
3 272 345 344
3 272 273 345
3 347 345 346
3 345 274 346
3 345 273 274
3 275 346 274
3 349 348 277
3 277 348 276
3 277 270 342
3 350 277 342
3 349 277 350
3 350 342 343
3 350 343 351
3 351 343 344
3 352 347 346
3 352 346 275
3 278 352 275
3 353 352 278
3 278 279 353
3 353 279 354
3 356 355 281
3 281 355 280
3 281 276 348
3 281 348 356
3 357 354 279
3 357 279 282
3 282 283 357
3 357 283 358
3 355 284 280
3 359 284 355
3 360 358 283
3 360 283 285
3 285 286 360
3 360 286 361
3 359 288 284
3 362 288 359
3 289 361 286
3 289 363 361
3 290 288 364
3 288 365 364
3 288 362 365
3 364 291 290
3 366 363 289
3 366 289 292
3 292 293 366
3 366 293 367
3 364 365 368
3 368 365 369
3 368 294 291
3 368 291 364
3 295 367 293
3 295 370 367
3 368 369 371
3 371 369 372
3 371 296 294
3 371 294 368
3 297 370 295
3 297 373 370
3 372 374 371
3 296 371 374
3 375 296 374
3 298 296 375
3 297 299 376
3 377 297 376
3 373 297 377
3 300 376 299
3 375 301 298
3 378 301 375
3 379 377 376
3 376 300 379
3 300 380 379
3 300 302 380
3 378 304 301
3 381 304 378
3 384 383 382
3 383 380 382
3 380 306 382
3 380 302 306
3 381 385 304
3 304 385 307
3 309 307 385
3 309 385 386
3 384 382 387
3 384 387 388
3 311 387 306
3 306 387 382
3 312 309 389
3 309 390 389
3 309 386 390
3 389 314 312
3 388 387 317
3 316 388 317
3 391 388 316
3 317 387 311
3 390 392 389
3 314 389 392
3 393 314 392
3 319 314 393
3 323 394 324
3 394 395 324
3 395 316 324
3 395 391 316
3 325 319 396
3 319 397 396
3 319 393 397
3 396 327 325
3 399 398 394
3 323 399 394
3 332 399 323
3 394 398 395
3 397 400 396
3 400 402 401
3 400 401 333
3 396 400 333
3 327 396 333
3 401 335 333
3 337 403 338
3 404 339 338
3 404 338 403
3 404 405 339
3 405 332 339
3 405 399 332
3 402 406 401
3 401 406 335
3 406 340 335
3 406 407 340
3 340 408 341
3 407 408 340
3 337 341 403
3 341 409 403
3 341 408 409
3 403 409 404
3 404 409 410
3 404 410 405
3 411 344 345
3 347 411 345
3 412 348 349
3 350 413 349
3 349 413 412
3 413 350 414
3 350 415 414
3 350 351 415
3 351 344 411
3 416 351 411
3 415 351 416
3 416 411 347
3 352 416 347
3 417 416 352
3 419 417 418
3 417 353 418
3 417 352 353
3 354 418 353
3 420 355 356
3 421 420 356
3 421 356 348
3 422 421 348
3 412 422 348
3 422 412 413
3 422 413 423
3 423 413 414
3 424 419 418
3 424 418 354
3 357 424 354
3 425 424 357
3 357 358 425
3 425 358 426
3 427 359 420
3 420 359 355
3 420 421 428
3 420 428 427
3 358 360 429
3 430 358 429
3 426 358 430
3 361 429 360
3 431 362 427
3 427 362 359
3 427 428 432
3 427 432 431
3 433 430 429
3 429 361 433
3 361 434 433
3 361 363 434
3 435 365 431
3 431 365 362
3 431 432 436
3 431 436 435
3 437 434 363
3 437 363 366
3 366 367 437
3 437 367 438
3 440 439 435
3 439 365 435
3 439 369 365
3 440 435 436
3 370 438 367
3 370 441 438
3 439 372 369
3 442 372 439
3 373 441 370
3 373 443 441
3 374 372 444
3 372 445 444
3 372 442 445
3 444 375 374
3 377 443 373
3 377 446 443
3 445 447 444
3 375 444 447
3 448 375 447
3 378 375 448
3 377 379 449
3 450 377 449
3 446 377 450
3 380 449 379
3 448 381 378
3 451 381 448
3 383 384 452
3 449 453 450
3 453 449 454
3 449 380 454
3 383 452 454
3 383 454 380
3 385 381 455
3 381 456 455
3 381 451 456
3 455 386 385
3 458 457 452
3 384 458 452
3 388 458 384
3 452 457 454
3 455 456 459
3 459 456 460
3 459 390 386
3 459 386 455
3 391 458 388
3 391 461 458
3 460 462 459
3 462 464 463
3 462 463 392
3 459 462 392
3 390 459 392
3 463 393 392
3 395 461 391
3 395 465 461
3 463 464 466
3 466 464 467
3 466 397 393
3 466 393 463
3 469 468 398
3 469 398 399
3 395 398 465
3 465 398 468
3 467 470 466
3 470 472 471
3 470 471 400
3 466 470 400
3 397 466 400
3 471 402 400
3 405 469 399
3 405 473 469
3 472 474 471
3 474 476 475
3 474 475 406
3 471 474 406
3 402 471 406
3 477 407 406
3 477 406 475
3 478 408 407
3 478 407 477
3 479 409 408
3 479 408 478
3 409 479 480
3 481 409 480
3 410 409 481
3 405 410 473
3 473 410 481
3 476 482 475
3 475 482 477
3 477 482 483
3 477 483 478
3 478 483 484
3 478 484 479
3 479 484 485
3 479 485 480
3 486 414 415
3 416 487 415
3 415 487 486
3 417 488 416
3 416 488 487
3 419 488 417
3 489 421 422
3 423 490 422
3 422 490 489
3 491 490 423
3 491 423 414
3 492 491 414
3 486 492 414
3 492 486 487
3 492 487 493
3 493 487 488
3 493 488 494
3 494 488 419
3 424 494 419
3 495 494 424
3 497 495 496
3 495 425 496
3 495 424 425
3 426 496 425
3 498 428 489
3 489 428 421
3 490 500 499
3 498 490 499
3 489 490 498
3 500 490 491
3 501 497 496
3 496 426 501
3 426 502 501
3 426 430 502
3 503 432 498
3 498 432 428
3 498 499 504
3 498 504 503
3 505 502 430
3 505 430 433
3 433 434 505
3 505 434 506
3 508 507 503
3 507 432 503
3 507 436 432
3 508 503 504
3 434 437 509
3 510 434 509
3 506 434 510
3 438 509 437
3 512 511 440
3 440 511 439
3 440 436 507
3 440 507 512
3 510 509 513
3 510 513 514
3 441 513 438
3 438 513 509
3 511 442 439
3 515 442 511
3 516 514 513
3 513 441 516
3 441 517 516
3 441 443 517
3 519 445 518
3 445 515 518
3 445 442 515
3 520 519 518
3 446 517 443
3 446 521 517
3 523 447 522
3 447 445 522
3 522 445 519
3 524 522 519
3 519 520 524
3 447 523 448
3 450 521 446
3 450 525 521
3 522 526 523
3 448 523 526
3 527 448 526
3 451 448 527
3 450 453 528
3 529 450 528
3 525 450 529
3 454 528 453
3 527 456 451
3 530 456 527
3 529 528 457
3 458 529 457
3 531 529 458
3 457 528 454
3 530 460 456
3 532 460 530
3 461 531 458
3 461 533 531
3 462 460 534
3 460 535 534
3 460 532 535
3 534 464 462
3 465 533 461
3 465 536 533
3 534 535 537
3 537 535 538
3 537 467 464
3 537 464 534
3 540 539 468
3 540 468 469
3 465 468 536
3 536 468 539
3 538 541 537
3 541 543 542
3 541 542 470
3 537 541 470
3 467 537 470
3 542 472 470
3 546 545 544
3 545 540 544
3 540 473 544
3 540 469 473
3 543 547 542
3 547 549 548
3 547 548 474
3 542 547 474
3 472 542 474
3 548 476 474
3 552 551 550
3 550 551 546
3 550 546 544
3 480 550 544
3 481 480 544
3 481 544 473
3 549 553 548
3 553 555 554
3 553 554 482
3 548 553 482
3 476 548 482
3 556 483 482
3 556 482 554
3 483 556 557
3 558 483 557
3 484 483 558
3 550 485 552
3 485 558 552
3 485 484 558
3 485 550 480
3 555 559 554
3 554 559 556
3 556 559 560
3 556 560 557
3 561 491 492
3 493 562 492
3 492 562 561
3 494 563 493
3 493 563 562
3 495 564 494
3 494 564 563
3 497 564 495
3 565 499 500
3 566 565 500
3 566 500 491
3 567 566 491
3 561 567 491
3 567 561 562
3 567 562 568
3 570 569 568
3 562 570 568
3 563 570 562
3 571 563 564
3 570 563 571
3 501 572 497
3 572 564 497
3 572 571 564
3 502 572 501
3 573 504 565
3 565 504 499
3 565 566 574
3 565 574 573
3 575 569 570
3 575 570 571
3 575 571 576
3 576 571 572
3 576 572 577
3 579 577 578
3 578 577 505
3 577 572 505
3 572 502 505
3 506 578 505
3 580 507 508
3 581 580 508
3 581 508 504
3 582 581 504
3 573 582 504
3 582 573 574
3 583 579 578
3 578 506 583
3 506 584 583
3 506 510 584
3 586 585 512
3 512 585 511
3 512 507 580
3 587 512 580
3 586 512 587
3 587 580 581
3 514 584 510
3 514 588 584
3 585 515 511
3 589 515 585
3 590 588 514
3 590 514 516
3 516 517 590
3 590 517 591
3 518 515 592
3 515 593 592
3 515 589 593
3 592 520 518
3 521 591 517
3 521 594 591
3 596 595 593
3 595 522 593
3 524 592 593
3 524 593 522
3 524 520 592
3 595 596 597
3 525 594 521
3 525 598 594
3 600 526 599
3 526 522 599
3 599 522 595
3 601 599 595
3 595 597 601
3 526 600 527
3 529 598 525
3 529 602 598
3 600 599 603
3 603 599 604
3 603 530 527
3 603 527 600
3 531 602 529
3 531 605 602
3 604 606 603
3 530 603 606
3 607 530 606
3 532 530 607
3 533 605 531
3 533 608 605
3 611 610 609
3 607 611 609
3 535 607 609
3 532 607 535
3 536 608 533
3 536 612 608
3 609 610 613
3 613 610 614
3 613 538 535
3 613 535 609
3 616 615 539
3 616 539 540
3 536 539 612
3 612 539 615
3 613 614 617
3 617 614 618
3 619 541 538
3 613 619 538
3 617 619 613
3 619 543 541
3 621 620 545
3 621 545 546
3 540 545 616
3 616 545 620
3 618 622 617
3 624 623 622
3 623 617 622
3 623 619 617
3 625 547 543
3 619 625 543
3 623 625 619
3 625 549 547
3 627 626 551
3 627 551 552
3 546 551 621
3 621 551 626
3 624 628 623
3 623 628 625
3 625 628 629
3 629 631 630
3 629 630 553
3 625 629 553
3 549 625 553
3 555 553 630
3 634 633 632
3 636 635 634
3 636 634 632
3 558 557 635
3 636 558 635
3 637 558 636
3 552 558 627
3 627 558 637
3 631 638 630
3 633 634 638
3 634 559 638
3 555 630 638
3 555 638 559
3 559 634 560
3 560 634 635
3 560 635 557
3 639 566 567
3 568 640 567
3 567 640 639
3 569 640 568
3 641 574 639
3 639 574 566
3 642 639 640
3 641 639 642
3 575 643 569
3 643 640 569
3 643 642 640
3 576 644 575
3 575 644 643
3 577 645 576
3 576 645 644
3 579 645 577
3 647 646 582
3 582 646 581
3 582 574 641
3 648 582 641
3 647 582 648
3 648 641 642
3 648 642 649
3 651 650 649
3 642 651 649
3 643 651 642
3 652 643 644
3 651 643 652
3 653 644 645
3 652 644 653
3 583 654 579
3 654 645 579
3 654 653 645
3 584 654 583
3 656 655 586
3 586 655 585
3 657 586 587
3 657 656 586
3 587 581 646
3 587 646 657
3 658 650 651
3 658 651 652
3 658 652 659
3 659 652 653
3 659 653 660
3 662 661 660
3 653 662 660
3 654 662 653
3 588 662 584
3 584 662 654
3 655 589 585
3 663 589 655
3 664 661 662
3 666 664 665
3 665 664 590
3 664 662 590
3 662 588 590
3 591 665 590
3 663 593 589
3 667 593 663
3 666 665 668
3 666 668 669
3 594 668 591
3 591 668 665
3 596 593 670
3 593 671 670
3 593 667 671
3 670 597 596
3 672 669 668
3 668 594 672
3 594 673 672
3 594 598 673
3 670 671 601
3 671 599 601
3 671 674 599
3 670 601 597
3 602 673 598
3 602 675 673
3 674 604 599
3 676 604 674
3 605 675 602
3 605 677 675
3 606 604 678
3 604 679 678
3 604 676 679
3 678 607 606
3 608 677 605
3 608 680 677
3 678 679 611
3 679 610 611
3 679 681 610
3 678 611 607
3 612 680 608
3 612 682 680
3 681 614 610
3 683 614 681
3 685 684 615
3 685 615 616
3 612 615 682
3 682 615 684
3 683 618 614
3 686 618 683
3 688 687 620
3 688 620 621
3 616 620 685
3 685 620 687
3 622 618 689
3 618 690 689
3 618 686 690
3 689 624 622
3 693 692 691
3 626 627 691
3 692 626 691
3 694 626 692
3 621 626 688
3 688 626 694
3 690 695 689
3 689 695 624
3 695 628 624
3 695 696 628
3 696 698 697
3 629 696 697
3 628 696 629
3 631 629 697
3 701 700 699
3 632 633 701
3 699 632 701
3 702 632 699
3 632 703 636
3 702 703 632
3 691 637 693
3 637 703 693
3 637 636 703
3 637 691 627
3 698 704 697
3 700 701 704
3 701 638 704
3 631 697 704
3 631 704 638
3 638 701 633
3 705 646 647
3 648 706 647
3 647 706 705
3 649 707 648
3 648 707 706
3 650 707 649
3 708 655 656
3 657 709 656
3 656 709 708
3 646 705 657
3 705 709 657
3 705 710 709
3 711 705 706
3 710 705 711
3 712 706 707
3 711 706 712
3 658 713 650
3 713 707 650
3 713 712 707
3 659 714 658
3 658 714 713
3 660 715 659
3 659 715 714
3 661 715 660
3 716 663 708
3 708 663 655
3 717 708 709
3 716 708 717
3 718 709 710
3 717 709 718
3 719 710 711
3 718 710 719
3 712 721 720
3 719 712 720
3 711 712 719
3 721 712 713
3 721 713 722
3 724 723 722
3 713 724 722
3 714 724 713
3 725 714 715
3 724 714 725
3 664 726 661
3 726 715 661
3 726 725 715
3 666 726 664
3 727 667 716
3 716 667 663
3 728 716 717
3 727 716 728
3 729 717 718
3 728 717 729
3 719 731 730
3 729 719 730
3 718 719 729
3 731 719 720
3 732 723 724
3 732 724 725
3 732 725 733
3 735 734 733
3 725 735 733
3 726 735 725
3 669 735 666
3 666 735 726
3 736 671 727
3 727 671 667
3 737 727 728
3 736 727 737
3 738 728 729
3 737 728 738
3 729 730 739
3 729 739 738
3 734 735 740
3 734 740 741
3 740 735 669
3 742 740 669
3 672 742 669
3 743 740 742
3 672 673 742
3 742 673 744
3 746 745 736
3 745 671 736
3 745 674 671
3 748 747 746
3 736 748 746
3 737 748 736
3 738 750 749
3 748 738 749
3 737 738 748
3 750 738 739
3 741 740 751
3 741 751 752
3 740 743 753
3 740 753 751
3 675 744 673
3 675 754 744
3 745 676 674
3 755 676 745
3 756 747 748
3 756 748 749
3 752 751 757
3 752 757 758
3 751 753 759
3 751 759 757
3 677 754 675
3 677 760 754
3 755 679 676
3 761 679 755
3 762 758 757
3 762 757 759
3 680 760 677
3 680 763 760
3 761 681 679
3 764 681 761
3 767 766 765
3 766 763 765
3 763 682 765
3 763 680 682
3 764 683 681
3 768 683 764
3 767 765 684
3 685 767 684
3 769 767 685
3 684 765 682
3 771 686 770
3 686 768 770
3 686 683 768
3 772 771 770
3 774 773 687
3 774 687 688
3 685 687 769
3 769 687 773
3 775 690 771
3 771 690 686
3 771 772 776
3 777 771 776
3 775 771 777
3 778 777 776
3 781 780 779
3 692 693 779
3 780 692 779
3 782 692 780
3 692 783 694
3 782 783 692
3 688 694 774
3 774 694 783
3 775 695 690
3 695 775 696
3 696 775 777
3 785 784 698
3 785 698 696
3 778 785 696
3 777 778 696
3 699 700 784
3 785 699 784
3 786 699 785
3 699 787 702
3 786 787 699
3 779 703 781
3 703 787 781
3 703 702 787
3 703 779 693
3 784 704 698
3 704 784 700
3 788 720 721
3 722 789 721
3 721 789 788
3 723 789 722
3 790 730 731
3 720 788 731
3 788 790 731
3 788 791 790
3 792 788 789
3 791 788 792
3 732 793 723
3 793 789 723
3 793 792 789
3 733 794 732
3 732 794 793
3 734 794 733
3 795 739 790
3 790 739 730
3 796 790 791
3 795 790 796
3 797 791 792
3 796 791 797
3 798 792 793
3 797 792 798
3 799 793 794
3 798 793 799
3 741 799 734
3 734 799 794
3 800 743 742
3 744 800 742
3 801 745 746
3 747 801 746
3 802 749 750
3 739 795 750
3 795 802 750
3 795 803 802
3 796 805 804
3 803 796 804
3 795 796 803
3 807 806 805
3 796 807 805
3 797 807 796
3 808 797 798
3 807 797 808
3 809 798 799
3 808 798 809
3 752 809 741
3 741 809 799
3 810 753 800
3 800 753 743
3 754 810 744
3 744 810 800
3 811 755 801
3 801 755 745
3 756 812 747
3 812 801 747
3 812 811 801
3 749 802 756
3 802 812 756
3 802 813 812
3 803 815 814
3 813 803 814
3 802 803 813
3 815 803 804
3 806 807 816
3 806 816 817
3 818 807 808
3 816 807 818
3 819 808 809
3 818 808 819
3 758 819 752
3 752 819 809
3 820 759 810
3 810 759 753
3 760 820 754
3 754 820 810
3 821 761 811
3 811 761 755
3 822 811 812
3 821 811 822
3 813 824 823
3 822 813 823
3 812 813 822
3 824 813 814
3 827 826 825
3 825 826 817
3 816 825 817
3 828 825 816
3 829 816 818
3 828 816 829
3 830 818 819
3 829 818 830
3 762 831 758
3 831 819 758
3 831 830 819
3 759 820 762
3 820 831 762
3 820 832 831
3 763 832 760
3 760 832 820
3 833 764 821
3 821 764 761
3 834 821 822
3 833 821 834
3 822 823 835
3 822 835 834
3 838 837 836
3 836 837 827
3 825 836 827
3 839 836 825
3 840 825 828
3 839 825 840
3 841 828 829
3 840 828 841
3 842 829 830
3 841 829 842
3 843 830 831
3 842 830 843
3 767 843 766
3 843 832 766
3 843 831 832
3 766 832 763
3 844 768 833
3 833 768 764
3 845 833 834
3 844 833 845
3 834 835 846
3 847 834 846
3 845 834 847
3 847 846 838
3 836 847 838
3 848 847 836
3 849 836 839
3 848 836 849
3 850 839 840
3 849 839 850
3 851 840 841
3 850 840 851
3 852 841 842
3 851 841 852
3 853 842 843
3 852 842 853
3 769 853 767
3 767 853 843
3 844 770 768
3 770 844 772
3 844 854 772
3 844 845 854
3 855 845 847
3 854 845 855
3 856 847 848
3 855 847 856
3 857 848 849
3 856 848 857
3 858 849 850
3 857 849 858
3 859 850 851
3 858 850 859
3 860 851 852
3 859 851 860
3 774 860 773
3 860 853 773
3 860 852 853
3 773 853 769
3 854 776 772
3 776 854 778
3 854 861 778
3 854 855 861
3 862 855 856
3 861 855 862
3 863 856 857
3 862 856 863
3 781 863 780
3 863 858 780
3 863 857 858
3 780 858 782
3 782 858 859
3 782 859 783
3 783 859 860
3 783 860 774
3 861 785 778
3 785 861 786
3 786 861 862
3 786 862 787
3 787 862 863
3 787 863 781
3 864 804 805
3 806 864 805
3 865 814 815
3 804 864 815
3 864 865 815
3 864 866 865
3 817 866 806
3 806 866 864
3 867 823 824
3 814 865 824
3 865 867 824
3 865 868 867
3 827 868 826
3 868 866 826
3 868 865 866
3 826 866 817
3 869 835 867
3 867 835 823
3 838 869 837
3 869 868 837
3 869 867 868
3 837 868 827
3 869 846 835
3 846 869 838
