ply
format ascii 1.0
comment None
element vertex 876
property float x
property float y
property float z
element face 1748
property list uchar int vertex_indices
end_header
26.980 57.603 31.628
27.069 57.613 31.503
27.101 57.439 31.607
27.064 57.581 31.899
27.149 57.971 31.735
27.879 55.279 33.483
28.065 55.414 32.817
28.362 54.903 33.109
28.424 54.543 33.842
27.780 55.146 34.331
28.172 54.448 34.756
27.685 55.128 35.174
28.018 54.506 35.612
27.662 55.182 35.924
27.932 54.719 36.287
27.572 56.203 33.069
28.053 55.947 32.228
27.493 56.027 34.099
27.471 55.965 34.976
27.495 55.945 35.767
27.751 55.233 36.531
27.603 55.882 36.467
27.823 55.693 37.037
27.855 57.099 31.246
28.120 57.486 30.884
28.352 57.078 30.973
28.264 56.508 31.484
27.450 57.025 32.022
27.277 57.227 33.149
27.325 57.020 34.023
27.375 56.936 34.934
27.448 56.891 35.760
27.570 56.796 36.515
27.790 56.554 37.226
27.501 57.623 31.296
28.361 58.159 30.722
27.164 58.112 32.762
27.246 58.035 34.004
27.367 57.964 34.974
27.492 57.916 35.833
27.628 57.826 36.613
27.816 57.630 37.360
27.661 58.496 31.269
27.311 59.051 32.197
27.828 59.407 31.350
27.189 59.261 33.254
27.246 59.069 34.064
27.403 59.003 35.042
27.577 58.955 35.930
27.738 58.873 36.724
27.906 58.707 37.474
27.474 60.183 32.188
28.069 60.359 31.369
27.241 60.110 33.157
27.270 60.091 34.152
27.438 60.037 35.108
27.651 59.987 36.010
27.845 59.901 36.817
28.013 59.745 37.558
27.531 61.169 32.247
27.949 61.285 31.678
27.277 61.107 33.133
27.271 61.082 34.133
27.440 61.060 35.128
27.681 61.010 36.051
27.911 60.912 36.873
28.097 60.748 37.607
27.573 62.084 32.313
28.157 61.992 31.683
27.287 62.088 33.131
27.249 62.087 34.093
27.406 62.078 35.091
27.663 62.031 36.039
27.926 61.915 36.883
28.140 61.727 37.621
27.690 62.999 32.326
28.344 62.927 31.730
27.328 63.055 33.120
27.238 63.077 34.041
27.365 63.084 35.013
27.625 63.053 35.971
27.913 62.925 36.848
28.153 62.694 37.602
27.847 63.955 32.303
28.540 63.995 31.726
27.441 64.030 33.073
27.292 64.050 33.972
27.363 64.038 34.897
27.603 64.045 35.826
27.921 63.966 36.757
28.179 63.663 37.560
27.991 64.718 32.239
27.646 65.040 32.954
28.038 65.564 32.450
27.441 65.003 33.868
27.469 64.963 34.792
27.602 64.821 35.572
27.964 65.059 36.491
28.319 64.774 37.568
27.797 65.921 33.098
28.121 66.363 32.857
27.666 65.869 33.736
27.679 65.843 34.617
27.862 65.751 35.644
28.295 66.077 36.612
28.315 65.586 37.128
27.975 66.517 33.511
27.975 66.573 34.297
28.076 66.553 35.183
28.251 66.520 35.941
28.883 54.012 34.563
29.311 54.174 33.919
29.593 53.886 34.577
29.331 53.756 35.283
28.626 53.976 35.418
29.146 53.722 36.203
28.475 54.135 36.462
29.107 53.727 37.228
28.716 54.152 37.626
29.191 53.730 38.157
29.011 54.157 38.541
29.302 53.775 38.760
28.775 55.210 32.529
28.921 54.593 33.229
28.147 54.913 37.139
28.596 54.911 38.234
29.359 54.189 39.169
29.031 54.855 39.077
29.388 54.870 39.572
28.585 55.806 31.872
29.044 56.145 31.570
29.005 55.620 31.949
28.192 55.996 37.952
28.734 55.802 38.968
29.231 55.637 39.667
28.886 57.613 30.673
28.938 56.875 31.064
28.107 57.288 38.124
28.527 56.926 38.946
29.038 56.660 39.726
29.116 58.215 30.454
28.131 58.434 38.245
28.450 58.063 39.027
28.876 57.705 39.773
28.294 58.891 30.800
29.330 58.873 30.395
28.195 59.508 38.309
28.473 59.213 39.185
28.794 58.676 39.851
28.553 59.541 30.768
29.228 59.621 30.517
28.257 60.517 38.315
28.444 60.247 39.062
28.782 59.404 39.979
28.693 60.039 39.823
28.986 59.861 40.440
28.795 60.104 30.798
28.749 60.912 31.144
28.304 61.487 38.301
28.462 61.213 38.999
28.671 60.922 39.746
28.988 60.607 40.505
29.045 61.866 31.313
28.329 62.414 38.256
28.481 62.162 38.905
28.665 61.894 39.634
28.940 61.581 40.425
29.213 62.860 31.385
28.359 63.304 38.215
28.484 62.953 38.743
28.678 62.948 39.428
28.919 62.574 40.241
29.394 63.715 31.345
28.397 64.064 38.131
28.600 63.851 38.819
28.828 63.793 39.530
28.938 63.402 40.017
28.360 64.952 31.933
29.138 64.874 31.502
28.544 64.544 38.331
28.741 64.659 38.757
28.864 64.385 39.255
28.512 65.516 31.956
28.479 66.171 32.278
28.464 65.998 37.166
28.581 65.725 37.587
28.703 65.205 38.244
28.351 66.897 33.188
28.562 66.763 32.678
28.391 67.105 33.846
28.426 67.166 34.752
28.514 67.074 35.628
28.630 66.821 36.437
28.690 66.370 37.174
29.017 67.418 33.063
28.899 67.670 34.208
28.912 67.643 35.216
28.915 67.387 36.062
29.795 54.025 34.225
30.178 54.115 34.606
29.974 53.898 35.230
29.792 53.796 36.052
29.657 53.741 37.023
29.574 53.701 37.964
29.515 53.700 38.673
29.462 53.787 39.003
29.661 54.033 39.159
29.214 54.776 32.967
29.575 54.577 33.431
29.985 54.323 34.022
29.686 54.625 39.606
29.667 55.407 39.968
29.983 55.176 39.888
29.289 55.784 31.866
29.442 55.555 32.296
29.612 55.105 32.944
29.628 56.455 40.298
30.071 55.980 40.270
29.578 57.380 30.874
29.679 56.763 31.381
29.693 56.104 31.949
29.393 57.455 40.411
30.122 56.769 40.665
29.918 57.364 40.832
30.396 57.400 40.970
29.959 58.211 30.477
30.394 57.542 31.252
29.245 58.374 40.494
29.766 58.136 40.979
30.211 57.948 41.169
30.138 58.732 30.131
30.424 58.823 30.025
30.423 58.671 30.127
29.132 59.230 40.555
29.668 59.002 41.133
30.235 58.651 41.399
30.359 58.962 30.237
29.983 59.460 30.473
29.514 60.089 41.241
30.234 59.576 41.743
29.511 60.123 30.699
29.951 60.795 31.068
29.360 61.259 41.215
30.106 60.312 41.967
29.899 61.013 41.901
30.453 60.813 42.291
30.053 61.892 31.297
29.292 62.332 41.066
29.803 62.043 41.828
30.365 61.666 42.318
30.128 62.938 31.274
29.255 63.351 40.730
29.792 63.232 41.655
30.397 62.766 42.296
30.145 64.015 31.130
29.204 64.363 40.044
29.692 64.204 41.102
30.194 64.173 41.818
30.293 63.619 42.180
29.988 64.974 31.113
29.060 65.207 39.036
29.524 65.460 39.815
29.776 65.069 40.646
30.239 64.926 41.360
28.928 65.863 31.806
29.659 65.910 31.412
29.025 66.132 38.043
29.495 66.171 38.993
29.801 66.117 39.713
29.992 65.835 40.347
30.254 65.556 40.950
29.149 66.671 32.088
29.764 66.716 31.619
29.185 67.183 37.028
29.524 66.911 38.149
29.792 66.839 38.830
29.880 66.562 39.356
29.949 67.525 31.981
29.750 68.179 32.921
30.260 68.427 32.327
29.375 68.088 33.694
29.436 68.280 34.653
29.386 67.997 35.922
29.635 67.978 36.807
29.745 67.680 37.596
29.983 67.463 38.452
30.123 68.693 32.911
30.449 68.917 32.575
29.864 68.677 33.677
29.899 68.905 34.513
29.825 68.760 35.376
29.881 68.580 36.335
30.047 68.408 37.220
30.187 68.137 38.006
30.334 69.122 33.174
30.224 69.286 33.981
30.426 54.257 35.217
30.333 54.217 35.910
30.213 54.182 36.877
30.071 54.134 37.887
29.877 54.032 38.699
30.318 55.029 33.844
30.494 54.515 34.388
30.633 54.495 34.870
30.799 54.837 34.869
30.736 54.956 35.607
30.604 54.769 36.616
30.640 55.082 37.827
30.329 54.775 38.825
30.010 54.609 39.397
30.266 55.951 32.924
30.702 55.904 34.004
30.705 54.851 34.491
30.800 55.454 34.768
30.954 56.246 35.780
30.890 55.769 36.873
30.969 55.950 37.856
30.959 55.884 38.455
31.076 56.316 38.962
30.800 55.746 39.078
30.400 55.575 39.772
30.355 56.769 32.050
30.794 56.863 32.851
30.885 56.670 33.728
30.976 56.570 34.781
31.029 56.995 35.531
31.020 57.106 36.067
31.040 57.651 36.416
31.027 56.950 36.747
31.082 56.664 37.624
31.065 56.488 39.462
31.138 56.994 39.890
30.862 56.424 39.924
30.544 56.675 40.503
30.743 58.165 30.855
31.054 58.031 31.395
31.022 57.612 32.243
31.139 57.464 33.406
31.117 57.402 34.399
31.079 57.386 35.147
31.068 57.685 36.927
31.096 58.130 36.748
31.146 57.511 37.467
30.990 57.205 40.432
30.772 57.464 40.878
30.710 58.169 41.217
30.555 58.806 30.103
30.760 58.661 30.499
31.120 59.032 35.184
31.166 58.865 35.013
31.199 59.139 35.001
31.122 58.912 35.311
31.160 58.100 37.218
30.807 59.108 41.619
30.318 59.922 30.779
30.946 59.266 30.832
30.951 60.069 31.251
31.155 59.186 35.299
30.818 59.813 42.015
30.529 60.185 42.167
31.039 60.523 42.250
30.893 61.009 31.522
30.856 61.281 42.439
31.053 62.139 31.590
30.951 62.071 42.461
30.945 63.250 31.241
31.094 62.938 42.448
30.886 63.940 30.961
31.191 64.299 30.797
31.475 63.738 31.044
30.585 64.100 42.204
30.756 63.583 42.390
30.635 64.594 30.877
31.139 64.977 30.680
31.031 64.117 42.226
30.877 64.699 41.862
30.478 65.493 30.926
31.111 65.891 30.637
30.252 66.595 40.000
30.545 66.190 40.767
30.899 65.650 41.350
30.412 66.603 31.158
31.237 66.872 30.634
30.175 67.153 39.244
30.689 67.407 39.858
30.875 66.908 40.555
31.166 66.487 41.077
30.810 67.627 31.195
30.586 68.221 31.728
31.211 68.533 31.275
30.598 68.103 38.959
31.046 68.034 39.800
31.339 67.610 40.413
31.387 67.050 40.880
30.754 68.820 32.015
31.257 69.273 31.772
30.241 69.449 34.934
30.231 69.271 35.961
30.287 69.026 36.808
30.680 69.032 37.866
31.050 68.939 38.873
31.197 68.606 39.507
30.820 69.408 32.578
30.614 69.659 33.439
30.536 69.849 34.225
30.861 70.169 33.736
30.600 70.063 34.891
30.594 69.962 35.648
30.743 69.794 36.724
31.349 70.076 37.737
31.417 69.623 38.609
31.507 69.186 39.331
30.906 70.437 34.404
30.954 70.567 35.247
31.059 70.534 36.135
31.271 70.484 36.913
30.739 54.630 34.643
31.125 56.520 38.424
31.060 57.636 35.764
31.246 57.351 38.306
31.240 57.073 39.213
31.171 58.411 31.067
31.489 58.515 31.850
31.394 58.285 33.114
31.269 58.065 34.087
31.156 58.298 35.132
31.108 58.296 36.156
31.345 58.273 37.940
31.456 58.083 39.067
31.320 57.838 40.121
31.061 57.881 40.816
31.307 58.749 31.073
31.621 58.987 31.441
31.815 59.012 31.935
31.816 59.366 31.999
31.677 59.268 32.809
31.362 58.926 34.299
31.205 59.136 35.797
31.282 58.821 36.989
31.482 58.950 37.821
31.692 59.051 38.662
31.737 58.940 39.995
31.314 58.744 41.009
31.574 60.190 32.140
31.573 59.460 31.519
31.732 60.242 33.172
31.590 59.885 34.012
31.341 59.666 35.082
31.340 59.865 35.767
31.463 59.939 36.515
31.663 59.633 37.693
31.974 59.821 38.577
32.078 59.695 39.470
32.108 59.695 40.333
32.194 60.106 40.849
31.849 59.569 40.976
31.389 59.780 41.728
31.475 61.256 32.070
31.821 61.219 32.957
31.743 60.799 33.934
31.576 60.483 34.706
31.542 60.660 35.636
31.688 60.818 36.477
31.835 60.540 37.252
32.019 60.297 38.077
31.958 60.276 41.481
31.614 60.558 42.009
31.475 61.347 42.241
31.762 61.966 32.270
32.014 61.987 32.848
32.036 61.916 33.342
32.118 62.268 33.795
31.920 61.638 33.898
31.761 61.378 34.794
31.776 61.586 35.573
31.782 61.385 36.124
31.566 62.315 42.273
31.902 63.009 31.747
32.070 62.449 32.509
32.046 62.239 34.493
31.954 62.108 35.225
31.619 63.010 42.257
32.022 62.620 41.894
32.008 63.339 41.835
31.771 64.438 30.701
32.045 63.782 31.107
31.361 63.603 42.279
31.719 64.271 41.840
31.647 65.275 30.467
31.683 65.268 41.559
31.815 66.121 30.245
31.689 66.148 41.317
31.831 67.061 30.191
32.438 67.183 29.755
32.109 66.620 29.961
31.686 66.773 41.125
32.014 67.661 30.134
32.385 67.970 29.960
31.550 67.815 30.599
31.526 68.345 40.068
32.028 68.025 40.446
31.912 67.304 40.837
32.038 68.164 30.285
31.868 68.606 30.666
31.755 69.195 31.144
31.615 68.852 39.796
32.023 68.723 40.082
31.391 69.898 32.203
31.722 69.708 31.571
31.081 70.085 33.018
31.657 70.097 38.346
31.864 70.037 38.699
31.991 69.639 39.241
31.909 69.172 39.713
32.008 70.327 31.799
31.641 70.553 32.614
32.169 70.899 32.213
31.384 70.778 33.625
31.409 71.098 34.690
31.479 71.143 35.669
31.605 71.015 36.549
31.803 70.747 37.354
32.093 70.397 38.234
32.088 71.251 32.933
32.070 71.677 34.006
32.007 71.717 35.126
32.158 71.573 36.158
32.117 71.208 36.935
31.841 59.155 31.695
32.332 60.498 38.994
32.343 60.286 40.132
32.073 61.486 36.893
32.286 61.046 37.936
32.763 61.466 38.838
32.612 61.057 39.943
32.329 60.834 40.999
31.962 60.939 41.774
32.223 62.526 33.169
32.123 62.247 36.052
32.366 62.219 36.820
32.709 62.082 37.680
33.069 62.032 38.507
33.133 61.953 39.084
33.263 62.245 39.475
32.939 61.868 39.872
32.594 61.591 40.731
32.134 61.744 41.644
32.301 62.917 32.551
32.552 63.224 33.098
32.390 62.972 34.003
32.316 62.909 35.152
32.441 63.016 35.909
32.723 63.015 36.701
33.228 63.074 37.710
33.204 62.480 38.228
33.143 62.485 40.062
33.138 63.183 40.385
32.623 62.565 40.999
32.410 64.227 30.845
32.566 63.754 31.406
32.661 63.487 32.269
32.895 63.708 32.938
33.205 64.072 33.202
32.830 63.702 33.636
32.781 63.740 34.581
32.819 63.723 35.697
33.211 64.026 36.603
33.189 63.590 37.144
32.565 63.733 41.207
33.158 64.161 40.569
32.424 65.059 30.316
33.199 64.354 30.909
33.258 64.289 33.936
33.298 64.523 34.963
33.298 64.474 35.865
32.482 64.771 41.251
33.138 65.230 40.688
32.498 66.102 29.793
33.144 65.858 29.406
32.935 65.383 29.805
32.412 65.772 41.187
33.018 66.320 40.715
32.922 66.603 29.354
33.348 66.914 29.066
33.480 66.327 29.040
32.264 66.670 41.053
32.719 67.454 40.563
33.021 67.271 29.324
33.114 68.084 29.567
32.610 68.457 40.214
32.526 68.644 30.174
32.269 69.160 30.660
32.998 69.467 30.367
32.455 69.173 39.806
32.906 68.824 39.964
33.045 69.203 39.598
32.335 69.816 31.071
33.187 70.268 30.812
32.245 70.077 38.884
32.601 69.745 39.284
32.622 70.532 31.351
32.447 70.842 31.772
32.757 70.952 31.585
32.678 70.484 38.247
32.563 70.873 37.606
32.688 70.182 38.714
32.904 71.427 32.085
32.685 71.942 33.152
32.726 72.253 33.873
33.200 72.398 33.420
32.601 72.222 34.622
32.649 72.098 35.491
32.927 71.795 36.284
32.604 71.407 36.852
33.343 72.530 34.168
33.115 72.422 34.979
33.330 72.203 35.622
33.366 62.442 38.899
33.522 63.017 38.519
33.588 63.036 39.144
33.408 62.766 39.602
33.083 63.940 31.753
33.236 63.998 32.487
33.372 63.974 37.130
33.519 63.848 37.566
33.704 63.676 38.241
33.993 64.182 38.650
33.791 63.726 39.050
33.537 63.529 39.771
33.221 64.885 30.130
33.581 65.225 29.628
34.084 64.684 30.240
34.104 64.422 31.081
33.706 64.273 31.818
33.856 64.529 33.004
33.735 64.860 34.175
33.774 65.087 34.836
34.015 65.209 34.458
33.702 65.014 35.539
33.666 64.799 36.423
33.646 64.407 37.165
34.029 64.454 39.173
34.089 65.207 39.434
33.709 64.551 39.865
33.805 65.702 29.135
34.289 65.474 34.987
34.086 65.359 36.056
33.682 65.735 40.132
34.105 66.219 39.541
34.073 66.843 28.796
34.032 66.147 28.836
33.562 66.896 40.134
34.054 67.314 39.449
33.614 67.509 29.069
34.010 68.151 29.143
33.370 68.226 39.874
33.995 68.217 39.234
33.249 68.909 29.875
34.064 68.854 29.491
33.623 69.117 39.103
34.163 68.624 38.725
33.983 69.297 38.440
33.723 69.384 29.922
33.912 69.983 30.263
33.347 70.165 38.249
34.052 69.706 37.924
33.858 70.358 37.555
33.092 69.752 39.060
33.229 70.933 31.294
34.204 70.794 30.764
33.357 71.117 37.103
34.016 70.699 37.042
33.920 71.223 36.648
33.917 71.484 31.443
33.803 71.964 32.013
34.599 72.000 31.710
33.447 72.193 32.691
33.602 71.742 36.278
34.130 71.491 36.169
33.990 72.004 35.650
34.308 72.351 32.388
34.028 72.543 33.282
34.160 72.582 34.085
33.839 72.438 34.893
33.963 64.464 37.984
34.556 65.179 29.397
35.239 64.697 30.096
34.795 64.518 30.805
34.739 64.566 31.829
34.673 64.876 32.838
35.251 64.889 32.439
34.374 65.155 33.819
34.185 65.298 37.185
34.278 65.204 38.210
34.182 64.820 38.749
34.414 65.737 28.904
34.738 66.254 28.671
35.226 65.622 28.878
35.156 65.221 33.191
35.002 65.634 34.129
34.865 65.909 34.964
35.231 66.008 34.532
34.660 66.032 36.061
34.593 66.188 37.277
34.460 65.933 38.096
34.330 65.635 38.859
35.255 67.056 28.559
35.204 66.281 35.145
35.188 66.749 35.862
35.210 67.449 36.309
34.869 66.940 36.922
34.631 66.803 37.957
34.408 66.584 38.816
34.507 67.677 28.810
34.989 68.468 29.021
34.917 67.941 37.071
35.203 68.285 36.429
34.711 67.595 37.734
34.417 67.688 38.609
35.053 69.161 29.407
34.859 68.873 36.965
35.134 68.978 36.427
34.484 68.696 37.888
34.536 69.591 29.788
34.955 70.257 30.176
34.878 69.634 36.563
35.173 69.379 36.210
35.145 70.108 35.903
34.400 69.828 37.240
35.424 70.913 30.608
34.463 70.671 36.487
34.663 71.385 35.646
34.927 71.485 31.120
35.516 71.933 31.529
34.418 72.107 35.144
35.197 72.303 32.130
34.888 72.496 32.785
35.019 72.424 33.594
34.649 72.327 34.500
35.783 65.051 29.385
36.425 64.682 30.088
35.804 64.584 30.995
35.681 64.748 31.879
36.557 64.829 31.677
35.738 66.241 28.568
36.311 65.577 28.870
35.968 65.148 32.573
35.674 65.593 33.459
35.504 65.903 34.054
36.008 66.005 33.795
36.241 66.818 28.455
35.641 66.245 34.449
35.687 66.765 35.038
35.496 67.201 35.660
35.872 67.444 35.238
35.383 67.858 28.671
36.329 67.585 28.571
35.536 67.855 35.823
35.935 68.207 35.353
35.941 68.287 28.806
36.121 68.965 29.259
35.492 68.897 35.868
35.975 68.935 35.309
35.605 69.707 29.737
36.065 70.338 30.209
35.771 69.762 35.330
36.309 69.424 34.880
36.109 70.313 34.803
36.419 70.883 30.690
35.485 70.962 35.064
36.109 71.133 34.379
35.920 71.432 31.046
36.428 71.730 31.574
35.491 71.867 34.303
36.072 71.696 34.012
35.968 72.033 33.580
34.953 71.825 34.946
35.944 72.147 31.974
35.881 72.275 32.721
36.950 65.036 29.420
37.554 64.701 30.096
37.059 64.635 30.828
37.674 64.993 31.506
36.761 66.224 28.576
37.358 65.610 28.945
36.952 65.341 32.357
36.395 65.674 33.116
36.564 66.152 33.549
37.106 66.917 28.532
36.257 66.568 34.204
36.186 67.128 34.710
36.706 67.256 34.234
37.433 67.573 28.747
36.406 67.867 34.772
36.940 67.964 34.260
36.866 68.279 28.912
37.432 68.798 29.483
36.823 68.861 34.434
37.268 68.443 33.977
37.292 69.106 33.939
36.305 68.608 34.981
36.846 69.649 29.902
37.003 70.319 30.466
37.087 69.527 34.098
36.713 70.203 34.227
37.226 70.701 31.011
36.668 71.254 31.124
37.130 71.190 31.557
36.541 71.401 33.754
37.026 70.857 33.595
36.944 71.453 33.281
36.982 71.579 31.971
36.554 71.909 33.137
36.969 71.690 32.899
36.661 72.001 32.658
36.543 71.992 32.187
38.050 65.124 29.540
38.423 64.741 30.178
38.054 64.672 30.721
38.440 64.917 31.091
37.673 66.271 28.719
38.108 65.744 29.073
37.792 65.778 32.251
38.441 65.483 31.542
37.108 66.015 32.987
37.960 66.895 28.770
38.467 66.491 32.019
38.349 67.364 32.497
37.767 66.769 32.916
36.986 66.686 33.619
38.279 67.372 29.162
37.718 68.093 29.111
38.235 68.132 29.640
37.947 67.750 33.059
38.251 68.307 32.605
37.370 67.629 33.673
38.106 68.741 29.974
37.711 68.816 33.323
38.077 69.326 32.479
37.712 69.262 30.011
37.492 70.263 30.741
37.680 69.739 30.503
37.810 70.065 31.109
37.690 70.068 32.835
37.871 70.155 32.203
37.319 69.960 33.611
37.453 70.941 32.232
37.667 70.515 31.635
37.280 71.006 32.998
37.050 71.623 32.471
38.721 65.024 29.901
38.895 64.859 30.265
38.721 64.789 30.631
38.880 65.228 30.950
38.368 66.301 29.019
38.691 65.637 29.534
38.905 66.027 31.232
38.443 66.792 29.026
38.776 66.533 29.484
38.832 67.174 31.353
39.093 66.465 30.789
38.978 67.117 30.550
38.643 67.192 32.024
38.590 68.150 30.529
38.761 67.318 29.890
38.627 68.235 31.411
38.599 67.837 32.019
38.153 69.063 30.400
38.275 69.147 31.093
38.401 68.779 31.929
38.093 69.705 31.756
39.035 65.269 30.107
39.042 65.061 30.511
39.057 65.873 29.949
39.126 65.701 30.542
39.079 66.479 30.188
3 2 1 0
3 0 3 2
3 1 4 0
3 0 4 3
3 7 6 5
3 9 8 5
3 5 8 7
3 11 10 9
3 9 10 8
3 13 12 11
3 11 12 10
3 13 14 12
3 5 6 15
3 15 6 16
3 5 17 9
3 5 15 17
3 9 18 11
3 9 17 18
3 11 19 13
3 11 18 19
3 14 13 20
3 13 21 20
3 13 19 21
3 21 22 20
3 25 24 23
3 27 26 23
3 23 26 25
3 26 27 16
3 27 15 16
3 27 28 15
3 15 29 17
3 15 28 29
3 17 30 18
3 17 29 30
3 18 31 19
3 18 30 31
3 19 32 21
3 19 31 32
3 22 21 33
3 33 21 32
3 23 24 34
3 34 24 35
3 34 1 2
3 27 34 2
3 23 34 27
3 27 2 3
3 36 27 3
3 28 27 36
3 28 37 29
3 28 36 37
3 29 38 30
3 29 37 38
3 30 39 31
3 30 38 39
3 31 40 32
3 31 39 40
3 33 32 41
3 41 32 40
3 35 42 34
3 42 44 43
3 42 43 4
3 34 42 4
3 1 34 4
3 36 3 4
3 43 36 4
3 45 36 43
3 36 46 37
3 36 45 46
3 37 47 38
3 37 46 47
3 38 48 39
3 38 47 48
3 39 49 40
3 39 48 49
3 41 40 50
3 50 40 49
3 43 44 51
3 51 44 52
3 43 53 45
3 43 51 53
3 45 54 46
3 45 53 54
3 46 55 47
3 46 54 55
3 47 56 48
3 47 55 56
3 48 57 49
3 48 56 57
3 50 49 58
3 58 49 57
3 51 52 59
3 59 52 60
3 51 61 53
3 51 59 61
3 53 62 54
3 53 61 62
3 54 63 55
3 54 62 63
3 55 64 56
3 55 63 64
3 56 65 57
3 56 64 65
3 58 57 66
3 66 57 65
3 59 60 67
3 67 60 68
3 59 69 61
3 59 67 69
3 61 70 62
3 61 69 70
3 62 71 63
3 62 70 71
3 63 72 64
3 63 71 72
3 64 73 65
3 64 72 73
3 66 65 74
3 74 65 73
3 67 68 75
3 75 68 76
3 67 77 69
3 67 75 77
3 69 78 70
3 69 77 78
3 70 79 71
3 70 78 79
3 71 80 72
3 71 79 80
3 72 81 73
3 72 80 81
3 74 73 82
3 82 73 81
3 75 76 83
3 83 76 84
3 75 85 77
3 75 83 85
3 77 86 78
3 77 85 86
3 78 87 79
3 78 86 87
3 79 88 80
3 79 87 88
3 80 89 81
3 80 88 89
3 82 81 90
3 90 81 89
3 84 91 83
3 93 92 91
3 92 83 91
3 92 85 83
3 85 94 86
3 85 92 94
3 86 95 87
3 86 94 95
3 87 96 88
3 87 95 96
3 88 97 89
3 88 96 97
3 90 89 98
3 98 89 97
3 92 93 99
3 99 93 100
3 92 101 94
3 92 99 101
3 94 102 95
3 94 101 102
3 95 103 96
3 95 102 103
3 105 97 104
3 97 103 104
3 97 96 103
3 97 105 98
3 100 106 99
3 99 106 101
3 101 106 107
3 101 107 102
3 102 107 108
3 102 108 103
3 103 108 109
3 103 109 104
3 112 111 110
3 114 113 110
3 110 113 112
3 116 115 114
3 114 115 113
3 118 117 116
3 116 117 115
3 120 119 118
3 118 119 117
3 120 121 119
3 123 122 7
3 7 122 6
3 8 110 111
3 123 8 111
3 7 8 123
3 110 8 10
3 110 10 114
3 114 10 12
3 114 12 116
3 116 12 14
3 124 116 14
3 118 116 124
3 118 125 120
3 118 124 125
3 121 120 126
3 120 127 126
3 120 125 127
3 127 128 126
3 131 130 129
3 122 131 129
3 16 122 129
3 6 122 16
3 20 124 14
3 124 20 22
3 132 124 22
3 125 124 132
3 125 133 127
3 125 132 133
3 128 127 134
3 134 127 133
3 136 135 25
3 25 135 24
3 26 129 130
3 136 26 130
3 25 26 136
3 129 26 16
3 33 137 132
3 33 132 22
3 132 138 133
3 132 137 138
3 134 133 139
3 139 133 138
3 135 35 24
3 140 35 135
3 41 141 137
3 41 137 33
3 137 142 138
3 137 141 142
3 139 138 143
3 143 138 142
3 42 35 144
3 35 145 144
3 35 140 145
3 144 44 42
3 50 146 141
3 50 141 41
3 141 147 142
3 141 146 147
3 143 142 148
3 148 142 147
3 144 145 149
3 149 145 150
3 149 52 44
3 149 44 144
3 58 151 146
3 58 146 50
3 146 152 147
3 146 151 152
3 148 147 153
3 147 154 153
3 147 152 154
3 154 155 153
3 150 156 149
3 52 149 156
3 157 52 156
3 60 52 157
3 66 158 151
3 66 151 58
3 151 159 152
3 151 158 159
3 152 160 154
3 152 159 160
3 155 154 161
3 161 154 160
3 157 68 60
3 162 68 157
3 74 163 158
3 74 158 66
3 158 164 159
3 158 163 164
3 159 165 160
3 159 164 165
3 161 160 166
3 166 160 165
3 162 76 68
3 167 76 162
3 82 168 163
3 82 163 74
3 163 169 164
3 163 168 169
3 164 170 165
3 164 169 170
3 166 165 171
3 171 165 170
3 167 84 76
3 172 84 167
3 90 173 168
3 90 168 82
3 168 174 169
3 168 173 174
3 176 170 175
3 170 174 175
3 170 169 174
3 170 176 171
3 91 84 177
3 84 178 177
3 84 172 178
3 177 93 91
3 98 179 173
3 98 173 90
3 181 174 180
3 174 179 180
3 174 173 179
3 174 181 175
3 178 182 177
3 93 177 182
3 183 93 182
3 100 93 183
3 104 184 105
3 184 185 105
3 105 185 98
3 185 186 98
3 186 179 98
3 179 186 180
3 106 100 187
3 100 188 187
3 100 183 188
3 189 107 106
3 189 106 187
3 190 108 107
3 190 107 189
3 191 109 108
3 191 108 190
3 191 192 109
3 109 192 104
3 192 193 104
3 193 184 104
3 184 193 185
3 188 194 187
3 187 194 189
3 189 194 195
3 189 195 190
3 190 195 196
3 190 196 191
3 191 196 197
3 191 197 192
3 198 111 112
3 198 112 199
3 112 200 199
3 112 113 200
3 201 113 115
3 201 200 113
3 202 115 117
3 202 201 115
3 203 117 119
3 203 202 117
3 205 204 121
3 204 119 121
3 204 203 119
3 205 206 204
3 207 122 123
3 208 207 123
3 208 123 111
3 209 208 111
3 198 209 111
3 209 198 199
3 126 205 121
3 211 210 128
3 128 210 126
3 210 206 126
3 206 205 126
3 211 212 210
3 213 130 131
3 214 213 131
3 214 131 122
3 215 214 122
3 207 215 122
3 215 207 208
3 134 216 211
3 134 211 128
3 212 211 217
3 217 211 216
3 218 135 136
3 219 218 136
3 219 136 130
3 220 219 130
3 213 220 130
3 220 213 214
3 139 221 216
3 139 216 134
3 217 216 222
3 216 223 222
3 216 221 223
3 223 224 222
3 226 225 218
3 225 135 218
3 225 140 135
3 226 218 219
3 143 227 221
3 143 221 139
3 221 228 223
3 221 227 228
3 224 223 229
3 229 223 228
3 232 231 230
3 225 232 230
3 145 225 230
3 140 225 145
3 148 233 227
3 148 227 143
3 227 234 228
3 227 233 234
3 229 228 235
3 235 228 234
3 231 236 230
3 145 230 236
3 237 145 236
3 150 145 237
3 153 233 148
3 233 153 155
3 238 233 155
3 234 233 238
3 235 234 239
3 239 234 238
3 237 240 150
3 150 240 156
3 157 156 240
3 157 240 241
3 161 242 238
3 161 238 155
3 239 238 243
3 238 244 243
3 238 242 244
3 244 245 243
3 241 162 157
3 246 162 241
3 166 247 242
3 166 242 161
3 242 248 244
3 242 247 248
3 245 244 249
3 249 244 248
3 246 167 162
3 250 167 246
3 171 251 247
3 171 247 166
3 247 252 248
3 247 251 252
3 249 248 253
3 253 248 252
3 250 172 167
3 254 172 250
3 175 255 176
3 251 171 176
3 255 251 176
3 256 251 255
3 258 252 257
3 252 256 257
3 252 251 256
3 252 258 253
3 254 178 172
3 259 178 254
3 180 260 181
3 255 175 181
3 260 255 181
3 261 255 260
3 255 262 256
3 255 261 262
3 257 256 263
3 263 256 262
3 182 178 264
3 178 265 264
3 178 259 265
3 264 183 182
3 185 266 186
3 260 180 186
3 266 260 186
3 267 260 266
3 269 261 268
3 261 267 268
3 261 260 267
3 261 269 262
3 262 269 270
3 262 270 263
3 264 265 271
3 271 265 272
3 271 188 183
3 271 183 264
3 192 273 193
3 266 185 193
3 273 266 193
3 274 266 273
3 276 267 275
3 267 274 275
3 267 266 274
3 267 276 268
3 272 277 271
3 277 279 278
3 277 278 194
3 271 277 194
3 188 271 194
3 280 195 194
3 280 194 278
3 281 196 195
3 281 195 280
3 282 197 196
3 282 196 281
3 273 192 197
3 282 273 197
3 283 273 282
3 273 284 274
3 273 283 284
3 275 274 285
3 285 274 284
3 278 279 286
3 286 279 287
3 278 288 280
3 278 286 288
3 290 281 289
3 281 288 289
3 281 280 288
3 281 290 282
3 282 290 291
3 282 291 283
3 283 291 292
3 283 292 284
3 284 292 293
3 284 293 285
3 287 294 286
3 286 294 288
3 288 294 295
3 288 295 289
3 296 199 200
3 201 297 200
3 200 297 296
3 202 298 201
3 201 298 297
3 203 299 202
3 202 299 298
3 204 300 203
3 203 300 299
3 206 300 204
3 301 208 209
3 302 301 209
3 302 209 199
3 303 302 199
3 296 303 199
3 305 304 303
3 296 305 303
3 297 305 296
3 306 297 298
3 305 297 306
3 307 298 299
3 306 298 307
3 308 299 300
3 307 299 308
3 210 309 206
3 309 300 206
3 309 308 300
3 212 309 210
3 310 214 215
3 208 301 215
3 301 310 215
3 301 311 310
3 301 302 312
3 313 301 312
3 311 301 313
3 313 312 304
3 305 313 304
3 314 313 305
3 315 305 306
3 314 305 315
3 307 317 316
3 315 307 316
3 306 307 315
3 319 318 317
3 307 319 317
3 308 319 307
3 320 308 309
3 319 308 320
3 217 320 212
3 212 320 309
3 321 219 220
3 214 310 220
3 310 321 220
3 310 322 321
3 323 310 311
3 322 310 323
3 324 311 313
3 323 311 324
3 314 326 325
3 324 314 325
3 313 314 324
3 328 327 326
3 314 328 326
3 315 328 314
3 315 316 329
3 315 329 328
3 330 318 319
3 332 331 330
3 319 332 330
3 320 332 319
3 222 333 217
3 333 320 217
3 333 332 320
3 224 333 222
3 335 334 226
3 226 334 225
3 226 219 321
3 336 226 321
3 335 226 336
3 336 321 322
3 336 322 337
3 337 322 323
3 337 323 338
3 338 323 324
3 338 324 339
3 339 324 325
3 327 328 340
3 327 340 341
3 328 329 342
3 328 342 340
3 343 331 332
3 343 332 333
3 343 333 344
3 333 224 344
3 224 345 344
3 224 229 345
3 346 231 232
3 347 346 232
3 225 347 232
3 334 347 225
3 350 349 348
3 351 348 349
3 352 341 340
3 352 340 342
3 235 345 229
3 235 353 345
3 346 236 231
3 355 354 237
3 355 237 236
3 347 355 236
3 346 347 236
3 356 354 355
3 357 350 348
3 357 348 351
3 239 359 358
3 353 239 358
3 235 239 353
3 359 360 358
3 354 240 237
3 241 240 354
3 356 241 354
3 361 241 356
3 243 359 239
3 243 245 359
3 245 360 359
3 245 362 360
3 361 246 241
3 363 246 361
3 249 362 245
3 249 364 362
3 363 250 246
3 365 250 363
3 253 364 249
3 253 366 364
3 369 368 367
3 365 369 367
3 254 365 367
3 250 365 254
3 257 370 258
3 370 371 258
3 371 253 258
3 371 366 253
3 367 368 372
3 372 368 373
3 372 259 254
3 372 254 367
3 375 374 370
3 257 375 370
3 263 375 257
3 370 374 371
3 372 373 376
3 376 373 377
3 376 265 259
3 376 259 372
3 268 378 269
3 379 270 269
3 379 269 378
3 379 380 270
3 380 263 270
3 380 375 263
3 376 377 381
3 381 377 382
3 381 272 265
3 381 265 376
3 275 383 276
3 378 268 276
3 383 378 276
3 384 378 383
3 378 385 379
3 378 384 385
3 380 379 386
3 386 379 385
3 382 387 381
3 387 389 388
3 387 388 277
3 381 387 277
3 272 381 277
3 388 279 277
3 285 390 383
3 285 383 275
3 392 384 391
3 384 390 391
3 384 383 390
3 384 392 385
3 385 392 393
3 385 393 386
3 388 389 394
3 394 389 395
3 394 287 279
3 394 279 388
3 289 396 290
3 397 291 290
3 397 290 396
3 398 292 291
3 398 291 397
3 399 293 292
3 399 292 398
3 390 285 293
3 399 390 293
3 400 390 399
3 391 390 401
3 401 390 400
3 395 402 394
3 394 402 287
3 402 294 287
3 402 403 294
3 403 405 404
3 295 403 404
3 294 403 295
3 396 289 295
3 404 396 295
3 406 396 404
3 396 407 397
3 396 406 407
3 397 408 398
3 397 407 408
3 410 399 409
3 399 408 409
3 399 398 408
3 399 410 400
3 400 410 411
3 400 411 401
3 405 412 404
3 404 412 406
3 406 412 413
3 406 413 407
3 407 413 414
3 407 414 408
3 408 414 415
3 408 415 409
3 416 302 303
3 304 416 303
3 416 312 302
3 312 416 304
3 417 316 317
3 318 417 317
3 418 325 326
3 327 418 326
3 419 329 417
3 417 329 316
3 330 420 318
3 420 417 318
3 420 419 417
3 331 420 330
3 421 334 335
3 336 422 335
3 335 422 421
3 337 423 336
3 336 423 422
3 338 424 337
3 337 424 423
3 339 425 338
3 338 425 424
3 325 418 339
3 418 425 339
3 418 426 425
3 341 426 327
3 327 426 418
3 427 342 419
3 419 342 329
3 428 419 420
3 427 419 428
3 343 429 331
3 429 420 331
3 429 428 420
3 344 430 343
3 343 430 429
3 345 430 344
3 431 347 421
3 421 347 334
3 422 433 432
3 431 422 432
3 421 422 431
3 435 434 433
3 422 435 433
3 423 435 422
3 436 423 424
3 435 423 436
3 350 436 349
3 436 425 349
3 436 424 425
3 349 425 351
3 425 437 351
3 425 426 437
3 352 438 341
3 438 426 341
3 438 437 426
3 342 427 352
3 427 438 352
3 427 439 438
3 440 427 428
3 439 427 440
3 441 428 429
3 440 428 441
3 442 429 430
3 441 429 442
3 353 442 345
3 345 442 430
3 431 355 347
3 444 443 356
3 444 356 355
3 432 444 355
3 431 432 355
3 443 444 434
3 435 443 434
3 445 443 435
3 446 435 436
3 445 435 446
3 357 447 350
3 447 436 350
3 447 446 436
3 351 437 357
3 437 447 357
3 437 448 447
3 449 437 438
3 448 437 449
3 450 438 439
3 449 438 450
3 440 452 451
3 450 440 451
3 439 440 450
3 452 440 441
3 452 441 453
3 455 454 453
3 441 455 453
3 442 455 441
3 358 456 353
3 456 442 353
3 456 455 442
3 360 456 358
3 457 361 443
3 443 361 356
3 458 443 445
3 457 443 458
3 459 445 446
3 458 445 459
3 460 446 447
3 459 446 460
3 461 447 448
3 460 447 461
3 449 463 462
3 461 449 462
3 448 449 461
3 463 449 450
3 463 450 464
3 464 450 451
3 465 454 455
3 465 455 456
3 465 456 466
3 456 360 466
3 360 467 466
3 360 362 467
3 468 363 457
3 457 363 361
3 458 470 469
3 468 458 469
3 457 458 468
3 472 471 470
3 458 472 470
3 459 472 458
3 473 459 460
3 472 459 473
3 461 475 474
3 473 461 474
3 460 461 473
3 475 461 462
3 364 467 362
3 364 476 467
3 478 477 468
3 477 363 468
3 477 365 363
3 478 468 469
3 479 471 472
3 479 472 473
3 479 473 480
3 480 473 474
3 483 482 481
3 482 476 481
3 476 366 481
3 476 364 366
3 485 484 369
3 369 484 368
3 369 365 477
3 369 477 485
3 483 481 486
3 483 486 487
3 371 486 366
3 366 486 481
3 484 373 368
3 488 373 484
3 487 486 374
3 375 487 374
3 489 487 375
3 374 486 371
3 488 377 373
3 490 377 488
3 380 489 375
3 380 491 489
3 494 493 492
3 490 494 492
3 382 490 492
3 377 490 382
3 386 491 380
3 386 495 491
3 492 493 496
3 496 493 497
3 498 387 382
3 492 498 382
3 496 498 492
3 498 389 387
3 391 499 392
3 392 499 500
3 501 392 500
3 393 392 501
3 386 393 495
3 495 393 501
3 497 502 496
3 496 502 498
3 498 502 503
3 389 498 503
3 504 389 503
3 395 389 504
3 401 505 499
3 401 499 391
3 500 499 506
3 506 499 505
3 402 395 507
3 395 508 507
3 395 504 508
3 509 403 402
3 509 402 507
3 509 405 403
3 409 510 410
3 410 510 511
3 512 410 511
3 411 410 512
3 401 411 505
3 411 513 505
3 411 512 513
3 505 513 506
3 508 514 507
3 516 515 514
3 515 507 514
3 515 509 507
3 517 412 405
3 509 517 405
3 515 517 509
3 518 413 412
3 518 412 517
3 519 414 413
3 519 413 518
3 520 415 414
3 520 414 519
3 520 521 415
3 415 521 409
3 521 522 409
3 522 510 409
3 510 522 511
3 516 523 515
3 515 523 517
3 517 523 524
3 517 524 518
3 518 524 525
3 518 525 519
3 519 525 526
3 519 526 520
3 520 526 527
3 520 527 521
3 528 432 433
3 434 528 433
3 528 444 432
3 444 528 434
3 529 451 452
3 453 530 452
3 452 530 529
3 454 530 453
3 531 462 463
3 464 532 463
3 463 532 531
3 451 529 464
3 529 532 464
3 529 533 532
3 534 529 530
3 533 529 534
3 465 535 454
3 535 530 454
3 535 534 530
3 466 536 465
3 465 536 535
3 467 536 466
3 537 469 470
3 471 537 470
3 538 474 475
3 462 531 475
3 531 538 475
3 531 539 538
3 540 531 532
3 539 531 540
3 533 542 541
3 540 533 541
3 532 533 540
3 544 543 542
3 533 544 542
3 534 544 533
3 545 534 535
3 544 534 545
3 546 535 536
3 545 535 546
3 476 546 467
3 467 546 536
3 547 477 478
3 469 537 478
3 537 547 478
3 537 548 547
3 479 549 471
3 549 537 471
3 549 548 537
3 480 550 479
3 479 550 549
3 474 538 480
3 538 550 480
3 538 551 550
3 552 538 539
3 551 538 552
3 540 554 553
3 552 540 553
3 539 540 552
3 554 540 541
3 555 543 544
3 557 556 555
3 544 557 555
3 545 557 544
3 483 557 482
3 557 546 482
3 557 545 546
3 482 546 476
3 558 484 485
3 559 558 485
3 559 485 477
3 560 559 477
3 547 560 477
3 560 547 548
3 560 548 561
3 563 562 561
3 548 563 561
3 549 563 548
3 564 549 550
3 563 549 564
3 565 550 551
3 564 550 565
3 552 567 566
3 565 552 566
3 551 552 565
3 567 552 553
3 556 557 568
3 556 568 569
3 487 568 483
3 483 568 557
3 571 570 558
3 570 484 558
3 570 488 484
3 571 558 559
3 572 562 563
3 572 563 564
3 572 564 573
3 573 564 565
3 573 565 574
3 574 565 566
3 569 568 575
3 569 575 576
3 489 575 487
3 487 575 568
3 579 578 577
3 570 579 577
3 490 570 577
3 488 570 490
3 576 575 580
3 576 580 581
3 491 580 489
3 489 580 575
3 584 583 582
3 584 582 578
3 578 582 577
3 582 493 577
3 493 494 577
3 577 494 490
3 581 580 585
3 581 585 586
3 495 585 491
3 491 585 580
3 583 587 582
3 493 582 587
3 588 493 587
3 497 493 588
3 586 585 501
3 500 586 501
3 589 586 500
3 501 585 495
3 588 590 497
3 497 590 502
3 590 592 591
3 503 590 591
3 502 590 503
3 591 504 503
3 595 594 593
3 594 589 593
3 589 506 593
3 589 500 506
3 591 592 596
3 596 592 597
3 596 508 504
3 596 504 591
3 511 598 512
3 599 595 593
3 512 599 593
3 513 512 593
3 599 512 598
3 513 593 506
3 597 600 596
3 600 602 601
3 600 601 514
3 596 600 514
3 508 596 514
3 601 516 514
3 604 603 522
3 604 522 521
3 511 522 598
3 522 605 598
3 522 603 605
3 598 605 599
3 602 606 601
3 601 606 516
3 606 523 516
3 606 607 523
3 607 609 608
3 524 607 608
3 523 607 524
3 610 525 524
3 610 524 608
3 611 526 525
3 611 525 610
3 526 611 612
3 613 526 612
3 527 526 613
3 521 527 604
3 604 527 613
3 609 614 608
3 608 614 610
3 610 614 615
3 610 615 611
3 611 615 616
3 611 616 612
3 617 541 542
3 543 617 542
3 618 553 554
3 541 617 554
3 617 618 554
3 617 619 618
3 555 620 543
3 620 617 543
3 620 619 617
3 556 620 555
3 621 559 560
3 561 622 560
3 560 622 621
3 562 622 561
3 623 566 567
3 624 623 567
3 624 567 553
3 625 624 553
3 618 625 553
3 627 626 625
3 618 627 625
3 619 627 618
3 628 619 620
3 627 619 628
3 569 628 556
3 556 628 620
3 631 630 629
3 570 571 629
3 571 631 629
3 571 632 631
3 571 559 621
3 633 571 621
3 632 571 633
3 633 621 622
3 633 622 634
3 634 622 562
3 572 634 562
3 635 634 572
3 637 635 636
3 635 573 636
3 635 572 573
3 574 638 573
3 573 638 636
3 639 638 574
3 639 574 566
3 640 639 566
3 623 640 566
3 640 623 624
3 641 626 627
3 643 642 641
3 627 643 641
3 628 643 627
3 576 643 569
3 569 643 628
3 629 630 579
3 630 578 579
3 630 644 578
3 629 579 570
3 645 637 636
3 645 636 638
3 645 638 646
3 646 638 639
3 642 643 647
3 642 647 648
3 581 647 576
3 576 647 643
3 650 649 584
3 584 649 583
3 584 578 644
3 584 644 650
3 648 647 651
3 648 651 652
3 586 651 581
3 581 651 647
3 649 653 583
3 583 653 587
3 588 587 653
3 588 653 654
3 652 651 655
3 652 655 656
3 589 655 586
3 586 655 651
3 590 588 657
3 588 658 657
3 588 654 658
3 657 592 590
3 661 660 659
3 659 660 656
3 659 656 655
3 595 659 655
3 594 595 655
3 594 655 589
3 658 662 657
3 592 657 662
3 663 592 662
3 597 592 663
3 666 665 664
3 664 665 661
3 659 664 661
3 667 664 659
3 599 667 595
3 595 667 659
3 600 597 668
3 597 669 668
3 597 663 669
3 668 602 600
3 672 671 670
3 670 671 666
3 670 666 664
3 604 670 664
3 603 604 664
3 603 664 605
3 605 664 667
3 605 667 599
3 669 673 668
3 673 675 674
3 673 674 606
3 668 673 606
3 602 668 606
3 676 607 606
3 676 606 674
3 676 609 607
3 679 678 677
3 677 678 672
3 677 672 670
3 612 677 670
3 613 612 670
3 613 670 604
3 675 680 674
3 674 680 676
3 676 680 681
3 676 681 609
3 681 614 609
3 681 682 614
3 614 683 615
3 682 683 614
3 677 616 679
3 616 683 679
3 616 615 683
3 616 677 612
3 684 624 625
3 626 684 625
3 686 685 631
3 631 685 630
3 687 631 632
3 687 686 631
3 688 632 633
3 688 687 632
3 690 688 689
3 688 634 689
3 688 633 634
3 635 691 634
3 634 691 689
3 637 691 635
3 692 639 640
3 624 684 640
3 684 692 640
3 684 693 692
3 641 694 626
3 694 684 626
3 694 693 684
3 642 694 641
3 697 696 695
3 685 697 695
3 644 685 695
3 630 685 644
3 698 690 689
3 698 689 691
3 698 691 699
3 701 699 700
3 700 699 645
3 699 691 645
3 691 637 645
3 646 702 645
3 645 702 700
3 639 692 646
3 692 702 646
3 692 703 702
3 704 692 693
3 703 692 704
3 705 693 694
3 704 693 705
3 648 705 642
3 642 705 694
3 695 696 650
3 696 649 650
3 696 706 649
3 695 650 644
3 707 701 700
3 707 700 702
3 707 702 708
3 710 709 708
3 702 710 708
3 703 710 702
3 711 703 704
3 710 703 711
3 712 704 705
3 711 704 712
3 652 712 648
3 648 712 705
3 706 713 649
3 649 713 653
3 654 653 713
3 654 713 714
3 709 710 715
3 709 715 716
3 717 710 711
3 715 710 717
3 718 711 712
3 717 711 718
3 656 718 652
3 652 718 712
3 714 658 654
3 719 658 714
3 716 715 720
3 716 720 721
3 722 715 717
3 720 715 722
3 661 722 660
3 722 718 660
3 722 717 718
3 660 718 656
3 719 723 658
3 658 723 662
3 663 662 723
3 663 723 724
3 727 726 725
3 725 726 721
3 720 725 721
3 728 725 720
3 666 728 665
3 728 722 665
3 728 720 722
3 665 722 661
3 724 669 663
3 729 669 724
3 727 725 730
3 727 730 731
3 672 730 671
3 730 728 671
3 730 725 728
3 671 728 666
3 729 732 669
3 669 732 673
3 675 673 732
3 675 732 733
3 731 730 678
3 679 731 678
3 734 731 679
3 678 730 672
3 733 735 675
3 675 735 680
3 680 736 681
3 735 736 680
3 681 737 682
3 736 737 681
3 682 738 683
3 737 738 682
3 679 683 734
3 734 683 738
3 740 739 686
3 686 739 685
3 741 686 687
3 741 740 686
3 743 741 742
3 741 688 742
3 741 687 688
3 690 742 688
3 745 744 697
3 697 744 696
3 697 685 739
3 697 739 745
3 746 743 742
3 746 742 690
3 698 746 690
3 747 746 698
3 749 747 748
3 747 699 748
3 747 698 699
3 701 748 699
3 744 706 696
3 750 706 744
3 751 749 748
3 751 748 701
3 707 751 701
3 752 751 707
3 754 752 753
3 752 708 753
3 752 707 708
3 709 753 708
3 713 706 755
3 706 756 755
3 706 750 756
3 755 714 713
3 754 753 757
3 754 757 758
3 716 757 709
3 709 757 753
3 756 759 755
3 714 755 759
3 760 714 759
3 719 714 760
3 758 757 761
3 758 761 762
3 721 761 716
3 716 761 757
3 760 763 719
3 719 763 723
3 724 723 763
3 724 763 764
3 767 766 765
3 765 766 762
3 765 762 761
3 727 765 761
3 726 727 761
3 726 761 721
3 764 729 724
3 768 729 764
3 767 765 769
3 767 769 770
3 731 769 727
3 727 769 765
3 768 771 729
3 729 771 732
3 733 732 771
3 733 771 772
3 775 774 773
3 773 774 770
3 769 773 770
3 776 773 769
3 734 776 731
3 731 776 769
3 772 777 733
3 733 777 735
3 735 778 736
3 777 778 735
3 773 737 775
3 737 778 775
3 737 736 778
3 737 773 738
3 738 773 776
3 738 776 734
3 780 779 740
3 740 779 739
3 781 740 741
3 781 780 740
3 741 743 781
3 781 743 782
3 784 783 745
3 745 783 744
3 745 739 779
3 745 779 784
3 785 782 743
3 785 743 746
3 786 746 747
3 786 785 746
3 747 749 786
3 786 749 787
3 783 750 744
3 788 750 783
3 789 787 749
3 789 749 751
3 791 789 790
3 789 752 790
3 789 751 752
3 754 790 752
3 788 756 750
3 792 756 788
3 791 790 793
3 791 793 794
3 758 793 754
3 754 793 790
3 792 795 756
3 756 795 759
3 760 759 795
3 760 795 796
3 799 798 797
3 797 798 794
3 793 797 794
3 800 797 793
3 762 800 758
3 758 800 793
3 796 801 760
3 760 801 763
3 764 763 801
3 764 801 802
3 803 799 797
3 767 804 766
3 804 797 766
3 797 800 766
3 804 803 797
3 766 800 762
3 806 768 805
3 768 802 805
3 768 764 802
3 807 806 805
3 810 809 808
3 809 804 808
3 804 770 808
3 804 767 770
3 806 771 768
3 772 771 806
3 807 772 806
3 811 772 807
3 814 813 812
3 812 813 810
3 812 810 808
3 775 812 808
3 774 775 808
3 774 808 770
3 811 815 772
3 772 815 777
3 812 778 814
3 778 815 814
3 778 777 815
3 778 812 775
3 817 816 780
3 780 816 779
3 818 780 781
3 818 817 780
3 781 782 818
3 818 782 819
3 821 820 784
3 784 820 783
3 784 779 816
3 784 816 821
3 782 785 822
3 823 782 822
3 819 782 823
3 786 824 785
3 785 824 822
3 787 824 786
3 820 788 783
3 825 788 820
3 826 823 822
3 828 827 826
3 822 828 826
3 824 828 822
3 789 829 787
3 829 824 787
3 829 828 824
3 791 829 789
3 831 792 830
3 792 825 830
3 792 788 825
3 832 831 830
3 827 828 833
3 827 833 834
3 835 828 829
3 833 828 835
3 794 835 791
3 791 835 829
3 831 795 792
3 796 795 831
3 832 796 831
3 836 796 832
3 834 833 837
3 834 837 838
3 799 837 798
3 837 835 798
3 837 833 835
3 798 835 794
3 836 839 796
3 796 839 801
3 841 840 802
3 801 841 802
3 839 841 801
3 842 840 841
3 838 837 843
3 838 843 844
3 803 845 799
3 845 837 799
3 845 843 837
3 804 845 803
3 840 805 802
3 847 846 807
3 847 807 805
3 842 847 805
3 840 842 805
3 846 847 844
3 843 846 844
3 848 846 843
3 810 848 809
3 848 845 809
3 848 843 845
3 809 845 804
3 849 811 846
3 846 811 807
3 814 849 813
3 849 848 813
3 849 846 848
3 813 848 810
3 849 815 811
3 815 849 814
3 851 850 817
3 817 850 816
3 852 817 818
3 852 851 817
3 818 819 852
3 852 819 853
3 854 820 821
3 855 854 821
3 816 855 821
3 850 855 816
3 823 853 819
3 823 856 853
3 857 825 854
3 854 825 820
3 854 855 858
3 854 858 857
3 861 860 859
3 862 859 826
3 859 856 826
3 856 823 826
3 856 859 860
3 827 862 826
3 857 830 825
3 864 863 832
3 864 832 830
3 858 864 830
3 857 858 830
3 863 864 861
3 859 863 861
3 865 863 859
3 866 859 862
3 865 859 866
3 834 866 827
3 827 866 862
3 867 836 863
3 863 836 832
3 868 863 865
3 867 863 868
3 869 865 866
3 868 865 869
3 838 869 834
3 834 869 866
3 867 839 836
3 839 867 841
3 841 867 868
3 841 868 842
3 868 870 842
3 868 869 870
3 844 870 838
3 838 870 869
3 870 847 842
3 847 870 844
3 871 850 851
3 852 872 851
3 851 872 871
3 853 872 852
3 873 855 871
3 871 855 850
3 874 871 872
3 873 871 874
3 856 874 853
3 853 874 872
3 875 858 873
3 873 858 855
3 861 875 860
3 875 874 860
3 875 873 874
3 860 874 856
3 875 864 858
3 864 875 861
